<svg width="116" height="162" viewBox="0 0 116 162" fill="none" xmlns="http://www.w3.org/2000/svg">
<path fill-rule="evenodd" clip-rule="evenodd" d="M88.9348 160L39 159.581L39.065 152.043C39.0951 148.678 41.8833 145.972 45.2925 146L82.8767 146.316C86.2876 146.346 89.0299 149.095 88.9998 152.462L88.9348 160Z" stroke="#E91D50" stroke-width="3" stroke-linecap="round"/>
<path fill-rule="evenodd" clip-rule="evenodd" d="M112.437 49.2676C119.261 75.7514 103.107 102.697 76.3551 109.452C49.6051 116.209 22.3867 100.216 15.5635 73.7334C8.73868 47.2496 24.8919 20.3037 51.6435 13.5472C78.395 6.79229 105.612 22.7838 112.437 49.2676Z" stroke="#E91D50" stroke-width="3"/>
<path d="M76.1438 110.239L51.621 13.7529L48.4844 2C15.4513 10.4593 -4.49653 44.192 3.93032 77.346C12.3587 110.5 45.9685 130.519 79 122.063L76.0051 110.274" stroke="#E91D50" stroke-width="3" stroke-linecap="round" stroke-linejoin="round"/>
<path fill-rule="evenodd" clip-rule="evenodd" d="M24 31.5963C33.8991 36.0586 45.335 37.3405 56.6891 34.466C68.0432 31.5916 77.4625 25.0277 84 16.4044C74.0994 11.9421 62.6635 10.6587 51.3093 13.5347C39.9552 16.4091 30.5359 22.973 24 31.5963Z" stroke="#E91D50" stroke-width="3"/>
<path fill-rule="evenodd" clip-rule="evenodd" d="M43 106.596C52.9004 111.059 64.3344 112.34 75.6882 109.466C87.0436 106.59 96.4611 100.028 103 91.4044C93.0996 86.9421 81.664 85.6587 70.3086 88.5347C58.9564 91.4091 49.5358 97.973 43 106.596Z" stroke="#E91D50" stroke-width="3"/>
<path fill-rule="evenodd" clip-rule="evenodd" d="M88.0454 55.3639C94.8213 81.9319 89.5475 106.215 76.2668 109.605C62.9893 112.993 46.7298 94.2029 39.9539 67.6349C33.1796 41.0685 38.4518 16.7834 51.7325 13.3952C65.0115 10.0054 81.2695 28.7959 88.0454 55.3639Z" stroke="#E91D50" stroke-width="3"/>
<path d="M16 74L113 49" stroke="#E91D50" stroke-width="3"/>
<path d="M64 124V146" stroke="#E91D50" stroke-width="3"/>
<path d="M33 160H97" stroke="#E91D50" stroke-width="3" stroke-linecap="round"/>
</svg>
