<svg width="593" height="380" viewBox="0 0 593 380" fill="none" xmlns="http://www.w3.org/2000/svg">
<path fill-rule="evenodd" clip-rule="evenodd" d="M592.177 286.795C600.812 355.536 391.381 400.372 211.118 369.082C30.8551 337.791 -51.8409 215.598 34.1775 150.489C120.196 85.3799 583.541 218.055 592.177 286.795Z" fill="#B7C6E0"/>
<path fill-rule="evenodd" clip-rule="evenodd" d="M407.476 98.7216L367.522 202.253L299.172 13.3406L232.721 220.29L150.131 84.5386L58.9995 335.156H499L407.476 98.7216Z" fill="#9DB2D7"/>
<path fill-rule="evenodd" clip-rule="evenodd" d="M279.816 127.271C278.879 124.662 276.391 122.792 273.459 122.792C272.123 122.792 270.881 123.185 269.833 123.853C268.507 120.297 265.082 117.764 261.063 117.764C257.359 117.764 254.158 119.916 252.642 123.038C252.072 122.882 251.475 122.792 250.855 122.792C247.923 122.792 245.435 124.662 244.498 127.271H279.816Z" fill="white"/>
<path fill-rule="evenodd" clip-rule="evenodd" d="M482.734 113.427C482.734 126.929 471.788 137.875 458.286 137.875C444.784 137.875 433.838 126.929 433.838 113.427C433.838 99.9252 444.784 88.9792 458.286 88.9792C471.788 88.9792 482.734 99.9252 482.734 113.427Z" fill="#EFC260"/>
<path fill-rule="evenodd" clip-rule="evenodd" d="M456.525 244.393C442.932 244.393 431.812 255.514 431.812 269.107V313.664C431.812 327.255 442.932 338.376 456.525 338.376C470.118 338.376 481.238 327.255 481.238 313.664V269.107C481.238 255.514 470.118 244.393 456.525 244.393Z" fill="#819BC8"/>
<path fill-rule="evenodd" clip-rule="evenodd" d="M455.861 365.182H456.704V256.387H455.861V365.182Z" fill="white"/>
<path fill-rule="evenodd" clip-rule="evenodd" d="M443.938 289.191L456.02 299.339L469.544 289.741L469.094 289.026L456.063 298.274L444.587 288.634L443.938 289.191Z" fill="white"/>
<path fill-rule="evenodd" clip-rule="evenodd" d="M443.938 313.388L456.02 323.537L469.544 313.939L469.094 313.223L456.063 322.471L444.587 312.831L443.938 313.388Z" fill="white"/>
<path fill-rule="evenodd" clip-rule="evenodd" d="M443.938 264.994L456.02 275.142L469.544 265.544L469.094 264.829L456.063 274.077L444.587 264.437L443.938 264.994Z" fill="white"/>
<path fill-rule="evenodd" clip-rule="evenodd" d="M463.466 365.263H450.384C450.122 365.263 449.909 365.051 449.909 364.788C449.909 364.526 450.122 364.314 450.384 364.314H463.466C463.729 364.314 463.941 364.526 463.941 364.788C463.941 365.051 463.729 365.263 463.466 365.263Z" fill="#A194EF"/>
<path fill-rule="evenodd" clip-rule="evenodd" d="M109.442 253.908C99.5443 253.908 91.4463 262.006 91.4463 271.903V304.349C91.4463 314.247 99.5443 322.346 109.442 322.346C119.339 322.346 127.438 314.247 127.438 304.349V271.903C127.438 262.006 119.339 253.908 109.442 253.908Z" fill="#819BC8"/>
<path fill-rule="evenodd" clip-rule="evenodd" d="M108.959 341.864H109.573V262.641H108.959V341.864Z" fill="white"/>
<path fill-rule="evenodd" clip-rule="evenodd" d="M100.277 286.529L109.074 293.919L118.923 286.929L118.595 286.408L109.106 293.142L100.75 286.124L100.277 286.529Z" fill="white"/>
<path fill-rule="evenodd" clip-rule="evenodd" d="M100.277 304.149L109.074 311.539L118.923 304.549L118.595 304.029L109.106 310.763L100.75 303.744L100.277 304.149Z" fill="white"/>
<path fill-rule="evenodd" clip-rule="evenodd" d="M100.277 268.908L109.074 276.299L118.923 269.309L118.595 268.788L109.106 275.522L100.75 268.504L100.277 268.908Z" fill="white"/>
<path fill-rule="evenodd" clip-rule="evenodd" d="M114.496 341.923H104.97C104.779 341.923 104.624 341.768 104.624 341.577C104.624 341.386 104.779 341.232 104.97 341.232H114.496C114.687 341.232 114.842 341.386 114.842 341.577C114.842 341.768 114.687 341.923 114.496 341.923Z" fill="#A194EF"/>
<path fill-rule="evenodd" clip-rule="evenodd" d="M463.982 128.221C462.39 123.788 458.163 120.611 453.182 120.611C450.913 120.611 448.803 121.278 447.022 122.414C444.769 116.372 438.95 112.069 432.124 112.069C425.831 112.069 420.393 115.726 417.817 121.03C416.848 120.764 415.834 120.611 414.781 120.611C409.8 120.611 405.573 123.788 403.981 128.221H463.982Z" fill="white"/>
<path fill-rule="evenodd" clip-rule="evenodd" d="M369.751 85.2069H188.249C183.461 85.2069 179.581 89.0889 179.581 93.8759V352.05C179.581 356.838 183.461 360.718 188.249 360.718H369.751C374.538 360.718 378.419 356.837 378.419 352.05V93.8759C378.419 89.0889 374.538 85.2069 369.751 85.2069Z" fill="#819BC8"/>
<path fill-rule="evenodd" clip-rule="evenodd" d="M195.731 346.277H362.274V100.61H195.731V346.277Z" fill="white"/>
<path fill-rule="evenodd" clip-rule="evenodd" d="M195.731 341.262H362.274V95.595H195.731V341.262Z" fill="white"/>
<path fill-rule="evenodd" clip-rule="evenodd" d="M221.487 95.5951C221.592 102.455 227.187 108.313 234.425 108.313H323.573C330.812 108.313 336.406 102.455 336.512 95.5951H221.487Z" fill="#3E3577"/>
<path fill-rule="evenodd" clip-rule="evenodd" d="M280.524 79.6957C275.045 80.7377 270.328 76.0217 271.369 70.5407C271.95 67.4807 274.419 65.0127 277.48 64.4337C282.957 63.3977 287.668 68.1097 286.63 73.5857C286.051 76.6457 283.585 79.1147 280.524 79.6957ZM333.75 79.0937C332.798 74.9797 329.134 72.0657 324.912 72.0657H295.176C295.177 63.1317 287.934 55.8877 278.999 55.8877C270.065 55.8877 262.822 63.1317 262.822 72.0657H233.086C228.863 72.0657 225.2 74.9787 224.248 79.0927L221.816 89.6087C219.941 97.7187 226.1 105.465 234.424 105.465H323.573C331.897 105.465 338.056 97.7187 336.181 89.6097L333.75 79.0937Z" fill="#819BC8"/>
<path fill-rule="evenodd" clip-rule="evenodd" d="M211.691 158.592H246.136V124.145H211.691V158.592ZM208.351 161.933H249.477V120.805H208.351V161.933Z" fill="#A5CDD4"/>
<path fill-rule="evenodd" clip-rule="evenodd" d="M259.267 132.332H305.029V125.168H259.267V132.332Z" fill="#A5CDD4"/>
<path fill-rule="evenodd" clip-rule="evenodd" d="M259.267 147.607H350.791V140.443H259.267V147.607Z" fill="#A5CDD4"/>
<path fill-rule="evenodd" clip-rule="evenodd" d="M259.267 161.847H350.791V154.683H259.267V161.847Z" fill="#A5CDD4"/>
<path fill-rule="evenodd" clip-rule="evenodd" d="M253.198 117.119L229.905 140.772L222.994 134.678L217.684 140.703L230.281 151.812L258.913 122.765L253.198 117.119Z" fill="#D81646"/>
<path fill-rule="evenodd" clip-rule="evenodd" d="M211.691 213.177H246.136V178.73H211.691V213.177ZM208.351 216.518H249.477V175.39H208.351V216.518Z" fill="#A5CDD4"/>
<path fill-rule="evenodd" clip-rule="evenodd" d="M259.267 186.917H305.029V179.753H259.267V186.917Z" fill="#A5CDD4"/>
<path fill-rule="evenodd" clip-rule="evenodd" d="M259.267 202.192H350.791V195.028H259.267V202.192Z" fill="#A5CDD4"/>
<path fill-rule="evenodd" clip-rule="evenodd" d="M259.267 216.431H350.791V209.268H259.267V216.431Z" fill="#A5CDD4"/>
<path fill-rule="evenodd" clip-rule="evenodd" d="M253.198 171.704L237.17 188.047L242.293 194.024L258.913 177.35L253.198 171.704Z" fill="#D81646"/>
<path fill-rule="evenodd" clip-rule="evenodd" d="M211.691 267.762H246.136V233.315H211.691V267.762ZM208.351 271.103H249.477V229.974H208.351V271.103Z" fill="#A5CDD4"/>
<path fill-rule="evenodd" clip-rule="evenodd" d="M259.267 241.502H305.029V234.338H259.267V241.502Z" fill="#A5CDD4"/>
<path fill-rule="evenodd" clip-rule="evenodd" d="M259.267 256.777H350.791V249.613H259.267V256.777Z" fill="#A5CDD4"/>
<path fill-rule="evenodd" clip-rule="evenodd" d="M259.267 271.016H350.791V263.853H259.267V271.016Z" fill="#A5CDD4"/>
<path fill-rule="evenodd" clip-rule="evenodd" d="M253.198 226.289L229.905 249.941L222.994 243.848L217.684 249.873L230.281 260.981L258.913 231.935L253.198 226.289Z" fill="#D81646"/>
<path fill-rule="evenodd" clip-rule="evenodd" d="M211.691 323.297H246.136V288.85H211.691V323.297ZM208.351 326.638H249.477V285.509H208.351V326.638Z" fill="#A5CDD4"/>
<path fill-rule="evenodd" clip-rule="evenodd" d="M259.267 297.036H305.029V289.873H259.267V297.036Z" fill="#A5CDD4"/>
<path fill-rule="evenodd" clip-rule="evenodd" d="M259.267 312.311H350.791V305.148H259.267V312.311Z" fill="#A5CDD4"/>
<path fill-rule="evenodd" clip-rule="evenodd" d="M259.267 326.55H350.791V319.387H259.267V326.55Z" fill="#A5CDD4"/>
<path fill-rule="evenodd" clip-rule="evenodd" d="M253.198 281.824L229.905 305.477L222.994 299.383L217.684 305.408L230.281 316.516L258.913 287.47L253.198 281.824Z" fill="#D81646"/>
<path fill-rule="evenodd" clip-rule="evenodd" d="M241.092 197.193L233.153 192.549C232.832 192.361 232.631 192.02 232.622 191.649C232.613 191.276 232.797 190.926 233.109 190.723L239.569 186.511C239.91 186.289 240.346 186.278 240.697 186.484L245.659 189.386C246.171 189.686 246.343 190.343 246.044 190.855L242.56 196.809C242.261 197.32 241.604 197.492 241.092 197.193Z" fill="#EC2A5A"/>
<path fill-rule="evenodd" clip-rule="evenodd" d="M235.889 188.91L233.108 190.723C232.797 190.927 232.613 191.276 232.622 191.648C232.631 192.02 232.832 192.361 233.153 192.549L241.092 197.193C241.603 197.492 242.261 197.32 242.56 196.808L244.302 193.831L235.889 188.91Z" fill="#D81646"/>
<path fill-rule="evenodd" clip-rule="evenodd" d="M336.269 263.528L253.223 214.946C250.535 213.373 248.577 210.719 248.114 207.639C247.73 205.082 246.222 202.858 243.995 201.555L239.931 199.177C239.419 198.879 239.248 198.221 239.547 197.709L245.352 187.786C245.651 187.275 246.309 187.102 246.82 187.402L250.921 189.8C253.133 191.094 255.784 191.231 258.205 190.391C261.153 189.368 264.38 189.682 267.079 191.261L350.124 239.843C356.295 243.453 358.372 251.382 354.761 257.553L353.979 258.89C350.369 265.061 342.44 267.137 336.269 263.528Z" fill="white"/>
<path fill-rule="evenodd" clip-rule="evenodd" d="M265.753 191.618L252.884 213.616C252.616 214.074 252.756 214.673 253.214 214.941C253.217 214.942 253.22 214.944 253.223 214.946L341.629 266.664C344.839 268.542 348.964 267.462 350.842 264.252L357.897 252.192C359.774 248.982 358.695 244.857 355.484 242.979L267.079 191.261C267.076 191.26 267.073 191.258 267.07 191.256C266.612 190.989 266.021 191.16 265.753 191.618Z" fill="#EC2A5A"/>
<path fill-rule="evenodd" clip-rule="evenodd" d="M355.484 242.979L267.078 191.261C267.075 191.259 267.073 191.258 267.07 191.256C267.068 191.255 267.067 191.256 267.067 191.255C264.37 189.682 261.149 189.369 258.204 190.391C255.783 191.231 253.132 191.094 250.92 189.8L246.819 187.401C246.308 187.102 245.651 187.274 245.351 187.786L242.384 192.858C265.258 206.558 323.134 240.944 353.817 259.166L354.369 258.221L354.76 257.553L357.896 252.192C359.774 248.982 358.695 244.857 355.484 242.979Z" fill="#D81646"/>
<path fill-rule="evenodd" clip-rule="evenodd" d="M362.191 127.208L362.153 132.5C362.153 132.5 362.821 135.888 363.356 139.5C363.891 143.111 364.293 146.945 363.757 147.837C362.688 149.621 360.547 147.837 360.191 146.054C359.835 144.27 359.299 133.213 359.299 133.213L358.942 126.08L362.191 127.208Z" fill="#2D2C56"/>
<path fill-rule="evenodd" clip-rule="evenodd" d="M367.606 126.502L366.79 131.252C366.79 131.252 365.184 144.271 366.076 146.232C366.967 148.194 369.821 147.303 369.643 144.627C369.464 141.952 370.178 132.5 370.178 132.5L371.783 126.793L367.606 126.502Z" fill="#2D2C56"/>
<path fill-rule="evenodd" clip-rule="evenodd" d="M365.399 68.5102L365.008 74.3712L380.109 81.6592C382.835 83.1292 384.148 86.3172 383.249 89.2812L372.787 128.15L367.606 126.502L372.204 90.7482C372.527 88.5482 371.017 86.4992 368.821 86.1552L363.445 85.3132L357.717 79.4772L364.337 85.4182C365.941 86.8572 366.728 88.9962 366.442 91.1312L362.191 127.208L357.482 128.386L355.379 92.8642C355.227 90.6122 353.712 88.6822 351.56 87.9992L342.253 85.0482C340.773 84.1452 339.85 82.5522 339.804 80.8192L340.195 68.3152L365.399 68.5102Z" fill="#3E3577"/>
<path fill-rule="evenodd" clip-rule="evenodd" d="M339.238 81.6318L341.731 33.0968C341.731 33.0968 352.053 32.4778 355.125 32.4778C356.799 32.4778 359.657 33.2718 361.914 33.9958C364.034 34.6748 365.796 34.6148 366.825 36.5888L383.754 69.0358L373.352 70.0268L369.885 66.0638L371.648 63.3898L365.325 48.4748L366.566 75.5588L339.238 81.6318Z" fill="#EFC260"/>
<path fill-rule="evenodd" clip-rule="evenodd" d="M355.578 47.1357C352.167 47.1357 345.91 38.2287 345.91 34.8177C345.91 34.1257 346.028 33.4637 346.238 32.8427C349.419 32.6717 353.406 32.4777 355.125 32.4777C355.879 32.4777 356.879 32.6437 357.951 32.8867C358.151 33.4947 358.264 34.1427 358.264 34.8177C358.264 38.2287 358.989 47.1357 355.578 47.1357Z" fill="white"/>
<path fill-rule="evenodd" clip-rule="evenodd" d="M340.509 41.4735L339.238 81.9075L355.939 77.9055L340.509 41.4735Z" fill="#D8AC55"/>
<path fill-rule="evenodd" clip-rule="evenodd" d="M356.167 27.4858C355.878 28.0648 353.851 36.0278 353.851 36.0278C353.851 36.0278 353.127 37.3308 351.39 37.1858C349.652 37.0408 348.929 34.5798 348.929 34.5798L351.969 24.5898L356.167 27.4858Z" fill="#EEBCC5"/>
<path fill-rule="evenodd" clip-rule="evenodd" d="M345.452 22.5815C345.452 28.0665 351.275 34.1375 356.761 34.1375C362.245 34.1375 365.315 28.0665 365.315 22.5815C365.315 17.0965 360.868 12.6505 355.384 12.6505C349.898 12.6505 345.452 17.0965 345.452 22.5815Z" fill="#EEBCC5"/>
<path fill-rule="evenodd" clip-rule="evenodd" d="M344.406 23.3778C344.406 29.5528 349.412 34.5598 355.588 34.5598C361.762 34.5598 366.769 29.5528 366.769 23.3778C366.769 17.2018 361.762 12.1958 355.588 12.1958C349.412 12.1958 344.406 17.2018 344.406 23.3778Z" fill="#EEBCC5"/>
<path fill-rule="evenodd" clip-rule="evenodd" d="M362.951 29.4545C362.728 29.8405 362.763 30.2785 363.028 30.4315C363.294 30.5845 363.69 30.3955 363.913 30.0095C364.136 29.6235 364.101 29.1865 363.836 29.0335C363.57 28.8795 363.175 29.0685 362.951 29.4545Z" fill="#3E3577"/>
<path fill-rule="evenodd" clip-rule="evenodd" d="M357.323 30.0634C357.079 30.4874 357.116 30.9684 357.408 31.1364C357.7 31.3044 358.135 31.0974 358.38 30.6734C358.624 30.2494 358.587 29.7694 358.295 29.6004C358.003 29.4324 357.568 29.6394 357.323 30.0634Z" fill="#3E3577"/>
<path fill-rule="evenodd" clip-rule="evenodd" d="M353.489 76.9662C353.924 76.8212 357.593 75.0432 360.198 75.0432C362.804 75.0432 365.99 77.7942 365.99 77.7942C365.99 77.7942 366.424 79.2412 364.686 78.9522C362.949 78.6622 364.926 80.0452 364.926 80.0452C364.926 80.0452 364.832 80.1102 362.804 80.4002C360.778 80.6892 352.875 80.2642 352.875 80.2642L353.489 76.9662Z" fill="#EEBCC5"/>
<path fill-rule="evenodd" clip-rule="evenodd" d="M341.731 33.0966L340.334 65.0396L353.463 76.9196L352.838 80.2536L334.348 70.3806C332.56 69.4256 331.556 67.4576 331.834 65.4496L335.207 41.0046C335.485 37.9546 337.329 35.2696 340.075 33.9136L341.731 33.0966Z" fill="#EFC260"/>
<path fill-rule="evenodd" clip-rule="evenodd" d="M352.141 82.995H385.587V80.543H352.141C351.464 80.543 350.915 81.092 350.915 81.769C350.915 82.446 351.464 82.995 352.141 82.995Z" fill="white"/>
<path fill-rule="evenodd" clip-rule="evenodd" d="M361.317 82.995H393.57C394.997 82.995 396.244 82.035 396.61 80.656L402.302 59.209C402.833 57.213 401.327 55.257 399.262 55.257H371.098C369.672 55.257 368.424 56.217 368.058 57.596L361.317 82.995Z" fill="white"/>
<path fill-rule="evenodd" clip-rule="evenodd" d="M380.311 71.0248C379.957 72.4238 380.837 73.5578 382.277 73.5578C383.716 73.5578 385.169 72.4238 385.523 71.0248C385.875 69.6258 384.996 68.4918 383.556 68.4918C382.117 68.4918 380.664 69.6258 380.311 71.0248Z" fill="#3E3577"/>
<path fill-rule="evenodd" clip-rule="evenodd" d="M355.588 12.1962C361.325 12.1962 366.047 16.5192 366.689 22.0852C364.745 23.5222 362.212 24.1612 359.826 23.7452C357.01 23.2532 354.486 21.3172 353.281 18.7242C353.368 19.9632 353.454 21.2162 353.247 22.4402C353.04 23.6642 352.51 24.8772 351.554 25.6702C351.483 24.8012 351.4 23.8982 350.946 23.1542C350.492 22.4102 349.548 21.8872 348.736 22.2042C348.154 22.4302 347.781 23.0362 347.694 23.6552C347.608 24.2732 347.767 24.9012 347.994 25.4832C348.351 26.3972 348.881 27.2422 349.547 27.9622C348.226 28.1712 346.835 28.3272 345.511 28.1992C344.81 26.7382 344.406 25.1072 344.406 23.3772C344.406 17.2022 349.412 12.1962 355.588 12.1962Z" fill="#3E3577"/>
<path fill-rule="evenodd" clip-rule="evenodd" d="M345.993 25.2206C345.993 27.0916 347.511 28.6086 349.382 28.6086C351.253 28.6086 352.769 27.0916 352.769 25.2206C352.769 23.3496 351.253 21.8326 349.382 21.8326C347.511 21.8326 345.993 23.3496 345.993 25.2206Z" fill="#EEBCC5"/>
<path fill-rule="evenodd" clip-rule="evenodd" d="M367.606 126.502L366.996 130.051L370.551 131.172L371.537 127.669L367.606 126.502Z" fill="#EEBCC5"/>
<path fill-rule="evenodd" clip-rule="evenodd" d="M362.162 131.172L359.225 131.739L359.039 127.997L362.191 127.209L362.162 131.172Z" fill="#EEBCC5"/>
<path fill-rule="evenodd" clip-rule="evenodd" d="M342.185 8.21127C342.185 12.1943 345.414 15.4233 349.397 15.4233C353.38 15.4233 356.61 12.1943 356.61 8.21127C356.61 4.22827 353.38 0.999268 349.397 0.999268C345.414 0.999268 342.185 4.22827 342.185 8.21127Z" fill="#3E3577"/>
<path fill-rule="evenodd" clip-rule="evenodd" d="M399.915 328.411L405.505 330.599L404.047 334.244L397.241 332.3L399.915 328.411Z" fill="white"/>
<path fill-rule="evenodd" clip-rule="evenodd" d="M352.279 366.811L353.634 371.512L349.755 372.344L346.428 366.523L352.279 366.811Z" fill="white"/>
<path fill-rule="evenodd" clip-rule="evenodd" d="M342.642 240.199C342.642 246.528 337.511 251.659 331.182 251.659C324.852 251.659 319.721 246.528 319.721 240.199C319.721 233.869 324.852 228.738 331.182 228.738C337.511 228.738 342.642 233.869 342.642 240.199Z" fill="#EEBCC5"/>
<path fill-rule="evenodd" clip-rule="evenodd" d="M324.523 245.213L328.182 256.293C328.182 256.293 335.501 258.715 335.501 258.336C335.501 257.958 332.094 245.718 332.094 245.718L324.523 245.213Z" fill="#EEBCC5"/>
<path fill-rule="evenodd" clip-rule="evenodd" d="M291.818 222.381C291.818 224.109 290.418 225.508 288.69 225.508C286.964 225.508 285.563 224.109 285.563 222.381C285.563 220.653 286.964 219.254 288.69 219.254C290.418 219.254 291.818 220.653 291.818 222.381Z" fill="#EEBCC5"/>
<path fill-rule="evenodd" clip-rule="evenodd" d="M344.689 255.271C344.689 256.998 343.29 258.398 341.562 258.398C339.835 258.398 338.435 256.998 338.435 255.271C338.435 253.543 339.835 252.143 341.562 252.143C343.29 252.143 344.689 253.543 344.689 255.271Z" fill="#EEBCC5"/>
<path fill-rule="evenodd" clip-rule="evenodd" d="M287.64 227.167C287.64 227.167 297.312 244.85 301.514 249.751C305.715 254.653 316.57 260.605 316.57 260.605L318.803 286.106L346.114 285.056L343.944 269.306C343.944 269.306 353.747 275.958 358.65 275.258C363.551 274.558 368.872 270 360.82 264.397C352.766 258.795 345.064 255.645 345.064 255.645L342.262 257.745C342.262 257.745 326.506 251.442 323.004 251.093C319.503 250.742 294.643 224.481 294.643 224.481L287.64 227.167Z" fill="#3E3577"/>
<path fill-rule="evenodd" clip-rule="evenodd" d="M318.803 286.107C318.803 286.107 325.967 315.077 330.342 328.687C334.716 342.296 342.493 368.059 342.493 368.059L352.28 366.811L335.261 298.17L366.239 330.07L397.347 336.876L399.915 328.411L371.237 318.689L346.114 285.056L318.803 286.107Z" fill="#EFC260"/>
<path fill-rule="evenodd" clip-rule="evenodd" d="M347.99 230.173C347.99 233.316 345.442 235.863 342.3 235.863C339.156 235.863 336.608 233.316 336.608 230.173C336.608 227.029 339.156 224.482 342.3 224.482C345.442 224.482 347.99 227.029 347.99 230.173Z" fill="#3E3577"/>
<path fill-rule="evenodd" clip-rule="evenodd" d="M342.642 240.199C342.642 233.869 337.511 228.738 331.182 228.738C328.004 228.738 325.13 230.033 323.054 232.121C323.226 238.008 327.379 244.549 330.564 248.63C331.361 249.651 332.234 250.648 333.232 251.466C338.581 250.498 342.642 245.827 342.642 240.199Z" fill="#3E3577"/>
<path fill-rule="evenodd" clip-rule="evenodd" d="M332.523 242.323C332.523 244.747 330.558 246.712 328.134 246.712C325.711 246.712 323.746 244.747 323.746 242.323C323.746 239.899 325.711 237.934 328.134 237.934C330.558 237.934 332.523 239.899 332.523 242.323Z" fill="#EEBCC5"/>
<mask id="mask0" mask-type="alpha" maskUnits="userSpaceOnUse" x="343" y="371" width="14" height="8">
<path fill-rule="evenodd" clip-rule="evenodd" d="M343.103 371.512H356.13V378.719H343.103V371.512Z" fill="white"/>
</mask>
<g mask="url(#mask0)">
<path fill-rule="evenodd" clip-rule="evenodd" d="M353.635 371.512L349.755 372.344L348.092 375.67L343.103 376.779V378.719L356.13 378.164L353.635 371.512Z" fill="#3E3577"/>
</g>
<path fill-rule="evenodd" clip-rule="evenodd" d="M404.047 334.244L405.505 330.598L409.969 332.009L410.282 344.324L408.352 344.429C408.352 344.429 406.368 338.114 406.159 337.957C405.95 337.801 404.047 334.244 404.047 334.244Z" fill="#3E3577"/>
<path d="M322.331 289.821C322.331 289.821 322.846 294.195 327.734 299.084" stroke="#3F58FA"/>
<path d="M341.742 361.296L350.061 360.458" stroke="#3F58FA"/>
<path d="M392.515 327.267L390.959 333.87" stroke="#3F58FA"/>
<path fill-rule="evenodd" clip-rule="evenodd" d="M189.87 338.124L158.342 338.364L158.103 306.968C158.086 304.708 159.904 302.861 162.164 302.845L185.508 302.667C187.768 302.649 189.614 304.468 189.631 306.728L189.87 338.124Z" fill="#BCE4E6"/>
<path fill-rule="evenodd" clip-rule="evenodd" d="M173.627 309.524C171.508 309.541 169.776 307.836 169.76 305.715L169.672 294.051C169.669 293.766 169.898 293.534 170.183 293.532L176.827 293.481C177.112 293.479 177.345 293.708 177.347 293.993L177.436 305.658C177.452 307.777 175.747 309.508 173.627 309.524Z" fill="#EEBCC5"/>
<path fill-rule="evenodd" clip-rule="evenodd" d="M186.97 291.363C186.974 291.233 186.98 291.104 186.98 290.973C186.98 289.815 186.834 288.691 186.56 287.618V286.131C186.56 278.814 180.574 272.828 173.257 272.828C165.94 272.828 159.954 278.814 159.954 286.131V291.363H186.97Z" fill="#212D5F"/>
<path fill-rule="evenodd" clip-rule="evenodd" d="M185.542 287.655V286.372C185.542 279.625 180.021 274.103 173.274 274.103C166.526 274.103 161.006 279.625 161.006 286.372V291.4C161.006 291.737 161.045 292.066 161.116 292.383C161.917 298.493 167.14 303.211 173.468 303.211C180.35 303.211 185.93 297.632 185.93 290.749C185.93 289.68 185.795 288.644 185.542 287.655Z" fill="#EEBCC5"/>
<path fill-rule="evenodd" clip-rule="evenodd" d="M169.504 292.945C169.504 293.466 169.082 293.888 168.561 293.888C168.04 293.888 167.618 293.466 167.618 292.945C167.618 292.424 168.04 292.003 168.561 292.003C169.082 292.003 169.504 292.424 169.504 292.945Z" fill="#3E3577"/>
<path fill-rule="evenodd" clip-rule="evenodd" d="M178.465 292.945C178.465 293.466 178.043 293.888 177.522 293.888C177.001 293.888 176.578 293.466 176.578 292.945C176.578 292.424 177.001 292.003 177.522 292.003C178.043 292.003 178.465 292.424 178.465 292.945Z" fill="#3E3577"/>
<path fill-rule="evenodd" clip-rule="evenodd" d="M164.54 292.499C164.54 294.416 162.986 295.97 161.07 295.97C159.154 295.97 157.6 294.416 157.6 292.499C157.6 290.583 159.154 289.029 161.07 289.029C162.986 289.029 164.54 290.583 164.54 292.499Z" fill="#EEBCC5"/>
<path fill-rule="evenodd" clip-rule="evenodd" d="M189.012 292.499C189.012 294.416 187.458 295.97 185.542 295.97C183.625 295.97 182.072 294.416 182.072 292.499C182.072 290.583 183.625 289.029 185.542 289.029C187.458 289.029 189.012 290.583 189.012 292.499Z" fill="#EEBCC5"/>
<path fill-rule="evenodd" clip-rule="evenodd" d="M160.988 290.22C159.818 290.323 158.9 291.303 158.9 292.499C158.9 293.697 159.818 294.677 160.988 294.78V290.22Z" fill="#D98E9D"/>
<path fill-rule="evenodd" clip-rule="evenodd" d="M185.306 290.22C186.476 290.323 187.394 291.303 187.394 292.499C187.394 293.697 186.476 294.677 185.306 294.78V290.22Z" fill="#D98E9D"/>
<path fill-rule="evenodd" clip-rule="evenodd" d="M181.892 287.659C182.222 288.714 182.702 289.921 183.767 290.217C184.607 290.45 185.478 290.002 186.195 289.506C186.588 289.233 186.998 288.893 187.069 288.421C187.129 288.024 186.933 287.638 186.742 287.286C186.006 285.923 185.252 284.551 184.221 283.394C183.305 282.367 181.658 280.697 180.685 282.459C180.021 283.664 181.517 286.461 181.892 287.659Z" fill="#212D5F"/>
<path fill-rule="evenodd" clip-rule="evenodd" d="M183.18 279.794C180.469 277.776 177.116 276.578 173.496 276.578L173.639 274.379C170.035 274.379 166.554 277.767 163.849 279.769C166.21 282.453 169.669 284.987 173.526 284.987C177.37 284.987 180.819 282.465 183.18 279.794Z" fill="#212D5F"/>
<path fill-rule="evenodd" clip-rule="evenodd" d="M139.764 329.533C139.302 328.844 139.158 327.994 139.36 327.188C141.138 320.093 154.942 305.675 155.499 304.977C156.341 303.927 160.676 302.979 160.676 302.979L161.177 314.439L148.599 325.636C147.847 326.521 147.691 327.768 148.204 328.811L160.056 347.016L156.52 349.736L139.764 329.533Z" fill="#BCE4E6"/>
<path fill-rule="evenodd" clip-rule="evenodd" d="M209.041 330.181C209.406 329.538 209.554 328.786 209.408 328.061C208.017 321.123 192.667 305.681 192.104 304.977C191.263 303.926 186.927 302.979 186.927 302.979L186.427 314.439L200.279 326.344C200.939 327.226 201.095 328.388 200.688 329.412L186.85 347.831L191.066 349.327L209.041 330.181Z" fill="#BCE4E6"/>
<path fill-rule="evenodd" clip-rule="evenodd" d="M164.764 287.659C164.434 288.714 163.954 289.921 162.889 290.217C162.049 290.45 161.178 290.002 160.461 289.506C160.068 289.233 159.658 288.893 159.587 288.421C159.527 288.024 159.723 287.638 159.913 287.286C160.65 285.923 161.404 284.551 162.435 283.394C163.351 282.367 164.998 280.697 165.97 282.459C166.635 283.664 165.139 286.461 164.764 287.659Z" fill="#212D5F"/>
<path fill-rule="evenodd" clip-rule="evenodd" d="M160.542 349.661C160.542 351.867 158.753 353.655 156.547 353.655C154.341 353.655 152.552 351.867 152.552 349.661C152.552 347.454 154.341 345.666 156.547 345.666C158.753 345.666 160.542 347.454 160.542 349.661Z" fill="#EEBCC5"/>
<path fill-rule="evenodd" clip-rule="evenodd" d="M165.961 348.593C154.233 347.115 142.406 346.42 130.586 346.515C127.742 346.538 124.279 347.003 123.188 349.63C121.993 352.505 124.66 355.477 127.261 357.188C139.676 365.358 155.471 365.745 170.333 365.863C171.031 363.255 171.6 360.653 171.864 357.966C170.91 356.776 176.136 353.498 175.182 352.309C173.783 350.563 165.674 350.813 165.961 348.593Z" fill="#212D5F"/>
<path fill-rule="evenodd" clip-rule="evenodd" d="M176.361 348.593C188.089 347.115 199.916 346.42 211.736 346.515C214.58 346.538 218.043 347.003 219.134 349.63C220.329 352.505 217.662 355.477 215.061 357.188C202.646 365.358 186.851 365.745 171.989 365.863C171.291 363.255 170.722 360.653 170.458 357.966C171.412 356.776 172.258 355.638 173.212 354.447C174.611 352.701 176.648 350.813 176.361 348.593Z" fill="#212D5F"/>
<path fill-rule="evenodd" clip-rule="evenodd" d="M195.39 350.382C195.522 348.18 193.845 346.287 191.642 346.154C189.44 346.022 187.547 347.7 187.414 349.903C187.282 352.105 188.96 353.997 191.162 354.13C193.365 354.263 195.257 352.585 195.39 350.382Z" fill="#EEBCC5"/>
<path fill-rule="evenodd" clip-rule="evenodd" d="M167.105 361.481L174.204 361.714C174.204 361.714 184.93 370.454 184.818 373.286C184.706 376.117 179.931 374.215 177.895 372.307C175.858 370.399 171.559 366.603 171.559 366.603L166.651 364.694L167.105 361.481Z" fill="#212D5F"/>
<path fill-rule="evenodd" clip-rule="evenodd" d="M177.667 361.828L170.588 361.248C170.588 361.248 158.934 368.706 158.722 371.531C158.509 374.357 163.471 373.013 165.711 371.35C167.952 369.687 172.658 366.407 172.658 366.407L177.751 365.071L177.667 361.828Z" fill="#212D5F"/>
<path fill-rule="evenodd" clip-rule="evenodd" d="M156.081 354.363H192.347C193.722 354.363 194.915 353.417 195.228 352.078L198.293 338.968C198.751 336.427 196.788 334.096 194.206 334.116L152.665 334.431C150.084 334.451 148.156 336.812 148.653 339.345L153.293 352.395C153.712 353.575 154.829 354.363 156.081 354.363Z" fill="white"/>
<path fill-rule="evenodd" clip-rule="evenodd" d="M176.697 345.942C176.697 347.804 175.062 349.314 173.045 349.314C171.027 349.314 169.392 347.804 169.392 345.942C169.392 344.081 171.027 342.571 173.045 342.571C175.062 342.571 176.697 344.081 176.697 345.942Z" fill="#212D5F"/>
<path fill-rule="evenodd" clip-rule="evenodd" d="M175.892 279.42C176.303 279.506 176.71 279.615 177.09 279.793C177.959 280.199 178.622 280.932 179.294 281.616C181.012 283.368 182.926 284.912 184.835 286.452C184.967 286.559 185.116 286.671 185.285 286.662C185.386 286.657 185.48 286.608 185.563 286.549C186.229 286.064 186.117 285.056 185.934 284.252C185.43 282.028 184.87 279.694 183.324 278.019C182.767 277.414 182.102 276.921 181.442 276.431C180.081 275.422 178.687 274.397 177.073 273.884C176.297 273.638 175.487 273.517 174.678 273.418C173.453 273.268 172.197 273.169 170.993 273.442C170.487 273.557 169.999 273.735 169.514 273.918C167.898 274.527 166.277 275.198 164.912 276.257C161.921 278.573 160.528 282.547 160.674 286.327C160.694 286.846 160.898 287.519 161.417 287.511C161.683 287.507 161.9 287.306 162.082 287.112C163.57 285.533 164.25 283.55 165.887 282.114C167.597 280.611 169.748 279.633 172 279.309C173.291 279.122 174.615 279.151 175.892 279.42Z" fill="#212D5F"/>
<path fill-rule="evenodd" clip-rule="evenodd" d="M177.65 317.122H186.273V316.172H177.65V317.122Z" fill="#A5CDD4"/>
</svg>
