<svg xmlns="http://www.w3.org/2000/svg" fill="none" width="436" height="610" viewBox="0 0 436 610"><path fill="url(#paint0_linear)" fill-rule="evenodd" d="M50 38c7 3 13 8 17 14 2 2 6 16 8 16-14 1-38 0-44-15-6-14 8-20 19-15zm67 155l-1-2-8-1 9 3zm-5-37v1l4-5 1-1-5 5zm32 49l1-2-2 2h1zm65 93l2 1-1-1h-1zm-11 7l1-1-1 1zm-23 7c1 0 3 2 0 0zm92 44l8-1-4-4-5 3 1 2zm-26 10v1l2-1h-2zm129 19l-4 7 4-7zM78 43l-2-7v2c0 4-1 9 1 11v-7a344 344 0 0 0 1 1zm-38 64c7-6 19-2 27 1l16 11-2-10-5-42 1-17-1-1c0 1 0 1 0 0-6-8-11-18-12-28 0-9 7-26 18-15 4 6 3 43-4 45a421 421 0 0 0 9 36v-7c1-10 9-29 22-26 10 3 4 15 0 21-5 8-11 12-19 16 0 2-1 3-3 3 5 20 12 39 21 57l4-15c4-7 14-15 23-11 18 9-2 34-18 36l-2 2a229 229 0 0 0 27 39l3-20c4-9 16-18 26-12 10 7 1 20-5 26-3 3-15 12-20 12l47 53-3-31c1-12 9-32 25-27 15 4 8 25 3 34-3 6-8 12-13 16l-7 4-3 6a1817 1817 0 0 0 39 39c2-1 5 1 5 4v1l10 9v-4c-3 5-2-6-3-8l-3-22c1-11 7-30 22-23 14 6 9 22 4 32-4 7-8 13-13 18l-6 8 55 48 1-3h-1c-3-11-18-69 14-58 21 7 6 49-10 64a1021 1021 0 0 1 48 45c-3-9-6-20-4-29 3-13 17-25 30-18 25 14-17 36-22 51 20 22 37 47 49 74 12 31 23 72 17 105 1-16-5-38-9-51a267 267 0 0 0-84-137c-9 3-19 10-24 13-9 4-27 9-33-3-6-13 9-20 18-22 9-3 17-3 25-1l-46-39c-14 11-34 44-51 27-20-20 18-39 34-38l6 1c-17-14-33-28-48-43-9 1-36 40-54 23-8-8-5-22 3-29 9-8 21-8 32-6l13 6a1499 1499 0 0 1-46-46l-3 1c-12 4-28 10-41 8-8-2-16-9-9-18 6-7 22-6 30-4 5 1 11 5 17 8l2-1c-14-17-28-33-41-51-13 2-30 17-42 3s11-22 21-21l11 3c-9-14-16-30-21-46h-1 1l-2-5-2-1c5 3-15 5-19 5-8 1-20 1-26-6-5-5-5-14 2-19zm388 490c0 4-1 9-3 13l3-13z" clip-rule="evenodd"/><defs><linearGradient id="paint0_linear" x1="458" x2="427" y1="23" y2="610" gradientUnits="userSpaceOnUse"><stop stop-color="#E91E51"/><stop offset="1" stop-color="#E2F4F5"/></linearGradient></defs></svg>