<svg xmlns="http://www.w3.org/2000/svg" fill="none" width="400" height="605" viewBox="0 0 400 605"><path fill="url(#paint0_linear)" fill-rule="evenodd" d="M379 38c-7 3-13 8-17 14-2 2-6 16-8 16 14 1 38 0 44-15 6-14-8-20-19-15zm-67 155l1-2 8-1-9 3zm5-37v1l-4-5-1-1 5 5zm-32 49l-1-2 2 2h-1zm-65 93l-2 1 1-1h1zm11 7l-1-1 1 1zm23 7c-1 0-3 2 0 0zm-92 44l-8-1 4-4 5 3-1 2zm26 10v1l-2-1h2zM59 385l4 7-4-7zM351 43l2-7v2l-1 4 1-4c0 4 1 9-1 11v-7a327 327 0 0 1-1 1zm38 64c-7-6-19-2-27 1l-16 11 2-10 5-42-1-17 1-1c0 1 0 1 0 0 6-8 11-18 12-28 0-9-7-26-18-15-4 6-3 43 4 45a420 420 0 0 1-9 36v-7c-1-10-9-29-22-26-10 3-4 15 0 21 5 8 11 12 19 16 0 2 1 3 3 3-5 20-12 39-21 57l-4-15c-4-7-14-15-23-11-18 9 2 34 18 36l2 2a229 229 0 0 1-27 39l-3-20c-4-9-16-18-26-12-10 7-1 20 5 26 3 3 15 12 20 12l-47 53 3-31c-1-12-9-32-25-27-15 4-8 25-3 34 3 6 8 12 13 16l7 4 3 6a1817 1817 0 0 1-39 39c-2-1-5 1-5 4v1l-10 9v-4c3 5 2-6 3-8l3-22c-1-11-7-30-22-23-14 6-9 22-4 32 4 7 8 13 13 18l6 8-55 48-1-3h1c3-11 18-69-14-58-21 7-6 49 10 64a1021 1021 0 0 0-48 45c3-9 6-20 4-29-3-13-17-25-30-18-25 14 17 36 22 51-20 22-37 47-49 74C7 522-4 563 2 596c-1-16 5-38 9-51a267 267 0 0 1 84-137c9 3 19 10 24 13 9 4 27 9 33-3 6-13-9-20-18-22-9-3-17-3-25-1l46-39c14 11 34 44 51 27 20-20-18-39-34-38l-6 1c17-14 33-28 48-43 9 1 36 40 54 23 8-8 5-22-3-29-9-8-21-8-32-6l-13 6a1499 1499 0 0 0 46-46l3 1c12 4 28 10 41 8 8-2 16-9 9-18-6-7-22-6-30-4-5 1-11 5-17 8l-2-1c14-17 28-33 41-51 13 2 30 17 42 3s-11-22-21-21l-11 3c9-14 16-30 21-46h1-1l2-5 2-1c-5 3 15 5 19 5 8 1 20 1 26-6 5-5 5-14-2-19zM1 597c0 4 1 9 3 13l-3-13z" clip-rule="evenodd"/><defs><linearGradient id="paint0_linear" x1="-29" x2="2" y1="23" y2="610" gradientUnits="userSpaceOnUse"><stop stop-color="#E91D50"/><stop offset="1" stop-color="#E2F4F5"/></linearGradient></defs></svg>