<svg xmlns="http://www.w3.org/2000/svg" fill="none" width="135" height="137" viewBox="-4 0 140 137"><path stroke="#E91D50" stroke-linecap="round" stroke-linejoin="round" stroke-width="3" d="M17 38.5a8.5 8.5 0 1 1-17 0 8.5 8.5 0 0 1 17 0zM108 103.5a8.5 8.5 0 1 1-17 0 8.5 8.5 0 0 1 17 0zM85 68a18 18 0 1 1-36 0 18 18 0 0 1 36 0z" clip-rule="evenodd"/><path stroke="#E91D50" stroke-linecap="round" stroke-linejoin="round" stroke-width="3" d="M100 68l-8 10.3-1.5 13L77.7 93 67.5 101l-10.2-8.1-12.8-1.6-1.5-13L35 68l8-10.3 1.5-13L57.3 43 67.5 35l10.2 8.1 12.8 1.6 1.5 13 8 10.3z" clip-rule="evenodd"/><path stroke="#E91D50" stroke-linecap="round" stroke-linejoin="round" stroke-width="3" d="M91.6 103.8a8.6 8.6 0 0 1 15-5.6 49 49 0 1 0-12.7 11.4 8.5 8.5 0 0 1-2.3-5.8z" clip-rule="evenodd"/><path stroke="#E91D50" stroke-linecap="round" stroke-linejoin="round" stroke-width="3" d="M67 2a65.8 65.8 0 0 0-54.7 29.3 8.6 8.6 0 0 1-7.6 15.2A66.3 66.3 0 0 0 67 135c36.5 0 66-29.8 66-66.5A66.3 66.3 0 0 0 67 2z" clip-rule="evenodd"/></svg>