<svg xmlns="http://www.w3.org/2000/svg" fill="none" width="248" height="186" viewBox="0 0 248 186"><path fill="#EA3663" fill-rule="evenodd" clip-rule="evenodd" opacity=".1" d="M242.4 133.3c-13.4-10.6-35.4 1-48.5 6.8-5.6 2.5-32.5 14.8-29.7 24.7 3.7 13 23.3 1.9 30.8-1.2 9.6-3.9 19.3-7.4 29-11.2 5.3-2 12-4.2 15.8-9 2-1.5 3.5-3.4 4-5.8.4-1.8 0-3.2-1.4-4.3zM176 92.4c-6.2 4.2-20.7 13-17.6 22.6.6 1.6 1.6 2.7 3.4 2.9 10.3 1 21.9-4.8 31-8.7 7.7-3.1 16.7-6.8 22.4-13.2 4.6-3 8.4-6.3 9.5-10.2 2.1-7.8-6.8-10.7-13.3-9.6a96 96 0 0 0-35.3 16.2zM153.8 133c-6.7-.3-14 6.6-18.8 10-10 7-20.7 12.8-30.5 19.8-3.8 2.7-10.6 7.1-9.4 12.7 1.2 5 6.8 5 10.8 3.8 8.8-2.9 18-8.7 26-13 8.1-4.2 19.3-10 23.6-18.1.5-.8.5-1.6.4-2.4 4.5-5.6 7.2-12.3-2.1-12.8zM71.4 99.2c-3 4.3-1.2 11.3 5 10.8 10.4-1 20.8-8.7 29.8-13.1 4.3-2.1 12.6-5.4 15.8-10.3 9.2-5.2 17.8-12 14.2-19.2-6.9-13.6-35.8 8.2-43.4 13.4-7.6 5.2-16.1 10.7-21.4 18.4zM180.6 44.6c6.2-2.5 25.3-9 30.3-17.4 13-4.9 27.2-12 27.1-23.2 0-1.5-.8-3.3-2.5-3.6-12.8-2.5-24.7 7-35.6 12.4-11.3 5.6-34 13.6-37.6 27.3-2.9 10.8 14.1 6.1 18.3 4.5zM.2 182.1c1 5.3 7.5 4 11.1 2.8 9.7-3.3 19-9.1 27.7-14.4 7.8-4.7 16.6-9 23-15.5 1.5-1.2 2.8-2.6 3.8-4.2 3.3-4.9-1-10-5.7-11.2-17.2-4.3-38 16.3-49.4 26.4-4.2 3.8-12 9.4-10.5 16.1zM96 44.6a56 56 0 0 0 22.6-15c.8-1 1-2 1-3 1-1 1.9-2 2.9-2.8 3.5-3 10.3-8.4 8-14-3.8-9.8-21.9 2.2-26.7 5C98.4 18 93.4 22 88.6 26.2c-3.3 2.8-13 9.7-10 15.6 2.8 6 12.7 4.2 17.5 2.8z"/></svg>