<svg xmlns="http://www.w3.org/2000/svg" fill="none" width="104" height="141" viewBox="0 0 104 141"><path fill="#E91D50" fill-rule="evenodd" d="M60.5 13.1c.6-1.3.6-2.6.3-3.8.3-3.4-1.7-6.5-5-8.2A12.5 12.5 0 0 0 44 2a7.5 7.5 0 0 0-3.2 4.8 9.8 9.8 0 0 0-1.6 4.4c-.6 4 2.4 6.8 5.9 7.7 4.7 3 13-.5 15.5-5.8zM16 47.4c1.5-1.5 2.4-3.2 3-5.3.1-1 0-2.2-.4-3-.4-1.1-1.4-2-1.8-2.6-2.3-2.7-5.7-3.3-8.6-1.4l-.9.8c-5.3.8-10 7.8-5.4 12a6.6 6.6 0 0 0 5.6 1.7c2.9 1 6.2 0 8.4-2.2zM53.9 55.8c.5-.7.8-1.5 1-2.2l.9-.8c1.2-1.2 1.6-2.9.8-4.3.1-3-1.4-5.9-5-6.4s-8.3 1.4-10.3 4.5c-1.8 2-2.8 4.7-2 7.2.7 2.3 2.8 3.6 5 4 3.2 2.3 7.2 1.2 9.6-2zM103 40.5c-.4-.8-1-1.6-1.7-2.2-1-2-3-3.3-5.3-3.8-1.7-1-3.8-.3-4.7 1.3H91c-4.8 1.5-6.5 9-3.8 12.8a7 7 0 0 0 7.1 2.8 8 8 0 0 0 3.5.6c5.5-.2 7.5-7.4 5.1-11.5zM90 87c-.1-3.2-3-6-5.8-7.3-4.4-2-8.9.5-10.7 4.3a7.3 7.3 0 0 0-3.2 3.9c-1.5 4.8 2.9 9.4 7.7 9a7 7 0 0 0 2.5-.6c1 0 2-.2 3-.5 4-1.3 6.6-4.6 6.5-8.7zM25.7 92.6l.6-1c1-2 1-4.4-.3-6.4-1.4-2.1-4.4-2.4-6.8-2.1-2.7.3-5.9 1.3-7.4 3.7a6 6 0 0 0-.6 5.5 5.8 5.8 0 0 0-1 5.2c.7 2.2 3.2 3.1 5.3 3.4 2.8.3 6 0 8.3-1.7 2.2-1.6 2.5-4.2 1.9-6.6zM67 131.8c-.2-2-1.2-3.5-2.5-4.7-.3-.8-.8-1.6-1.4-2.3l-.8-.7a6.2 6.2 0 0 0-3-1.8c-5-1.4-10 3-10.6 7.8a7 7 0 0 0 .6 7l.4.6.2.2a8.2 8.2 0 0 0 4.7 3 7 7 0 0 0 3.3-.1l3-.6c3.8-1 6.4-4.5 6-8.4z" clip-rule="evenodd" opacity=".3"/></svg>