<svg xmlns="http://www.w3.org/2000/svg" fill="none" width="175" height="266" viewBox="0 0 175 266"><g fill="#EA3663" fill-rule="evenodd" clip-rule="evenodd" opacity=".1"><path d="M71.1 190.6c-19.3-15.2-50.7 1.5-69.4 9.8-8 3.6-46.7 21.2-42.6 35.3 5.3 18.7 33.4 2.6 44.1-1.7 13.7-5.5 27.6-10.7 41.4-16 7.6-3 17.3-6 22.7-12.8 2.9-2.2 5.1-5 5.9-8.5.5-2.4 0-4.5-2-6zM-24 132.1c-8.9 6-29.6 18.8-25.2 32.4.8 2.3 2.3 3.8 4.8 4C-29.6 170-13 161.8.1 156.3c11-4.5 23.9-9.8 32-18.9 6.6-4.2 12-9 13.6-14.6 3-11.2-9.7-15.2-19-13.7-17.8 3-35.9 13.2-50.6 23.1zM-17.5 63.8c8.9-3.6 36.4-13 43.5-25 18.7-6.9 38.9-17 38.8-33.1 0-2-1.3-4.7-3.6-5.1C42.8-3 26 10.5 10.2 18.2c-16.1 8-48.6 19.6-53.8 39.1-4.1 15.5 20.2 8.8 26.1 6.5zM97.5 108.7c5 .2 9.8-2 14.6-4.8 1.7 1.3 4.1 1.7 6.2-.2 16.5-15 46.6-22.8 56.4-44.5 1-2.2-.4-4.5-2-5.9-9.7-8-24.4.6-33.6 5.3-15.5 8-33.8 19.4-46 32-5.9 6.1-6 17.7 4.4 18zM131.4 134c-7.8-3.4-17.6 2.7-24.2 6.4-4.3 2.5-8.4 5.2-12.5 8-4 2.8-8.7 4.8-11.8 8.4-5.8 6.7-.2 17 8.3 16.2 6-.5 11.8-4.2 17-8.2 4.7-2 9.1-5.1 13.2-7.9 5.7-4 13.1-10 13.5-17.7.1-2.5-1.4-4.3-3.5-5.2z"/></g></svg>
