<svg width="1440" height="582" viewBox="0 0 1440 582" fill="none" xmlns="http://www.w3.org/2000/svg">
<g clip-path="url(#clip0)">
<path fill-rule="evenodd" clip-rule="evenodd" d="M-70.6221 583.36C289.574 907.68 858.246 554.98 1416.44 633.59C1866.17 696.93 1743.23 69.7091 1275.42 193.65C1187.46 216.954 1101.43 156.74 970.947 176.342C840.924 195.875 780.457 209.097 678.138 198.626C552.564 185.776 396.12 178.723 304.015 148.717C95.3962 80.753 -7.6424 125.833 -120.78 228.615C-127.179 234.427 -114.51 91.754 -120.782 98.719C-326.807 327.53 -430.818 259.038 -70.6221 583.36Z" fill="url(#paint0_linear)"/>
<path opacity="0.297498" fill-rule="evenodd" clip-rule="evenodd" d="M184.291 35.7158C185.123 33.9827 185.17 32.1773 184.707 30.4901C185.089 25.9669 182.419 21.8178 178.031 19.5267C173.228 17.0189 166.15 17.7345 161.749 20.6952C159.474 22.2117 157.817 24.5554 157.347 27.2273C156.173 28.9014 155.375 30.8906 155.08 33.1489C154.382 38.5584 158.36 42.2348 163.131 43.5149C169.571 47.5261 180.883 42.9044 184.291 35.7158" fill="#E91D50"/>
<path opacity="0.297498" fill-rule="evenodd" clip-rule="evenodd" d="M123.634 84.3294C125.836 82.1286 127.21 79.6772 127.87 76.63C128.166 75.2417 127.931 73.5082 127.419 72.2012C126.826 70.7047 125.385 69.3435 124.812 68.6528C121.587 64.7591 116.818 63.811 112.616 66.6213C112.171 66.926 111.821 67.3662 111.431 67.7522C103.834 68.8492 97.0721 79.0136 103.686 85.1082C105.975 87.2277 108.831 87.8101 111.639 87.3903C115.748 88.9071 120.496 87.4851 123.634 84.3294" fill="#E91D50"/>
<path opacity="0.297498" fill-rule="evenodd" clip-rule="evenodd" d="M176.484 96.4689C177.244 95.4736 177.667 94.4311 177.923 93.3819C178.367 92.9986 178.864 92.6556 179.267 92.2386C180.935 90.5438 181.58 88.2167 180.39 86.1184C180.612 81.8342 178.447 77.8527 173.076 77.1129C167.96 76.4067 161.251 79.07 158.293 83.5358C155.718 86.226 154.219 90.12 155.422 93.7048C156.491 96.9128 159.53 98.6951 162.777 99.213C167.247 102.569 173.083 100.941 176.484 96.4689" fill="#E91D50"/>
<path opacity="0.297498" fill-rule="evenodd" clip-rule="evenodd" d="M246.615 74.3455C245.944 73.17 245.078 72.1482 244.119 71.2266C242.562 68.3014 239.697 66.4247 236.396 65.7234C233.987 64.1406 230.954 65.3361 229.646 67.56C229.538 67.5868 229.431 67.6001 229.33 67.6335C222.379 69.8308 219.943 80.4697 223.889 86.0196C226.425 89.5859 230.337 90.7012 234.141 90.1269C235.591 90.7279 237.248 91.0686 239.14 90.9884C247.065 90.6478 249.997 80.296 246.615 74.3455" fill="#E91D50"/>
<path opacity="0.297498" fill-rule="evenodd" clip-rule="evenodd" d="M229.991 140.671C229.818 135.904 225.725 131.908 221.59 130.039C215.163 127.114 208.756 130.742 206.123 136.218C204.003 137.5 202.266 139.409 201.467 141.83C199.188 148.718 205.629 155.435 212.64 154.978C214.002 154.889 215.177 154.521 216.24 154.037C217.706 153.941 219.179 153.662 220.493 153.253C226.329 151.459 230.207 146.686 229.991 140.671" fill="#E91D50"/>
<path opacity="0.297498" fill-rule="evenodd" clip-rule="evenodd" d="M136.165 148.921C136.45 148.428 136.722 147.936 136.948 147.464C138.367 144.464 138.44 141.045 136.616 138.232C134.593 135.079 130.362 134.72 127.013 135.146C123.186 135.638 118.697 136.988 116.495 140.434C114.863 142.968 114.79 145.808 115.759 148.422C114.187 150.663 113.544 153.251 114.346 155.944C115.301 159.11 118.842 160.447 121.774 160.833C125.726 161.338 130.177 160.746 133.459 158.372C136.576 156.124 137.027 152.373 136.165 148.921" fill="#E91D50"/>
<path opacity="0.297498" fill-rule="evenodd" clip-rule="evenodd" d="M195.963 203.995C195.733 201.207 194.36 198.982 192.417 197.3C191.971 196.119 191.323 195.006 190.459 194.038C190.083 193.633 189.672 193.31 189.254 192.987C188.154 191.772 186.781 190.831 185.081 190.357C178.018 188.407 170.787 194.779 169.937 201.475C168.418 204.545 168.753 208.26 170.891 211.44C171.072 211.735 171.274 212.01 171.469 212.284C171.539 212.367 171.581 212.456 171.651 212.538C171.685 212.58 171.727 212.607 171.762 212.648C173.371 214.654 175.663 216.178 178.436 216.776C180.052 217.126 181.577 217.043 183.012 216.686C184.475 216.576 185.924 216.309 187.318 215.917C192.696 214.393 196.416 209.496 195.963 203.995" fill="#E91D50"/>
</g>
<defs>
<linearGradient id="paint0_linear" x1="666.495" y1="1474.46" x2="1810.08" y2="631.01" gradientUnits="userSpaceOnUse">
<stop stop-color="#C4DAFF"/>
<stop offset="1" stop-color="#E2EDFF"/>
</linearGradient>
<clipPath id="clip0">
<rect width="1440" height="582" fill="white"/>
</clipPath>
</defs>
</svg>
