<svg xmlns="http://www.w3.org/2000/svg" fill="none" viewBox="0 0 116 162"><path stroke="#E91D50" stroke-linecap="round" stroke-width="3" d="M89 160H39v-8c0-3 3-6 6-6h38c3 0 6 3 6 6v8z" clip-rule="evenodd"/><path stroke="#E91D50" stroke-width="3" d="M112 49c7 27-9 54-36 60-26 7-54-9-60-35-7-27 9-54 36-60 26-7 54 9 60 35z" clip-rule="evenodd"/><path stroke="#E91D50" stroke-linecap="round" stroke-linejoin="round" stroke-width="3" d="M76 110L52 14 48 2a62 62 0 0 0 31 120l-3-12"/><path stroke="#E91D50" stroke-width="3" d="M24 32a50 50 0 0 0 60-16 50 50 0 0 0-60 16zM43 107a50 50 0 0 0 60-16 50 50 0 0 0-60 16z" clip-rule="evenodd"/><path stroke="#E91D50" stroke-width="3" d="M88 55c7 27 2 51-12 55-13 3-29-16-36-42-7-27-2-51 12-55 13-3 29 16 36 42z" clip-rule="evenodd"/><path stroke="#E91D50" stroke-width="3" d="M16 74l97-25M64 124v22"/><path stroke="#E91D50" stroke-linecap="round" stroke-width="3" d="M33 160h64"/></svg>