<svg xmlns="http://www.w3.org/2000/svg" fill="none" width="138" height="137" viewBox="0 0 142 141"><path stroke="#E91D50" stroke-linecap="round" stroke-width="3" d="M55.0771 100.63L18.63 136.215c-3.8508 3.759-10.03954 3.705-13.82501-.117-3.78546-3.824-3.73286-9.97.1179-13.729L41.37 86.7841c3.8508-3.7573 10.0414-3.7051 13.825.1171 3.7855 3.824 3.7329 9.9698-.1179 13.7288zM127.699 73.6989c-16.402 16.4015-42.9963 16.4015-59.3979 0-16.4015-16.4016-16.4015-42.9944 0-59.3978 16.4016-16.40148 42.9959-16.40148 59.3979 0 16.401 16.4034 16.401 42.9962 0 59.3978z" clip-rule="evenodd"/><path stroke="#E91D50" stroke-linecap="round" stroke-width="3" d="M118.213 65.2132c-11.716 11.7157-30.7104 11.7157-42.4262 0-11.7157-11.7158-11.7157-30.7106 0-42.4264 11.7158-11.7157 30.7102-11.7157 42.4262 0 11.716 11.7158 11.716 30.7106 0 42.4264z" clip-rule="evenodd"/><path stroke="#E91D50" stroke-linecap="round" stroke-width="3" d="M68 73L56 85"/></svg>