<svg xmlns="http://www.w3.org/2000/svg" fill="none" width="135" height="135" viewBox="0 0 145 145"><path stroke="#E91D50" stroke-linecap="round" stroke-linejoin="round" stroke-width="3" d="M108.2 142.2h34.6V1.7h-34.6v140.5z" clip-rule="evenodd"/><path stroke="#E91D50" stroke-linecap="round" stroke-linejoin="round" stroke-width="3" d="M142.8 18.6h-17.3M142.8 51.1h-17.3M142.8 83.7h-17.3M142.8 116.2h-17.3M142.8 29.3h-8.6M142.8 40.2h-8.6M142.8 62h-8.6M142.8 72.8h-8.6M142.8 94.5h-8.6M142.8 105.4h-8.6M77 51H67M77 84H67M77 117H67M77 30h-5M77 40h-5M77 62h-5M77 73h-5M77 95h-5M77 128h-5M77 106h-5"/><path stroke="#E91D50" stroke-linecap="round" stroke-linejoin="round" stroke-width="3" d="M2 143L77 2v141H2z" clip-rule="evenodd"/><path stroke="#E91D50" stroke-linecap="round" stroke-linejoin="round" stroke-width="3" d="M36 123l21-39v39H36z" clip-rule="evenodd"/></svg>