<svg width="809" height="595" viewBox="0 0 809 595" fill="none" xmlns="http://www.w3.org/2000/svg">
<path opacity="0.743546" d="M762.528 305.167C751.602 280.647 730.645 258.275 722.227 231.965C707.718 187.22 730.824 137.822 721.51 91.6452C713.271 51.196 677.984 18.4428 639.295 15.4002C607.233 12.8945 576.783 29.0026 544.899 33.1191C491.522 40.0993 439.22 13.6104 385.842 3.94552C337.839 -4.64547 287.865 0.902884 242.906 19.5167C213.71 31.6873 183.618 53.7017 179.319 86.9918C176.095 112.586 188.812 139.075 182.543 163.953C177.886 182.567 163.019 196.527 146.719 205.118C130.599 213.709 112.687 218.183 95.6707 224.985C59.3097 239.482 26.1728 266.329 9.87305 303.735C-6.42672 341.321 -3.02347 389.824 23.6652 420.609C36.3826 435.285 53.2197 445.129 67.37 458.194C85.8192 475.197 85.2819 502.939 96.2081 524.595C107.313 546.789 127.554 561.465 147.794 573.278C173.05 587.954 202.425 594.934 231.084 591.355C271.744 586.164 308.642 562.002 349.481 558.064C390.858 553.948 431.518 570.772 471.998 582.048C516.778 594.397 564.065 599.946 608.666 588.67C653.266 577.394 695.001 547.505 714.345 503.118C728.675 470.007 729.929 431.526 744.796 398.773C753.751 379.085 767.723 361.009 769.156 339.173C770.23 327.003 767.185 315.906 762.528 305.167Z" fill="url(#paint0_linear)"/>
<path d="M661.298 154.588C640.533 146.707 659.329 137.394 672.217 133.812C682.779 130.767 709.093 125.932 698.352 108.022C687.075 89.2161 676.335 112.499 667.563 115.006C647.693 120.917 668.458 95.8428 673.291 89.2161C680.094 80.0821 694.414 61.4557 676.693 58.2319C662.372 55.7245 647.693 75.6046 641.786 85.455C637.49 92.4399 627.287 125.573 616.367 118.23C608.133 112.678 616.725 79.5448 597.214 103.186C589.337 112.857 590.59 128.26 587.01 139.185C581.819 155.304 579.492 161.931 565.35 157.811C558.011 155.662 557.653 146.349 548.524 152.617C543.87 155.841 542.438 170.706 542.438 175.9C542.796 223.362 561.77 255.242 570.721 259.361C582.893 264.913 605.269 256.853 615.651 250.943C620.842 247.898 630.151 243.063 629.614 235.541C628.898 227.123 615.83 228.377 615.472 223.362C614.04 209.392 639.817 222.824 646.977 220.675C656.286 218.168 671.501 201.512 661.835 192.736C660.761 191.84 620.484 188.975 643.576 176.079C656.286 168.915 670.069 188.616 682.421 174.647C700.142 154.946 668.995 157.632 661.298 154.588Z" fill="url(#paint1_linear)"/>
<path d="M657.719 162.11C648.769 158.349 639.64 154.946 629.973 154.05C636.776 145.453 643.936 137.036 649.127 127.543C650.559 124.857 646.263 123.066 644.831 125.752C644.115 126.827 643.578 128.081 642.862 129.155C642.146 126.29 643.041 121.991 643.22 119.663C643.936 113.753 646.084 108.38 648.59 102.828C649.843 99.9621 645.368 98.1711 644.294 101.037C641.251 108.201 638.924 114.827 638.387 122.708C638.208 126.469 637.85 130.588 640.177 133.812C632.837 144.737 623.708 154.767 616.011 165.333C612.789 160.14 610.283 154.767 609.209 148.677C607.955 142.051 608.851 135.245 608.134 128.439C607.776 125.394 603.122 125.932 603.48 128.976C604.375 137.036 603.301 145.095 605.449 152.976C607.06 159.065 609.746 164.259 613.147 169.453C604.375 182.169 596.32 195.422 589.518 209.392C587.37 214.049 585.222 218.705 583.253 223.541C578.777 216.914 575.197 210.108 572.691 202.407C571.259 198.109 569.648 193.631 569.111 189.333C568.753 185.93 569.111 182.885 567.679 179.661C566.426 176.796 562.13 178.587 563.204 181.452C564.815 185.393 564.278 190.407 565.352 194.527C566.426 198.467 567.5 202.586 568.932 206.347C571.796 214.228 575.913 221.571 580.746 228.377C580.746 228.556 580.925 228.556 580.925 228.556C577.703 236.794 574.302 245.033 570.722 253.092C570.364 253.271 570.185 253.63 570.006 253.988C569.648 254.883 568.932 256.137 568.753 257.212C562.13 273.868 555.506 290.345 549.241 307.001C548.167 309.867 552.463 311.658 553.537 308.792C559.803 292.136 566.426 275.659 573.049 259.182L573.228 259.003C575.376 254.704 577.345 250.227 579.135 245.749C587.728 247.898 597.394 245.391 605.27 242.167C608.134 241.093 606.344 236.615 603.48 237.69C596.499 240.555 588.444 242.705 580.925 241.272C585.043 231.063 588.981 220.854 593.635 210.825C595.425 206.885 597.573 202.944 599.542 199.183C599.721 199.362 599.9 199.362 600.079 199.542C611.894 204.377 624.424 206.168 637.134 204.198C640.177 203.661 639.64 199.004 636.597 199.542C624.782 201.333 613.147 199.721 602.048 195.243C608.492 183.96 615.832 173.214 623.529 162.647C624.782 160.856 626.214 159.065 627.646 157.274C628.004 157.99 628.541 158.528 629.436 158.528C638.924 159.244 647.695 162.468 656.287 166.229C658.793 167.662 660.583 163.363 657.719 162.11Z" fill="url(#paint2_linear)"/>
<path d="M534.023 361.985C546.196 349.09 556.399 335.299 569.288 323.12C558.189 305.569 553.893 272.614 556.757 269.211C563.023 261.51 571.078 273.51 572.689 279.42C575.553 289.987 573.942 312.195 572.152 320.613C573.584 319.18 575.195 317.926 576.806 316.673C580.386 313.807 583.787 310.942 587.367 308.076C584.145 301.807 576.448 288.912 580.744 267.958C581.46 264.376 582.713 259.898 586.472 258.465C591.664 256.495 592.022 262.406 592.201 266.167C592.38 272.435 591.843 294.106 592.022 304.315C599.003 298.584 606.163 292.853 613.144 287.121C609.206 274.047 604.373 258.286 610.28 245.212C614.039 236.615 620.842 243.779 622.453 249.51C625.138 259.719 623.169 271.719 619.589 282.107C622.99 279.42 626.212 276.734 629.613 274.047C630.15 273.51 630.866 273.152 631.403 272.614C628.897 266.346 625.854 260.615 625.675 253.809C625.496 247.003 628.36 240.734 632.835 235.72C634.804 233.571 636.773 230.526 639.995 230.168C644.471 229.63 642.681 234.466 641.785 237.511C639.995 243.779 638.563 250.406 637.31 256.853C636.773 260.435 636.057 263.659 635.162 267.062C634.983 267.958 634.804 269.211 634.625 270.465C639.458 266.704 644.292 263.122 649.304 259.719C648.946 248.257 648.767 234.287 656.464 224.974C661.476 218.705 665.414 226.227 665.414 231.242C665.414 238.944 662.013 247.003 657.717 253.988C659.865 252.555 662.192 251.122 664.34 249.51C668.099 236.615 672.575 220.496 684.568 212.795C692.265 207.959 693.876 217.452 692.086 223.004C690.296 228.377 687.074 233.391 683.136 237.869C684.21 237.332 685.284 236.615 686.358 236.078C688.864 234.645 691.37 233.391 693.876 232.138C695.667 220.675 697.636 206.885 706.944 199.004C713.03 193.81 715.536 201.691 714.641 206.706C713.209 214.586 708.376 221.929 702.648 228.198C706.586 226.586 710.703 224.974 714.641 223.541C717.505 214.586 720.906 203.661 729.32 198.467C734.869 195.064 735.943 201.87 734.511 205.631C732.542 211.183 728.246 216.198 723.592 220.496C728.067 219.063 732.542 217.452 737.017 216.019C739.523 212.616 742.566 209.392 745.251 206.526C748.474 203.124 752.412 199.9 757.245 200.258C763.689 200.795 764.942 205.452 761.362 210.467C759.751 212.795 757.424 214.228 754.918 215.481C757.424 216.019 759.751 216.914 761.362 218.347C765.658 222.287 761.72 226.227 757.066 227.123C751.875 228.198 746.504 226.227 741.671 225.153C737.912 224.436 733.974 224.795 730.394 224.436C727.351 225.511 724.487 226.407 721.622 227.481C729.32 226.944 737.733 227.839 744.177 231.6C747.757 233.75 751.159 239.66 744.714 240.555C734.332 241.988 724.308 235.182 716.073 229.989L715.894 229.451C707.66 232.496 699.426 235.72 691.549 239.839C694.234 239.839 696.741 240.018 699.247 240.734C703.722 241.809 709.45 247.182 702.648 250.227C693.876 254.167 683.673 252.197 674.544 249.869C666.309 255.062 658.254 260.435 650.378 266.167C658.97 263.122 668.816 261.51 677.229 263.659C682.062 264.913 688.148 270.644 680.988 273.868C669.353 279.241 655.211 274.584 643.934 271.361L643.755 271.002C640.174 273.689 636.415 276.554 632.835 279.241C631.045 280.674 629.434 281.927 627.644 283.36C639.458 278.883 652.705 276.196 663.982 278.704C670.427 280.136 678.482 287.3 668.457 291.957C652.526 299.479 633.73 294.285 618.694 290.524C613.86 294.464 608.848 298.584 604.015 302.524C615.65 302.166 639.816 299.837 647.693 299.658C651.452 299.658 660.044 300.554 657.896 306.464C656.822 309.688 650.02 312.553 646.798 313.27C639.637 315.061 613.323 312.553 596.318 308.613C592.738 311.479 589.337 314.344 585.756 317.031C584.503 318.106 583.25 319.18 581.818 320.076C599.003 317.926 633.014 316.135 641.248 318.822C645.366 320.255 651.81 323.479 650.736 328.852C649.662 334.404 641.248 334.045 636.952 334.941C627.107 336.911 595.602 331.717 589.874 329.747C585.577 328.314 581.281 325.986 576.985 324.374C574.121 326.881 571.436 329.568 568.93 332.075C582.534 334.941 613.502 339.06 623.348 341.209C627.823 342.105 637.847 345.687 633.73 352.134C631.403 355.716 622.632 357.149 618.694 357.149C610.101 357.149 581.997 347.836 562.485 338.881C554.43 347.657 546.733 356.791 538.499 365.746C535.992 368.433 531.517 364.671 534.023 361.985Z" fill="url(#paint3_linear)"/>
<path d="M189.433 139.364C210.198 131.484 191.402 122.17 178.514 118.589C167.953 115.544 141.639 110.708 152.379 92.7981C163.656 73.9927 174.397 97.2756 183.168 99.783C203.038 105.693 182.273 80.6194 177.44 73.9927C170.638 64.8586 156.317 46.2322 174.039 43.0084C188.359 40.501 203.038 60.3811 208.945 70.2316C213.241 77.2165 223.445 110.35 234.364 103.007C242.598 97.4547 234.006 64.3213 253.518 87.9625C261.394 97.6338 260.141 113.036 263.721 123.961C268.912 140.08 271.239 146.707 285.381 142.588C292.72 140.439 293.078 131.125 302.208 137.394C306.862 140.618 308.294 155.483 308.294 160.677C307.936 208.138 288.961 240.018 280.011 244.137C267.838 249.689 245.462 241.63 235.08 235.72C229.889 232.675 220.581 227.839 221.118 220.317C221.834 211.899 234.901 213.153 235.259 208.138C236.691 194.169 210.914 207.601 203.754 205.452C194.446 202.944 179.23 186.288 188.896 177.512C189.97 176.617 230.247 173.751 207.155 160.856C194.446 153.692 180.662 173.393 168.311 159.423C150.589 139.543 181.736 142.23 189.433 139.364Z" fill="url(#paint4_linear)"/>
<path d="M193.014 146.707C201.965 142.946 211.094 139.543 220.76 138.648C213.958 130.051 206.798 121.633 201.607 112.141C200.175 109.454 204.471 107.663 205.903 110.35C206.619 111.425 207.156 112.678 207.872 113.753C208.588 110.887 207.693 106.589 207.514 104.261C206.798 98.3502 204.65 92.9772 202.144 87.4252C200.891 84.5596 205.366 82.7686 206.44 85.6342C209.483 92.7981 211.81 99.4248 212.347 107.305C212.526 111.066 212.884 115.186 210.557 118.409C217.896 129.334 227.026 139.364 234.723 149.931C237.945 144.737 240.451 139.364 241.525 133.275C242.778 126.648 241.883 119.842 242.599 113.036C242.957 109.992 247.611 110.529 247.253 113.574C246.358 121.633 247.432 129.693 245.284 137.573C243.673 143.662 240.988 148.856 237.587 154.05C246.358 166.766 254.414 180.02 261.216 193.989C263.364 198.646 265.512 203.303 267.481 208.138C271.956 201.512 275.537 194.706 278.043 187.005C279.475 182.706 281.086 178.229 281.623 173.93C281.981 170.527 281.623 167.483 283.055 164.259C284.308 161.393 288.604 163.184 287.53 166.05C285.919 169.99 286.456 175.005 285.382 179.124C284.308 183.064 283.234 187.184 281.802 190.945C278.938 198.825 274.821 206.168 269.987 212.974C269.987 213.153 269.808 213.153 269.808 213.153C273.03 221.392 276.432 229.63 280.012 237.69C280.37 237.869 280.549 238.227 280.728 238.585C281.086 239.481 281.802 240.734 281.981 241.809C288.604 258.465 295.227 274.943 301.493 291.599C302.567 294.464 298.27 296.255 297.196 293.39C290.931 276.734 284.308 260.256 277.685 243.779L277.506 243.6C275.358 239.302 273.388 234.824 271.598 230.347C263.006 232.496 253.34 229.988 245.463 226.765C242.599 225.69 244.389 221.213 247.253 222.287C254.235 225.153 262.29 227.302 269.808 225.869C265.691 215.661 261.753 205.452 257.099 195.422C255.309 191.482 253.161 187.542 251.192 183.781C251.013 183.96 250.834 183.96 250.655 184.139C238.84 188.975 226.31 190.766 213.6 188.796C210.557 188.258 211.094 183.602 214.137 184.139C225.952 185.93 237.587 184.318 248.686 179.841C242.241 168.557 234.902 157.811 227.205 147.244C225.952 145.453 224.52 143.662 223.088 141.871C222.73 142.588 222.193 143.125 221.298 143.125C211.81 143.842 203.039 147.065 194.446 150.826C191.94 152.259 190.15 147.961 193.014 146.707Z" fill="url(#paint5_linear)"/>
<path d="M316.708 346.582C304.536 333.687 294.332 319.897 281.444 307.718C292.542 290.166 296.838 257.212 293.974 253.809C287.709 246.107 279.654 258.107 278.043 264.017C275.179 274.584 276.79 296.793 278.58 305.21C277.148 303.778 275.537 302.524 273.926 301.27C270.345 298.405 266.944 295.539 263.364 292.673C266.586 286.405 274.284 273.51 269.987 252.734C269.271 249.152 268.018 244.675 264.259 243.242C259.068 241.272 258.71 247.182 258.531 250.943C258.352 257.212 258.889 278.883 258.71 289.091C251.729 283.36 244.568 277.629 237.587 271.898C241.525 258.824 246.359 243.063 240.451 229.988C236.692 221.392 229.89 228.556 228.279 234.287C225.594 244.496 227.563 256.495 231.143 266.883C227.742 264.197 224.52 261.51 221.119 258.824C220.582 258.286 219.866 257.928 219.328 257.391C221.835 251.122 224.878 245.391 225.057 238.585C225.236 231.779 222.372 225.511 217.896 220.496C215.927 218.347 213.958 215.302 210.736 214.944C206.261 214.407 208.051 219.242 208.946 222.287C210.736 228.556 212.168 235.182 213.421 241.63C213.958 245.212 214.674 248.436 215.569 251.839C215.748 252.734 215.927 253.988 216.106 255.242C211.273 251.48 206.44 247.898 201.428 244.496C201.786 233.033 201.965 219.063 194.268 209.75C189.255 203.482 185.317 211.004 185.317 216.019C185.317 223.72 188.718 231.779 193.014 238.764C190.866 237.332 188.539 235.899 186.391 234.287C182.632 221.392 178.157 205.273 166.163 197.571C158.466 192.736 156.855 202.228 158.645 207.78C160.435 213.153 163.657 218.168 167.596 222.645C166.521 222.108 165.447 221.392 164.373 220.854C161.867 219.422 159.361 218.168 156.855 216.914C155.065 205.452 153.096 191.661 143.788 183.781C137.701 178.587 135.195 186.467 136.09 191.482C137.522 199.362 142.356 206.706 148.084 212.974C144.146 211.362 140.028 209.75 136.09 208.317C133.226 199.362 129.825 188.437 121.412 183.243C115.863 179.841 114.789 186.646 116.221 190.407C118.19 195.96 122.486 200.974 127.14 205.273C122.665 203.84 118.19 202.228 113.714 200.795C111.208 197.392 108.165 194.169 105.48 191.303C102.258 187.9 98.3199 184.676 93.4867 185.034C87.0425 185.572 85.7894 190.228 89.3696 195.243C90.9806 197.571 93.3077 199.004 95.8138 200.258C93.3077 200.795 90.9806 201.691 89.3696 203.124C85.0734 207.064 89.0116 211.004 93.6657 211.899C98.8569 212.974 104.227 211.004 109.06 209.929C112.819 209.213 116.758 209.571 120.338 209.213C123.381 210.288 126.245 211.183 129.109 212.258C121.412 211.72 112.998 212.616 106.554 216.377C102.974 218.526 99.573 224.436 106.017 225.332C116.4 226.765 126.424 219.959 134.658 214.765L134.837 214.228C143.072 217.272 151.306 220.496 159.182 224.615C156.497 224.615 153.991 224.795 151.485 225.511C147.01 226.586 141.282 231.959 148.084 235.003C156.855 238.943 167.059 236.973 176.188 234.645C184.422 239.839 192.477 245.212 200.354 250.943C191.761 247.898 181.916 246.287 173.503 248.436C168.67 249.689 162.583 255.421 169.744 258.644C181.379 264.017 195.521 259.361 206.798 256.137L206.977 255.779C210.557 258.465 214.316 261.331 217.896 264.017C219.687 265.45 221.298 266.704 223.088 268.137C211.273 263.659 198.027 260.973 186.749 263.48C180.305 264.913 172.25 272.077 182.274 276.733C198.206 284.256 217.001 279.062 232.038 275.301C236.871 279.241 241.883 283.36 246.717 287.3C235.081 286.942 210.915 284.614 203.039 284.435C199.28 284.435 190.687 285.33 192.835 291.241C193.91 294.464 200.712 297.33 203.755 298.046C210.915 299.837 237.229 297.33 254.235 293.39C257.815 296.255 261.216 299.121 264.796 301.807C266.049 302.882 267.302 303.957 268.734 304.852C251.55 302.703 217.538 300.912 209.304 303.598C205.187 305.031 198.743 308.255 199.817 313.628C200.891 319.18 209.304 318.822 213.6 319.717C223.446 321.688 254.951 316.494 260.679 314.524C265.154 313.091 269.271 310.762 273.568 309.151C276.432 311.658 279.117 314.344 281.623 316.852C268.018 319.717 237.05 323.837 227.205 325.986C222.73 326.881 212.705 330.463 216.822 336.911C219.149 340.493 227.921 341.926 231.859 341.926C240.451 341.926 268.555 332.613 288.067 323.658C296.122 332.433 303.82 341.568 312.054 350.523C314.739 353.03 319.214 349.448 316.708 346.582Z" fill="url(#paint6_linear)"/>
<path d="M591.662 346.582C591.662 379.358 572.866 409.088 542.614 430.938C540.108 432.729 537.602 434.52 534.917 436.132C533.306 437.028 531.695 438.102 530.084 438.998C529.547 439.356 529.01 439.535 528.473 439.893C525.429 441.684 522.565 443.296 519.343 444.729C517.016 445.983 514.51 447.057 512.183 448.132C508.603 449.744 505.023 451.356 501.264 452.609C495.535 454.759 489.449 456.729 483.363 458.52C482.826 458.699 482.11 458.878 481.573 459.057C474.771 460.848 467.61 462.46 460.271 463.534C454.722 464.43 448.994 465.146 443.265 465.863C439.506 466.221 435.747 466.4 431.988 466.579C431.451 466.579 430.914 466.579 430.377 466.579C426.976 466.758 423.754 466.758 420.352 466.758H418.383C324.763 466.042 249.043 412.491 249.043 346.403C249.043 279.957 325.837 226.048 420.352 226.048C515.047 226.227 591.662 280.136 591.662 346.582Z" fill="url(#paint7_linear)"/>
<path d="M533.304 346.582C533.304 368.253 520.953 387.775 500.904 402.103C499.293 403.357 497.503 404.432 495.713 405.506C494.639 406.223 493.565 406.76 492.491 407.476C492.133 407.655 491.775 407.834 491.417 408.014C489.448 409.088 487.479 410.163 485.33 411.237C483.719 411.954 482.108 412.67 480.676 413.387C478.349 414.461 475.843 415.536 473.337 416.431C469.578 417.864 465.64 419.118 461.523 420.371C461.165 420.551 460.628 420.551 460.27 420.73C455.794 421.983 451.14 422.879 446.307 423.774C442.727 424.491 438.968 424.849 435.209 425.207C432.702 425.386 430.196 425.565 427.869 425.744C427.511 425.744 427.153 425.744 426.795 425.744C424.647 425.924 422.32 425.924 420.172 425.924H418.919C357.162 425.386 307.219 390.104 307.219 346.582C307.219 302.703 357.878 267.241 420.172 267.241C482.824 267.241 533.304 302.703 533.304 346.582Z" fill="url(#paint8_linear)"/>
<path d="M449.531 324.016L498.221 358.224L505.023 357.328L457.587 324.016H449.531Z" fill="#E0E7EE"/>
<path d="M445.055 364.851L493.745 399.059L500.547 398.342L453.11 364.851H445.055Z" fill="#E0E7EE"/>
<path fill-rule="evenodd" clip-rule="evenodd" d="M494.639 349.806L499.651 326.165L508.243 333.508L492.49 407.476C492.026 407.73 491.511 408.014 490.968 408.313C489.209 409.282 487.15 410.416 485.509 411.237C484.077 411.954 482.466 412.67 480.855 413.386L482.466 405.685L439.504 374.164L433.597 400.491L461.88 420.371C461.701 420.461 461.478 420.506 461.254 420.551C461.03 420.595 460.806 420.64 460.627 420.73C456.152 421.983 451.498 423.058 446.665 423.774L431.091 412.312L428.048 425.744H426.974C424.826 425.923 422.499 425.923 420.351 425.923H419.098L448.097 289.808L456.868 297.151L450.782 324.016L493.743 354.105L494.639 349.806ZM442.19 362.701L485.33 392.969L490.7 367.179L448.097 335.836L442.19 362.701Z" fill="white"/>
<path d="M515.405 333.508L500.906 402.103C499.294 403.357 497.504 404.432 495.714 405.506C494.64 406.223 493.566 406.76 492.492 407.476L508.245 333.508H515.405Z" fill="#E0E7EE"/>
<path d="M508.424 333.508L499.652 326.165H506.634L515.405 333.508H508.424Z" fill="#E0E7EE"/>
<path d="M456.869 297.151H463.85L455.079 289.629H448.098L456.869 297.151Z" fill="#E0E7EE"/>
<path d="M456.867 297.151H463.849L457.942 324.016H450.781L456.867 297.151Z" fill="#E0E7EE"/>
<g filter="url(#filter0_d)">
<path fill-rule="evenodd" clip-rule="evenodd" d="M414.24 302.442C414.24 339.422 501.48 334.201 501.983 335.702C502.318 336.703 475.336 398.933 475.336 398.933L482.842 401.855C482.842 401.855 524.26 335.962 522.121 328.934C519.059 318.872 455.454 302.68 455.454 302.68L414.24 302.442Z" fill="#FFC0A5"/>
<path fill-rule="evenodd" clip-rule="evenodd" d="M477.677 389.649L489.951 394.141C515.704 365.13 525.758 341.156 523.87 328.918C521.982 316.68 457.237 302.684 457.237 302.684L413.409 302.54C415.044 344.588 494.761 336.025 495.832 337.82C496.902 339.615 486.481 357.128 477.677 389.649Z" fill="#D81646"/>
<path fill-rule="evenodd" clip-rule="evenodd" d="M474.404 397.402C473.347 396.891 472.044 397.299 471.602 398.387C471.025 399.806 470.362 401.65 470.304 402.762C470.199 404.764 470.662 408.639 470.662 408.639C472.974 408.76 512.213 410.817 512.213 410.817C512.213 410.817 514.115 405.523 510.648 404.911C507.181 404.299 504.891 403.833 504.891 403.833L486.274 394.296C485.771 394.038 485.155 394.248 484.914 394.758L483.63 397.474C483.63 397.474 480.32 398.819 478.3 398.713C477.227 398.657 475.647 398.002 474.404 397.402Z" fill="#C5CFD6"/>
<path fill-rule="evenodd" clip-rule="evenodd" d="M412.495 425.86C412.495 425.86 417.753 426.371 423.195 426.371C428.637 426.371 432.959 425.86 432.959 425.86C439.474 397.947 450.817 345.237 457.797 302.378H413.995C401.72 336.963 412.495 403.379 412.495 425.86Z" fill="#EA3663"/>
<path fill-rule="evenodd" clip-rule="evenodd" d="M443.029 213.587C447.505 216.459 451.903 217.847 453.967 217.28C459.144 215.86 459.62 195.701 455.614 187.754C451.609 179.807 431.018 176.343 429.98 192.089C429.62 197.554 431.776 202.431 434.961 206.411L429.25 234.745H445.839L443.029 213.587Z" fill="#FFC0A5"/>
<path fill-rule="evenodd" clip-rule="evenodd" d="M449.064 179.099C446.797 178.363 443.506 178.114 442.122 178.282C442.91 176.274 443.222 174.037 442.967 171.858C442.72 169.742 441.831 167.939 441.009 166.05C440.631 165.18 440.201 164.314 439.561 163.648C438.909 162.97 438.084 162.522 437.219 162.308C436.333 162.09 435.407 162.108 434.52 162.306C434.127 162.394 433.775 162.585 433.39 162.691C432.996 162.8 432.805 162.537 432.519 162.274C431.83 161.638 430.819 161.324 429.947 161.212C428.969 161.086 427.953 161.243 427.02 161.585C426.112 161.918 425.239 162.46 424.583 163.248C424.29 163.599 424.025 163.999 423.852 164.44C423.782 164.621 423.77 164.728 423.6 164.794C423.443 164.856 423.26 164.858 423.098 164.916C421.532 165.481 420.193 166.769 419.463 168.423C419.038 169.388 418.837 171.086 418.892 172.99C418.947 174.894 420.562 179.863 422.073 181.675C423.421 183.292 425.403 184.36 427.316 184.827C426.046 186.372 425.201 188.302 424.576 190.265C423.897 192.398 423.477 194.614 423.322 196.871C423.175 199.016 423.161 201.285 423.633 203.384C424.075 205.347 425.02 206.958 426.598 207.979C427.321 208.447 428.098 208.799 428.88 209.12C429.651 209.437 430.424 209.745 431.232 209.922C432.76 210.259 434.52 210.201 435.697 208.906C436.121 208.44 436.588 207.853 436.897 207.283C437.009 207.078 437.076 206.944 436.941 206.743C436.779 206.503 436.517 206.319 436.309 206.132C435.122 205.061 434.388 203.632 434.202 201.933C434.015 200.21 434.45 197.985 436.024 197.233C437.967 196.305 440.106 197.371 441.833 198.364C442.567 195.606 444.074 193.124 446.437 191.859C449.051 190.459 452.051 190.296 454.737 189.095C455.437 188.782 456.15 188.427 456.665 187.79C456.88 187.523 457.133 187.178 457.219 186.825C457.332 186.362 457.052 185.974 456.835 185.613C455.686 183.7 451.33 179.835 449.064 179.099Z" fill="#191847"/>
<path fill-rule="evenodd" clip-rule="evenodd" d="M363.952 246.049C366.672 250.108 384.879 286.947 384.879 286.947L390.059 275.253C390.059 275.253 374.542 245.52 373.04 242.874C371.089 239.437 372.823 233.787 374 229.956C374.182 229.364 374.35 228.815 374.49 228.324C372.028 227.605 371.09 229.036 370.101 230.545C368.983 232.249 367.801 234.053 364.285 232.969C362.927 232.55 361.622 232.012 360.347 231.486C355.944 229.669 351.899 228 347.246 231.917C346.509 232.538 345.886 234.567 348.227 235.747C354.059 238.685 362.622 244.064 363.952 246.049ZM504.438 308.658L482.393 289.691L476.363 302.219L498.71 313.534C504.683 321.755 508.099 325.248 508.959 324.012C509.683 322.97 509.246 321.916 508.843 320.945C508.529 320.188 508.236 319.482 508.53 318.872C509.201 317.478 513.563 317.938 517.685 318.554C521.806 319.171 520.728 317.214 519.792 316.219C515.74 313.351 510.622 310.83 504.438 308.658Z" fill="#FFC0A5"/>
<path fill-rule="evenodd" clip-rule="evenodd" d="M436.646 228.252L444.667 225.551C455.508 253.105 471.694 279.758 498.765 302.253L492.049 313.993C468.249 299.788 445.718 288.758 436.596 267.408C433.535 260.242 436.385 236.825 436.646 228.252Z" fill="#DDE3E9"/>
<path fill-rule="evenodd" clip-rule="evenodd" d="M409.434 305.628C409.434 305.628 443.88 309.335 463.659 305.628C465.293 305.322 465.551 302.546 464.793 300.662C452.995 271.321 444.904 245.72 444.904 225.341C441.657 227.003 433.538 225.839 433.538 225.839C418.992 246.841 412.306 270.937 409.434 305.628Z" fill="#1F28CF"/>
<path fill-rule="evenodd" clip-rule="evenodd" d="M428.252 224.721C422.908 228.366 404.065 242.523 390.096 269.456C387.379 264.869 383.388 257.44 377.856 245.583L364.473 250.853C377.308 286.134 385.077 294.717 389.541 295.008L391.598 296.744C395.857 291.837 400.5 287.119 404.99 282.86C393.238 315.366 382.373 352.607 380.891 384.035H455.255C444.477 354.767 439.413 278.288 437.049 242.579C436.398 232.752 435.952 226.013 435.648 224.195H429.695L429.72 223.761C429.72 223.761 429.483 223.904 429.039 224.195H428.477C428.402 224.369 428.328 224.545 428.252 224.721Z" fill="#DDE3E9"/>
<mask id="mask0" mask-type="alpha" maskUnits="userSpaceOnUse" x="415" y="348" width="26" height="27">
<path fill-rule="evenodd" clip-rule="evenodd" d="M415.219 348.886H440.463V374.13H415.219V348.886Z" fill="white"/>
</mask>
<g mask="url(#mask0)">
<path fill-rule="evenodd" clip-rule="evenodd" d="M425.034 354.241C422.549 354.239 420.722 356 420.658 358.339C420.59 360.798 422.418 362.736 424.974 362.741C427.477 362.745 429.359 361.01 429.356 358.467C429.353 355.926 427.47 354.277 425.034 354.241ZM421.067 372.146V371.757C421.067 370.387 421.071 367.327 421.071 367.327C421.071 367.327 421.02 367.303 420.791 367.198C417.702 365.775 415.895 363.39 415.365 360.097C414.937 357.436 415.435 354.944 417.047 352.734C418.6 350.605 420.757 349.408 423.386 349.014C425.418 348.71 427.38 348.941 429.261 349.763C431.366 350.683 432.933 352.17 433.853 354.231C435.186 357.219 435.143 360.223 433.631 363.149C432.556 365.229 430.835 366.63 428.613 367.447C428.479 367.497 428.346 367.548 428.215 367.65C432.222 368.691 436.244 369.666 440.454 368.736C440.459 368.876 440.452 371.901 440.463 373.316C440.464 373.432 440.463 373.664 440.463 373.664C440.463 373.664 440.275 373.712 440.132 373.746C438.586 374.11 437.028 374.193 435.442 374.089C432.766 373.915 430.192 373.235 427.597 372.647C426.107 372.309 424.611 371.987 423.075 371.96C422.506 371.95 421.936 372.056 421.366 372.11C421.28 372.118 421.194 372.13 421.067 372.146Z" fill="#E91D50"/>
</g>
</g>
<path d="M327.217 490.692L323.005 503.292H321.115L317.677 493.23L314.239 503.292H312.313L308.101 490.692H309.955L313.357 500.934L316.903 490.692H318.559L322.033 500.988L325.507 490.692H327.217ZM337.068 498.576C337.068 498.708 337.056 498.882 337.032 499.098H329.292C329.4 499.938 329.766 500.616 330.39 501.132C331.026 501.636 331.812 501.888 332.748 501.888C333.888 501.888 334.806 501.504 335.502 500.736L336.456 501.852C336.024 502.356 335.484 502.74 334.836 503.004C334.2 503.268 333.486 503.4 332.694 503.4C331.686 503.4 330.792 503.196 330.012 502.788C329.232 502.368 328.626 501.786 328.194 501.042C327.774 500.298 327.564 499.458 327.564 498.522C327.564 497.598 327.768 496.764 328.176 496.02C328.596 495.276 329.166 494.7 329.886 494.292C330.618 493.872 331.44 493.662 332.352 493.662C333.264 493.662 334.074 493.872 334.782 494.292C335.502 494.7 336.06 495.276 336.456 496.02C336.864 496.764 337.068 497.616 337.068 498.576ZM332.352 495.12C331.524 495.12 330.828 495.372 330.264 495.876C329.712 496.38 329.388 497.04 329.292 497.856H335.412C335.316 497.052 334.986 496.398 334.422 495.894C333.87 495.378 333.18 495.12 332.352 495.12ZM348.459 503.4C347.487 503.4 346.617 503.19 345.849 502.77C345.093 502.35 344.499 501.774 344.067 501.042C343.635 500.298 343.419 499.458 343.419 498.522C343.419 497.586 343.635 496.752 344.067 496.02C344.499 495.276 345.093 494.7 345.849 494.292C346.617 493.872 347.487 493.662 348.459 493.662C349.323 493.662 350.091 493.836 350.763 494.184C351.447 494.532 351.975 495.036 352.347 495.696L351.033 496.542C350.733 496.086 350.361 495.744 349.917 495.516C349.473 495.288 348.981 495.174 348.441 495.174C347.817 495.174 347.253 495.312 346.749 495.588C346.257 495.864 345.867 496.26 345.579 496.776C345.303 497.28 345.165 497.862 345.165 498.522C345.165 499.194 345.303 499.788 345.579 500.304C345.867 500.808 346.257 501.198 346.749 501.474C347.253 501.75 347.817 501.888 348.441 501.888C348.981 501.888 349.473 501.774 349.917 501.546C350.361 501.318 350.733 500.976 351.033 500.52L352.347 501.348C351.975 502.008 351.447 502.518 350.763 502.878C350.091 503.226 349.323 503.4 348.459 503.4ZM358.059 493.662C359.379 493.662 360.387 493.986 361.083 494.634C361.791 495.282 362.145 496.248 362.145 497.532V503.292H360.507V502.032C360.219 502.476 359.805 502.818 359.265 503.058C358.737 503.286 358.107 503.4 357.375 503.4C356.307 503.4 355.449 503.142 354.801 502.626C354.165 502.11 353.847 501.432 353.847 500.592C353.847 499.752 354.153 499.08 354.765 498.576C355.377 498.06 356.349 497.802 357.681 497.802H360.417V497.46C360.417 496.716 360.201 496.146 359.769 495.75C359.337 495.354 358.701 495.156 357.861 495.156C357.297 495.156 356.745 495.252 356.205 495.444C355.665 495.624 355.209 495.87 354.837 496.182L354.117 494.886C354.609 494.49 355.197 494.19 355.881 493.986C356.565 493.77 357.291 493.662 358.059 493.662ZM357.663 502.068C358.323 502.068 358.893 501.924 359.373 501.636C359.853 501.336 360.201 500.916 360.417 500.376V499.044H357.753C356.289 499.044 355.557 499.536 355.557 500.52C355.557 501 355.743 501.378 356.115 501.654C356.487 501.93 357.003 502.068 357.663 502.068ZM370.436 493.662C371.648 493.662 372.608 494.016 373.316 494.724C374.036 495.42 374.396 496.446 374.396 497.802V503.292H372.668V498C372.668 497.076 372.446 496.38 372.002 495.912C371.558 495.444 370.922 495.21 370.094 495.21C369.158 495.21 368.42 495.486 367.88 496.038C367.34 496.578 367.07 497.358 367.07 498.378V503.292H365.342V493.752H366.998V495.192C367.346 494.7 367.814 494.322 368.402 494.058C369.002 493.794 369.68 493.662 370.436 493.662ZM382.454 490.026H384.65L381.626 492.366H380.006L382.454 490.026ZM393.751 502.734C393.499 502.95 393.187 503.118 392.815 503.238C392.443 503.346 392.059 503.4 391.663 503.4C390.703 503.4 389.959 503.142 389.431 502.626C388.903 502.11 388.639 501.372 388.639 500.412V495.174H387.019V493.752H388.639V491.664H390.367V493.752H393.103V495.174H390.367V500.34C390.367 500.856 390.493 501.252 390.745 501.528C391.009 501.804 391.381 501.942 391.861 501.942C392.389 501.942 392.839 501.792 393.211 501.492L393.751 502.734ZM404.167 491.25C403.135 491.25 402.619 491.808 402.619 492.924V493.752H405.391V495.174H402.655V503.292H400.927V495.174H399.307V493.752H400.927V492.906C400.927 491.958 401.203 491.208 401.755 490.656C402.307 490.104 403.081 489.828 404.077 489.828C404.461 489.828 404.821 489.876 405.157 489.972C405.493 490.068 405.781 490.206 406.021 490.386L405.499 491.7C405.103 491.4 404.659 491.25 404.167 491.25ZM408.469 493.752H410.197V503.292H408.469V493.752ZM409.333 491.916C408.997 491.916 408.715 491.808 408.487 491.592C408.271 491.376 408.163 491.112 408.163 490.8C408.163 490.488 408.271 490.224 408.487 490.008C408.715 489.78 408.997 489.666 409.333 489.666C409.669 489.666 409.945 489.774 410.161 489.99C410.389 490.194 410.503 490.452 410.503 490.764C410.503 491.088 410.389 491.364 410.161 491.592C409.945 491.808 409.669 491.916 409.333 491.916ZM418.583 493.662C419.795 493.662 420.755 494.016 421.463 494.724C422.183 495.42 422.543 496.446 422.543 497.802V503.292H420.815V498C420.815 497.076 420.593 496.38 420.149 495.912C419.705 495.444 419.069 495.21 418.241 495.21C417.305 495.21 416.567 495.486 416.027 496.038C415.487 496.578 415.217 497.358 415.217 498.378V503.292H413.489V493.752H415.145V495.192C415.493 494.7 415.961 494.322 416.549 494.058C417.149 493.794 417.827 493.662 418.583 493.662ZM434.794 489.936V503.292H433.138V501.78C432.754 502.308 432.268 502.71 431.68 502.986C431.092 503.262 430.444 503.4 429.736 503.4C428.812 503.4 427.984 503.196 427.252 502.788C426.52 502.38 425.944 501.81 425.524 501.078C425.116 500.334 424.912 499.482 424.912 498.522C424.912 497.562 425.116 496.716 425.524 495.984C425.944 495.252 426.52 494.682 427.252 494.274C427.984 493.866 428.812 493.662 429.736 493.662C430.42 493.662 431.05 493.794 431.626 494.058C432.202 494.31 432.682 494.688 433.066 495.192V489.936H434.794ZM429.88 501.888C430.48 501.888 431.026 501.75 431.518 501.474C432.01 501.186 432.394 500.79 432.67 500.286C432.946 499.77 433.084 499.182 433.084 498.522C433.084 497.862 432.946 497.28 432.67 496.776C432.394 496.26 432.01 495.864 431.518 495.588C431.026 495.312 430.48 495.174 429.88 495.174C429.268 495.174 428.716 495.312 428.224 495.588C427.744 495.864 427.36 496.26 427.072 496.776C426.796 497.28 426.658 497.862 426.658 498.522C426.658 499.182 426.796 499.77 427.072 500.286C427.36 500.79 427.744 501.186 428.224 501.474C428.716 501.75 429.268 501.888 429.88 501.888ZM448.261 502.734C448.009 502.95 447.697 503.118 447.325 503.238C446.953 503.346 446.569 503.4 446.173 503.4C445.213 503.4 444.469 503.142 443.941 502.626C443.413 502.11 443.149 501.372 443.149 500.412V495.174H441.529V493.752H443.149V491.664H444.877V493.752H447.613V495.174H444.877V500.34C444.877 500.856 445.003 501.252 445.255 501.528C445.519 501.804 445.891 501.942 446.371 501.942C446.899 501.942 447.349 501.792 447.721 501.492L448.261 502.734ZM455.444 493.662C456.656 493.662 457.616 494.016 458.324 494.724C459.044 495.42 459.404 496.446 459.404 497.802V503.292H457.676V498C457.676 497.076 457.454 496.38 457.01 495.912C456.566 495.444 455.93 495.21 455.102 495.21C454.166 495.21 453.428 495.486 452.888 496.038C452.348 496.578 452.078 497.358 452.078 498.378V503.292H450.35V489.936H452.078V495.102C452.438 494.646 452.906 494.292 453.482 494.04C454.07 493.788 454.724 493.662 455.444 493.662ZM471.277 498.576C471.277 498.708 471.265 498.882 471.241 499.098H463.501C463.609 499.938 463.975 500.616 464.599 501.132C465.235 501.636 466.021 501.888 466.957 501.888C468.097 501.888 469.015 501.504 469.711 500.736L470.665 501.852C470.233 502.356 469.693 502.74 469.045 503.004C468.409 503.268 467.695 503.4 466.903 503.4C465.895 503.4 465.001 503.196 464.221 502.788C463.441 502.368 462.835 501.786 462.403 501.042C461.983 500.298 461.773 499.458 461.773 498.522C461.773 497.598 461.977 496.764 462.385 496.02C462.805 495.276 463.375 494.7 464.095 494.292C464.827 493.872 465.649 493.662 466.561 493.662C467.473 493.662 468.283 493.872 468.991 494.292C469.711 494.7 470.269 495.276 470.665 496.02C471.073 496.764 471.277 497.616 471.277 498.576ZM466.561 495.12C465.733 495.12 465.037 495.372 464.473 495.876C463.921 496.38 463.597 497.04 463.501 497.856H469.621C469.525 497.052 469.195 496.398 468.631 495.894C468.079 495.378 467.389 495.12 466.561 495.12ZM483.568 493.662C484.492 493.662 485.32 493.866 486.052 494.274C486.784 494.682 487.354 495.252 487.762 495.984C488.182 496.716 488.392 497.562 488.392 498.522C488.392 499.482 488.182 500.334 487.762 501.078C487.354 501.81 486.784 502.38 486.052 502.788C485.32 503.196 484.492 503.4 483.568 503.4C482.884 503.4 482.254 503.268 481.678 503.004C481.114 502.74 480.634 502.356 480.238 501.852V506.784H478.51V493.752H480.166V495.264C480.55 494.736 481.036 494.34 481.624 494.076C482.212 493.8 482.86 493.662 483.568 493.662ZM483.424 501.888C484.036 501.888 484.582 501.75 485.062 501.474C485.554 501.186 485.938 500.79 486.214 500.286C486.502 499.77 486.646 499.182 486.646 498.522C486.646 497.862 486.502 497.28 486.214 496.776C485.938 496.26 485.554 495.864 485.062 495.588C484.582 495.312 484.036 495.174 483.424 495.174C482.824 495.174 482.278 495.318 481.786 495.606C481.306 495.882 480.922 496.272 480.634 496.776C480.358 497.28 480.22 497.862 480.22 498.522C480.22 499.182 480.358 499.77 480.634 500.286C480.91 500.79 481.294 501.186 481.786 501.474C482.278 501.75 482.824 501.888 483.424 501.888ZM494.166 493.662C495.486 493.662 496.494 493.986 497.19 494.634C497.898 495.282 498.252 496.248 498.252 497.532V503.292H496.614V502.032C496.326 502.476 495.912 502.818 495.372 503.058C494.844 503.286 494.214 503.4 493.482 503.4C492.414 503.4 491.556 503.142 490.908 502.626C490.272 502.11 489.954 501.432 489.954 500.592C489.954 499.752 490.26 499.08 490.872 498.576C491.484 498.06 492.456 497.802 493.788 497.802H496.524V497.46C496.524 496.716 496.308 496.146 495.876 495.75C495.444 495.354 494.808 495.156 493.968 495.156C493.404 495.156 492.852 495.252 492.312 495.444C491.772 495.624 491.316 495.87 490.944 496.182L490.224 494.886C490.716 494.49 491.304 494.19 491.988 493.986C492.672 493.77 493.398 493.662 494.166 493.662ZM493.77 502.068C494.43 502.068 495 501.924 495.48 501.636C495.96 501.336 496.308 500.916 496.524 500.376V499.044H493.86C492.396 499.044 491.664 499.536 491.664 500.52C491.664 501 491.85 501.378 492.222 501.654C492.594 501.93 493.11 502.068 493.77 502.068ZM510.629 493.752V501.996C510.629 503.664 510.215 504.894 509.387 505.686C508.559 506.49 507.323 506.892 505.679 506.892C504.779 506.892 503.921 506.766 503.105 506.514C502.289 506.274 501.629 505.926 501.125 505.47L501.953 504.138C502.397 504.522 502.943 504.822 503.591 505.038C504.251 505.266 504.929 505.38 505.625 505.38C506.741 505.38 507.563 505.116 508.091 504.588C508.631 504.06 508.901 503.256 508.901 502.176V501.42C508.493 501.912 507.989 502.284 507.389 502.536C506.801 502.776 506.159 502.896 505.463 502.896C504.551 502.896 503.723 502.704 502.979 502.32C502.247 501.924 501.671 501.378 501.251 500.682C500.831 499.974 500.621 499.17 500.621 498.27C500.621 497.37 500.831 496.572 501.251 495.876C501.671 495.168 502.247 494.622 502.979 494.238C503.723 493.854 504.551 493.662 505.463 493.662C506.183 493.662 506.849 493.794 507.461 494.058C508.085 494.322 508.595 494.712 508.991 495.228V493.752H510.629ZM505.661 501.384C506.285 501.384 506.843 501.252 507.335 500.988C507.839 500.724 508.229 500.358 508.505 499.89C508.793 499.41 508.937 498.87 508.937 498.27C508.937 497.346 508.631 496.602 508.019 496.038C507.407 495.462 506.621 495.174 505.661 495.174C504.689 495.174 503.897 495.462 503.285 496.038C502.673 496.602 502.367 497.346 502.367 498.27C502.367 498.87 502.505 499.41 502.781 499.89C503.069 500.358 503.459 500.724 503.951 500.988C504.455 501.252 505.025 501.384 505.661 501.384ZM522.552 498.576C522.552 498.708 522.54 498.882 522.516 499.098H514.776C514.884 499.938 515.25 500.616 515.874 501.132C516.51 501.636 517.296 501.888 518.232 501.888C519.372 501.888 520.29 501.504 520.986 500.736L521.94 501.852C521.508 502.356 520.968 502.74 520.32 503.004C519.684 503.268 518.97 503.4 518.178 503.4C517.17 503.4 516.276 503.196 515.496 502.788C514.716 502.368 514.11 501.786 513.678 501.042C513.258 500.298 513.048 499.458 513.048 498.522C513.048 497.598 513.252 496.764 513.66 496.02C514.08 495.276 514.65 494.7 515.37 494.292C516.102 493.872 516.924 493.662 517.836 493.662C518.748 493.662 519.558 493.872 520.266 494.292C520.986 494.7 521.544 495.276 521.94 496.02C522.348 496.764 522.552 497.616 522.552 498.576ZM517.836 495.12C517.008 495.12 516.312 495.372 515.748 495.876C515.196 496.38 514.872 497.04 514.776 497.856H520.896C520.8 497.052 520.47 496.398 519.906 495.894C519.354 495.378 518.664 495.12 517.836 495.12ZM530.2 496.128C529.864 496.128 529.576 496.014 529.336 495.786C529.096 495.546 528.976 495.246 528.976 494.886C528.976 494.538 529.096 494.25 529.336 494.022C529.576 493.782 529.864 493.662 530.2 493.662C530.536 493.662 530.818 493.776 531.046 494.004C531.274 494.232 531.388 494.526 531.388 494.886C531.388 495.246 531.268 495.546 531.028 495.786C530.8 496.014 530.524 496.128 530.2 496.128ZM530.2 503.4C529.864 503.4 529.576 503.286 529.336 503.058C529.096 502.818 528.976 502.518 528.976 502.158C528.976 501.81 529.096 501.522 529.336 501.294C529.576 501.054 529.864 500.934 530.2 500.934C530.536 500.934 530.818 501.048 531.046 501.276C531.274 501.504 531.388 501.798 531.388 502.158C531.388 502.518 531.268 502.818 531.028 503.058C530.8 503.286 530.524 503.4 530.2 503.4ZM536.078 506.784C535.394 505.68 534.866 504.414 534.494 502.986C534.122 501.546 533.936 500.004 533.936 498.36C533.936 496.716 534.122 495.174 534.494 493.734C534.866 492.282 535.394 491.016 536.078 489.936H537.716C536.996 491.196 536.468 492.516 536.132 493.896C535.796 495.276 535.628 496.764 535.628 498.36C535.628 499.956 535.796 501.444 536.132 502.824C536.468 504.204 536.996 505.524 537.716 506.784H536.078Z" fill="#212D5F"/>
<path fill-rule="evenodd" clip-rule="evenodd" d="M806.469 296.793L771.921 405.327L783.019 406.581L803.068 408.909L789.822 447.057L761.36 445.625L749.545 480.549L689.22 474.818L692.621 464.251L701.034 437.744L581.637 422.7L593.809 391.716L724.126 289.808L806.469 296.793ZM712.312 397.805L720.546 372.91L734.15 332.254L660.579 391.716L692.621 395.477L712.312 397.805Z" fill="url(#paint9_linear)"/>
<path fill-rule="evenodd" clip-rule="evenodd" d="M782.84 406.581L771.92 405.327L806.469 296.793L808.975 324.553L782.84 406.581ZM692.62 395.477L660.578 391.715L734.15 332.254L720.545 372.91L692.62 395.477ZM583.963 450.46L581.457 422.7L700.855 437.565L692.441 464.072L583.963 450.46ZM789.821 447.057L761.359 445.624L749.544 480.549L689.219 474.818L691.725 502.578L752.05 508.309L763.865 473.385L792.327 474.818L805.574 436.67L803.067 408.909L789.821 447.057Z" fill="url(#paint10_linear)"/>
<path fill-rule="evenodd" clip-rule="evenodd" d="M233.648 279.599L206.618 390.283L217.717 390.641L237.945 391.536L227.383 430.58L198.921 431.117L189.434 466.758L128.93 465.146L131.615 454.4L138.059 427.535L17.9453 420.73L27.9697 389.029L150.947 278.345L233.648 279.599ZM146.651 387.059L153.274 361.627L164.015 320.076L94.7392 384.552L126.96 386.163L146.651 387.059Z" fill="url(#paint11_linear)"/>
<path fill-rule="evenodd" clip-rule="evenodd" d="M217.538 390.82L206.618 390.283L233.648 279.599L237.945 307.18L217.538 390.82ZM126.96 386.163L94.7392 384.552L164.015 320.076L153.274 361.627L126.96 386.163ZM22.2415 448.49L17.9453 420.909L137.88 427.715L131.436 454.579L22.2415 448.49ZM227.383 430.759L198.921 431.297L189.434 466.937L128.93 465.326L133.226 492.907L193.73 494.519L203.217 458.878L231.679 458.341L242.241 419.297L237.945 391.716L227.383 430.759Z" fill="url(#paint12_linear)"/>
<defs>
<filter id="filter0_d" x="326.578" y="143.168" width="227.557" height="305.202" filterUnits="userSpaceOnUse" color-interpolation-filters="sRGB">
<feFlood flood-opacity="0" result="BackgroundImageFix"/>
<feColorMatrix in="SourceAlpha" type="matrix" values="0 0 0 0 0 0 0 0 0 0 0 0 0 0 0 0 0 0 127 0"/>
<feOffset dy="2"/>
<feGaussianBlur stdDeviation="10"/>
<feColorMatrix type="matrix" values="0 0 0 0 0.129412 0 0 0 0 0.176471 0 0 0 0 0.372549 0 0 0 0.1 0"/>
<feBlend mode="normal" in2="BackgroundImageFix" result="effect1_dropShadow"/>
<feBlend mode="normal" in="SourceGraphic" in2="effect1_dropShadow" result="shape"/>
</filter>
<linearGradient id="paint0_linear" x1="751.321" y1="6.9774" x2="0" y2="6.9774" gradientUnits="userSpaceOnUse">
<stop stop-color="#C4DAFF"/>
<stop offset="1" stop-color="#E2EDFF"/>
</linearGradient>
<linearGradient id="paint1_linear" x1="542.438" y1="58.0152" x2="542.438" y2="261.225" gradientUnits="userSpaceOnUse">
<stop stop-color="#E91E51"/>
<stop offset="1" stop-color="#E2F4F5"/>
</linearGradient>
<linearGradient id="paint2_linear" x1="550.005" y1="99.5851" x2="550.005" y2="306.667" gradientUnits="userSpaceOnUse">
<stop stop-color="#F5515F"/>
<stop offset="1" stop-color="#EA3663"/>
</linearGradient>
<linearGradient id="paint3_linear" x1="533.285" y1="197.301" x2="533.285" y2="366.67" gradientUnits="userSpaceOnUse">
<stop stop-color="#455998"/>
<stop offset="1" stop-color="#212D5F"/>
</linearGradient>
<linearGradient id="paint4_linear" x1="149.852" y1="42.7917" x2="149.852" y2="246.001" gradientUnits="userSpaceOnUse">
<stop stop-color="#E91E51"/>
<stop offset="1" stop-color="#E2F4F5"/>
</linearGradient>
<linearGradient id="paint5_linear" x1="192.482" y1="84.1826" x2="192.482" y2="291.264" gradientUnits="userSpaceOnUse">
<stop stop-color="#F5515F"/>
<stop offset="1" stop-color="#EA3663"/>
</linearGradient>
<linearGradient id="paint6_linear" x1="87.3984" y1="182.078" x2="87.3984" y2="351.37" gradientUnits="userSpaceOnUse">
<stop stop-color="#455998"/>
<stop offset="1" stop-color="#212D5F"/>
</linearGradient>
<linearGradient id="paint7_linear" x1="462.549" y1="554.427" x2="561.467" y2="302.01" gradientUnits="userSpaceOnUse">
<stop offset="0.00194311" stop-color="#574DFF"/>
<stop offset="0.1796" stop-color="#6A6DFF"/>
<stop offset="0.4238" stop-color="#8093FF"/>
<stop offset="0.6499" stop-color="#90AFFF"/>
<stop offset="0.8491" stop-color="#9ABFFF"/>
<stop offset="1" stop-color="#9DC5FF"/>
</linearGradient>
<linearGradient id="paint8_linear" x1="645.322" y1="438.101" x2="772.376" y2="75.4381" gradientUnits="userSpaceOnUse">
<stop offset="0.00194311" stop-color="#574DFF"/>
<stop offset="0.1796" stop-color="#6A6DFF"/>
<stop offset="0.4238" stop-color="#8093FF"/>
<stop offset="0.6499" stop-color="#90AFFF"/>
<stop offset="0.8491" stop-color="#9ABFFF"/>
<stop offset="1" stop-color="#9DC5FF"/>
</linearGradient>
<linearGradient id="paint9_linear" x1="777.391" y1="564.734" x2="878.173" y2="319.871" gradientUnits="userSpaceOnUse">
<stop offset="0.00194311" stop-color="#574DFF"/>
<stop offset="0.1796" stop-color="#6A6DFF"/>
<stop offset="0.4238" stop-color="#8093FF"/>
<stop offset="0.6499" stop-color="#90AFFF"/>
<stop offset="0.8491" stop-color="#9ABFFF"/>
<stop offset="1" stop-color="#9DC5FF"/>
</linearGradient>
<linearGradient id="paint10_linear" x1="1016.44" y1="423.542" x2="1251.18" y2="-44.309" gradientUnits="userSpaceOnUse">
<stop offset="0.00194311" stop-color="#574DFF"/>
<stop offset="0.1796" stop-color="#6A6DFF"/>
<stop offset="0.4238" stop-color="#8093FF"/>
<stop offset="0.6499" stop-color="#90AFFF"/>
<stop offset="0.8491" stop-color="#9ABFFF"/>
<stop offset="1" stop-color="#9DC5FF"/>
</linearGradient>
<linearGradient id="paint11_linear" x1="186.706" y1="524.94" x2="273.39" y2="338.99" gradientUnits="userSpaceOnUse">
<stop offset="0.00194311" stop-color="#574DFF"/>
<stop offset="0.1796" stop-color="#6A6DFF"/>
<stop offset="0.4238" stop-color="#8093FF"/>
<stop offset="0.6499" stop-color="#90AFFF"/>
<stop offset="0.8491" stop-color="#9ABFFF"/>
<stop offset="1" stop-color="#9DC5FF"/>
</linearGradient>
<linearGradient id="paint12_linear" x1="629.748" y1="184.269" x2="913.948" y2="-255.925" gradientUnits="userSpaceOnUse">
<stop offset="0.00194311" stop-color="#574DFF"/>
<stop offset="0.1796" stop-color="#6A6DFF"/>
<stop offset="0.4238" stop-color="#8093FF"/>
<stop offset="0.6499" stop-color="#90AFFF"/>
<stop offset="0.8491" stop-color="#9ABFFF"/>
<stop offset="1" stop-color="#9DC5FF"/>
</linearGradient>
</defs>
</svg>
