<svg width="1241" height="822" viewBox="0 0 1241 822" fill="none" xmlns="http://www.w3.org/2000/svg">
    <path opacity="0.136606" fill-rule="evenodd" clip-rule="evenodd" d="M1034.56 505.971C940.363 519.21 870.826 578.514 879.247 638.431C887.668 698.347 995.533 836.756 1065.06 722.949C1134.58 609.142 1228.79 650.406 1220.37 590.489C1211.95 530.572 1128.76 492.732 1034.56 505.971Z" fill="#CAD8F1"/>
    <g opacity="0.0970901">
        <path fill-rule="evenodd" clip-rule="evenodd" d="M1107.45 535.306C1093.98 524.682 1072.03 536.348 1058.92 542.148C1053.31 544.621 1026.36 556.941 1029.21 566.844C1032.93 579.864 1052.52 568.654 1060.02 565.621C1069.58 561.745 1079.3 558.154 1088.92 554.439C1094.25 552.382 1101 550.241 1104.76 545.474C1106.78 543.948 1108.35 542.024 1108.87 539.57C1109.24 537.836 1108.84 536.414 1107.45 535.306Z" fill="#EA3663"/>
        <path fill-rule="evenodd" clip-rule="evenodd" d="M1041.06 494.402C1034.8 498.591 1020.31 507.489 1023.44 517.037C1023.96 518.647 1025.02 519.708 1026.79 519.881C1037.11 520.906 1048.65 515.062 1057.85 511.248C1065.48 508.093 1074.52 504.352 1080.22 498.024C1084.77 495.07 1088.6 491.695 1089.68 487.79C1091.81 479.97 1082.9 477.135 1076.43 478.224C1063.95 480.318 1051.38 487.461 1041.06 494.402Z" fill="#EA3663"/>
        <path fill-rule="evenodd" clip-rule="evenodd" d="M1018.78 535.012C1012.13 534.678 1004.88 541.631 999.964 545.049C990.003 551.984 979.284 557.765 969.473 564.799C965.651 567.541 958.923 571.933 960.147 577.479C961.259 582.539 966.931 582.584 970.912 581.285C979.677 578.426 988.816 572.618 996.964 568.353C1005.05 564.114 1016.21 558.36 1020.54 550.163C1020.97 549.351 1021 548.566 1020.86 547.818C1025.35 542.208 1028.09 535.481 1018.78 535.012Z" fill="#EA3663"/>
        <path fill-rule="evenodd" clip-rule="evenodd" d="M936.408 501.203C933.415 505.519 935.238 512.519 941.459 511.969C951.762 511.042 962.156 503.312 971.243 498.879C975.506 496.798 983.768 493.51 986.988 488.564C996.175 483.374 1004.75 476.527 1001.16 469.401C994.307 455.788 965.385 477.626 957.784 482.807C950.202 487.978 941.695 493.546 936.408 501.203Z" fill="#EA3663"/>
        <path fill-rule="evenodd" clip-rule="evenodd" d="M1045.56 446.582C1051.75 444.085 1070.94 437.586 1075.9 429.18C1088.97 424.323 1103.09 417.224 1103 405.977C1102.99 404.543 1102.16 402.727 1100.54 402.418C1087.66 399.904 1075.84 409.318 1064.9 414.755C1053.64 420.356 1030.97 428.417 1027.33 442.07C1024.44 452.873 1041.45 448.243 1045.56 446.582Z" fill="#EA3663"/>
        <path fill-rule="evenodd" clip-rule="evenodd" d="M1125.86 477.991C1129.32 478.13 1132.75 476.607 1136.04 474.651C1137.25 475.592 1138.93 475.869 1140.4 474.522C1151.93 463.967 1172.96 458.542 1179.77 443.411C1180.46 441.861 1179.5 440.219 1178.35 439.269C1171.63 433.733 1161.34 439.656 1154.92 442.968C1144.1 448.55 1131.29 456.513 1122.76 465.388C1118.69 469.642 1118.64 477.705 1125.86 477.991Z" fill="#EA3663"/>
        <path fill-rule="evenodd" clip-rule="evenodd" d="M865.175 584.116C866.292 589.385 872.731 588.163 876.305 586.932C885.983 583.593 895.326 577.773 904.036 572.476C911.788 567.766 920.554 563.503 927.04 557.031C928.473 555.799 929.767 554.428 930.837 552.843C934.122 547.909 929.888 542.733 925.114 541.567C907.861 537.332 887.044 557.889 875.7 567.989C871.456 571.758 863.742 577.372 865.175 584.116Z" fill="#EA3663"/>
        <path fill-rule="evenodd" clip-rule="evenodd" d="M1149.58 495.691C1144.13 493.333 1137.25 497.552 1132.64 500.177C1129.66 501.89 1126.77 503.834 1123.94 505.805C1121.18 507.702 1117.87 509.093 1115.65 511.663C1111.61 516.342 1115.54 523.489 1121.45 522.974C1125.69 522.596 1129.71 520.045 1133.32 517.263C1136.61 515.78 1139.72 513.671 1142.54 511.736C1146.58 508.946 1151.74 504.718 1152 499.311C1152.06 497.598 1151.04 496.327 1149.58 495.691Z" fill="#EA3663"/>
        <path fill-rule="evenodd" clip-rule="evenodd" d="M961.06 446.58C969.525 444.074 977.322 437.85 983.551 431.523C984.397 430.65 984.683 429.627 984.62 428.641C985.547 427.618 986.491 426.632 987.481 425.778C990.965 422.783 997.826 417.414 995.545 411.716C991.66 402.047 973.624 413.978 968.83 416.803C963.359 420.014 958.395 423.975 953.566 428.162C950.277 431.016 940.689 437.887 943.514 443.839C946.383 449.856 956.319 447.979 961.06 446.58Z" fill="#EA3663"/>
    </g>
    <g opacity="0.0970901">
        <path fill-rule="evenodd" clip-rule="evenodd" d="M242.447 290.306C228.975 279.682 207.026 291.348 193.925 297.148C188.31 299.621 161.357 311.941 164.211 321.844C167.926 334.864 187.522 323.654 195.018 320.621C204.58 316.745 214.299 313.154 223.917 309.439C229.253 307.382 235.999 305.241 239.76 300.474C241.78 298.948 243.346 297.024 243.874 294.57C244.235 292.836 243.837 291.414 242.447 290.306Z" fill="#EA3663"/>
        <path fill-rule="evenodd" clip-rule="evenodd" d="M176.056 249.402C169.801 253.591 155.312 262.489 158.435 272.037C158.962 273.647 160.025 274.708 161.79 274.881C172.111 275.906 183.652 270.062 192.855 266.248C200.478 263.093 209.524 259.352 215.216 253.024C219.771 250.07 223.596 246.695 224.677 242.79C226.812 234.97 217.895 232.135 211.427 233.224C198.953 235.318 186.377 242.461 176.056 249.402Z" fill="#EA3663"/>
        <path fill-rule="evenodd" clip-rule="evenodd" d="M153.784 290.012C147.131 289.678 139.879 296.631 134.964 300.049C125.003 306.984 114.284 312.765 104.473 319.799C100.651 322.541 93.9226 326.933 95.1467 332.479C96.2587 337.539 101.931 337.584 105.912 336.285C114.677 333.426 123.816 327.618 131.964 323.353C140.047 319.114 151.214 313.36 155.541 305.163C155.971 304.351 155.999 303.566 155.859 302.818C160.353 297.208 163.091 290.481 153.784 290.012Z" fill="#EA3663"/>
        <path fill-rule="evenodd" clip-rule="evenodd" d="M71.4078 256.203C68.4149 260.519 70.2378 267.519 76.4594 266.969C86.7623 266.042 97.1559 258.312 106.243 253.879C110.506 251.798 118.768 248.51 121.988 243.564C131.175 238.374 139.755 231.527 136.163 224.401C129.307 210.788 100.385 232.626 92.7844 237.807C85.2024 242.978 76.6953 248.546 71.4078 256.203Z" fill="#EA3663"/>
        <path fill-rule="evenodd" clip-rule="evenodd" d="M180.558 201.582C186.75 199.085 205.94 192.586 210.905 184.18C223.967 179.323 238.091 172.224 238 160.977C237.99 159.543 237.157 157.727 235.545 157.418C222.657 154.904 210.84 164.318 199.904 169.755C188.637 175.356 165.966 183.417 162.33 197.07C159.435 207.873 176.445 203.243 180.558 201.582Z" fill="#EA3663"/>
        <path fill-rule="evenodd" clip-rule="evenodd" d="M260.859 232.991C264.316 233.13 267.746 231.607 271.037 229.651C272.245 230.592 273.932 230.869 275.398 229.522C286.932 218.967 307.963 213.542 314.767 198.411C315.458 196.861 314.5 195.219 313.347 194.269C306.626 188.733 296.337 194.656 289.92 197.968C279.096 203.55 266.289 211.513 257.761 220.388C253.695 224.642 253.64 232.705 260.859 232.991Z" fill="#EA3663"/>
        <path fill-rule="evenodd" clip-rule="evenodd" d="M0.175003 339.116C1.2917 344.385 7.73133 343.163 11.3048 341.932C20.9828 338.593 30.3259 332.773 39.0361 327.476C46.7879 322.766 55.5539 318.503 62.0401 312.031C63.4732 310.799 64.7667 309.428 65.8369 307.843C69.1218 302.909 64.8877 297.733 60.1138 296.567C42.8608 292.332 22.0437 312.889 10.6999 322.989C6.45643 326.758 -1.25809 332.372 0.175003 339.116Z" fill="#EA3663"/>
        <path fill-rule="evenodd" clip-rule="evenodd" d="M284.577 250.691C279.132 248.333 272.25 252.552 267.645 255.177C264.656 256.89 261.775 258.834 258.939 260.805C256.176 262.702 252.871 264.093 250.649 266.663C246.612 271.342 250.541 278.489 256.447 277.974C260.691 277.596 264.71 275.045 268.322 272.263C271.609 270.78 274.716 268.671 277.542 266.736C281.579 263.946 286.735 259.718 286.997 254.311C287.06 252.598 286.04 251.327 284.577 250.691Z" fill="#EA3663"/>
        <path fill-rule="evenodd" clip-rule="evenodd" d="M96.0597 201.58C104.525 199.074 112.322 192.85 118.551 186.523C119.397 185.65 119.683 184.627 119.62 183.641C120.547 182.618 121.491 181.632 122.481 180.778C125.965 177.783 132.826 172.414 130.545 166.716C126.66 157.047 108.624 168.978 103.83 171.803C98.3587 175.014 93.3953 178.975 88.5655 183.162C85.2774 186.016 75.6892 192.887 78.514 198.839C81.3833 204.856 91.319 202.979 96.0597 201.58Z" fill="#EA3663"/>
    </g>
    <path opacity="0.137851" fill-rule="evenodd" clip-rule="evenodd" d="M642.703 73.2694C389.572 33.1774 163.696 131.2 138.194 292.209C112.693 453.218 281.58 894.795 550.355 656.335C819.129 417.875 1029.36 598.404 1054.86 437.395C1080.37 276.386 895.835 113.361 642.703 73.2694Z" fill="#B7C6E0"/>
</svg>
