<svg width="1132" height="1014" viewBox="0 0 1132 1014" fill="none" xmlns="http://www.w3.org/2000/svg">
<path opacity="0.106714" fill-rule="evenodd" clip-rule="evenodd" d="M691.36 268.818C569.478 211.984 441.376 228.741 405.234 306.246C369.093 383.752 390.436 630.862 560.481 549.49C730.525 468.117 810.465 589.567 846.606 512.061C882.748 434.556 813.241 325.652 691.36 268.818Z" fill="#9DB2D7"/>
<path opacity="0.265455" fill-rule="evenodd" clip-rule="evenodd" d="M925.655 574.492C937.171 580.075 657.898 583.717 417.521 581.175C177.145 578.634 66.8713 568.709 181.575 563.421C296.279 558.132 914.14 568.908 925.655 574.492Z" fill="#212D5F"/>
<path fill-rule="evenodd" clip-rule="evenodd" d="M502 405.999C502 455.708 515.433 496 531.999 496C548.569 496 562 455.708 562 405.999C562 356.294 548.569 316 531.999 316C515.433 316 502 356.294 502 405.999Z" fill="#B7C6E0"/>
<path fill-rule="evenodd" clip-rule="evenodd" d="M615.025 328.108H626.421V295.833H651.525V312.803H659.364V328.108V341.086V461.87H627.406V480.833H576.727V381.011H615.025V328.108Z" fill="#B7C6E0"/>
<path fill-rule="evenodd" clip-rule="evenodd" d="M700.67 313.935H706.479V302H719.548V335.486H736.974V344.768H742V475.948H736.974V487H696.091V344.768V335.486V320.399H700.67V313.935Z" fill="#B7C6E0"/>
<path fill-rule="evenodd" clip-rule="evenodd" d="M471.642 265H477.783V298.569H481.658V289.927H491.03V465.417H486.347H481.658H477.783H471.642H470.671V464.533H439L471.642 265Z" fill="#B7C6E0"/>
<path fill-rule="evenodd" clip-rule="evenodd" d="M1007.69 490.031C1008.04 491.457 1008.06 492.882 1008.02 494.306L1035.72 497.33V487.425C1033.98 490.255 1031.4 493.516 1028.21 494.762C1027.32 495.113 1026.42 495.287 1025.53 495.287C1024.59 495.287 1023.65 495.062 1022.72 494.672C1022.33 494.829 1021.64 495.043 1020.6 495.043C1019.79 495.043 1018.79 494.91 1017.62 494.505C1011.21 492.289 1000.98 482.695 987.812 450.34V490.031H972.976C973.113 489.345 973.187 488.637 973.187 487.907V485.785C973.187 479.854 968.374 475.048 962.437 475.048C956.501 475.048 951.688 479.854 951.688 485.785V487.907C951.688 488.412 951.733 488.902 951.801 489.386C957.804 489.562 963.81 489.739 969.813 490.031C982.562 490.405 994.937 490.031 1007.69 490.031ZM1023.44 492.953V493.377C1024.84 493.93 1026.23 493.927 1027.66 493.369C1031.33 491.938 1034.23 487.235 1035.72 484.366V483.406C1031.48 490.183 1025.37 492.403 1023.44 492.953ZM1021.94 492.06C1008.14 486.873 992.79 454.937 987.812 443.851V446.294C1002.09 482.548 1012.79 491.163 1017.97 493.041C1020 493.775 1021.34 493.559 1021.94 493.371V492.06ZM894.061 406.198H894.057V408.781L942.437 425.378V423.564L942.432 423.547C942.321 423.216 942.21 422.901 942.118 422.569L894.061 406.198ZM920.749 400.338L920.74 400.334V401.583L920.749 401.587V400.338ZM916.992 398.596L917.979 399.052L916.992 398.594V398.596ZM799.48 431.246C787.137 439.528 774.476 446.405 761.72 451.811C774.024 448.563 787.693 444.247 801.229 438.603C807.457 433.248 822.969 416.642 832.051 406.789V405.306C824.588 412.316 813.474 421.856 799.48 431.246ZM824.429 442.966C827.139 440.918 829.671 438.836 832.051 436.749V425.89C825.862 429.769 819.12 433.43 811.828 436.85C796.014 444.272 777.63 450.606 757.189 455.684C751.15 457.185 745.301 458.476 739.726 459.6C725.595 463.643 711.449 465.82 697.458 466.107C697.607 466.638 697.697 467.186 697.717 467.755L697.802 467.833C760.202 479.201 801.095 460.594 824.429 442.966ZM832.051 410.663C825.011 418.282 815.256 428.696 808.368 435.496C816.541 431.769 824.534 427.515 832.051 422.708V410.663ZM927.436 481.417V488.373C932.437 488.682 937.437 488.909 942.437 489.08V436.004L894.057 420.833V481.417H927.436ZM863.402 481.417C863.496 480.816 863.533 480.197 863.533 479.578V476.35C863.533 472.879 862.124 469.764 859.852 467.494C858.856 466.499 857.71 465.693 856.452 465.092C852.263 467.1 849.37 471.397 849.37 476.35V479.578C849.37 480.197 849.408 480.816 849.52 481.417H863.402ZM667 475.795L819.686 481.415V481.417H832.051V440.209C830.165 441.81 828.195 443.403 826.117 444.975C810.957 456.453 793.689 464.647 774.792 469.323C762.269 472.423 749.013 473.973 735.13 473.973C722.976 473.973 710.34 472.783 697.3 470.404C696.203 473.525 693.061 475.795 689.308 475.795C684.649 475.795 680.872 472.316 680.872 468.023C680.872 463.73 684.649 460.251 689.308 460.251C692.12 460.251 694.592 461.531 696.126 463.476C702.75 462.867 718.823 461.125 738.727 457.132C762.597 450.319 782.942 439.175 797.955 429.112C813.029 419.002 824.722 408.725 832.051 401.69V373.148H832.061L836.967 356.486L841.116 373.148H843.273L847 368.846V362.62L849.748 361.541L857.498 345.184L867.499 342.31L869.48 346.429L871.374 340L876.03 358.702L879.436 358.858L882.25 354.422L885.422 363.965L889.28 350.866L893.543 367.981L894.061 368.238V374.372H894.057V390.804L894.061 390.805L916.598 399.923V398.011L921.106 400.112V401.728L921.11 401.73L938.848 408.913C938.866 408.746 938.866 408.56 938.866 408.395C938.735 407.785 938.958 407.196 939.494 406.697C940.215 406.031 941.378 405.7 942.118 405.94C943.226 406.31 944.851 407.434 944.872 408.708C945.202 409.723 945.386 410.663 945.48 411.587L950.484 413.615L958.999 396.451L967.249 395.256L972.154 403.843L974.188 396.451L978.499 408.939H978.251L979.761 409.727L982.25 400.688L986.563 413.174H986.375V415.671H987.812V440.119C990.107 445.435 1008.03 485.931 1022.92 490.819L1023.44 490.986V491.377C1025.7 490.635 1031.68 488.085 1035.34 481.07L1035.72 481.269V480.291H1042V509.229H1035.72V500.761L1011.91 501.472C1014.22 502.798 1016.51 504.121 1018.19 506.512C1018.56 507.264 1018.94 508.013 1018.94 508.762C1018.94 511.758 1019.31 515.13 1018.56 518.127C1001.69 517.751 984.436 518.502 967.563 517.751C954.437 517.376 940.936 516.254 927.812 516.254C927.667 515.19 927.56 514.109 927.436 513.036V526H810.149V491.81L667 488.905V475.795Z" fill="#B7C6E0"/>
<path fill-rule="evenodd" clip-rule="evenodd" d="M763 430H761V421H763V430Z" fill="#B7C6E0"/>
<path fill-rule="evenodd" clip-rule="evenodd" d="M769 430H767V421H769V430Z" fill="#B7C6E0"/>
<path fill-rule="evenodd" clip-rule="evenodd" d="M773 430H771V421H773V430Z" fill="#B7C6E0"/>
<path fill-rule="evenodd" clip-rule="evenodd" d="M778 430H776V421H778V430Z" fill="#B7C6E0"/>
<path fill-rule="evenodd" clip-rule="evenodd" d="M783 430H781V421H783V430Z" fill="#B7C6E0"/>
<path fill-rule="evenodd" clip-rule="evenodd" d="M787 430H785V421H787V430Z" fill="#B7C6E0"/>
<path fill-rule="evenodd" clip-rule="evenodd" d="M793 430H791V421H793V430Z" fill="#B7C6E0"/>
<path fill-rule="evenodd" clip-rule="evenodd" d="M761 485.858V478H763V485.858C763 486.486 762.55 487 762 487H761.998C761.448 486.998 761 486.484 761 485.858Z" fill="#B7C6E0"/>
<path fill-rule="evenodd" clip-rule="evenodd" d="M767 485.858V478H769V485.858C769 486.486 768.55 487 768 487H767.997C767.448 486.998 767 486.484 767 485.858Z" fill="#B7C6E0"/>
<path fill-rule="evenodd" clip-rule="evenodd" d="M771 485.858V478H773V485.858C773 486.486 772.55 487 772 487H771.997C771.432 486.998 771 486.484 771 485.858Z" fill="#B7C6E0"/>
<path fill-rule="evenodd" clip-rule="evenodd" d="M776 485.858V478H778V485.858C778 486.486 777.554 487 776.992 487H776.988C776.445 486.998 776 486.484 776 485.858Z" fill="#B7C6E0"/>
<path fill-rule="evenodd" clip-rule="evenodd" d="M781 485.858V478H783V485.858C783 486.486 782.563 487 781.992 487H781.988C781.435 486.998 781 486.484 781 485.858Z" fill="#B7C6E0"/>
<path fill-rule="evenodd" clip-rule="evenodd" d="M785 485.858V478H787V485.858C787 486.486 786.567 487 786 487H785.998C785.448 486.998 785 486.484 785 485.858Z" fill="#B7C6E0"/>
<path fill-rule="evenodd" clip-rule="evenodd" d="M791 485.858V478H793V485.858C793 486.486 792.567 487 792 487H791.997C791.448 486.998 791 486.484 791 485.858Z" fill="#B7C6E0"/>
<path fill-rule="evenodd" clip-rule="evenodd" d="M793 475H791V466H793V475Z" fill="#B7C6E0"/>
<path fill-rule="evenodd" clip-rule="evenodd" d="M785 475V466H786.993H787V475H786.993H785Z" fill="#B7C6E0"/>
<path fill-rule="evenodd" clip-rule="evenodd" d="M783 475H781V466H783V475Z" fill="#B7C6E0"/>
<path fill-rule="evenodd" clip-rule="evenodd" d="M778 475H776V466H778V475Z" fill="#B7C6E0"/>
<path fill-rule="evenodd" clip-rule="evenodd" d="M773 475H771V466H773V475Z" fill="#B7C6E0"/>
<path fill-rule="evenodd" clip-rule="evenodd" d="M769 475H767V466H769V475Z" fill="#B7C6E0"/>
<path fill-rule="evenodd" clip-rule="evenodd" d="M763 475H761V466H763V475Z" fill="#B7C6E0"/>
<path fill-rule="evenodd" clip-rule="evenodd" d="M762.995 433H763V466H762.995H761V433H762.995Z" fill="#B7C6E0"/>
<path fill-rule="evenodd" clip-rule="evenodd" d="M769 466H767V433H769V466Z" fill="#B7C6E0"/>
<path fill-rule="evenodd" clip-rule="evenodd" d="M773 466H771V433H773V466Z" fill="#B7C6E0"/>
<path fill-rule="evenodd" clip-rule="evenodd" d="M778 466H776V433H778V466Z" fill="#B7C6E0"/>
<path fill-rule="evenodd" clip-rule="evenodd" d="M781 466V433H783V466H782.995H781Z" fill="#B7C6E0"/>
<path fill-rule="evenodd" clip-rule="evenodd" d="M787 466H785V433H787V466Z" fill="#B7C6E0"/>
<path fill-rule="evenodd" clip-rule="evenodd" d="M793 466H791V433H793V466Z" fill="#B7C6E0"/>
<path fill-rule="evenodd" clip-rule="evenodd" d="M776.5 301.041C779.004 301.041 781.044 299.003 781.044 296.497C781.044 293.991 779.004 291.954 776.5 291.954C773.996 291.954 771.956 293.991 771.956 296.497C771.956 299.003 773.996 301.041 776.5 301.041ZM776.492 283C783.95 283 790 289.034 790 296.491C790 303.948 783.95 310 776.492 310C769.052 310 763 303.948 763 296.491C763 289.034 769.052 283 776.492 283Z" fill="#B7C6E0"/>
<path fill-rule="evenodd" clip-rule="evenodd" d="M776.999 295C777.553 295 778 295.45 778 295.999C778 296.55 777.553 297 776.999 297C776.447 297 776 296.55 776 295.999C776 295.45 776.447 295 776.999 295Z" fill="#B7C6E0"/>
<path fill-rule="evenodd" clip-rule="evenodd" d="M767.357 227.652C767.357 228.151 767.746 228.552 768.214 228.552C768.68 228.552 769.053 228.151 769.053 227.652V217.357C769.053 216.841 768.68 216.442 768.214 216.442C767.746 216.442 767.357 216.841 767.357 217.357V227.652ZM770.874 227.652C770.874 228.151 771.263 228.552 771.729 228.552C772.197 228.552 772.57 228.151 772.57 227.652V217.357C772.57 216.841 772.197 216.442 771.729 216.442C771.263 216.442 770.874 216.841 770.874 217.357V227.652ZM774.391 227.652C774.391 228.151 774.781 228.552 775.247 228.552C775.713 228.552 776.088 228.151 776.088 227.652V217.357C776.088 216.841 775.713 216.442 775.247 216.442C774.781 216.442 774.391 216.841 774.391 217.357V227.652ZM777.907 227.652C777.907 228.151 778.298 228.552 778.764 228.552C779.232 228.552 779.621 228.151 779.621 227.652V217.357C779.621 216.841 779.232 216.442 778.764 216.442C778.298 216.442 777.907 216.841 777.907 217.357V227.652ZM781.44 227.652C781.44 228.151 781.813 228.552 782.281 228.552C782.747 228.552 783.137 228.151 783.137 227.652V217.357C783.137 216.841 782.747 216.442 782.281 216.442C781.813 216.442 781.44 216.841 781.44 217.357V227.652ZM786.263 213.079H785.83V232H764.665V213.079H763.737C763.33 213.079 763 212.728 763 212.292C763 211.857 763.33 211.504 763.737 211.504H764.979C770.467 202.031 773.634 179.981 774.943 168.717C775.057 167.719 775.161 166.81 775.244 166C775.332 166.81 775.434 167.719 775.547 168.717C776.857 179.981 780.024 202.031 785.512 211.504H786.263C786.668 211.504 787 211.857 787 212.292C787 212.728 786.668 213.079 786.263 213.079Z" fill="#B7C6E0"/>
<path fill-rule="evenodd" clip-rule="evenodd" d="M760.538 477.166H760.544H762.805V467.864H760.544H760.538V477.166ZM760.538 486.525C760.538 487.149 761.047 487.66 761.668 487.66H761.672H761.676C762.297 487.66 762.805 487.149 762.805 486.525V478.717H760.544H760.538V486.525ZM766.337 487.66H766.341H766.343C766.966 487.66 767.474 487.149 767.474 486.525V478.717H765.213H765.207V486.525C765.207 487.149 765.716 487.66 766.337 487.66ZM771.025 487.66H771.029H771.032C771.654 487.66 772.162 487.149 772.162 486.525V478.717H769.903H769.895V486.525C769.895 487.149 770.385 487.66 771.025 487.66ZM775.675 487.66H775.679H775.681C776.323 487.66 776.831 487.149 776.831 486.525V478.717H774.551H774.545V486.525C774.545 487.149 775.054 487.66 775.675 487.66ZM780.344 487.66H780.348H780.35C780.992 487.66 781.481 487.149 781.481 486.525V478.717H779.241H779.233V486.525C779.233 487.149 779.723 487.66 780.344 487.66ZM785.032 487.66H785.035H785.039C785.679 487.66 786.169 487.149 786.169 486.525V478.717H783.91H783.902V486.525C783.902 487.149 784.41 487.66 785.032 487.66ZM789.701 487.66H789.704H789.708C790.346 487.66 790.838 487.149 790.838 486.525V478.717H788.579H788.571V486.525C788.571 487.149 789.079 487.66 789.701 487.66ZM790.838 467.864H788.579H788.571V477.166H788.579H790.838V467.864ZM790.838 434.021H788.579H788.571V466.315H788.579H790.838V434.021ZM790.83 432.469H788.571V423.166H790.83V432.469ZM790.83 421.616H788.571V391.294H790.83V421.616ZM790.83 389.744H788.571V386.117H790.83V389.744ZM790.83 384.563H788.571V354.248H790.83V384.563ZM790.83 352.694H788.571V349.068H790.83V352.694ZM790.83 323.751C790.83 323.127 790.341 322.618 789.701 322.618C789.079 322.618 788.571 323.127 788.571 323.751V347.514H790.83V323.751ZM762.798 347.514V323.751C762.798 323.127 762.289 322.618 761.668 322.618C761.047 322.618 760.538 323.127 760.538 323.751V347.514H762.798ZM762.798 352.694H760.538V349.068H762.798V352.694ZM762.798 384.563H760.538V354.248H762.798V384.563ZM762.798 389.744H760.538V386.117H762.798V389.744ZM762.798 421.616H760.538V391.294H762.798V421.616ZM762.798 432.469H760.538V423.166H762.798V432.469ZM765.213 466.315H767.474V434.021H765.213H765.207V466.315H765.213ZM767.474 467.864H765.213H765.207V477.166H765.213H767.474V467.864ZM772.162 467.864H769.903H769.895V477.166H769.903H772.162V467.864ZM776.831 467.864H774.551H774.545V477.166H774.551H776.831V467.864ZM781.481 467.864H779.241H779.233V477.166H779.241H781.481V467.864ZM786.161 421.616H783.902V391.294H786.161V421.616ZM786.161 389.744H783.902V386.117H786.161V389.744ZM786.161 384.563H783.902V354.248H786.161V384.563ZM786.161 352.694H783.902V349.068H786.161V352.694ZM783.902 347.514H786.161V323.751C786.161 323.127 785.672 322.618 785.032 322.618C784.41 322.618 783.902 323.127 783.902 323.751V347.514ZM779.233 347.514H781.473V323.751C781.473 323.127 780.984 322.618 780.344 322.618C779.723 322.618 779.233 323.127 779.233 323.751V347.514ZM774.545 347.514H776.823V323.751C776.823 323.127 776.315 322.618 775.675 322.618C775.054 322.618 774.545 323.127 774.545 323.751V347.514ZM769.895 347.514H772.154V323.751C772.154 323.127 771.646 322.618 771.025 322.618C770.385 322.618 769.895 323.127 769.895 323.751V347.514ZM767.467 389.744H765.207V386.117H767.467V389.744ZM767.467 421.616H765.207V391.294H767.467V421.616ZM772.154 432.469H769.895V423.166H772.154V432.469ZM772.162 434.021H769.903H769.895V466.315H769.903H772.162V434.021ZM776.831 434.021H774.551H774.545V466.315H774.551H776.831V434.021ZM781.473 421.616H779.233V391.294H781.473V421.616ZM781.473 389.744H779.233V386.117H781.473V389.744ZM781.473 384.563H779.233V354.248H781.473V384.563ZM781.473 352.694H779.233V349.068H781.473V352.694ZM776.823 352.694H774.545V349.068H776.823V352.694ZM772.154 352.694H769.895V349.068H772.154V352.694ZM772.154 384.563H769.895V354.248H772.154V384.563ZM772.154 389.744H769.895V386.117H772.154V389.744ZM772.154 421.616H769.895V391.294H772.154V421.616ZM776.823 384.563H774.545V354.248H776.823V384.563ZM776.823 389.744H774.545V386.117H776.823V389.744ZM776.823 421.616H774.545V391.294H776.823V421.616ZM776.823 432.469H774.545V423.166H776.823V432.469ZM781.473 432.469H779.233V423.166H781.473V432.469ZM781.481 434.021H779.241H779.233V466.315H779.241H781.473H781.481V434.021ZM767.467 432.469H765.207V423.166H767.467V432.469ZM767.467 384.563H765.207V354.248H767.467V384.563ZM767.467 352.694H765.207V349.068H767.467V352.694ZM765.207 347.514H767.467V323.751C767.467 323.127 766.958 322.618 766.337 322.618C765.716 322.618 765.207 323.127 765.207 323.751V347.514ZM786.161 432.469H783.902V423.166H786.161V432.469ZM786.169 434.021H783.91H783.902V466.315H783.91H786.169V434.021ZM786.169 467.864H786.161H783.91H783.902V477.166H783.91H786.161H786.169V467.864ZM760.538 466.315H760.544H762.798H762.805V434.021H762.798H760.544H760.538V466.315ZM792.449 313.711H758.656V279.791H792.449V313.711ZM762.803 267.391V261.301C762.803 260.677 762.297 260.168 761.676 260.168C761.052 260.168 760.546 260.677 760.546 261.301V267.391C760.546 268.015 761.052 268.524 761.676 268.524C762.297 268.524 762.803 268.015 762.803 267.391ZM767.478 267.391V261.301C767.478 260.677 766.971 260.168 766.35 260.168C765.729 260.168 765.222 260.677 765.222 261.301V267.391C765.222 268.015 765.729 268.524 766.35 268.524C766.971 268.524 767.478 268.015 767.478 267.391ZM772.152 267.391V261.301C772.152 260.677 771.646 260.168 771.025 260.168C770.387 260.168 769.897 260.677 769.897 261.301V267.391C769.897 268.015 770.387 268.524 771.025 268.524C771.646 268.524 772.152 268.015 772.152 267.391ZM776.829 267.391V261.301C776.829 260.677 776.321 260.168 775.682 260.168C775.063 260.168 774.557 260.677 774.557 261.301V267.391C774.557 268.015 775.063 268.524 775.682 268.524C776.321 268.524 776.829 268.015 776.829 267.391ZM781.487 267.391V261.301C781.487 260.677 780.997 260.168 780.359 260.168C779.738 260.168 779.231 260.677 779.231 261.301V267.391C779.231 268.015 779.738 268.524 780.359 268.524C780.997 268.524 781.487 268.015 781.487 267.391ZM786.161 267.391V261.301C786.161 260.677 785.672 260.168 785.034 260.168C784.412 260.168 783.906 260.677 783.906 261.301V267.391C783.906 268.015 784.412 268.524 785.034 268.524C785.672 268.524 786.161 268.015 786.161 267.391ZM790.836 267.391V261.301C790.836 260.677 790.346 260.168 789.708 260.168C789.089 260.168 788.58 260.677 788.58 261.301V267.391C788.58 268.015 789.089 268.524 789.708 268.524C790.346 268.524 790.836 268.015 790.836 267.391ZM748.778 467.864C748.365 467.864 748.008 467.523 748.008 467.089C748.008 466.654 748.365 466.315 748.778 466.315H749.374V434.021H748.772C748.358 434.021 748 433.679 748 433.246C748 432.809 748.358 432.469 748.772 432.469H749.374V423.166H748.791C748.358 423.166 748.019 422.807 748.019 422.391C748.019 421.956 748.358 421.616 748.791 421.616H749.374V391.294H748.785C748.36 391.294 748.011 390.948 748.011 390.519C748.011 390.09 748.36 389.744 748.785 389.744H749.374V386.117H748.785C748.36 386.117 748.011 385.769 748.011 385.342C748.011 384.911 748.36 384.563 748.785 384.563H749.374V354.248H748.785C748.36 354.248 748.011 353.901 748.011 353.471C748.011 353.042 748.36 352.694 748.785 352.694H749.374V349.068H748.785C748.36 349.068 748.011 348.72 748.011 348.293C748.011 347.861 748.36 347.514 748.785 347.514H749.374V321.096H748.785C748.36 321.096 748.011 320.748 748.011 320.319C748.011 319.89 748.36 319.542 748.785 319.542H749.374V271.626H748.785C748.36 271.626 748.011 271.278 748.011 270.849C748.011 270.422 748.36 270.074 748.785 270.074H753.895V257.381H752.741C752.313 257.381 751.967 257.035 751.967 256.604C751.967 256.177 752.313 255.829 752.741 255.829H754.218L763.959 232H786.395L796.761 255.829H798.127C798.557 255.829 798.901 256.177 798.901 256.604C798.901 257.035 798.557 257.381 798.127 257.381H797.098V270.074H801.224C801.652 270.074 801.996 270.422 801.996 270.849C801.996 271.278 801.652 271.626 801.224 271.626H800.959V319.542H801.224C801.652 319.542 801.996 319.89 801.996 320.319C801.996 320.748 801.652 321.096 801.224 321.096H800.959V347.514H801.224C801.652 347.514 801.996 347.861 801.996 348.293C801.996 348.72 801.652 349.068 801.224 349.068H800.959V352.694H801.224C801.652 352.694 801.996 353.042 801.996 353.471C801.996 353.901 801.652 354.248 801.224 354.248H800.959V384.563H801.224C801.652 384.563 801.996 384.911 801.996 385.342C801.996 385.769 801.652 386.117 801.224 386.117H800.959V389.744H801.224C801.652 389.744 801.996 390.09 801.996 390.519C801.996 390.948 801.652 391.294 801.224 391.294H800.959V421.616H801.222C801.655 421.616 801.994 421.956 801.994 422.391C801.994 422.807 801.655 423.166 801.222 423.166H800.959V432.469H801.222C801.637 432.469 801.994 432.809 801.994 433.246C801.994 433.679 801.637 434.021 801.222 434.021H800.959V466.315H801.23C801.642 466.315 802 466.654 802 467.089C802 467.523 801.642 467.864 801.23 467.864H800.959V477.166H801.23C801.642 477.166 802 477.508 802 477.941C802 478.378 801.642 478.717 801.23 478.717H800.959V505H749.374V478.717H748.778C748.365 478.717 748.008 478.378 748.008 477.941C748.008 477.508 748.365 477.166 748.778 477.166H749.374V467.864H748.778Z" fill="#B7C6E0"/>
<path fill-rule="evenodd" clip-rule="evenodd" d="M316.001 257.9C376.158 257.9 425.1 306.842 425.1 366.999C425.1 427.16 376.158 476.1 316.001 476.1C255.844 476.1 206.898 427.16 206.898 366.999C206.898 306.842 255.844 257.9 316.001 257.9ZM316.001 481C378.86 481 430 429.86 430 366.999C430 304.14 378.86 253 316.001 253C253.14 253 202 304.14 202 366.999C202 429.86 253.14 481 316.001 481Z" fill="#B7C6E0"/>
<path fill-rule="evenodd" clip-rule="evenodd" d="M317.5 268.301C372.751 268.301 417.699 313.25 417.699 368.5C417.699 423.75 372.751 468.699 317.5 468.699C262.247 468.699 217.293 423.75 217.293 368.5C217.293 313.25 262.247 268.301 317.5 268.301ZM317.5 472C374.569 472 421 425.57 421 368.5C421 311.43 374.569 265 317.5 265C260.429 265 214 311.43 214 368.5C214 425.57 260.429 472 317.5 472Z" fill="#B7C6E0"/>
<path fill-rule="evenodd" clip-rule="evenodd" d="M314 246.499C314 247.879 315.117 249 316.5 249C317.88 249 319 247.879 319 246.499C319 245.12 317.88 244 316.5 244C315.117 244 314 245.12 314 246.499Z" fill="#B7C6E0"/>
<path fill-rule="evenodd" clip-rule="evenodd" d="M316 253H313V250H316V253Z" fill="#B7C6E0"/>
<path fill-rule="evenodd" clip-rule="evenodd" d="M314 366.501C314 367.88 315.121 369 316.503 369C317.883 369 319 367.88 319 366.501C319 365.119 317.883 364 316.503 364C315.121 364 314 365.119 314 366.501Z" fill="#B7C6E0"/>
<path fill-rule="evenodd" clip-rule="evenodd" d="M319 370H316V367H319V370Z" fill="#B7C6E0"/>
<path fill-rule="evenodd" clip-rule="evenodd" d="M338.049 249.014C337.779 250.366 338.661 251.683 340.014 251.952C341.365 252.22 342.683 251.342 342.952 249.988C343.22 248.634 342.342 247.318 340.987 247.048C339.633 246.78 338.32 247.658 338.049 249.014Z" fill="#B7C6E0"/>
<path fill-rule="evenodd" clip-rule="evenodd" d="M337.411 250L340 250.601L339.593 253L337 252.4L337.411 250Z" fill="#B7C6E0"/>
<path fill-rule="evenodd" clip-rule="evenodd" d="M359.192 254.545C358.662 255.817 359.269 257.28 360.544 257.809C361.817 258.338 363.281 257.731 363.807 256.455C364.339 255.179 363.733 253.719 362.457 253.191C361.18 252.663 359.718 253.268 359.192 254.545Z" fill="#B7C6E0"/>
<path fill-rule="evenodd" clip-rule="evenodd" d="M357.242 256L361 257.028L359.756 259L356 257.973L357.242 256Z" fill="#B7C6E0"/>
<path fill-rule="evenodd" clip-rule="evenodd" d="M380.422 266.112C379.656 267.258 379.961 268.811 381.11 269.58C382.259 270.345 383.812 270.035 384.578 268.889C385.346 267.74 385.036 266.189 383.891 265.42C382.741 264.655 381.19 264.964 380.422 266.112Z" fill="#B7C6E0"/>
<path fill-rule="evenodd" clip-rule="evenodd" d="M378.736 268L382 270.284L380.264 273L377 270.714L378.736 268Z" fill="#B7C6E0"/>
<path fill-rule="evenodd" clip-rule="evenodd" d="M398.731 277.733C397.756 278.706 397.756 280.291 398.731 281.268C399.709 282.244 401.292 282.244 402.267 281.268C403.243 280.29 403.245 278.706 402.269 277.731C401.291 276.756 399.712 276.756 398.731 277.733Z" fill="#B7C6E0"/>
<path fill-rule="evenodd" clip-rule="evenodd" d="M397.214 283L400 285.787L397.787 288L395 285.214L397.214 283Z" fill="#B7C6E0"/>
<path fill-rule="evenodd" clip-rule="evenodd" d="M414.11 295.423C412.963 296.188 412.656 297.74 413.42 298.889C414.19 300.035 415.742 300.346 416.887 299.579C418.037 298.808 418.346 297.257 417.577 296.111C416.81 294.962 415.259 294.654 414.11 295.423Z" fill="#B7C6E0"/>
<path fill-rule="evenodd" clip-rule="evenodd" d="M412.718 297L415 300.269L412.286 302L410 298.735L412.718 297Z" fill="#B7C6E0"/>
<path fill-rule="evenodd" clip-rule="evenodd" d="M426.543 316.191C425.269 316.717 424.663 318.18 425.19 319.458C425.719 320.734 427.18 321.336 428.456 320.809C429.733 320.278 430.336 318.819 429.81 317.544C429.279 316.266 427.822 315.663 426.543 316.191Z" fill="#B7C6E0"/>
<path fill-rule="evenodd" clip-rule="evenodd" d="M422.973 319L424 322.763L422.031 324L421 320.237L422.973 319Z" fill="#B7C6E0"/>
<path fill-rule="evenodd" clip-rule="evenodd" d="M433.012 340.049C431.661 340.317 430.78 341.634 431.048 342.989C431.318 344.342 432.636 345.221 433.987 344.951C435.341 344.677 436.219 343.365 435.952 342.012C435.68 340.657 434.368 339.779 433.012 340.049Z" fill="#B7C6E0"/>
<path fill-rule="evenodd" clip-rule="evenodd" d="M432.404 340L433 342.591L430.603 343L430 340.407L432.404 340Z" fill="#B7C6E0"/>
<path fill-rule="evenodd" clip-rule="evenodd" d="M435.497 361C434.118 361 432.997 362.121 433 363.503C433 364.883 434.118 366.003 435.497 366C436.882 366 438 364.883 438 363.503C438 362.121 436.882 361.001 435.497 361Z" fill="#B7C6E0"/>
<path fill-rule="evenodd" clip-rule="evenodd" d="M433 364L432.998 366.999L430 367V364H433Z" fill="#B7C6E0"/>
<path fill-rule="evenodd" clip-rule="evenodd" d="M433.986 385.049C432.632 384.778 431.317 385.658 431.048 387.013C430.78 388.366 431.657 389.683 433.011 389.952C434.368 390.219 435.682 389.345 435.952 387.989C436.22 386.634 435.342 385.321 433.986 385.049Z" fill="#B7C6E0"/>
<path fill-rule="evenodd" clip-rule="evenodd" d="M433 385.408L432.397 388L430 387.589L430.601 385L433 385.408Z" fill="#B7C6E0"/>
<path fill-rule="evenodd" clip-rule="evenodd" d="M428.458 409.19C427.183 408.663 425.719 409.269 425.191 410.545C424.662 411.819 425.27 413.282 426.544 413.81C427.824 414.336 429.281 413.734 429.81 412.458C430.337 411.181 429.73 409.722 428.458 409.19Z" fill="#B7C6E0"/>
<path fill-rule="evenodd" clip-rule="evenodd" d="M428 410.24L426.968 414L425 412.762L426.027 409L428 410.24Z" fill="#B7C6E0"/>
<path fill-rule="evenodd" clip-rule="evenodd" d="M419.888 427.42C418.741 426.656 417.188 426.962 416.419 428.111C415.656 429.26 415.963 430.812 417.109 431.579C418.26 432.344 419.81 432.038 420.577 430.889C421.347 429.739 421.036 428.191 419.888 427.42Z" fill="#B7C6E0"/>
<path fill-rule="evenodd" clip-rule="evenodd" d="M415 428.732L412.71 432L410 430.264L412.284 427L415 428.732Z" fill="#B7C6E0"/>
<path fill-rule="evenodd" clip-rule="evenodd" d="M405.269 445.732C404.29 444.756 402.708 444.756 401.733 445.733C400.756 446.71 400.756 448.292 401.733 449.268C402.712 450.242 404.29 450.246 405.269 449.268C406.244 448.292 406.244 446.71 405.269 445.732Z" fill="#B7C6E0"/>
<path fill-rule="evenodd" clip-rule="evenodd" d="M403 447.217L400.211 450L398 447.787L400.787 445L403 447.217Z" fill="#B7C6E0"/>
<path fill-rule="evenodd" clip-rule="evenodd" d="M387.579 461.11C386.81 459.964 385.258 459.655 384.108 460.421C382.963 461.189 382.656 462.741 383.419 463.885C384.193 465.034 385.741 465.347 386.89 464.579C388.035 463.808 388.346 462.26 387.579 461.11Z" fill="#B7C6E0"/>
<path fill-rule="evenodd" clip-rule="evenodd" d="M385 462.72L381.733 465L380 462.286L383.269 460L385 462.72Z" fill="#B7C6E0"/>
<path fill-rule="evenodd" clip-rule="evenodd" d="M366.811 473.543C366.282 472.269 364.818 471.664 363.543 472.189C362.267 472.72 361.665 474.178 362.189 475.453C362.724 476.731 364.182 477.338 365.456 476.809C366.733 476.278 367.335 474.819 366.811 473.543Z" fill="#B7C6E0"/>
<path fill-rule="evenodd" clip-rule="evenodd" d="M364 473.974L360.238 475L359 473.028L362.76 472L364 473.974Z" fill="#B7C6E0"/>
<path fill-rule="evenodd" clip-rule="evenodd" d="M345.953 482.014C345.681 480.661 344.365 479.78 343.008 480.048C341.657 480.319 340.781 481.633 341.048 482.988C341.322 484.342 342.632 485.221 343.99 484.951C345.342 484.68 346.218 483.369 345.953 482.014Z" fill="#B7C6E0"/>
<path fill-rule="evenodd" clip-rule="evenodd" d="M343 480.401L340.409 481L340 478.602L342.59 478L343 480.401Z" fill="#B7C6E0"/>
<path fill-rule="evenodd" clip-rule="evenodd" d="M322 482.5C321.997 481.122 320.878 480.003 319.499 480C318.119 480.003 317.001 481.122 317 482.499C317.005 483.878 318.119 485 319.501 485C320.881 484.995 321.994 483.878 322 482.5Z" fill="#B7C6E0"/>
<path fill-rule="evenodd" clip-rule="evenodd" d="M319 483L316 482.998V480.004L318.997 480L319 483Z" fill="#B7C6E0"/>
<path fill-rule="evenodd" clip-rule="evenodd" d="M297.952 482.988C298.22 481.636 297.335 480.32 295.987 480.047C294.632 479.782 293.319 480.659 293.048 482.011C292.782 483.367 293.656 484.682 295.009 484.952C296.365 485.219 297.676 484.341 297.952 482.988Z" fill="#B7C6E0"/>
<path fill-rule="evenodd" clip-rule="evenodd" d="M297.588 481L295 480.396L295.408 478L298 478.597L297.588 481Z" fill="#B7C6E0"/>
<path fill-rule="evenodd" clip-rule="evenodd" d="M276.809 478.458C277.339 477.181 276.729 475.721 275.454 475.189C274.177 474.664 272.717 475.27 272.189 476.543C271.666 477.822 272.264 479.281 273.544 479.811C274.82 480.336 276.279 479.73 276.809 478.458Z" fill="#B7C6E0"/>
<path fill-rule="evenodd" clip-rule="evenodd" d="M275.761 475L272 473.969L273.239 472L277 473.029L275.761 475Z" fill="#B7C6E0"/>
<path fill-rule="evenodd" clip-rule="evenodd" d="M255.581 466.89C256.346 465.741 256.034 464.187 254.888 463.419C253.741 462.657 252.19 462.961 251.421 464.111C250.655 465.263 250.964 466.813 252.111 467.58C253.257 468.345 254.809 468.037 255.581 466.89Z" fill="#B7C6E0"/>
<path fill-rule="evenodd" clip-rule="evenodd" d="M254.265 468L251 465.713L252.728 463L256 465.283L254.265 468Z" fill="#B7C6E0"/>
<path fill-rule="evenodd" clip-rule="evenodd" d="M237.272 452.268C238.245 451.291 238.241 449.707 237.269 448.732C236.293 447.756 234.71 447.756 233.734 448.733C232.757 449.714 232.754 451.291 233.734 452.268C234.71 453.244 236.288 453.244 237.272 452.268Z" fill="#B7C6E0"/>
<path fill-rule="evenodd" clip-rule="evenodd" d="M235.784 453L233 450.207L235.208 448L238 450.785L235.784 453Z" fill="#B7C6E0"/>
<path fill-rule="evenodd" clip-rule="evenodd" d="M221.889 434.581C223.039 433.81 223.344 432.259 222.578 431.11C221.809 429.963 220.26 429.654 219.112 430.424C217.966 431.193 217.654 432.739 218.419 433.889C219.188 435.037 220.741 435.344 221.889 434.581Z" fill="#B7C6E0"/>
<path fill-rule="evenodd" clip-rule="evenodd" d="M220.285 435L218 431.73L220.711 430L223 433.265L220.285 435Z" fill="#B7C6E0"/>
<path fill-rule="evenodd" clip-rule="evenodd" d="M209.457 413.811C210.732 413.281 211.337 411.816 210.81 410.541C210.281 409.267 208.819 408.662 207.545 409.192C206.267 409.724 205.663 411.179 206.191 412.457C206.719 413.731 208.181 414.336 209.457 413.811Z" fill="#B7C6E0"/>
<path fill-rule="evenodd" clip-rule="evenodd" d="M209.025 414L208 410.241L209.969 409L211 412.759L209.025 414Z" fill="#B7C6E0"/>
<path fill-rule="evenodd" clip-rule="evenodd" d="M202.986 392.953C204.34 392.681 205.219 391.363 204.952 390.009C204.681 388.657 203.365 387.778 202.013 388.049C200.653 388.321 199.781 389.632 200.048 390.987C200.319 392.34 201.632 393.218 202.986 392.953Z" fill="#B7C6E0"/>
<path fill-rule="evenodd" clip-rule="evenodd" d="M202.599 391L202 388.411L204.397 388L205 390.589L202.599 391Z" fill="#B7C6E0"/>
<path fill-rule="evenodd" clip-rule="evenodd" d="M199.5 369C200.88 369 201.995 367.877 202 366.497C201.995 365.117 200.88 364 199.496 364C198.118 364.005 197.004 365.117 197 366.499C197.004 367.882 198.119 368.997 199.5 369Z" fill="#B7C6E0"/>
<path fill-rule="evenodd" clip-rule="evenodd" d="M199 370L199.002 367.003L202 367V369.997L199 370Z" fill="#B7C6E0"/>
<path fill-rule="evenodd" clip-rule="evenodd" d="M202.013 344.952C203.367 345.221 204.679 344.339 204.953 342.985C205.217 341.631 204.34 340.316 202.984 340.048C201.63 339.781 200.318 340.656 200.048 342.011C199.78 343.366 200.659 344.678 202.013 344.952Z" fill="#B7C6E0"/>
<path fill-rule="evenodd" clip-rule="evenodd" d="M202 346.594L202.606 344L205 344.408L204.397 347L202 346.594Z" fill="#B7C6E0"/>
<path fill-rule="evenodd" clip-rule="evenodd" d="M207.54 323.808C208.818 324.339 210.28 323.729 210.811 322.454C211.336 321.177 210.731 319.718 209.453 319.189C208.175 318.666 206.719 319.264 206.189 320.544C205.665 321.82 206.269 323.278 207.54 323.808Z" fill="#B7C6E0"/>
<path fill-rule="evenodd" clip-rule="evenodd" d="M208 325.764L209.031 322L211 323.234L209.971 327L208 325.764Z" fill="#B7C6E0"/>
<path fill-rule="evenodd" clip-rule="evenodd" d="M216.111 301.577C217.259 302.347 218.811 302.035 219.583 300.887C220.342 299.74 220.038 298.189 218.887 297.421C217.734 296.657 216.188 296.961 215.42 298.109C214.655 299.261 214.964 300.809 216.111 301.577Z" fill="#B7C6E0"/>
<path fill-rule="evenodd" clip-rule="evenodd" d="M218 304.268L220.292 301L223 302.732L220.718 306L218 304.268Z" fill="#B7C6E0"/>
<path fill-rule="evenodd" clip-rule="evenodd" d="M230.731 284.267C231.708 285.248 233.291 285.241 234.27 284.267C235.243 283.289 235.245 281.71 234.265 280.732C233.284 279.759 231.71 279.753 230.731 280.733C229.755 281.711 229.758 283.287 230.731 284.267Z" fill="#B7C6E0"/>
<path fill-rule="evenodd" clip-rule="evenodd" d="M230 285.784L232.79 283L235 285.212L232.217 288L230 285.784Z" fill="#B7C6E0"/>
<path fill-rule="evenodd" clip-rule="evenodd" d="M248.421 268.888C249.186 270.04 250.74 270.344 251.892 269.579C253.035 268.809 253.347 267.26 252.577 266.113C251.804 264.966 250.258 264.653 249.111 265.422C247.962 266.193 247.656 267.739 248.421 268.888Z" fill="#B7C6E0"/>
<path fill-rule="evenodd" clip-rule="evenodd" d="M248 270.284L251.27 268L253 270.713L249.738 273L248 270.284Z" fill="#B7C6E0"/>
<path fill-rule="evenodd" clip-rule="evenodd" d="M269.189 256.454C269.719 257.733 271.179 258.335 272.458 257.811C273.732 257.28 274.338 255.821 273.808 254.541C273.273 253.267 271.817 252.663 270.542 253.191C269.269 253.722 268.664 255.178 269.189 256.454Z" fill="#B7C6E0"/>
<path fill-rule="evenodd" clip-rule="evenodd" d="M269 260.027L272.766 259L274 260.969L270.24 262L269 260.027Z" fill="#B7C6E0"/>
<path fill-rule="evenodd" clip-rule="evenodd" d="M290.048 249.986C290.316 251.342 291.634 252.218 292.991 251.952C294.343 251.679 295.22 250.367 294.952 249.012C294.678 247.657 293.366 246.779 292.012 247.049C290.658 247.321 289.781 248.632 290.048 249.986Z" fill="#B7C6E0"/>
<path fill-rule="evenodd" clip-rule="evenodd" d="M292 253.596L294.595 253L295 255.396L292.41 256L292 253.596Z" fill="#B7C6E0"/>
<path fill-rule="evenodd" clip-rule="evenodd" d="M274 504.46L315.516 367H319.482L361 504.46C361 504.46 356.205 505.675 355.646 504.46C330.679 450.51 317.501 373.789 317.501 373.789C317.501 373.789 300.72 463.612 279.352 504.46C278.731 505.645 274 504.46 274 504.46Z" fill="#B7C6E0"/>
<path fill-rule="evenodd" clip-rule="evenodd" d="M314.437 268L322 253.369L321.209 253L314.437 266.099L307.795 253.156L307 253.518L314.437 268Z" fill="#B7C6E0"/>
<path fill-rule="evenodd" clip-rule="evenodd" d="M332.394 268L343 255.698L342.29 255.218L332.789 266.23L328.864 253L328 253.201L332.394 268Z" fill="#B7C6E0"/>
<path fill-rule="evenodd" clip-rule="evenodd" d="M352.888 274L364 263.987L363.503 263.403L353.551 272.369L352.757 259L352 259.046L352.888 274Z" fill="#B7C6E0"/>
<path fill-rule="evenodd" clip-rule="evenodd" d="M370 283L385 275.318L384.555 274.639L371.126 281.517L373.196 268.106L372.317 268L370 283Z" fill="#B7C6E0"/>
<path fill-rule="evenodd" clip-rule="evenodd" d="M385 295L400 289.815L399.737 289.034L386.307 293.68L390.876 280.265L390.106 280L385 295Z" fill="#B7C6E0"/>
<path fill-rule="evenodd" clip-rule="evenodd" d="M400 312L415 309.675L414.898 308.783L401.473 310.866L408.211 297.453L407.542 297L400 312Z" fill="#B7C6E0"/>
<path fill-rule="evenodd" clip-rule="evenodd" d="M423.951 328L424 327.238L410.617 326.387L419.392 316.508L418.818 316L409 327.052L423.951 328Z" fill="#B7C6E0"/>
<path fill-rule="evenodd" clip-rule="evenodd" d="M429.8 352L430 351.136L416.754 347.1L427.528 337.717L427.055 337L415 347.493L429.8 352Z" fill="#B7C6E0"/>
<path fill-rule="evenodd" clip-rule="evenodd" d="M429.637 373L430 372.209L416.903 365.437L429.848 358.789L429.485 358L415 365.437L429.637 373Z" fill="#B7C6E0"/>
<path fill-rule="evenodd" clip-rule="evenodd" d="M427.299 397L427.78 396.288L416.773 386.793L430 382.869L429.801 382L415 386.394L427.299 397Z" fill="#B7C6E0"/>
<path fill-rule="evenodd" clip-rule="evenodd" d="M419.014 415L419.598 414.498L410.631 404.552L424 403.759L423.952 403L409 403.888L419.014 415Z" fill="#B7C6E0"/>
<path fill-rule="evenodd" clip-rule="evenodd" d="M407.681 436L408.358 435.555L401.485 422.126L414.89 424.197L415 423.315L400 421L407.681 436Z" fill="#B7C6E0"/>
<path fill-rule="evenodd" clip-rule="evenodd" d="M393.185 451L393.964 450.735L389.32 437.309L402.737 441.874L403 441.105L388 436L393.185 451Z" fill="#B7C6E0"/>
<path fill-rule="evenodd" clip-rule="evenodd" d="M375.326 463L376.22 462.898L374.14 449.468L387.547 456.206L388 455.536L373 448L375.326 463Z" fill="#B7C6E0"/>
<path fill-rule="evenodd" clip-rule="evenodd" d="M355.76 472L356.613 458.617L366.493 467.391L367 466.814L355.95 457L355 471.952L355.76 472Z" fill="#B7C6E0"/>
<path fill-rule="evenodd" clip-rule="evenodd" d="M331.87 478L335.904 464.75L345.283 475.528L346 475.052L335.507 463L331 477.8L331.87 478Z" fill="#B7C6E0"/>
<path fill-rule="evenodd" clip-rule="evenodd" d="M310.791 481L317.563 467.905L324.211 480.85L325 480.48L317.567 466L310 480.631L310.791 481Z" fill="#B7C6E0"/>
<path fill-rule="evenodd" clip-rule="evenodd" d="M303.138 481L304 480.796L299.607 466L289 478.296L289.71 478.774L299.21 467.77L303.138 481Z" fill="#B7C6E0"/>
<path fill-rule="evenodd" clip-rule="evenodd" d="M279.241 475L280 474.952L279.111 460L268 470.01L268.499 470.592L278.444 461.634L279.241 475Z" fill="#B7C6E0"/>
<path fill-rule="evenodd" clip-rule="evenodd" d="M259.686 466L262 451L247 458.677L247.441 459.357L260.868 452.483L258.804 465.89L259.686 466Z" fill="#B7C6E0"/>
<path fill-rule="evenodd" clip-rule="evenodd" d="M241.894 454L247 439L232 444.187L232.263 444.963L245.691 440.324L241.124 453.731L241.894 454Z" fill="#B7C6E0"/>
<path fill-rule="evenodd" clip-rule="evenodd" d="M227.462 439L235 424L220 426.32L220.103 427.214L233.528 425.138L226.791 438.547L227.462 439Z" fill="#B7C6E0"/>
<path fill-rule="evenodd" clip-rule="evenodd" d="M216.181 418L226 406.953L211.046 406L211 406.76L224.385 407.614L215.608 417.49L216.181 418Z" fill="#B7C6E0"/>
<path fill-rule="evenodd" clip-rule="evenodd" d="M207.95 400L220 389.511L205.202 385L205 385.87L218.248 389.906L207.474 399.283L207.95 400Z" fill="#B7C6E0"/>
<path fill-rule="evenodd" clip-rule="evenodd" d="M202.517 376L217 368.565L202.369 361L202 361.793L215.105 368.561L202.152 375.209L202.517 376Z" fill="#B7C6E0"/>
<path fill-rule="evenodd" clip-rule="evenodd" d="M205.201 355L220 350.603L207.704 340L207.224 340.708L218.23 350.206L205 354.134L205.201 355Z" fill="#B7C6E0"/>
<path fill-rule="evenodd" clip-rule="evenodd" d="M208.05 331L223 330.106L212.995 319L212.411 319.5L221.369 329.442L208 330.238L208.05 331Z" fill="#B7C6E0"/>
<path fill-rule="evenodd" clip-rule="evenodd" d="M233 312L225.322 297L224.644 297.447L231.518 310.873L218.11 308.806L218 309.69L233 312Z" fill="#B7C6E0"/>
<path fill-rule="evenodd" clip-rule="evenodd" d="M247 298L241.815 283L241.039 283.263L245.677 296.691L232.268 292.128L232 292.897L247 298Z" fill="#B7C6E0"/>
<path fill-rule="evenodd" clip-rule="evenodd" d="M259 283L256.684 268L255.79 268.103L257.866 281.533L244.453 274.791L244 275.46L259 283Z" fill="#B7C6E0"/>
<path fill-rule="evenodd" clip-rule="evenodd" d="M276.044 274L277 259.049L276.235 259L275.386 272.385L265.504 263.606L265 264.181L276.044 274Z" fill="#B7C6E0"/>
<path fill-rule="evenodd" clip-rule="evenodd" d="M297.489 268L302 253.202L301.131 253L297.094 266.246L287.716 255.468L287 255.943L297.489 268Z" fill="#B7C6E0"/>
<path fill-rule="evenodd" clip-rule="evenodd" d="M315.563 367L316.118 366.994L322 253.028L321.443 253L315.783 362.62L307.555 254.808L307 254.851L315.563 367Z" fill="#B7C6E0"/>
<path fill-rule="evenodd" clip-rule="evenodd" d="M319.504 367L346 257.047L345.503 256.915L320.015 362.673L332.582 256.066L332.069 256L319 366.9L319.504 367Z" fill="#B7C6E0"/>
<path fill-rule="evenodd" clip-rule="evenodd" d="M319.489 367L367 262.927L366.522 262.692L320.829 362.797L353.752 259.174L353.248 259L319 366.801L319.489 367Z" fill="#B7C6E0"/>
<path fill-rule="evenodd" clip-rule="evenodd" d="M316.455 367L385 274.63L384.564 274.304L318.632 363.149L372.262 268.267L371.791 268L316 366.704L316.455 367Z" fill="#B7C6E0"/>
<path fill-rule="evenodd" clip-rule="evenodd" d="M316.383 367L400 291.845L399.641 291.451L319.216 363.734L388.961 283.347L388.551 283L316 366.629L316.383 367Z" fill="#B7C6E0"/>
<path fill-rule="evenodd" clip-rule="evenodd" d="M316.309 366L415 307.991L414.72 307.53L319.794 363.325L405.656 297.423L405.321 297L316 365.562L316.309 366Z" fill="#B7C6E0"/>
<path fill-rule="evenodd" clip-rule="evenodd" d="M316.214 368L424 328.985L423.814 328.465L320.147 365.991L416.968 316.493L416.72 316L316 367.494L316.214 368Z" fill="#B7C6E0"/>
<path fill-rule="evenodd" clip-rule="evenodd" d="M316.109 367L430 350.676L429.922 350.149L320.376 365.851L425.48 337.512L425.337 337L316 366.482L316.109 367Z" fill="#B7C6E0"/>
<path fill-rule="evenodd" clip-rule="evenodd" d="M429.974 373L430 372.443L320.387 366.781L428.198 358.555L428.158 358L316 366.559L316.011 367.116L429.974 373Z" fill="#B7C6E0"/>
<path fill-rule="evenodd" clip-rule="evenodd" d="M426.95 394L427.079 393.501L321.329 368.015L427.932 380.579L428 380.066L317.1 367L317 367.502L426.95 394Z" fill="#B7C6E0"/>
<path fill-rule="evenodd" clip-rule="evenodd" d="M420.077 415L420.31 414.526L320.205 368.828L423.83 401.75L424 401.247L316.204 367L316 367.489L420.077 415Z" fill="#B7C6E0"/>
<path fill-rule="evenodd" clip-rule="evenodd" d="M408.369 436L408.695 435.562L319.851 369.634L414.731 423.264L415 422.79L316.298 367L316 367.453L408.369 436Z" fill="#B7C6E0"/>
<path fill-rule="evenodd" clip-rule="evenodd" d="M394.157 451L394.552 450.641L322.264 370.216L402.651 439.959L403 439.553L319.373 367L319 367.381L394.157 451Z" fill="#B7C6E0"/>
<path fill-rule="evenodd" clip-rule="evenodd" d="M374.014 466L374.475 465.718L318.675 370.796L384.579 456.653L385 456.316L316.442 367L316 367.311L374.014 466Z" fill="#B7C6E0"/>
<path fill-rule="evenodd" clip-rule="evenodd" d="M354.268 475L354.779 474.818L317.969 371.144L366.521 467.97L367 467.723L316.496 367L316 367.214L354.268 475Z" fill="#B7C6E0"/>
<path fill-rule="evenodd" clip-rule="evenodd" d="M332.33 481L332.857 480.92L317.147 371.38L345.489 476.477L346 476.33L316.518 367L316 367.114L332.33 481Z" fill="#B7C6E0"/>
<path fill-rule="evenodd" clip-rule="evenodd" d="M310.555 481L316.212 371.384L324.443 479.192L325 479.152L316.44 367L315.883 367.006L310 480.975L310.555 481Z" fill="#B7C6E0"/>
<path fill-rule="evenodd" clip-rule="evenodd" d="M302.931 478L316 367.1L315.496 367L289 476.952L289.495 477.081L314.981 371.329L302.42 477.93L302.931 478Z" fill="#B7C6E0"/>
<path fill-rule="evenodd" clip-rule="evenodd" d="M281.75 475L316 367.202L315.509 367L268 471.074L268.476 471.306L314.173 371.209L281.25 474.828L281.75 475Z" fill="#B7C6E0"/>
<path fill-rule="evenodd" clip-rule="evenodd" d="M260.21 466L316 367.296L315.545 367L247 459.369L247.438 459.693L313.368 370.851L259.739 465.731L260.21 466Z" fill="#B7C6E0"/>
<path fill-rule="evenodd" clip-rule="evenodd" d="M243.449 451L316 367.369L315.623 367L232 442.153L232.361 442.545L312.786 370.262L243.042 450.651L243.449 451Z" fill="#B7C6E0"/>
<path fill-rule="evenodd" clip-rule="evenodd" d="M226.679 436L316 367.442L315.693 367L217 425.011L217.278 425.47L312.206 369.675L226.342 435.575L226.679 436Z" fill="#B7C6E0"/>
<path fill-rule="evenodd" clip-rule="evenodd" d="M215.282 419L316 367.504L315.782 367L208 406.017L208.18 406.537L311.854 369.008L215.034 418.509L215.282 419Z" fill="#B7C6E0"/>
<path fill-rule="evenodd" clip-rule="evenodd" d="M206.674 397L316 367.516L315.886 367L202 383.325L202.08 383.854L311.62 368.147L206.527 396.491L206.674 397Z" fill="#B7C6E0"/>
<path fill-rule="evenodd" clip-rule="evenodd" d="M203.851 376L316 367.443L315.996 366.886L202.026 361L202 361.557L311.615 367.217L203.814 375.443L203.851 376Z" fill="#B7C6E0"/>
<path fill-rule="evenodd" clip-rule="evenodd" d="M315.902 367L316 366.496L206.047 340L205.917 340.499L311.674 365.983L205.068 353.421L205 353.93L315.902 367Z" fill="#B7C6E0"/>
<path fill-rule="evenodd" clip-rule="evenodd" d="M315.801 367L316 366.511L211.927 319L211.692 319.478L311.795 365.179L208.17 332.252L208 332.752L315.801 367Z" fill="#B7C6E0"/>
<path fill-rule="evenodd" clip-rule="evenodd" d="M315.702 366L316 365.547L223.634 297L223.309 297.436L312.149 363.364L217.271 309.74L217 310.211L315.702 366Z" fill="#B7C6E0"/>
<path fill-rule="evenodd" clip-rule="evenodd" d="M315.629 367L316 366.617L240.846 283L240.452 283.359L312.736 363.784L232.345 294.047L232 294.45L315.629 367Z" fill="#B7C6E0"/>
<path fill-rule="evenodd" clip-rule="evenodd" d="M315.558 367L316 366.693L257.992 268L257.53 268.278L313.327 363.208L247.423 277.346L247 277.681L315.558 367Z" fill="#B7C6E0"/>
<path fill-rule="evenodd" clip-rule="evenodd" d="M315.505 367L316 366.786L277.729 259L277.219 259.18L314.029 362.85L265.48 266.034L265 266.279L315.505 367Z" fill="#B7C6E0"/>
<path fill-rule="evenodd" clip-rule="evenodd" d="M315.482 367L316 366.886L299.67 253L299.147 253.076L314.85 362.618L286.507 257.527L286 257.67L315.482 367Z" fill="#B7C6E0"/>
<path fill-rule="evenodd" clip-rule="evenodd" d="M511 418H509V397H511V418Z" fill="#B7C6E0"/>
<path fill-rule="evenodd" clip-rule="evenodd" d="M510.76 427H511.24H688V508H594.785V497.039C594.785 493.974 592.325 491.492 589.286 491.492C587.763 491.492 586.39 492.113 585.395 493.117C584.398 494.12 583.782 495.507 583.782 497.039V508H511.24H510.76H438.216V497.039C438.216 495.507 437.6 494.12 436.607 493.117C435.608 492.113 434.237 491.492 432.714 491.492C429.677 491.492 427.217 493.974 427.217 497.039V508H334V427H510.76Z" fill="#B7C6E0"/>
<path fill-rule="evenodd" clip-rule="evenodd" d="M510.76 427H511.24H688V508H594.785V497.039C594.785 493.974 592.325 491.492 589.286 491.492C587.763 491.492 586.39 492.113 585.395 493.117C584.398 494.12 583.782 495.507 583.782 497.039V508H511.24H510.76H438.216V497.039C438.216 495.507 437.6 494.12 436.607 493.117C435.608 492.113 434.237 491.492 432.714 491.492C429.677 491.492 427.217 493.974 427.217 497.039V508H334V427H510.76Z" stroke="white"/>
<path fill-rule="evenodd" clip-rule="evenodd" d="M685 433H634V421H685V433Z" fill="#B7C6E0"/>
<path fill-rule="evenodd" clip-rule="evenodd" d="M685 433H634V421H685V433Z" stroke="white"/>
<path fill-rule="evenodd" clip-rule="evenodd" d="M685 438H634V433H685V438Z" fill="#B7C6E0"/>
<path fill-rule="evenodd" clip-rule="evenodd" d="M685 438H634V433H685V438Z" stroke="white"/>
<path fill-rule="evenodd" clip-rule="evenodd" d="M667 478H662V439H667V478Z" fill="#B7C6E0"/>
<path fill-rule="evenodd" clip-rule="evenodd" d="M667 478H662V439H667V478Z" stroke="white"/>
<path fill-rule="evenodd" clip-rule="evenodd" d="M658 478H653V439H658V478Z" fill="#B7C6E0"/>
<path fill-rule="evenodd" clip-rule="evenodd" d="M658 478H653V439H658V478Z" stroke="white"/>
<path fill-rule="evenodd" clip-rule="evenodd" d="M643 478H638V439H643V478Z" fill="#B7C6E0"/>
<path fill-rule="evenodd" clip-rule="evenodd" d="M643 478H638V439H643V478Z" stroke="white"/>
<path fill-rule="evenodd" clip-rule="evenodd" d="M685 478H680V439H685V478Z" fill="#B7C6E0"/>
<path fill-rule="evenodd" clip-rule="evenodd" d="M685 478H680V439H685V478Z" stroke="white"/>
<path fill-rule="evenodd" clip-rule="evenodd" d="M517 478H512V439H517V478Z" fill="#B7C6E0"/>
<path fill-rule="evenodd" clip-rule="evenodd" d="M517 478H512V439H517V478Z" stroke="white"/>
<path fill-rule="evenodd" clip-rule="evenodd" d="M538 478H523V439H538V478Z" fill="#B7C6E0"/>
<path fill-rule="evenodd" clip-rule="evenodd" d="M538 478H523V439H538V478Z" stroke="white"/>
<path fill-rule="evenodd" clip-rule="evenodd" d="M688 508H637V427H688V508Z" stroke="white"/>
<path fill-rule="evenodd" clip-rule="evenodd" d="M382 433H331V421H382V433Z" fill="#B7C6E0"/>
<path fill-rule="evenodd" clip-rule="evenodd" d="M382 433H331V421H382V433Z" stroke="white"/>
<path fill-rule="evenodd" clip-rule="evenodd" d="M382 438H331V433H382V438Z" fill="#B7C6E0"/>
<path fill-rule="evenodd" clip-rule="evenodd" d="M382 438H331V433H382V438Z" stroke="white"/>
<path fill-rule="evenodd" clip-rule="evenodd" d="M355 478H350V439H355V478Z" fill="#B7C6E0"/>
<path fill-rule="evenodd" clip-rule="evenodd" d="M355 478H350V439H355V478Z" stroke="white"/>
<path fill-rule="evenodd" clip-rule="evenodd" d="M364 478H359V439H364V478Z" fill="#B7C6E0"/>
<path fill-rule="evenodd" clip-rule="evenodd" d="M364 478H359V439H364V478Z" stroke="white"/>
<path fill-rule="evenodd" clip-rule="evenodd" d="M382 478H373V439H382V478Z" fill="#B7C6E0"/>
<path fill-rule="evenodd" clip-rule="evenodd" d="M382 478H373V439H382V478Z" stroke="white"/>
<path fill-rule="evenodd" clip-rule="evenodd" d="M340 478H331V439H340V478Z" fill="#B7C6E0"/>
<path fill-rule="evenodd" clip-rule="evenodd" d="M340 478H331V439H340V478Z" stroke="white"/>
<path fill-rule="evenodd" clip-rule="evenodd" d="M507.755 415H508.241H538V427H508.241H507.755H478V415H507.755Z" fill="#B7C6E0"/>
<path fill-rule="evenodd" clip-rule="evenodd" d="M507.755 415H508.241H538V427H508.241H507.755H478V415H507.755Z" stroke="white"/>
<path fill-rule="evenodd" clip-rule="evenodd" d="M505 478H500V439H505V478Z" fill="#B7C6E0"/>
<path fill-rule="evenodd" clip-rule="evenodd" d="M505 478H500V439H505V478Z" stroke="white"/>
<path fill-rule="evenodd" clip-rule="evenodd" d="M493 478H478V439H493V478Z" fill="#B7C6E0"/>
<path fill-rule="evenodd" clip-rule="evenodd" d="M493 478H478V439H493V478Z" stroke="white"/>
<path fill-rule="evenodd" clip-rule="evenodd" d="M507.761 433H508.239H538V442H508.239H507.761H478V433H507.761Z" fill="#B7C6E0"/>
<path fill-rule="evenodd" clip-rule="evenodd" d="M507.761 433H508.239H538V442H508.239H507.761H478V433H507.761Z" stroke="white"/>
<path fill-rule="evenodd" clip-rule="evenodd" d="M382 508H331V427H382V508Z" stroke="white"/>
<path fill-rule="evenodd" clip-rule="evenodd" d="M507.76 418H508.236L541 433H508.236H507.76H475L507.76 418Z" fill="#B7C6E0"/>
<path fill-rule="evenodd" clip-rule="evenodd" d="M507.76 418H508.236L541 433H508.236H507.76H475L507.76 418Z" stroke="white"/>
<path fill-rule="evenodd" clip-rule="evenodd" d="M662.5 424H662.774L685 436H640L662.5 424Z" fill="#B7C6E0"/>
<path fill-rule="evenodd" clip-rule="evenodd" d="M662.5 424H662.774L685 436H640L662.5 424Z" stroke="white"/>
<path fill-rule="evenodd" clip-rule="evenodd" d="M356.229 424L334 436H379L356.495 424" fill="#B7C6E0"/>
<path d="M356.229 424L334 436H379L356.495 424" stroke="white"/>
<path fill-rule="evenodd" clip-rule="evenodd" d="M688 507H334V480H688V507Z" stroke="white"/>
<path fill-rule="evenodd" clip-rule="evenodd" d="M499 508.489C499 513.19 503.028 517 508 517C512.968 517 517 513.19 517 508.489V495.513C517 490.808 512.968 487 508 487C503.028 487 499 490.808 499 495.513V508.489Z" fill="#B7C6E0"/>
<path fill-rule="evenodd" clip-rule="evenodd" d="M526 511H521V496H526V511Z" fill="#B7C6E0"/>
<path fill-rule="evenodd" clip-rule="evenodd" d="M497 511H492V496H497V511Z" fill="#B7C6E0"/>
<path fill-rule="evenodd" clip-rule="evenodd" d="M359 511H354V496H359V511Z" fill="#B7C6E0"/>
<path fill-rule="evenodd" clip-rule="evenodd" d="M664 511H659V496H664V511Z" fill="#B7C6E0"/>
<path fill-rule="evenodd" clip-rule="evenodd" d="M493 406.255C498.999 396.745 505.001 415.764 511 406.255V396.745C505.001 406.255 498.999 387.236 493 396.745V406.255Z" fill="#B7C6E0"/>
<path fill-rule="evenodd" clip-rule="evenodd" d="M868 345.688L861.243 331L856 346L868 345.688Z" fill="#B7C6E0"/>
<path fill-rule="evenodd" clip-rule="evenodd" d="M970 396.688L963.243 382L958 397L970 396.688Z" fill="#B7C6E0"/>
<path fill-rule="evenodd" clip-rule="evenodd" d="M874 495H829V480H874V495Z" fill="#B7C6E0"/>
<path fill-rule="evenodd" clip-rule="evenodd" d="M217 429H208V424H217V429Z" fill="#B7C6E0"/>
<path fill-rule="evenodd" clip-rule="evenodd" d="M123.505 428.507V400.613H126.516C126.232 400.079 126.068 399.439 126.098 398.654C126.263 394.15 128.803 393.766 131.521 390.847C132.701 389.579 133.38 387.905 133.764 386.555C133.225 386.36 132.837 385.858 132.837 385.255C132.837 384.485 133.467 383.862 134.246 383.862C135.019 383.862 135.653 384.485 135.653 385.255C135.653 385.858 135.262 386.36 134.723 386.555C135.108 387.905 135.785 389.579 136.964 390.847C139.687 393.766 142.222 394.15 142.39 398.654C142.42 399.439 142.252 400.079 141.976 400.613H144.981V422.25H149.533V428.565L152.191 428.573V422.25H159.737V428.591L162.398 428.597V421.777H169.95V428.614L177.517 428.631V428.565H172.047V421.144H177.517V412.934H179.172C179.161 412.741 179.134 412.559 179.145 412.355C179.354 406.619 182.588 406.128 186.053 402.405C187.556 400.795 188.417 398.667 188.908 396.946C188.222 396.701 187.726 396.051 187.726 395.285C187.726 394.304 188.532 393.508 189.523 393.508C190.512 393.508 191.316 394.304 191.316 395.285C191.316 396.051 190.822 396.701 190.134 396.946C190.624 398.667 191.486 400.795 192.988 402.405C196.455 406.128 199.687 406.619 199.903 412.355C199.906 412.559 199.882 412.741 199.872 412.934H201.122V421.144H207.453V428.565H201.122V428.685L223.451 428.737V428.565H221.11V421.144H223.451V398.405H225.446C225.382 398.045 225.344 397.669 225.36 397.251C225.568 391.695 228.698 391.223 232.055 387.616C233.507 386.058 234.343 383.995 234.818 382.332C234.152 382.09 233.676 381.463 233.676 380.719C233.676 379.77 234.453 379 235.412 379C236.373 379 237.148 379.77 237.148 380.719C237.148 381.463 236.673 382.09 236.006 382.332C236.478 383.995 237.316 386.058 238.769 387.616C242.128 391.223 245.258 391.695 245.46 397.251C245.477 397.669 245.439 398.045 245.375 398.405H247.372V421.973L248.45 422.351V421.144H249.765V422.814L251.399 423.389V422.172H252.715V423.853L254.351 424.426V423.198H255.666V424.887L257.3 425.462V424.224H258.616V425.925L260.252 426.501V425.25H261.567V426.962L263.201 427.535V426.277H264.519V428L266.312 428.631V427.185H267.628V429.091L269.223 429.653V412.934H271.305C271.303 412.834 271.286 412.744 271.292 412.64C271.462 407.965 274.098 407.566 276.922 404.534C278.148 403.222 278.851 401.482 279.252 400.079C278.691 399.875 278.288 399.356 278.288 398.733C278.288 397.933 278.942 397.285 279.748 397.285C280.555 397.285 281.212 397.933 281.212 398.733C281.212 399.356 280.807 399.875 280.247 400.079C280.646 401.482 281.352 403.222 282.573 404.534C285.399 407.566 288.034 407.965 288.208 412.64C288.209 412.744 288.194 412.834 288.192 412.934H289V489.524H278.938L278.288 504.212H228.594L227.595 508H115V428.488L123.505 428.507Z" fill="#B7C6E0"/>
<path fill-rule="evenodd" clip-rule="evenodd" d="M331 511H100V463H331V511Z" fill="#B7C6E0"/>
<path fill-rule="evenodd" clip-rule="evenodd" d="M1042 532H100V505H1042V532Z" fill="#B7C6E0"/>
<path d="M304 463.172V475H270.792V457H136.961V471.934H120.672V463.172H100" stroke="white"/>
<path fill-rule="evenodd" clip-rule="evenodd" d="M952.723 258.871C952.723 258.871 969.619 251.746 989.086 264.384C1008.55 277.022 1013.47 287.828 1031.6 289.646C1049.73 291.464 1063.87 287.428 1080.54 298.547C1080.54 298.547 1061.38 323.383 1058.34 340.744C1055.3 358.104 1052.09 370.514 1046.56 377.325C1046.56 377.325 1044.91 368.27 1027.93 370.779C1010.95 373.29 987.805 375.178 969.761 358.218C951.716 341.255 930.332 338.085 924.008 340.451L952.723 258.871Z" fill="#B7C6E0"/>
<path fill-rule="evenodd" clip-rule="evenodd" d="M995.458 312L1006 277.387C1001.32 273.579 996.04 269.16 988.739 264.486C976.777 256.831 965.786 256.454 959 257.335C967.306 263.719 987.609 281.885 995.458 312Z" fill="#819BC8"/>
<path fill-rule="evenodd" clip-rule="evenodd" d="M967.111 297.291C973.406 301.029 979.214 305.542 984.832 309.909C988.536 312.788 992.157 315.596 995.693 318L1009 279.573C1007.95 278.755 1006.89 277.899 1005.8 277.01L995.335 311.551C987.542 281.499 967.381 263.369 959.132 257C954.779 257.565 952.161 258.652 952.161 258.652L951.641 260.117C972.038 277.085 984.244 305.932 984.244 305.932L977.869 301.233C970.369 283.959 954.952 268.365 950.297 263.897L948.833 268.023C962.422 279.961 974.291 299.078 974.291 299.078C962.903 288.868 949.853 287.981 941.445 288.821L940 292.882C950.969 291.639 960.058 293.103 967.111 297.291Z" fill="white"/>
<path fill-rule="evenodd" clip-rule="evenodd" d="M970 313.471C957.611 303.739 943.25 304.441 935.7 305.749L930 322C948.172 314.078 970 313.471 970 313.471Z" fill="#819BC8"/>
<path fill-rule="evenodd" clip-rule="evenodd" d="M975 299C975 299 963.075 279.917 949.422 268L942 288.762C950.447 287.922 963.559 288.808 975 299Z" fill="#819BC8"/>
<path fill-rule="evenodd" clip-rule="evenodd" d="M1027 323.716C1027 323.716 1048.96 321.805 1061.23 330C1064.73 321.647 1069.95 313.091 1074 307C1066.63 307.102 1045.77 308.81 1027 323.716Z" fill="#819BC8"/>
<path fill-rule="evenodd" clip-rule="evenodd" d="M1010.79 325.924C1016.03 326.782 1021.68 326.918 1027.68 327.061C1039.13 327.338 1050.92 327.619 1061.15 333C1061.47 332.158 1061.81 331.306 1062.17 330.456C1049.87 322.286 1027.86 324.191 1027.86 324.191C1046.67 309.336 1067.58 307.634 1074.96 307.532C1078.4 302.39 1081 299.011 1081 299.011C1081 299.011 1059.51 299.215 1041.74 307.043C1025.75 314.087 1014.98 322.934 1014.98 322.934L1010.66 322.681C1010.66 322.681 1022.95 312.318 1037.66 305.325C1052.43 298.302 1066.02 296.486 1076.29 296.215C1072.54 294.266 1068.88 293.021 1065.25 292.214C1030.4 297.434 1008.19 321.638 1008.19 321.638L1020.5 287.184C1019.66 286.817 1018.85 286.422 1018.05 286L1005 324.136C1006.96 324.988 1008.89 325.614 1010.79 325.924Z" fill="white"/>
<path fill-rule="evenodd" clip-rule="evenodd" d="M1065 291.965C1054.38 289.637 1043.94 291.057 1031.69 289.84C1027.23 289.396 1023.57 288.412 1020.3 287L1008 321C1008 321 1030.19 297.117 1065 291.965Z" fill="#819BC8"/>
<path fill-rule="evenodd" clip-rule="evenodd" d="M1045.12 341.563C1034.51 339.347 1019 339 1019 339C1019 339 1043.15 350.835 1052.37 365C1054.12 359.751 1055.6 353.409 1057 346.051C1054.39 344.392 1050.6 342.71 1045.12 341.563Z" fill="#819BC8"/>
<path fill-rule="evenodd" clip-rule="evenodd" d="M1027.11 336.378C1021.07 336.237 1014.83 336.088 1008.94 335.135C1006.43 334.729 1003.98 333.987 1001.56 333L989 369.288C990.5 369.761 992.002 370.175 993.508 370.519C996.568 359.589 1002.71 337.839 1002.71 337.839C1002.71 337.839 1024.74 353.404 1035.44 370.165C1045.37 370.9 1046.49 377 1046.49 377C1046.7 376.741 1045.2 369.365 1034.58 359.278C1016.82 342.401 1006.14 337.068 1006.14 337.068L1015.25 338.148C1015.25 338.148 1026.78 345.9 1036.6 355.278C1043.89 362.227 1047.39 367.661 1049.76 371.841C1050.83 369.748 1051.79 367.381 1052.68 364.726C1043.42 350.588 1019.18 338.774 1019.18 338.774C1019.18 338.774 1034.75 339.122 1045.4 341.332C1050.91 342.476 1054.72 344.156 1057.34 345.814C1057.56 344.635 1057.78 343.435 1058 342.21C1049.51 336.915 1038.6 336.652 1027.11 336.378Z" fill="white"/>
<path fill-rule="evenodd" clip-rule="evenodd" d="M938 340.636C947.114 342.816 958.687 348.026 969.143 357.892C971.684 360.289 974.332 362.301 977.045 364L989 329.871C989 329.871 960.031 324.456 938 340.636Z" fill="#819BC8"/>
<path fill-rule="evenodd" clip-rule="evenodd" d="M979.374 318.454C974 314.249 968.442 309.897 962.681 306.452C955.462 302.132 945.395 302.529 936.943 304.081L936.084 306.513C943.687 305.203 958.151 304.499 970.624 314.249C970.624 314.249 948.644 314.855 930.344 322.792L924 340.779C924.37 340.642 924.796 340.525 925.262 340.427L925.268 340.42C925.268 340.42 947.988 319.814 981.624 324.141L987.573 327.218C987.573 327.218 958.19 322.751 932.73 340.306C934.54 340.502 936.526 340.846 938.648 341.35C960.757 325.204 989.83 330.608 989.83 330.608L977.832 364.665C978.585 365.134 979.341 365.58 980.104 366L993 328.479C988.472 325.572 983.98 322.065 979.374 318.454Z" fill="white"/>
<path fill-rule="evenodd" clip-rule="evenodd" d="M993 370.386C1005.08 373.121 1017.35 371.864 1027.44 370.39C1030.4 369.956 1032.89 369.881 1035 370.033C1023.39 350.182 1002.54 337 1002.54 337C1002.54 337 996.064 359.472 993 370.386Z" fill="#819BC8"/>
<path opacity="0.1" fill-rule="evenodd" clip-rule="evenodd" d="M961 257C955.744 257.47 952.511 258.834 952.511 258.834L924 340C925.954 339.27 929.355 339.07 933.655 339.65C942.337 311.956 952.99 284.906 961 257Z" fill="#212D5F"/>
<path opacity="0.1" fill-rule="evenodd" clip-rule="evenodd" d="M987 263.149C982.505 260.535 978.175 258.933 974.189 258C972.517 262.198 957.261 309.176 951.597 328.52C950.134 333.525 948.527 338.503 947 343.5C948.811 344.219 950.668 345.057 952.546 346C958.817 332.86 981.018 277.276 987 263.149Z" fill="#212D5F"/>
<path opacity="0.1" fill-rule="evenodd" clip-rule="evenodd" d="M1058.56 340.594C1061.63 323.317 1081 298.6 1081 298.6C1080.13 298.032 1079.27 297.506 1078.42 297.012C1077.61 296.548 1067.71 309.389 1066.77 310.679C1063.27 315.459 1060.11 320.525 1057.4 325.773C1054.16 332.041 1051.56 338.649 1050.04 345.527C1049.27 349.001 1048.72 352.512 1048.02 355.998C1046.91 361.547 1045.41 367.209 1042 371.775C1046.06 373.833 1046.65 377 1046.65 377C1052.24 370.221 1055.49 357.873 1058.56 340.594Z" fill="#212D5F"/>
<path opacity="0.1" fill-rule="evenodd" clip-rule="evenodd" d="M1076 304C1073.12 306.946 1070.15 309.812 1067.48 312.933C1061.72 319.694 1057.98 327.799 1055.54 336.264C1054.29 340.614 1053.39 345.055 1052.8 349.537C1052.28 353.435 1052.08 357.366 1051.48 361.253C1050.92 364.83 1050.18 368.499 1049 372C1052.8 364.83 1055.37 354.152 1057.83 340.283C1059.98 328.13 1070.17 312.289 1076 304Z" fill="#212D5F"/>
<path opacity="0.1" fill-rule="evenodd" clip-rule="evenodd" d="M1070 294C1068.52 294.188 1067.05 294.456 1065.6 294.825C1049.58 298.872 1037.24 311.466 1030.74 326.347C1027.08 334.739 1025.05 344.214 1026.44 353.368C1027.33 359.186 1029.39 364.654 1031.74 370C1031.86 369.992 1031.98 369.983 1032.09 369.977C1031.49 364.507 1031.38 358.982 1031.84 353.494C1032.98 339.708 1037.46 326.107 1045.59 314.862C1052.01 305.992 1060.4 298.946 1070 294Z" fill="#212D5F"/>
<path fill-rule="evenodd" clip-rule="evenodd" d="M871.937 487.88C871.198 487.568 870.819 486.73 871.085 485.963L951.024 255.034C951.3 254.232 952.173 253.807 952.973 254.085C953.757 254.372 954.194 255.239 953.916 256.039L873.981 486.966C873.701 487.767 872.83 488.193 872.03 487.915C871.997 487.905 871.968 487.891 871.937 487.88Z" fill="#B7C6E0"/>
<path fill-rule="evenodd" clip-rule="evenodd" d="M953.916 256.039C954.194 255.238 953.757 254.372 952.973 254.085C952.173 253.807 951.298 254.233 951.022 255.034L949.754 258.692C949.968 258.667 950.186 258.684 950.396 258.758C951.154 259.035 951.578 259.876 951.31 260.657L873.333 485.588C873.062 486.369 872.216 486.782 871.442 486.513C871.413 486.504 871.384 486.494 871.353 486.48C871.226 486.428 871.115 486.352 871.012 486.274C870.927 486.946 871.294 487.61 871.938 487.879C871.967 487.89 871.996 487.904 872.029 487.914C872.831 488.194 873.702 487.768 873.98 486.967L953.916 256.039Z" fill="#B7C6E0"/>
<path fill-rule="evenodd" clip-rule="evenodd" d="M958.172 254.77C957.104 257.312 954.176 258.506 951.636 257.438C949.092 256.368 947.896 253.442 948.968 250.898C950.036 248.356 952.964 247.162 955.506 248.232C958.05 249.3 959.242 252.228 958.172 254.77Z" fill="#9DB2D7"/>
<path fill-rule="evenodd" clip-rule="evenodd" d="M955.766 253.161C955.121 254.689 953.365 255.406 951.839 254.765C950.312 254.122 949.593 252.364 950.235 250.838C950.878 249.312 952.638 248.592 954.162 249.236C955.688 249.877 956.406 251.637 955.766 253.161Z" fill="#B7C6E0"/>
<path fill-rule="evenodd" clip-rule="evenodd" d="M872.189 485.974C872.04 485.913 871.964 485.746 872.017 485.591L950.398 260.207C950.455 260.047 950.631 259.961 950.791 260.017C950.95 260.068 951.04 260.248 950.983 260.408L872.599 485.79C872.543 485.952 872.369 486.038 872.206 485.984C872.202 485.98 872.197 485.98 872.189 485.974Z" fill="#819BC8"/>
<path fill-rule="evenodd" clip-rule="evenodd" d="M826.032 436.621C826.032 437.587 825.248 438.364 824.278 438.364C823.309 438.364 822.521 437.587 822.521 436.621C822.521 435.658 823.309 434.881 824.278 434.881C825.248 434.881 826.032 435.658 826.032 436.621Z" fill="#4A4B4E"/>
<path fill-rule="evenodd" clip-rule="evenodd" d="M830.513 436.621C830.513 437.587 829.728 438.364 828.759 438.364C827.79 438.364 827.002 437.587 827.002 436.621C827.002 435.658 827.79 434.881 828.759 434.881C829.728 434.881 830.513 435.658 830.513 436.621Z" fill="#4A4B4E"/>
<path fill-rule="evenodd" clip-rule="evenodd" d="M834.995 436.621C834.995 437.587 834.213 438.364 833.241 438.364C832.271 438.364 831.487 437.587 831.487 436.621C831.487 435.658 832.271 434.881 833.241 434.881C834.213 434.881 834.995 435.658 834.995 436.621Z" fill="#4A4B4E"/>
<path fill-rule="evenodd" clip-rule="evenodd" d="M826.032 440.834C826.032 441.794 825.248 442.574 824.278 442.574C823.309 442.574 822.521 441.794 822.521 440.834C822.521 439.871 823.309 439.088 824.278 439.088C825.248 439.088 826.032 439.871 826.032 440.834Z" fill="#4A4B4E"/>
<path fill-rule="evenodd" clip-rule="evenodd" d="M830.513 440.834C830.513 441.794 829.728 442.574 828.759 442.574C827.79 442.574 827.002 441.794 827.002 440.834C827.002 439.871 827.79 439.088 828.759 439.088C829.728 439.088 830.513 439.871 830.513 440.834Z" fill="#4A4B4E"/>
<path fill-rule="evenodd" clip-rule="evenodd" d="M834.995 440.834C834.995 441.794 834.213 442.574 833.241 442.574C832.271 442.574 831.487 441.794 831.487 440.834C831.487 439.871 832.271 439.088 833.241 439.088C834.213 439.088 834.995 439.871 834.995 440.834Z" fill="#4A4B4E"/>
<path fill-rule="evenodd" clip-rule="evenodd" d="M826.032 445.041C826.032 446.001 825.248 446.787 824.278 446.787C823.309 446.787 822.521 446.001 822.521 445.041C822.521 444.078 823.309 443.298 824.278 443.298C825.248 443.298 826.032 444.078 826.032 445.041Z" fill="#4A4B4E"/>
<path fill-rule="evenodd" clip-rule="evenodd" d="M830.513 445.041C830.513 446.001 829.728 446.787 828.759 446.787C827.79 446.787 827.002 446.001 827.002 445.041C827.002 444.078 827.79 443.298 828.759 443.298C829.728 443.298 830.513 444.078 830.513 445.041Z" fill="#4A4B4E"/>
<path fill-rule="evenodd" clip-rule="evenodd" d="M834.995 445.041C834.995 446.001 834.213 446.787 833.241 446.787C832.271 446.787 831.487 446.001 831.487 445.041C831.487 444.078 832.271 443.298 833.241 443.298C834.213 443.298 834.995 444.078 834.995 445.041Z" fill="#4A4B4E"/>
<path fill-rule="evenodd" clip-rule="evenodd" d="M826.032 449.249C826.032 450.212 825.248 450.994 824.278 450.994C823.309 450.994 822.521 450.212 822.521 449.249C822.521 448.285 823.309 447.506 824.278 447.506C825.248 447.506 826.032 448.285 826.032 449.249Z" fill="#4A4B4E"/>
<path fill-rule="evenodd" clip-rule="evenodd" d="M830.513 449.249C830.513 450.212 829.728 450.994 828.759 450.994C827.79 450.994 827.002 450.212 827.002 449.249C827.002 448.285 827.79 447.506 828.759 447.506C829.728 447.506 830.513 448.285 830.513 449.249Z" fill="#4A4B4E"/>
<path fill-rule="evenodd" clip-rule="evenodd" d="M834.995 449.249C834.995 450.212 834.213 450.994 833.241 450.994C832.271 450.994 831.487 450.212 831.487 449.249C831.487 448.285 832.271 447.506 833.241 447.506C834.213 447.506 834.995 448.285 834.995 449.249Z" fill="#4A4B4E"/>
<mask id="mask0" mask-type="alpha" maskUnits="userSpaceOnUse" x="785" y="309" width="121" height="268">
<path fill-rule="evenodd" clip-rule="evenodd" d="M785 576H905.969V309.509H785V576Z" fill="white"/>
</mask>
<g mask="url(#mask0)">
<path fill-rule="evenodd" clip-rule="evenodd" d="M799.841 537.632H891.131V371.177H799.841V537.632Z" fill="#CAD8F1"/>
<path fill-rule="evenodd" clip-rule="evenodd" d="M806.235 525.799H884.74V382.649H806.235V525.799ZM799.844 537.632H891.134V371.177H799.844V537.632Z" fill="#2A5480"/>
<path opacity="0.19" fill-rule="evenodd" clip-rule="evenodd" d="M834.377 371.179H799.842V396.796C811.105 387.941 822.715 379.529 834.377 371.179Z" fill="#212D5F"/>
<path opacity="0.191123" fill-rule="evenodd" clip-rule="evenodd" d="M817.178 417.797C825.194 411.513 833.164 405.165 841.441 399.227C850.251 392.907 859.212 386.816 868.268 380.844C873.185 377.603 878.149 374.414 883.085 371.179H871.496C857.246 381.156 842.795 390.849 828.557 400.835C819.769 407 811.147 413.387 802.42 419.631C801.568 420.24 800.706 420.839 799.844 421.441V430.997C805.719 426.728 811.467 422.276 817.178 417.797Z" fill="#212D5F"/>
<path opacity="0.191123" fill-rule="evenodd" clip-rule="evenodd" d="M891.132 508.683V501.641C874.546 513.431 858.077 525.381 841.839 537.633H851.169C864.148 527.53 877.549 517.978 891.132 508.683Z" fill="#212D5F"/>
<path opacity="0.191123" fill-rule="evenodd" clip-rule="evenodd" d="M842.005 500.462C858.105 488.247 874.593 476.64 891.132 465.036V437.743C882.504 443.772 873.802 449.695 865.112 455.621C856.631 461.412 805.286 500.181 799.842 504.297V532.947C813.822 522.025 827.872 511.189 842.005 500.462Z" fill="#212D5F"/>
<path fill-rule="evenodd" clip-rule="evenodd" d="M788.837 571.343H902.138V543.099H788.837V571.343Z" fill="#A40014"/>
<path fill-rule="evenodd" clip-rule="evenodd" d="M792.247 366.789H898.728V338.961H792.247V366.789Z" fill="#212D5F"/>
<path fill-rule="evenodd" clip-rule="evenodd" d="M902.137 358.515V323.049C889.508 315.019 868.993 309.702 845.788 309.515C822.346 309.326 801.566 314.414 788.836 322.373V358.515H902.137Z" fill="#CAD8F1"/>
<path fill-rule="evenodd" clip-rule="evenodd" d="M899.14 356.207V326.617C887.179 319.924 867.747 315.484 845.767 315.325C823.568 315.169 803.884 319.416 791.834 326.058V356.207H899.14Z" fill="#819BC8"/>
<path fill-rule="evenodd" clip-rule="evenodd" d="M897.088 355.323V327.507C885.585 321.211 866.895 317.037 845.764 316.894C824.408 316.744 805.478 320.734 793.883 326.975V355.323H897.088Z" fill="#CAD8F1"/>
<path fill-rule="evenodd" clip-rule="evenodd" d="M869.376 535.25H889.045V510.492H869.376V535.25ZM802.478 535.25H822.144V510.492H802.478V535.25ZM802.478 398.219H822.144V373.464H802.478V398.219ZM869.376 425.628H889.045V400.873H869.376V425.628ZM869.376 453.031H889.045V428.273H869.376V453.031ZM869.376 480.438H889.045V455.679H869.376V480.438ZM869.376 507.844H889.045V483.086H869.376V507.844ZM847.082 507.844H866.745V483.086H847.082V507.844ZM847.082 535.25H866.745V510.492H847.082V535.25ZM824.775 535.25H844.441V510.492H824.775V535.25ZM824.775 507.844H844.441V483.086H824.775V507.844ZM802.478 507.844H822.144V483.086H802.478V507.844ZM802.478 480.438H822.144V455.679H802.478V480.438ZM802.478 453.031H822.144V428.273H802.478V453.031ZM802.478 425.625H822.144V400.87H802.478V425.625ZM824.775 425.625H844.441V400.87H824.775V425.625ZM824.775 398.219H844.441V373.464H824.775V398.219ZM847.082 398.222H866.745V373.467H847.082V398.222ZM847.082 425.628H866.745V400.873H847.082V425.628ZM847.082 453.031H866.745V428.273H847.082V453.031ZM847.082 480.438H866.745V455.679H847.082V480.438ZM824.775 453.031H844.441V428.273H824.775V453.031ZM824.775 480.438H844.441V455.679H824.775V480.438ZM869.376 398.219H889.045V373.464H869.376V398.219ZM890.365 370.816H801.161H799.844V537.898H801.161H890.365H891.682V370.816H890.365Z" fill="#212D5F"/>
<path fill-rule="evenodd" clip-rule="evenodd" d="M799.841 537.632H891.131V371.177H799.841V537.632ZM788.837 571.346H902.138V360.328H788.837V571.346Z" fill="#CAD8F1"/>
<path fill-rule="evenodd" clip-rule="evenodd" d="M788.837 571.346H902.138V567.023H788.837V571.346Z" fill="#819BC8"/>
<path fill-rule="evenodd" clip-rule="evenodd" d="M869.659 536.29H889.783V511.229H869.659V536.29ZM801.192 536.29H821.317V511.229H801.192V536.29ZM801.192 397.58H821.317V372.516H801.192V397.58ZM869.659 425.32H889.783V400.259H869.659V425.32ZM869.659 453.065H889.783V428.004H869.659V453.065ZM869.659 480.805H889.783V455.744H869.659V480.805ZM869.659 508.55H889.783V483.486H869.659V508.55ZM846.836 508.55H866.96V483.486H846.836V508.55ZM846.836 536.29H866.96V511.229H846.836V536.29ZM824.012 536.293H844.137V511.232H824.012V536.293ZM824.012 508.55H844.137V483.486H824.012V508.55ZM801.192 508.55H821.317V483.486H801.192V508.55ZM801.192 480.805H821.317V455.744H801.192V480.805ZM801.192 453.065H821.317V428.004H801.192V453.065ZM801.192 425.323H821.317V400.262H801.192V425.323ZM824.012 425.323H844.137V400.262H824.012V425.323ZM824.012 397.58H844.137V372.516H824.012V397.58ZM846.836 397.58H866.96V372.516H846.836V397.58ZM846.836 425.32H866.96V400.259H846.836V425.32ZM846.836 453.065H866.96V428.004H846.836V453.065ZM846.836 480.805H866.96V455.744H846.836V480.805ZM824.012 453.065H844.137V428.004H824.012V453.065ZM824.012 480.805H844.137V455.744H824.012V480.805ZM869.656 397.58H889.78V372.516H869.656V397.58ZM891.131 369.838H799.844H798.493V538.974H799.844H891.131H892.476V369.838H891.131Z" fill="#212D5F"/>
<path fill-rule="evenodd" clip-rule="evenodd" d="M795.708 542.154H895.264V366.657H795.708V542.154ZM792.336 545.502H898.639V363.303H792.336V545.502Z" fill="#819BC8"/>
<path fill-rule="evenodd" clip-rule="evenodd" d="M785 576H905.969V569.817H785V576Z" fill="#212D5F"/>
<path fill-rule="evenodd" clip-rule="evenodd" d="M796.865 353.054H893.664V337.64H796.865V353.054Z" fill="#B7C6E0"/>
<path fill-rule="evenodd" clip-rule="evenodd" d="M796.865 353.054H893.664V337.64H796.865V353.054Z" stroke="#212D5F" stroke-width="1.122"/>
<path fill-rule="evenodd" clip-rule="evenodd" d="M805.502 341.211H802.077V340.367H809.862V341.211H806.434V350.326H805.502V341.211Z" fill="#212D5F"/>
<path fill-rule="evenodd" clip-rule="evenodd" d="M812.112 340.366H818.244V341.21H813.047V344.754H817.918V345.601H813.047V349.478H818.469V350.328H812.112V340.366Z" fill="#212D5F"/>
<path fill-rule="evenodd" clip-rule="evenodd" d="M821.215 340.366H822.151V349.478H826.819V350.328H821.215V340.366Z" fill="#212D5F"/>
<path fill-rule="evenodd" clip-rule="evenodd" d="M828.998 340.366H835.128V341.21H829.934V344.754H834.802V345.601H829.934V349.478H835.356V350.328H828.998V340.366Z" fill="#212D5F"/>
<path fill-rule="evenodd" clip-rule="evenodd" d="M839.034 344.752H841.157C841.425 344.752 841.68 344.725 841.939 344.663C842.191 344.602 842.419 344.501 842.619 344.367C842.816 344.232 842.976 344.052 843.096 343.829C843.219 343.602 843.283 343.324 843.283 342.997C843.283 342.676 843.216 342.404 843.089 342.181C842.963 341.957 842.8 341.768 842.597 341.627C842.394 341.48 842.157 341.376 841.895 341.309C841.628 341.245 841.366 341.211 841.102 341.211H839.034V344.752ZM838.101 340.364H840.991C841.338 340.364 841.705 340.404 842.086 340.484C842.468 340.569 842.816 340.704 843.132 340.899C843.449 341.101 843.708 341.37 843.914 341.71C844.114 342.052 844.216 342.48 844.216 342.997C844.216 343.446 844.133 343.835 843.969 344.165C843.8 344.495 843.582 344.761 843.302 344.975C843.028 345.186 842.705 345.339 842.342 345.446C841.979 345.55 841.597 345.599 841.2 345.599H839.034V350.326H838.101V340.364Z" fill="#212D5F"/>
<path fill-rule="evenodd" clip-rule="evenodd" d="M846.934 340.366H847.869V344.754H853.473V340.366H854.405V350.328H853.473V345.601H847.869V350.328H846.934V340.366Z" fill="#212D5F"/>
<path fill-rule="evenodd" clip-rule="evenodd" d="M858.143 345.346C858.143 345.964 858.244 346.545 858.441 347.077C858.641 347.609 858.924 348.077 859.291 348.468C859.66 348.863 860.106 349.172 860.629 349.395C861.152 349.621 861.74 349.734 862.392 349.734C863.042 349.734 863.629 349.621 864.156 349.395C864.676 349.172 865.125 348.863 865.488 348.468C865.857 348.077 866.14 347.609 866.343 347.077C866.54 346.545 866.636 345.964 866.636 345.346C866.636 344.729 866.54 344.148 866.343 343.616C866.14 343.081 865.857 342.619 865.488 342.225C865.125 341.833 864.676 341.521 864.156 341.298C863.629 341.069 863.042 340.956 862.392 340.956C861.74 340.956 861.152 341.069 860.629 341.298C860.106 341.521 859.66 341.833 859.291 342.225C858.924 342.619 858.641 343.081 858.441 343.616C858.244 344.148 858.143 344.729 858.143 345.346ZM857.21 345.346C857.21 344.585 857.337 343.888 857.592 343.249C857.847 342.61 858.204 342.063 858.657 341.595C859.103 341.133 859.651 340.772 860.294 340.506C860.928 340.246 861.626 340.112 862.392 340.112C863.156 340.112 863.857 340.246 864.494 340.506C865.131 340.772 865.676 341.133 866.128 341.595C866.583 342.063 866.937 342.61 867.19 343.249C867.445 343.888 867.571 344.585 867.571 345.346C867.571 346.105 867.445 346.808 867.19 347.447C866.937 348.089 866.583 348.646 866.128 349.107C865.676 349.572 865.131 349.933 864.494 350.19C863.857 350.45 863.156 350.578 862.392 350.578C861.626 350.578 860.928 350.45 860.294 350.19C859.651 349.933 859.103 349.572 858.657 349.107C858.204 348.646 857.847 348.089 857.592 347.447C857.337 346.808 857.21 346.105 857.21 345.346Z" fill="#212D5F"/>
<path fill-rule="evenodd" clip-rule="evenodd" d="M870.373 340.366H871.576L877.682 349.086H877.706V340.366H878.642V350.328H877.438L871.336 341.604H871.312V350.328H870.373V340.366Z" fill="#212D5F"/>
<path fill-rule="evenodd" clip-rule="evenodd" d="M882.096 340.366H888.223V341.21H883.028V344.754H887.899V345.601H883.028V349.478H888.453V350.328H882.096V340.366Z" fill="#212D5F"/>
<path fill-rule="evenodd" clip-rule="evenodd" d="M789.99 323.205C789.99 323.205 817.647 302.593 876.166 313.821C876.166 313.821 829.618 304.605 789.99 323.205Z" fill="#B7C6E0"/>
<path fill-rule="evenodd" clip-rule="evenodd" d="M792.336 546.658H898.639V545.386H792.336V546.658Z" fill="#819BC8"/>
<path fill-rule="evenodd" clip-rule="evenodd" d="M792.335 545.387V363.304H897.088L793.883 364.597L792.335 546.026V545.387Z" fill="#C60019"/>
<path fill-rule="evenodd" clip-rule="evenodd" d="M792.335 545.387V363.304H897.088L793.883 364.597L792.335 546.026V545.387Z" fill="#819BC8"/>
<path fill-rule="evenodd" clip-rule="evenodd" d="M793.884 564.708H897.088V549.737H793.884V564.708Z" fill="#819BC8"/>
</g>
<path fill-rule="evenodd" clip-rule="evenodd" d="M773.374 531.701C773.222 530.34 772.887 512.527 773.323 474.046C773.466 461.443 765.655 449.895 753.885 445.326C737.524 438.958 721.965 431.991 715.953 429.249L695.984 340.375H709.301L706.494 328.401C704.792 321.137 698.312 316 690.852 316H686.988H584.892H205.54C203.031 316 201 318.042 201 320.54V532.798C201 534.006 201.478 535.164 202.33 536.017C203.183 536.86 204.331 537.337 205.54 537.337H205.55C220.438 537.307 258.99 537.277 277.94 537.246C308.854 537.205 344.36 537.165 381.845 537.114C452.357 537.043 529.847 536.982 596.835 536.982C636.311 536.982 672.141 537.002 700.739 537.043C739.911 537.114 765.523 537.225 768.388 537.409H768.438C768.621 537.429 768.804 537.439 768.997 537.439C770.479 537.439 771.891 536.708 772.744 535.458C773.506 534.342 773.72 532.971 773.374 531.701Z" fill="#CAD8F1"/>
<path fill-rule="evenodd" clip-rule="evenodd" d="M604.949 348.133H676.294L692.951 422.271H604.949V348.133Z" fill="#819BC8"/>
<path fill-rule="evenodd" clip-rule="evenodd" d="M511.77 422.271H590.986V348.133H511.77V422.271Z" fill="#819BC8"/>
<path fill-rule="evenodd" clip-rule="evenodd" d="M416.195 422.271H495.411V348.133H416.195V422.271Z" fill="#819BC8"/>
<path fill-rule="evenodd" clip-rule="evenodd" d="M320.622 422.271H399.838V348.133H320.622V422.271Z" fill="#819BC8"/>
<path fill-rule="evenodd" clip-rule="evenodd" d="M225.048 422.271H304.264V348.133H225.048V422.271Z" fill="#EDECEB"/>
<path fill-rule="evenodd" clip-rule="evenodd" d="M719.873 505.29H778.451V530.53C778.451 537.63 772.695 543.386 765.595 543.386H719.873V505.29Z" fill="#212D5F"/>
<path fill-rule="evenodd" clip-rule="evenodd" d="M596.824 536.524C596.824 536.676 596.824 536.829 596.835 536.981C636.31 536.981 672.14 537.002 700.739 537.042C700.75 536.87 700.75 536.697 700.75 536.524C700.75 507.875 677.441 484.557 648.782 484.557C620.132 484.557 596.824 507.875 596.824 536.524Z" fill="#819BC8"/>
<path fill-rule="evenodd" clip-rule="evenodd" d="M277.931 536.524C277.931 536.768 277.931 537.002 277.941 537.245C308.855 537.205 344.361 537.164 381.846 537.113C381.856 536.92 381.856 536.717 381.856 536.524C381.856 507.875 358.548 484.557 329.888 484.557C301.239 484.557 277.931 507.875 277.931 536.524Z" fill="#819BC8"/>
<path fill-rule="evenodd" clip-rule="evenodd" d="M648.785 494.716C671.875 494.716 690.594 513.434 690.594 536.525C690.594 559.614 671.875 578.333 648.785 578.333C625.695 578.333 606.977 559.614 606.977 536.525C606.977 513.434 625.695 494.716 648.785 494.716Z" fill="#212D5F"/>
<path fill-rule="evenodd" clip-rule="evenodd" d="M648.785 511.443C662.638 511.443 673.867 522.672 673.867 536.525C673.867 550.377 662.638 561.606 648.785 561.606C634.933 561.606 623.704 550.377 623.704 536.525C623.704 522.672 634.933 511.443 648.785 511.443Z" fill="white"/>
<path fill-rule="evenodd" clip-rule="evenodd" d="M648.785 524.297C655.538 524.297 661.013 529.771 661.013 536.524C661.013 543.277 655.538 548.752 648.785 548.752C642.032 548.752 636.557 543.277 636.557 536.524C636.557 529.771 642.032 524.297 648.785 524.297Z" fill="#212D5F"/>
<path fill-rule="evenodd" clip-rule="evenodd" d="M329.892 494.716C352.982 494.716 371.7 513.434 371.7 536.525C371.7 559.614 352.982 578.333 329.892 578.333C306.801 578.333 288.083 559.614 288.083 536.525C288.083 513.434 306.801 494.716 329.892 494.716Z" fill="#212D5F"/>
<path fill-rule="evenodd" clip-rule="evenodd" d="M329.892 511.443C343.744 511.443 354.973 522.672 354.973 536.525C354.973 550.377 343.744 561.606 329.892 561.606C316.039 561.606 304.81 550.377 304.81 536.525C304.81 522.672 316.039 511.443 329.892 511.443Z" fill="white"/>
<path fill-rule="evenodd" clip-rule="evenodd" d="M329.892 524.297C336.645 524.297 342.12 529.771 342.12 536.524C342.12 543.277 336.645 548.752 329.892 548.752C323.139 548.752 317.664 543.277 317.664 536.524C317.664 529.771 323.139 524.297 329.892 524.297Z" fill="#212D5F"/>
<path fill-rule="evenodd" clip-rule="evenodd" d="M201 446.082H707.626V432.56H201V446.082Z" fill="#212D5F"/>
<path fill-rule="evenodd" clip-rule="evenodd" d="M201 478.301H707.626V473.568H201V478.301Z" fill="#212D5F"/>
<path fill-rule="evenodd" clip-rule="evenodd" d="M420.624 463.621C420.781 465.078 421.379 466.353 422.992 466.353C424.527 466.353 425.1 465.39 425.1 464.063C425.1 462.633 424.396 461.774 422.186 460.733C419.167 459.303 417.971 458.028 417.971 455.4C417.971 452.59 419.792 450.665 422.966 450.665C426.946 450.665 427.909 453.345 427.961 455.634H424.865C424.787 454.62 424.527 453.137 422.913 453.137C421.665 453.137 421.119 453.943 421.119 455.14C421.119 456.414 421.69 457.013 423.746 457.975C426.895 459.433 428.325 460.837 428.325 463.777C428.325 466.561 426.608 468.85 422.888 468.85C418.829 468.85 417.606 466.249 417.502 463.621H420.624Z" fill="#212D5F"/>
<path fill-rule="evenodd" clip-rule="evenodd" d="M440.864 463.413C440.787 464.298 440.448 468.85 435.584 468.85C430.562 468.85 429.99 464.454 429.99 459.719C429.99 454.021 431.655 450.665 435.765 450.665C440.422 450.665 440.787 454.671 440.864 456.077H437.742C437.69 455.478 437.665 453.319 435.714 453.319C433.736 453.319 433.242 455.738 433.242 459.77C433.242 463.101 433.58 466.223 435.635 466.223C437.509 466.223 437.665 464.09 437.742 463.413H440.864Z" fill="#212D5F"/>
<path fill-rule="evenodd" clip-rule="evenodd" d="M442.84 450.925H445.987V457.898H450.229V450.925H453.403V468.538H450.229V460.63H445.987V468.538H442.84V450.925Z" fill="#212D5F"/>
<path fill-rule="evenodd" clip-rule="evenodd" d="M459.099 459.537C459.099 463.725 459.749 466.197 461.597 466.197C463.548 466.197 464.094 463.908 464.094 459.537C464.094 455.453 463.495 453.319 461.597 453.319C459.698 453.319 459.099 455.608 459.099 459.537ZM467.32 459.615C467.32 466.041 465.578 468.851 461.518 468.851C457.72 468.851 455.873 466.093 455.873 459.563C455.873 453.215 458.033 450.665 461.649 450.665C465.499 450.665 467.32 453.501 467.32 459.615Z" fill="#212D5F"/>
<path fill-rule="evenodd" clip-rule="evenodd" d="M472.547 459.537C472.547 463.725 473.197 466.197 475.044 466.197C476.996 466.197 477.542 463.908 477.542 459.537C477.542 455.453 476.943 453.319 475.044 453.319C473.145 453.319 472.547 455.608 472.547 459.537ZM480.768 459.615C480.768 466.041 479.025 468.851 474.966 468.851C471.168 468.851 469.321 466.093 469.321 459.563C469.321 453.215 471.48 450.665 475.097 450.665C478.946 450.665 480.768 453.501 480.768 459.615Z" fill="#212D5F"/>
<path fill-rule="evenodd" clip-rule="evenodd" d="M483.239 450.925H486.387V465.859H492.423L492.11 468.538H483.239V450.925Z" fill="#212D5F"/>
<path fill-rule="evenodd" clip-rule="evenodd" d="M501.916 466.093H503.789C505.35 466.093 506.261 465.286 506.261 463.309C506.261 461.488 505.506 460.422 503.45 460.422H501.916V466.093ZM503.425 457.95C505.376 457.95 505.896 457.196 505.896 455.687C505.896 454.151 505.09 453.449 503.528 453.449H501.916V457.95H503.425ZM498.819 450.925H504.179C507.249 450.925 508.914 452.616 508.914 455.4C508.914 457.612 507.873 458.704 506.885 459.069C508.134 459.563 509.435 460.708 509.435 463.362C509.435 466.718 507.249 468.538 504.127 468.538H498.819V450.925Z" fill="#212D5F"/>
<path fill-rule="evenodd" clip-rule="evenodd" d="M514.662 450.925V463.049C514.662 464.48 515.027 466.197 516.977 466.197C518.851 466.197 519.241 464.766 519.241 463.075V450.925H522.39V463.127C522.39 466.275 521.167 468.851 516.926 468.851C512.737 468.851 511.515 466.431 511.515 463.127V450.925H514.662Z" fill="#212D5F"/>
<path fill-rule="evenodd" clip-rule="evenodd" d="M527.383 463.621C527.54 465.078 528.138 466.353 529.751 466.353C531.286 466.353 531.859 465.39 531.859 464.063C531.859 462.633 531.155 461.774 528.945 460.733C525.926 459.303 524.73 458.028 524.73 455.4C524.73 452.59 526.551 450.665 529.725 450.665C533.705 450.665 534.668 453.345 534.72 455.634H531.624C531.546 454.62 531.286 453.137 529.673 453.137C528.424 453.137 527.878 453.943 527.878 455.14C527.878 456.414 528.45 457.013 530.505 457.975C533.654 459.433 535.084 460.837 535.084 463.777C535.084 466.561 533.367 468.85 529.647 468.85C525.588 468.85 524.365 466.249 524.261 463.621H527.383Z" fill="#212D5F"/>
<path fill-rule="evenodd" clip-rule="evenodd" d="M557.293 510.665H574.793V503.165H557.293V510.665Z" fill="#819BC8"/>
<path fill-rule="evenodd" clip-rule="evenodd" d="M392.96 510.665H410.46V503.165H392.96V510.665Z" fill="#819BC8"/>
<path fill-rule="evenodd" clip-rule="evenodd" d="M244.626 510.665H262.126V503.165H244.626V510.665Z" fill="#819BC8"/>
</svg>
