<svg width="952" height="354" viewBox="0 0 952 354" fill="none" xmlns="http://www.w3.org/2000/svg">
<path fill-rule="evenodd" clip-rule="evenodd" d="M790.09 345.729C801.612 351.312 522.185 354.954 281.676 352.412C41.1673 349.871 -69.1668 339.946 45.6001 334.658C160.367 329.369 778.568 340.146 790.09 345.729Z" fill="#B3B9C9"/>
<path fill-rule="evenodd" clip-rule="evenodd" d="M62.0378 291.655C61.5511 293.611 61.5279 295.565 61.582 297.519L23.611 301.669V288.079C25.9981 291.961 29.531 296.435 33.9059 298.145C35.129 298.626 36.3573 298.865 37.5804 298.865C38.8731 298.865 40.158 298.556 41.4326 298.021C41.9631 298.237 42.9158 298.531 44.3346 298.531C45.447 298.531 46.8144 298.348 48.4186 297.792C57.2071 294.752 71.2305 281.59 89.2838 237.202V291.655H109.621C109.433 290.713 109.333 289.742 109.333 288.741V285.829C109.333 277.692 115.93 271.1 124.07 271.1C132.207 271.1 138.804 277.692 138.804 285.829V288.741C138.804 289.433 138.742 290.105 138.649 290.769C130.419 291.011 122.187 291.253 113.957 291.655C96.481 292.167 79.5169 291.655 62.0378 291.655ZM61.5228 303.988C61.1365 304.287 60.7374 304.557 60.3383 304.83L61.5974 298.039C61.6618 300.024 61.77 302.006 61.5228 303.988ZM40.4464 295.663V296.245C38.5177 297.004 36.6199 296.999 34.6578 296.234C29.6314 294.27 25.6479 287.819 23.611 283.883V282.565C29.4151 291.863 37.7967 294.909 40.4464 295.663ZM42.5038 294.438C61.4198 287.323 82.4601 243.509 89.2838 228.301V231.652C69.7087 281.389 55.0441 293.207 47.9371 295.784C45.1561 296.791 43.3252 296.495 42.5038 296.237V294.438ZM217.802 176.644H217.807V180.189L151.486 202.958V200.468L151.493 200.445C151.645 199.992 151.797 199.56 151.923 199.104L217.802 176.644ZM181.216 168.605L181.229 168.599V170.314L181.216 170.319V168.605ZM186.366 166.216L185.015 166.841L186.366 166.213V166.216ZM347.458 211.007C364.379 222.37 381.734 231.804 399.221 239.221C382.355 234.765 363.617 228.844 345.061 221.101C336.522 213.754 315.258 190.972 302.808 177.455V175.421C313.038 185.038 328.275 198.126 347.458 211.007ZM313.257 227.086C309.542 224.277 306.07 221.42 302.808 218.557V203.66C311.293 208.981 320.534 214.004 330.53 218.696C352.209 228.877 377.411 237.568 405.432 244.534C413.711 246.593 421.729 248.364 429.372 249.906C448.744 255.454 468.136 258.44 487.314 258.834C487.111 259.562 486.987 260.314 486.959 261.094L486.843 261.202C401.302 276.797 345.244 251.271 313.257 227.086ZM302.808 182.771C312.459 193.222 325.831 207.509 335.274 216.838C324.07 211.725 313.113 205.89 302.808 199.294V182.771ZM172.049 279.837V289.379C165.195 289.804 158.34 290.116 151.486 290.35V217.535L217.807 196.723V279.837H172.049ZM259.831 279.837C259.702 279.013 259.651 278.163 259.651 277.314V272.886C259.651 268.124 261.582 263.851 264.698 260.736C266.063 259.372 267.633 258.265 269.359 257.441C275.101 260.195 279.066 266.09 279.066 272.886V277.314C279.066 278.163 279.015 279.013 278.861 279.837H259.831ZM529.068 272.124L319.759 279.834V279.837H302.808V223.304C305.393 225.5 308.094 227.686 310.942 229.843C331.725 245.589 355.397 256.831 381.302 263.246C398.469 267.498 416.641 269.625 435.673 269.625C452.333 269.625 469.655 267.993 487.531 264.729C489.035 269.01 493.343 272.124 498.487 272.124C504.873 272.124 510.052 267.352 510.052 261.462C510.052 255.572 504.873 250.799 498.487 250.799C494.633 250.799 491.244 252.555 489.14 255.225C480.061 254.388 458.026 251.999 430.742 246.521C398.019 237.174 370.129 221.886 349.549 208.08C328.885 194.21 312.856 180.111 302.808 170.461V131.304H302.795L296.069 108.445L290.381 131.304H287.425L282.316 125.401V116.86L278.549 115.38L267.924 92.9405L254.215 88.9967L251.499 94.6472L248.903 85.8279L242.52 111.485L237.851 111.699L233.994 105.613L229.645 118.706L224.355 100.735L218.513 124.215L217.802 124.567V132.982H217.807V155.525L217.802 155.528L186.907 168.036V165.413L180.727 168.296V170.512L180.722 170.515L156.406 180.369C156.381 180.14 156.381 179.885 156.381 179.658C156.561 178.822 156.254 178.013 155.521 177.329C154.532 176.415 152.938 175.962 151.923 176.291C150.404 176.798 148.177 178.34 148.148 180.088C147.695 181.481 147.443 182.771 147.314 184.037L140.454 186.82L128.782 163.273L117.472 161.634L110.749 173.413L107.96 163.273L102.051 180.405H102.391L100.32 181.486L96.9084 169.086L90.9962 186.215H91.2537V189.641H89.2838V223.181C86.1372 230.473 61.5743 286.03 41.1545 292.736L40.4464 292.965V293.501C37.3512 292.484 29.1473 288.986 24.1363 279.36L23.611 279.633V278.292H15.0002V317.992H23.611V306.374L56.2466 307.35C53.0768 309.17 49.9404 310.985 47.6435 314.264C47.1285 315.297 46.6161 316.324 46.6161 317.351C46.6161 321.462 46.1011 326.088 47.1285 330.199C70.2623 329.684 93.9111 330.714 117.042 329.684C135.036 329.169 153.543 327.63 171.535 327.63C171.733 326.17 171.88 324.687 172.049 323.215V341H332.832V294.095L529.068 290.11V272.124Z" fill="#B7C6E0"/>
<path fill-rule="evenodd" clip-rule="evenodd" d="M371.014 76H335.99C331.679 91.9293 322 104 322 104H346.125H360.878H385C385 104 375.323 91.9293 371.014 76Z" fill="#819BC8"/>
<path fill-rule="evenodd" clip-rule="evenodd" d="M322.265 105L322 104.803C333.37 92.3467 336.627 76.1626 336.658 76L337 76.0542C336.968 76.2168 333.694 92.481 322.265 105Z" fill="#44536E"/>
<path fill-rule="evenodd" clip-rule="evenodd" d="M327.279 105L327 104.826C336.048 92.362 338.644 76.1615 338.668 76L339 76.0444C338.975 76.2059 336.371 92.4755 327.279 105Z" fill="#44536E"/>
<path fill-rule="evenodd" clip-rule="evenodd" d="M333.317 105L333 104.857C340.481 92.3781 342.624 76.1628 342.644 76L343 76.0345C342.98 76.1961 340.828 92.4706 333.317 105Z" fill="#44536E"/>
<path fill-rule="evenodd" clip-rule="evenodd" d="M339.324 105L339 104.89C344.161 92.3981 345.643 76.1617 345.656 76L346 76.0247C345.985 76.1876 344.502 92.466 339.324 105Z" fill="#44536E"/>
<path fill-rule="evenodd" clip-rule="evenodd" d="M344.311 105L344 104.932C346.858 92.42 347.676 76.1643 347.686 76L348 76.0161C347.994 76.1791 347.174 92.462 344.311 105Z" fill="#44536E"/>
<path fill-rule="evenodd" clip-rule="evenodd" d="M350.41 105L350 104.978C351.232 92.4467 351.586 76.1633 351.59 76L352 76.0049C351.999 76.167 351.643 92.4591 350.41 105Z" fill="#44536E"/>
<path fill-rule="evenodd" clip-rule="evenodd" d="M355.59 105C354.358 92.4591 354.003 76.167 354 76.0049L354.411 76C354.414 76.1633 354.768 92.4455 356 104.978L355.59 105Z" fill="#44536E"/>
<path fill-rule="evenodd" clip-rule="evenodd" d="M360.69 105C357.829 92.462 357.009 76.1791 357 76.0161L357.319 76C357.326 76.1643 358.144 92.4212 361 104.932L360.69 105Z" fill="#44536E"/>
<path fill-rule="evenodd" clip-rule="evenodd" d="M366.677 105C361.498 92.466 360.014 76.1876 360 76.0247L360.342 76C360.357 76.1617 361.837 92.3981 367 104.89L366.677 105Z" fill="#44536E"/>
<path fill-rule="evenodd" clip-rule="evenodd" d="M372.684 105C365.172 92.4706 363.022 76.1961 363 76.0345L363.356 76C363.376 76.1628 365.52 92.3793 373 104.857L372.684 105Z" fill="#44536E"/>
<path fill-rule="evenodd" clip-rule="evenodd" d="M377.723 105C368.629 92.4755 366.024 76.2059 366 76.0444L366.331 76C366.357 76.1615 368.951 92.362 378 104.826L377.723 105Z" fill="#44536E"/>
<path fill-rule="evenodd" clip-rule="evenodd" d="M384.733 105C373.307 92.481 370.033 76.2168 370 76.0542L370.342 76C370.373 76.1626 373.634 92.3479 385 104.803L384.733 105Z" fill="#44536E"/>
<mask id="mask0" mask-type="alpha" maskUnits="userSpaceOnUse" x="321" y="0" width="64" height="341">
<path fill-rule="evenodd" clip-rule="evenodd" d="M321 341H385V0H321V341Z" fill="white"/>
</mask>
<g mask="url(#mask0)">
<path fill-rule="evenodd" clip-rule="evenodd" d="M324 327H383V106H324V327Z" fill="#7A5444"/>
<path fill-rule="evenodd" clip-rule="evenodd" d="M324 125H383V106H324V125Z" fill="#CAD8F1"/>
<path fill-rule="evenodd" clip-rule="evenodd" d="M324 341H383V159H324V341Z" fill="#CAD8F1"/>
<path fill-rule="evenodd" clip-rule="evenodd" d="M327.866 167.17C327.755 167.107 327.635 167.049 327.5 167C327.365 167.049 327.245 167.107 327.132 167.17C325.946 167.853 326 169.322 326 169.322V171.636V174H329V171.636V169.322C329 169.322 329.054 167.853 327.866 167.17Z" fill="#69A1AC"/>
<path fill-rule="evenodd" clip-rule="evenodd" d="M335.868 167.17C335.755 167.107 335.635 167.049 335.501 167C335.367 167.049 335.247 167.107 335.135 167.17C333.949 167.853 334 169.322 334 169.322V171.636V174H337V171.636V169.322C337 169.322 337.052 167.853 335.868 167.17Z" fill="#819BC8"/>
<path fill-rule="evenodd" clip-rule="evenodd" d="M342.866 167.17C342.756 167.107 342.634 167.049 342.5 167C342.366 167.049 342.245 167.107 342.133 167.17C340.948 167.853 341 169.322 341 169.322V171.636V174H344V171.636V169.322C344 169.322 344.052 167.853 342.866 167.17Z" fill="#819BC8"/>
<path fill-rule="evenodd" clip-rule="evenodd" d="M349.864 167.17C349.755 167.107 349.633 167.049 349.499 167C349.366 167.049 349.245 167.107 349.135 167.17C347.948 167.853 348 169.322 348 169.322V171.636V174H351V171.636V169.322C351 169.322 351.051 167.853 349.864 167.17Z" fill="#819BC8"/>
<path fill-rule="evenodd" clip-rule="evenodd" d="M356.867 167.17C356.754 167.107 356.633 167.049 356.501 167C356.367 167.049 356.245 167.107 356.133 167.17C354.949 167.853 355 169.322 355 169.322V171.636V174H358V171.636V169.322C358 169.322 358.052 167.853 356.867 167.17Z" fill="#819BC8"/>
<path fill-rule="evenodd" clip-rule="evenodd" d="M363.867 167.17C363.756 167.107 363.634 167.049 363.499 167C363.366 167.049 363.243 167.107 363.133 167.17C361.948 167.853 362 169.322 362 169.322V171.636V174H365V171.636V169.322C365 169.322 365.054 167.853 363.867 167.17Z" fill="#819BC8"/>
<path fill-rule="evenodd" clip-rule="evenodd" d="M370.867 167.17C370.754 167.107 370.634 167.049 370.501 167C370.366 167.049 370.245 167.107 370.135 167.17C368.948 167.853 369 169.322 369 169.322V171.636V174H372V171.636V169.322C372 169.322 372.052 167.853 370.867 167.17Z" fill="#819BC8"/>
<path fill-rule="evenodd" clip-rule="evenodd" d="M378.867 167.17C378.756 167.107 378.634 167.049 378.501 167C378.367 167.049 378.245 167.107 378.133 167.17C376.949 167.853 377 169.322 377 169.322V171.636V174H380V171.636V169.322C380 169.322 380.052 167.853 378.867 167.17Z" fill="#69A1AC"/>
<path fill-rule="evenodd" clip-rule="evenodd" d="M322 164H385V117H322V164Z" fill="#CAD8F1"/>
<path fill-rule="evenodd" clip-rule="evenodd" d="M322 121H385V117H322V121Z" fill="#CAD8F1"/>
<path fill-rule="evenodd" clip-rule="evenodd" d="M328 160H378V123H328V160Z" fill="#CAD8F1"/>
<path fill-rule="evenodd" clip-rule="evenodd" d="M321 119H385V117H321V119Z" fill="#CAD8F1"/>
<path fill-rule="evenodd" clip-rule="evenodd" d="M321 165H385V163H321V165Z" fill="#CAD8F1"/>
<path fill-rule="evenodd" clip-rule="evenodd" d="M321 106H384V103H321V106Z" fill="#CAD8F1"/>
<path fill-rule="evenodd" clip-rule="evenodd" d="M327.866 108.17C327.755 108.106 327.635 108.049 327.5 108C327.365 108.049 327.245 108.106 327.132 108.17C325.946 108.852 326 110.322 326 110.322V112.636V115H329V112.636V110.322C329 110.322 329.054 108.852 327.866 108.17Z" fill="#819BC8"/>
<path fill-rule="evenodd" clip-rule="evenodd" d="M335.868 108.17C335.755 108.106 335.635 108.049 335.501 108C335.367 108.049 335.247 108.106 335.135 108.17C333.949 108.852 334 110.322 334 110.322V112.636V115H337V112.636V110.322C337 110.322 337.052 108.852 335.868 108.17Z" fill="#819BC8"/>
<path fill-rule="evenodd" clip-rule="evenodd" d="M342.866 108.17C342.756 108.106 342.634 108.049 342.5 108C342.366 108.049 342.245 108.106 342.133 108.17C340.948 108.852 341 110.322 341 110.322V112.636V115H344V112.636V110.322C344 110.322 344.052 108.852 342.866 108.17Z" fill="#819BC8"/>
<path fill-rule="evenodd" clip-rule="evenodd" d="M349.864 108.17C349.755 108.106 349.633 108.049 349.499 108C349.366 108.049 349.245 108.106 349.135 108.17C347.948 108.852 348 110.322 348 110.322V112.636V115H351V112.636V110.322C351 110.322 351.051 108.852 349.864 108.17Z" fill="#819BC8"/>
<path fill-rule="evenodd" clip-rule="evenodd" d="M356.867 108.17C356.754 108.106 356.633 108.049 356.501 108C356.367 108.049 356.245 108.106 356.133 108.17C354.949 108.852 355 110.322 355 110.322V112.636V115H358V112.636V110.322C358 110.322 358.052 108.852 356.867 108.17Z" fill="#819BC8"/>
<path fill-rule="evenodd" clip-rule="evenodd" d="M363.867 108.17C363.756 108.106 363.634 108.049 363.499 108C363.366 108.049 363.243 108.106 363.133 108.17C361.948 108.852 362 110.322 362 110.322V112.636V115H365V112.636V110.322C365 110.322 365.054 108.852 363.867 108.17Z" fill="#819BC8"/>
<path fill-rule="evenodd" clip-rule="evenodd" d="M370.867 108.17C370.754 108.106 370.634 108.049 370.501 108C370.366 108.049 370.245 108.106 370.135 108.17C368.948 108.852 369 110.322 369 110.322V112.636V115H372V112.636V110.322C372 110.322 372.052 108.852 370.867 108.17Z" fill="#819BC8"/>
<path fill-rule="evenodd" clip-rule="evenodd" d="M378.867 108.17C378.756 108.106 378.634 108.049 378.501 108C378.367 108.049 378.245 108.106 378.133 108.17C376.949 108.852 377 110.322 377 110.322V112.636V115H380V112.636V110.322C380 110.322 380.052 108.852 378.867 108.17Z" fill="#819BC8"/>
<path fill-rule="evenodd" clip-rule="evenodd" d="M327.866 177.163C327.755 177.102 327.635 177.046 327.5 177C327.365 177.046 327.245 177.102 327.132 177.163C325.946 177.821 326 179.237 326 179.237V181.465V204H329V181.465V179.237C329 179.237 329.054 177.821 327.866 177.163Z" fill="#69A1AC"/>
<path fill-rule="evenodd" clip-rule="evenodd" d="M378.867 177.163C378.756 177.102 378.634 177.046 378.501 177C378.367 177.046 378.245 177.102 378.133 177.163C376.949 177.821 377 179.237 377 179.237V181.465V204H380V181.465V179.237C380 179.237 380.052 177.821 378.867 177.163Z" fill="#69A1AC"/>
<path fill-rule="evenodd" clip-rule="evenodd" d="M335.868 177.163C335.755 177.102 335.635 177.046 335.501 177C335.367 177.046 335.247 177.102 335.135 177.163C333.949 177.821 334 179.237 334 179.237V181.465V204H337V181.465V179.237C337 179.237 337.052 177.821 335.868 177.163Z" fill="#819BC8"/>
<path fill-rule="evenodd" clip-rule="evenodd" d="M342.866 177.163C342.756 177.102 342.634 177.046 342.5 177C342.366 177.046 342.245 177.102 342.133 177.163C340.948 177.821 341 179.237 341 179.237V181.465V204H344V181.465V179.237C344 179.237 344.052 177.821 342.866 177.163Z" fill="#819BC8"/>
<path fill-rule="evenodd" clip-rule="evenodd" d="M349.864 177.163C349.755 177.102 349.633 177.046 349.499 177C349.366 177.046 349.245 177.102 349.135 177.163C347.948 177.821 348 179.237 348 179.237V181.465V204H351V181.465V179.237C351 179.237 351.051 177.821 349.864 177.163Z" fill="#819BC8"/>
<path fill-rule="evenodd" clip-rule="evenodd" d="M356.867 177.163C356.754 177.102 356.633 177.046 356.501 177C356.367 177.046 356.245 177.102 356.133 177.163C354.949 177.821 355 179.237 355 179.237V181.465V204H358V181.465V179.237C358 179.237 358.052 177.821 356.867 177.163Z" fill="#819BC8"/>
<path fill-rule="evenodd" clip-rule="evenodd" d="M363.867 177.163C363.756 177.102 363.634 177.046 363.499 177C363.366 177.046 363.243 177.102 363.133 177.163C361.948 177.821 362 179.237 362 179.237V181.465V204H365V181.465V179.237C365 179.237 365.054 177.821 363.867 177.163Z" fill="#819BC8"/>
<path fill-rule="evenodd" clip-rule="evenodd" d="M370.867 177.163C370.754 177.102 370.634 177.046 370.501 177C370.366 177.046 370.245 177.102 370.135 177.163C368.948 177.821 369 179.237 369 179.237V181.465V204H372V181.465V179.237C372 179.237 372.052 177.821 370.867 177.163Z" fill="#819BC8"/>
<path fill-rule="evenodd" clip-rule="evenodd" d="M334 161H372V123H334V161Z" fill="#212D5F"/>
<path fill-rule="evenodd" clip-rule="evenodd" d="M334 161H372V123H334V161Z" stroke="#CAD8F1" stroke-width="1.975" stroke-linecap="round" stroke-linejoin="round"/>
<path fill-rule="evenodd" clip-rule="evenodd" d="M371 142.001C371 151.942 362.941 160 352.999 160C343.058 160 335 151.942 335 142.001C335 132.059 343.058 124 352.999 124C362.941 124 371 132.059 371 142.001Z" fill="#1A1800"/>
<path fill-rule="evenodd" clip-rule="evenodd" d="M352.999 124.361C343.273 124.361 335.361 132.272 335.361 142C335.361 151.727 343.273 159.639 352.999 159.639C362.725 159.639 370.638 151.727 370.638 142C370.638 132.272 362.725 124.361 352.999 124.361ZM352.999 160C343.075 160 335 151.925 335 142C335 132.074 343.075 124 352.999 124C362.927 124 371 132.074 371 142C371 151.925 362.927 160 352.999 160Z" fill="#404142"/>
<path fill-rule="evenodd" clip-rule="evenodd" d="M371 142C371 151.94 362.941 160 352.999 160C343.058 160 335 151.94 335 142C335 132.059 343.058 124 352.999 124C362.941 124 371 132.059 371 142Z" fill="white"/>
<path fill-rule="evenodd" clip-rule="evenodd" d="M352.999 124.361C343.273 124.361 335.361 132.272 335.361 142C335.361 151.727 343.273 159.639 352.999 159.639C362.725 159.639 370.638 151.727 370.638 142C370.638 132.272 362.725 124.361 352.999 124.361ZM352.999 160C343.075 160 335 151.925 335 142C335 132.074 343.075 124 352.999 124C362.927 124 371 132.074 371 142C371 151.925 362.927 160 352.999 160Z" fill="#404142"/>
<path fill-rule="evenodd" clip-rule="evenodd" d="M355 142C355 143.105 354.106 144 352.999 144C351.897 144 351 143.105 351 142C351 140.896 351.897 140 352.999 140C354.106 140 355 140.896 355 142Z" fill="#404142"/>
<path fill-rule="evenodd" clip-rule="evenodd" d="M371 142C371 151.94 362.941 160 352.999 160C343.058 160 335 151.94 335 142C335 132.059 343.058 124 352.999 124C362.941 124 371 132.059 371 142Z" fill="white"/>
<path fill-rule="evenodd" clip-rule="evenodd" d="M352.999 124.361C343.273 124.361 335.361 132.272 335.361 142C335.361 151.727 343.273 159.639 352.999 159.639C362.725 159.639 370.638 151.727 370.638 142C370.638 132.272 362.725 124.361 352.999 124.361ZM352.999 160C343.075 160 335 151.925 335 142C335 132.074 343.075 124 352.999 124C362.927 124 371 132.074 371 142C371 151.925 362.927 160 352.999 160Z" fill="#404142"/>
<path fill-rule="evenodd" clip-rule="evenodd" d="M355 142C355 143.105 354.106 144 352.999 144C351.897 144 351 143.105 351 142C351 140.896 351.897 140 352.999 140C354.106 140 355 140.896 355 142Z" fill="#404142"/>
<path fill-rule="evenodd" clip-rule="evenodd" d="M371 142.001C371 151.942 362.941 160 352.999 160C343.058 160 335 151.942 335 142.001C335 132.059 343.058 124 352.999 124C362.941 124 371 132.059 371 142.001Z" fill="white"/>
<path opacity="0.460598" fill-rule="evenodd" clip-rule="evenodd" d="M364.787 148.374C360.759 150.6 355.678 151.629 351.087 151.503C346.312 151.373 341.873 149.716 338.422 146.389C337.082 145.1 335.902 143.619 335 142C335 142.026 335 142.052 335 142.078C335 151.976 343.071 160 353.032 160C362.488 160 370.24 152.768 371 143.565C369.179 145.464 367.065 147.114 364.787 148.374Z" fill="#C1C3C4"/>
<path fill-rule="evenodd" clip-rule="evenodd" d="M352.999 124.361C343.273 124.361 335.361 132.272 335.361 142C335.361 151.727 343.273 159.639 352.999 159.639C362.725 159.639 370.638 151.727 370.638 142C370.638 132.272 362.725 124.361 352.999 124.361ZM352.999 160C343.075 160 335 151.925 335 142C335 132.074 343.075 124 352.999 124C362.927 124 371 132.074 371 142C371 151.925 362.927 160 352.999 160Z" fill="#404142"/>
<path fill-rule="evenodd" clip-rule="evenodd" d="M352.999 130.358C346.582 130.358 341.357 135.581 341.357 142C341.357 148.419 346.582 153.642 352.999 153.642C359.421 153.642 364.642 148.419 364.642 142C364.642 135.581 359.421 130.358 352.999 130.358ZM352.999 154C346.384 154 341 148.617 341 142C341 135.383 346.384 130 352.999 130C359.616 130 365 135.383 365 142C365 148.617 359.616 154 352.999 154Z" fill="#404142"/>
<path fill-rule="evenodd" clip-rule="evenodd" d="M353.499 131.366C347.362 131.366 342.366 136.361 342.366 142.501C342.366 148.639 347.362 153.635 353.499 153.635C359.638 153.635 364.635 148.639 364.635 142.501C364.635 136.361 359.638 131.366 353.499 131.366ZM353.499 154C347.158 154 342 148.84 342 142.501C342 136.158 347.158 131 353.499 131C359.842 131 365 136.158 365 142.501C365 148.84 359.842 154 353.499 154Z" fill="#404142"/>
<path fill-rule="evenodd" clip-rule="evenodd" d="M353.499 125.362C344.601 125.362 337.362 132.602 337.362 141.5C337.362 150.4 344.601 157.638 353.499 157.638C362.397 157.638 369.637 150.4 369.637 141.5C369.637 132.602 362.397 125.362 353.499 125.362ZM353.499 158C344.403 158 337 150.599 337 141.5C337 132.402 344.403 125 353.499 125C362.597 125 370 132.402 370 141.5C370 150.599 362.597 158 353.499 158Z" fill="#404142"/>
<path fill-rule="evenodd" clip-rule="evenodd" d="M355 142.001C355 143.105 354.106 144 352.999 144C351.897 144 351 143.105 351 142.001C351 140.895 351.897 140 352.999 140C354.106 140 355 140.895 355 142.001Z" fill="#202123"/>
<path fill-rule="evenodd" clip-rule="evenodd" d="M354.623 145L356 143.586L342 131L354.623 145Z" fill="#161618"/>
<path fill-rule="evenodd" clip-rule="evenodd" d="M356 143.232C355.923 143.094 355.805 143 355.671 143L354.436 143.006C354.194 143.006 354 143.297 354 143.655L354.003 145.487C354.003 145.699 354.077 145.877 354.184 145.995C355.169 146.098 355.942 144.636 356 143.232Z" fill="#161618"/>
<path fill-rule="evenodd" clip-rule="evenodd" d="M352.852 133.761C353.626 134.019 354.146 133.395 353.864 132.845C353.463 132.067 352.728 131.345 352.404 131.049C352.382 131.029 352.368 131.016 352.35 131C352.333 131.019 352.32 131.032 352.302 131.056C352.012 131.388 351.361 132.195 351.047 133.019C350.822 133.61 351.43 134.17 352.185 133.786L352.438 138.399L352.473 139.031C352.263 139.311 351.96 139.637 351.648 139.699L352.54 140.252L352.554 140.481L352.563 140.636C352.309 140.802 352.144 141.102 352.16 141.439C352.181 141.777 352.377 142.057 352.648 142.19L352.651 142.273L352.145 143.814C352.571 143.652 352.827 143.765 352.971 143.895C353.009 143.93 353.041 143.966 353.064 144C353.083 143.963 353.11 143.924 353.144 143.884C353.273 143.737 353.516 143.594 353.956 143.703L353.319 142.232L353.317 142.202C353.632 142.059 353.847 141.721 353.827 141.336C353.807 140.953 353.554 140.645 353.225 140.543L353.219 140.441L353.206 140.187L354 139.554C353.699 139.532 353.379 139.273 353.143 139.031L353.107 138.357L352.852 133.761Z" fill="#2E2E30"/>
<path fill-rule="evenodd" clip-rule="evenodd" d="M352.999 141.471C353.015 141.746 352.806 141.983 352.53 141.999C352.255 142.014 352.019 141.804 352.001 141.529C351.987 141.253 352.196 141.017 352.471 141.001C352.748 140.986 352.984 141.195 352.999 141.471Z" fill="#0D0D0E"/>
<path fill-rule="evenodd" clip-rule="evenodd" d="M353 130H353.295V124H353V130Z" fill="#404142"/>
<path fill-rule="evenodd" clip-rule="evenodd" d="M353 160H353.295V154H353V160Z" fill="#404142"/>
<path fill-rule="evenodd" clip-rule="evenodd" d="M365 142.294H371V142H365V142.294Z" fill="#404142"/>
<path fill-rule="evenodd" clip-rule="evenodd" d="M335 142.294H341V142H335V142.294Z" fill="#404142"/>
<path fill-rule="evenodd" clip-rule="evenodd" d="M359.27 132L359 131.802L361.729 126L362 126.198L359.27 132Z" fill="#404142"/>
<path fill-rule="evenodd" clip-rule="evenodd" d="M344.289 157L344 156.825L346.713 152L347 152.175L344.289 157Z" fill="#404142"/>
<path fill-rule="evenodd" clip-rule="evenodd" d="M367.826 151L363 148.284L363.173 148L368 150.717L367.826 151Z" fill="#404142"/>
<path fill-rule="evenodd" clip-rule="evenodd" d="M342.822 136L338 133.288L338.175 133L343 135.712L342.822 136Z" fill="#404142"/>
<path fill-rule="evenodd" clip-rule="evenodd" d="M363.198 136L363 135.729L368.801 133L369 133.27L363.198 136Z" fill="#404142"/>
<path fill-rule="evenodd" clip-rule="evenodd" d="M338.175 151L338 150.712L342.823 148L343 148.287L338.175 151Z" fill="#404142"/>
<path fill-rule="evenodd" clip-rule="evenodd" d="M361.717 157L359 152.171L359.28 152L362 156.829L361.717 157Z" fill="#404142"/>
<path fill-rule="evenodd" clip-rule="evenodd" d="M346.713 131L344 126.175L344.288 126L347 130.825L346.713 131Z" fill="#404142"/>
<path fill-rule="evenodd" clip-rule="evenodd" d="M353 125H353.295V124H353V125Z" fill="#101012"/>
<path fill-rule="evenodd" clip-rule="evenodd" d="M353 160H353.295V159H353V160Z" fill="#101012"/>
<path fill-rule="evenodd" clip-rule="evenodd" d="M355.294 125L355 124.972L355.127 124L355.42 124.027L355.294 125Z" fill="#101012"/>
<path fill-rule="evenodd" clip-rule="evenodd" d="M351.293 160L351 159.973L351.128 159L351.421 159.028L351.293 160Z" fill="#101012"/>
<path fill-rule="evenodd" clip-rule="evenodd" d="M356.288 125L356 124.946L356.248 124L356.536 124.054L356.288 125Z" fill="#101012"/>
<path fill-rule="evenodd" clip-rule="evenodd" d="M349.287 159L349 158.948L349.249 158L349.538 158.054L349.287 159Z" fill="#101012"/>
<path fill-rule="evenodd" clip-rule="evenodd" d="M358.279 126L358 125.921L358.367 125L358.646 125.078L358.279 126Z" fill="#101012"/>
<path fill-rule="evenodd" clip-rule="evenodd" d="M347.28 159L347 158.921L347.368 158L347.649 158.079L347.28 159Z" fill="#101012"/>
<path fill-rule="evenodd" clip-rule="evenodd" d="M360.27 127L360 126.897L360.476 126L360.746 126.102L360.27 127Z" fill="#101012"/>
<path fill-rule="evenodd" clip-rule="evenodd" d="M346.269 158L346 157.897L346.474 157L346.746 157.103L346.269 158Z" fill="#101012"/>
<path fill-rule="evenodd" clip-rule="evenodd" d="M351.128 125L351 124.027L351.293 124L351.421 124.972L351.128 125Z" fill="#101012"/>
<path fill-rule="evenodd" clip-rule="evenodd" d="M355.127 160L355 159.028L355.294 159L355.42 159.973L355.127 160Z" fill="#101012"/>
<path fill-rule="evenodd" clip-rule="evenodd" d="M349.25 125L349 124.054L349.288 124L349.539 124.946L349.25 125Z" fill="#101012"/>
<path fill-rule="evenodd" clip-rule="evenodd" d="M356.248 159L356 158.054L356.288 158L356.536 158.948L356.248 159Z" fill="#101012"/>
<path fill-rule="evenodd" clip-rule="evenodd" d="M347.368 126L347 125.078L347.28 125L347.648 125.921L347.368 126Z" fill="#101012"/>
<path fill-rule="evenodd" clip-rule="evenodd" d="M358.367 159L358 158.079L358.279 158L358.646 158.921L358.367 159Z" fill="#101012"/>
<path fill-rule="evenodd" clip-rule="evenodd" d="M346.474 127L346 126.102L346.269 126L346.745 126.897L346.474 127Z" fill="#101012"/>
<path fill-rule="evenodd" clip-rule="evenodd" d="M360.476 158L360 157.103L360.27 157L360.746 157.897L360.476 158Z" fill="#101012"/>
<path fill-rule="evenodd" clip-rule="evenodd" d="M368.102 135.74L368 135.47L368.898 135L369 135.27L368.102 135.74Z" fill="#101012"/>
<path fill-rule="evenodd" clip-rule="evenodd" d="M337.102 149.74L337 149.47L337.896 149L338 149.269L337.102 149.74Z" fill="#101012"/>
<path fill-rule="evenodd" clip-rule="evenodd" d="M369.076 136.637L369 136.356L369.923 136L370 136.281L369.076 136.637Z" fill="#101012"/>
<path fill-rule="evenodd" clip-rule="evenodd" d="M336.076 147.635L336 147.355L336.924 147L337 147.281L336.076 147.635Z" fill="#101012"/>
<path fill-rule="evenodd" clip-rule="evenodd" d="M369.05 138.525L369 138.236L369.95 138L370 138.289L369.05 138.525Z" fill="#101012"/>
<path fill-rule="evenodd" clip-rule="evenodd" d="M336.051 145.524L336 145.236L336.949 145L337 145.289L336.051 145.524Z" fill="#101012"/>
<path fill-rule="evenodd" clip-rule="evenodd" d="M369.025 140.415L369 140.121L369.975 140L370 140.294L369.025 140.415Z" fill="#101012"/>
<path fill-rule="evenodd" clip-rule="evenodd" d="M335.027 144.415L335 144.122L335.974 144L336 144.295L335.027 144.415Z" fill="#101012"/>
<path fill-rule="evenodd" clip-rule="evenodd" d="M366.16 131.926L366 131.688L366.84 131L367 131.236L366.16 131.926Z" fill="#101012"/>
<path fill-rule="evenodd" clip-rule="evenodd" d="M339.159 152.927L339 152.69L339.84 152L340 152.237L339.159 152.927Z" fill="#101012"/>
<path fill-rule="evenodd" clip-rule="evenodd" d="M365.192 131L365 130.783L365.809 130L366 130.217L365.192 131Z" fill="#101012"/>
<path fill-rule="evenodd" clip-rule="evenodd" d="M340.192 154L340 153.783L340.809 153L341 153.217L340.192 154Z" fill="#101012"/>
<path fill-rule="evenodd" clip-rule="evenodd" d="M364.222 129L364 128.818L364.758 128L364.982 128.182L364.222 129Z" fill="#101012"/>
<path fill-rule="evenodd" clip-rule="evenodd" d="M341.221 155L341 154.817L341.76 154L341.981 154.182L341.221 155Z" fill="#101012"/>
<path fill-rule="evenodd" clip-rule="evenodd" d="M362.241 128L362 127.846L362.667 127L362.909 127.154L362.241 128Z" fill="#101012"/>
<path fill-rule="evenodd" clip-rule="evenodd" d="M343.24 156L343 155.846L343.668 155L343.908 155.153L343.24 156Z" fill="#101012"/>
<path fill-rule="evenodd" clip-rule="evenodd" d="M366.843 152.921L366 152.238L366.157 152L367 152.683L366.843 152.921Z" fill="#101012"/>
<path fill-rule="evenodd" clip-rule="evenodd" d="M339.841 131.921L339 131.238L339.158 131L340 131.683L339.841 131.921Z" fill="#101012"/>
<path fill-rule="evenodd" clip-rule="evenodd" d="M365.809 153.997L365 153.218L365.19 153L366 153.779L365.809 153.997Z" fill="#101012"/>
<path fill-rule="evenodd" clip-rule="evenodd" d="M340.812 130.995L340 130.218L340.188 130L341 130.778L340.812 130.995Z" fill="#101012"/>
<path fill-rule="evenodd" clip-rule="evenodd" d="M364.768 155L364 154.185L364.222 154L364.988 154.815L364.768 155Z" fill="#101012"/>
<path fill-rule="evenodd" clip-rule="evenodd" d="M341.767 129L341 128.185L341.222 128L341.988 128.816L341.767 129Z" fill="#101012"/>
<path fill-rule="evenodd" clip-rule="evenodd" d="M363.674 156L363 155.156L363.24 155L363.914 155.844L363.674 156Z" fill="#101012"/>
<path fill-rule="evenodd" clip-rule="evenodd" d="M342.676 128L342 127.155L342.24 127L342.915 127.845L342.676 128Z" fill="#101012"/>
<path fill-rule="evenodd" clip-rule="evenodd" d="M368.899 149.732L368 149.27L368.1 149L369 149.462L368.899 149.732Z" fill="#101012"/>
<path fill-rule="evenodd" clip-rule="evenodd" d="M337.899 135.732L337 135.271L337.1 135L338 135.463L337.899 135.732Z" fill="#101012"/>
<path fill-rule="evenodd" clip-rule="evenodd" d="M369.926 147.628L369 147.281L369.076 147L370 147.347L369.926 147.628Z" fill="#101012"/>
<path fill-rule="evenodd" clip-rule="evenodd" d="M336.925 136.627L336 136.28L336.074 136L337 136.345L336.925 136.627Z" fill="#101012"/>
<path fill-rule="evenodd" clip-rule="evenodd" d="M369.95 145.517L369 145.29L369.049 145L370 145.228L369.95 145.517Z" fill="#101012"/>
<path fill-rule="evenodd" clip-rule="evenodd" d="M336.952 138.517L336 138.288L336.049 138L337 138.227L336.952 138.517Z" fill="#101012"/>
<path fill-rule="evenodd" clip-rule="evenodd" d="M369.975 143.406L369 143.294L369.024 143L370 143.112L369.975 143.406Z" fill="#101012"/>
<path fill-rule="evenodd" clip-rule="evenodd" d="M335.976 140.407L335 140.294L335.025 140L336 140.113L335.976 140.407Z" fill="#101012"/>
<path fill-rule="evenodd" clip-rule="evenodd" d="M352.998 124.734C343.467 124.734 335.713 132.704 335.713 142.5C335.713 152.296 343.467 160.266 352.998 160.266C362.53 160.266 370.284 152.296 370.284 142.5C370.284 132.704 362.53 124.734 352.998 124.734ZM352.998 161C343.073 161 335 152.701 335 142.5C335 132.299 343.073 124 352.998 124C362.924 124 371 132.299 371 142.5C371 152.701 362.924 161 352.998 161Z" fill="#CAD8F1"/>
<path fill-rule="evenodd" clip-rule="evenodd" d="M334.866 94.1703C334.754 94.1062 334.636 94.049 334.501 94C334.367 94.049 334.245 94.1062 334.136 94.1703C332.946 94.8528 333 96.3217 333 96.3217V98.6352V101H336V98.6352V96.3217C336 96.3217 336.052 94.8528 334.866 94.1703Z" fill="#212D5F"/>
<path fill-rule="evenodd" clip-rule="evenodd" d="M334 101H336V97H334V101Z" fill="#212D5F"/>
<path fill-rule="evenodd" clip-rule="evenodd" d="M346.866 94.1703C346.753 94.1062 346.634 94.049 346.5 94C346.366 94.049 346.244 94.1062 346.135 94.1703C344.949 94.8528 345 96.3217 345 96.3217V98.6352V101H348V98.6352V96.3217C348 96.3217 348.051 94.8528 346.866 94.1703Z" fill="#212D5F"/>
<path fill-rule="evenodd" clip-rule="evenodd" d="M346 101H348V97H346V101Z" fill="#212D5F"/>
<path fill-rule="evenodd" clip-rule="evenodd" d="M359.865 94.1703C359.754 94.1062 359.634 94.049 359.501 94C359.366 94.049 359.244 94.1062 359.133 94.1703C357.948 94.8528 358 96.3217 358 96.3217V98.6352V101H361V98.6352V96.3217C361 96.3217 361.051 94.8528 359.865 94.1703Z" fill="#212D5F"/>
<path fill-rule="evenodd" clip-rule="evenodd" d="M358 101H360V97H358V101Z" fill="#212D5F"/>
<path fill-rule="evenodd" clip-rule="evenodd" d="M371.867 94.1703C371.754 94.1062 371.635 94.049 371.501 94C371.366 94.049 371.246 94.1062 371.135 94.1703C369.949 94.8528 370 96.3217 370 96.3217V98.6352V101H373V98.6352V96.3217C373 96.3217 373.052 94.8528 371.867 94.1703Z" fill="#212D5F"/>
<path fill-rule="evenodd" clip-rule="evenodd" d="M370 101H372V97H370V101Z" fill="#212D5F"/>
<path fill-rule="evenodd" clip-rule="evenodd" d="M340.867 84.1704C340.754 84.1062 340.634 84.049 340.502 84C340.367 84.049 340.246 84.1062 340.133 84.1704C338.949 84.8518 339 86.3209 339 86.3209V88.6359V91H342V88.6359V86.3209C342 86.3209 342.052 84.8518 340.867 84.1704Z" fill="#212D5F"/>
<path fill-rule="evenodd" clip-rule="evenodd" d="M340 91H342V87H340V91Z" fill="#212D5F"/>
<path fill-rule="evenodd" clip-rule="evenodd" d="M352.866 84.1704C352.755 84.1062 352.634 84.049 352.499 84C352.366 84.049 352.244 84.1062 352.134 84.1704C350.946 84.8518 351 86.3209 351 86.3209V88.6359V91H354V88.6359V86.3209C354 86.3209 354.052 84.8518 352.866 84.1704Z" fill="#212D5F"/>
<path fill-rule="evenodd" clip-rule="evenodd" d="M352 91H354V87H352V91Z" fill="#212D5F"/>
<path fill-rule="evenodd" clip-rule="evenodd" d="M365.866 84.1704C365.753 84.1062 365.634 84.049 365.499 84C365.366 84.049 365.244 84.1062 365.133 84.1704C363.948 84.8518 364 86.3209 364 86.3209V88.6359V91H367V88.6359V86.3209C367 86.3209 367.052 84.8518 365.866 84.1704Z" fill="#212D5F"/>
<path fill-rule="evenodd" clip-rule="evenodd" d="M364 91H366V87H364V91Z" fill="#212D5F"/>
<path fill-rule="evenodd" clip-rule="evenodd" d="M351.268 8C347.18 33.5992 338 53 338 53H344.115H360.885H367C367 53 357.82 33.5992 353.732 8H351.268Z" fill="#CAD8F1"/>
<path fill-rule="evenodd" clip-rule="evenodd" d="M352.164 8C348.009 33.5992 337 53 337 53H344.894H361.939H370C370 53 358.823 33.5992 354.668 8H352.164Z" fill="#CAD8F1"/>
<path fill-rule="evenodd" clip-rule="evenodd" d="M338.441 51C337.547 52.9457 337 54 337 54H370C370 54 369.443 52.9457 368.537 51H338.441Z" fill="#CAD8F1"/>
<path fill-rule="evenodd" clip-rule="evenodd" d="M367.686 54C357.315 35.936 353.042 7.3263 353 7.03925L353.349 7C353.389 7.28704 357.655 35.844 368 53.8614L367.686 54Z" fill="#44536E"/>
<path fill-rule="evenodd" clip-rule="evenodd" d="M364.686 54C356.432 35.9337 353.034 7.32147 353 7.03436L353.339 7C353.372 7.28712 356.766 35.8564 365 53.881L364.686 54Z" fill="#44536E"/>
<path fill-rule="evenodd" clip-rule="evenodd" d="M361.69 54C358.48 44.5563 356.29 32.2871 355.015 23.656C353.637 14.308 353.006 7.09697 353 7.02578L353.326 7C353.33 7.07242 353.961 14.2761 355.341 23.6167C356.614 32.2331 358.799 44.4839 362 53.9055L361.69 54Z" fill="#44536E"/>
<path fill-rule="evenodd" clip-rule="evenodd" d="M359.658 54C354.955 35.9284 353.019 7.30451 353 7.01842L353.349 7C353.368 7.28609 355.304 35.8854 360 53.93L359.658 54Z" fill="#44536E"/>
<path fill-rule="evenodd" clip-rule="evenodd" d="M356.681 54C354.081 35.9271 353.012 7.29847 353 7.01105L353.324 7C353.334 7.28619 354.404 35.9001 357 53.957L356.681 54Z" fill="#44536E"/>
<path fill-rule="evenodd" clip-rule="evenodd" d="M354.583 54C353.465 35.9267 353.006 7.29121 353 7.00369L353.416 7C353.422 7.28752 353.882 35.9168 355 53.984L354.583 54Z" fill="#44536E"/>
<path fill-rule="evenodd" clip-rule="evenodd" d="M351.416 54L351 53.984C352.118 35.9156 352.577 7.28752 352.583 7L353 7.00369C352.996 7.29121 352.535 35.9267 351.416 54Z" fill="#44536E"/>
<path fill-rule="evenodd" clip-rule="evenodd" d="M349.321 54L349 53.957C351.595 35.9001 352.667 7.28619 352.678 7L353 7.01105C352.99 7.29847 351.919 35.9271 349.321 54Z" fill="#44536E"/>
<path fill-rule="evenodd" clip-rule="evenodd" d="M346.341 54L346 53.93C350.695 35.8854 352.631 7.28609 352.651 7L353 7.01842C352.981 7.30574 351.043 35.9284 346.341 54Z" fill="#44536E"/>
<path fill-rule="evenodd" clip-rule="evenodd" d="M343.31 54L343 53.9055C349.125 35.8699 351.65 7.28721 351.676 7L352 7.02578C351.995 7.09697 351.364 14.308 349.986 23.656C348.71 32.2871 346.518 44.5563 343.31 54Z" fill="#44536E"/>
<path fill-rule="evenodd" clip-rule="evenodd" d="M341.316 54L341 53.881C349.235 35.8564 352.628 7.28712 352.661 7L353 7.03436C352.967 7.32147 349.568 35.9337 341.316 54Z" fill="#44536E"/>
<path fill-rule="evenodd" clip-rule="evenodd" d="M338.311 54L338 53.8614C348.346 35.844 352.611 7.28704 352.651 7L353 7.03925C352.958 7.3263 348.687 35.936 338.311 54Z" fill="#44536E"/>
<path fill-rule="evenodd" clip-rule="evenodd" d="M352.999 8C352.446 8 352 7.78264 352 7.51383V0.48746C352 0.217363 352.446 0 352.999 0C353.552 0 354 0.217363 354 0.48746V7.51383C354 7.78264 353.552 8 352.999 8Z" fill="#CAD8F1"/>
<path fill-rule="evenodd" clip-rule="evenodd" d="M351 5H355V3H351V5Z" fill="#212D5F"/>
<path fill-rule="evenodd" clip-rule="evenodd" d="M351 9H355V7H351V9Z" fill="#212D5F"/>
<path fill-rule="evenodd" clip-rule="evenodd" d="M344.245 43.1205C344.171 43.0753 344.09 43.0336 344.001 43C343.912 43.0336 343.831 43.0753 343.756 43.1205C342.965 43.6083 343 44.6582 343 44.6582V46.3105V48H345V46.3105V44.6582C345 44.6582 345.037 43.6083 344.245 43.1205Z" fill="#212D5F"/>
<path fill-rule="evenodd" clip-rule="evenodd" d="M343 48H345V45H343V48Z" fill="#212D5F"/>
<path fill-rule="evenodd" clip-rule="evenodd" d="M353.244 43.1205C353.17 43.0753 353.09 43.0336 353.001 43C352.911 43.0336 352.831 43.0753 352.757 43.1205C351.965 43.6083 352 44.6582 352 44.6582V46.3105V48H354V46.3105V44.6582C354 44.6582 354.035 43.6083 353.244 43.1205Z" fill="#212D5F"/>
<path fill-rule="evenodd" clip-rule="evenodd" d="M352 48H354V45H352V48Z" fill="#212D5F"/>
<path fill-rule="evenodd" clip-rule="evenodd" d="M362.244 43.1205C362.171 43.0753 362.088 43.0336 361.999 43C361.911 43.0336 361.83 43.0753 361.756 43.1205C360.964 43.6083 361 44.6582 361 44.6582V46.3105V48H363V46.3105V44.6582C363 44.6582 363.035 43.6083 362.244 43.1205Z" fill="#212D5F"/>
<path fill-rule="evenodd" clip-rule="evenodd" d="M361 48H363V45H361V48Z" fill="#212D5F"/>
<path fill-rule="evenodd" clip-rule="evenodd" d="M349.245 35.1216C349.171 35.0765 349.091 35.0348 349.001 35C348.912 35.0348 348.831 35.0765 348.756 35.1216C347.968 35.6082 348 36.6578 348 36.6578V38.3109V40H350V38.3109V36.6578C350 36.6578 350.037 35.6082 349.245 35.1216Z" fill="#212D5F"/>
<path fill-rule="evenodd" clip-rule="evenodd" d="M348 40H350V37H348V40Z" fill="#212D5F"/>
<path fill-rule="evenodd" clip-rule="evenodd" d="M357.243 35.1216C357.169 35.0765 357.089 35.0348 357.001 35C356.91 35.0348 356.83 35.0765 356.757 35.1216C355.967 35.6082 356 36.6578 356 36.6578V38.3109V40H358V38.3109V36.6578C358 36.6578 358.036 35.6082 357.243 35.1216Z" fill="#212D5F"/>
<path fill-rule="evenodd" clip-rule="evenodd" d="M357 40H359V37H357V40Z" fill="#212D5F"/>
<path fill-rule="evenodd" clip-rule="evenodd" d="M353.244 26.1216C353.17 26.0765 353.09 26.0336 353.001 26C352.909 26.0336 352.831 26.0765 352.757 26.1216C351.965 26.6094 352 27.6578 352 27.6578V29.3109V31H354V29.3109V27.6578C354 27.6578 354.035 26.6094 353.244 26.1216Z" fill="#212D5F"/>
<path fill-rule="evenodd" clip-rule="evenodd" d="M352 31H354V28H352V31Z" fill="#212D5F"/>
<path fill-rule="evenodd" clip-rule="evenodd" d="M337 76H369V53H337V76Z" fill="#CAD8F1"/>
<path fill-rule="evenodd" clip-rule="evenodd" d="M341.866 59.0903C341.755 59.0578 341.635 59.0253 341.499 59C341.365 59.0253 341.244 59.0578 341.134 59.0903C339.946 59.4563 340 60.2424 340 60.2424V61.4799V74H343V61.4799V60.2424C343 60.2424 343.052 59.4563 341.866 59.0903Z" fill="#212D5F"/>
<path fill-rule="evenodd" clip-rule="evenodd" d="M347.866 59.0903C347.755 59.0578 347.636 59.0253 347.501 59C347.366 59.0253 347.245 59.0578 347.135 59.0903C345.948 59.4563 346 60.2424 346 60.2424V61.4799V74H349V61.4799V60.2424C349 60.2424 349.052 59.4563 347.866 59.0903Z" fill="#212D5F"/>
<path fill-rule="evenodd" clip-rule="evenodd" d="M353.868 59.0903C353.754 59.0578 353.633 59.0253 353.5 59C353.366 59.0253 353.246 59.0578 353.135 59.0903C351.946 59.4563 352 60.2424 352 60.2424V61.4799V74H355V61.4799V60.2424C355 60.2424 355.052 59.4563 353.868 59.0903Z" fill="#212D5F"/>
<path fill-rule="evenodd" clip-rule="evenodd" d="M359.866 59.0903C359.754 59.0578 359.633 59.0253 359.5 59C359.364 59.0253 359.245 59.0578 359.134 59.0903C357.948 59.4563 358 60.2424 358 60.2424V61.4799V74H361V61.4799V60.2424C361 60.2424 361.049 59.4563 359.866 59.0903Z" fill="#212D5F"/>
<path fill-rule="evenodd" clip-rule="evenodd" d="M364.866 59.0903C364.754 59.0578 364.634 59.0253 364.5 59C364.367 59.0253 364.246 59.0578 364.136 59.0903C362.949 59.4563 363 60.2424 363 60.2424V61.4799V74H366V61.4799V60.2424C366 60.2424 366.051 59.4563 364.866 59.0903Z" fill="#212D5F"/>
<path fill-rule="evenodd" clip-rule="evenodd" d="M340.359 74.6829H342.641V60.4622C342.642 60.4257 342.662 59.7361 341.755 59.4052C341.674 59.3762 341.592 59.3498 341.499 59.3272C341.408 59.3498 341.325 59.3762 341.244 59.4052C340.337 59.7361 340.358 60.4257 340.359 60.4547V74.6829ZM342.999 75H340.001V60.4622C339.998 60.432 339.961 59.531 341.109 59.1107C341.223 59.0705 341.335 59.0378 341.456 59.0088L341.499 59L341.544 59.0088C341.662 59.0365 341.777 59.0705 341.891 59.1107C343.038 59.531 343.002 60.432 342.999 60.4698V75Z" fill="#CAD8F1"/>
<path fill-rule="evenodd" clip-rule="evenodd" d="M346.359 74.6829H348.64V60.4622C348.641 60.4257 348.661 59.7361 347.754 59.4052C347.676 59.3762 347.591 59.3498 347.5 59.3272C347.408 59.3498 347.324 59.3762 347.245 59.4052C346.329 59.7399 346.358 60.4471 346.359 60.4547V74.6829ZM349 75H346.001V60.4622C345.998 60.432 345.962 59.531 347.109 59.1107C347.223 59.0705 347.336 59.0365 347.455 59.0088L347.5 59L347.544 59.0088C347.664 59.0365 347.776 59.0705 347.889 59.1107C349.038 59.531 349.001 60.4308 349 60.4698V75Z" fill="#CAD8F1"/>
<path fill-rule="evenodd" clip-rule="evenodd" d="M352.359 74.6829H354.641V60.4622C354.642 60.4257 354.663 59.7361 353.755 59.4052C353.677 59.3762 353.592 59.3498 353.501 59.3272C353.409 59.3498 353.325 59.3762 353.244 59.4052C352.329 59.7399 352.359 60.4471 352.359 60.4547V74.6829ZM354.999 75H352.001V60.4622C351.998 60.4308 351.962 59.531 353.109 59.1107C353.223 59.0705 353.336 59.0365 353.456 59.0088L353.501 59L353.546 59.0088C353.666 59.0365 353.777 59.0705 353.891 59.1107C355.039 59.531 355.002 60.432 354.999 60.4698V75Z" fill="#CAD8F1"/>
<path fill-rule="evenodd" clip-rule="evenodd" d="M358.358 74.6829H360.644V60.4622C360.644 60.4257 360.662 59.7361 359.753 59.4052C359.675 59.3762 359.589 59.3498 359.5 59.3272C359.406 59.3498 359.323 59.3762 359.244 59.4052C358.337 59.7361 358.357 60.4257 358.357 60.4547L358.358 74.6829ZM361 75H358.001V60.4622C357.998 60.432 357.96 59.531 359.107 59.1107C359.221 59.0705 359.336 59.0378 359.456 59.0088L359.5 59L359.545 59.0088C359.665 59.0378 359.776 59.0705 359.891 59.1107C361.038 59.531 361.001 60.4308 361 60.4698V75Z" fill="#CAD8F1"/>
<path fill-rule="evenodd" clip-rule="evenodd" d="M363.358 74.6829H365.639V60.4622C365.641 60.4257 365.661 59.7361 364.752 59.4052C364.673 59.3762 364.591 59.3498 364.499 59.3272C364.406 59.3498 364.322 59.3762 364.245 59.4052C363.336 59.7361 363.358 60.4257 363.358 60.4547V74.6829ZM366 75H363.001V60.4622C362.998 60.432 362.961 59.531 364.11 59.1107C364.22 59.0705 364.335 59.0365 364.455 59.0088L364.499 59L364.544 59.0088C364.663 59.0365 364.776 59.0705 364.888 59.1107C366.036 59.531 366.001 60.4308 366 60.4698V75Z" fill="#CAD8F1"/>
<path fill-rule="evenodd" clip-rule="evenodd" d="M337 55H369V53H337V55Z" fill="#69A1AC"/>
<path fill-rule="evenodd" clip-rule="evenodd" d="M337 76H369V74H337V76Z" fill="#69A1AC"/>
<path fill-rule="evenodd" clip-rule="evenodd" d="M336 75H339V53H336V75Z" fill="#CAD8F1"/>
<path fill-rule="evenodd" clip-rule="evenodd" d="M337 74H339V55H337V74Z" fill="#819BC8"/>
<path fill-rule="evenodd" clip-rule="evenodd" d="M367 75H370V53H367V75Z" fill="#CAD8F1"/>
<path fill-rule="evenodd" clip-rule="evenodd" d="M368 74H370V55H368V74Z" fill="#819BC8"/>
<path fill-rule="evenodd" clip-rule="evenodd" d="M335 55H370V52H335V55Z" fill="#CAD8F1"/>
<path fill-rule="evenodd" clip-rule="evenodd" d="M335 77H370V74H335V77Z" fill="#CAD8F1"/>
<path fill-rule="evenodd" clip-rule="evenodd" d="M335 75H370V74H335V75Z" fill="#CAD8F1"/>
<path fill-rule="evenodd" clip-rule="evenodd" d="M381 117H384V106H381V117Z" fill="#819BC8"/>
<path fill-rule="evenodd" clip-rule="evenodd" d="M382 116H384V107H382V116Z" fill="#819BC8"/>
<path fill-rule="evenodd" clip-rule="evenodd" d="M323 117H326V106H323V117Z" fill="#819BC8"/>
<path fill-rule="evenodd" clip-rule="evenodd" d="M323 116H325V107H323V116Z" fill="#819BC8"/>
<path fill-rule="evenodd" clip-rule="evenodd" d="M324 163H332V119H324V163Z" fill="#819BC8"/>
<path fill-rule="evenodd" clip-rule="evenodd" d="M324 163H328V119H324V163Z" fill="#819BC8"/>
<path fill-rule="evenodd" clip-rule="evenodd" d="M323 119H332V118H323V119Z" fill="#69A1AC"/>
<path fill-rule="evenodd" clip-rule="evenodd" d="M323 119H332V118H323V119Z" fill="#819BC8"/>
<path fill-rule="evenodd" clip-rule="evenodd" d="M323 162H332V161H323V162Z" fill="#819BC8"/>
<path fill-rule="evenodd" clip-rule="evenodd" d="M375 163H383V119H375V163Z" fill="#819BC8"/>
<path fill-rule="evenodd" clip-rule="evenodd" d="M379 163H383V119H379V163Z" fill="#819BC8"/>
<path fill-rule="evenodd" clip-rule="evenodd" d="M374 119H383V118H374V119Z" fill="#69A1AC"/>
<path fill-rule="evenodd" clip-rule="evenodd" d="M374 119H383V118H374V119Z" fill="#819BC8"/>
<path fill-rule="evenodd" clip-rule="evenodd" d="M374 162H383V161H374V162Z" fill="#819BC8"/>
<path fill-rule="evenodd" clip-rule="evenodd" d="M322 206.865H384V206H322V206.865Z" fill="#819BC8"/>
<path fill-rule="evenodd" clip-rule="evenodd" d="M322 204.864H384V204H322V204.864Z" fill="#819BC8"/>
<path fill-rule="evenodd" clip-rule="evenodd" d="M327.866 210.163C327.755 210.102 327.635 210.045 327.5 210C327.365 210.045 327.245 210.102 327.132 210.163C325.946 210.821 326 212.235 326 212.235V214.464V237H329V214.464V212.235C329 212.235 329.054 210.821 327.866 210.163Z" fill="#69A1AC"/>
<path fill-rule="evenodd" clip-rule="evenodd" d="M378.867 210.163C378.756 210.102 378.634 210.045 378.501 210C378.367 210.045 378.245 210.102 378.133 210.163C376.949 210.821 377 212.235 377 212.235V214.464V237H380V214.464V212.235C380 212.235 380.052 210.821 378.867 210.163Z" fill="#69A1AC"/>
<path fill-rule="evenodd" clip-rule="evenodd" d="M335.868 210.163C335.755 210.102 335.635 210.045 335.501 210C335.367 210.045 335.247 210.102 335.135 210.163C333.949 210.821 334 212.235 334 212.235V214.464V237H337V214.464V212.235C337 212.235 337.052 210.821 335.868 210.163Z" fill="#819BC8"/>
<path fill-rule="evenodd" clip-rule="evenodd" d="M342.866 210.163C342.756 210.102 342.634 210.045 342.5 210C342.366 210.045 342.245 210.102 342.133 210.163C340.948 210.821 341 212.235 341 212.235V214.464V237H344V214.464V212.235C344 212.235 344.052 210.821 342.866 210.163Z" fill="#819BC8"/>
<path fill-rule="evenodd" clip-rule="evenodd" d="M349.864 210.163C349.755 210.102 349.633 210.045 349.499 210C349.366 210.045 349.245 210.102 349.135 210.163C347.948 210.821 348 212.235 348 212.235V214.464V237H351V214.464V212.235C351 212.235 351.051 210.821 349.864 210.163Z" fill="#819BC8"/>
<path fill-rule="evenodd" clip-rule="evenodd" d="M356.867 210.163C356.754 210.102 356.633 210.045 356.501 210C356.367 210.045 356.245 210.102 356.133 210.163C354.949 210.821 355 212.235 355 212.235V214.464V237H358V214.464V212.235C358 212.235 358.052 210.821 356.867 210.163Z" fill="#819BC8"/>
<path fill-rule="evenodd" clip-rule="evenodd" d="M363.867 210.163C363.756 210.102 363.634 210.045 363.499 210C363.366 210.045 363.243 210.102 363.133 210.163C361.948 210.821 362 212.235 362 212.235V214.464V237H365V214.464V212.235C365 212.235 365.054 210.821 363.867 210.163Z" fill="#819BC8"/>
<path fill-rule="evenodd" clip-rule="evenodd" d="M370.867 210.163C370.754 210.102 370.634 210.045 370.501 210C370.366 210.045 370.245 210.102 370.135 210.163C368.948 210.821 369 212.235 369 212.235V214.464V237H372V214.464V212.235C372 212.235 372.052 210.821 370.867 210.163Z" fill="#819BC8"/>
<path fill-rule="evenodd" clip-rule="evenodd" d="M327.866 244.165C327.755 244.1 327.635 244.045 327.5 244C327.365 244.045 327.245 244.1 327.132 244.165C325.946 244.821 326 246.236 326 246.236V248.464V271H329V248.464V246.236C329 246.236 329.054 244.821 327.866 244.165Z" fill="#819BC8"/>
<path fill-rule="evenodd" clip-rule="evenodd" d="M378.867 244.165C378.756 244.1 378.634 244.045 378.501 244C378.367 244.045 378.245 244.1 378.133 244.165C376.949 244.821 377 246.236 377 246.236V248.464V271H380V248.464V246.236C380 246.236 380.052 244.821 378.867 244.165Z" fill="#819BC8"/>
<path fill-rule="evenodd" clip-rule="evenodd" d="M335.868 244.165C335.755 244.1 335.635 244.045 335.501 244C335.367 244.045 335.247 244.1 335.135 244.165C333.949 244.821 334 246.236 334 246.236V248.464V271H337V248.464V246.236C337 246.236 337.052 244.821 335.868 244.165Z" fill="#819BC8"/>
<path fill-rule="evenodd" clip-rule="evenodd" d="M342.866 244.165C342.756 244.1 342.634 244.045 342.5 244C342.366 244.045 342.245 244.1 342.133 244.165C340.948 244.821 341 246.236 341 246.236V248.464V271H344V248.464V246.236C344 246.236 344.052 244.821 342.866 244.165Z" fill="#819BC8"/>
<path fill-rule="evenodd" clip-rule="evenodd" d="M349.864 244.165C349.755 244.1 349.633 244.045 349.499 244C349.366 244.045 349.245 244.1 349.135 244.165C347.948 244.821 348 246.236 348 246.236V248.464V271H351V248.464V246.236C351 246.236 351.051 244.821 349.864 244.165Z" fill="#819BC8"/>
<path fill-rule="evenodd" clip-rule="evenodd" d="M356.867 244.165C356.754 244.1 356.633 244.045 356.501 244C356.367 244.045 356.245 244.1 356.133 244.165C354.949 244.821 355 246.236 355 246.236V248.464V271H358V248.464V246.236C358 246.236 358.052 244.821 356.867 244.165Z" fill="#819BC8"/>
<path fill-rule="evenodd" clip-rule="evenodd" d="M363.867 244.165C363.756 244.1 363.634 244.045 363.499 244C363.366 244.045 363.243 244.1 363.133 244.165C361.948 244.821 362 246.236 362 246.236V248.464V271H365V248.464V246.236C365 246.236 365.054 244.821 363.867 244.165Z" fill="#819BC8"/>
<path fill-rule="evenodd" clip-rule="evenodd" d="M370.867 244.165C370.754 244.1 370.634 244.045 370.501 244C370.366 244.045 370.245 244.1 370.135 244.165C368.948 244.821 369 246.236 369 246.236V248.464V271H372V248.464V246.236C372 246.236 372.052 244.821 370.867 244.165Z" fill="#819BC8"/>
<path fill-rule="evenodd" clip-rule="evenodd" d="M324 205H332V164H324V205Z" fill="#69A1AC"/>
<path fill-rule="evenodd" clip-rule="evenodd" d="M324 205H332V164H324V205Z" fill="#819BC8"/>
<path fill-rule="evenodd" clip-rule="evenodd" d="M324 205H328V164H324V205Z" fill="#819BC8"/>
<path fill-rule="evenodd" clip-rule="evenodd" d="M323 165H332V164H323V165Z" fill="#69A1AC"/>
<path fill-rule="evenodd" clip-rule="evenodd" d="M323 165H332V164H323V165Z" fill="#819BC8"/>
<path fill-rule="evenodd" clip-rule="evenodd" d="M323 205H332V204H323V205Z" fill="#819BC8"/>
<path fill-rule="evenodd" clip-rule="evenodd" d="M375 205H383V164H375V205Z" fill="#819BC8"/>
<path fill-rule="evenodd" clip-rule="evenodd" d="M379 205H383V164H379V205Z" fill="#819BC8"/>
<path fill-rule="evenodd" clip-rule="evenodd" d="M374 165H383V164H374V165Z" fill="#69A1AC"/>
<path fill-rule="evenodd" clip-rule="evenodd" d="M374 165H383V164H374V165Z" fill="#819BC8"/>
<path fill-rule="evenodd" clip-rule="evenodd" d="M374 205H383V204H374V205Z" fill="#819BC8"/>
<path fill-rule="evenodd" clip-rule="evenodd" d="M322 209H384V207H322V209Z" fill="#819BC8"/>
<path fill-rule="evenodd" clip-rule="evenodd" d="M322 239.864H384V239H322V239.864Z" fill="#819BC8"/>
<path fill-rule="evenodd" clip-rule="evenodd" d="M322 237.863H384V237H322V237.863Z" fill="#819BC8"/>
<path fill-rule="evenodd" clip-rule="evenodd" d="M324 237H332V209H324V237Z" fill="#69A1AC"/>
<path fill-rule="evenodd" clip-rule="evenodd" d="M324 237H332V209H324V237Z" fill="#819BC8"/>
<path fill-rule="evenodd" clip-rule="evenodd" d="M324 237H328V209H324V237Z" fill="#819BC8"/>
<path fill-rule="evenodd" clip-rule="evenodd" d="M323 209.734H332V209H323V209.734Z" fill="#69A1AC"/>
<path fill-rule="evenodd" clip-rule="evenodd" d="M323 209.734H332V209H323V209.734Z" fill="#819BC8"/>
<path fill-rule="evenodd" clip-rule="evenodd" d="M323 236.734H332V236H323V236.734Z" fill="#819BC8"/>
<path fill-rule="evenodd" clip-rule="evenodd" d="M375 237H383V209H375V237Z" fill="#819BC8"/>
<path fill-rule="evenodd" clip-rule="evenodd" d="M379 237H383V209H379V237Z" fill="#819BC8"/>
<path fill-rule="evenodd" clip-rule="evenodd" d="M374 209.734H383V209H374V209.734Z" fill="#69A1AC"/>
<path fill-rule="evenodd" clip-rule="evenodd" d="M374 209.734H383V209H374V209.734Z" fill="#819BC8"/>
<path fill-rule="evenodd" clip-rule="evenodd" d="M374 236.734H383V236H374V236.734Z" fill="#819BC8"/>
<path fill-rule="evenodd" clip-rule="evenodd" d="M322 242H384V240H322V242Z" fill="#819BC8"/>
<path fill-rule="evenodd" clip-rule="evenodd" d="M322 272.864H384V272H322V272.864Z" fill="#819BC8"/>
<path fill-rule="evenodd" clip-rule="evenodd" d="M322 271.863H384V271H322V271.863Z" fill="#819BC8"/>
<path fill-rule="evenodd" clip-rule="evenodd" d="M324 270H332V242H324V270Z" fill="#69A1AC"/>
<path fill-rule="evenodd" clip-rule="evenodd" d="M324 270H332V242H324V270Z" fill="#819BC8"/>
<path fill-rule="evenodd" clip-rule="evenodd" d="M324 270H328V242H324V270Z" fill="#819BC8"/>
<path fill-rule="evenodd" clip-rule="evenodd" d="M323 242.734H332V242H323V242.734Z" fill="#69A1AC"/>
<path fill-rule="evenodd" clip-rule="evenodd" d="M323 242.734H332V242H323V242.734Z" fill="#819BC8"/>
<path fill-rule="evenodd" clip-rule="evenodd" d="M323 270.733H332V270H323V270.733Z" fill="#819BC8"/>
<path fill-rule="evenodd" clip-rule="evenodd" d="M375 270H383V242H375V270Z" fill="#819BC8"/>
<path fill-rule="evenodd" clip-rule="evenodd" d="M379 270H383V242H379V270Z" fill="#819BC8"/>
<path fill-rule="evenodd" clip-rule="evenodd" d="M374 242.734H383V242H374V242.734Z" fill="#69A1AC"/>
<path fill-rule="evenodd" clip-rule="evenodd" d="M374 242.734H383V242H374V242.734Z" fill="#819BC8"/>
<path fill-rule="evenodd" clip-rule="evenodd" d="M374 270.733H383V270H374V270.733Z" fill="#819BC8"/>
<path fill-rule="evenodd" clip-rule="evenodd" d="M322 176H384V174H322V176Z" fill="#819BC8"/>
<path fill-rule="evenodd" clip-rule="evenodd" d="M327.866 277.163C327.755 277.102 327.635 277.045 327.5 277C327.365 277.045 327.245 277.102 327.132 277.163C325.946 277.82 326 279.235 326 279.235V281.464V304H329V281.464V279.235C329 279.235 329.054 277.82 327.866 277.163Z" fill="#819BC8"/>
<path fill-rule="evenodd" clip-rule="evenodd" d="M378.867 277.163C378.756 277.102 378.634 277.045 378.501 277C378.367 277.045 378.245 277.102 378.133 277.163C376.949 277.82 377 279.235 377 279.235V281.464V304H380V281.464V279.235C380 279.235 380.052 277.82 378.867 277.163Z" fill="#819BC8"/>
<path fill-rule="evenodd" clip-rule="evenodd" d="M335.868 277.163C335.755 277.102 335.635 277.045 335.501 277C335.367 277.045 335.247 277.102 335.135 277.163C333.949 277.82 334 279.235 334 279.235V281.464V304H337V281.464V279.235C337 279.235 337.052 277.82 335.868 277.163Z" fill="#819BC8"/>
<path fill-rule="evenodd" clip-rule="evenodd" d="M342.866 277.163C342.756 277.102 342.634 277.045 342.5 277C342.366 277.045 342.245 277.102 342.133 277.163C340.948 277.82 341 279.235 341 279.235V281.464V304H344V281.464V279.235C344 279.235 344.052 277.82 342.866 277.163Z" fill="#819BC8"/>
<path fill-rule="evenodd" clip-rule="evenodd" d="M349.864 277.163C349.755 277.102 349.633 277.045 349.499 277C349.366 277.045 349.245 277.102 349.135 277.163C347.948 277.82 348 279.235 348 279.235V281.464V304H351V281.464V279.235C351 279.235 351.051 277.82 349.864 277.163Z" fill="#819BC8"/>
<path fill-rule="evenodd" clip-rule="evenodd" d="M356.867 277.163C356.754 277.102 356.633 277.045 356.501 277C356.367 277.045 356.245 277.102 356.133 277.163C354.949 277.82 355 279.235 355 279.235V281.464V304H358V281.464V279.235C358 279.235 358.052 277.82 356.867 277.163Z" fill="#819BC8"/>
<path fill-rule="evenodd" clip-rule="evenodd" d="M363.867 277.163C363.756 277.102 363.634 277.045 363.499 277C363.366 277.045 363.243 277.102 363.133 277.163C361.948 277.82 362 279.235 362 279.235V281.464V304H365V281.464V279.235C365 279.235 365.054 277.82 363.867 277.163Z" fill="#819BC8"/>
<path fill-rule="evenodd" clip-rule="evenodd" d="M370.867 277.163C370.754 277.102 370.634 277.045 370.501 277C370.366 277.045 370.245 277.102 370.135 277.163C368.948 277.82 369 279.235 369 279.235V281.464V304H372V281.464V279.235C372 279.235 372.052 277.82 370.867 277.163Z" fill="#819BC8"/>
<path fill-rule="evenodd" clip-rule="evenodd" d="M322 275H384V273H322V275Z" fill="#819BC8"/>
<path fill-rule="evenodd" clip-rule="evenodd" d="M322 305.864H384V305H322V305.864Z" fill="#819BC8"/>
<path fill-rule="evenodd" clip-rule="evenodd" d="M322 304.865H384V304H322V304.865Z" fill="#819BC8"/>
<path fill-rule="evenodd" clip-rule="evenodd" d="M324 303H332V275H324V303Z" fill="#819BC8"/>
<path fill-rule="evenodd" clip-rule="evenodd" d="M324 303H328V275H324V303Z" fill="#819BC8"/>
<path fill-rule="evenodd" clip-rule="evenodd" d="M323 275.732H332V275H323V275.732Z" fill="#69A1AC"/>
<path fill-rule="evenodd" clip-rule="evenodd" d="M323 275.732H332V275H323V275.732Z" fill="#819BC8"/>
<path fill-rule="evenodd" clip-rule="evenodd" d="M323 303.734H332V303H323V303.734Z" fill="#819BC8"/>
<path fill-rule="evenodd" clip-rule="evenodd" d="M375 303H383V275H375V303Z" fill="#819BC8"/>
<path fill-rule="evenodd" clip-rule="evenodd" d="M379 303H383V275H379V303Z" fill="#819BC8"/>
<path fill-rule="evenodd" clip-rule="evenodd" d="M374 275.732H383V275H374V275.732Z" fill="#69A1AC"/>
<path fill-rule="evenodd" clip-rule="evenodd" d="M374 275.732H383V275H374V275.732Z" fill="#819BC8"/>
<path fill-rule="evenodd" clip-rule="evenodd" d="M374 303.734H383V303H374V303.734Z" fill="#819BC8"/>
<path fill-rule="evenodd" clip-rule="evenodd" d="M327.866 310.165C327.755 310.102 327.635 310.046 327.5 310C327.365 310.046 327.245 310.102 327.132 310.165C325.946 310.822 326 312.237 326 312.237V314.465V337H329V314.465V312.237C329 312.237 329.054 310.822 327.866 310.165Z" fill="#69A1AC"/>
<path fill-rule="evenodd" clip-rule="evenodd" d="M378.867 310.165C378.756 310.102 378.634 310.046 378.501 310C378.367 310.046 378.245 310.102 378.133 310.165C376.949 310.822 377 312.237 377 312.237V314.465V337H380V314.465V312.237C380 312.237 380.052 310.822 378.867 310.165Z" fill="#69A1AC"/>
<path fill-rule="evenodd" clip-rule="evenodd" d="M335.868 310.165C335.755 310.102 335.635 310.046 335.501 310C335.367 310.046 335.247 310.102 335.135 310.165C333.949 310.822 334 312.237 334 312.237V314.465V337H337V314.465V312.237C337 312.237 337.052 310.822 335.868 310.165Z" fill="#819BC8"/>
<path fill-rule="evenodd" clip-rule="evenodd" d="M342.866 310.165C342.756 310.102 342.634 310.046 342.5 310C342.366 310.046 342.245 310.102 342.133 310.165C340.948 310.822 341 312.237 341 312.237V314.465V337H344V314.465V312.237C344 312.237 344.052 310.822 342.866 310.165Z" fill="#819BC8"/>
<path fill-rule="evenodd" clip-rule="evenodd" d="M349.864 310.165C349.755 310.102 349.633 310.046 349.499 310C349.366 310.046 349.245 310.102 349.135 310.165C347.948 310.822 348 312.237 348 312.237V314.465V337H351V314.465V312.237C351 312.237 351.051 310.822 349.864 310.165Z" fill="#819BC8"/>
<path fill-rule="evenodd" clip-rule="evenodd" d="M356.867 310.165C356.754 310.102 356.633 310.046 356.501 310C356.367 310.046 356.245 310.102 356.133 310.165C354.949 310.822 355 312.237 355 312.237V314.465V337H358V314.465V312.237C358 312.237 358.052 310.822 356.867 310.165Z" fill="#819BC8"/>
<path fill-rule="evenodd" clip-rule="evenodd" d="M363.867 310.165C363.756 310.102 363.634 310.046 363.499 310C363.366 310.046 363.243 310.102 363.133 310.165C361.948 310.822 362 312.237 362 312.237V314.465V337H365V314.465V312.237C365 312.237 365.054 310.822 363.867 310.165Z" fill="#819BC8"/>
<path fill-rule="evenodd" clip-rule="evenodd" d="M370.867 310.165C370.754 310.102 370.634 310.046 370.501 310C370.366 310.046 370.245 310.102 370.135 310.165C368.948 310.822 369 312.237 369 312.237V314.465V337H372V314.465V312.237C372 312.237 372.052 310.822 370.867 310.165Z" fill="#819BC8"/>
<path fill-rule="evenodd" clip-rule="evenodd" d="M322 308H384V306H322V308Z" fill="#819BC8"/>
<path fill-rule="evenodd" clip-rule="evenodd" d="M322 341H384V339H322V341Z" fill="#819BC8"/>
<path fill-rule="evenodd" clip-rule="evenodd" d="M322 336.865H384V336H322V336.865Z" fill="#819BC8"/>
<path fill-rule="evenodd" clip-rule="evenodd" d="M324 336H332V308H324V336Z" fill="#69A1AC"/>
<path fill-rule="evenodd" clip-rule="evenodd" d="M324 336H332V308H324V336Z" fill="#819BC8"/>
<path fill-rule="evenodd" clip-rule="evenodd" d="M324 336H328V308H324V336Z" fill="#819BC8"/>
<path fill-rule="evenodd" clip-rule="evenodd" d="M323 308.734H332V308H323V308.734Z" fill="#69A1AC"/>
<path fill-rule="evenodd" clip-rule="evenodd" d="M323 308.734H332V308H323V308.734Z" fill="#819BC8"/>
<path fill-rule="evenodd" clip-rule="evenodd" d="M323 336.733H332V336H323V336.733Z" fill="#819BC8"/>
<path fill-rule="evenodd" clip-rule="evenodd" d="M375 336H383V308H375V336Z" fill="#819BC8"/>
<path fill-rule="evenodd" clip-rule="evenodd" d="M379 336H383V308H379V336Z" fill="#819BC8"/>
<path fill-rule="evenodd" clip-rule="evenodd" d="M374 308.734H383V308H374V308.734Z" fill="#69A1AC"/>
<path fill-rule="evenodd" clip-rule="evenodd" d="M374 308.734H383V308H374V308.734Z" fill="#819BC8"/>
<path fill-rule="evenodd" clip-rule="evenodd" d="M374 336.733H383V336H374V336.733Z" fill="#819BC8"/>
</g>
<path fill-rule="evenodd" clip-rule="evenodd" d="M430 329H740V205H430V329Z" fill="#819BC8"/>
<path fill-rule="evenodd" clip-rule="evenodd" d="M430 228H740V226H430V228Z" fill="#CAD8F1"/>
<path fill-rule="evenodd" clip-rule="evenodd" d="M394 215.058L445.582 181L719.427 181.037L775 215.058V226H394V215.058Z" fill="#212D5F"/>
<path fill-rule="evenodd" clip-rule="evenodd" d="M539 29.9794L569 21V40.0206L539 49L547.842 37.2621L539 29.9794Z" fill="#CAD8F1"/>
<path fill-rule="evenodd" clip-rule="evenodd" d="M569.481 28.6613C568.587 29.0445 555.561 36.9089 555.561 36.9089L569.481 40.1259V28.6613Z" fill="#819BC8"/>
<path fill-rule="evenodd" clip-rule="evenodd" d="M555.561 17.7479L585.833 8.70227V27.8632L555.561 36.9088V17.7479Z" fill="#CAD8F1"/>
<path fill-rule="evenodd" clip-rule="evenodd" d="M583.877 41.5518H585.833V6.91443H583.877V41.5518Z" fill="#212D5F"/>
<path fill-rule="evenodd" clip-rule="evenodd" d="M547.043 75.2742L584.855 41.552L622.667 75.2742V177.975H547.043V75.2742Z" fill="#CAD8F1"/>
<path fill-rule="evenodd" clip-rule="evenodd" d="M547.043 75.2742L584.855 41.552L622.667 75.2742V78.4815L609.855 67.1883L584.855 45.1507L559.855 67.1883L547.043 78.4815V75.2742Z" fill="#819BC8"/>
<path fill-rule="evenodd" clip-rule="evenodd" d="M584.855 34.8688L609.855 56.9055L634.854 78.9431H625.603L609.855 65.0602L584.855 43.0234L559.855 65.0602L544.106 78.9431H534.855L559.855 56.9055L584.855 34.8688Z" fill="#212D5F"/>
<path fill-rule="evenodd" clip-rule="evenodd" d="M585.945 121.979C599.879 121.979 611.243 110.616 611.243 96.684C611.243 82.7509 599.879 71.3873 585.945 71.3873C572.014 71.3873 560.649 82.7509 560.649 96.684C560.649 110.616 572.014 121.979 585.945 121.979Z" fill="#819BC8"/>
<path fill-rule="evenodd" clip-rule="evenodd" d="M585.945 119.536C598.535 119.536 608.802 109.271 608.802 96.6839C608.802 84.097 598.535 73.8306 585.945 73.8306C573.359 73.8306 563.092 84.097 563.092 96.6839C563.092 109.271 573.359 119.536 585.945 119.536Z" fill="#35464F"/>
<path fill-rule="evenodd" clip-rule="evenodd" d="M585.945 118.214C597.805 118.214 607.479 108.542 607.479 96.6838C607.479 84.8246 597.805 75.1532 585.945 75.1532C574.087 75.1532 564.414 84.8246 564.414 96.6838C564.414 108.542 574.087 118.214 585.945 118.214Z" fill="#E4E5E6"/>
<path fill-rule="evenodd" clip-rule="evenodd" d="M585.945 81.4985L586.757 88.97L587.566 96.4406H585.945H584.327L585.139 88.97L585.945 81.4985Z" fill="#353434"/>
<path fill-rule="evenodd" clip-rule="evenodd" d="M575.411 102.89L580.366 99.2252L585.319 95.5594L585.989 96.7051L586.66 97.8516L581.036 100.371L575.411 102.89Z" fill="#353434"/>
<path fill-rule="evenodd" clip-rule="evenodd" d="M585.945 99.1034C584.613 99.1034 583.527 98.0176 583.527 96.6835C583.527 95.3495 584.613 94.2637 585.945 94.2637C587.281 94.2637 588.366 95.3495 588.366 96.6835C588.366 98.0176 587.281 99.1034 585.945 99.1034Z" fill="#CED0D1"/>
<path fill-rule="evenodd" clip-rule="evenodd" d="M585.945 98.6775C587.044 98.6775 587.941 97.7817 587.941 96.6837C587.941 95.5858 587.044 94.6899 585.945 94.6899C584.849 94.6899 583.953 95.5858 583.953 96.6837C583.953 97.7817 584.849 98.6775 585.945 98.6775Z" fill="#35464F"/>
<path fill-rule="evenodd" clip-rule="evenodd" d="M585.368 78.4383H586.525V75.6312C586.334 75.6263 586.14 75.6239 585.945 75.6239C585.752 75.6239 585.561 75.6263 585.368 75.6312V78.4383Z" fill="#505154"/>
<path fill-rule="evenodd" clip-rule="evenodd" d="M595.974 78.1599L594.569 80.5935L595.57 81.1716L596.975 78.7388C596.648 78.5367 596.312 78.3443 595.974 78.1599Z" fill="#505154"/>
<path fill-rule="evenodd" clip-rule="evenodd" d="M603.892 85.6553L601.461 87.0597L602.038 88.0622L604.472 86.657C604.287 86.3174 604.095 85.9835 603.892 85.6553Z" fill="#505154"/>
<path fill-rule="evenodd" clip-rule="evenodd" d="M606.998 96.1055H604.193V97.2624H606.998C607.004 97.07 607.006 96.8776 607.006 96.6836C607.006 96.4903 607.004 96.2979 606.998 96.1055Z" fill="#505154"/>
<path fill-rule="evenodd" clip-rule="evenodd" d="M604.472 106.711L602.037 105.305L601.461 106.307L603.892 107.713C604.094 107.384 604.287 107.051 604.472 106.711Z" fill="#505154"/>
<path fill-rule="evenodd" clip-rule="evenodd" d="M596.975 114.628L595.57 112.196L594.568 112.774L595.974 115.207C596.313 115.024 596.648 114.83 596.975 114.628Z" fill="#505154"/>
<path fill-rule="evenodd" clip-rule="evenodd" d="M586.525 117.735V114.93H585.368V117.735C585.561 117.741 585.752 117.743 585.945 117.743C586.139 117.743 586.334 117.741 586.525 117.735Z" fill="#505154"/>
<path fill-rule="evenodd" clip-rule="evenodd" d="M575.918 115.207L577.324 112.774L576.322 112.196L574.917 114.628C575.246 114.831 575.58 115.023 575.918 115.207Z" fill="#505154"/>
<path fill-rule="evenodd" clip-rule="evenodd" d="M568.001 107.712L570.434 106.308L569.854 105.305L567.422 106.711C567.605 107.05 567.8 107.383 568.001 107.712Z" fill="#505154"/>
<path fill-rule="evenodd" clip-rule="evenodd" d="M564.893 97.2622H567.7V96.1052H564.893C564.889 96.2977 564.886 96.4901 564.886 96.6841C564.886 96.8774 564.889 97.0706 564.893 97.2622Z" fill="#505154"/>
<path fill-rule="evenodd" clip-rule="evenodd" d="M567.422 86.6568L569.854 88.062L570.434 87.0602L568.001 85.655C567.8 85.9833 567.605 86.318 567.422 86.6568Z" fill="#505154"/>
<path fill-rule="evenodd" clip-rule="evenodd" d="M574.919 78.7388L576.322 81.1716L577.324 80.5935L575.918 78.1599C575.579 78.3443 575.245 78.5367 574.919 78.7388Z" fill="#505154"/>
<path fill-rule="evenodd" clip-rule="evenodd" d="M584.855 8.4472C586.965 8.4472 588.687 6.72588 588.687 4.61486C588.687 2.50464 586.965 0.783325 584.855 0.783325C582.745 0.783325 581.023 2.50464 581.023 4.61486C581.023 6.72588 582.745 8.4472 584.855 8.4472Z" fill="#819BC8"/>
<path fill-rule="evenodd" clip-rule="evenodd" d="M461.405 157.676H708.305C709.8 157.676 711.011 156.474 711.011 154.991V151.101C711.011 149.618 709.8 148.416 708.305 148.416H461.405C459.91 148.416 458.699 149.618 458.699 151.101V154.991C458.699 156.474 459.91 157.676 461.405 157.676Z" fill="#212D5F"/>
<path fill-rule="evenodd" clip-rule="evenodd" d="M459.666 156.94H710.044L775.449 214.804H394.261L459.666 156.94Z" fill="#819BC8"/>
<path fill-rule="evenodd" clip-rule="evenodd" d="M527.625 164.732L585.365 127.943L642.084 164.732V328.747H527.625V164.732Z" fill="#CAD8F1"/>
<path fill-rule="evenodd" clip-rule="evenodd" d="M642.084 166.272V177.002L631.388 170.263L585.365 141.265L539.343 170.263L527.625 177.645V166.915L539.343 159.532L585.365 130.535L631.388 159.532L642.084 166.272Z" fill="#819BC8"/>
<path fill-rule="evenodd" clip-rule="evenodd" d="M585.365 127.943L631.387 156.94L677.409 185.937H660.379L631.387 167.67L585.365 138.673L539.344 167.67L510.352 185.937H493.322L539.344 156.94L585.365 127.943Z" fill="#212D5F"/>
<path fill-rule="evenodd" clip-rule="evenodd" d="M569.221 261.859V328.747H589.148V247.529C581.52 247.529 571.653 251.243 569.561 259.403C569.354 260.206 569.243 261.031 569.221 261.859Z" fill="#79634B"/>
<path fill-rule="evenodd" clip-rule="evenodd" d="M561.444 261.769C561.47 260.678 561.621 259.594 561.892 258.538C564.407 248.732 575.563 244.045 584.855 244.045C594.121 244.045 605.324 248.714 607.821 258.513C608.095 259.586 608.243 260.687 608.262 261.794L608.266 262.107V328.747H561.443V261.813L561.444 261.769Z" fill="#212D5F"/>
<path fill-rule="evenodd" clip-rule="evenodd" d="M564.928 261.859V328.747H604.782V262.159L604.777 261.846C604.765 261.012 604.65 260.182 604.445 259.374C602.368 251.227 592.454 247.529 584.854 247.529C577.226 247.529 567.36 251.243 565.268 259.403C565.062 260.206 564.95 261.031 564.928 261.859Z" fill="#819BC8"/>
<path fill-rule="evenodd" clip-rule="evenodd" d="M583.584 328.747H584.854V247.53C584.438 247.53 584.012 247.542 583.584 247.564V328.747Z" fill="#CAD8F1"/>
<path fill-rule="evenodd" clip-rule="evenodd" d="M445.206 239.891C445.218 239.39 445.287 238.892 445.412 238.405C446.568 233.896 451.699 231.741 455.972 231.741C460.233 231.741 465.385 233.888 466.533 238.394C466.658 238.888 466.727 239.394 466.735 239.903L466.738 240.047V270.692H445.206V239.912V239.891Z" fill="#212D5F"/>
<path fill-rule="evenodd" clip-rule="evenodd" d="M446.914 239.932H446.916C446.999 236.342 451.022 233.449 455.972 233.449C460.921 233.449 464.943 236.342 465.027 239.932H465.029V240.047V268.984H446.914V240.047V239.932Z" fill="#CAD8F1"/>
<path fill-rule="evenodd" clip-rule="evenodd" d="M446.059 244.637H455.095V232.328H456.848V244.637H465.883V246.004H456.848V256.429H465.883V257.796H456.848V270.692H455.095V257.796H446.059V256.429H455.095V246.004H446.059V244.637Z" fill="#212D5F"/>
<path fill-rule="evenodd" clip-rule="evenodd" d="M484.847 239.891C484.859 239.39 484.929 238.892 485.052 238.405C486.209 233.896 491.34 231.741 495.612 231.741C499.874 231.741 505.026 233.888 506.173 238.394C506.3 238.888 506.367 239.394 506.376 239.903L506.379 240.047V270.692H484.846V239.912L484.847 239.891Z" fill="#212D5F"/>
<path fill-rule="evenodd" clip-rule="evenodd" d="M486.555 239.932H486.557C486.64 236.342 490.663 233.449 495.613 233.449C500.562 233.449 504.584 236.342 504.668 239.932H504.67V240.047V268.984H486.555V240.047V239.932Z" fill="#CAD8F1"/>
<path fill-rule="evenodd" clip-rule="evenodd" d="M485.7 244.637H494.736V232.328H496.489V244.637H505.524V246.004H496.489V256.429H505.524V257.796H496.489V270.692H494.736V257.796H485.7V256.429H494.736V246.004H485.7V244.637Z" fill="#212D5F"/>
<path fill-rule="evenodd" clip-rule="evenodd" d="M445.206 286.388C445.218 285.887 445.287 285.388 445.412 284.902C446.568 280.393 451.699 278.237 455.972 278.237C460.233 278.237 465.385 280.385 466.533 284.89C466.658 285.384 466.727 285.891 466.735 286.4L466.738 286.543V317.189H445.206V286.408V286.388Z" fill="#212D5F"/>
<path fill-rule="evenodd" clip-rule="evenodd" d="M446.914 286.429H446.916C446.999 282.838 451.022 279.945 455.972 279.945C460.921 279.945 464.943 282.838 465.027 286.429H465.029V286.544V315.48H446.914V286.544V286.429Z" fill="#CAD8F1"/>
<path fill-rule="evenodd" clip-rule="evenodd" d="M446.059 291.133H455.095V278.824H456.848V291.133H465.883V292.5H456.848V302.925H465.883V304.292H456.848V317.189H455.095V304.292H446.059V302.925H455.095V292.5H446.059V291.133Z" fill="#212D5F"/>
<path fill-rule="evenodd" clip-rule="evenodd" d="M484.847 286.388C484.859 285.887 484.929 285.388 485.052 284.902C486.209 280.393 491.34 278.237 495.612 278.237C499.874 278.237 505.026 280.385 506.173 284.89C506.3 285.384 506.367 285.891 506.376 286.4L506.379 286.543V317.189H484.846V286.408L484.847 286.388Z" fill="#212D5F"/>
<path fill-rule="evenodd" clip-rule="evenodd" d="M486.555 286.429H486.557C486.64 282.838 490.663 279.945 495.613 279.945C500.562 279.945 504.584 282.838 504.668 286.429H504.67V286.544V315.48H486.555V286.544V286.429Z" fill="#CAD8F1"/>
<path fill-rule="evenodd" clip-rule="evenodd" d="M485.7 291.133H494.736V278.824H496.489V291.133H505.524V292.5H496.489V302.925H505.524V304.292H496.489V317.189H494.736V304.292H485.7V302.925H494.736V292.5H485.7V291.133Z" fill="#212D5F"/>
<path fill-rule="evenodd" clip-rule="evenodd" d="M663.331 239.891C663.344 239.39 663.413 238.892 663.538 238.405C664.694 233.896 669.824 231.741 674.096 231.741C678.358 231.741 683.51 233.888 684.658 238.394C684.784 238.888 684.852 239.394 684.861 239.903L684.863 240.047V270.692H663.331V239.912L663.331 239.891Z" fill="#212D5F"/>
<path fill-rule="evenodd" clip-rule="evenodd" d="M665.039 239.932H665.041C665.125 236.342 669.147 233.449 674.097 233.449C679.047 233.449 683.068 236.342 683.153 239.932H683.154V240.047V268.984H665.039V240.047V239.932Z" fill="#CAD8F1"/>
<path fill-rule="evenodd" clip-rule="evenodd" d="M664.185 244.637H673.221V232.328H674.973V244.637H684.009V246.004H674.973V256.429H684.009V257.796H674.973V270.692H673.221V257.796H664.185V256.429H673.221V246.004H664.185V244.637Z" fill="#212D5F"/>
<path fill-rule="evenodd" clip-rule="evenodd" d="M702.972 239.891C702.985 239.39 703.054 238.892 703.178 238.405C704.335 233.896 709.465 231.741 713.738 231.741C717.999 231.741 723.151 233.888 724.299 238.394C724.424 238.888 724.493 239.394 724.502 239.903L724.504 240.047V270.692H702.972V239.912V239.891Z" fill="#212D5F"/>
<path fill-rule="evenodd" clip-rule="evenodd" d="M704.681 239.932H704.682C704.766 236.342 708.788 233.449 713.738 233.449C718.687 233.449 722.71 236.342 722.793 239.932H722.796V240.047V268.984H704.681V240.047V239.932Z" fill="#CAD8F1"/>
<path fill-rule="evenodd" clip-rule="evenodd" d="M703.825 244.637H712.862V232.328H714.614V244.637H723.65V246.004H714.614V256.429H723.65V257.796H714.614V270.692H712.862V257.796H703.825V256.429H712.862V246.004H703.825V244.637Z" fill="#212D5F"/>
<path fill-rule="evenodd" clip-rule="evenodd" d="M663.331 286.388C663.344 285.887 663.413 285.388 663.538 284.902C664.694 280.393 669.824 278.237 674.096 278.237C678.358 278.237 683.51 280.385 684.658 284.89C684.784 285.384 684.852 285.891 684.861 286.4L684.863 286.543V317.189H663.331V286.408L663.331 286.388Z" fill="#212D5F"/>
<path fill-rule="evenodd" clip-rule="evenodd" d="M665.039 286.429H665.041C665.125 282.838 669.147 279.945 674.097 279.945C679.047 279.945 683.068 282.838 683.153 286.429H683.154V286.544V315.48H665.039V286.544V286.429Z" fill="#CAD8F1"/>
<path fill-rule="evenodd" clip-rule="evenodd" d="M664.185 291.133H673.221V278.824H674.973V291.133H684.009V292.5H674.973V302.925H684.009V304.292H674.973V317.189H673.221V304.292H664.185V302.925H673.221V292.5H664.185V291.133Z" fill="#212D5F"/>
<path fill-rule="evenodd" clip-rule="evenodd" d="M703.178 284.902C704.335 280.393 709.465 278.237 713.738 278.237C717.999 278.237 723.151 280.385 724.299 284.89C724.424 285.384 724.493 285.891 724.502 286.4L724.504 286.543V317.189H702.972V286.408C702.985 285.887 703.054 285.388 703.178 284.902Z" fill="#212D5F"/>
<path fill-rule="evenodd" clip-rule="evenodd" d="M704.681 286.429H704.682C704.766 282.838 708.788 279.945 713.738 279.945C718.687 279.945 722.71 282.838 722.793 286.429H722.796V286.544V315.48H704.681V286.544V286.429Z" fill="#CAD8F1"/>
<path fill-rule="evenodd" clip-rule="evenodd" d="M703.825 291.133H712.862V278.824H714.614V291.133H723.65V292.5H714.614V302.925H723.65V304.292H714.614V317.189H712.862V304.292H703.825V302.925H712.862V292.5H703.825V291.133Z" fill="#212D5F"/>
<path fill-rule="evenodd" clip-rule="evenodd" d="M444 273.937H467.998V271H444V273.937Z" fill="#CAD8F1"/>
<path fill-rule="evenodd" clip-rule="evenodd" d="M444 319.937H467.998V317H444V319.937Z" fill="#CAD8F1"/>
<path fill-rule="evenodd" clip-rule="evenodd" d="M483.614 320.126H507.611V317.188H483.614V320.126Z" fill="#CAD8F1"/>
<path fill-rule="evenodd" clip-rule="evenodd" d="M483.614 273.374H507.611V270.437H483.614V273.374Z" fill="#CAD8F1"/>
<path fill-rule="evenodd" clip-rule="evenodd" d="M662.098 273.437H686.096V270.5H662.098V273.437Z" fill="#CAD8F1"/>
<path fill-rule="evenodd" clip-rule="evenodd" d="M701.739 273.437H725.737V270.5H701.739V273.437Z" fill="#CAD8F1"/>
<path fill-rule="evenodd" clip-rule="evenodd" d="M662.098 319.997H686.096V317.061H662.098V319.997Z" fill="#CAD8F1"/>
<path fill-rule="evenodd" clip-rule="evenodd" d="M701.739 319.997H725.737V317.061H701.739V319.997Z" fill="#CAD8F1"/>
<path fill-rule="evenodd" clip-rule="evenodd" d="M392.217 342H777.493V328.747H392.217V342Z" fill="#CAD8F1"/>
<path fill-rule="evenodd" clip-rule="evenodd" d="M392.217 342H777.493V335.374H392.217V342Z" fill="#819CC9"/>
<path fill-rule="evenodd" clip-rule="evenodd" d="M526.135 335.373H644.219V328.747H526.135V335.373Z" fill="#819BC8"/>
<path fill-rule="evenodd" clip-rule="evenodd" d="M511.913 342H657.797V335.374H511.913V342Z" fill="#CAD8F1"/>
<path fill-rule="evenodd" clip-rule="evenodd" d="M594.806 192.527C594.819 191.984 594.893 191.445 595.028 190.919C596.279 186.04 601.83 183.709 606.454 183.709C611.064 183.709 616.638 186.032 617.881 190.907C618.017 191.441 618.091 191.989 618.101 192.54L618.102 192.695V225.854H594.805V192.549L594.806 192.527Z" fill="#212D5F"/>
<path fill-rule="evenodd" clip-rule="evenodd" d="M596.653 192.571H596.655C596.746 188.686 601.098 185.557 606.454 185.557C611.809 185.557 616.161 188.686 616.252 192.571H616.253V192.695V224.005H596.653V192.695V192.571Z" fill="#CAD8F1"/>
<path fill-rule="evenodd" clip-rule="evenodd" d="M595.729 197.662H605.506V184.344H607.403V197.662H617.178V199.141H607.403V210.42H617.178V211.9H607.403V225.854H605.506V211.9H595.729V210.42H605.506V199.141H595.729V197.662Z" fill="#212D5F"/>
<path fill-rule="evenodd" clip-rule="evenodd" d="M551.607 192.527C551.62 191.984 551.695 191.445 551.83 190.919C553.081 186.04 558.633 183.709 563.255 183.709C567.866 183.709 573.441 186.032 574.683 190.907C574.819 191.441 574.893 191.989 574.903 192.54L574.904 192.695V225.854H551.606V192.549L551.607 192.527Z" fill="#212D5F"/>
<path fill-rule="evenodd" clip-rule="evenodd" d="M553.455 192.571H553.457C553.548 188.686 557.9 185.557 563.256 185.557C568.612 185.557 572.962 188.686 573.054 192.571H573.056V192.695V224.005H553.455V192.695V192.571Z" fill="#CAD8F1"/>
<path fill-rule="evenodd" clip-rule="evenodd" d="M552.531 197.662H562.308V184.344H564.204V197.662H573.98V199.141H564.204V210.42H573.98V211.9H564.204V225.854H562.308V211.9H552.531V210.42H562.308V199.141H552.531V197.662Z" fill="#212D5F"/>
<path fill-rule="evenodd" clip-rule="evenodd" d="M550.298 228.636H576.213V225.699H550.298V228.636Z" fill="#819BC8"/>
<path fill-rule="evenodd" clip-rule="evenodd" d="M593.496 228.753H619.411V225.816H593.496V228.753Z" fill="#819BC8"/>
<mask id="mask1" mask-type="alpha" maskUnits="userSpaceOnUse" x="727" y="46" width="188" height="166">
<path fill-rule="evenodd" clip-rule="evenodd" d="M727.325 97.3575L875.33 46.3953L914.547 160.288L766.542 211.251L727.325 97.3575Z" fill="white"/>
</mask>
<g mask="url(#mask1)">
<path fill-rule="evenodd" clip-rule="evenodd" d="M755.127 89.9007C755.127 89.9007 768.784 77.6637 791.305 83.2751C813.822 88.8877 821.99 97.5044 839.725 93.3201C857.46 89.1359 869.516 80.7167 888.899 85.8018C888.899 85.8018 878.87 115.523 881.647 132.927C884.423 150.332 885.424 163.112 882.415 171.352C882.415 171.352 877.914 163.325 862.675 171.226C847.436 179.128 826.164 188.45 803.582 178.288C780.997 168.125 759.746 172.089 754.537 176.385L755.127 89.9007Z" fill="#CAD8F1"/>
</g>
<path fill-rule="evenodd" clip-rule="evenodd" d="M812.831 126.222L811.53 90.0625C805.862 87.9868 799.434 85.5268 791.01 83.4843C777.207 80.1411 766.692 83.3628 760.563 86.4054C770.495 89.7375 795.606 100.303 812.831 126.222Z" fill="#819BC8"/>
<path fill-rule="evenodd" clip-rule="evenodd" d="M781.24 121.544C788.41 123.028 795.37 125.404 802.103 127.705C806.544 129.221 810.881 130.697 815.007 131.819L815.078 91.153C813.822 90.7211 812.541 90.2563 811.221 89.7705L812.569 125.838C795.416 99.9604 770.452 89.3816 760.578 86.0453C756.647 87.9967 754.526 89.8772 754.526 89.8772L754.51 91.4311C779.32 100.835 800.253 124.136 800.253 124.136L792.695 121.768C779.981 107.877 760.326 98.1522 754.471 95.443L754.429 99.8212C771.164 106.685 788.611 120.895 788.611 120.895C774.519 114.949 761.891 118.359 754.215 121.891L754.171 126.201C764.137 121.455 773.208 119.88 781.24 121.544Z" fill="white"/>
<path fill-rule="evenodd" clip-rule="evenodd" d="M789.239 135.902C774.357 130.733 761.007 136.073 754.294 139.767L754.195 156.989C768.799 143.582 789.239 135.902 789.239 135.902Z" fill="#819BC8"/>
<path fill-rule="evenodd" clip-rule="evenodd" d="M789.256 120.591C789.256 120.591 771.767 106.43 754.979 99.6073L754.72 121.654C762.434 118.111 775.12 114.679 789.256 120.591Z" fill="#819BC8"/>
<path fill-rule="evenodd" clip-rule="evenodd" d="M846.469 127.031C846.469 127.031 866.608 118.075 880.881 121.828C881.468 112.792 883.617 103.003 885.467 95.924C878.529 98.4211 859.365 106.826 846.469 127.031Z" fill="#819BC8"/>
<path fill-rule="evenodd" clip-rule="evenodd" d="M831.863 134.396C837.091 133.503 842.486 131.789 848.199 129.973C859.121 126.505 870.357 122.933 881.779 124.692C881.809 123.791 881.849 122.876 881.915 121.954C867.626 118.234 847.44 127.199 847.44 127.199C860.39 107.029 879.598 98.615 886.549 96.1137C888.126 90.1327 889.484 86.0913 889.484 86.0913C889.484 86.0913 869.232 93.2807 854.974 106.469C842.151 118.334 834.852 130.204 834.852 130.204L830.679 131.373C830.679 131.373 838.931 117.572 850.563 106.171C862.237 94.7235 874.496 88.5817 884.117 84.9824C879.936 84.3602 876.079 84.3719 872.384 84.7907C841.129 101.074 828.009 131.19 828.009 131.19L828.43 94.6053C827.519 94.5308 826.621 94.4226 825.729 94.2834L825.805 134.59C827.936 134.758 829.964 134.722 831.863 134.396Z" fill="white"/>
<path fill-rule="evenodd" clip-rule="evenodd" d="M872.062 84.6385C861.262 85.8945 851.856 90.6351 839.873 93.4744C835.513 94.5063 831.734 94.767 828.177 94.4981L827.62 130.649C827.62 130.649 840.821 100.844 872.062 84.6385Z" fill="#819BC8"/>
<path fill-rule="evenodd" clip-rule="evenodd" d="M869.408 138.008C858.658 139.365 843.881 144.087 843.881 144.087C843.881 144.087 870.565 147.416 883.895 157.807C883.846 152.273 883.177 145.795 882.107 138.382C879.102 137.662 874.968 137.306 869.408 138.008Z" fill="#819BC8"/>
<path fill-rule="evenodd" clip-rule="evenodd" d="M850.694 138.968C844.938 140.801 838.986 142.693 833.115 143.707C830.607 144.141 828.046 144.238 825.441 144.091L825.376 182.492C826.949 182.451 828.504 182.353 830.039 182.188C829.375 170.858 828.099 148.293 828.099 148.293C828.099 148.293 853.999 155.837 869.57 168.203C879.197 165.664 882.246 171.066 882.246 171.066C882.362 170.752 878.535 164.269 865.213 158.188C842.929 148.012 831.097 146.445 831.097 146.445L840.058 144.502C840.058 144.502 853.481 148.08 865.826 153.747C874.981 157.944 880.051 161.945 883.661 165.123C883.983 162.798 884.126 160.245 884.105 157.445C870.748 147.092 843.981 143.813 843.981 143.813C843.981 143.813 858.816 139.073 869.606 137.696C875.185 136.985 879.333 137.332 882.347 138.048C882.173 136.861 881.992 135.655 881.801 134.424C872.049 132.183 861.65 135.485 850.694 138.968Z" fill="white"/>
<path fill-rule="evenodd" clip-rule="evenodd" d="M767.827 172.005C777.154 171.099 789.793 172.256 802.891 178.181C806.074 179.621 809.233 180.661 812.351 181.384L812.543 145.222C812.543 145.222 783.39 149.533 767.827 172.005Z" fill="#819BC8"/>
<path fill-rule="evenodd" clip-rule="evenodd" d="M799.725 137.561C793.275 135.335 786.603 133.029 780.034 131.648C771.802 129.914 762.413 133.566 754.927 137.785L754.906 140.365C761.668 136.651 775.115 131.277 790.083 136.434C790.083 136.434 769.497 144.163 754.779 157.625L754.636 176.698C754.941 176.448 755.307 176.199 755.715 175.955L755.718 175.945C755.718 175.945 770.492 149.066 803.704 142.206L810.331 143.178C810.331 143.178 781.094 148.521 762.737 173.409C764.512 173.004 766.502 172.683 768.672 172.469C784.32 150.005 813.568 145.649 813.568 145.649L813.311 181.756C814.177 181.955 815.036 182.13 815.894 182.279L815.872 142.604C810.644 141.329 805.256 139.475 799.725 137.561Z" fill="white"/>
<path fill-rule="evenodd" clip-rule="evenodd" d="M829.516 182.228C841.831 180.88 853.021 175.698 862.082 171.019C864.743 169.643 867.073 168.761 869.113 168.22C851.676 153.229 827.663 147.556 827.663 147.556C827.663 147.556 828.859 170.911 829.516 182.228Z" fill="#819BC8"/>
<path opacity="0.1" fill-rule="evenodd" clip-rule="evenodd" d="M762.345 85.4373C757.528 87.593 754.915 89.9347 754.915 89.9347L754.383 175.961C755.992 174.635 759.143 173.338 763.397 172.487C762.591 143.476 763.856 114.43 762.345 85.4373Z" fill="#212D5F"/>
<path opacity="0.1" fill-rule="evenodd" clip-rule="evenodd" d="M788.93 82.7861C783.829 81.7787 779.213 81.6736 775.14 82.0889C774.926 86.6024 775.796 135.987 776.739 156.122C776.984 161.331 777.085 166.56 777.269 171.782C779.216 171.873 781.244 172.06 783.327 172.341C784.978 157.875 787.873 98.0918 788.93 82.7861Z" fill="#212D5F"/>
<path opacity="0.1" fill-rule="evenodd" clip-rule="evenodd" d="M881.805 132.714C879.087 115.378 889.35 85.7024 889.35 85.7024C888.345 85.4484 887.359 85.231 886.391 85.0423C885.476 84.8664 880.294 100.232 879.825 101.758C878.074 107.416 876.735 113.235 875.88 119.079C874.859 126.06 874.557 133.153 875.358 140.152C875.762 143.687 876.383 147.187 876.856 150.71C877.607 156.321 878.035 162.161 876.299 167.588C880.807 168.212 882.398 171.014 882.398 171.014C885.474 162.785 884.524 150.053 881.805 132.714Z" fill="#212D5F"/>
<path opacity="0.1" fill-rule="evenodd" clip-rule="evenodd" d="M886.381 92.4363C884.62 96.1588 882.739 99.8367 881.237 103.655C877.99 111.924 877.089 120.806 877.542 129.603C877.775 134.123 878.373 138.615 879.271 143.045C880.049 146.9 881.142 150.682 881.839 154.552C882.474 158.116 882.967 161.827 882.991 165.522C884.251 157.504 883.203 146.573 881.01 132.659C879.089 120.468 883.57 102.171 886.381 92.4363Z" fill="#212D5F"/>
<path opacity="0.1" fill-rule="evenodd" clip-rule="evenodd" d="M877.452 84.9345C876.114 85.5945 874.809 86.3272 873.558 87.1478C859.734 96.1884 852.159 112.116 850.864 128.301C850.134 137.427 851.294 147.048 855.598 155.249C858.33 160.461 862.053 164.962 866.024 169.249C866.129 169.204 866.239 169.156 866.342 169.115C863.995 164.137 862.094 158.949 860.74 153.612C857.329 140.206 857.136 125.886 861.165 112.606C864.343 102.132 869.984 92.7371 877.452 84.9345Z" fill="#212D5F"/>
<path fill-rule="evenodd" clip-rule="evenodd" d="M753.301 332.734C752.501 332.68 751.869 332.012 751.871 331.199L752.272 86.8264C752.272 85.9777 752.959 85.2918 753.806 85.295C754.64 85.3105 755.336 85.9876 755.334 86.8351L754.936 331.205C754.932 332.053 754.247 332.74 753.401 332.737C753.366 332.739 753.334 332.735 753.301 332.734Z" fill="#CAD8F1"/>
<path fill-rule="evenodd" clip-rule="evenodd" d="M755.334 86.8349C755.336 85.9874 754.64 85.3103 753.806 85.2948C752.959 85.2916 752.27 85.9799 752.27 86.8268L752.262 90.6984C752.456 90.6048 752.668 90.5504 752.89 90.552C753.698 90.5666 754.372 91.2242 754.373 92.0501L753.874 330.113C753.873 330.94 753.207 331.606 752.388 331.604C752.357 331.604 752.327 331.604 752.293 331.601C752.156 331.593 752.026 331.557 751.904 331.517C752.042 332.18 752.605 332.689 753.302 332.733C753.333 332.735 753.365 332.738 753.399 332.736C754.248 332.741 754.933 332.054 754.936 331.206L755.334 86.8349Z" fill="#2A5480"/>
<path fill-rule="evenodd" clip-rule="evenodd" d="M758.944 84.2491C758.762 87.0004 756.382 89.0826 753.633 88.8997C750.879 88.7162 748.796 86.339 748.981 83.5846C749.163 80.8334 751.543 78.7512 754.295 78.9353C757.048 79.1169 759.128 81.4973 758.944 84.2491Z" fill="#2A5480"/>
<path fill-rule="evenodd" clip-rule="evenodd" d="M756.146 83.5114C756.034 85.1665 754.607 86.4162 752.955 86.3068C751.302 86.1955 750.05 84.7676 750.159 83.1157C750.271 81.4631 751.701 80.2102 753.351 80.3222C755.003 80.4315 756.254 81.862 756.146 83.5114Z" fill="#CAD8F1"/>
<path fill-rule="evenodd" clip-rule="evenodd" d="M752.918 330.85C752.758 330.842 752.632 330.708 752.631 330.545L753.364 91.9208C753.366 91.7511 753.504 91.6126 753.674 91.6139C753.841 91.6103 753.984 91.7507 753.983 91.9205L753.247 330.543C753.246 330.715 753.109 330.853 752.938 330.854C752.933 330.851 752.928 330.853 752.918 330.85Z" fill="#819BC8"/>
</svg>
