<svg width="801" height="369" viewBox="0 0 801 369" fill="none" xmlns="http://www.w3.org/2000/svg">
<path opacity="0.265455" fill-rule="evenodd" clip-rule="evenodd" d="M790.09 341.729C801.612 347.312 522.185 350.954 281.676 348.412C41.1673 345.871 -69.1668 335.946 45.6001 330.658C160.367 325.369 778.568 336.146 790.09 341.729Z" fill="#B3B9C9"/>
<path fill-rule="evenodd" clip-rule="evenodd" d="M410 95.9997C410 112.569 405.522 126 400 126C394.477 126 390 112.569 390 95.9997C390 79.4313 394.477 66 400 66C405.522 66 410 79.4313 410 95.9997Z" fill="#B7C6E0"/>
<path fill-rule="evenodd" clip-rule="evenodd" d="M371.906 68.7517H368.145V58.1389H359.86V63.7191H357.273V68.7517V73.0194V112.736H367.82V118.972H384.545V86.1479H371.906V68.7517Z" fill="#B7C6E0"/>
<path fill-rule="evenodd" clip-rule="evenodd" d="M343.64 64.0912H341.723V60.1666H337.41V71.1777H331.659V74.23H330V117.366H331.659V121H345.152V74.23V71.1777V66.2169H343.64V64.0912Z" fill="#B7C6E0"/>
<path fill-rule="evenodd" clip-rule="evenodd" d="M419.227 48H417.2V59.0384H415.921V56.1968H412.828V113.903H414.374H415.921H417.2H419.227H419.547V113.612H430L419.227 48Z" fill="#B7C6E0"/>
<path fill-rule="evenodd" clip-rule="evenodd" d="M242.346 123.204C242.229 123.671 242.223 124.139 242.236 124.606L233.077 125.598V122.349C233.653 123.277 234.505 124.347 235.56 124.755C235.855 124.87 236.152 124.927 236.447 124.927C236.758 124.927 237.068 124.854 237.376 124.726C237.504 124.777 237.734 124.847 238.076 124.847C238.344 124.847 238.674 124.804 239.061 124.671C241.181 123.944 244.563 120.798 248.918 110.187V123.204H253.824C253.778 122.979 253.754 122.747 253.754 122.507V121.811C253.754 119.866 255.346 118.29 257.309 118.29C259.272 118.29 260.863 119.866 260.863 121.811V122.507C260.863 122.673 260.848 122.833 260.826 122.992C258.841 123.05 256.855 123.108 254.87 123.204C250.654 123.326 246.562 123.204 242.346 123.204ZM237.138 124.162V124.301C236.673 124.483 236.215 124.481 235.742 124.299C234.529 123.829 233.568 122.287 233.077 121.346V121.031C234.477 123.254 236.499 123.982 237.138 124.162ZM237.634 123.869C242.197 122.168 247.272 111.694 248.918 108.059V108.86C244.196 120.75 240.659 123.575 238.945 124.191C238.274 124.431 237.832 124.361 237.634 124.299V123.869ZM279.919 95.7099H279.92V96.5573L263.922 102V101.405L263.924 101.4C263.961 101.291 263.997 101.188 264.028 101.079L279.919 95.7099ZM271.094 93.7881L271.097 93.7869V94.1967L271.094 94.198V93.7881ZM272.336 93.217L272.01 93.3666L272.336 93.2164V93.217ZM311.193 103.925C315.275 106.641 319.461 108.896 323.679 110.669C319.611 109.604 315.091 108.189 310.615 106.338C308.555 104.581 303.426 99.1351 300.423 95.9038V95.4176C302.891 97.7167 306.566 100.845 311.193 103.925ZM302.944 107.768C302.047 107.097 301.21 106.414 300.423 105.73V102.168C302.47 103.44 304.699 104.641 307.11 105.763C312.339 108.197 318.418 110.274 325.177 111.939C327.174 112.432 329.108 112.855 330.952 113.224C335.625 114.55 340.302 115.264 344.928 115.358C344.879 115.532 344.85 115.712 344.843 115.898L344.815 115.924C324.181 119.652 310.659 113.55 302.944 107.768ZM300.423 97.1745C302.751 99.673 305.977 103.088 308.254 105.318C305.552 104.096 302.909 102.701 300.423 101.125V97.1745ZM268.882 120.379V122.66C267.229 122.761 265.576 122.836 263.922 122.892V105.485L279.92 100.51V120.379H268.882ZM290.056 120.379C290.025 120.182 290.013 119.979 290.013 119.776V118.717C290.013 117.579 290.479 116.557 291.23 115.813C291.56 115.486 291.938 115.222 292.355 115.025C293.74 115.683 294.696 117.092 294.696 118.717V119.776C294.696 119.979 294.684 120.182 294.647 120.379H290.056ZM355 118.535L304.512 120.378V120.379H300.423V106.864C301.047 107.389 301.698 107.912 302.385 108.427C307.398 112.192 313.108 114.879 319.357 116.412C323.498 117.429 327.881 117.937 332.472 117.937C336.491 117.937 340.669 117.547 344.981 116.767C345.343 117.79 346.383 118.535 347.624 118.535C349.164 118.535 350.413 117.394 350.413 115.986C350.413 114.578 349.164 113.437 347.624 113.437C346.694 113.437 345.876 113.857 345.369 114.495C343.179 114.295 337.864 113.724 331.282 112.414C323.389 110.18 316.662 106.525 311.698 103.225C306.713 99.9093 302.847 96.5388 300.423 94.2318V84.8713H300.42L298.798 79.4067L297.426 84.8713H296.712L295.48 83.4602V81.4184L294.571 81.0645L292.009 75.7003L288.702 74.7575L288.047 76.1083L287.42 74L285.881 80.1335L284.755 80.1846L283.824 78.7298L282.775 81.8596L281.499 77.5637L280.09 83.1765L279.919 83.2608V85.2725H279.92V90.6614L279.919 90.662L272.466 93.6521V93.025L270.976 93.7143V94.2441L270.974 94.2447L265.109 96.6004C265.103 96.5456 265.103 96.4847 265.103 96.4305C265.146 96.2305 265.072 96.0373 264.895 95.8736C264.657 95.6552 264.272 95.5469 264.028 95.6256C263.661 95.7469 263.124 96.1155 263.117 96.5333C263.008 96.8662 262.947 97.1745 262.916 97.4773L261.261 98.1425L258.446 92.5137L255.718 92.1217L254.096 94.9376L253.423 92.5137L251.998 96.609H252.08L251.58 96.8675L250.757 93.9032L249.331 97.9979H249.393V98.817H248.918V106.835C248.159 108.578 242.234 121.859 237.309 123.462L237.138 123.517V123.645C236.391 123.402 234.412 122.566 233.204 120.265L233.077 120.33V120.009H231V129.5H233.077V126.723L240.949 126.956C240.185 127.391 239.428 127.825 238.874 128.609C238.75 128.855 238.626 129.101 238.626 129.347C238.626 130.329 238.502 131.435 238.75 132.418C244.33 132.295 250.034 132.541 255.614 132.295C259.954 132.172 264.418 131.804 268.758 131.804C268.806 131.455 268.841 131.1 268.882 130.748V135H307.665V123.787L355 122.835V118.535Z" fill="#B7C6E0"/>
<path fill-rule="evenodd" clip-rule="evenodd" d="M323 103H324V100H323V103Z" fill="#B7C6E0"/>
<path fill-rule="evenodd" clip-rule="evenodd" d="M322 103H323V100H322V103Z" fill="#B7C6E0"/>
<path fill-rule="evenodd" clip-rule="evenodd" d="M320 103H321V100H320V103Z" fill="#B7C6E0"/>
<path fill-rule="evenodd" clip-rule="evenodd" d="M319 103H320V100H319V103Z" fill="#B7C6E0"/>
<path fill-rule="evenodd" clip-rule="evenodd" d="M317 103H318V100H317V103Z" fill="#B7C6E0"/>
<path fill-rule="evenodd" clip-rule="evenodd" d="M316 103H317V100H316V103Z" fill="#B7C6E0"/>
<path fill-rule="evenodd" clip-rule="evenodd" d="M314 103H315V100H314V103Z" fill="#B7C6E0"/>
<path fill-rule="evenodd" clip-rule="evenodd" d="M324 121.619V119H323V121.619C323 121.829 323.225 122 323.5 122H323.501C323.776 121.999 324 121.828 324 121.619Z" fill="#B7C6E0"/>
<path fill-rule="evenodd" clip-rule="evenodd" d="M323 121.619V119H322V121.619C322 121.829 322.225 122 322.5 122H322.502C322.776 121.999 323 121.828 323 121.619Z" fill="#B7C6E0"/>
<path fill-rule="evenodd" clip-rule="evenodd" d="M321 121.619V119H320V121.619C320 121.829 320.225 122 320.5 122H320.502C320.784 121.999 321 121.828 321 121.619Z" fill="#B7C6E0"/>
<path fill-rule="evenodd" clip-rule="evenodd" d="M320 121.619V119H319V121.619C319 121.829 319.223 122 319.504 122H319.506C319.778 121.999 320 121.828 320 121.619Z" fill="#B7C6E0"/>
<path fill-rule="evenodd" clip-rule="evenodd" d="M318 121.619V119H317V121.619C317 121.829 317.218 122 317.504 122H317.506C317.782 121.999 318 121.828 318 121.619Z" fill="#B7C6E0"/>
<path fill-rule="evenodd" clip-rule="evenodd" d="M317 121.619V119H316V121.619C316 121.829 316.217 122 316.5 122H316.501C316.776 121.999 317 121.828 317 121.619Z" fill="#B7C6E0"/>
<path fill-rule="evenodd" clip-rule="evenodd" d="M315 121.619V119H314V121.619C314 121.829 314.217 122 314.5 122H314.502C314.776 121.999 315 121.828 315 121.619Z" fill="#B7C6E0"/>
<path fill-rule="evenodd" clip-rule="evenodd" d="M314 118H315V115H314V118Z" fill="#B7C6E0"/>
<path fill-rule="evenodd" clip-rule="evenodd" d="M317 118V115H316.003H316V118H316.003H317Z" fill="#B7C6E0"/>
<path fill-rule="evenodd" clip-rule="evenodd" d="M317 118H318V115H317V118Z" fill="#B7C6E0"/>
<path fill-rule="evenodd" clip-rule="evenodd" d="M319 118H320V115H319V118Z" fill="#B7C6E0"/>
<path fill-rule="evenodd" clip-rule="evenodd" d="M320 118H321V115H320V118Z" fill="#B7C6E0"/>
<path fill-rule="evenodd" clip-rule="evenodd" d="M322 118H323V115H322V118Z" fill="#B7C6E0"/>
<path fill-rule="evenodd" clip-rule="evenodd" d="M323 118H324V115H323V118Z" fill="#B7C6E0"/>
<path fill-rule="evenodd" clip-rule="evenodd" d="M323.002 105H323V116H323.002H324V105H323.002Z" fill="#B7C6E0"/>
<path fill-rule="evenodd" clip-rule="evenodd" d="M322 116H323V105H322V116Z" fill="#B7C6E0"/>
<path fill-rule="evenodd" clip-rule="evenodd" d="M320 116H321V105H320V116Z" fill="#B7C6E0"/>
<path fill-rule="evenodd" clip-rule="evenodd" d="M319 116H320V105H319V116Z" fill="#B7C6E0"/>
<path fill-rule="evenodd" clip-rule="evenodd" d="M318 116V105H317V116H317.003H318Z" fill="#B7C6E0"/>
<path fill-rule="evenodd" clip-rule="evenodd" d="M316 116H317V105H316V116Z" fill="#B7C6E0"/>
<path fill-rule="evenodd" clip-rule="evenodd" d="M314 116H315V105H314V116Z" fill="#B7C6E0"/>
<path fill-rule="evenodd" clip-rule="evenodd" d="M318.5 60.0135C317.665 60.0135 316.985 59.3344 316.985 58.499C316.985 57.6637 317.665 56.9846 318.5 56.9846C319.335 56.9846 320.015 57.6637 320.015 58.499C320.015 59.3344 319.335 60.0135 318.5 60.0135ZM318.503 54C316.017 54 314 56.0115 314 58.4971C314 60.9828 316.017 63 318.503 63C320.983 63 323 60.9828 323 58.4971C323 56.0115 320.983 54 318.503 54Z" fill="#B7C6E0"/>
<path fill-rule="evenodd" clip-rule="evenodd" d="M319.501 58C319.224 58 319 58.2249 319 58.4994C319 58.7751 319.224 59 319.501 59C319.776 59 320 58.7751 320 58.4994C320 58.2249 319.776 58 319.501 58Z" fill="#B7C6E0"/>
<path fill-rule="evenodd" clip-rule="evenodd" d="M322.548 36.5508C322.548 36.7171 322.418 36.8508 322.262 36.8508C322.107 36.8508 321.982 36.7171 321.982 36.5508V33.1191C321.982 32.947 322.107 32.814 322.262 32.814C322.418 32.814 322.548 32.947 322.548 33.1191V36.5508ZM321.375 36.5508C321.375 36.7171 321.246 36.8508 321.09 36.8508C320.934 36.8508 320.81 36.7171 320.81 36.5508V33.1191C320.81 32.947 320.934 32.814 321.09 32.814C321.246 32.814 321.375 32.947 321.375 33.1191V36.5508ZM320.203 36.5508C320.203 36.7171 320.073 36.8508 319.918 36.8508C319.762 36.8508 319.637 36.7171 319.637 36.5508V33.1191C319.637 32.947 319.762 32.814 319.918 32.814C320.073 32.814 320.203 32.947 320.203 33.1191V36.5508ZM319.031 36.5508C319.031 36.7171 318.901 36.8508 318.745 36.8508C318.589 36.8508 318.46 36.7171 318.46 36.5508V33.1191C318.46 32.947 318.589 32.814 318.745 32.814C318.901 32.814 319.031 32.947 319.031 33.1191V36.5508ZM317.853 36.5508C317.853 36.7171 317.729 36.8508 317.573 36.8508C317.418 36.8508 317.288 36.7171 317.288 36.5508V33.1191C317.288 32.947 317.418 32.814 317.573 32.814C317.729 32.814 317.853 32.947 317.853 33.1191V36.5508ZM316.246 31.6929H316.39V38H323.445V31.6929H323.754C323.89 31.6929 324 31.5759 324 31.4307C324 31.2855 323.89 31.1678 323.754 31.1678H323.34C321.511 28.0105 320.455 20.6603 320.019 16.9056C319.981 16.573 319.946 16.2699 319.919 16C319.889 16.2699 319.855 16.573 319.818 16.9056C319.381 20.6603 318.325 28.0105 316.496 31.1678H316.246C316.111 31.1678 316 31.2855 316 31.4307C316 31.5759 316.111 31.6929 316.246 31.6929Z" fill="#B7C6E0"/>
<path fill-rule="evenodd" clip-rule="evenodd" d="M324.821 118.824H324.819H324.065V115.757H324.819H324.821V118.824ZM324.821 121.909C324.821 122.115 324.651 122.283 324.444 122.283H324.443H324.441C324.234 122.283 324.065 122.115 324.065 121.909V119.335H324.819H324.821V121.909ZM322.888 122.283H322.886H322.886C322.678 122.283 322.509 122.115 322.509 121.909V119.335H323.262H323.264V121.909C323.264 122.115 323.095 122.283 322.888 122.283ZM321.325 122.283H321.324H321.323C321.115 122.283 320.946 122.115 320.946 121.909V119.335H321.699H321.702V121.909C321.702 122.115 321.538 122.283 321.325 122.283ZM319.775 122.283H319.774H319.773C319.559 122.283 319.39 122.115 319.39 121.909V119.335H320.15H320.152V121.909C320.152 122.115 319.982 122.283 319.775 122.283ZM318.219 122.283H318.217H318.217C318.003 122.283 317.84 122.115 317.84 121.909V119.335H318.586H318.589V121.909C318.589 122.115 318.426 122.283 318.219 122.283ZM316.656 122.283H316.655H316.654C316.44 122.283 316.277 122.115 316.277 121.909V119.335H317.03H317.033V121.909C317.033 122.115 316.863 122.283 316.656 122.283ZM315.1 122.283H315.099H315.097C314.885 122.283 314.721 122.115 314.721 121.909V119.335H315.474H315.476V121.909C315.476 122.115 315.307 122.283 315.1 122.283ZM314.721 115.757H315.474H315.476V118.824H315.474H314.721V115.757ZM314.721 104.6H315.474H315.476V115.247H315.474H314.721V104.6ZM314.723 104.089H315.476V101.022H314.723V104.089ZM314.723 100.511H315.476V90.5145H314.723V100.511ZM314.723 90.0034H315.476V88.8078H314.723V90.0034ZM314.723 88.2955H315.476V78.3017H314.723V88.2955ZM314.723 77.7893H315.476V76.5938H314.723V77.7893ZM314.723 68.2475C314.723 68.0418 314.886 67.8741 315.1 67.8741C315.307 67.8741 315.476 68.0418 315.476 68.2475V76.0814H314.723V68.2475ZM324.067 76.0814V68.2475C324.067 68.0418 324.237 67.8741 324.444 67.8741C324.651 67.8741 324.821 68.0418 324.821 68.2475V76.0814H324.067ZM324.067 77.7893H324.821V76.5938H324.067V77.7893ZM324.067 88.2955H324.821V78.3017H324.067V88.2955ZM324.067 90.0034H324.821V88.8078H324.067V90.0034ZM324.067 100.511H324.821V90.5145H324.067V100.511ZM324.067 104.089H324.821V101.022H324.067V104.089ZM323.262 115.247H322.509V104.6H323.262H323.264V115.247H323.262ZM322.509 115.757H323.262H323.264V118.824H323.262H322.509V115.757ZM320.946 115.757H321.699H321.702V118.824H321.699H320.946V115.757ZM319.39 115.757H320.15H320.152V118.824H320.15H319.39V115.757ZM317.84 115.757H318.586H318.589V118.824H318.586H317.84V115.757ZM316.28 100.511H317.033V90.5145H316.28V100.511ZM316.28 90.0034H317.033V88.8078H316.28V90.0034ZM316.28 88.2955H317.033V78.3017H316.28V88.2955ZM316.28 77.7893H317.033V76.5938H316.28V77.7893ZM317.033 76.0814H316.28V68.2475C316.28 68.0418 316.443 67.8741 316.656 67.8741C316.863 67.8741 317.033 68.0418 317.033 68.2475V76.0814ZM318.589 76.0814H317.842V68.2475C317.842 68.0418 318.005 67.8741 318.219 67.8741C318.426 67.8741 318.589 68.0418 318.589 68.2475V76.0814ZM320.152 76.0814H319.392V68.2475C319.392 68.0418 319.562 67.8741 319.775 67.8741C319.982 67.8741 320.152 68.0418 320.152 68.2475V76.0814ZM321.702 76.0814H320.949V68.2475C320.949 68.0418 321.118 67.8741 321.325 67.8741C321.538 67.8741 321.702 68.0418 321.702 68.2475V76.0814ZM322.511 90.0034H323.264V88.8078H322.511V90.0034ZM322.511 100.511H323.264V90.5145H322.511V100.511ZM320.949 104.089H321.702V101.022H320.949V104.089ZM320.946 104.6H321.699H321.702V115.247H321.699H320.946V104.6ZM319.39 104.6H320.15H320.152V115.247H320.15H319.39V104.6ZM317.842 100.511H318.589V90.5145H317.842V100.511ZM317.842 90.0034H318.589V88.8078H317.842V90.0034ZM317.842 88.2955H318.589V78.3017H317.842V88.2955ZM317.842 77.7893H318.589V76.5938H317.842V77.7893ZM319.392 77.7893H320.152V76.5938H319.392V77.7893ZM320.949 77.7893H321.702V76.5938H320.949V77.7893ZM320.949 88.2955H321.702V78.3017H320.949V88.2955ZM320.949 90.0034H321.702V88.8078H320.949V90.0034ZM320.949 100.511H321.702V90.5145H320.949V100.511ZM319.392 88.2955H320.152V78.3017H319.392V88.2955ZM319.392 90.0034H320.152V88.8078H319.392V90.0034ZM319.392 100.511H320.152V90.5145H319.392V100.511ZM319.392 104.089H320.152V101.022H319.392V104.089ZM317.842 104.089H318.589V101.022H317.842V104.089ZM317.84 104.6H318.586H318.589V115.247H318.586H317.842H317.84V104.6ZM322.511 104.089H323.264V101.022H322.511V104.089ZM322.511 88.2955H323.264V78.3017H322.511V88.2955ZM322.511 77.7893H323.264V76.5938H322.511V77.7893ZM323.264 76.0814H322.511V68.2475C322.511 68.0418 322.681 67.8741 322.888 67.8741C323.095 67.8741 323.264 68.0418 323.264 68.2475V76.0814ZM316.28 104.089H317.033V101.022H316.28V104.089ZM316.277 104.6H317.03H317.033V115.247H317.03H316.277V104.6ZM316.277 115.757H316.28H317.03H317.033V118.824H317.03H316.28H316.277V115.757ZM324.821 115.247H324.819H324.067H324.065V104.6H324.067H324.819H324.821V115.247ZM314.184 64.9376H325.448V53.7552H314.184V64.9376ZM324.066 49.6674V47.6597C324.066 47.454 324.234 47.2863 324.441 47.2863C324.649 47.2863 324.818 47.454 324.818 47.6597V49.6674C324.818 49.8731 324.649 50.0408 324.441 50.0408C324.234 50.0408 324.066 49.8731 324.066 49.6674ZM322.507 49.6674V47.6597C322.507 47.454 322.676 47.2863 322.883 47.2863C323.09 47.2863 323.259 47.454 323.259 47.6597V49.6674C323.259 49.8731 323.09 50.0408 322.883 50.0408C322.676 50.0408 322.507 49.8731 322.507 49.6674ZM320.949 49.6674V47.6597C320.949 47.454 321.118 47.2863 321.325 47.2863C321.538 47.2863 321.701 47.454 321.701 47.6597V49.6674C321.701 49.8731 321.538 50.0408 321.325 50.0408C321.118 50.0408 320.949 49.8731 320.949 49.6674ZM319.39 49.6674V47.6597C319.39 47.454 319.56 47.2863 319.773 47.2863C319.979 47.2863 320.148 47.454 320.148 47.6597V49.6674C320.148 49.8731 319.979 50.0408 319.773 50.0408C319.56 50.0408 319.39 49.8731 319.39 49.6674ZM317.838 49.6674V47.6597C317.838 47.454 318.001 47.2863 318.214 47.2863C318.421 47.2863 318.59 47.454 318.59 47.6597V49.6674C318.59 49.8731 318.421 50.0408 318.214 50.0408C318.001 50.0408 317.838 49.8731 317.838 49.6674ZM316.28 49.6674V47.6597C316.28 47.454 316.443 47.2863 316.655 47.2863C316.863 47.2863 317.031 47.454 317.031 47.6597V49.6674C317.031 49.8731 316.863 50.0408 316.655 50.0408C316.443 50.0408 316.28 49.8731 316.28 49.6674ZM314.721 49.6674V47.6597C314.721 47.454 314.885 47.2863 315.097 47.2863C315.304 47.2863 315.473 47.454 315.473 47.6597V49.6674C315.473 49.8731 315.304 50.0408 315.097 50.0408C314.885 50.0408 314.721 49.8731 314.721 49.6674ZM328.741 115.757C328.878 115.757 328.997 115.645 328.997 115.502C328.997 115.358 328.878 115.247 328.741 115.247H328.542V104.6H328.743C328.881 104.6 329 104.488 329 104.345C329 104.201 328.881 104.089 328.743 104.089H328.542V101.022H328.736C328.881 101.022 328.994 100.903 328.994 100.766C328.994 100.623 328.881 100.511 328.736 100.511H328.542V90.5145H328.738C328.88 90.5145 328.996 90.4004 328.996 90.2589C328.996 90.1174 328.88 90.0034 328.738 90.0034H328.542V88.8078H328.738C328.88 88.8078 328.996 88.6931 328.996 88.5523C328.996 88.4101 328.88 88.2955 328.738 88.2955H328.542V78.3017H328.738C328.88 78.3017 328.996 78.187 328.996 78.0455C328.996 77.904 328.88 77.7893 328.738 77.7893H328.542V76.5938H328.738C328.88 76.5938 328.996 76.4791 328.996 76.3382C328.996 76.1961 328.88 76.0814 328.738 76.0814H328.542V67.3723H328.738C328.88 67.3723 328.996 67.2576 328.996 67.1161C328.996 66.9746 328.88 66.8599 328.738 66.8599H328.542V51.0636H328.738C328.88 51.0636 328.996 50.9489 328.996 50.8075C328.996 50.6666 328.88 50.5519 328.738 50.5519H327.035V46.3675H327.42C327.562 46.3675 327.678 46.2534 327.678 46.1113C327.678 45.9705 327.562 45.8558 327.42 45.8558H326.927L323.68 38H316.202L312.746 45.8558H312.291C312.148 45.8558 312.033 45.9705 312.033 46.1113C312.033 46.2534 312.148 46.3675 312.291 46.3675H312.634V50.5519H311.259C311.116 50.5519 311.001 50.6666 311.001 50.8075C311.001 50.9489 311.116 51.0636 311.259 51.0636H311.347V66.8599H311.259C311.116 66.8599 311.001 66.9746 311.001 67.1161C311.001 67.2576 311.116 67.3723 311.259 67.3723H311.347V76.0814H311.259C311.116 76.0814 311.001 76.1961 311.001 76.3382C311.001 76.4791 311.116 76.5938 311.259 76.5938H311.347V77.7893H311.259C311.116 77.7893 311.001 77.904 311.001 78.0455C311.001 78.187 311.116 78.3017 311.259 78.3017H311.347V88.2955H311.259C311.116 88.2955 311.001 88.4101 311.001 88.5523C311.001 88.6931 311.116 88.8078 311.259 88.8078H311.347V90.0034H311.259C311.116 90.0034 311.001 90.1174 311.001 90.2589C311.001 90.4004 311.116 90.5145 311.259 90.5145H311.347V100.511H311.259C311.115 100.511 311.002 100.623 311.002 100.766C311.002 100.903 311.115 101.022 311.259 101.022H311.347V104.089H311.259C311.121 104.089 311.002 104.201 311.002 104.345C311.002 104.488 311.121 104.6 311.259 104.6H311.347V115.247H311.257C311.119 115.247 311 115.358 311 115.502C311 115.645 311.119 115.757 311.257 115.757H311.347V118.824H311.257C311.119 118.824 311 118.937 311 119.08C311 119.224 311.119 119.335 311.257 119.335H311.347V128H328.542V119.335H328.741C328.878 119.335 328.997 119.224 328.997 119.08C328.997 118.937 328.878 118.824 328.741 118.824H328.542V115.757H328.741Z" fill="#B7C6E0"/>
<path fill-rule="evenodd" clip-rule="evenodd" d="M471.5 46.6118C451.711 46.6118 435.612 62.7111 435.612 82.4997C435.612 102.289 451.711 118.388 471.5 118.388C491.288 118.388 507.389 102.289 507.389 82.4997C507.389 62.7111 491.288 46.6118 471.5 46.6118ZM471.5 120C450.822 120 434 103.178 434 82.4997C434 61.8225 450.822 45 471.5 45C492.178 45 509 61.8225 509 82.4997C509 103.178 492.178 120 471.5 120Z" fill="#B7C6E0"/>
<path fill-rule="evenodd" clip-rule="evenodd" d="M471 49.0843C452.85 49.0843 438.084 63.8503 438.084 82C438.084 100.15 452.85 114.916 471 114.916C489.151 114.916 503.918 100.15 503.918 82C503.918 63.8503 489.151 49.0843 471 49.0843ZM471 116C452.253 116 437 100.748 437 82C437 63.2524 452.253 48 471 48C489.748 48 505 63.2524 505 82C505 100.748 489.748 116 471 116Z" fill="#B7C6E0"/>
<path fill-rule="evenodd" clip-rule="evenodd" d="M471 42.4999C471 42.7758 470.777 43 470.5 43C470.224 43 470 42.7758 470 42.4999C470 42.224 470.224 42 470.5 42C470.777 42 471 42.224 471 42.4999Z" fill="#B7C6E0"/>
<path fill-rule="evenodd" clip-rule="evenodd" d="M471 45H472V44H471V45Z" fill="#B7C6E0"/>
<path fill-rule="evenodd" clip-rule="evenodd" d="M471 81.5003C471 81.776 470.776 82 470.499 82C470.223 82 470 81.776 470 81.5003C470 81.2238 470.223 81 470.499 81C470.776 81 471 81.2238 471 81.5003Z" fill="#B7C6E0"/>
<path fill-rule="evenodd" clip-rule="evenodd" d="M470 83H471V82H470V83Z" fill="#B7C6E0"/>
<path fill-rule="evenodd" clip-rule="evenodd" d="M461.99 43.4027C462.044 43.6733 461.868 43.9366 461.597 43.9903C461.327 44.0441 461.063 43.8684 461.01 43.5975C460.956 43.3267 461.132 43.0637 461.403 43.0097C461.673 42.9559 461.936 43.1316 461.99 43.4027Z" fill="#B7C6E0"/>
<path fill-rule="evenodd" clip-rule="evenodd" d="M462.863 44L462 44.2005L462.136 45L463 44.8L462.863 44Z" fill="#B7C6E0"/>
<path fill-rule="evenodd" clip-rule="evenodd" d="M454.962 45.3089C455.068 45.5634 454.946 45.8561 454.691 45.9617C454.437 46.0676 454.144 45.9462 454.039 45.691C453.932 45.4358 454.053 45.1438 454.309 45.0382C454.564 44.9325 454.856 45.0537 454.962 45.3089Z" fill="#B7C6E0"/>
<path fill-rule="evenodd" clip-rule="evenodd" d="M456.752 46L456 46.3428L456.249 47L457 46.6576L456.752 46Z" fill="#B7C6E0"/>
<path fill-rule="evenodd" clip-rule="evenodd" d="M448.916 48.2223C449.069 48.4516 449.008 48.7623 448.778 48.916C448.548 49.0691 448.238 49.007 448.084 48.7778C447.931 48.548 447.993 48.2378 448.222 48.084C448.452 47.931 448.762 47.9928 448.916 48.2223Z" fill="#B7C6E0"/>
<path fill-rule="evenodd" clip-rule="evenodd" d="M449.653 50L449 50.4568L449.347 51L450 50.5428L449.653 50Z" fill="#B7C6E0"/>
<path fill-rule="evenodd" clip-rule="evenodd" d="M442.854 53.1466C443.049 53.3413 443.049 53.6582 442.854 53.8536C442.658 54.0488 442.342 54.0488 442.147 53.8536C441.951 53.6579 441.951 53.3413 442.146 53.1461C442.342 52.9512 442.658 52.9512 442.854 53.1466Z" fill="#B7C6E0"/>
<path fill-rule="evenodd" clip-rule="evenodd" d="M443.557 54L443 54.5575L443.443 55L444 54.4429L443.557 54Z" fill="#B7C6E0"/>
<path fill-rule="evenodd" clip-rule="evenodd" d="M437.778 58.0847C438.007 58.2377 438.069 58.5481 437.916 58.7778C437.762 59.0071 437.452 59.0691 437.223 58.9159C436.993 58.7616 436.931 58.4514 437.085 58.2222C437.238 57.9924 437.548 57.9309 437.778 58.0847Z" fill="#B7C6E0"/>
<path fill-rule="evenodd" clip-rule="evenodd" d="M439.456 59L439 59.6537L439.543 60L440 59.347L439.456 59Z" fill="#B7C6E0"/>
<path fill-rule="evenodd" clip-rule="evenodd" d="M434.691 66.0382C434.946 66.1434 435.067 66.436 434.962 66.6917C434.856 66.9468 434.564 67.0673 434.309 66.9618C434.053 66.8556 433.933 66.5637 434.038 66.3088C434.144 66.0532 434.436 65.9327 434.691 66.0382Z" fill="#B7C6E0"/>
<path fill-rule="evenodd" clip-rule="evenodd" d="M436.342 67L436 67.7525L436.656 68L437 67.2475L436.342 67Z" fill="#B7C6E0"/>
<path fill-rule="evenodd" clip-rule="evenodd" d="M431.598 74.0098C431.868 74.0635 432.044 74.3268 431.99 74.5978C431.936 74.8683 431.673 75.0443 431.403 74.9903C431.132 74.9355 430.956 74.673 431.01 74.4025C431.064 74.1314 431.326 73.9558 431.598 74.0098Z" fill="#B7C6E0"/>
<path fill-rule="evenodd" clip-rule="evenodd" d="M431.199 74L431 74.8638L431.799 75L432 74.1358L431.199 74Z" fill="#B7C6E0"/>
<path fill-rule="evenodd" clip-rule="evenodd" d="M430.501 80C430.776 80 431.001 80.2242 431 80.5006C431 80.7766 430.776 81.0005 430.501 81C430.224 81 430 80.7766 430 80.5006C430 80.2242 430.224 80.0003 430.501 80Z" fill="#B7C6E0"/>
<path fill-rule="evenodd" clip-rule="evenodd" d="M431 81L431.001 81.9995L432 82V81H431Z" fill="#B7C6E0"/>
<path fill-rule="evenodd" clip-rule="evenodd" d="M431.403 88.0098C431.674 87.9555 431.937 88.1316 431.99 88.4025C432.044 88.6732 431.869 88.9367 431.598 88.9904C431.326 89.0437 431.064 88.8689 431.01 88.5977C430.956 88.3268 431.132 88.0641 431.403 88.0098Z" fill="#B7C6E0"/>
<path fill-rule="evenodd" clip-rule="evenodd" d="M431 88.1361L431.201 89L432 88.8631L431.8 88L431 88.1361Z" fill="#B7C6E0"/>
<path fill-rule="evenodd" clip-rule="evenodd" d="M434.308 97.0381C434.563 96.9326 434.856 97.0538 434.962 97.309C435.068 97.5639 434.946 97.8565 434.691 97.962C434.435 98.0672 434.144 97.9467 434.038 97.6916C433.933 97.4362 434.054 97.1443 434.308 97.0381Z" fill="#B7C6E0"/>
<path fill-rule="evenodd" clip-rule="evenodd" d="M434 97.2479L434.344 98L435 97.7524L434.658 97L434 97.2479Z" fill="#B7C6E0"/>
<path fill-rule="evenodd" clip-rule="evenodd" d="M437.222 102.084C437.452 101.931 437.762 101.992 437.916 102.222C438.069 102.452 438.007 102.762 437.778 102.916C437.548 103.069 437.238 103.008 437.085 102.778C436.931 102.548 436.993 102.238 437.222 102.084Z" fill="#B7C6E0"/>
<path fill-rule="evenodd" clip-rule="evenodd" d="M439 102.346L439.458 103L440 102.653L439.543 102L439 102.346Z" fill="#B7C6E0"/>
<path fill-rule="evenodd" clip-rule="evenodd" d="M442.146 108.146C442.342 107.951 442.658 107.951 442.853 108.147C443.049 108.342 443.049 108.658 442.853 108.854C442.658 109.048 442.342 109.049 442.146 108.854C441.951 108.658 441.951 108.342 442.146 108.146Z" fill="#B7C6E0"/>
<path fill-rule="evenodd" clip-rule="evenodd" d="M442 108.443L442.558 109L443 108.557L442.443 108L442 108.443Z" fill="#B7C6E0"/>
<path fill-rule="evenodd" clip-rule="evenodd" d="M447.084 113.222C447.238 112.993 447.548 112.931 447.778 113.084C448.007 113.238 448.069 113.548 447.916 113.777C447.761 114.007 447.452 114.069 447.222 113.916C446.993 113.762 446.931 113.452 447.084 113.222Z" fill="#B7C6E0"/>
<path fill-rule="evenodd" clip-rule="evenodd" d="M448 113.544L448.653 114L449 113.457L448.346 113L448 113.544Z" fill="#B7C6E0"/>
<path fill-rule="evenodd" clip-rule="evenodd" d="M454.038 117.309C454.144 117.054 454.436 116.933 454.691 117.038C454.947 117.144 455.067 117.436 454.962 117.691C454.855 117.946 454.564 118.068 454.309 117.962C454.053 117.856 453.933 117.564 454.038 117.309Z" fill="#B7C6E0"/>
<path fill-rule="evenodd" clip-rule="evenodd" d="M454 117.658L454.752 118L455 117.343L454.248 117L454 117.658Z" fill="#B7C6E0"/>
<path fill-rule="evenodd" clip-rule="evenodd" d="M461.009 120.403C461.064 120.132 461.327 119.956 461.598 120.01C461.869 120.064 462.044 120.327 461.99 120.598C461.936 120.868 461.674 121.044 461.402 120.99C461.132 120.936 460.956 120.674 461.009 120.403Z" fill="#B7C6E0"/>
<path fill-rule="evenodd" clip-rule="evenodd" d="M461 119.8L461.864 120L462 119.201L461.137 119L461 119.8Z" fill="#B7C6E0"/>
<path fill-rule="evenodd" clip-rule="evenodd" d="M469 120.5C469.001 120.224 469.224 120.001 469.5 120C469.776 120.001 470 120.224 470 120.5C469.999 120.776 469.776 121 469.5 121C469.224 120.999 469.001 120.776 469 120.5Z" fill="#B7C6E0"/>
<path fill-rule="evenodd" clip-rule="evenodd" d="M470 121L471 120.999V120.001L470.001 120L470 121Z" fill="#B7C6E0"/>
<path fill-rule="evenodd" clip-rule="evenodd" d="M477.01 120.598C476.956 120.327 477.133 120.064 477.403 120.009C477.674 119.956 477.936 120.132 477.99 120.402C478.044 120.673 477.869 120.936 477.598 120.99C477.327 121.044 477.065 120.868 477.01 120.598Z" fill="#B7C6E0"/>
<path fill-rule="evenodd" clip-rule="evenodd" d="M477.137 120L478 119.799L477.864 119L477 119.199L477.137 120Z" fill="#B7C6E0"/>
<path fill-rule="evenodd" clip-rule="evenodd" d="M484.038 117.692C483.932 117.436 484.054 117.144 484.309 117.038C484.565 116.933 484.857 117.054 484.962 117.309C485.067 117.564 484.947 117.856 484.691 117.962C484.436 118.067 484.144 117.946 484.038 117.692Z" fill="#B7C6E0"/>
<path fill-rule="evenodd" clip-rule="evenodd" d="M484.248 118L485 117.656L484.752 117L484 117.343L484.248 118Z" fill="#B7C6E0"/>
<path fill-rule="evenodd" clip-rule="evenodd" d="M490.084 114.778C489.931 114.548 489.993 114.237 490.222 114.084C490.452 113.931 490.762 113.992 490.916 114.222C491.069 114.453 491.007 114.763 490.778 114.916C490.549 115.069 490.238 115.007 490.084 114.778Z" fill="#B7C6E0"/>
<path fill-rule="evenodd" clip-rule="evenodd" d="M490.347 115L491 114.543L490.654 114L490 114.457L490.347 115Z" fill="#B7C6E0"/>
<path fill-rule="evenodd" clip-rule="evenodd" d="M497.146 109.854C496.951 109.658 496.952 109.341 497.146 109.146C497.341 108.951 497.658 108.951 497.853 109.147C498.049 109.343 498.049 109.658 497.853 109.854C497.658 110.049 497.342 110.049 497.146 109.854Z" fill="#B7C6E0"/>
<path fill-rule="evenodd" clip-rule="evenodd" d="M497.443 110L498 109.441L497.558 109L497 109.557L497.443 110Z" fill="#B7C6E0"/>
<path fill-rule="evenodd" clip-rule="evenodd" d="M502.222 103.916C501.992 103.762 501.931 103.452 502.084 103.222C502.238 102.993 502.548 102.931 502.778 103.085C503.007 103.239 503.069 103.548 502.916 103.778C502.762 104.007 502.452 104.069 502.222 103.916Z" fill="#B7C6E0"/>
<path fill-rule="evenodd" clip-rule="evenodd" d="M502.543 104L503 103.346L502.458 103L502 103.653L502.543 104Z" fill="#B7C6E0"/>
<path fill-rule="evenodd" clip-rule="evenodd" d="M505.309 97.9622C505.054 97.8563 504.933 97.5632 505.038 97.3082C505.144 97.0534 505.436 96.9324 505.691 97.0384C505.947 97.1448 506.067 97.4358 505.962 97.6914C505.856 97.9462 505.564 98.0671 505.309 97.9622Z" fill="#B7C6E0"/>
<path fill-rule="evenodd" clip-rule="evenodd" d="M505.658 98L506 97.2481L505.344 97L505 97.7519L505.658 98Z" fill="#B7C6E0"/>
<path fill-rule="evenodd" clip-rule="evenodd" d="M508.403 89.9906C508.132 89.9363 507.956 89.6726 508.01 89.4017C508.064 89.1313 508.327 88.9556 508.597 89.0098C508.869 89.0641 509.044 89.3265 508.99 89.5974C508.936 89.868 508.674 90.0436 508.403 89.9906Z" fill="#B7C6E0"/>
<path fill-rule="evenodd" clip-rule="evenodd" d="M508.8 90L509 89.1369L508.201 89L508 89.8631L508.8 90Z" fill="#B7C6E0"/>
<path fill-rule="evenodd" clip-rule="evenodd" d="M508.5 82C508.224 82 508.001 81.7754 508 81.4994C508.001 81.2233 508.224 81 508.501 81C508.776 81.001 508.999 81.2233 509 81.4999C508.999 81.7764 508.776 81.9995 508.5 82Z" fill="#B7C6E0"/>
<path fill-rule="evenodd" clip-rule="evenodd" d="M509 83L508.999 82.001L508 82V82.999L509 83Z" fill="#B7C6E0"/>
<path fill-rule="evenodd" clip-rule="evenodd" d="M508.597 74.9903C508.327 75.0441 508.064 74.8678 508.009 74.5969C507.957 74.3263 508.132 74.0631 508.403 74.0096C508.674 73.9561 508.936 74.1311 508.99 74.4023C509.044 74.6732 508.868 74.9355 508.597 74.9903Z" fill="#B7C6E0"/>
<path fill-rule="evenodd" clip-rule="evenodd" d="M509 75.8645L508.798 75L508 75.1359L508.201 76L509 75.8645Z" fill="#B7C6E0"/>
<path fill-rule="evenodd" clip-rule="evenodd" d="M505.692 67.9616C505.436 68.0679 505.144 67.9459 505.038 67.6907C504.933 67.4354 505.054 67.1436 505.309 67.0378C505.565 66.9332 505.856 67.0528 505.962 67.3087C506.067 67.5641 505.946 67.8556 505.692 67.9616Z" fill="#B7C6E0"/>
<path fill-rule="evenodd" clip-rule="evenodd" d="M506 68.7528L505.656 68L505 68.2468L505.343 69L506 68.7528Z" fill="#B7C6E0"/>
<path fill-rule="evenodd" clip-rule="evenodd" d="M503.778 59.9155C503.548 60.0695 503.238 60.0069 503.083 59.7775C502.932 59.548 502.992 59.2379 503.223 59.0841C503.453 58.9314 503.762 58.9921 503.916 59.2219C504.069 59.4521 504.007 59.7617 503.778 59.9155Z" fill="#B7C6E0"/>
<path fill-rule="evenodd" clip-rule="evenodd" d="M503 60.6536L502.542 60L502 60.3464L502.456 61L503 60.6536Z" fill="#B7C6E0"/>
<path fill-rule="evenodd" clip-rule="evenodd" d="M498.854 53.8534C498.658 54.0495 498.342 54.0482 498.146 53.8534C497.951 53.6577 497.951 53.3419 498.147 53.1463C498.343 52.9517 498.658 52.9507 498.854 53.1466C499.049 53.3422 499.048 53.6575 498.854 53.8534Z" fill="#B7C6E0"/>
<path fill-rule="evenodd" clip-rule="evenodd" d="M499 54.5569L498.442 54L498 54.4424L498.557 55L499 54.5569Z" fill="#B7C6E0"/>
<path fill-rule="evenodd" clip-rule="evenodd" d="M491.916 48.7775C491.763 49.008 491.452 49.0687 491.222 48.9157C490.993 48.7618 490.931 48.452 491.085 48.2225C491.239 47.9931 491.548 47.9306 491.778 48.0843C492.008 48.2386 492.069 48.5478 491.916 48.7775Z" fill="#B7C6E0"/>
<path fill-rule="evenodd" clip-rule="evenodd" d="M492 50.4567L491.346 50L491 50.5425L491.652 51L492 50.4567Z" fill="#B7C6E0"/>
<path fill-rule="evenodd" clip-rule="evenodd" d="M484.962 45.6909C484.856 45.9466 484.564 46.067 484.308 45.9621C484.054 45.856 483.932 45.5643 484.038 45.3082C484.145 45.0535 484.437 44.9326 484.692 45.0382C484.946 45.1444 485.067 45.4356 484.962 45.6909Z" fill="#B7C6E0"/>
<path fill-rule="evenodd" clip-rule="evenodd" d="M485 47.3424L484.247 47L484 47.6563L484.752 48L485 47.3424Z" fill="#B7C6E0"/>
<path fill-rule="evenodd" clip-rule="evenodd" d="M477.99 43.5971C477.937 43.8683 477.673 44.0437 477.402 43.9905C477.131 43.9357 476.956 43.6733 477.01 43.4024C477.064 43.1314 477.327 42.9558 477.598 43.0097C477.868 43.0642 478.044 43.3264 477.99 43.5971Z" fill="#B7C6E0"/>
<path fill-rule="evenodd" clip-rule="evenodd" d="M478 45.1987L477.135 45L477 45.7988L477.863 46L478 45.1987Z" fill="#B7C6E0"/>
<path fill-rule="evenodd" clip-rule="evenodd" d="M485 127.82L471.161 82H469.839L456 127.82C456 127.82 457.598 128.225 457.785 127.82C466.107 109.837 470.5 84.2631 470.5 84.2631C470.5 84.2631 476.093 114.204 483.216 127.82C483.423 128.215 485 127.82 485 127.82Z" fill="#B7C6E0"/>
<path fill-rule="evenodd" clip-rule="evenodd" d="M471.521 50L469 45.1229L469.264 45L471.521 49.3663L473.735 45.0518L474 45.1728L471.521 50Z" fill="#B7C6E0"/>
<path fill-rule="evenodd" clip-rule="evenodd" d="M464.535 50L461 45.8994L461.237 45.7395L464.404 49.4101L465.712 45L466 45.0669L464.535 50Z" fill="#B7C6E0"/>
<path fill-rule="evenodd" clip-rule="evenodd" d="M457.704 52L454 48.6623L454.166 48.4676L457.483 51.4564L457.748 47L458 47.0155L457.704 52Z" fill="#B7C6E0"/>
<path fill-rule="evenodd" clip-rule="evenodd" d="M453 55L448 52.4392L448.148 52.2131L452.625 54.5055L451.935 50.0355L452.228 50L453 55Z" fill="#B7C6E0"/>
<path fill-rule="evenodd" clip-rule="evenodd" d="M448 58L443 56.2718L443.088 56.0113L447.564 57.5599L446.041 53.0883L446.298 53L448 58Z" fill="#B7C6E0"/>
<path fill-rule="evenodd" clip-rule="evenodd" d="M444 64L439 63.2251L439.034 62.9277L443.509 63.6219L441.263 59.1511L441.486 59L444 64Z" fill="#B7C6E0"/>
<path fill-rule="evenodd" clip-rule="evenodd" d="M436.016 70L436 69.7461L440.461 69.4622L437.536 66.1695L437.727 66L441 69.6839L436.016 70Z" fill="#B7C6E0"/>
<path fill-rule="evenodd" clip-rule="evenodd" d="M434.067 78L434 77.7119L438.415 76.3666L434.824 73.2391L434.982 73L439 76.4976L434.067 78Z" fill="#B7C6E0"/>
<path fill-rule="evenodd" clip-rule="evenodd" d="M434.121 84L434 83.7363L438.366 81.4791L434.051 79.263L434.172 79L439 81.4791L434.121 84Z" fill="#B7C6E0"/>
<path fill-rule="evenodd" clip-rule="evenodd" d="M434.9 92L434.74 91.7626L438.409 88.5978L434 87.2895L434.066 87L439 88.4647L434.9 92Z" fill="#B7C6E0"/>
<path fill-rule="evenodd" clip-rule="evenodd" d="M437.662 99L437.467 98.8326L440.456 95.5174L436 95.2529L436.016 95L441 95.2959L437.662 99Z" fill="#B7C6E0"/>
<path fill-rule="evenodd" clip-rule="evenodd" d="M441.44 105L441.214 104.852L443.505 100.375L439.037 101.066L439 100.772L444 100L441.44 105Z" fill="#B7C6E0"/>
<path fill-rule="evenodd" clip-rule="evenodd" d="M445.272 110L445.012 109.912L446.56 105.436L442.088 106.958L442 106.702L447 105L445.272 110Z" fill="#B7C6E0"/>
<path fill-rule="evenodd" clip-rule="evenodd" d="M451.225 114L450.927 113.966L451.62 109.489L447.151 111.735L447 111.512L452 109L451.225 114Z" fill="#B7C6E0"/>
<path fill-rule="evenodd" clip-rule="evenodd" d="M457.747 117L457.462 112.539L454.169 115.464L454 115.271L457.683 112L458 116.984L457.747 117Z" fill="#B7C6E0"/>
<path fill-rule="evenodd" clip-rule="evenodd" d="M465.71 119L464.365 114.583L461.239 118.176L461 118.017L464.498 114L466 118.933L465.71 119Z" fill="#B7C6E0"/>
<path fill-rule="evenodd" clip-rule="evenodd" d="M472.736 120L470.479 115.635L468.263 119.95L468 119.827L470.478 115L473 119.877L472.736 120Z" fill="#B7C6E0"/>
<path fill-rule="evenodd" clip-rule="evenodd" d="M475.287 120L475 119.932L476.464 115L480 119.099L479.763 119.258L476.597 115.59L475.287 120Z" fill="#B7C6E0"/>
<path fill-rule="evenodd" clip-rule="evenodd" d="M482.253 118L482 117.984L482.296 113L486 116.337L485.834 116.531L482.519 113.545L482.253 118Z" fill="#B7C6E0"/>
<path fill-rule="evenodd" clip-rule="evenodd" d="M488.771 115L488 110L493 112.559L492.853 112.786L488.377 110.494L489.065 114.963L488.771 115Z" fill="#B7C6E0"/>
<path fill-rule="evenodd" clip-rule="evenodd" d="M494.702 111L493 106L498 107.729L497.912 107.988L493.436 106.441L494.959 110.91L494.702 111Z" fill="#B7C6E0"/>
<path fill-rule="evenodd" clip-rule="evenodd" d="M500.513 107L498 102L503 102.773L502.966 103.071L498.491 102.379L500.736 106.849L500.513 107Z" fill="#B7C6E0"/>
<path fill-rule="evenodd" clip-rule="evenodd" d="M503.273 100L500 96.3177L504.985 96L505 96.2532L500.538 96.538L503.464 99.83L503.273 100Z" fill="#B7C6E0"/>
<path fill-rule="evenodd" clip-rule="evenodd" d="M507.017 93L503 89.5037L507.933 88L508 88.2899L503.584 89.6352L507.175 92.7611L507.017 93Z" fill="#B7C6E0"/>
<path fill-rule="evenodd" clip-rule="evenodd" d="M507.828 85L503 82.5216L507.877 80L508 80.2642L503.632 82.5202L507.949 84.7365L507.828 85Z" fill="#B7C6E0"/>
<path fill-rule="evenodd" clip-rule="evenodd" d="M507.933 79L503 77.5345L507.099 74L507.259 74.2359L503.59 77.4021L508 78.7113L507.933 79Z" fill="#B7C6E0"/>
<path fill-rule="evenodd" clip-rule="evenodd" d="M506.983 71L502 70.7019L505.335 67L505.53 67.1668L502.544 70.4805L507 70.7461L506.983 71Z" fill="#B7C6E0"/>
<path fill-rule="evenodd" clip-rule="evenodd" d="M498 64L500.559 59L500.785 59.1491L498.494 63.6242L502.963 62.9352L503 63.23L498 64Z" fill="#B7C6E0"/>
<path fill-rule="evenodd" clip-rule="evenodd" d="M493 59L494.728 54L494.987 54.0878L493.441 58.5637L497.911 57.0427L498 57.2991L493 59Z" fill="#B7C6E0"/>
<path fill-rule="evenodd" clip-rule="evenodd" d="M489 55L489.772 50L490.07 50.0345L489.378 54.5109L493.849 52.2638L494 52.4866L489 55Z" fill="#B7C6E0"/>
<path fill-rule="evenodd" clip-rule="evenodd" d="M484.319 52L484 47.0165L484.255 47L484.538 51.4616L487.832 48.5352L488 48.7271L484.319 52Z" fill="#B7C6E0"/>
<path fill-rule="evenodd" clip-rule="evenodd" d="M476.504 50L475 45.0674L475.29 45L476.635 49.4154L479.761 45.8228L480 45.981L476.504 50Z" fill="#B7C6E0"/>
<path fill-rule="evenodd" clip-rule="evenodd" d="M471.146 82L470.961 81.9982L469 45.0092L469.186 45L471.072 80.5785L473.815 45.5868L474 45.6009L471.146 82Z" fill="#B7C6E0"/>
<path fill-rule="evenodd" clip-rule="evenodd" d="M469.832 83L461 46.3489L461.166 46.305L469.662 81.5576L465.473 46.0219L465.644 46L470 82.9668L469.832 83Z" fill="#B7C6E0"/>
<path fill-rule="evenodd" clip-rule="evenodd" d="M470.827 82L454 48.2725L454.169 48.1964L470.352 80.6378L458.692 47.0563L458.87 47L471 81.9357L470.827 82Z" fill="#B7C6E0"/>
<path fill-rule="evenodd" clip-rule="evenodd" d="M470.848 82L448 52.143L448.145 52.0375L470.123 80.7553L452.246 50.0863L452.403 50L471 81.9044L470.848 82Z" fill="#B7C6E0"/>
<path fill-rule="evenodd" clip-rule="evenodd" d="M470.872 82L443 56.9483L443.12 56.8171L469.928 80.9114L446.68 54.1157L446.816 54L471 81.8762L470.872 82Z" fill="#B7C6E0"/>
<path fill-rule="evenodd" clip-rule="evenodd" d="M470.9 82L439 62.6637L439.091 62.5101L469.774 81.1084L442.02 59.1411L442.129 59L471 81.8539L470.9 82Z" fill="#B7C6E0"/>
<path fill-rule="evenodd" clip-rule="evenodd" d="M470.931 83L436 70.245L436.06 70.0751L469.656 82.3432L438.279 66.1611L438.359 66L471 82.8345L470.931 83Z" fill="#B7C6E0"/>
<path fill-rule="evenodd" clip-rule="evenodd" d="M470.965 82L434 77.1029L434.025 76.9447L469.58 81.6553L435.467 73.1537L435.513 73L471 81.8446L470.965 82Z" fill="#B7C6E0"/>
<path fill-rule="evenodd" clip-rule="evenodd" d="M434.009 84L434 83.8143L469.576 81.9272L434.585 79.185L434.598 79L471 81.8532L470.996 82.0388L434.009 84Z" fill="#B7C6E0"/>
<path fill-rule="evenodd" clip-rule="evenodd" d="M434.35 91L434.307 90.8338L469.557 82.3384L434.023 86.5264L434 86.3554L470.967 82L471 82.1674L434.35 91Z" fill="#B7C6E0"/>
<path fill-rule="evenodd" clip-rule="evenodd" d="M437.271 99L437.196 98.8321L469.637 82.6476L436.055 94.3074L436 94.1291L470.934 82L471 82.1731L437.271 99Z" fill="#B7C6E0"/>
<path fill-rule="evenodd" clip-rule="evenodd" d="M441.143 105L441.038 104.854L469.755 82.8779L439.087 100.755L439 100.597L470.904 82L471 82.1511L441.143 105Z" fill="#B7C6E0"/>
<path fill-rule="evenodd" clip-rule="evenodd" d="M444.948 110L444.816 109.88L468.912 83.0719L442.116 106.32L442 106.184L469.876 82L470 82.1271L444.948 110Z" fill="#B7C6E0"/>
<path fill-rule="evenodd" clip-rule="evenodd" d="M451.662 114L451.508 113.909L470.108 83.227L448.14 110.979L448 110.87L470.853 82L471 82.1004L451.662 114Z" fill="#B7C6E0"/>
<path fill-rule="evenodd" clip-rule="evenodd" d="M458.244 117L458.074 116.941L470.344 83.3429L454.16 114.722L454 114.642L470.835 82L471 82.0695L458.244 117Z" fill="#B7C6E0"/>
<path fill-rule="evenodd" clip-rule="evenodd" d="M465.101 119L464.943 118.974L469.656 83.4216L461.153 117.532L461 117.484L469.845 82L470 82.0372L465.101 119Z" fill="#B7C6E0"/>
<path fill-rule="evenodd" clip-rule="evenodd" d="M472.815 119L470.929 83.4227L468.186 118.413L468 118.4L470.853 82L471.039 82.0018L473 118.992L472.815 119Z" fill="#B7C6E0"/>
<path fill-rule="evenodd" clip-rule="evenodd" d="M475.356 119L471 82.0332L471.168 82L480 118.651L479.835 118.694L471.34 83.443L475.527 118.977L475.356 119Z" fill="#B7C6E0"/>
<path fill-rule="evenodd" clip-rule="evenodd" d="M483.13 117L471 82.0656L471.174 82L488 115.728L487.831 115.803L471.647 83.364L483.307 116.944L483.13 117Z" fill="#B7C6E0"/>
<path fill-rule="evenodd" clip-rule="evenodd" d="M489.597 114L471 82.0956L471.152 82L494 111.857L493.854 111.961L471.877 83.2447L489.754 113.913L489.597 114Z" fill="#B7C6E0"/>
<path fill-rule="evenodd" clip-rule="evenodd" d="M495.184 110L471 82.1232L471.126 82L499 107.051L498.88 107.182L472.071 83.0874L495.319 109.884L495.184 110Z" fill="#B7C6E0"/>
<path fill-rule="evenodd" clip-rule="evenodd" d="M499.871 105L471 82.1473L471.099 82L503 101.337L502.91 101.49L472.226 82.8916L499.98 104.858L499.871 105Z" fill="#B7C6E0"/>
<path fill-rule="evenodd" clip-rule="evenodd" d="M503.64 99L471 82.1649L471.071 82L506 94.7557L505.942 94.9256L472.344 82.6563L503.72 98.8395L503.64 99Z" fill="#B7C6E0"/>
<path fill-rule="evenodd" clip-rule="evenodd" d="M506.483 91L471 82.1549L471.037 82L508 86.8974L507.974 87.0562L472.422 82.3442L506.531 90.8474L506.483 91Z" fill="#B7C6E0"/>
<path fill-rule="evenodd" clip-rule="evenodd" d="M507.399 85L471 82.1478L471.001 81.9621L507.991 80L508 80.1857L472.423 82.0725L507.411 84.8143L507.399 85Z" fill="#B7C6E0"/>
<path fill-rule="evenodd" clip-rule="evenodd" d="M471.033 83L471 82.832L507.651 74L507.694 74.1662L472.442 82.661L507.977 78.4736L508 78.6434L471.033 83Z" fill="#B7C6E0"/>
<path fill-rule="evenodd" clip-rule="evenodd" d="M471.064 84L471 83.8269L504.727 67L504.804 67.1692L472.363 83.355L505.945 71.6934L506 71.8704L471.064 84Z" fill="#B7C6E0"/>
<path fill-rule="evenodd" clip-rule="evenodd" d="M471.096 82L471 81.8489L500.856 59L500.961 59.1454L472.245 81.1214L502.912 63.2468L503 63.4036L471.096 82Z" fill="#B7C6E0"/>
<path fill-rule="evenodd" clip-rule="evenodd" d="M471.124 82L471 81.8723L496.051 54L496.183 54.1196L472.088 80.9281L498.885 57.6823L499 57.8168L471.124 82Z" fill="#B7C6E0"/>
<path fill-rule="evenodd" clip-rule="evenodd" d="M471.147 82L471 81.9008L490.336 50L490.49 50.0899L471.891 80.7742L493.859 53.0209L494 53.1293L471.147 82Z" fill="#B7C6E0"/>
<path fill-rule="evenodd" clip-rule="evenodd" d="M471.165 82L471 81.9305L483.757 47L483.927 47.0584L471.657 80.6552L487.84 49.2796L488 49.3589L471.165 82Z" fill="#B7C6E0"/>
<path fill-rule="evenodd" clip-rule="evenodd" d="M471.155 82L471 81.9628L475.899 45L476.056 45.0248L471.345 80.5777L479.848 46.4693L480 46.5158L471.155 82Z" fill="#B7C6E0"/>
<path fill-rule="evenodd" clip-rule="evenodd" d="M406 99H407V93H406V99Z" fill="#B7C6E0"/>
<path fill-rule="evenodd" clip-rule="evenodd" d="M406.579 102H406.421H348V129H378.808V125.346C378.808 124.325 379.621 123.497 380.626 123.497C381.129 123.497 381.583 123.704 381.912 124.039C382.241 124.373 382.445 124.836 382.445 125.346V129H406.421H406.579H430.556V125.346C430.556 124.836 430.759 124.373 431.088 124.039C431.418 123.704 431.871 123.497 432.374 123.497C433.378 123.497 434.191 124.325 434.191 125.346V129H465V102H406.579Z" fill="#B7C6E0"/>
<path fill-rule="evenodd" clip-rule="evenodd" d="M406.579 102H406.421H348V129H378.808V125.346C378.808 124.325 379.621 123.497 380.626 123.497C381.129 123.497 381.583 123.704 381.912 124.039C382.241 124.373 382.445 124.836 382.445 125.346V129H406.421H406.579H430.556V125.346C430.556 124.836 430.759 124.373 431.088 124.039C431.418 123.704 431.871 123.497 432.374 123.497C433.378 123.497 434.191 124.325 434.191 125.346V129H465V102H406.579Z" stroke="white"/>
<path fill-rule="evenodd" clip-rule="evenodd" d="M349 104H366V100H349V104Z" fill="#B7C6E0"/>
<path fill-rule="evenodd" clip-rule="evenodd" d="M349 104H366V100H349V104Z" stroke="white"/>
<path fill-rule="evenodd" clip-rule="evenodd" d="M349 106H366V105H349V106Z" fill="#B7C6E0"/>
<path fill-rule="evenodd" clip-rule="evenodd" d="M349 106H366V105H349V106Z" stroke="white"/>
<path fill-rule="evenodd" clip-rule="evenodd" d="M355 118H356V106H355V118Z" fill="#B7C6E0"/>
<path fill-rule="evenodd" clip-rule="evenodd" d="M355 118H356V106H355V118Z" stroke="white"/>
<path fill-rule="evenodd" clip-rule="evenodd" d="M357 118H358V106H357V118Z" fill="#B7C6E0"/>
<path fill-rule="evenodd" clip-rule="evenodd" d="M357 118H358V106H357V118Z" stroke="white"/>
<path fill-rule="evenodd" clip-rule="evenodd" d="M362 118H363V106H362V118Z" fill="#B7C6E0"/>
<path fill-rule="evenodd" clip-rule="evenodd" d="M362 118H363V106H362V118Z" stroke="white"/>
<path fill-rule="evenodd" clip-rule="evenodd" d="M349 118H350V106H349V118Z" fill="#B7C6E0"/>
<path fill-rule="evenodd" clip-rule="evenodd" d="M349 118H350V106H349V118Z" stroke="white"/>
<path fill-rule="evenodd" clip-rule="evenodd" d="M405 118H406V106H405V118Z" fill="#B7C6E0"/>
<path fill-rule="evenodd" clip-rule="evenodd" d="M405 118H406V106H405V118Z" stroke="white"/>
<path fill-rule="evenodd" clip-rule="evenodd" d="M397 118H402V106H397V118Z" fill="#B7C6E0"/>
<path fill-rule="evenodd" clip-rule="evenodd" d="M397 118H402V106H397V118Z" stroke="white"/>
<path fill-rule="evenodd" clip-rule="evenodd" d="M348 129H365V102H348V129Z" stroke="white"/>
<path fill-rule="evenodd" clip-rule="evenodd" d="M449 104H466V100H449V104Z" fill="#B7C6E0"/>
<path fill-rule="evenodd" clip-rule="evenodd" d="M449 104H466V100H449V104Z" stroke="white"/>
<path fill-rule="evenodd" clip-rule="evenodd" d="M449 106H466V105H449V106Z" fill="#B7C6E0"/>
<path fill-rule="evenodd" clip-rule="evenodd" d="M449 106H466V105H449V106Z" stroke="white"/>
<path fill-rule="evenodd" clip-rule="evenodd" d="M457 118H458V106H457V118Z" fill="#B7C6E0"/>
<path fill-rule="evenodd" clip-rule="evenodd" d="M457 118H458V106H457V118Z" stroke="white"/>
<path fill-rule="evenodd" clip-rule="evenodd" d="M454 118H455V106H454V118Z" fill="#B7C6E0"/>
<path fill-rule="evenodd" clip-rule="evenodd" d="M454 118H455V106H454V118Z" stroke="white"/>
<path fill-rule="evenodd" clip-rule="evenodd" d="M449 118H452V106H449V118Z" fill="#B7C6E0"/>
<path fill-rule="evenodd" clip-rule="evenodd" d="M449 118H452V106H449V118Z" stroke="white"/>
<path fill-rule="evenodd" clip-rule="evenodd" d="M462 118H465V106H462V118Z" fill="#B7C6E0"/>
<path fill-rule="evenodd" clip-rule="evenodd" d="M462 118H465V106H462V118Z" stroke="white"/>
<path fill-rule="evenodd" clip-rule="evenodd" d="M407.082 99H406.92H397V103H406.92H407.082H417V99H407.082Z" fill="#B7C6E0"/>
<path fill-rule="evenodd" clip-rule="evenodd" d="M407.082 99H406.92H397V103H406.92H407.082H417V99H407.082Z" stroke="white"/>
<path fill-rule="evenodd" clip-rule="evenodd" d="M408 118H409V106H408V118Z" fill="#B7C6E0"/>
<path fill-rule="evenodd" clip-rule="evenodd" d="M408 118H409V106H408V118Z" stroke="white"/>
<path fill-rule="evenodd" clip-rule="evenodd" d="M413 118H418V106H413V118Z" fill="#B7C6E0"/>
<path fill-rule="evenodd" clip-rule="evenodd" d="M413 118H418V106H413V118Z" stroke="white"/>
<path fill-rule="evenodd" clip-rule="evenodd" d="M407.08 105H406.92H397V108H406.92H407.08H417V105H407.08Z" fill="#B7C6E0"/>
<path fill-rule="evenodd" clip-rule="evenodd" d="M407.08 105H406.92H397V108H406.92H407.08H417V105H407.08Z" stroke="white"/>
<path fill-rule="evenodd" clip-rule="evenodd" d="M449 129H466V102H449V129Z" stroke="white"/>
<path fill-rule="evenodd" clip-rule="evenodd" d="M407.08 100H406.921L396 105H406.921H407.08H418L407.08 100Z" fill="#B7C6E0"/>
<path fill-rule="evenodd" clip-rule="evenodd" d="M407.08 100H406.921L396 105H406.921H407.08H418L407.08 100Z" stroke="white"/>
<path fill-rule="evenodd" clip-rule="evenodd" d="M356 102H355.915L349 106H363L356 102Z" fill="#B7C6E0"/>
<path fill-rule="evenodd" clip-rule="evenodd" d="M356 102H355.915L349 106H363L356 102Z" stroke="white"/>
<path fill-rule="evenodd" clip-rule="evenodd" d="M457.084 102L464 106H450L457.001 102" fill="#B7C6E0"/>
<path d="M457.084 102L464 106H450L457.001 102" stroke="white"/>
<path fill-rule="evenodd" clip-rule="evenodd" d="M348 129H465V120H348V129Z" stroke="white"/>
<path fill-rule="evenodd" clip-rule="evenodd" d="M411 129.447C411 130.857 409.657 132 408 132C406.344 132 405 130.857 405 129.447V125.554C405 124.142 406.344 123 408 123C409.657 123 411 124.142 411 125.554V129.447Z" fill="#B7C6E0"/>
<path fill-rule="evenodd" clip-rule="evenodd" d="M401 131H402V126H401V131Z" fill="#B7C6E0"/>
<path fill-rule="evenodd" clip-rule="evenodd" d="M411 131H412V126H411V131Z" fill="#B7C6E0"/>
<path fill-rule="evenodd" clip-rule="evenodd" d="M456 131H457V126H456V131Z" fill="#B7C6E0"/>
<path fill-rule="evenodd" clip-rule="evenodd" d="M356 131H357V126H356V131Z" fill="#B7C6E0"/>
<path fill-rule="evenodd" clip-rule="evenodd" d="M412 95.0849C410 91.9151 408 98.2548 406 95.0849V91.9151C408 95.0849 410 88.7452 412 91.9151V95.0849Z" fill="#B7C6E0"/>
<path fill-rule="evenodd" clip-rule="evenodd" d="M289 75.896L291.252 71L293 76L289 75.896Z" fill="#B7C6E0"/>
<path fill-rule="evenodd" clip-rule="evenodd" d="M255 91.896L257.252 87L259 92L255 91.896Z" fill="#B7C6E0"/>
<path fill-rule="evenodd" clip-rule="evenodd" d="M286 125H300V120H286V125Z" fill="#B7C6E0"/>
<path fill-rule="evenodd" clip-rule="evenodd" d="M503 103H506V102H503V103Z" fill="#B7C6E0"/>
<path fill-rule="evenodd" clip-rule="evenodd" d="M535.165 102.119V93.0368H534.161C534.256 92.863 534.311 92.6545 534.301 92.399C534.246 90.9326 533.399 90.8076 532.493 89.8571C532.1 89.4443 531.873 88.8992 531.745 88.4596C531.925 88.3962 532.054 88.2328 532.054 88.0365C532.054 87.7859 531.844 87.5828 531.585 87.5828C531.327 87.5828 531.116 87.7859 531.116 88.0365C531.116 88.2328 531.246 88.3962 531.426 88.4596C531.297 88.8992 531.072 89.4443 530.679 89.8571C529.771 90.8076 528.926 90.9326 528.87 92.399C528.86 92.6545 528.916 92.863 529.008 93.0368H528.006V100.081H526.489V102.137L525.603 102.14V100.081H523.088V102.146L522.201 102.148V99.9272H519.683V102.153L517.161 102.159V102.137H518.984V99.7212H517.161V97.0481H516.609C516.613 96.9853 516.622 96.9262 516.618 96.8597C516.549 94.9922 515.471 94.8324 514.316 93.6203C513.815 93.0959 513.528 92.4033 513.364 91.843C513.593 91.7631 513.758 91.5515 513.758 91.3021C513.758 90.9826 513.489 90.7235 513.159 90.7235C512.829 90.7235 512.561 90.9826 512.561 91.3021C512.561 91.5515 512.726 91.7631 512.955 91.843C512.792 92.4033 512.505 93.0959 512.004 93.6203C510.848 94.8324 509.771 94.9922 509.699 96.8597C509.698 96.9262 509.706 96.9853 509.709 97.0481H509.293V99.7212H507.182V102.137H509.293V102.177L501.85 102.194V102.137H502.63V99.7212H501.85V92.3179H501.184C501.206 92.2009 501.219 92.0783 501.213 91.9423C501.144 90.1333 500.101 89.9796 498.982 88.8053C498.498 88.298 498.219 87.6261 498.061 87.0847C498.283 87.006 498.441 86.8018 498.441 86.5597C498.441 86.2506 498.182 86 497.863 86C497.542 86 497.284 86.2506 497.284 86.5597C497.284 86.8018 497.442 87.006 497.665 87.0847C497.507 87.6261 497.228 88.298 496.744 88.8053C495.624 89.9796 494.581 90.1333 494.513 91.9423C494.508 92.0783 494.52 92.2009 494.542 92.3179H493.876V99.9913L493.517 100.114V99.7212H493.078V100.265L492.534 100.452V100.056H492.095V100.603L491.55 100.79V100.39H491.111V100.94L490.567 101.127V100.724H490.128V101.278L489.583 101.466V101.058H489.144V101.616L488.6 101.802V101.392H488.16V101.953L487.563 102.159V101.688H487.124V102.309L486.592 102.492V97.0481H485.898C485.899 97.0158 485.905 96.9866 485.903 96.9524C485.846 95.4305 484.967 95.3007 484.026 94.3135C483.617 93.8861 483.383 93.3197 483.249 92.863C483.437 92.7966 483.571 92.6277 483.571 92.4246C483.571 92.1643 483.353 91.9533 483.084 91.9533C482.815 91.9533 482.596 92.1643 482.596 92.4246C482.596 92.6277 482.731 92.7966 482.918 92.863C482.785 93.3197 482.549 93.8861 482.142 94.3135C481.2 95.3007 480.322 95.4305 480.264 96.9524C480.264 96.9866 480.269 97.0158 480.269 97.0481H480V121.984H483.354L483.571 126.767H500.135L500.468 128H538V102.112L535.165 102.119Z" fill="#B7C6E0"/>
<path fill-rule="evenodd" clip-rule="evenodd" d="M466 131H542V114H466V131Z" fill="#B7C6E0"/>
<path fill-rule="evenodd" clip-rule="evenodd" d="M231 188H542V128H231V188Z" fill="#B7C6E0"/>
<path d="M475 114.057V118H485.907V112H529.861V116.978H535.211V114.057H542" stroke="white"/>
<path fill-rule="evenodd" clip-rule="evenodd" d="M226 0H552V188H226V0ZM388 7H545V182H388V7ZM382 7H234V182H382V7Z" fill="#DBE4F3"/>
<path fill-rule="evenodd" clip-rule="evenodd" d="M752.999 175C754.104 175 755 176.009 755 177.256V181H751V177.256C751 176.009 751.896 175 752.999 175Z" fill="#B7C6E0"/>
<path fill-rule="evenodd" clip-rule="evenodd" d="M769.962 186L767.178 184.483L796.051 131.178L733.685 72.1779H720V69H734.942L735.401 69.4316L800 130.546L769.962 186Z" fill="#819BC8"/>
<path fill-rule="evenodd" clip-rule="evenodd" d="M793.34 131.582C793.34 133.604 794.979 135.242 797 135.242C799.023 135.242 800.663 133.604 800.663 131.582C800.663 129.56 799.023 127.922 797 127.922C794.979 127.922 793.34 129.56 793.34 131.582Z" fill="#B7C6E0"/>
<path fill-rule="evenodd" clip-rule="evenodd" d="M741 188H781V180H741V188Z" fill="#819BC8"/>
<path fill-rule="evenodd" clip-rule="evenodd" d="M734 85C734 73.9545 725.046 65 714.002 65C702.956 65 694 73.9545 694 85" fill="#B7C6E0"/>
<path fill-rule="evenodd" clip-rule="evenodd" d="M734 85H694C694 83.9815 694.067 82.9815 694.188 82H733.812C733.933 82.9815 734 83.9815 734 85Z" fill="#819BC8"/>
<mask id="mask0" mask-type="alpha" maskUnits="userSpaceOnUse" x="703" y="100" width="60" height="53">
<path fill-rule="evenodd" clip-rule="evenodd" d="M703.493 116.466L750.427 100.305L762.863 136.422L715.929 152.583L703.493 116.466Z" fill="white"/>
</mask>
<g mask="url(#mask0)">
<path fill-rule="evenodd" clip-rule="evenodd" d="M712.31 114.101C712.31 114.101 716.64 110.221 723.782 112C730.922 113.78 733.513 116.512 739.137 115.186C744.76 113.859 748.584 111.189 754.73 112.801C754.73 112.801 751.55 122.226 752.43 127.745C753.311 133.265 753.628 137.317 752.674 139.93C752.674 139.93 751.247 137.385 746.414 139.89C741.582 142.396 734.836 145.352 727.675 142.13C720.513 138.907 713.774 140.164 712.122 141.526L712.31 114.101Z" fill="#B7C6E0"/>
</g>
<path fill-rule="evenodd" clip-rule="evenodd" d="M730.608 125.619L730.196 114.152C728.398 113.494 726.36 112.714 723.688 112.066C719.312 111.006 715.977 112.028 714.033 112.993C717.183 114.049 725.146 117.4 730.608 125.619Z" fill="#819BC8"/>
<path fill-rule="evenodd" clip-rule="evenodd" d="M720.59 124.135C722.864 124.606 725.071 125.36 727.206 126.089C728.614 126.57 729.99 127.038 731.298 127.394L731.321 114.498C730.922 114.361 730.516 114.214 730.097 114.06L730.525 125.497C725.086 117.291 717.169 113.936 714.038 112.879C712.791 113.497 712.119 114.094 712.119 114.094L712.114 114.586C719.981 117.568 726.62 124.957 726.62 124.957L724.223 124.207C720.191 119.802 713.958 116.718 712.101 115.859L712.088 117.247C717.395 119.423 722.928 123.93 722.928 123.93C718.459 122.044 714.454 123.126 712.02 124.246L712.006 125.612C715.167 124.107 718.043 123.608 720.59 124.135Z" fill="white"/>
<path fill-rule="evenodd" clip-rule="evenodd" d="M723.127 128.689C718.408 127.05 714.174 128.743 712.045 129.914L712.014 135.376C716.645 131.124 723.127 128.689 723.127 128.689Z" fill="#819BC8"/>
<path fill-rule="evenodd" clip-rule="evenodd" d="M723.132 123.833C723.132 123.833 717.586 119.343 712.263 117.179L712.181 124.171C714.627 123.047 718.649 121.959 723.132 123.833Z" fill="#819BC8"/>
<path fill-rule="evenodd" clip-rule="evenodd" d="M741.275 125.875C741.275 125.875 747.662 123.036 752.188 124.226C752.374 121.36 753.055 118.256 753.642 116.011C751.442 116.803 745.365 119.468 741.275 125.875Z" fill="#819BC8"/>
<path fill-rule="evenodd" clip-rule="evenodd" d="M736.644 128.211C738.301 127.928 740.012 127.384 741.824 126.809C745.287 125.709 748.85 124.576 752.473 125.134C752.482 124.848 752.495 124.558 752.516 124.266C747.984 123.086 741.583 125.929 741.583 125.929C745.69 119.533 751.781 116.865 753.985 116.071C754.485 114.175 754.916 112.893 754.916 112.893C754.916 112.893 748.494 115.173 743.972 119.355C739.906 123.118 737.591 126.882 737.591 126.882L736.268 127.253C736.268 127.253 738.885 122.876 742.574 119.261C746.276 115.631 750.163 113.683 753.214 112.542C751.888 112.344 750.665 112.348 749.493 112.481C739.582 117.644 735.421 127.194 735.421 127.194L735.555 115.593C735.266 115.569 734.981 115.535 734.698 115.491L734.722 128.273C735.398 128.326 736.041 128.314 736.644 128.211Z" fill="white"/>
<path fill-rule="evenodd" clip-rule="evenodd" d="M749.391 112.433C745.966 112.831 742.984 114.334 739.184 115.234C737.801 115.562 736.602 115.644 735.474 115.559L735.298 127.023C735.298 127.023 739.484 117.571 749.391 112.433Z" fill="#819BC8"/>
<path fill-rule="evenodd" clip-rule="evenodd" d="M748.55 129.357C745.141 129.787 740.455 131.284 740.455 131.284C740.455 131.284 748.916 132.34 753.143 135.635C753.128 133.88 752.916 131.826 752.576 129.475C751.624 129.247 750.313 129.134 748.55 129.357Z" fill="#819BC8"/>
<path fill-rule="evenodd" clip-rule="evenodd" d="M742.615 129.661C740.79 130.242 738.902 130.842 737.04 131.164C736.245 131.301 735.433 131.332 734.607 131.285L734.587 143.463C735.085 143.45 735.578 143.419 736.065 143.366C735.854 139.773 735.45 132.618 735.45 132.618C735.45 132.618 743.663 135.01 748.601 138.932C751.654 138.127 752.62 139.84 752.62 139.84C752.657 139.74 751.444 137.684 747.219 135.756C740.153 132.529 736.401 132.032 736.401 132.032L739.242 131.416C739.242 131.416 743.499 132.55 747.414 134.347C750.317 135.678 751.924 136.947 753.069 137.955C753.171 137.218 753.217 136.408 753.21 135.52C748.974 132.237 740.486 131.197 740.486 131.197C740.486 131.197 745.191 129.694 748.612 129.258C750.382 129.032 751.697 129.142 752.652 129.369C752.597 128.993 752.54 128.61 752.479 128.22C749.387 127.509 746.089 128.557 742.615 129.661Z" fill="white"/>
<path fill-rule="evenodd" clip-rule="evenodd" d="M716.337 140.137C719.295 139.85 723.303 140.217 727.456 142.096C728.466 142.553 729.467 142.882 730.456 143.112L730.517 131.644C730.517 131.644 721.272 133.011 716.337 140.137Z" fill="#819BC8"/>
<path fill-rule="evenodd" clip-rule="evenodd" d="M726.452 129.215C724.407 128.509 722.291 127.778 720.208 127.34C717.597 126.79 714.62 127.948 712.246 129.286L712.239 130.104C714.384 128.926 718.648 127.222 723.394 128.857C723.394 128.857 716.867 131.308 712.199 135.577L712.154 141.626C712.251 141.546 712.366 141.467 712.496 141.39L712.497 141.387C712.497 141.387 717.182 132.863 727.714 130.688L729.815 130.996C729.815 130.996 720.544 132.69 714.723 140.582C715.286 140.454 715.917 140.352 716.605 140.285C721.567 133.161 730.842 131.779 730.842 131.779L730.761 143.23C731.035 143.293 731.307 143.348 731.58 143.395L731.573 130.814C729.915 130.41 728.206 129.822 726.452 129.215Z" fill="white"/>
<path fill-rule="evenodd" clip-rule="evenodd" d="M735.899 143.379C739.804 142.952 743.353 141.308 746.226 139.825C747.07 139.388 747.809 139.109 748.456 138.937C742.926 134.183 735.312 132.384 735.312 132.384C735.312 132.384 735.691 139.79 735.899 143.379Z" fill="#819BC8"/>
<path opacity="0.1" fill-rule="evenodd" clip-rule="evenodd" d="M714.598 112.686C713.071 113.369 712.242 114.112 712.242 114.112L712.074 141.392C712.584 140.971 713.583 140.56 714.932 140.29C714.676 131.09 715.078 121.88 714.598 112.686Z" fill="#212D5F"/>
<path opacity="0.1" fill-rule="evenodd" clip-rule="evenodd" d="M723.029 111.845C721.411 111.526 719.948 111.492 718.656 111.624C718.588 113.055 718.864 128.716 719.163 135.101C719.241 136.752 719.273 138.411 719.331 140.067C719.948 140.095 720.592 140.155 721.252 140.244C721.776 135.656 722.694 116.699 723.029 111.845Z" fill="#212D5F"/>
<path opacity="0.1" fill-rule="evenodd" clip-rule="evenodd" d="M752.481 127.678C751.619 122.18 754.873 112.77 754.873 112.77C754.555 112.689 754.242 112.62 753.935 112.56C753.645 112.505 752.002 117.377 751.853 117.861C751.297 119.655 750.873 121.501 750.602 123.354C750.278 125.568 750.182 127.817 750.436 130.036C750.564 131.157 750.761 132.267 750.911 133.385C751.149 135.164 751.285 137.016 750.735 138.737C752.164 138.935 752.669 139.823 752.669 139.823C753.644 137.214 753.343 133.176 752.481 127.678Z" fill="#212D5F"/>
<path opacity="0.1" fill-rule="evenodd" clip-rule="evenodd" d="M753.932 114.905C753.373 116.086 752.777 117.252 752.301 118.463C751.271 121.085 750.985 123.902 751.129 126.691C751.203 128.125 751.392 129.549 751.677 130.954C751.924 132.176 752.27 133.375 752.492 134.603C752.693 135.733 752.849 136.91 752.857 138.082C753.256 135.539 752.924 132.073 752.229 127.66C751.619 123.794 753.04 117.992 753.932 114.905Z" fill="#212D5F"/>
<path opacity="0.1" fill-rule="evenodd" clip-rule="evenodd" d="M751.1 112.526C750.676 112.736 750.262 112.968 749.865 113.228C745.482 116.095 743.08 121.146 742.669 126.278C742.437 129.172 742.805 132.223 744.17 134.824C745.036 136.477 746.217 137.904 747.476 139.263C747.51 139.249 747.545 139.234 747.577 139.221C746.833 137.642 746.23 135.997 745.8 134.305C744.719 130.053 744.658 125.513 745.935 121.301C746.943 117.98 748.732 115.001 751.1 112.526Z" fill="#212D5F"/>
<path fill-rule="evenodd" clip-rule="evenodd" d="M711.73 191.106C711.477 191.089 711.277 190.877 711.277 190.62L711.404 113.126C711.404 112.857 711.622 112.64 711.891 112.641C712.155 112.646 712.376 112.86 712.375 113.129L712.249 190.622C712.248 190.89 712.031 191.108 711.762 191.107C711.751 191.108 711.741 191.107 711.73 191.106Z" fill="#B7C6E0"/>
<path fill-rule="evenodd" clip-rule="evenodd" d="M712.375 113.129C712.376 112.86 712.155 112.646 711.891 112.641C711.622 112.64 711.404 112.858 711.404 113.126L711.401 114.354C711.463 114.324 711.53 114.307 711.6 114.308C711.856 114.312 712.07 114.521 712.07 114.783L711.912 190.275C711.912 190.537 711.701 190.749 711.441 190.748C711.431 190.748 711.422 190.748 711.411 190.747C711.367 190.744 711.326 190.733 711.287 190.72C711.331 190.931 711.51 191.092 711.731 191.106C711.741 191.107 711.751 191.108 711.762 191.107C712.031 191.109 712.248 190.891 712.249 190.622L712.375 113.129Z" fill="#2A5480"/>
<path fill-rule="evenodd" clip-rule="evenodd" d="M713.52 112.309C713.462 113.181 712.708 113.842 711.836 113.784C710.963 113.726 710.302 112.972 710.361 112.098C710.418 111.226 711.173 110.566 712.046 110.624C712.919 110.682 713.578 111.436 713.52 112.309Z" fill="#2A5480"/>
<path fill-rule="evenodd" clip-rule="evenodd" d="M712.633 112.075C712.597 112.6 712.145 112.996 711.621 112.961C711.097 112.926 710.7 112.473 710.734 111.95C710.77 111.425 711.223 111.028 711.747 111.064C712.27 111.098 712.667 111.552 712.633 112.075Z" fill="#B7C6E0"/>
<path fill-rule="evenodd" clip-rule="evenodd" d="M711.609 190.509C711.558 190.506 711.518 190.464 711.518 190.412L711.751 114.742C711.751 114.688 711.795 114.644 711.849 114.644C711.902 114.643 711.947 114.688 711.947 114.742L711.713 190.412C711.713 190.466 711.67 190.51 711.616 190.51C711.614 190.509 711.612 190.51 711.609 190.509Z" fill="#B7C6E0"/>
<path fill-rule="evenodd" clip-rule="evenodd" d="M696.804 167C696.302 167 695.882 166.627 695.823 166.132L695.007 159.093C694.939 158.512 695.395 158 695.987 158H730.013C730.603 158 731.061 158.512 730.993 159.093L730.175 166.132C730.118 166.627 729.698 167 729.196 167H696.804Z" fill="#B7C6E0"/>
<path fill-rule="evenodd" clip-rule="evenodd" d="M726.329 184H700.671L698 167H729L726.329 184Z" fill="#DBE4F3"/>
<path fill-rule="evenodd" clip-rule="evenodd" d="M728.381 171L729 167H698L698.619 171H728.381Z" fill="#819BC8"/>
<path fill-rule="evenodd" clip-rule="evenodd" d="M479 187H523V150H479V187Z" fill="#819BC8"/>
<path fill-rule="evenodd" clip-rule="evenodd" d="M532 187H469V186.562C469 184.596 470.651 183 472.686 183H528.314C530.349 183 532 184.596 532 186.562V187Z" fill="white"/>
<path fill-rule="evenodd" clip-rule="evenodd" d="M418.211 169H583.791C587.221 169 590 166.215 590 162.782V64.2195C590 60.7845 587.221 58 583.791 58H418.211C414.781 58 412 60.7845 412 64.2195V162.782C412 166.215 414.781 169 418.211 169Z" fill="white"/>
<path fill-rule="evenodd" clip-rule="evenodd" d="M586.462 58H415.54C413.585 58 412 59.5781 412 61.5228V150H590V61.5228C590 59.5781 588.416 58 586.462 58Z" fill="#819BC8"/>
<path fill-rule="evenodd" clip-rule="evenodd" d="M419 144H583V65H419V144Z" fill="white"/>
<path fill-rule="evenodd" clip-rule="evenodd" d="M426 137H577V72H426V137Z" fill="#F6F8F8"/>
<path fill-rule="evenodd" clip-rule="evenodd" d="M504 159.499C504 161.432 502.433 163 500.5 163C498.567 163 497 161.432 497 159.499C497 157.568 498.567 156 500.5 156C502.433 156 504 157.568 504 159.499Z" fill="#819BC8"/>
<path fill-rule="evenodd" clip-rule="evenodd" d="M570 137H577V72H570V137Z" fill="#B7C6E0"/>
<path fill-rule="evenodd" clip-rule="evenodd" d="M426 137H433V72H426V137Z" fill="#B7C6E0"/>
<path fill-rule="evenodd" clip-rule="evenodd" d="M680.559 186H660.443L656 146H685L680.559 186Z" fill="#DBE4F3"/>
<path fill-rule="evenodd" clip-rule="evenodd" d="M681.508 177L684 155H657L659.494 177H681.508Z" fill="#819BC8"/>
<path fill-rule="evenodd" clip-rule="evenodd" d="M656 146H685V144.636C685 142.626 683.48 141 681.604 141H659.398C657.522 141 656 142.626 656 144.636V146Z" fill="#819BC8"/>
<path fill-rule="evenodd" clip-rule="evenodd" d="M678 166C678 169.866 674.867 173 671.001 173C667.133 173 664 169.866 664 166C664 162.133 667.133 159 671.001 159C674.867 159 678 162.133 678 166Z" fill="#B7C6E0"/>
<path fill-rule="evenodd" clip-rule="evenodd" d="M395 345L435.305 195.876C435.614 194.562 436.895 193.752 438.178 194.069C439.454 194.386 440.241 195.709 439.933 197.025L399.629 345H395Z" fill="#819BC8"/>
<path fill-rule="evenodd" clip-rule="evenodd" d="M476.371 345L436.067 197.025C435.758 195.709 436.545 194.386 437.823 194.069C439.103 193.752 440.387 194.562 440.694 195.876L481 345H476.371Z" fill="#819BC8"/>
<path fill-rule="evenodd" clip-rule="evenodd" d="M697 345L737.304 195.876C737.613 194.562 738.894 193.752 740.179 194.069C741.455 194.386 742.242 195.709 741.933 197.025L701.629 345H697Z" fill="#819BC8"/>
<path fill-rule="evenodd" clip-rule="evenodd" d="M778.371 345L738.067 197.025C737.759 195.709 738.544 194.386 739.823 194.069C741.102 193.752 742.388 194.562 742.695 195.876L783 345H778.371Z" fill="#819BC8"/>
<path fill-rule="evenodd" clip-rule="evenodd" d="M379 197H799V184H379V197Z" fill="#B7C6E0"/>
<path fill-rule="evenodd" clip-rule="evenodd" d="M590 352H599V241H590V352Z" fill="#B7C6E0"/>
<path fill-rule="evenodd" clip-rule="evenodd" d="M551 352C551 347.029 554.835 343 559.565 343H629.435C634.165 343 638 347.029 638 352H551Z" fill="#B7C6E0"/>
<path fill-rule="evenodd" clip-rule="evenodd" d="M540 358C540 351.925 544.925 347 551 347C557.075 347 562 351.925 562 358C562 364.077 557.075 369 551 369C544.925 369 540 364.077 540 358Z" fill="#819BC8"/>
<path fill-rule="evenodd" clip-rule="evenodd" d="M629 358C629 351.925 633.925 347 640 347C646.077 347 651 351.925 651 358C651 364.077 646.077 369 640 369C633.925 369 629 364.077 629 358Z" fill="#819BC8"/>
<path fill-rule="evenodd" clip-rule="evenodd" d="M594.001 347C600.076 347 605 351.925 605 358C605 364.077 600.076 369 594.001 369C587.926 369 583 364.077 583 358C583 351.925 587.926 347 594.001 347Z" fill="#819BC8"/>
<path fill-rule="evenodd" clip-rule="evenodd" d="M588 357.5C588 354.463 590.461 352 593.5 352C596.537 352 599 354.463 599 357.5C599 360.539 596.537 363 593.5 363C590.461 363 588 360.539 588 357.5Z" fill="#B7C6E0"/>
<path fill-rule="evenodd" clip-rule="evenodd" d="M634 357.501C634 354.462 636.463 352 639.5 352C642.537 352 645 354.462 645 357.501C645 360.538 642.537 363 639.5 363C636.463 363 634 360.538 634 357.501Z" fill="#B7C6E0"/>
<path fill-rule="evenodd" clip-rule="evenodd" d="M545 357.5C545 354.463 547.461 352 550.5 352C553.537 352 556 354.463 556 357.5C556 360.539 553.537 363 550.5 363C547.461 363 545 360.539 545 357.5Z" fill="#B7C6E0"/>
<path fill-rule="evenodd" clip-rule="evenodd" d="M656.39 207.939H665.022C668.878 207.939 672 204.818 672 200.97C672 197.119 668.878 194 665.022 194H657.99C657.993 193.259 657.989 192.518 657.966 191.773C656.965 157.868 629.086 130.477 595.127 130.006C560.88 129.531 532.727 156.022 530.581 189.576H523.979C520.125 189.576 517 192.697 517 196.547C517 200.397 520.125 203.519 523.979 203.519H531.213C533.078 215.543 538.297 226.462 545.906 235.272C548.734 238.547 546.437 243.618 542.108 243.618H530.029C525.789 243.618 522.152 246.931 522.076 251.164C521.996 255.478 525.474 259 529.773 259H658.664C662.967 259 666.442 255.478 666.363 251.164C666.285 246.931 662.649 243.618 658.409 243.618H646.333C641.996 243.618 639.714 238.538 642.548 235.257C649.205 227.54 654.04 218.212 656.39 207.939Z" fill="#819BC8"/>
<path fill-rule="evenodd" clip-rule="evenodd" d="M427.701 181C428.126 181 428.549 180.956 428.965 180.86C430.51 180.511 432.341 179.414 433.134 177.926C433.869 176.548 434.004 175.036 433.518 173.664L429.402 175.051C429.527 175.403 429.37 175.785 429.265 175.984C429.015 176.453 428.568 176.818 428.126 176.92C427.117 177.146 425.837 176.522 425.077 175.435C424.317 174.348 423.926 172.82 423.919 170.893C423.912 169.412 424.143 168.315 424.628 167.537C425.214 166.592 426.338 165.98 427.428 166.039C428.517 166.088 429.588 166.789 430.093 167.784L434 165.917C432.852 163.653 430.075 162.12 427.6 162.006C425.131 161.896 422.662 163.211 421.326 165.361C420.424 166.815 419.99 168.631 420 170.913C420.013 173.697 420.651 176.011 421.898 177.792C423.306 179.809 425.523 181 427.701 181Z" fill="#212D5F"/>
<path fill-rule="evenodd" clip-rule="evenodd" d="M430.653 185H451.345C451.706 185 452 184.709 452 184.35V157.649C452 157.291 451.706 157 451.345 157H430.653C430.293 157 430 157.291 430 157.649V184.35C430 184.709 430.293 185 430.653 185Z" fill="#212D5F"/>
<path fill-rule="evenodd" clip-rule="evenodd" d="M465 179H488V156H465V179Z" fill="#DBE4F3"/>
<path fill-rule="evenodd" clip-rule="evenodd" d="M465 160H488V156H465V160Z" fill="#B7C6E0"/>
<path fill-rule="evenodd" clip-rule="evenodd" d="M429.511 88L407 81.5113L413.489 59L436 65.4887L429.511 88Z" fill="#DBE4F3"/>
<path fill-rule="evenodd" clip-rule="evenodd" d="M434.972 69L413 62.6044L414.028 59L436 65.3956L434.972 69Z" fill="#B7C6E0"/>
<path fill-rule="evenodd" clip-rule="evenodd" d="M277.836 292.683C277.836 292.683 279.711 306.524 277 312.511L282.771 313L283 291L277.836 292.683Z" fill="#E3E5E4"/>
<path fill-rule="evenodd" clip-rule="evenodd" d="M281.809 311.001C280.268 311.203 278.726 311.28 277.181 311.232C276.932 311.224 276.944 311.978 277.191 311.986C278.737 312.034 280.278 311.957 281.82 311.755C282.066 311.722 282.057 310.968 281.809 311.001Z" fill="#DFDCDC"/>
<path fill-rule="evenodd" clip-rule="evenodd" d="M281.83 309C280.607 309.112 279.383 309.223 278.16 309.335C277.941 309.355 277.95 310.02 278.17 310C279.393 309.888 280.616 309.776 281.84 309.665C282.059 309.645 282.05 308.98 281.83 309Z" fill="#DFDCDC"/>
<path fill-rule="evenodd" clip-rule="evenodd" d="M281.825 307.003C280.607 307.31 279.391 307.378 278.166 307.207C277.937 307.174 277.949 307.876 278.176 307.908C279.402 308.079 280.617 308.012 281.835 307.705C282.06 307.648 282.053 306.946 281.825 307.003Z" fill="#DFDCDC"/>
<path fill-rule="evenodd" clip-rule="evenodd" d="M281.829 305.003C280.613 305.274 279.393 305.425 278.164 305.457C277.939 305.463 277.949 306.006 278.174 306C279.403 305.968 280.623 305.816 281.839 305.546C282.059 305.497 282.052 304.954 281.829 305.003Z" fill="#DFDCDC"/>
<path fill-rule="evenodd" clip-rule="evenodd" d="M281.823 302.001C280.605 302.155 279.387 302.236 278.167 302.243C277.938 302.245 277.948 303.001 278.177 303C279.397 302.992 280.615 302.912 281.833 302.757C282.062 302.728 282.053 301.972 281.823 302.001Z" fill="#DFDCDC"/>
<path fill-rule="evenodd" clip-rule="evenodd" d="M281.82 300.002C280.606 300.2 279.391 300.322 278.171 300.368C277.936 300.377 277.946 301.009 278.182 301C279.401 300.954 280.616 300.832 281.83 300.634C282.063 300.596 282.054 299.963 281.82 300.002Z" fill="#DFDCDC"/>
<path fill-rule="evenodd" clip-rule="evenodd" d="M281.829 298.002C280.586 298.23 279.341 298.383 278.09 298.46C278.053 298.462 278.025 298.482 278 298.509C278.001 298.531 278.001 298.552 278.002 298.574C278.019 298.708 278.032 298.843 278.043 298.978C278.061 298.988 278.077 299.001 278.1 299C279.351 298.924 280.596 298.771 281.838 298.543C282.059 298.502 282.052 297.961 281.829 298.002Z" fill="#DFDCDC"/>
<path fill-rule="evenodd" clip-rule="evenodd" d="M281.827 295.001C280.606 295.122 279.384 295.244 278.164 295.366C277.94 295.388 277.948 296.022 278.173 295.999C279.394 295.878 280.615 295.756 281.836 295.634C282.06 295.612 282.052 294.978 281.827 295.001Z" fill="#DFDCDC"/>
<path fill-rule="evenodd" clip-rule="evenodd" d="M364.54 341L272.367 340.765C272.249 340.765 272.154 340.662 272.154 340.536L272.176 324.386C272.176 324.26 272.272 324.157 272.39 324.158L364.562 324.392C364.68 324.393 364.776 324.495 364.776 324.621L364.754 340.772C364.753 340.898 364.658 341 364.54 341Z" fill="#DBE4F3"/>
<path fill-rule="evenodd" clip-rule="evenodd" d="M287.979 341L279 340.976L279.021 325L288 325.023L287.979 341Z" fill="#212D5F"/>
<path fill-rule="evenodd" clip-rule="evenodd" d="M292.979 341L291 340.995L291.021 325L293 325.005L292.979 341Z" fill="#212D5F"/>
<path fill-rule="evenodd" clip-rule="evenodd" d="M301 333.007C300.998 334.664 299.652 336.004 297.996 336C296.339 335.996 294.997 334.65 295 332.993C295.002 331.336 296.348 329.996 298.004 330C299.661 330.004 301.002 331.35 301 333.007Z" fill="#212D5F"/>
<path fill-rule="evenodd" clip-rule="evenodd" d="M365.768 326L273.214 325.776C273.096 325.776 273 325.678 273 325.558L273.018 313.218C273.018 313.097 273.114 313 273.232 313L365.786 313.223C365.904 313.224 366 313.322 366 313.442L365.983 325.782C365.982 325.903 365.886 326 365.768 326Z" fill="#819BC8"/>
<path fill-rule="evenodd" clip-rule="evenodd" d="M285.008 316L285 322L288 319.335L285.008 316Z" fill="#F3E5E6"/>
<path fill-rule="evenodd" clip-rule="evenodd" d="M288.005 317L288 322L290 319.779L288.005 317Z" fill="#F3E5E6"/>
<path fill-rule="evenodd" clip-rule="evenodd" d="M278.959 326L278 325.999L278.041 313L279 313.001L278.959 326Z" fill="#F3E5E6"/>
<path fill-rule="evenodd" clip-rule="evenodd" d="M280.959 326L280 325.999L280.041 313L281 313.001L280.959 326Z" fill="#F3E5E6"/>
<path fill-rule="evenodd" clip-rule="evenodd" d="M309 172.198L302.405 174L302.623 172.482C303.281 167.911 302.959 162.308 302 157.777L302.287 157.523L308.586 153L309 172.198Z" fill="#F3E8E7"/>
<path fill-rule="evenodd" clip-rule="evenodd" d="M346 173.774L308.343 172L302 174.978L342.775 177L346 173.774Z" fill="#94B99C"/>
<path fill-rule="evenodd" clip-rule="evenodd" d="M302.109 173.499C303.121 173.313 304.113 172.723 305.094 172.272C306.015 171.849 306.934 171.427 307.851 171.006C307.996 170.94 308.065 171.42 307.919 171.487C306.929 171.942 305.936 172.399 304.942 172.856C304.011 173.284 303.077 173.822 302.117 173.999C301.966 174.027 301.959 173.527 302.109 173.499Z" fill="#ACC2BC"/>
<mask id="mask1" mask-type="alpha" maskUnits="userSpaceOnUse" x="302" y="153" width="8" height="6">
<path fill-rule="evenodd" clip-rule="evenodd" d="M302.2 153H309.901V158.912H302.2V153Z" fill="white"/>
</mask>
<g mask="url(#mask1)">
<path fill-rule="evenodd" clip-rule="evenodd" d="M309.759 153.858C307.298 155.177 304.884 156.848 302.531 158.876C302.288 159.086 302.06 158.325 302.306 158.113C304.694 156.056 307.139 154.352 309.637 153.015C309.894 152.877 310.015 153.721 309.759 153.858Z" fill="#ACC2BC"/>
</g>
<path fill-rule="evenodd" clip-rule="evenodd" d="M347.362 154.768L309 153L309.23 157.159C309.417 160.522 309.467 163.889 309.381 167.227L309.249 171.44L347.34 173L347.376 172.753C348.212 166.937 348.209 160.683 347.362 154.768Z" fill="#DBE4F3"/>
<path fill-rule="evenodd" clip-rule="evenodd" d="M314.405 153.392C314.32 152.853 313.237 152.877 313.322 153.421C314.21 159.105 314.113 164.822 313.007 170.483C312.902 171.021 313.955 171.222 314.061 170.681C315.18 164.948 315.304 159.151 314.405 153.392Z" fill="#212D5F"/>
<path fill-rule="evenodd" clip-rule="evenodd" d="M342.279 155.388C342.183 154.849 341.041 154.881 341.138 155.424C342.141 161.102 342.105 166.819 341.007 172.486C340.903 173.025 342.016 173.22 342.12 172.678C343.233 166.938 343.295 161.14 342.279 155.388Z" fill="#212D5F"/>
<path fill-rule="evenodd" clip-rule="evenodd" d="M289 196.524L273.945 199L274.442 196.903C275.939 190.59 275.195 182.847 273 176.586L273.656 176.235L288.029 170L289 196.524Z" fill="#F3E8E7"/>
<path fill-rule="evenodd" clip-rule="evenodd" d="M372 197.183L288.125 195L274 198.516L364.82 201L372 197.183Z" fill="#212D5F"/>
<path fill-rule="evenodd" clip-rule="evenodd" d="M273.272 199.163C275.803 198.855 278.281 197.87 280.735 197.12C283.037 196.415 285.334 195.712 287.627 195.011C287.99 194.899 288.162 195.703 287.798 195.815C285.322 196.573 282.842 197.333 280.356 198.095C278.027 198.808 275.693 199.705 273.292 199.998C272.915 200.044 272.897 199.208 273.272 199.163Z" fill="#212D5F"/>
<path fill-rule="evenodd" clip-rule="evenodd" d="M287.705 171.018C282.592 172.579 277.577 174.555 272.689 176.957C272.182 177.206 271.709 176.303 272.22 176.052C277.181 173.617 282.261 171.599 287.451 170.018C287.985 169.855 288.238 170.856 287.705 171.018Z" fill="#212D5F"/>
<path fill-rule="evenodd" clip-rule="evenodd" d="M372.566 172.551L287 170L287.519 175.805C287.939 180.5 288.055 185.2 287.869 189.859L287.578 195.739L372.54 198L372.619 197.655C374.476 189.54 374.462 180.81 372.566 172.551Z" fill="#819BC8"/>
<path fill-rule="evenodd" clip-rule="evenodd" d="M359.59 313L281 312.81L281.027 294L359.617 294.19L359.693 294.448C361.47 300.507 361.434 306.965 359.59 313Z" fill="#B7C6E0"/>
<path fill-rule="evenodd" clip-rule="evenodd" d="M299.973 313L289 312.973L289.027 294L300 294.027L299.973 313Z" fill="#212D5F"/>
<path fill-rule="evenodd" clip-rule="evenodd" d="M281 274.169L266.355 272L266.885 273.657C268.477 278.638 267.949 284.682 266 289.514L266.636 289.801L280.608 295L281 274.169Z" fill="#F3E8E7"/>
<path fill-rule="evenodd" clip-rule="evenodd" d="M365 274.493L279.728 275L266 271.811L357.397 271L365 274.493Z" fill="#819BC8"/>
<path fill-rule="evenodd" clip-rule="evenodd" d="M266.26 272.63C268.602 272.9 270.914 273.68 273.203 274.285C275.355 274.854 277.507 275.422 279.659 275.991C280.001 276.081 280.147 275.476 279.805 275.386C277.481 274.771 275.156 274.157 272.832 273.543C270.66 272.969 268.483 272.258 266.261 272.002C265.912 271.962 265.914 272.59 266.26 272.63Z" fill="#819BC8"/>
<path fill-rule="evenodd" clip-rule="evenodd" d="M280.695 293.179C275.568 291.795 270.549 290.083 265.663 288.039C265.158 287.827 264.717 288.544 265.226 288.757C270.181 290.831 275.263 292.578 280.464 293.983C281.001 294.127 281.231 293.324 280.695 293.179Z" fill="#819BC8"/>
<path fill-rule="evenodd" clip-rule="evenodd" d="M365.467 294L280 293.798L280.379 289.471C280.686 285.96 280.702 282.43 280.428 278.916L280.028 274.469L365.496 274L365.578 274.274C367.511 280.716 367.472 287.583 365.467 294Z" fill="#DBE4F3"/>
<path fill-rule="evenodd" clip-rule="evenodd" d="M357.758 273L276.215 272.8C276.096 272.799 276 272.699 276 272.576L276.027 253.222C276.027 253.099 276.124 253 276.242 253L357.785 253.201C357.904 253.201 358 253.301 358 253.424L357.973 272.778C357.973 272.901 357.876 273 357.758 273Z" fill="#B7C6E0"/>
<path fill-rule="evenodd" clip-rule="evenodd" d="M369.766 239L269.214 238.764C269.096 238.764 269 238.669 269 238.552L269.02 225.211C269.02 225.094 269.116 225 269.234 225L369.786 225.236C369.904 225.236 370 225.331 370 225.448L369.98 238.789C369.98 238.906 369.884 239 369.766 239Z" fill="#DBE4F3"/>
<path fill-rule="evenodd" clip-rule="evenodd" d="M352.828 226L289 225.846L289.04 198L352.868 198.154L353.098 199.705C354.313 207.909 354.301 216.252 353.062 224.45L352.828 226Z" fill="#B7C6E0"/>
<path fill-rule="evenodd" clip-rule="evenodd" d="M308.96 226L296 225.969L296.04 198L309 198.031L308.96 226Z" fill="#DBE4F3"/>
<path fill-rule="evenodd" clip-rule="evenodd" d="M304.962 226L298 225.983L298.038 198L305 198.018L304.962 226Z" fill="#819BC8"/>
<path opacity="0.1" fill-rule="evenodd" clip-rule="evenodd" d="M289.002 198L353.116 198.147L354 205L289 199.441L289.002 198Z" fill="#000100"/>
<path fill-rule="evenodd" clip-rule="evenodd" d="M326 162.511C325.996 164.996 323.979 167.006 321.494 167C319.008 166.994 316.996 164.975 317 162.489C317.003 160.004 319.021 157.994 321.506 158C323.992 158.006 326.004 160.025 326 162.511Z" fill="#212D5F"/>
<path fill-rule="evenodd" clip-rule="evenodd" d="M278.876 231.642C277.954 230.647 276.896 229.801 275.693 229.07C275.217 228.782 274.767 229.457 275.238 229.743C276.264 230.367 277.158 231.091 277.963 231.914C277.091 232.784 276.158 233.595 275.148 234.347C274.709 234.675 275.345 235.226 275.782 234.901C276.899 234.069 277.925 233.17 278.875 232.194C279.044 232.02 279.039 231.819 278.876 231.642Z" fill="#819BC8"/>
<path fill-rule="evenodd" clip-rule="evenodd" d="M283.937 231.597C283.305 230.676 282.128 229.886 281.297 229.126C280.864 228.731 280.206 229.357 280.639 229.753C281.341 230.395 282.349 231.065 282.964 231.824C282.61 232.233 282.013 232.613 281.64 232.94C281.142 233.377 280.644 233.813 280.146 234.249C279.705 234.636 280.362 235.265 280.802 234.879C281.399 234.356 281.997 233.832 282.594 233.309C283.035 232.922 283.638 232.55 283.936 232.046C284.015 231.912 284.028 231.729 283.937 231.597Z" fill="#819BC8"/>
<path fill-rule="evenodd" clip-rule="evenodd" d="M286.111 229.092C285.563 228.806 284.717 229.251 285.265 229.538C285.595 229.71 286.239 230.303 285.431 230.384C284.677 230.46 284.995 231.069 285.747 230.994C286.501 230.918 286.967 230.559 286.998 230.166C287.031 229.76 286.646 229.371 286.111 229.092Z" fill="#819BC8"/>
<path fill-rule="evenodd" clip-rule="evenodd" d="M288.971 233.019C288.671 233.29 288.205 233.302 287.944 232.978C287.405 232.309 288.2 231.488 288.9 231.872C288.974 231.912 289.046 231.925 289.114 231.92C289.287 232.283 289.296 232.725 288.971 233.019ZM289.675 231.343C289.567 231.186 289.402 231.147 289.255 231.182C288.612 230.848 287.793 230.976 287.318 231.551C286.85 232.119 286.917 232.99 287.397 233.531C287.929 234.129 288.824 234.142 289.428 233.646C290.115 233.082 290.165 232.055 289.675 231.343Z" fill="#819BC8"/>
<path fill-rule="evenodd" clip-rule="evenodd" d="M346.972 273L346 272.997L346.028 253L347 253.002L346.972 273Z" fill="#212D5F"/>
<path fill-rule="evenodd" clip-rule="evenodd" d="M350.972 273L350 272.998L350.028 253L351 253.002L350.972 273Z" fill="#212D5F"/>
<path opacity="0.1" fill-rule="evenodd" clip-rule="evenodd" d="M280 294L359.309 294.169C359.309 294.169 359.817 295.865 360 297L280.087 294.429L280 294Z" fill="#000100"/>
<path fill-rule="evenodd" clip-rule="evenodd" d="M363.661 253.95L263.214 253.7C263.095 253.7 263 253.599 263 253.475L263.019 239.325C263.02 239.201 263.116 239.101 263.234 239.101L363.681 239.351C363.799 239.351 363.895 239.452 363.895 239.576L363.875 253.726C363.875 253.85 363.779 253.951 363.661 253.95Z" fill="#819BC8"/>
<path fill-rule="evenodd" clip-rule="evenodd" d="M276.989 249L275 248.996L275.011 243L277 243.004L276.989 249Z" fill="#E2F4F5"/>
<path fill-rule="evenodd" clip-rule="evenodd" d="M281.989 249L280 248.996L280.011 243L282 243.004L281.989 249Z" fill="#E2F4F5"/>
<path fill-rule="evenodd" clip-rule="evenodd" d="M369 240L268.463 239.848C268.167 239.849 267.947 239.44 268.011 239.009L368.75 238L369 240Z" fill="#F3E5E6"/>
<path fill-rule="evenodd" clip-rule="evenodd" d="M369 239L268.463 238.848C268.167 238.849 267.947 238.44 268.011 238.009L368.75 237L369 239Z" fill="#819BC8"/>
<path fill-rule="evenodd" clip-rule="evenodd" d="M283.69 200.107C283.69 200.107 287.142 217.967 283 225.339L288.954 226L289 198L283.69 200.107Z" fill="#E3E5E4"/>
</svg>
