<svg width="166" height="99" viewBox="0 0 166 99" fill="none" xmlns="http://www.w3.org/2000/svg">
<path fill-rule="evenodd" clip-rule="evenodd" d="M127.185 70.2553C120.112 64.6908 108.589 70.8014 101.71 73.8393C98.7627 75.1349 84.6125 81.5879 86.1107 86.7752C88.0613 93.5957 98.3493 87.7233 102.284 86.1349C107.304 84.1047 112.407 82.2233 117.456 80.2775C120.258 79.2003 123.799 78.0785 125.774 75.5816C126.835 74.7824 127.657 73.7747 127.934 72.4891C128.124 71.5807 127.914 70.8361 127.185 70.2553Z" fill="#EA3663"/>
<path fill-rule="evenodd" clip-rule="evenodd" d="M92.4324 48.5916C89.1645 50.7856 81.596 55.4468 83.2275 60.4481C83.5026 61.2912 84.0577 61.8469 84.9796 61.9379C90.3713 62.4744 96.4001 59.4133 101.208 57.4157C105.19 55.7629 109.915 53.8036 112.889 50.4886C115.268 48.9413 117.267 47.1736 117.831 45.128C118.947 41.0321 114.289 39.5471 110.91 40.1172C104.393 41.2142 97.824 44.9556 92.4324 48.5916Z" fill="#EA3663"/>
<path fill-rule="evenodd" clip-rule="evenodd" d="M80.7486 70.0062C77.2684 69.8287 73.4753 73.5272 70.9043 75.3453C65.6937 79.0342 60.0872 82.1091 54.9549 85.8508C52.9557 87.3091 49.4364 89.6453 50.0767 92.5954C50.6584 95.2866 53.6254 95.3106 55.7077 94.6198C60.2925 93.0991 65.0729 90.0098 69.3352 87.7408C73.5633 85.4862 79.4044 82.4257 81.6675 78.0652C81.8924 77.6335 81.907 77.2161 81.8337 76.818C84.1848 73.8342 85.617 70.2556 80.7486 70.0062Z" fill="#EA3663"/>
<path fill-rule="evenodd" clip-rule="evenodd" d="M37.7354 52.2572C36.1719 54.5526 37.1242 58.2761 40.3743 57.9838C45.7564 57.4902 51.1859 53.3785 55.9331 51.0208C58.1599 49.9138 62.476 48.1647 64.1579 45.5338C68.9572 42.7735 73.4392 39.1315 71.563 35.3409C67.9813 28.1 52.8725 39.7161 48.9023 42.4716C44.9415 45.2223 40.4975 48.1839 37.7354 52.2572Z" fill="#EA3663"/>
<path fill-rule="evenodd" clip-rule="evenodd" d="M94.7673 23.7137C98.0263 22.3859 108.126 18.9286 110.739 14.4573C117.614 11.874 125.048 8.09804 125 2.11541C124.995 1.35249 124.556 0.386768 123.708 0.222596C116.925 -1.11493 110.705 3.89233 104.949 6.78466C99.0194 9.76391 87.0874 14.0517 85.1735 21.3139C83.65 27.0599 92.6026 24.5974 94.7673 23.7137Z" fill="#EA3663"/>
<path fill-rule="evenodd" clip-rule="evenodd" d="M137.226 40.2589C139.055 40.3317 140.87 39.5306 142.611 38.5012C143.25 38.9965 144.143 39.1421 144.918 38.4332C151.021 32.8785 162.148 30.0234 165.748 22.0603C166.114 21.2446 165.606 20.3803 164.996 19.8801C161.44 16.9668 155.996 20.0841 152.601 21.8272C146.875 24.7648 140.099 28.9552 135.587 33.6262C133.436 35.8646 133.406 40.1084 137.226 40.2589Z" fill="#EA3663"/>
<path fill-rule="evenodd" clip-rule="evenodd" d="M0.0919049 95.9402C0.675238 98.7358 4.03913 98.0876 5.90579 97.4345C10.9613 95.6631 15.8419 92.5756 20.3919 89.7652C24.4412 87.2665 29.0204 85.0053 32.4086 81.5714C33.1572 80.9183 33.8329 80.191 34.3919 79.3498C36.1079 76.7324 33.8961 73.9863 31.4023 73.3678C22.3898 71.1214 11.5155 82.0266 5.58982 87.3852C3.37315 89.3842 -0.656706 92.3628 0.0919049 95.9402Z" fill="#EA3663"/>
<path fill-rule="evenodd" clip-rule="evenodd" d="M149.725 49.3704C146.859 48.1072 143.237 50.3671 140.813 51.7734C139.24 52.6912 137.724 53.7323 136.231 54.7883C134.777 55.8047 133.037 56.5498 131.868 57.9265C129.743 60.4331 131.811 64.2622 134.919 63.9858C137.153 63.7835 139.268 62.4167 141.169 60.9266C142.9 60.1321 144.535 59.0022 146.022 57.966C148.147 56.4709 150.861 54.206 150.999 51.3096C151.032 50.3918 150.495 49.7109 149.725 49.3704Z" fill="#EA3663"/>
<path fill-rule="evenodd" clip-rule="evenodd" d="M50.5409 23.2545C55.0132 21.9386 59.1324 18.6711 62.4231 15.3494C62.8703 14.8911 63.021 14.3539 62.988 13.8364C63.4776 13.2993 63.9766 12.7818 64.4992 12.3333C66.3399 10.7612 69.9648 7.94218 68.7596 4.95069C66.7071 -0.125478 57.1788 6.13841 54.646 7.62184C51.7555 9.30732 49.1334 11.3871 46.5818 13.5851C44.8447 15.0833 39.7792 18.6908 41.2715 21.8154C42.7874 24.9744 48.0365 23.9888 50.5409 23.2545Z" fill="#EA3663"/>
</svg>
