<svg width="208" height="218" viewBox="0 0 208 218" fill="none" xmlns="http://www.w3.org/2000/svg">
<path fill-rule="evenodd" clip-rule="evenodd" d="M136.389 66.0958C133.165 63.6665 132.491 59.1298 134.89 55.9595C137.292 52.7845 141.85 52.1862 145.075 54.6154L175.005 77.152C178.229 79.5812 178.895 84.1196 176.501 87.2931C174.105 90.4585 169.544 91.0615 166.316 88.6371L136.389 66.0958Z" fill="#EA3663"/>
<path fill-rule="evenodd" clip-rule="evenodd" d="M139.412 82.4343C136.997 85.6443 137.577 90.1708 140.71 92.5369C143.836 94.9128 148.333 94.2302 150.749 91.0202L173.163 61.2188C175.571 58.0106 174.995 53.4871 171.865 51.1161C168.741 48.7483 164.239 49.4277 161.823 52.6377L139.412 82.4343Z" fill="#EA3663"/>
<path fill-rule="evenodd" clip-rule="evenodd" d="M42.3691 93.7748C39.1613 91.3557 38.514 86.8148 40.9084 83.639C43.3107 80.4616 47.8578 79.8493 51.0718 82.2587L80.8447 104.706C84.0525 107.125 84.7078 111.664 82.3054 114.842C79.9062 118.015 75.3561 118.632 72.1483 116.213L42.3691 93.7748Z" fill="#EA3663"/>
<path fill-rule="evenodd" clip-rule="evenodd" d="M44.0144 109.598C41.59 112.825 42.1932 117.387 45.3636 119.786C48.5291 122.182 53.0708 121.511 55.5 118.287L78.0364 88.3572C80.4608 85.1298 79.8593 80.5766 76.692 78.1723C73.5265 75.7761 68.9848 76.4472 66.5556 79.6715L44.0144 109.598Z" fill="#EA3663"/>
<path fill-rule="evenodd" clip-rule="evenodd" d="M86.1222 176.541C82.9003 174.107 82.2279 169.577 84.6311 166.401C87.028 163.234 91.5854 162.627 94.8104 165.057L124.749 187.594C127.974 190.023 128.642 194.571 126.24 197.734C123.848 200.904 119.286 201.508 116.063 199.086L86.1222 176.541Z" fill="#EA3663"/>
<path fill-rule="evenodd" clip-rule="evenodd" d="M88.2772 191.999C85.848 195.223 86.4479 199.789 89.6213 202.184C92.7868 204.58 97.3331 203.912 99.7543 200.689L122.299 170.758C124.723 167.53 124.12 162.969 120.954 160.573C117.784 158.174 113.238 158.842 110.813 162.069L88.2772 191.999Z" fill="#EA3663"/>
</svg>
