<svg  xmlns="http://www.w3.org/2000/svg">

	<symbol id="facebook" viewBox="0 0 21 22">
		
			<path d="M18.75 0.5H2.25C0.984375 0.5 0 1.53125 0 2.75V19.25C0 20.5156 0.984375 21.5 2.25 21.5H8.67188V14.375H5.71875V11H8.67188V8.46875C8.67188 5.5625 10.4062 3.92188 13.0312 3.92188C14.3438 3.92188 15.6562 4.15625 15.6562 4.15625V7.01562H14.2031C12.75 7.01562 12.2812 7.90625 12.2812 8.84375V11H15.5156L15 14.375H12.2812V21.5H18.75C19.9688 21.5 21 20.5156 21 19.25V2.75C21 1.53125 19.9688 0.5 18.75 0.5Z"/>
		
	</symbol>

	<symbol id="instagram" viewBox="0 0 22 22">
		
			<path d="M11.5 5.60938C8.5 5.60938 6.10938 8.04688 6.10938 11C6.10938 14 8.5 16.3906 11.5 16.3906C14.4531 16.3906 16.8906 14 16.8906 11C16.8906 8.04688 14.4531 5.60938 11.5 5.60938ZM11.5 14.5156C9.57812 14.5156 7.98438 12.9688 7.98438 11C7.98438 9.07812 9.53125 7.53125 11.5 7.53125C13.4219 7.53125 14.9688 9.07812 14.9688 11C14.9688 12.9688 13.4219 14.5156 11.5 14.5156ZM18.3438 5.42188C18.3438 4.71875 17.7812 4.15625 17.0781 4.15625C16.375 4.15625 15.8125 4.71875 15.8125 5.42188C15.8125 6.125 16.375 6.6875 17.0781 6.6875C17.7812 6.6875 18.3438 6.125 18.3438 5.42188ZM21.9062 6.6875C21.8125 5 21.4375 3.5 20.2188 2.28125C19 1.0625 17.5 0.6875 15.8125 0.59375C14.0781 0.5 8.875 0.5 7.14062 0.59375C5.45312 0.6875 4 1.0625 2.73438 2.28125C1.51562 3.5 1.14062 5 1.04688 6.6875C0.953125 8.42188 0.953125 13.625 1.04688 15.3594C1.14062 17.0469 1.51562 18.5 2.73438 19.7656C4 20.9844 5.45312 21.3594 7.14062 21.4531C8.875 21.5469 14.0781 21.5469 15.8125 21.4531C17.5 21.3594 19 20.9844 20.2188 19.7656C21.4375 18.5 21.8125 17.0469 21.9062 15.3594C22 13.625 22 8.42188 21.9062 6.6875ZM19.6562 17.1875C19.3281 18.125 18.5781 18.8281 17.6875 19.2031C16.2812 19.7656 13 19.625 11.5 19.625C9.95312 19.625 6.67188 19.7656 5.3125 19.2031C4.375 18.8281 3.67188 18.125 3.29688 17.1875C2.73438 15.8281 2.875 12.5469 2.875 11C2.875 9.5 2.73438 6.21875 3.29688 4.8125C3.67188 3.92188 4.375 3.21875 5.3125 2.84375C6.67188 2.28125 9.95312 2.42188 11.5 2.42188C13 2.42188 16.2812 2.28125 17.6875 2.84375C18.5781 3.17188 19.2812 3.92188 19.6562 4.8125C20.2188 6.21875 20.0781 9.5 20.0781 11C20.0781 12.5469 20.2188 15.8281 19.6562 17.1875Z"/>
		
	</symbol>

	<symbol id="linkedin" viewBox="0 0 21 22">
		
			<path d="M19.5 0.5H1.45312C0.65625 0.5 0 1.20312 0 2.04688V20C0 20.8438 0.65625 21.5 1.45312 21.5H19.5C20.2969 21.5 21 20.8438 21 20V2.04688C21 1.20312 20.2969 0.5 19.5 0.5ZM6.32812 18.5H3.23438V8.51562H6.32812V18.5ZM4.78125 7.10938C3.75 7.10938 2.95312 6.3125 2.95312 5.32812C2.95312 4.34375 3.75 3.5 4.78125 3.5C5.76562 3.5 6.5625 4.34375 6.5625 5.32812C6.5625 6.3125 5.76562 7.10938 4.78125 7.10938ZM18 18.5H14.8594V13.625C14.8594 12.5 14.8594 11 13.2656 11C11.625 11 11.3906 12.2656 11.3906 13.5781V18.5H8.29688V8.51562H11.25V9.875H11.2969C11.7188 9.07812 12.75 8.23438 14.25 8.23438C17.3906 8.23438 18 10.3438 18 13.0156V18.5Z" />
		
	</symbol>

	<symbol id="arrow_left" viewBox="0 0 50 50" >

		<path d="M17.6642 11.223C18.2024 10.6848 19.0497 10.6848 19.5878 11.223C20.1078 11.743 20.1078 12.6084 19.5878 13.1272L9.83391 22.8812H42.0206C42.7709 22.8812 43.3866 23.4775 43.3866 24.2278C43.3866 24.9781 42.7709 25.5939 42.0206 25.5939H9.83391L19.5878 35.3296C20.1078 35.8678 20.1078 36.7345 19.5878 37.2533C19.0497 37.7915 18.2024 37.7915 17.6642 37.2533L5.60118 25.1902C5.08118 24.6702 5.08118 23.8048 5.60118 23.286L17.6642 11.223Z" />

	</symbol>

	<symbol id="arrow_right" viewBox="0 0 50 50" >

		<path d="M31.6089 10.4336C31.0504 9.85548 30.1207 9.85548 29.5426 10.4336C28.9841 10.9921 28.9841 11.9218 29.5426 12.479L40.0198 22.9562H5.44652C4.64058 22.9575 4 23.5981 4 24.404C4 25.21 4.64058 25.8714 5.44652 25.8714H40.0198L29.5426 36.3291C28.9841 36.9071 28.9841 37.8381 29.5426 38.3953C30.1207 38.9734 31.0517 38.9734 31.6089 38.3953L44.5664 25.4378C45.1445 24.8793 45.1445 23.9496 44.5664 23.3924L31.6089 10.4336Z" />

	</symbol>


</svg>




