<svg width="593" height="379" viewBox="0 0 593 379" fill="none" xmlns="http://www.w3.org/2000/svg">
<path fill-rule="evenodd" clip-rule="evenodd" d="M592.177 285.795C600.812 354.536 391.381 399.372 211.118 368.082C30.8551 336.791 -51.8409 214.598 34.1775 149.489C120.196 84.3799 583.541 217.055 592.177 285.795Z" fill="#B7C6E0"/>
<path fill-rule="evenodd" clip-rule="evenodd" d="M407.476 97.7216L367.522 201.253L299.172 12.3406L232.721 219.29L150.131 83.5386L58.9995 334.156H499L407.476 97.7216Z" fill="#9DB2D7"/>
<path fill-rule="evenodd" clip-rule="evenodd" d="M279.816 126.271C278.879 123.662 276.391 121.792 273.459 121.792C272.123 121.792 270.881 122.185 269.833 122.853C268.507 119.297 265.082 116.764 261.063 116.764C257.359 116.764 254.158 118.916 252.642 122.038C252.072 121.882 251.475 121.792 250.855 121.792C247.923 121.792 245.435 123.662 244.498 126.271H279.816Z" fill="white"/>
<path fill-rule="evenodd" clip-rule="evenodd" d="M482.734 112.427C482.734 125.929 471.788 136.875 458.286 136.875C444.784 136.875 433.838 125.929 433.838 112.427C433.838 98.9252 444.784 87.9792 458.286 87.9792C471.788 87.9792 482.734 98.9252 482.734 112.427Z" fill="#EFC260"/>
<path fill-rule="evenodd" clip-rule="evenodd" d="M456.525 243.393C442.932 243.393 431.812 254.514 431.812 268.107V312.664C431.812 326.255 442.932 337.376 456.525 337.376C470.118 337.376 481.238 326.255 481.238 312.664V268.107C481.238 254.514 470.118 243.393 456.525 243.393Z" fill="#819BC8"/>
<path fill-rule="evenodd" clip-rule="evenodd" d="M455.861 364.182H456.704V255.387H455.861V364.182Z" fill="white"/>
<path fill-rule="evenodd" clip-rule="evenodd" d="M443.938 288.191L456.02 298.339L469.544 288.741L469.094 288.026L456.063 297.274L444.587 287.634L443.938 288.191Z" fill="white"/>
<path fill-rule="evenodd" clip-rule="evenodd" d="M443.938 312.388L456.02 322.537L469.544 312.939L469.094 312.223L456.063 321.471L444.587 311.831L443.938 312.388Z" fill="white"/>
<path fill-rule="evenodd" clip-rule="evenodd" d="M443.938 263.994L456.02 274.142L469.544 264.544L469.094 263.829L456.063 273.077L444.587 263.437L443.938 263.994Z" fill="white"/>
<path fill-rule="evenodd" clip-rule="evenodd" d="M463.466 364.263H450.384C450.122 364.263 449.909 364.051 449.909 363.788C449.909 363.526 450.122 363.314 450.384 363.314H463.466C463.729 363.314 463.941 363.526 463.941 363.788C463.941 364.051 463.729 364.263 463.466 364.263Z" fill="#A194EF"/>
<path fill-rule="evenodd" clip-rule="evenodd" d="M109.442 252.908C99.5443 252.908 91.4463 261.006 91.4463 270.903V303.349C91.4463 313.247 99.5443 321.346 109.442 321.346C119.339 321.346 127.438 313.247 127.438 303.349V270.903C127.438 261.006 119.339 252.908 109.442 252.908Z" fill="#819BC8"/>
<path fill-rule="evenodd" clip-rule="evenodd" d="M108.959 340.864H109.573V261.641H108.959V340.864Z" fill="white"/>
<path fill-rule="evenodd" clip-rule="evenodd" d="M100.277 285.529L109.074 292.919L118.923 285.929L118.595 285.408L109.106 292.142L100.75 285.124L100.277 285.529Z" fill="white"/>
<path fill-rule="evenodd" clip-rule="evenodd" d="M100.277 303.149L109.074 310.539L118.923 303.549L118.595 303.029L109.106 309.763L100.75 302.744L100.277 303.149Z" fill="white"/>
<path fill-rule="evenodd" clip-rule="evenodd" d="M100.277 267.908L109.074 275.299L118.923 268.309L118.595 267.788L109.106 274.522L100.75 267.504L100.277 267.908Z" fill="white"/>
<path fill-rule="evenodd" clip-rule="evenodd" d="M114.496 340.923H104.97C104.779 340.923 104.624 340.768 104.624 340.577C104.624 340.386 104.779 340.232 104.97 340.232H114.496C114.687 340.232 114.842 340.386 114.842 340.577C114.842 340.768 114.687 340.923 114.496 340.923Z" fill="#A194EF"/>
<path fill-rule="evenodd" clip-rule="evenodd" d="M463.982 127.221C462.39 122.788 458.163 119.611 453.182 119.611C450.913 119.611 448.803 120.278 447.022 121.414C444.769 115.372 438.95 111.069 432.124 111.069C425.831 111.069 420.393 114.726 417.817 120.03C416.848 119.764 415.834 119.611 414.781 119.611C409.8 119.611 405.573 122.788 403.981 127.221H463.982Z" fill="white"/>
<path fill-rule="evenodd" clip-rule="evenodd" d="M369.751 84.2068H188.249C183.461 84.2068 179.581 88.0888 179.581 92.8758V351.05C179.581 355.838 183.461 359.718 188.249 359.718H369.751C374.538 359.718 378.419 355.837 378.419 351.05V92.8758C378.419 88.0888 374.538 84.2068 369.751 84.2068Z" fill="#819BC8"/>
<path fill-rule="evenodd" clip-rule="evenodd" d="M195.731 345.277H362.274V99.61H195.731V345.277Z" fill="white"/>
<path fill-rule="evenodd" clip-rule="evenodd" d="M195.731 340.262H362.274V94.595H195.731V340.262Z" fill="white"/>
<path fill-rule="evenodd" clip-rule="evenodd" d="M221.487 94.5951C221.592 101.455 227.187 107.313 234.425 107.313H323.573C330.812 107.313 336.406 101.455 336.512 94.5951H221.487Z" fill="#3E3577"/>
<path fill-rule="evenodd" clip-rule="evenodd" d="M280.524 78.6957C275.045 79.7377 270.328 75.0217 271.369 69.5407C271.95 66.4807 274.419 64.0127 277.48 63.4337C282.957 62.3977 287.668 67.1097 286.63 72.5857C286.051 75.6457 283.585 78.1147 280.524 78.6957ZM333.75 78.0937C332.798 73.9797 329.134 71.0657 324.912 71.0657H295.176C295.177 62.1317 287.934 54.8877 278.999 54.8877C270.065 54.8877 262.822 62.1317 262.822 71.0657H233.086C228.863 71.0657 225.2 73.9787 224.248 78.0927L221.816 88.6087C219.941 96.7187 226.1 104.465 234.424 104.465H323.573C331.897 104.465 338.056 96.7187 336.181 88.6097L333.75 78.0937Z" fill="#819BC8"/>
<path fill-rule="evenodd" clip-rule="evenodd" d="M211.691 157.592H246.136V123.145H211.691V157.592ZM208.351 160.933H249.477V119.805H208.351V160.933Z" fill="#A5CDD4"/>
<path fill-rule="evenodd" clip-rule="evenodd" d="M259.267 131.332H305.029V124.168H259.267V131.332Z" fill="#A5CDD4"/>
<path fill-rule="evenodd" clip-rule="evenodd" d="M259.267 146.607H350.791V139.443H259.267V146.607Z" fill="#A5CDD4"/>
<path fill-rule="evenodd" clip-rule="evenodd" d="M259.267 160.847H350.791V153.683H259.267V160.847Z" fill="#A5CDD4"/>
<path fill-rule="evenodd" clip-rule="evenodd" d="M253.198 116.119L229.905 139.772L222.994 133.678L217.684 139.703L230.281 150.812L258.913 121.765L253.198 116.119Z" fill="#D81646"/>
<path fill-rule="evenodd" clip-rule="evenodd" d="M211.691 212.177H246.136V177.73H211.691V212.177ZM208.351 215.518H249.477V174.39H208.351V215.518Z" fill="#A5CDD4"/>
<path fill-rule="evenodd" clip-rule="evenodd" d="M259.267 185.917H305.029V178.753H259.267V185.917Z" fill="#A5CDD4"/>
<path fill-rule="evenodd" clip-rule="evenodd" d="M259.267 201.192H350.791V194.028H259.267V201.192Z" fill="#A5CDD4"/>
<path fill-rule="evenodd" clip-rule="evenodd" d="M259.267 215.431H350.791V208.268H259.267V215.431Z" fill="#A5CDD4"/>
<path fill-rule="evenodd" clip-rule="evenodd" d="M253.198 170.704L237.17 187.047L242.293 193.024L258.913 176.35L253.198 170.704Z" fill="#D81646"/>
<path fill-rule="evenodd" clip-rule="evenodd" d="M211.691 266.762H246.136V232.315H211.691V266.762ZM208.351 270.103H249.477V228.974H208.351V270.103Z" fill="#A5CDD4"/>
<path fill-rule="evenodd" clip-rule="evenodd" d="M259.267 240.502H305.029V233.338H259.267V240.502Z" fill="#A5CDD4"/>
<path fill-rule="evenodd" clip-rule="evenodd" d="M259.267 255.777H350.791V248.613H259.267V255.777Z" fill="#A5CDD4"/>
<path fill-rule="evenodd" clip-rule="evenodd" d="M259.267 270.016H350.791V262.853H259.267V270.016Z" fill="#A5CDD4"/>
<path fill-rule="evenodd" clip-rule="evenodd" d="M253.198 225.289L229.905 248.941L222.994 242.848L217.684 248.873L230.281 259.981L258.913 230.935L253.198 225.289Z" fill="#D81646"/>
<path fill-rule="evenodd" clip-rule="evenodd" d="M211.691 322.297H246.136V287.85H211.691V322.297ZM208.351 325.638H249.477V284.509H208.351V325.638Z" fill="#A5CDD4"/>
<path fill-rule="evenodd" clip-rule="evenodd" d="M259.267 296.036H305.029V288.873H259.267V296.036Z" fill="#A5CDD4"/>
<path fill-rule="evenodd" clip-rule="evenodd" d="M259.267 311.311H350.791V304.148H259.267V311.311Z" fill="#A5CDD4"/>
<path fill-rule="evenodd" clip-rule="evenodd" d="M259.267 325.55H350.791V318.387H259.267V325.55Z" fill="#A5CDD4"/>
<path fill-rule="evenodd" clip-rule="evenodd" d="M253.198 280.824L229.905 304.477L222.994 298.383L217.684 304.408L230.281 315.516L258.913 286.47L253.198 280.824Z" fill="#D81646"/>
<path fill-rule="evenodd" clip-rule="evenodd" d="M241.092 196.193L233.153 191.549C232.832 191.361 232.631 191.02 232.622 190.649C232.613 190.276 232.797 189.926 233.109 189.723L239.569 185.511C239.91 185.289 240.346 185.278 240.697 185.484L245.659 188.386C246.171 188.686 246.343 189.343 246.044 189.855L242.56 195.809C242.261 196.32 241.604 196.492 241.092 196.193Z" fill="#EC2A5A"/>
<path fill-rule="evenodd" clip-rule="evenodd" d="M235.889 187.91L233.108 189.723C232.797 189.927 232.613 190.276 232.622 190.648C232.631 191.02 232.832 191.361 233.153 191.549L241.092 196.193C241.603 196.492 242.261 196.32 242.56 195.808L244.302 192.831L235.889 187.91Z" fill="#D81646"/>
<path fill-rule="evenodd" clip-rule="evenodd" d="M336.269 262.528L253.223 213.946C250.535 212.373 248.577 209.719 248.114 206.639C247.73 204.082 246.222 201.858 243.995 200.555L239.931 198.177C239.419 197.879 239.248 197.221 239.547 196.709L245.352 186.786C245.651 186.275 246.309 186.102 246.82 186.402L250.921 188.8C253.133 190.094 255.784 190.231 258.205 189.391C261.153 188.368 264.38 188.682 267.079 190.261L350.124 238.843C356.295 242.453 358.372 250.382 354.761 256.553L353.979 257.89C350.369 264.061 342.44 266.137 336.269 262.528Z" fill="white"/>
<path fill-rule="evenodd" clip-rule="evenodd" d="M265.753 190.618L252.884 212.616C252.616 213.074 252.756 213.673 253.214 213.941C253.217 213.942 253.22 213.944 253.223 213.946L341.629 265.664C344.839 267.542 348.964 266.462 350.842 263.252L357.897 251.192C359.774 247.982 358.695 243.857 355.484 241.979L267.079 190.261C267.076 190.26 267.073 190.258 267.07 190.256C266.612 189.989 266.021 190.16 265.753 190.618Z" fill="#EC2A5A"/>
<path fill-rule="evenodd" clip-rule="evenodd" d="M355.484 241.979L267.078 190.261C267.075 190.259 267.073 190.258 267.07 190.256C267.068 190.255 267.067 190.256 267.067 190.255C264.37 188.682 261.149 188.369 258.204 189.391C255.783 190.231 253.132 190.094 250.92 188.8L246.819 186.401C246.308 186.102 245.651 186.274 245.351 186.786L242.384 191.858C265.258 205.558 323.134 239.944 353.817 258.166L354.369 257.221L354.76 256.553L357.896 251.192C359.774 247.982 358.695 243.857 355.484 241.979Z" fill="#D81646"/>
<path fill-rule="evenodd" clip-rule="evenodd" d="M362.191 126.208L362.153 131.5C362.153 131.5 362.821 134.888 363.356 138.5C363.891 142.111 364.293 145.945 363.757 146.837C362.688 148.621 360.547 146.837 360.191 145.054C359.835 143.27 359.299 132.213 359.299 132.213L358.942 125.08L362.191 126.208Z" fill="#2D2C56"/>
<path fill-rule="evenodd" clip-rule="evenodd" d="M367.606 125.502L366.79 130.252C366.79 130.252 365.184 143.271 366.076 145.232C366.967 147.194 369.821 146.303 369.643 143.627C369.464 140.952 370.178 131.5 370.178 131.5L371.783 125.793L367.606 125.502Z" fill="#2D2C56"/>
<path fill-rule="evenodd" clip-rule="evenodd" d="M365.399 67.5102L365.008 73.3712L380.109 80.6592C382.835 82.1292 384.148 85.3172 383.249 88.2812L372.787 127.15L367.606 125.502L372.204 89.7482C372.527 87.5482 371.017 85.4992 368.821 85.1552L363.445 84.3132L357.717 78.4772L364.337 84.4182C365.941 85.8572 366.728 87.9962 366.442 90.1312L362.191 126.208L357.482 127.386L355.379 91.8642C355.227 89.6122 353.712 87.6822 351.56 86.9992L342.253 84.0482C340.773 83.1452 339.85 81.5522 339.804 79.8192L340.195 67.3152L365.399 67.5102Z" fill="#3E3577"/>
<path fill-rule="evenodd" clip-rule="evenodd" d="M339.238 80.6318L341.731 32.0968C341.731 32.0968 352.053 31.4778 355.125 31.4778C356.799 31.4778 359.657 32.2718 361.914 32.9958C364.034 33.6748 365.796 33.6148 366.825 35.5888L383.754 68.0358L373.352 69.0268L369.885 65.0638L371.648 62.3898L365.325 47.4748L366.566 74.5588L339.238 80.6318Z" fill="#EFC260"/>
<path fill-rule="evenodd" clip-rule="evenodd" d="M355.578 46.1357C352.167 46.1357 345.91 37.2287 345.91 33.8177C345.91 33.1257 346.028 32.4637 346.238 31.8427C349.419 31.6717 353.406 31.4777 355.125 31.4777C355.879 31.4777 356.879 31.6437 357.951 31.8867C358.151 32.4947 358.264 33.1427 358.264 33.8177C358.264 37.2287 358.989 46.1357 355.578 46.1357Z" fill="white"/>
<path fill-rule="evenodd" clip-rule="evenodd" d="M340.509 40.4734L339.238 80.9074L355.939 76.9054L340.509 40.4734Z" fill="#D8AC55"/>
<path fill-rule="evenodd" clip-rule="evenodd" d="M356.167 26.4858C355.878 27.0648 353.851 35.0278 353.851 35.0278C353.851 35.0278 353.127 36.3308 351.39 36.1858C349.652 36.0408 348.929 33.5798 348.929 33.5798L351.969 23.5898L356.167 26.4858Z" fill="#EEBCC5"/>
<path fill-rule="evenodd" clip-rule="evenodd" d="M345.452 21.5815C345.452 27.0665 351.275 33.1375 356.761 33.1375C362.245 33.1375 365.315 27.0665 365.315 21.5815C365.315 16.0965 360.868 11.6505 355.384 11.6505C349.898 11.6505 345.452 16.0965 345.452 21.5815Z" fill="#EEBCC5"/>
<path fill-rule="evenodd" clip-rule="evenodd" d="M344.406 22.3777C344.406 28.5527 349.412 33.5597 355.588 33.5597C361.762 33.5597 366.769 28.5527 366.769 22.3777C366.769 16.2017 361.762 11.1957 355.588 11.1957C349.412 11.1957 344.406 16.2017 344.406 22.3777Z" fill="#EEBCC5"/>
<path fill-rule="evenodd" clip-rule="evenodd" d="M362.951 28.4545C362.728 28.8405 362.763 29.2785 363.028 29.4315C363.294 29.5845 363.69 29.3955 363.913 29.0095C364.136 28.6235 364.101 28.1865 363.836 28.0335C363.57 27.8795 363.175 28.0685 362.951 28.4545Z" fill="#3E3577"/>
<path fill-rule="evenodd" clip-rule="evenodd" d="M357.323 29.0634C357.079 29.4874 357.116 29.9684 357.408 30.1364C357.7 30.3044 358.135 30.0974 358.38 29.6734C358.624 29.2494 358.587 28.7694 358.295 28.6004C358.003 28.4324 357.568 28.6394 357.323 29.0634Z" fill="#3E3577"/>
<path fill-rule="evenodd" clip-rule="evenodd" d="M353.489 75.9662C353.924 75.8212 357.593 74.0432 360.198 74.0432C362.804 74.0432 365.99 76.7942 365.99 76.7942C365.99 76.7942 366.424 78.2412 364.686 77.9522C362.949 77.6622 364.926 79.0452 364.926 79.0452C364.926 79.0452 364.832 79.1102 362.804 79.4002C360.778 79.6892 352.875 79.2642 352.875 79.2642L353.489 75.9662Z" fill="#EEBCC5"/>
<path fill-rule="evenodd" clip-rule="evenodd" d="M341.731 32.0966L340.334 64.0396L353.463 75.9196L352.838 79.2536L334.348 69.3806C332.56 68.4256 331.556 66.4576 331.834 64.4496L335.207 40.0046C335.485 36.9546 337.329 34.2696 340.075 32.9136L341.731 32.0966Z" fill="#EFC260"/>
<path fill-rule="evenodd" clip-rule="evenodd" d="M352.141 81.995H385.587V79.543H352.141C351.464 79.543 350.915 80.092 350.915 80.769C350.915 81.446 351.464 81.995 352.141 81.995Z" fill="white"/>
<path fill-rule="evenodd" clip-rule="evenodd" d="M361.317 81.995H393.57C394.997 81.995 396.244 81.035 396.61 79.656L402.302 58.209C402.833 56.213 401.327 54.257 399.262 54.257H371.098C369.672 54.257 368.424 55.217 368.058 56.596L361.317 81.995Z" fill="white"/>
<path fill-rule="evenodd" clip-rule="evenodd" d="M380.311 70.0248C379.957 71.4238 380.837 72.5578 382.277 72.5578C383.716 72.5578 385.169 71.4238 385.523 70.0248C385.875 68.6258 384.996 67.4918 383.556 67.4918C382.117 67.4918 380.664 68.6258 380.311 70.0248Z" fill="#3E3577"/>
<path fill-rule="evenodd" clip-rule="evenodd" d="M355.588 11.1962C361.325 11.1962 366.047 15.5192 366.689 21.0852C364.745 22.5222 362.212 23.1612 359.826 22.7452C357.01 22.2532 354.486 20.3172 353.281 17.7242C353.368 18.9632 353.454 20.2162 353.247 21.4402C353.04 22.6642 352.51 23.8772 351.554 24.6702C351.483 23.8012 351.4 22.8982 350.946 22.1542C350.492 21.4102 349.548 20.8872 348.736 21.2042C348.154 21.4302 347.781 22.0362 347.694 22.6552C347.608 23.2732 347.767 23.9012 347.994 24.4832C348.351 25.3972 348.881 26.2422 349.547 26.9622C348.226 27.1712 346.835 27.3272 345.511 27.1992C344.81 25.7382 344.406 24.1072 344.406 22.3772C344.406 16.2022 349.412 11.1962 355.588 11.1962Z" fill="#3E3577"/>
<path fill-rule="evenodd" clip-rule="evenodd" d="M345.993 24.2206C345.993 26.0916 347.511 27.6086 349.382 27.6086C351.253 27.6086 352.769 26.0916 352.769 24.2206C352.769 22.3496 351.253 20.8326 349.382 20.8326C347.511 20.8326 345.993 22.3496 345.993 24.2206Z" fill="#EEBCC5"/>
<path fill-rule="evenodd" clip-rule="evenodd" d="M367.606 125.502L366.996 129.051L370.551 130.172L371.537 126.669L367.606 125.502Z" fill="#EEBCC5"/>
<path fill-rule="evenodd" clip-rule="evenodd" d="M362.162 130.172L359.225 130.739L359.039 126.997L362.191 126.209L362.162 130.172Z" fill="#EEBCC5"/>
<path fill-rule="evenodd" clip-rule="evenodd" d="M342.185 7.21127C342.185 11.1943 345.414 14.4233 349.397 14.4233C353.38 14.4233 356.61 11.1943 356.61 7.21127C356.61 3.22827 353.38 -0.000732422 349.397 -0.000732422C345.414 -0.000732422 342.185 3.22827 342.185 7.21127Z" fill="#3E3577"/>
<path fill-rule="evenodd" clip-rule="evenodd" d="M399.915 327.411L405.505 329.599L404.047 333.244L397.241 331.3L399.915 327.411Z" fill="white"/>
<path fill-rule="evenodd" clip-rule="evenodd" d="M352.279 365.811L353.634 370.512L349.755 371.344L346.428 365.523L352.279 365.811Z" fill="white"/>
<path fill-rule="evenodd" clip-rule="evenodd" d="M342.641 239.199C342.641 245.528 337.51 250.659 331.181 250.659C324.851 250.659 319.72 245.528 319.72 239.199C319.72 232.869 324.851 227.738 331.181 227.738C337.51 227.738 342.641 232.869 342.641 239.199Z" fill="#EEBCC5"/>
<path fill-rule="evenodd" clip-rule="evenodd" d="M324.523 244.213L328.182 255.293C328.182 255.293 335.501 257.715 335.501 257.336C335.501 256.958 332.094 244.718 332.094 244.718L324.523 244.213Z" fill="#EEBCC5"/>
<path fill-rule="evenodd" clip-rule="evenodd" d="M291.818 221.381C291.818 223.109 290.418 224.508 288.69 224.508C286.964 224.508 285.563 223.109 285.563 221.381C285.563 219.653 286.964 218.254 288.69 218.254C290.418 218.254 291.818 219.653 291.818 221.381Z" fill="#EEBCC5"/>
<path fill-rule="evenodd" clip-rule="evenodd" d="M344.688 254.271C344.688 255.998 343.289 257.398 341.561 257.398C339.834 257.398 338.434 255.998 338.434 254.271C338.434 252.543 339.834 251.143 341.561 251.143C343.289 251.143 344.688 252.543 344.688 254.271Z" fill="#EEBCC5"/>
<path fill-rule="evenodd" clip-rule="evenodd" d="M287.639 226.167C287.639 226.167 297.311 243.85 301.513 248.751C305.714 253.653 316.569 259.605 316.569 259.605L318.802 285.106L346.113 284.056L343.943 268.306C343.943 268.306 353.746 274.958 358.649 274.258C363.55 273.558 368.871 269 360.819 263.397C352.765 257.795 345.063 254.645 345.063 254.645L342.261 256.745C342.261 256.745 326.505 250.442 323.003 250.093C319.502 249.742 294.642 223.481 294.642 223.481L287.639 226.167Z" fill="#3E3577"/>
<path fill-rule="evenodd" clip-rule="evenodd" d="M318.803 285.107C318.803 285.107 325.967 314.077 330.342 327.687C334.716 341.296 342.493 367.059 342.493 367.059L352.28 365.811L335.261 297.17L366.239 329.07L397.347 335.876L399.915 327.411L371.237 317.689L346.114 284.056L318.803 285.107Z" fill="#EFC260"/>
<path fill-rule="evenodd" clip-rule="evenodd" d="M347.99 229.173C347.99 232.316 345.442 234.863 342.3 234.863C339.156 234.863 336.608 232.316 336.608 229.173C336.608 226.029 339.156 223.482 342.3 223.482C345.442 223.482 347.99 226.029 347.99 229.173Z" fill="#3E3577"/>
<path fill-rule="evenodd" clip-rule="evenodd" d="M342.641 239.199C342.641 232.869 337.51 227.738 331.181 227.738C328.003 227.738 325.129 229.033 323.053 231.121C323.225 237.008 327.378 243.549 330.563 247.63C331.36 248.651 332.233 249.648 333.231 250.466C338.58 249.498 342.641 244.827 342.641 239.199Z" fill="#3E3577"/>
<path fill-rule="evenodd" clip-rule="evenodd" d="M332.523 241.323C332.523 243.747 330.558 245.712 328.134 245.712C325.711 245.712 323.746 243.747 323.746 241.323C323.746 238.899 325.711 236.934 328.134 236.934C330.558 236.934 332.523 238.899 332.523 241.323Z" fill="#EEBCC5"/>
<mask id="mask0" mask-type="alpha" maskUnits="userSpaceOnUse" x="343" y="370" width="14" height="8">
<path fill-rule="evenodd" clip-rule="evenodd" d="M343.103 370.512H356.13V377.719H343.103V370.512Z" fill="white"/>
</mask>
<g mask="url(#mask0)">
<path fill-rule="evenodd" clip-rule="evenodd" d="M353.635 370.512L349.755 371.344L348.092 374.67L343.103 375.779V377.719L356.13 377.164L353.635 370.512Z" fill="#3E3577"/>
</g>
<path fill-rule="evenodd" clip-rule="evenodd" d="M404.047 333.244L405.505 329.598L409.969 331.009L410.282 343.324L408.352 343.429C408.352 343.429 406.368 337.114 406.159 336.957C405.95 336.801 404.047 333.244 404.047 333.244Z" fill="#3E3577"/>
<path d="M322.331 288.821C322.331 288.821 322.846 293.195 327.734 298.084" stroke="#3F58FA"/>
<path d="M341.742 360.296L350.061 359.458" stroke="#3F58FA"/>
<path d="M392.515 326.267L390.959 332.87" stroke="#3F58FA"/>
<path fill-rule="evenodd" clip-rule="evenodd" d="M189.87 337.124L158.342 337.364L158.103 305.968C158.086 303.708 159.904 301.861 162.164 301.845L185.508 301.667C187.768 301.649 189.614 303.468 189.631 305.728L189.87 337.124Z" fill="#BCE4E6"/>
<path fill-rule="evenodd" clip-rule="evenodd" d="M173.627 308.524C171.508 308.541 169.776 306.836 169.76 304.715L169.672 293.051C169.669 292.766 169.898 292.534 170.183 292.532L176.827 292.481C177.112 292.479 177.345 292.708 177.347 292.993L177.436 304.658C177.452 306.777 175.747 308.508 173.627 308.524Z" fill="#EEBCC5"/>
<path fill-rule="evenodd" clip-rule="evenodd" d="M186.97 290.363C186.974 290.233 186.98 290.104 186.98 289.973C186.98 288.815 186.834 287.691 186.56 286.618V285.131C186.56 277.814 180.574 271.828 173.257 271.828C165.94 271.828 159.954 277.814 159.954 285.131V290.363H186.97Z" fill="#212D5F"/>
<path fill-rule="evenodd" clip-rule="evenodd" d="M185.541 286.655V285.372C185.541 278.625 180.02 273.103 173.273 273.103C166.525 273.103 161.005 278.625 161.005 285.372V290.4C161.005 290.737 161.044 291.066 161.115 291.383C161.916 297.493 167.139 302.211 173.467 302.211C180.349 302.211 185.929 296.632 185.929 289.749C185.929 288.68 185.794 287.644 185.541 286.655Z" fill="#EEBCC5"/>
<path fill-rule="evenodd" clip-rule="evenodd" d="M169.504 291.945C169.504 292.466 169.082 292.888 168.561 292.888C168.04 292.888 167.618 292.466 167.618 291.945C167.618 291.424 168.04 291.003 168.561 291.003C169.082 291.003 169.504 291.424 169.504 291.945Z" fill="#3E3577"/>
<path fill-rule="evenodd" clip-rule="evenodd" d="M178.465 291.945C178.465 292.466 178.043 292.888 177.522 292.888C177.001 292.888 176.578 292.466 176.578 291.945C176.578 291.424 177.001 291.003 177.522 291.003C178.043 291.003 178.465 291.424 178.465 291.945Z" fill="#3E3577"/>
<path fill-rule="evenodd" clip-rule="evenodd" d="M164.539 291.499C164.539 293.416 162.985 294.97 161.069 294.97C159.153 294.97 157.599 293.416 157.599 291.499C157.599 289.583 159.153 288.029 161.069 288.029C162.985 288.029 164.539 289.583 164.539 291.499Z" fill="#EEBCC5"/>
<path fill-rule="evenodd" clip-rule="evenodd" d="M189.012 291.499C189.012 293.416 187.458 294.97 185.542 294.97C183.625 294.97 182.072 293.416 182.072 291.499C182.072 289.583 183.625 288.029 185.542 288.029C187.458 288.029 189.012 289.583 189.012 291.499Z" fill="#EEBCC5"/>
<path fill-rule="evenodd" clip-rule="evenodd" d="M160.988 289.22C159.818 289.323 158.9 290.303 158.9 291.499C158.9 292.697 159.818 293.677 160.988 293.78V289.22Z" fill="#D98E9D"/>
<path fill-rule="evenodd" clip-rule="evenodd" d="M185.306 289.22C186.476 289.323 187.394 290.303 187.394 291.499C187.394 292.697 186.476 293.677 185.306 293.78V289.22Z" fill="#D98E9D"/>
<path fill-rule="evenodd" clip-rule="evenodd" d="M181.891 286.659C182.221 287.714 182.701 288.921 183.766 289.217C184.606 289.45 185.477 289.002 186.194 288.506C186.587 288.233 186.997 287.893 187.068 287.421C187.128 287.024 186.932 286.638 186.741 286.286C186.005 284.923 185.251 283.551 184.22 282.394C183.304 281.367 181.657 279.697 180.684 281.459C180.02 282.664 181.516 285.461 181.891 286.659Z" fill="#212D5F"/>
<path fill-rule="evenodd" clip-rule="evenodd" d="M183.18 278.794C180.469 276.776 177.116 275.578 173.496 275.578L173.639 273.379C170.035 273.379 166.554 276.767 163.849 278.769C166.21 281.453 169.669 283.987 173.526 283.987C177.37 283.987 180.819 281.465 183.18 278.794Z" fill="#212D5F"/>
<path fill-rule="evenodd" clip-rule="evenodd" d="M139.763 328.533C139.301 327.844 139.157 326.994 139.359 326.188C141.137 319.093 154.941 304.675 155.498 303.977C156.34 302.927 160.675 301.979 160.675 301.979L161.176 313.439L148.598 324.636C147.846 325.521 147.69 326.768 148.203 327.811L160.055 346.016L156.519 348.736L139.763 328.533Z" fill="#BCE4E6"/>
<path fill-rule="evenodd" clip-rule="evenodd" d="M209.04 329.181C209.405 328.538 209.553 327.786 209.407 327.061C208.016 320.123 192.666 304.681 192.103 303.977C191.262 302.926 186.926 301.979 186.926 301.979L186.426 313.439L200.278 325.344C200.938 326.226 201.094 327.388 200.687 328.412L186.849 346.831L191.065 348.327L209.04 329.181Z" fill="#BCE4E6"/>
<path fill-rule="evenodd" clip-rule="evenodd" d="M164.764 286.659C164.434 287.714 163.954 288.921 162.889 289.217C162.049 289.45 161.178 289.002 160.461 288.506C160.068 288.233 159.658 287.893 159.587 287.421C159.527 287.024 159.723 286.638 159.913 286.286C160.65 284.923 161.404 283.551 162.435 282.394C163.351 281.367 164.998 279.697 165.97 281.459C166.635 282.664 165.139 285.461 164.764 286.659Z" fill="#212D5F"/>
<path fill-rule="evenodd" clip-rule="evenodd" d="M160.542 348.661C160.542 350.867 158.753 352.655 156.547 352.655C154.341 352.655 152.552 350.867 152.552 348.661C152.552 346.454 154.341 344.666 156.547 344.666C158.753 344.666 160.542 346.454 160.542 348.661Z" fill="#EEBCC5"/>
<path fill-rule="evenodd" clip-rule="evenodd" d="M165.961 347.593C154.233 346.115 142.406 345.42 130.586 345.515C127.742 345.538 124.279 346.003 123.188 348.63C121.993 351.505 124.66 354.477 127.261 356.188C139.676 364.358 155.471 364.745 170.333 364.863C171.031 362.255 171.6 359.653 171.864 356.966C170.91 355.776 176.136 352.498 175.182 351.309C173.783 349.563 165.674 349.813 165.961 347.593Z" fill="#212D5F"/>
<path fill-rule="evenodd" clip-rule="evenodd" d="M176.361 347.593C188.089 346.115 199.916 345.42 211.736 345.515C214.58 345.538 218.043 346.003 219.134 348.63C220.329 351.505 217.662 354.477 215.061 356.188C202.646 364.358 186.851 364.745 171.989 364.863C171.291 362.255 170.722 359.653 170.458 356.966C171.412 355.776 172.258 354.638 173.212 353.447C174.611 351.701 176.648 349.813 176.361 347.593Z" fill="#212D5F"/>
<path fill-rule="evenodd" clip-rule="evenodd" d="M195.39 349.382C195.522 347.18 193.845 345.287 191.642 345.154C189.44 345.022 187.547 346.7 187.414 348.903C187.282 351.105 188.96 352.997 191.162 353.13C193.365 353.263 195.257 351.585 195.39 349.382Z" fill="#EEBCC5"/>
<path fill-rule="evenodd" clip-rule="evenodd" d="M167.105 360.481L174.204 360.714C174.204 360.714 184.93 369.454 184.818 372.286C184.706 375.117 179.931 373.215 177.895 371.307C175.858 369.399 171.559 365.603 171.559 365.603L166.651 363.694L167.105 360.481Z" fill="#212D5F"/>
<path fill-rule="evenodd" clip-rule="evenodd" d="M177.667 360.828L170.588 360.248C170.588 360.248 158.934 367.706 158.722 370.531C158.509 373.357 163.471 372.013 165.711 370.35C167.952 368.687 172.658 365.407 172.658 365.407L177.751 364.071L177.667 360.828Z" fill="#212D5F"/>
<path fill-rule="evenodd" clip-rule="evenodd" d="M156.081 353.363H192.347C193.722 353.363 194.915 352.417 195.228 351.078L198.293 337.968C198.751 335.427 196.788 333.096 194.206 333.116L152.665 333.431C150.084 333.451 148.156 335.812 148.653 338.345L153.293 351.395C153.712 352.575 154.829 353.363 156.081 353.363Z" fill="white"/>
<path fill-rule="evenodd" clip-rule="evenodd" d="M176.697 344.942C176.697 346.804 175.062 348.314 173.045 348.314C171.027 348.314 169.392 346.804 169.392 344.942C169.392 343.081 171.027 341.571 173.045 341.571C175.062 341.571 176.697 343.081 176.697 344.942Z" fill="#212D5F"/>
<path fill-rule="evenodd" clip-rule="evenodd" d="M175.892 278.42C176.303 278.506 176.71 278.615 177.09 278.793C177.959 279.199 178.622 279.932 179.294 280.616C181.012 282.368 182.926 283.912 184.835 285.452C184.967 285.559 185.116 285.671 185.285 285.662C185.386 285.657 185.48 285.608 185.563 285.549C186.229 285.064 186.117 284.056 185.934 283.252C185.43 281.028 184.87 278.694 183.324 277.019C182.767 276.414 182.102 275.921 181.442 275.431C180.081 274.422 178.687 273.397 177.073 272.884C176.297 272.638 175.487 272.517 174.678 272.418C173.453 272.268 172.197 272.169 170.993 272.442C170.487 272.557 169.999 272.735 169.514 272.918C167.898 273.527 166.277 274.198 164.912 275.257C161.921 277.573 160.528 281.547 160.674 285.327C160.694 285.846 160.898 286.519 161.417 286.511C161.683 286.507 161.9 286.306 162.082 286.112C163.57 284.533 164.25 282.55 165.887 281.114C167.597 279.611 169.748 278.633 172 278.309C173.291 278.122 174.615 278.151 175.892 278.42Z" fill="#212D5F"/>
<path fill-rule="evenodd" clip-rule="evenodd" d="M177.65 316.122H186.273V315.172H177.65V316.122Z" fill="#A5CDD4"/>
</svg>
