<svg xmlns="http://www.w3.org/2000/svg" fill="none" preserveAspectRatio="xMinYMin none" viewBox="0 0 644 644"><g fill-rule="evenodd" clip-rule="evenodd"><path fill="#FFC0A5" d="M386 282c3 34 162 133 163 136 1 2-50 118-50 118l14 5s77-123 74-136c-6-19-124-123-124-123h-77z"/><path fill="#D81646" d="M504 519l22 8c48-54 67-99 64-122-4-23-124-123-124-123h-81c3 78 151 137 153 140s-18 36-34 97z"/><path fill="#C5CFD6" d="M498 533h-3l-6 8-2 11 73 26s6-8 0-11l-10-5-28-28h-2l-4 5s-7 1-10-1c-3 0-6-3-8-5z"/><path fill="#FFC0A5" d="M405 282l-71 171-70 145h16l181-316h-56z"/><path fill="#C5CFD6" d="M266 588l-3 1-3 10 2 11h77s3-10-3-11l-11-1-37-16h-1l-2 6s-6 3-10 3l-9-3z"/><path fill="#EA3663" d="M270 567l37 7c28-42 147-212 160-292h-82c-43 57-88 243-115 285z"/><path fill="#FFC0A5" d="M439 116c8 5 16 8 20 7 10-3 10-40 3-55s-45-21-47 8c-1 10 3 19 9 27l-10 52h30l-5-39z"/><path fill="#191847" d="M450 52c-4-1-10-2-13-1 2-4 2-8 2-12l-4-11-2-5-5-2h-5l-2 1-1-1-5-2a11 11 0 0 0-10 4l-1 2-1 1h-1c-3 1-5 3-7 6l-1 9 6 16c3 3 6 5 10 6l-5 10a52 52 0 0 0-2 24c1 4 3 7 6 8l4 3 4 1c3 1 6 1 8-2l3-3v-1l-1-1c-3-2-4-5-4-8-1-3 0-7 3-8 4-2 8 0 11 2 1-5 4-10 8-12 5-3 11-3 15-5l4-3 1-2-1-2c-2-3-10-11-14-12z"/><path fill="#FFC0A5" d="M293 330c5-8 35-88 35-88l24 4-42 90c-4 6 0 16 2 23l1 4c-5 1-7-2-8-5-3-3-5-6-11-4l-8 3c-8 3-15 6-24-1-2-1-3-5 2-7 11-6 27-16 29-19zm262-38l-41-35-11 23 42 21c11 16 17 22 19 20v-6l-1-4c1-2 10-1 17 0 8 1 6-3 4-5-7-5-17-10-29-14z"/><path fill="#DDE3E9" d="M429 143l15-5c20 51 50 101 101 143l-13 21c-44-26-86-47-103-86-6-13-1-57 0-73z"/><path fill="#1F28CF" d="M378 287s64 7 101 0c3-1 4-6 2-9-22-55-37-102-37-140-6 3-21 1-21 1-27 39-40 83-45 148z"/><path fill="#DDE3E9" d="M415 136l1-1v1h11l2 34c5 66 14 208 35 262H325c2-62 25-135 48-198-17 17-37 46-53 95l-26-7a320 320 0 0 1 119-185v-1h2z"/></g><mask id="a" width="56" height="57" x="370" y="355" maskUnits="userSpaceOnUse"><path fill="#fff" fill-rule="evenodd" d="M370 355h56v57h-56v-57z" clip-rule="evenodd"/></mask><g mask="url(#a)"><path fill="#E91D50" fill-rule="evenodd" d="M392 367c-6 0-10 4-10 9 0 6 4 10 10 10 5 0 9-4 9-9 0-6-4-10-9-10m-9 41v-11l-1-1c-6-3-10-8-12-16-1-6 0-11 4-16s8-8 14-9c5 0 9 0 13 2 5 2 8 5 10 10 3 7 3 14 0 20-3 5-6 8-11 10h-1c9 3 18 5 27 3v11h-1l-10 1-18-3-10-2h-3l-1 1" clip-rule="evenodd"/></g><g clip-rule="evenodd"><path fill="#121BB4" fill-rule="evenodd" d="M131 398c20 0 21-17 21-51s29-63 9-63-54 29-54 63 4 51 24 51z"/><path fill="#191847" fill-rule="evenodd" d="M174 223c-12 0-22 10-22 22v21c0 11 8 20 19 21h29c5-4 0-33-3-46-2-10-11-18-21-18h-2z"/><path fill="#FFC0A5" fill-rule="evenodd" d="M175 271c6 4 13 6 16 5 7-2 8-29 2-40s-35-15-37 6c0 7 3 14 7 19l-8 39h24l-4-29z"/><path fill="#191847" fill-rule="evenodd" d="M153 242l2-2v-1s7-15 19-15 15 5 18 10c-1 6-6 8-12 10l-7 4-3-1a6 6 0 1 0 0 11c1 12 0 25-3 29h-29c-1-15 3-19 7-23 3-4 7-8 7-21l1-1z"/><path fill="#121BB4" fill-rule="evenodd" d="M118 481s36 10 62 10 48-16 48-16-35-10-58-10c-22 0-52 16-52 16z"/><path fill="#FFC0A5" fill-rule="evenodd" d="M201 501l-1-1c-3-9-54-100-60-117h58c4 13 22 92 24 108 8 25 24 107 26 112 2 6-10 12-13 5a620 620 0 0 1-34-107z"/><path fill="#FFC0A5" fill-rule="evenodd" d="M153 512c-23 6-109 16-115 18s-11-11-4-13a620 620 0 0 1 105-26c0-28-4-94-2-108h51c-2 14-22 114-26 124-1 3-5 5-9 5z"/><path fill="#C5CFD6" fill-rule="evenodd" d="M36 516c1-1 0-2-1-3h-7l-8 2 10 56s8 1 7-4v-8l7-28-1-1-4-1s-3-4-3-7v-6zm198 90l-3 1-2 7 1 8h57s2-7-3-8l-8-1-26-12-1 1-2 4-7 2-6-2z"/><path fill="#1F28CF" fill-rule="evenodd" d="M137 383s34-10 64 0c7 32 25 44 27 93-34 17-76-12-111 5-10-23 4-79 20-98z"/><path fill="#FFC0A5" fill-rule="evenodd" d="M273 338l-39 5 7 18 32-13c14 2 20 1 20-1l-3-2-3-2c0-2 4-6 9-10 4-3 1-4-1-4l-22 9zM81 435l29-83 22 1-38 84c-2 5 2 13 4 17l1 3c-3 1-5-1-7-3-1-2-3-4-8-2l-5 3c-6 3-11 6-18 2-1-1-2-3 1-5 7-5 18-14 19-17z"/><path fill="#D3DEE6" fill-rule="evenodd" d="M170 283l17 1c4 38 27 62 79 54l6 49c-48 7-90-13-98-65-3-13-5-27-4-39z"/><path fill="#C5CFD6" fill-rule="evenodd" d="M84 425c12-63 37-112 76-147h1l26 6c0 31 7 54 14 77l8 29h-70l-2 35H84z"/><path d="M139 391c2-23 6-45 12-66-2 22-2 49 2 66h-14z"/><path fill="#1F28CF" fill-rule="evenodd" d="M146 291l7-7s6 21 6 34c1 13 1 15-5 31-5 16-13 22-13 22s6-29 7-45c1-17-2-35-2-35z"/></g></svg>