<svg width="644" height="644" viewBox="0 0 644 644" fill="none" xmlns="http://www.w3.org/2000/svg">
<g filter="url(#filter0_d)">
<path fill-rule="evenodd" clip-rule="evenodd" d="M386.321 281.874C388.739 315.718 548.13 415.094 549.056 417.889C549.674 419.752 499.183 535.825 499.183 535.825L513.122 541.228C513.122 541.228 590.47 418.256 586.531 405.174C580.891 386.444 462.942 282.099 462.942 282.099L386.321 281.874Z" fill="#FFC0A5"/>
<path fill-rule="evenodd" clip-rule="evenodd" d="M503.592 518.563L526.387 526.867C574.419 472.685 593.235 427.97 589.79 405.181C586.345 382.392 466.263 282.143 466.263 282.143L384.785 282.106C387.6 360.43 535.636 418.575 537.617 421.913C539.599 425.252 520.131 457.931 503.592 518.563Z" fill="#D81646"/>
<path fill-rule="evenodd" clip-rule="evenodd" d="M497.979 532.665C497.145 531.845 495.787 531.859 495.027 532.749C493.155 534.942 490.01 538.84 489.134 541.248C487.862 544.743 486.587 551.872 486.587 551.872C490.648 553.35 559.572 578.436 559.572 578.436C559.572 578.436 565.835 570.081 559.978 567.101C554.121 564.121 550.286 562.042 550.286 562.042L521.581 534.325C521.176 533.934 520.528 533.954 520.148 534.37L515.784 539.143C515.784 539.143 509.147 539.722 505.6 538.431C503.209 537.56 499.89 534.542 497.979 532.665Z" fill="#C5CFD6"/>
<path fill-rule="evenodd" clip-rule="evenodd" d="M405.076 282L333.928 453.235L264 598H280.498L461 282H405.076Z" fill="#FFC0A5"/>
<path fill-rule="evenodd" clip-rule="evenodd" d="M265.753 588.055C264.689 587.57 263.418 588.048 263.008 589.144C261.999 591.845 260.377 596.584 260.377 599.145C260.377 602.865 261.618 610 261.618 610C265.939 610 339.286 610 339.286 610C339.286 610 342.314 600.006 335.791 599.209C329.268 598.412 324.954 597.77 324.954 597.77L288.499 581.543C287.985 581.314 287.383 581.555 287.168 582.075L284.7 588.053C284.7 588.053 278.662 590.866 274.886 590.866C272.343 590.866 268.191 589.165 265.753 588.055Z" fill="#C5CFD6"/>
<path fill-rule="evenodd" clip-rule="evenodd" d="M270 567.127L306.727 574C335.125 532.34 453.97 361.52 467 282H385.236C341.722 339.485 297.069 524.778 270 567.127Z" fill="#EA3663"/>
<path fill-rule="evenodd" clip-rule="evenodd" d="M438.901 115.855C447.148 121.168 455.251 123.735 459.055 122.687C468.593 120.059 469.47 82.7621 462.09 68.0584C454.71 53.3547 416.771 46.9459 414.859 76.0786C414.195 86.1896 418.167 95.2131 424.035 102.576L413.513 155H444.078L438.901 115.855Z" fill="#FFC0A5"/>
<path fill-rule="evenodd" clip-rule="evenodd" d="M450.017 52.044C445.841 50.6827 439.778 50.221 437.227 50.5334C438.678 46.8178 439.254 42.6781 438.784 38.6475C438.328 34.731 436.691 31.3962 435.177 27.9017C434.479 26.291 433.688 24.689 432.509 23.457C431.307 22.2019 429.787 21.3733 428.192 20.9781C426.56 20.5735 424.854 20.6072 423.219 20.9743C422.496 21.1367 421.848 21.4901 421.138 21.6865C420.412 21.8878 420.06 21.402 419.533 20.9138C418.263 19.7374 416.401 19.1566 414.794 18.9488C412.991 18.7157 411.12 19.0064 409.401 19.6399C407.727 20.2567 406.119 21.2581 404.909 22.7171C404.371 23.3665 403.882 24.1057 403.564 24.9218C403.434 25.2567 403.412 25.4551 403.099 25.5778C402.81 25.6914 402.472 25.6947 402.173 25.8028C399.288 26.8475 396.821 29.2307 395.477 32.2908C394.694 34.076 394.322 37.2191 394.424 40.742C394.526 44.2649 397.502 53.4572 400.285 56.8101C402.769 59.8028 406.421 61.7778 409.946 62.6423C407.606 65.5004 406.049 69.0719 404.898 72.7042C403.647 76.6498 402.873 80.7495 402.587 84.9266C402.315 88.8954 402.29 93.0924 403.161 96.9764C403.975 100.609 405.716 103.588 408.623 105.479C409.955 106.345 411.388 106.995 412.828 107.59C414.249 108.176 415.673 108.745 417.161 109.074C419.976 109.696 423.22 109.589 425.389 107.194C426.17 106.33 427.03 105.245 427.6 104.19C427.805 103.811 427.929 103.563 427.68 103.192C427.381 102.748 426.898 102.408 426.515 102.06C424.329 100.079 422.976 97.4349 422.635 94.2922C422.288 91.1036 423.09 86.9879 425.99 85.5963C429.57 83.8785 433.513 85.8503 436.695 87.6883C438.047 82.5864 440.824 77.9927 445.177 75.6524C449.994 73.0634 455.52 72.7604 460.47 70.539C461.76 69.9601 463.073 69.303 464.023 68.1236C464.42 67.6306 464.885 66.9912 465.044 66.3392C465.252 65.4828 464.735 64.7648 464.336 64.0972C462.22 60.5572 454.194 53.4053 450.017 52.044Z" fill="#191847"/>
<path fill-rule="evenodd" clip-rule="evenodd" d="M293.078 329.631C298.166 322.098 327.58 241.985 327.58 241.985L351.764 245.534C351.764 245.534 312.871 330.601 310.061 335.511C306.411 341.888 309.648 352.367 311.842 359.473C312.182 360.572 312.497 361.591 312.757 362.501C308.155 363.837 306.403 361.183 304.556 358.385C302.469 355.224 300.261 351.88 293.689 353.894C291.15 354.672 288.711 355.672 286.328 356.649C278.096 360.024 270.533 363.124 261.842 355.862C260.464 354.71 259.302 350.947 263.679 348.757C274.582 343.3 290.591 333.313 293.078 329.631ZM555.444 292.393L514.236 257.205L502.969 280.443L544.74 301.437C555.905 316.689 562.291 323.168 563.898 320.876C565.253 318.943 564.435 316.988 563.682 315.186C563.095 313.783 562.547 312.473 563.096 311.341C564.35 308.755 572.503 309.61 580.206 310.754C587.909 311.899 585.893 308.269 584.145 306.423C576.571 301.101 567.004 296.424 555.444 292.393Z" fill="#FFC0A5"/>
<path fill-rule="evenodd" clip-rule="evenodd" d="M428.691 143.197L443.679 138.197C463.973 189.326 494.257 238.788 544.881 280.552L532.342 302.323C487.845 275.942 445.72 255.453 428.645 215.835C422.915 202.539 428.213 159.101 428.691 143.197Z" fill="#DDE3E9"/>
<path fill-rule="evenodd" clip-rule="evenodd" d="M377.872 286.771C377.872 286.771 442.255 293.647 479.225 286.771C482.278 286.203 482.76 281.053 481.344 277.558C459.292 223.133 444.17 175.643 444.17 137.84C438.101 140.922 422.926 138.764 422.926 138.764C395.739 177.721 383.241 222.42 377.872 286.771Z" fill="#1F28CF"/>
<path fill-rule="evenodd" clip-rule="evenodd" d="M414.545 135.713C415.29 135.207 415.683 134.955 415.683 134.955L415.64 135.713H426.871C427.44 139.086 428.274 151.587 429.49 169.816C433.909 236.055 443.373 377.924 463.518 432.216H324.526C327.459 370.481 350.058 296.654 373.466 233.971C356.174 251.292 335.967 280.323 319.612 328.641L293.581 321.936C320.162 207.065 397.631 147.616 413.011 136.777C413.164 136.42 413.317 136.066 413.468 135.713H414.545Z" fill="#DDE3E9"/>
</g>
<mask id="mask0" mask-type="alpha" maskUnits="userSpaceOnUse" x="370" y="355" width="56" height="57">
<path fill-rule="evenodd" clip-rule="evenodd" d="M370 355H426V412H370V355Z" fill="white"/>
</mask>
<g mask="url(#mask0)">
<path fill-rule="evenodd" clip-rule="evenodd" d="M391.774 367.09C386.26 367.087 382.208 371.064 382.065 376.345C381.915 381.896 385.969 386.273 391.641 386.283C397.192 386.293 401.368 382.376 401.361 376.633C401.353 370.895 397.177 367.173 391.774 367.09M382.974 407.518V406.642C382.974 403.547 382.983 396.638 382.983 396.638C382.983 396.638 382.869 396.585 382.361 396.346C375.509 393.133 371.5 387.749 370.324 380.313C369.374 374.304 370.48 368.678 374.056 363.689C377.501 358.882 382.286 356.18 388.118 355.29C392.624 354.603 396.978 355.125 401.149 356.98C405.819 359.057 409.296 362.416 411.336 367.069C414.294 373.815 414.198 380.599 410.844 387.205C408.46 391.902 404.641 395.065 399.712 396.91C399.415 397.022 399.12 397.138 398.83 397.367C407.717 399.718 416.639 401.919 425.98 399.82C425.99 400.137 425.975 406.966 425.999 410.161C426.001 410.424 425.999 410.947 425.999 410.947C425.999 410.947 425.582 411.056 425.266 411.132C421.837 411.954 418.379 412.14 414.862 411.907C408.924 411.513 403.214 409.977 397.459 408.65C394.153 407.887 390.835 407.159 387.428 407.099C386.166 407.077 384.9 407.316 383.636 407.438C383.446 407.456 383.256 407.484 382.974 407.518" fill="#E91D50"/>
</g>
<g filter="url(#filter1_d)">
<path fill-rule="evenodd" clip-rule="evenodd" d="M130.975 398.418C150.857 398.418 151.881 381.242 151.881 347C151.881 312.758 180.65 283.529 160.768 283.529C140.885 283.529 107 312.758 107 347C107 381.242 111.093 398.418 130.975 398.418Z" fill="#121BB4"/>
<path fill-rule="evenodd" clip-rule="evenodd" d="M173.5 223C161.626 223 152 232.626 152 244.5V265.5C152 276.566 160.36 285.679 171.109 286.868C171.111 286.92 171.114 286.971 171.117 287.022H200.117C204.701 282.544 200.209 253.992 196.762 241.29C195.212 230.939 186.283 223 175.5 223H173.5Z" fill="#191847"/>
<path fill-rule="evenodd" clip-rule="evenodd" d="M174.935 271.244C181.411 275.147 187.774 277.033 190.76 276.263C198.25 274.333 198.938 246.935 193.143 236.134C187.349 225.333 157.558 220.625 156.057 242.025C155.536 249.453 158.654 256.081 163.262 261.49L155 300H179L174.935 271.244Z" fill="#FFC0A5"/>
<path fill-rule="evenodd" clip-rule="evenodd" d="M152.881 242.15C153.578 241.461 154.252 240.795 154.921 240.198L154.889 239.421C154.889 239.421 162.421 224 174.001 224C185.571 224 189.23 229.379 192.34 233.951L192.349 233.963C190.722 239.545 185.819 241.804 180.274 244.358C177.887 245.457 175.381 246.612 172.966 248.11C172.02 247.341 170.814 246.88 169.5 246.88C166.462 246.88 164 249.343 164 252.38C164 255.418 166.462 257.88 169.5 257.88C169.584 257.88 169.667 257.879 169.75 257.875C170.856 269.753 170.413 283.317 167.117 286.537H138.117C137.285 272.073 141.026 267.947 144.85 263.731C148.447 259.764 152.117 255.717 152.117 242.903C152.375 242.651 152.63 242.399 152.881 242.15Z" fill="#191847"/>
<path fill-rule="evenodd" clip-rule="evenodd" d="M117.9 480.926C117.9 480.926 153.884 490.991 179.992 490.991C206.1 490.991 228.492 475.491 228.492 475.491C228.492 475.491 193.279 465.161 170.492 465.161C147.706 465.161 117.9 480.926 117.9 480.926Z" fill="#121BB4"/>
<path fill-rule="evenodd" clip-rule="evenodd" d="M200.759 500.662C200.528 500.315 200.333 499.936 200.178 499.527C196.971 491.047 145.609 399.564 140.492 382.838H198.319C202.209 395.555 219.719 475.358 222.184 491.28C229.959 516.395 245.968 597.733 248.011 603.368C250.161 609.296 238.065 615.471 234.841 608.184C229.712 596.588 217.491 564.503 212.05 544.912C206.948 526.546 202.794 510.023 200.759 500.662Z" fill="#FFC0A5"/>
<path fill-rule="evenodd" clip-rule="evenodd" d="M153.45 511.832C129.968 517.766 44.0765 528.496 38.1823 530.179C32.119 531.91 26.8026 519.412 34.2972 516.705C46.2224 512.397 79.0816 502.444 99.0043 498.382C115.029 495.115 129.652 492.449 139.469 490.888C138.637 463.311 134.835 397.132 137.327 382.838H188.493C186.103 396.545 165.903 496.556 162.148 506.567C160.957 510.14 157.401 511.72 153.45 511.832Z" fill="#FFC0A5"/>
<path fill-rule="evenodd" clip-rule="evenodd" d="M36.4236 515.912C36.7019 514.775 36.0106 513.604 34.8573 513.402C32.7535 513.033 29.6194 512.594 27.9482 512.888C25.2843 513.358 20.3303 515.147 20.3303 515.147C20.8752 518.237 30.1243 570.692 30.1243 570.692C30.1243 570.692 37.6639 571.595 37.4121 566.829C37.1603 562.064 37.0762 558.897 37.0762 558.897L44.0333 531.051C44.1698 530.505 43.8281 529.953 43.2779 529.832L38.9598 528.883C38.9598 528.883 36.1835 524.919 35.7074 522.22C35.4176 520.576 35.9571 517.818 36.4236 515.912Z" fill="#C5CFD6"/>
<path fill-rule="evenodd" clip-rule="evenodd" d="M233.942 606.122C232.87 605.651 231.597 606.128 231.198 607.229C230.469 609.236 229.492 612.247 229.492 613.944C229.492 616.649 230.394 621.838 230.394 621.838C233.532 621.838 286.795 621.838 286.795 621.838C286.795 621.838 288.994 614.57 284.257 613.99C279.521 613.411 276.387 612.944 276.387 612.944L250.172 601.257C249.658 601.027 249.055 601.268 248.841 601.789L247.156 605.877C247.156 605.877 242.771 607.923 240.029 607.923C238.36 607.923 235.738 606.912 233.942 606.122Z" fill="#C5CFD6"/>
<path fill-rule="evenodd" clip-rule="evenodd" d="M137.493 382.838C137.493 382.838 171.313 373.162 201.493 382.838C208.493 414.776 225.501 427.452 228.493 476.417C194.493 493.311 152.493 464.369 117.493 480.843C107.493 457.799 121.493 402.303 137.493 382.838Z" fill="#1F28CF"/>
<path fill-rule="evenodd" clip-rule="evenodd" d="M273.32 337.925L233.837 343.311L240.921 361L272.958 348.299C286.767 349.661 293.444 349.333 292.99 347.315C292.607 345.613 291.139 345.099 289.787 344.626C288.734 344.257 287.751 343.913 287.406 343.051C286.618 341.083 291.106 337.003 295.53 333.315C299.954 329.627 296.985 328.948 295.118 329.003C288.484 330.558 281.218 333.532 273.32 337.925ZM81.2352 434.908C84.1656 428.963 109.807 352.45 109.807 352.45L131.704 352.532C131.704 352.532 95.6878 433.583 94.1452 437.406C92.1412 442.372 95.5452 449.587 97.8533 454.48C98.2104 455.237 98.5413 455.938 98.8218 456.567C95.6191 458 94.0807 456.268 92.4587 454.442C90.6268 452.379 88.6884 450.197 84.1252 452.319C82.3622 453.14 80.6939 454.109 79.064 455.057C73.4341 458.329 68.2621 461.336 61.2263 456.994C60.1108 456.306 58.8885 453.715 61.8418 451.69C69.1996 446.645 79.8025 437.815 81.2352 434.908Z" fill="#FFC0A5"/>
<path fill-rule="evenodd" clip-rule="evenodd" d="M169.787 283L186.932 284.142C191.154 322.343 214.154 346.473 265.648 338.304L272.49 387.499C224.36 393.719 182.15 374.45 173.5 322.278C171.26 308.773 169.492 294.718 169.787 283Z" fill="#D3DEE6"/>
<path fill-rule="evenodd" clip-rule="evenodd" d="M84.2388 425C96.1425 361.664 121.267 312.664 159.613 278H161.258H161.314L161.328 278.016L187.305 283.965C187.305 315.169 194.247 338.485 200.921 360.9C203.803 370.58 206.635 380.093 208.837 390H138.681C137.693 401.351 137.086 413.018 136.769 425H84.2388Z" fill="#C5CFD6"/>
<path fill-rule="evenodd" clip-rule="evenodd" d="M139 390.741C141.012 367.631 144.605 345.831 150.544 325.339C149.243 347.253 148.881 374.439 153.259 390.741H139Z" fill="black" fill-opacity="0.1"/>
<path fill-rule="evenodd" clip-rule="evenodd" d="M145.579 291.132L153.353 283.568C153.353 283.568 158.877 305.205 159.241 317.871C159.605 330.536 159.666 332.765 154.228 348.92C148.79 365.075 141.355 371 141.355 371C141.355 371 147.408 342.257 148.289 325.604C149.169 308.951 145.579 291.132 145.579 291.132Z" fill="#1F28CF"/>
</g>
<defs>
<filter id="filter0_d" x="240.377" y="0.868896" width="369.81" height="631.131" filterUnits="userSpaceOnUse" color-interpolation-filters="sRGB">
<feFlood flood-opacity="0" result="BackgroundImageFix"/>
<feColorMatrix in="SourceAlpha" type="matrix" values="0 0 0 0 0 0 0 0 0 0 0 0 0 0 0 0 0 0 127 0"/>
<feOffset dy="2"/>
<feGaussianBlur stdDeviation="10"/>
<feColorMatrix type="matrix" values="0 0 0 0 0.129412 0 0 0 0 0.176471 0 0 0 0 0.372549 0 0 0 0.1 0"/>
<feBlend mode="normal" in2="BackgroundImageFix" result="effect1_dropShadow"/>
<feBlend mode="normal" in="SourceGraphic" in2="effect1_dropShadow" result="shape"/>
</filter>
<filter id="filter1_d" x="0.330292" y="205" width="317.507" height="438.838" filterUnits="userSpaceOnUse" color-interpolation-filters="sRGB">
<feFlood flood-opacity="0" result="BackgroundImageFix"/>
<feColorMatrix in="SourceAlpha" type="matrix" values="0 0 0 0 0 0 0 0 0 0 0 0 0 0 0 0 0 0 127 0"/>
<feOffset dy="2"/>
<feGaussianBlur stdDeviation="10"/>
<feColorMatrix type="matrix" values="0 0 0 0 0.129412 0 0 0 0 0.176471 0 0 0 0 0.372549 0 0 0 0.1 0"/>
<feBlend mode="normal" in2="BackgroundImageFix" result="effect1_dropShadow"/>
<feBlend mode="normal" in="SourceGraphic" in2="effect1_dropShadow" result="shape"/>
</filter>
</defs>
</svg>
