<svg width="13" height="20" viewBox="0 0 13 20" fill="none" xmlns="http://www.w3.org/2000/svg">
<path d="M10.625 0C11.1328 0 11.5625 0.195312 11.9531 0.546875C12.3047 0.9375 12.5 1.36719 12.5 1.875V18.125C12.5 18.6719 12.3047 19.1016 11.9531 19.4531C11.5625 19.8438 11.1328 20 10.625 20H1.875C1.32812 20 0.898438 19.8438 0.546875 19.4531C0.15625 19.1016 0 18.6719 0 18.125V1.875C0 1.36719 0.15625 0.9375 0.546875 0.546875C0.898438 0.195312 1.32812 0 1.875 0H10.625ZM6.25 18.75C6.5625 18.75 6.875 18.6328 7.10938 18.3984C7.34375 18.1641 7.5 17.8516 7.5 17.5C7.5 17.1875 7.34375 16.875 7.10938 16.6406C6.875 16.4062 6.5625 16.25 6.25 16.25C5.89844 16.25 5.58594 16.4062 5.35156 16.6406C5.11719 16.875 5 17.1875 5 17.5C5 17.8516 5.11719 18.1641 5.35156 18.3984C5.58594 18.6328 5.89844 18.75 6.25 18.75ZM10.625 14.5312V2.34375C10.625 2.22656 10.5469 2.10938 10.4688 2.03125C10.3906 1.95312 10.2734 1.875 10.1562 1.875H2.34375C2.1875 1.875 2.07031 1.95312 1.99219 2.03125C1.91406 2.10938 1.875 2.22656 1.875 2.34375V14.5312C1.875 14.6875 1.91406 14.8047 1.99219 14.8828C2.07031 14.9609 2.1875 15 2.34375 15H10.1562C10.2734 15 10.3906 14.9609 10.4688 14.8828C10.5469 14.8047 10.625 14.6875 10.625 14.5312Z" fill="#212D5F"/>
</svg>
