<svg width="82" height="95" viewBox="0 0 82 95" fill="none" xmlns="http://www.w3.org/2000/svg">
<path fill-rule="evenodd" clip-rule="evenodd" d="M41 92C63.6437 92 82 73.6437 82 51C82 28.3563 63.6437 10 41 10C18.3563 10 0 28.3563 0 51C0 73.6437 18.3563 92 41 92Z" fill="#DFEBFF"/>
<path d="M76 21.396C76 19.6935 74.9315 18.2433 73.4289 17.6685V1.42635C73.4289 0.638525 72.7887 0 72.0004 0C71.2113 0 70.5711 0.638525 70.5711 1.42635V17.6692C69.0685 18.244 68 19.6935 68 21.396C68 23.0985 69.0685 24.5481 70.5711 25.1228V29.5736C70.5711 30.3615 71.2113 31 72.0004 31C72.7887 31 73.4289 30.3615 73.4289 29.5736V25.1228C74.9315 24.5481 76 23.0985 76 21.396Z" fill="#FFD664"/>
<path d="M73.8464 18C74.208 18.6284 74.418 19.3556 74.418 20.1326C74.418 22.4993 72.4993 24.4188 70.1326 24.4188C69.3549 24.4188 68.6284 24.2088 68 23.8472C68.7396 25.1328 70.1241 26 71.7138 26C74.0813 26 76 24.0813 76 21.7146C76 20.1248 75.1328 18.7404 73.8464 18Z" fill="#F9C646"/>
<path d="M74.5705 0H4.42946C3.63992 0 3 0.60767 3 1.35743C3 2.10719 3.63992 2.71486 4.42946 2.71486H16.6278V20H62.3722V2.71486H74.5705C75.3601 2.71486 76 2.10719 76 1.35743C76 0.60767 75.3594 0 74.5705 0Z" fill="#636363"/>
<path d="M28.5297 64L12.2007 68.4577C5.58112 70.2649 1 76.1875 1 82.9392V93.1671C1 94.1795 1.83492 95 2.86509 95H77.1349C78.1651 95 79 94.1795 79 93.1671V82.9392C79 76.1875 74.4189 70.2649 67.7993 68.4577L51.4703 64L28.5297 64Z" fill="#DDF5FF"/>
<path d="M43.6767 78L46 88.9681L40 95L34 88.9681L36.3226 78H43.6767Z" fill="#FF6969"/>
<path d="M45 89.7185L43.0645 78H40L42.4536 93C43.7265 91.3596 45 89.7185 45 89.7185Z" fill="#EA4747"/>
<path d="M79 82.7305V93.1352C79 94.1652 78.1651 95 77.1349 95H40L51.2794 83.1493L57.0087 65L67.7985 67.9975C74.4189 69.8345 79 75.8608 79 82.7305Z" fill="#636363"/>
<path d="M67.1935 68.3395L66 68C69.206 70.8033 71.1748 74.9551 71.1748 79.4795V95H76.2006C77.1938 95 78 94.1758 78 93.1589V82.8855C78 76.1037 73.5801 70.1546 67.1935 68.3395Z" fill="#494949"/>
<path d="M12.2007 67.9967L22.9905 65L28.7206 83.1493L40 95H2.86509C1.83492 95 1 94.1652 1 93.1352V82.7298C1 75.8608 5.58112 69.8353 12.2007 67.9967Z" fill="#636363"/>
<path d="M48 57.4196L41 64L34 57.4196V47H48V57.4196Z" fill="#F9B3A7"/>
<path d="M57 20H62V28H57L57 20Z" fill="#212D5F"/>
<path d="M59.3582 1V12.6216C59.3582 14.6588 57.6417 16.3108 55.5249 16.3108H17V20H63V1H59.3582Z" fill="#494949"/>
<path d="M17 20H22V28H17V20Z" fill="#212D5F"/>
<path d="M39.2959 20H21.5918V26.1624H18.7668C16.686 26.1624 15 27.8349 15 29.8973V32.512C15 34.5745 16.686 36.2469 18.7668 36.2469H21.8172C23.1702 44.6105 30.4798 51 39.2959 51C49.0739 51 57 43.1409 57 33.4457V20L39.2959 20Z" fill="#FECCC1"/>
<path d="M60.2239 26.1624H57.3917V20H52.1053V33.4457C52.1053 42.252 45.5481 49.5439 37 50.8064C37.8627 50.9338 38.7449 51 39.6436 51C48.4817 51 55.8095 44.6105 57.1658 36.2469H60.2239C62.3098 36.2469 64 34.5752 64 32.512V29.898C64 27.8349 62.3098 26.1624 60.2239 26.1624Z" fill="#F9B3A7"/>
<path d="M39.5004 78H43.2012L47 73.5739L39.5004 66L32 73.5739L35.7988 78H39.5004Z" fill="#FF6969"/>
<path d="M40.3383 66L38 68.312L42.0129 72.2785C42.7516 73.0087 42.7941 74.1782 42.11 74.9578L39.4425 78H44.1191L48 73.5739L40.3383 66Z" fill="#EA4747"/>
<path d="M32.3636 73L40 65.7647L32.8594 59L28 63.7294L32.3636 73Z" fill="#C1E9F4"/>
<path d="M47.6362 73L40 65.7647L47.141 59L52 63.7294L47.6362 73Z" fill="#C1E9F4"/>
<path d="M65.9989 88.6188V94.875H63.123V88.6188C63.123 87.7836 63.7675 87.1053 64.561 87.1053C65.3545 87.1053 65.9989 87.7836 65.9989 88.6188Z" fill="#494949"/>
<path d="M14.04 94.875V88.6188C14.04 87.7836 14.6838 87.1053 15.478 87.1053C16.2715 87.1053 16.9159 87.7836 16.9159 88.6188V94.875H14.04Z" fill="#494949"/>
</svg>
