<svg width="107" height="89" viewBox="0 0 107 89" fill="none" xmlns="http://www.w3.org/2000/svg">
<path fill-rule="evenodd" clip-rule="evenodd" d="M75 80.8838C75 84.2608 72.2471 87 68.8515 87H12.1506C8.75426 87 6 84.2608 6 80.8838V6.11482C6 2.7357 8.75426 0 12.1506 0H68.8515C72.2471 0 75 2.7357 75 6.11482V80.8838Z" fill="#1F28CF"/>
<mask id="mask0" mask-type="alpha" maskUnits="userSpaceOnUse" x="6" y="0" width="69" height="88">
<path fill-rule="evenodd" clip-rule="evenodd" d="M12.7329 0.305206C9.38226 0.305206 6.66504 3.05276 6.66504 6.44495V81.5194C6.66504 84.9102 9.38226 87.6606 12.7329 87.6606H68.6712C72.0211 87.6606 74.737 84.9102 74.737 81.5194V6.44495C74.737 3.05276 72.0211 0.305206 68.6712 0.305206H12.7329Z" fill="white"/>
</mask>
<g mask="url(#mask0)">
<path fill-rule="evenodd" clip-rule="evenodd" d="M74.9578 -17.2708L-19.121 20.9771L-20.9102 16.4577L73.1562 -21.7958L74.9578 -17.2708Z" fill="#51BBB4"/>
</g>
<mask id="mask1" mask-type="alpha" maskUnits="userSpaceOnUse" x="6" y="0" width="69" height="88">
<path fill-rule="evenodd" clip-rule="evenodd" d="M12.7329 0.305206C9.38226 0.305206 6.66504 3.05276 6.66504 6.44495V81.5194C6.66504 84.9102 9.38226 87.6606 12.7329 87.6606H68.6712C72.0211 87.6606 74.737 84.9102 74.737 81.5194V6.44495C74.737 3.05276 72.0211 0.305206 68.6712 0.305206H12.7329Z" fill="white"/>
</mask>
<g mask="url(#mask1)">
<path fill-rule="evenodd" clip-rule="evenodd" d="M78.6872 -7.88858L-15.386 30.3635L-17.1807 25.8385L76.8884 -12.4066L78.6872 -7.88858Z" fill="#51BBB4"/>
</g>
<mask id="mask2" mask-type="alpha" maskUnits="userSpaceOnUse" x="6" y="0" width="69" height="88">
<path fill-rule="evenodd" clip-rule="evenodd" d="M12.7329 0.305206C9.38226 0.305206 6.66504 3.05276 6.66504 6.44495V81.5194C6.66504 84.9102 9.38226 87.6606 12.7329 87.6606H68.6712C72.0211 87.6606 74.737 84.9102 74.737 81.5194V6.44495C74.737 3.05276 72.0211 0.305206 68.6712 0.305206H12.7329Z" fill="white"/>
</mask>
<g mask="url(#mask2)">
<path fill-rule="evenodd" clip-rule="evenodd" d="M82.4066 1.5018L-11.6598 39.7469L-13.46 35.2261L80.6112 -3.02182L82.4066 1.5018Z" fill="#51BBB4"/>
</g>
<mask id="mask3" mask-type="alpha" maskUnits="userSpaceOnUse" x="6" y="0" width="69" height="88">
<path fill-rule="evenodd" clip-rule="evenodd" d="M12.7329 0.305206C9.38226 0.305206 6.66504 3.05276 6.66504 6.44495V81.5194C6.66504 84.9102 9.38226 87.6606 12.7329 87.6606H68.6712C72.0211 87.6606 74.737 84.9102 74.737 81.5194V6.44495C74.737 3.05276 72.0211 0.305206 68.6712 0.305206H12.7329Z" fill="white"/>
</mask>
<g mask="url(#mask3)">
<path fill-rule="evenodd" clip-rule="evenodd" d="M86.1302 10.8881L-7.93613 49.1388L-9.72461 44.6152L84.3362 6.3631L86.1302 10.8881Z" fill="#51BBB4"/>
</g>
<mask id="mask4" mask-type="alpha" maskUnits="userSpaceOnUse" x="6" y="0" width="69" height="88">
<path fill-rule="evenodd" clip-rule="evenodd" d="M12.7329 0.305206C9.38226 0.305206 6.66504 3.05276 6.66504 6.44495V81.5194C6.66504 84.9102 9.38226 87.6606 12.7329 87.6606H68.6712C72.0211 87.6606 74.737 84.9102 74.737 81.5194V6.44495C74.737 3.05276 72.0211 0.305206 68.6712 0.305206H12.7329Z" fill="white"/>
</mask>
<g mask="url(#mask4)">
<path fill-rule="evenodd" clip-rule="evenodd" d="M89.8617 20.2798L-4.21358 58.5277L-6.01172 54.0027L88.0601 15.7513L89.8617 20.2798Z" fill="#51BBB4"/>
</g>
<mask id="mask5" mask-type="alpha" maskUnits="userSpaceOnUse" x="6" y="0" width="69" height="88">
<path fill-rule="evenodd" clip-rule="evenodd" d="M12.7329 0.305206C9.38226 0.305206 6.66504 3.05276 6.66504 6.44495V81.5194C6.66504 84.9102 9.38226 87.6606 12.7329 87.6606H68.6712C72.0211 87.6606 74.737 84.9102 74.737 81.5194V6.44495C74.737 3.05276 72.0211 0.305206 68.6712 0.305206H12.7329Z" fill="white"/>
</mask>
<g mask="url(#mask5)">
<path fill-rule="evenodd" clip-rule="evenodd" d="M93.5872 29.6675L-0.489437 67.914L-2.2793 63.3904L91.787 25.1439L93.5872 29.6675Z" fill="#51BBB4"/>
</g>
<mask id="mask6" mask-type="alpha" maskUnits="userSpaceOnUse" x="6" y="0" width="69" height="88">
<path fill-rule="evenodd" clip-rule="evenodd" d="M12.7329 0.305206C9.38226 0.305206 6.66504 3.05276 6.66504 6.44495V81.5194C6.66504 84.9102 9.38226 87.6606 12.7329 87.6606H68.6712C72.0211 87.6606 74.737 84.9102 74.737 81.5194V6.44495C74.737 3.05276 72.0211 0.305206 68.6712 0.305206H12.7329Z" fill="white"/>
</mask>
<g mask="url(#mask6)">
<path fill-rule="evenodd" clip-rule="evenodd" d="M97.3033 39.0469L3.24662 77.2997L1.44434 72.7782L95.5079 34.5317L97.3033 39.0469Z" fill="#51BBB4"/>
</g>
<mask id="mask7" mask-type="alpha" maskUnits="userSpaceOnUse" x="6" y="0" width="69" height="88">
<path fill-rule="evenodd" clip-rule="evenodd" d="M12.7329 0.305206C9.38226 0.305206 6.66504 3.05276 6.66504 6.44495V81.5194C6.66504 84.9102 9.38226 87.6606 12.7329 87.6606H68.6712C72.0211 87.6606 74.737 84.9102 74.737 81.5194V6.44495C74.737 3.05276 72.0211 0.305206 68.6712 0.305206H12.7329Z" fill="white"/>
</mask>
<g mask="url(#mask7)">
<path fill-rule="evenodd" clip-rule="evenodd" d="M101.033 48.4387L6.9653 86.688L5.16992 82.1643L99.2431 43.9151L101.033 48.4387Z" fill="#51BBB4"/>
</g>
<mask id="mask8" mask-type="alpha" maskUnits="userSpaceOnUse" x="6" y="0" width="69" height="88">
<path fill-rule="evenodd" clip-rule="evenodd" d="M12.7329 0.305206C9.38226 0.305206 6.66504 3.05276 6.66504 6.44495V81.5194C6.66504 84.9102 9.38226 87.6606 12.7329 87.6606H68.6712C72.0211 87.6606 74.737 84.9102 74.737 81.5194V6.44495C74.737 3.05276 72.0211 0.305206 68.6712 0.305206H12.7329Z" fill="white"/>
</mask>
<g mask="url(#mask8)">
<path fill-rule="evenodd" clip-rule="evenodd" d="M104.755 57.8236L10.6897 96.0743L8.89844 91.5521L102.962 53.3028L104.755 57.8236Z" fill="#51BBB4"/>
</g>
<mask id="mask9" mask-type="alpha" maskUnits="userSpaceOnUse" x="6" y="0" width="69" height="88">
<path fill-rule="evenodd" clip-rule="evenodd" d="M12.7329 0.305206C9.38226 0.305206 6.66504 3.05276 6.66504 6.44495V81.5194C6.66504 84.9102 9.38226 87.6606 12.7329 87.6606H68.6712C72.0211 87.6606 74.737 84.9102 74.737 81.5194V6.44495C74.737 3.05276 72.0211 0.305206 68.6712 0.305206H12.7329Z" fill="white"/>
</mask>
<g mask="url(#mask9)">
<path fill-rule="evenodd" clip-rule="evenodd" d="M108.485 67.2099L14.4119 105.461L12.6221 100.933L106.684 62.6891L108.485 67.2099Z" fill="#51BBB4"/>
</g>
<path fill-rule="evenodd" clip-rule="evenodd" d="M63.8996 44.0321C63.8996 56.99 53.446 67.4922 40.55 67.4922C27.6533 67.4922 17.2012 56.99 17.2012 44.0321C17.2012 31.0714 27.6533 20.5685 40.55 20.5685C53.446 20.5685 63.8996 31.0714 63.8996 44.0321Z" fill="#DFD4C6"/>
<path fill-rule="evenodd" clip-rule="evenodd" d="M12.459 10.3723C12.459 11.9003 11.227 13.1369 9.70911 13.1369H2.76233C1.24441 13.1369 0.0117188 11.9003 0.0117188 10.3723C0.0117188 8.84558 1.24441 7.6062 2.76233 7.6062H9.70911C11.227 7.6062 12.459 8.84558 12.459 10.3723Z" fill="#DFD4C6"/>
<path fill-rule="evenodd" clip-rule="evenodd" d="M12.459 19.7354C12.459 21.2635 11.227 22.5001 9.70911 22.5001H2.76233C1.24441 22.5001 0.0117188 21.2635 0.0117188 19.7354C0.0117188 18.2087 1.24441 16.9707 2.76233 16.9707H9.70911C11.227 16.9707 12.459 18.2087 12.459 19.7354Z" fill="#DFD4C6"/>
<path fill-rule="evenodd" clip-rule="evenodd" d="M12.459 29.0986C12.459 30.6252 11.227 31.8632 9.70911 31.8632H2.76233C1.24441 31.8632 0.0117188 30.6252 0.0117188 29.0986C0.0117188 27.5705 1.24441 26.3339 2.76233 26.3339H9.70911C11.227 26.3339 12.459 27.5705 12.459 29.0986Z" fill="#DFD4C6"/>
<path fill-rule="evenodd" clip-rule="evenodd" d="M12.459 38.4618C12.459 39.9871 11.227 41.225 9.70911 41.225H2.76233C1.24441 41.225 0.0117188 39.9871 0.0117188 38.4618C0.0117188 36.9365 1.24441 35.6971 2.76233 35.6971H9.70911C11.227 35.6971 12.459 36.9365 12.459 38.4618Z" fill="#DFD4C6"/>
<path fill-rule="evenodd" clip-rule="evenodd" d="M12.459 47.8249C12.459 49.3516 11.227 50.5882 9.70911 50.5882H2.76233C1.24441 50.5882 0.0117188 49.3516 0.0117188 47.8249C0.0117188 46.2968 1.24441 45.0616 2.76233 45.0616H9.70911C11.227 45.0616 12.459 46.2968 12.459 47.8249Z" fill="#DFD4C6"/>
<path fill-rule="evenodd" clip-rule="evenodd" d="M12.459 57.1895C12.459 58.7133 11.227 59.9513 9.70911 59.9513H2.76233C1.24441 59.9513 0.0117188 58.7133 0.0117188 57.1895C0.0117188 55.6614 1.24441 54.4248 2.76233 54.4248H9.70911C11.227 54.4248 12.459 55.6614 12.459 57.1895Z" fill="#DFD4C6"/>
<path fill-rule="evenodd" clip-rule="evenodd" d="M12.459 66.5526C12.459 68.0779 11.227 69.3145 9.70911 69.3145H2.76233C1.24441 69.3145 0.0117188 68.0779 0.0117188 66.5526C0.0117188 65.0245 1.24441 63.7879 2.76233 63.7879H9.70911C11.227 63.7879 12.459 65.0245 12.459 66.5526Z" fill="#DFD4C6"/>
<path fill-rule="evenodd" clip-rule="evenodd" d="M12.459 75.913C12.459 77.4411 11.227 78.6777 9.70911 78.6777H2.76233C1.24441 78.6777 0.0117188 77.4411 0.0117188 75.913C0.0117188 74.3849 1.24441 73.1483 2.76233 73.1483H9.70911C11.227 73.1483 12.459 74.3849 12.459 75.913Z" fill="#DFD4C6"/>
<path fill-rule="evenodd" clip-rule="evenodd" d="M27.2314 42.5057C27.3823 42.2478 27.5368 41.994 27.6863 41.7354C27.7267 42.0332 27.7691 42.3323 27.8102 42.6259C27.6202 42.5889 27.4269 42.5442 27.2314 42.5057ZM41.6022 48.2056C41.4651 48.258 41.3253 48.3042 41.1882 48.3454C40.9176 46.9977 40.6429 45.6471 40.3702 44.2973C40.9392 44.3421 41.3211 44.6154 41.6418 45.4109C41.918 46.0924 42.3604 47.7344 41.6022 48.2056ZM42.6171 55.428C42.2908 53.8223 41.9702 52.2187 41.6446 50.6116C42.0982 50.5159 42.5628 50.4732 42.8265 50.7032C43.3322 51.1415 43.5667 51.9566 43.719 52.5745C43.8185 52.9869 44.1448 54.7674 43.6759 55.0826C43.3295 55.2301 42.9761 55.3378 42.6171 55.428ZM26.1879 46.9103C24.8766 46.551 25.4282 45.5325 25.9583 44.6615C26.7124 44.816 27.4609 44.974 28.2115 45.1327C28.4467 46.1931 28.6909 47.4017 27.454 47.1766C27.2029 47.127 26.9253 47.1668 26.6999 47.2843C26.5789 47.1137 26.4168 46.9732 26.1879 46.9103ZM59.9514 35.3567C59.8255 35.3337 59.6975 35.3092 59.5715 35.2847C59.0143 35.1799 58.5629 35.4364 58.3702 35.9698C58.1253 36.6471 58.942 37.0596 57.9848 36.2487C57.6557 35.9684 57.3253 35.6874 56.9976 35.4064C55.9242 34.4969 54.5559 34.1936 53.2022 33.9971C50.2936 33.5791 47.5194 34.7835 45.6703 37.0183C44.551 38.3702 44.0015 39.8382 43.8797 41.2936C43.8317 41.2908 43.7844 41.2838 43.7357 41.2838C40.8042 41.2034 37.5347 42.1506 34.4975 42.937C34.4842 42.8391 34.4738 42.7476 34.4613 42.6665C34.0682 40.0221 33.6759 37.3748 33.2794 34.7332C33.2355 34.4207 32.8961 34.1062 32.5983 34.0447C31.9027 33.9 31.207 33.7567 30.5149 33.6134C30.0835 33.5218 29.6425 33.6644 29.4136 34.0642C28.2262 36.1096 27.0429 38.1543 25.8575 40.1996C24.8237 41.9856 23.2509 46.1267 20.8328 45.7932C20.3333 45.7212 19.751 45.9051 19.63 46.479C19.6091 46.5796 19.5903 46.6838 19.5667 46.7845C19.4651 47.2801 19.7058 47.877 20.2505 47.9903C22.0349 48.3643 23.8192 48.7369 25.6042 49.1094C25.8575 49.1612 26.1322 49.1234 26.359 49.0032C26.4773 49.1807 26.6415 49.324 26.8731 49.373C29.5625 49.9357 32.2533 50.497 34.9434 51.0576C34.9851 51.4113 35.0234 51.7091 35.0644 51.9056C35.3545 53.3421 36.7896 56.6694 34.6742 57.1021C34.1253 57.214 33.8881 57.8144 33.991 58.3101C34.0084 58.41 34.03 58.5121 34.0536 58.6134C34.1629 59.1664 34.7611 59.3998 35.2557 59.2999C38.3444 58.6805 41.431 58.0521 44.5183 57.4314C48.2971 56.6051 51.6891 55.0253 50.4209 50.5201C50.3875 50.404 50.343 50.2985 50.3006 50.1894C50.5086 50.2551 50.711 50.3285 50.9218 50.3782C51.0095 50.3984 51.0909 50.4068 51.1688 50.4068C55.0519 50.8829 57.7761 49.3352 59.1987 45.5409C59.4004 45.0082 58.9788 44.5084 58.5197 44.3337C58.4147 44.2959 58.3103 44.2561 58.2067 44.2148C57.8366 44.0729 57.2613 44.2959 57.1013 44.6657C56.2359 46.6838 52.9733 50.4229 51.4268 46.1428C50.8286 44.4882 51.1959 42.491 51.5604 40.8469C51.7594 40.0479 52.0508 39.2825 52.4362 38.5506C53.2682 36.5192 54.6881 36.7198 56.6971 39.1595C57.063 40.194 57.1166 41.4544 57.294 42.5344C57.3413 42.8405 57.6717 43.1621 57.9743 43.2194C58.0815 43.2404 58.1893 43.2593 58.2978 43.2795C58.7855 43.3725 59.3942 43.153 59.4992 42.5945C59.8776 40.5862 60.2561 38.5737 60.6352 36.564C60.7256 36.0739 60.5044 35.4595 59.9514 35.3567Z" fill="#BEB5A9"/>
<path fill-rule="evenodd" clip-rule="evenodd" d="M26.8339 42.0715C26.9842 41.8136 27.1386 41.5557 27.2889 41.2998C27.3313 41.5976 27.3738 41.8926 27.4162 42.189C27.22 42.1477 27.0266 42.1114 26.8339 42.0715ZM41.204 47.7686C41.0677 47.8197 40.9272 47.8658 40.7887 47.9098C40.5181 46.5607 40.2454 45.2102 39.9727 43.8618C40.5383 43.9037 40.923 44.1798 41.2423 44.9753C41.5206 45.6583 41.9637 47.2996 41.204 47.7686ZM42.219 54.991C41.8941 53.386 41.5692 51.7818 41.2458 50.1747C41.6986 50.0803 42.164 50.0377 42.4284 50.2677C42.9362 50.7046 43.1686 51.5196 43.3188 52.1376C43.4218 52.55 43.7466 54.3318 43.2764 54.6457C42.9299 54.7946 42.5766 54.9001 42.219 54.991ZM25.7912 46.4733C24.4778 46.1126 25.0301 45.0955 25.5602 44.2232C26.3129 44.379 27.0642 44.5384 27.8162 44.6943C28.0458 45.7575 28.2899 46.9648 27.0566 46.7383C26.8033 46.69 26.5279 46.7313 26.3018 46.8487C26.1814 46.6781 26.0179 46.5362 25.7912 46.4733ZM59.5546 34.9191C59.428 34.8939 59.3007 34.8708 59.1713 34.8464C58.6169 34.7429 58.1647 34.9995 57.972 35.5342C57.7251 36.2102 58.5439 36.6226 57.5887 35.8117C57.2583 35.5307 56.9286 35.2504 56.5981 34.9694C55.5275 34.0586 54.1578 33.7566 52.8047 33.5616C49.8955 33.1428 47.1212 34.3466 45.2694 36.5814C44.1536 37.9333 43.6026 39.4013 43.4823 40.858C43.4336 40.858 43.3863 40.8468 43.3376 40.8454C40.4082 40.7651 37.1338 41.7164 34.0979 42.5014C34.0861 42.405 34.0771 42.3106 34.0632 42.2288C33.6701 39.5837 33.2764 36.9407 32.8819 34.2934C32.8374 33.9838 32.4979 33.6706 32.2009 33.6105C31.5059 33.4644 30.8145 33.319 30.1188 33.1736C29.6854 33.0855 29.2423 33.2274 29.0155 33.6273C27.8287 35.6726 26.6433 37.7187 25.4593 39.7641C24.427 41.5515 22.8534 45.6939 20.4353 45.3549C19.9366 45.2857 19.3508 45.4695 19.2326 46.042C19.2124 46.1427 19.1908 46.2441 19.1665 46.3461C19.067 46.8417 19.3077 47.4401 19.8517 47.5547C21.6374 47.9273 23.4232 48.2999 25.2068 48.6711C25.4593 48.7249 25.7327 48.6851 25.9616 48.5676C26.0792 48.7438 26.244 48.8885 26.4743 48.936C29.1658 49.4973 31.8559 50.0587 34.5452 50.6221C34.5898 50.9744 34.6266 51.2736 34.6663 51.4686C34.9585 52.9051 36.3908 56.2325 34.276 56.6638C33.7286 56.7756 33.4934 57.3775 33.5908 57.8731C33.6131 57.9745 33.6346 58.0765 33.6527 58.1793C33.7654 58.7294 34.3644 58.9629 34.8548 58.8629C37.9435 58.2408 41.0329 57.6166 44.1216 56.993C47.8969 56.1696 51.2924 54.5884 50.0221 50.0859C49.988 49.9657 49.9456 49.8622 49.9025 49.7525C50.1077 49.8168 50.3129 49.8923 50.5265 49.9398C50.612 49.9615 50.6948 49.9671 50.7713 49.9685C54.6538 50.4459 57.3793 48.8997 58.8006 45.1081C59.003 44.5699 58.5786 44.0729 58.1202 43.8967C58.0138 43.859 57.9101 43.8177 57.8058 43.7779C57.4392 43.6374 56.8639 43.859 56.7032 44.2288C55.8385 46.2468 52.5752 49.986 51.0294 45.7044C50.4305 44.0512 50.7978 42.0555 51.1637 40.41C51.3606 39.6103 51.6513 38.8441 52.036 38.115C52.8673 36.0809 54.2899 36.2843 56.299 38.7211C56.6649 39.7571 56.7192 41.0202 56.8931 42.0974C56.9432 42.405 57.2764 42.7265 57.5776 42.7832C57.6826 42.8048 57.7919 42.8223 57.8997 42.844C58.3866 42.9355 58.9939 42.7147 59.1025 42.1561C59.4802 40.1478 59.8559 38.1381 60.2343 36.1284C60.3282 35.6356 60.1056 35.0239 59.5546 34.9191Z" fill="#FEFEFE"/>
<path fill-rule="evenodd" clip-rule="evenodd" d="M50.7855 48.9949C48.6061 48.5811 46.9448 47.564 45.8019 45.9437C44.6575 44.3212 44.2798 42.4744 44.6728 40.4018C45.0722 38.276 46.0885 36.6815 47.7247 35.6134C49.3629 34.5488 51.2774 34.2252 53.4659 34.6418C54.4022 34.8179 55.1842 35.1318 55.8095 35.5813L57.6043 37.1087C57.9848 37.18 58.2624 37.0975 58.4363 36.8605C58.6137 36.6228 58.7709 36.2691 58.9149 35.7952L59.2948 35.8665L58.1581 41.897L57.8367 41.8355C57.5688 40.1795 57.3727 39.0541 57.2419 38.4634C57.1104 37.8734 56.821 37.2687 56.3716 36.6571C55.9243 36.044 55.2753 35.6575 54.4252 35.496C53.3261 35.2863 52.3918 35.7546 51.6252 36.901C50.8586 38.0468 50.3188 39.4532 50.0064 41.1183C49.669 42.9113 49.692 44.5275 50.0864 45.9682C50.4774 47.4033 51.2927 48.24 52.5358 48.4777C53.6871 48.6944 54.6902 48.4518 55.5438 47.743C56.3981 47.0384 57.0652 46.0325 57.5466 44.7274L57.8589 44.8448C57.3956 46.3379 56.5796 47.4948 55.4172 48.3134C54.2499 49.1327 52.7083 49.3591 50.7855 48.9949Z" fill="#00A09A"/>
<path fill-rule="evenodd" clip-rule="evenodd" d="M44.2577 55.5892C44.6603 55.4059 44.8865 54.9488 44.9285 54.2217C44.9733 53.4931 44.9171 52.7499 44.7592 51.9956C44.6191 51.3177 44.3359 50.6843 43.9106 50.0953C43.4859 49.5022 43.0598 49.2244 42.638 49.257C42.2155 49.2883 41.889 49.3237 41.6613 49.3612C41.4344 49.398 41.2637 49.4293 41.147 49.455L40.5054 49.58L41.8961 56.2553L42.1258 56.2095C42.5918 56.1185 42.9773 56.0303 43.2853 55.9511C43.5905 55.8726 43.9134 55.7517 44.2577 55.5892ZM42.0974 48.7931C42.6181 48.5826 42.9183 48.2041 42.9908 47.6505C43.0627 47.0956 43.0193 46.4233 42.8521 45.628C42.7198 44.9876 42.4708 44.3896 42.1073 43.8389C41.7446 43.2867 41.3747 43.0019 41.0019 42.9846C40.6285 42.9679 40.2892 42.9804 39.984 43.029C39.6767 43.0762 39.4085 43.1158 39.1717 43.1499L40.44 49.2584C40.6868 49.2091 40.9336 49.1577 41.1862 49.1008C41.4358 49.0452 41.7374 48.941 42.0974 48.7931ZM44.3502 56.1428L34.8759 58L34.8147 57.6958L35.4123 57.5763C35.6762 57.4846 35.9337 57.3999 36.1855 57.3159C36.4387 57.2332 36.6237 57.0992 36.7382 56.9116C36.8527 56.7262 36.8918 56.4262 36.8449 56.0164L36.7026 55.1405L34.8453 46.1899L34.6241 45.3287C34.501 44.9335 34.3453 44.6688 34.1561 44.5362C33.9683 44.4007 33.7307 44.3452 33.444 44.3612C33.1595 44.3799 32.9034 44.407 32.6765 44.4466C32.4481 44.4848 32.2426 44.5146 32.0583 44.5376L32 44.2347L40.9422 42.4456C42.1543 42.2046 43.116 42.0594 43.8145 42.0129C44.5173 41.9657 45.1319 42.0483 45.6512 42.2601C46.1719 42.4713 46.6115 42.7755 46.9629 43.1714C47.3129 43.5687 47.5512 44.0764 47.6813 44.6925C47.8713 45.6148 47.734 46.3309 47.2702 46.8435C46.8014 47.3554 46.3135 47.7311 45.7885 47.9721C45.2692 48.2138 44.6091 48.4118 43.8074 48.5715L43.8394 48.7236C44.7812 48.5354 45.494 48.4291 45.9805 48.4076C46.4664 48.3833 46.9657 48.4187 47.4751 48.5132C47.9865 48.6069 48.4752 48.8827 48.9454 49.3313C49.4163 49.7821 49.7371 50.4155 49.9064 51.2309C50.0693 52.0255 50.0202 52.7228 49.7542 53.3236C49.4896 53.9272 49.0955 54.4147 48.5662 54.7877C48.0384 55.1621 47.3605 55.4482 46.5283 55.6517C45.6946 55.8552 44.9705 56.0205 44.3502 56.1428Z" fill="#F7AE58"/>
<path fill-rule="evenodd" clip-rule="evenodd" d="M28.6271 43.4595L27.9155 38.3539L25.2872 42.7669L28.6271 43.4595ZM25.0677 43.1448L24.0522 45.0287C23.8264 45.467 23.6836 45.8208 23.6296 46.09C23.5672 46.3884 23.6005 46.6093 23.7227 46.755C23.847 46.902 24.0209 47.0228 24.2439 47.1165C24.4648 47.2096 24.6821 47.2835 24.9016 47.3403C25.1182 47.4014 25.3262 47.4582 25.5293 47.5137L25.4647 47.8234L20 46.6868L20.0632 46.3785L21.225 46.5369C21.6625 46.5774 22.0098 46.5369 22.2619 46.4218C22.5168 46.3081 22.7235 46.1383 22.8847 45.9153C23.0473 45.6944 23.227 45.4294 23.4351 45.1218C23.641 44.8163 23.8157 44.5364 23.9641 44.285L29.9466 34L32.0728 34.4397L33.8518 46.3401L34.1394 47.9733C34.2374 48.4087 34.3609 48.7334 34.5122 48.9486C34.6621 49.1575 34.9014 49.3244 35.2252 49.448L36 49.6881L35.9354 50L26.7586 48.0912L26.824 47.7829C26.9781 47.8149 27.1173 47.8411 27.2401 47.8589C27.3637 47.8788 27.5938 47.8937 27.9261 47.9122C28.2571 47.9257 28.5035 47.9051 28.6633 47.8525C28.821 47.7992 28.9317 47.6358 28.9864 47.3652C29.0454 47.0824 29.039 46.6576 28.9708 46.09L28.6967 43.8992L25.0677 43.1448Z" fill="#FF4133"/>
<path fill-rule="evenodd" clip-rule="evenodd" d="M82.532 40.9884C82.532 40.9884 83.264 42.7111 83.8612 45.4068C86.1863 39.6311 90.4031 42.1973 92.035 42.1C93.8217 41.9922 94.7278 40.469 94.7278 40.469C94.7278 40.469 96.0383 44.4541 92.6889 47.1092C90.1771 49.1014 86.131 48.1662 84.2669 47.574C84.5095 49.1616 84.6595 50.9494 84.6097 52.8443L82.906 52.6462C82.906 52.6462 82.4567 46.2244 78.1797 44.088C78.1797 44.088 80.5774 41.225 82.532 40.9884Z" fill="#A89F53"/>
<path fill-rule="evenodd" clip-rule="evenodd" d="M83.4818 52.3869C84.3202 52.3099 85.2374 51.7058 86.8077 50.5669C91.919 46.8632 109.271 51.3341 106.067 68.3378C102.863 85.317 88.8066 91.0955 83.4818 87.2882C78.1549 91.0955 64.0984 85.317 60.8955 68.3378C57.6919 51.3341 75.0446 46.8632 80.1552 50.5669C81.7248 51.7058 82.6441 52.3099 83.4818 52.3869Z" fill="#FF4133"/>
<path fill-rule="evenodd" clip-rule="evenodd" d="M100.008 59.0996C99.0593 57.7339 97.858 56.6895 96.5938 55.9069H101.351C101.827 56.3913 102.277 56.9149 102.685 57.5029C104.855 60.6186 105.373 64.6023 104.185 69.0256C102.395 75.6945 99.8755 79.058 93.1504 83.3126C93.1504 83.3126 98.9805 77.3997 101.357 69.7459C102.62 65.6824 101.997 61.9528 100.008 59.0996Z" fill="#FEFEFE"/>
</svg>
