<svg width="89" height="89" viewBox="0 0 89 89" fill="none" xmlns="http://www.w3.org/2000/svg">
<path fill-rule="evenodd" clip-rule="evenodd" d="M44 87C66.6437 87 85 68.6437 85 46C85 23.3563 66.6437 5 44 5C21.3563 5 3 23.3563 3 46C3 68.6437 21.3563 87 44 87Z" fill="#DFEBFF"/>
<path d="M74 31V49.0833L44.9124 62L16 49.0833V31H74Z" fill="#5A5A5A"/>
<path d="M73 31V49.0833L44 62V31H73Z" fill="#444444"/>
<path d="M84 24V66H79V26.625L84 24Z" fill="#FDBF00"/>
<path d="M84 24V66H81V25.3125L84 24Z" fill="#FF9F00"/>
<path d="M81 62L73 69.7241V89H89V69.7241L81 62Z" fill="#FFD400"/>
<path d="M89 69.7241V89H81V62L89 69.7241Z" fill="#FDBF00"/>
<path d="M89 23.5867L44.5 47L0 23.5867L44.5 0L89 23.5867Z" fill="#6E6E6E"/>
<path d="M88 23.5867L44 47V0L88 23.5867Z" fill="#5A5A5A"/>
<path d="M44.5 16C38.6197 16 34 19.5201 34 24C34 28.4799 38.6197 32 44.5 32C50.3803 32 55 28.4799 55 24C55 19.5201 50.3803 16 44.5 16Z" fill="#FFD400"/>
<path d="M54 24C54 28.4799 49.6003 32 44 32V16C49.6003 16 54 19.5201 54 24Z" fill="#FDBF00"/>
</svg>
