<svg width="101" height="88" viewBox="0 0 101 88" fill="none" xmlns="http://www.w3.org/2000/svg">
<path fill-rule="evenodd" clip-rule="evenodd" d="M37 28.9186L101 46L77.4203 5L37 28.9186ZM56.4197 26.399L74.3846 15.7685L84.8642 33.9931L56.4197 26.399Z" fill="#1F28CF"/>
<path fill-rule="evenodd" clip-rule="evenodd" d="M75.3219 7L77 5.72074L76.6781 5L75 6.27757L75.3219 7Z" fill="#DFD4C6"/>
<path fill-rule="evenodd" clip-rule="evenodd" d="M77.2402 7L78 6.47948L77.7608 6L77 6.51939L77.2402 7Z" fill="#DFD4C6"/>
<path fill-rule="evenodd" clip-rule="evenodd" d="M77.2404 8L78 7.48115L77.7606 7L77 7.51941L77.2404 8Z" fill="#DFD4C6"/>
<path fill-rule="evenodd" clip-rule="evenodd" d="M78.2399 9L79 8.48061L78.761 8L78 8.51939L78.2399 9Z" fill="#DFD4C6"/>
<path fill-rule="evenodd" clip-rule="evenodd" d="M78.2394 10L79 9.48061L78.7606 9L78 9.51996L78.2394 10Z" fill="#DFD4C6"/>
<path fill-rule="evenodd" clip-rule="evenodd" d="M78.3228 12L80 10.7207L79.6779 10L78 11.2801L78.3228 12Z" fill="#DFD4C6"/>
<path fill-rule="evenodd" clip-rule="evenodd" d="M80.2393 12L81 11.4812L80.7612 11L80 11.5199L80.2393 12Z" fill="#DFD4C6"/>
<path fill-rule="evenodd" clip-rule="evenodd" d="M80.2402 13L81 12.4801L80.7613 12L80 12.5188L80.2402 13Z" fill="#DFD4C6"/>
<path fill-rule="evenodd" clip-rule="evenodd" d="M81.2394 14L82 13.4812L81.7601 13L81 13.5199L81.2394 14Z" fill="#DFD4C6"/>
<path fill-rule="evenodd" clip-rule="evenodd" d="M81.2409 15L82 14.4789L81.761 14L81 14.5194L81.2409 15Z" fill="#DFD4C6"/>
<path fill-rule="evenodd" clip-rule="evenodd" d="M81.3234 17L83 15.7218L82.6766 15L81 16.2782L81.3234 17Z" fill="#DFD4C6"/>
<path fill-rule="evenodd" clip-rule="evenodd" d="M82.2399 17L83 16.4801L82.7606 16L82 16.5199L82.2399 17Z" fill="#DFD4C6"/>
<path fill-rule="evenodd" clip-rule="evenodd" d="M83.2388 18L84 17.4795L83.7612 17L83 17.52L83.2388 18Z" fill="#DFD4C6"/>
<path fill-rule="evenodd" clip-rule="evenodd" d="M84.2392 19L85 18.4789L84.7613 18L84 18.5194L84.2392 19Z" fill="#DFD4C6"/>
<path fill-rule="evenodd" clip-rule="evenodd" d="M84.2394 20L85 19.4806L84.7601 19L84 19.5194L84.2394 20Z" fill="#DFD4C6"/>
<path fill-rule="evenodd" clip-rule="evenodd" d="M84.3226 22L86 20.7207L85.6781 20L84 21.2784L84.3226 22Z" fill="#DFD4C6"/>
<path fill-rule="evenodd" clip-rule="evenodd" d="M85.2392 22L86 21.4806L85.7598 21L85 21.52L85.2392 22Z" fill="#DFD4C6"/>
<path fill-rule="evenodd" clip-rule="evenodd" d="M86.2403 23L87 22.48L86.7607 22L86 22.5189L86.2403 23Z" fill="#DFD4C6"/>
<path fill-rule="evenodd" clip-rule="evenodd" d="M86.2392 24L87 23.4811L86.7608 23L86 23.5194L86.2392 24Z" fill="#DFD4C6"/>
<path fill-rule="evenodd" clip-rule="evenodd" d="M87.2398 25L88 24.4795L87.7607 24L87 24.5183L87.2398 25Z" fill="#DFD4C6"/>
<path fill-rule="evenodd" clip-rule="evenodd" d="M87.3225 27L89 25.7218L88.6763 25L87 26.2765L87.3225 27Z" fill="#DFD4C6"/>
<path fill-rule="evenodd" clip-rule="evenodd" d="M88.2381 27L89 26.4789L88.7614 26L88 26.5189L88.2381 27Z" fill="#DFD4C6"/>
<path fill-rule="evenodd" clip-rule="evenodd" d="M89.2399 28L90 27.4812L89.7601 27L89 27.5199L89.2399 28Z" fill="#DFD4C6"/>
<path fill-rule="evenodd" clip-rule="evenodd" d="M89.2385 29L90 28.48L89.7606 28L89 28.5189L89.2385 29Z" fill="#DFD4C6"/>
<path fill-rule="evenodd" clip-rule="evenodd" d="M90.2407 30L91 29.4806L90.7603 29L90 29.52L90.2407 30Z" fill="#DFD4C6"/>
<path fill-rule="evenodd" clip-rule="evenodd" d="M90.3234 32L92 30.7207L91.6792 30L90 31.2776L90.3234 32Z" fill="#DFD4C6"/>
<path fill-rule="evenodd" clip-rule="evenodd" d="M91.2392 32L92 31.4811L91.7608 31L91 31.5205L91.2392 32Z" fill="#DFD4C6"/>
<path fill-rule="evenodd" clip-rule="evenodd" d="M92.2392 33L93 32.4801L92.7608 32L92 32.5188L92.2392 33Z" fill="#DFD4C6"/>
<path fill-rule="evenodd" clip-rule="evenodd" d="M92.2399 34L93 33.4823L92.7601 33L92 33.5205L92.2399 34Z" fill="#DFD4C6"/>
<path fill-rule="evenodd" clip-rule="evenodd" d="M93.2386 35L94 34.4801L93.76 34L93 34.5199L93.2386 35Z" fill="#DFD4C6"/>
<path fill-rule="evenodd" clip-rule="evenodd" d="M93.3219 37L95 35.7218L94.6774 35L93 36.2765L93.3219 37Z" fill="#DFD4C6"/>
<path fill-rule="evenodd" clip-rule="evenodd" d="M94.2387 37L95 36.4795L94.7618 36L94 36.5183L94.2387 37Z" fill="#DFD4C6"/>
<path fill-rule="evenodd" clip-rule="evenodd" d="M94.2381 38L95 37.4806L94.7609 37L94 37.5211L94.2381 38Z" fill="#DFD4C6"/>
<path fill-rule="evenodd" clip-rule="evenodd" d="M95.2392 39L96 38.4801L95.7593 38L95 38.5199L95.2392 39Z" fill="#DFD4C6"/>
<path fill-rule="evenodd" clip-rule="evenodd" d="M96.2399 40L97 39.4806L96.7606 39L96 39.52L96.2399 40Z" fill="#DFD4C6"/>
<path fill-rule="evenodd" clip-rule="evenodd" d="M95.3234 42L97 40.7218L96.6766 40L95 41.2782L95.3234 42Z" fill="#DFD4C6"/>
<path fill-rule="evenodd" clip-rule="evenodd" d="M97.2399 42L98 41.4807L97.7606 41L97 41.5205L97.2399 42Z" fill="#DFD4C6"/>
<path fill-rule="evenodd" clip-rule="evenodd" d="M97.2387 43L98 42.4801L97.7608 42L97 42.5199L97.2387 43Z" fill="#DFD4C6"/>
<path fill-rule="evenodd" clip-rule="evenodd" d="M98.2383 44L99 43.4806L98.7617 43L98 43.52L98.2383 44Z" fill="#DFD4C6"/>
<path fill-rule="evenodd" clip-rule="evenodd" d="M98.2387 45L99 44.4789L98.7608 44L98 44.5194L98.2387 45Z" fill="#DFD4C6"/>
<path fill-rule="evenodd" clip-rule="evenodd" d="M74.0704 75.6378C74.0704 78.7303 71.5657 81.235 68.4787 81.235H63.8222C60.7325 81.235 58.2324 78.7303 58.2324 75.6378V59.0787C58.2324 55.9862 60.7325 53.4802 63.8222 53.4802H68.4787C71.5657 53.4802 74.0704 55.9862 74.0704 59.0787V75.6378Z" fill="#FF4133"/>
<path fill-rule="evenodd" clip-rule="evenodd" d="M63.8222 53.48C60.7325 53.48 58.2324 55.9861 58.2324 59.0785V61.1774H74.0704V59.0785C74.0704 55.9861 71.5657 53.48 68.4787 53.48H63.8222Z" fill="#B5173E"/>
<path fill-rule="evenodd" clip-rule="evenodd" d="M64.5762 62.8241H74.0997V60.5204H64.5762V62.8241Z" fill="#EEEBC9"/>
<path fill-rule="evenodd" clip-rule="evenodd" d="M65.3375 61.907H65.3355L65.0155 61.9031C64.925 61.9018 64.8555 61.8302 64.8555 61.7428C64.8587 61.6516 64.923 61.5721 65.0194 61.5813L65.3375 61.5865C65.428 61.5879 65.4989 61.6594 65.4989 61.7494C65.4982 61.8368 65.4247 61.907 65.3375 61.907Z" fill="#A89F53"/>
<path fill-rule="evenodd" clip-rule="evenodd" d="M66.5986 61.9224H66.5953L65.9637 61.9146C65.8765 61.9146 65.8044 61.8417 65.8057 61.7517C65.8057 61.6644 65.8745 61.5941 65.9683 61.5928L66.5986 61.602C66.6858 61.602 66.7593 61.6749 66.7567 61.7635C66.7567 61.8535 66.6839 61.9224 66.5986 61.9224ZM67.8545 61.9356L67.223 61.929C67.1351 61.9264 67.0642 61.8541 67.0656 61.7661C67.0688 61.6775 67.1351 61.5941 67.2282 61.6079L67.8572 61.6144C67.947 61.6158 68.0152 61.688 68.0152 61.7773C68.0152 61.866 67.9444 61.9356 67.8545 61.9356ZM69.1157 61.9507H69.1144L68.4841 61.9441C68.395 61.9441 68.3248 61.8673 68.3248 61.7826C68.3248 61.6913 68.395 61.6184 68.4874 61.6236L69.1164 61.6289C69.2062 61.6302 69.2771 61.7031 69.2771 61.7918C69.2738 61.8791 69.2036 61.9507 69.1157 61.9507ZM70.3756 61.9645H70.373L69.7427 61.9586C69.6555 61.9573 69.5833 61.885 69.5853 61.7957C69.5853 61.707 69.6555 61.6374 69.748 61.6374L70.3776 61.6453C70.4648 61.6453 70.5369 61.7182 70.5369 61.8069C70.533 61.8942 70.4615 61.9645 70.3756 61.9645Z" fill="#A89F53"/>
<path fill-rule="evenodd" clip-rule="evenodd" d="M71.3265 61.9776H71.3245L71.0025 61.9723C70.9146 61.971 70.8438 61.8981 70.8438 61.8094C70.847 61.7208 70.9165 61.6374 71.0077 61.6505L71.3291 61.6531C71.4163 61.6571 71.4884 61.7287 71.4884 61.8173C71.4852 61.906 71.4124 61.9776 71.3265 61.9776Z" fill="#A89F53"/>
<path fill-rule="evenodd" clip-rule="evenodd" d="M72.4391 65.6126C72.4391 66.2871 71.8935 66.8348 71.2192 66.8348C70.5431 66.8348 69.9961 66.2871 69.9961 65.6126V62.1557C69.9961 61.4812 70.5431 60.9335 71.2192 60.9335C71.8935 60.9335 72.4391 61.4812 72.4391 62.1557V65.6126Z" fill="#B5173E"/>
<path fill-rule="evenodd" clip-rule="evenodd" d="M0.0292969 75.6378C0.0292969 78.7303 2.53397 81.235 5.62168 81.235H10.2808C13.3665 81.235 15.8673 78.7303 15.8673 75.6378V59.0787C15.8673 55.9862 13.3665 53.4802 10.2808 53.4802H5.62168C2.53397 53.4802 0.0292969 55.9862 0.0292969 59.0787V75.6378Z" fill="#FF4133"/>
<path fill-rule="evenodd" clip-rule="evenodd" d="M5.62168 53.48H10.2808C13.3665 53.48 15.8673 55.9861 15.8673 59.0785V61.1774H0.0292969V59.0785C0.0292969 55.9861 2.532 53.48 5.62168 53.48Z" fill="#B5173E"/>
<path fill-rule="evenodd" clip-rule="evenodd" d="M0 62.8241H9.52089V60.5204H0V62.8241Z" fill="#EEEBC9"/>
<path fill-rule="evenodd" clip-rule="evenodd" d="M8.7616 61.907C8.6711 61.907 8.60223 61.8368 8.59961 61.7494C8.59961 61.6594 8.6711 61.5879 8.75832 61.5865L9.081 61.5813C9.16954 61.5721 9.24234 61.6516 9.24365 61.7428C9.24627 61.8302 9.17478 61.9018 9.08559 61.9031L8.76357 61.907H8.7616Z" fill="#A89F53"/>
<path fill-rule="evenodd" clip-rule="evenodd" d="M7.50446 61.9224C7.41461 61.9224 7.34181 61.8535 7.34181 61.7635C7.3405 61.6749 7.41264 61.602 7.50184 61.602L8.13013 61.5928C8.21933 61.5941 8.29082 61.6644 8.29082 61.7517C8.29344 61.8417 8.22195 61.9146 8.13604 61.9146L7.50446 61.9224ZM6.24393 61.9356C6.15539 61.9356 6.08324 61.866 6.08193 61.7773C6.08193 61.688 6.15276 61.6158 6.23999 61.6144L6.87157 61.6079C6.95617 61.5941 7.03028 61.6775 7.03028 61.7661C7.03422 61.8541 6.96404 61.9264 6.87485 61.929L6.24655 61.9356H6.24393ZM4.98339 61.9507C4.89748 61.9507 4.82206 61.8791 4.82206 61.7918C4.82206 61.7031 4.89158 61.6302 4.98143 61.6289L5.61235 61.6236C5.69564 61.6184 5.77369 61.6913 5.77369 61.7826C5.77369 61.8673 5.70351 61.9441 5.61497 61.9441L4.98602 61.9507H4.98339ZM3.72286 61.9645C3.6376 61.9645 3.56546 61.8942 3.56152 61.8069C3.56152 61.7182 3.63301 61.6453 3.72286 61.6453L4.35182 61.6374C4.43576 61.6374 4.51381 61.707 4.51446 61.7957C4.51446 61.885 4.44298 61.9573 4.35444 61.9586L3.7268 61.9645H3.72286Z" fill="#A89F53"/>
<path fill-rule="evenodd" clip-rule="evenodd" d="M2.77232 61.9776C2.6864 61.9776 2.61426 61.906 2.61426 61.8173C2.61426 61.7287 2.68443 61.6571 2.77232 61.6531L3.09171 61.6505C3.17566 61.6374 3.25305 61.7208 3.25567 61.8094C3.25567 61.8981 3.18681 61.971 3.09761 61.9723L2.7756 61.9776H2.77232Z" fill="#A89F53"/>
<path fill-rule="evenodd" clip-rule="evenodd" d="M1.66113 65.6126C1.66113 66.2871 2.2068 66.8348 2.88035 66.8348C3.55587 66.8348 4.1035 66.2871 4.1035 65.6126V62.1557C4.1035 61.4812 3.55587 60.9335 2.88035 60.9335C2.2068 60.9335 1.66113 61.4812 1.66113 62.1557V65.6126Z" fill="#B5173E"/>
<path fill-rule="evenodd" clip-rule="evenodd" d="M22.7301 9.82118C24.228 6.34649 30.1687 2.16781 37.0354 2.16781C43.8988 2.16781 49.8414 6.34649 51.3374 9.82118H54.5779C53.2872 4.51885 46.0453 0.578552 37.0354 0.578552C28.0254 0.578552 20.7849 4.51885 19.4922 9.82118H22.7301Z" fill="#B5173E"/>
<path fill-rule="evenodd" clip-rule="evenodd" d="M64.568 82.1959C64.568 85.4014 61.9715 88 58.7703 88H15.2977C12.0952 88 9.5 85.4014 9.5 82.1959V20.594C9.5 10.7971 18.4123 9.31946 21.6148 9.31946H52.8277C56.0289 9.31946 64.568 11.4978 64.568 20.594V82.1959Z" fill="#FF4133"/>
<path fill-rule="evenodd" clip-rule="evenodd" d="M58.272 76.4638C58.272 79.2417 56.0224 81.4942 53.2509 81.4942H20.8161C18.0451 81.4942 15.793 79.2417 15.793 76.4638V62.2176C15.793 59.4404 18.0451 57.1865 20.8161 57.1865H53.2509C56.0224 57.1865 58.272 59.4404 58.272 62.2176V76.4638Z" fill="#EA3663"/>
<path fill-rule="evenodd" clip-rule="evenodd" d="M10.8301 85.9362C11.6551 86.9121 12.7911 87.6154 14.0929 87.882V11.4311C12.8265 12.2401 11.6728 13.3434 10.8301 14.8401V85.9362Z" fill="#B5173E"/>
<path fill-rule="evenodd" clip-rule="evenodd" d="M12.5357 13.9616H12.5331C12.4445 13.9616 12.375 13.89 12.375 13.8027V13.4809C12.375 13.3922 12.4471 13.3187 12.5357 13.3187C12.6236 13.3187 12.6931 13.3922 12.6931 13.4809V13.8027C12.6931 13.89 12.6236 13.9616 12.5357 13.9616Z" fill="#EEEBC9"/>
<path fill-rule="evenodd" clip-rule="evenodd" d="M12.5333 15.2545C12.4434 15.2545 12.3719 15.1843 12.3719 15.0956L12.3752 14.4488C12.3752 14.3594 12.4447 14.2872 12.5333 14.2872C12.6218 14.2872 12.6933 14.3608 12.6933 14.4488V15.0956C12.6933 15.1843 12.6218 15.2545 12.5333 15.2545ZM12.5333 16.5489C12.4427 16.5489 12.3719 16.478 12.3719 16.3887V15.7418C12.3719 15.6532 12.4434 15.5803 12.5333 15.5803C12.6218 15.5803 12.6926 15.6532 12.6926 15.7418L12.6913 16.3887C12.6913 16.478 12.6218 16.5489 12.5333 16.5489ZM12.53 17.8414C12.4414 17.8414 12.3693 17.7711 12.3693 17.6824L12.3719 17.0349C12.3719 16.9462 12.4414 16.8734 12.53 16.8734H12.5333C12.6218 16.8734 12.6913 16.9476 12.6913 17.0349V17.6824C12.6913 17.7711 12.6192 17.8414 12.53 17.8414ZM12.53 19.1357H12.5274C12.4382 19.1357 12.366 19.0628 12.366 18.9742L12.3693 18.328C12.3693 18.2406 12.4414 18.1677 12.53 18.1677C12.6192 18.1677 12.6913 18.2406 12.6893 18.328V18.9742C12.6893 19.0628 12.6192 19.1357 12.53 19.1357ZM12.5274 20.4301C12.4382 20.4301 12.366 20.3572 12.366 20.2686V19.6204C12.366 19.5337 12.4382 19.4602 12.5274 19.4602C12.6192 19.4602 12.6893 19.5337 12.6893 19.6204V20.2686C12.6893 20.3572 12.6165 20.4301 12.5274 20.4301ZM12.5254 21.7232C12.4382 21.7219 12.3654 21.651 12.3654 21.5623L12.366 20.9135C12.366 20.8261 12.4382 20.7532 12.5274 20.7532C12.6165 20.7532 12.6893 20.8261 12.6893 20.9135V21.5623C12.6854 21.651 12.6165 21.7232 12.5254 21.7232ZM12.5254 23.0156C12.4375 23.0156 12.3654 22.9427 12.3654 22.8541V22.2079C12.3654 22.1192 12.4382 22.0489 12.5254 22.0489C12.6165 22.0489 12.6854 22.1192 12.6854 22.2079V22.8567C12.6854 22.944 12.6159 23.0156 12.5254 23.0156ZM12.5254 24.3087C12.4375 24.3087 12.364 24.2371 12.364 24.1485L12.3654 23.5009C12.3654 23.4136 12.4375 23.3407 12.5254 23.3407C12.6139 23.3407 12.6854 23.4136 12.6854 23.5022V24.1485C12.6854 24.2371 12.6139 24.3087 12.5254 24.3087ZM12.5215 25.6044C12.4342 25.6044 12.364 25.5295 12.364 25.4428V24.7947C12.364 24.7067 12.4342 24.6331 12.5254 24.6331C12.6126 24.6331 12.6834 24.7067 12.6834 24.7947V25.4428C12.6834 25.5295 12.6113 25.6044 12.5215 25.6044ZM12.5215 26.8962C12.4342 26.8962 12.3614 26.8239 12.3614 26.7353V26.0877C12.3614 25.9978 12.4342 25.9275 12.5215 25.9275C12.6113 25.9275 12.6834 25.9978 12.6834 26.0877L12.6815 26.7353C12.6815 26.8239 12.6113 26.8962 12.5215 26.8962ZM12.5215 28.1886C12.4323 28.1886 12.3575 28.1157 12.3575 28.027L12.3614 27.3808C12.3614 27.2922 12.4342 27.2219 12.5215 27.2219C12.6074 27.2219 12.6815 27.2922 12.6815 27.3808V28.027C12.6815 28.1157 12.6074 28.1886 12.5215 28.1886ZM12.5182 29.483C12.4323 29.483 12.3575 29.4101 12.3575 29.3214V28.6739C12.3575 28.5865 12.4323 28.5143 12.5188 28.5143C12.6074 28.5143 12.6815 28.5865 12.6815 28.6739V29.3227C12.6815 29.4101 12.6074 29.483 12.5182 29.483ZM12.5182 30.7774C12.4296 30.7734 12.3555 30.7012 12.3555 30.6158V29.9676C12.3575 29.8796 12.4296 29.8087 12.5182 29.8087C12.6074 29.8087 12.6815 29.8796 12.6782 29.9676V30.6158C12.6782 30.7038 12.6054 30.7774 12.5182 30.7774ZM12.5182 32.0698C12.4283 32.0698 12.3555 31.9942 12.3555 31.9069V31.2607C12.3555 31.1707 12.4283 31.1031 12.5182 31.1031C12.6054 31.1031 12.6782 31.1707 12.6782 31.2607V31.9069C12.6769 31.9942 12.6054 32.0698 12.5182 32.0698ZM12.5142 33.3628C12.4257 33.3628 12.3555 33.2899 12.3555 33.2013V32.5551C12.3555 32.4651 12.4283 32.3935 12.5182 32.3935C12.6054 32.3935 12.6769 32.4651 12.6769 32.5551L12.6756 33.2013C12.6756 33.2899 12.6021 33.3628 12.5142 33.3628ZM12.5142 34.6559C12.4237 34.6559 12.3542 34.583 12.3542 34.4944L12.3555 33.8488C12.3555 33.7608 12.4257 33.6859 12.5142 33.6859C12.6021 33.6873 12.6756 33.7608 12.6743 33.8488V34.4944C12.6736 34.583 12.6021 34.6559 12.5142 34.6559ZM12.5142 35.9477C12.4224 35.9477 12.3503 35.8754 12.3503 35.7874L12.3542 35.1406C12.3542 35.0513 12.4237 34.983 12.5142 34.983C12.6021 34.983 12.6736 35.0532 12.6736 35.1406V35.7888C12.6736 35.8754 12.6015 35.9477 12.5142 35.9477ZM12.5116 37.2414C12.4224 37.2414 12.3503 37.1685 12.3503 37.0799V36.435C12.3503 36.345 12.4224 36.2734 12.5116 36.2734C12.6015 36.2734 12.6736 36.345 12.6736 36.435V37.0799C12.6736 37.1685 12.6015 37.2414 12.5116 37.2414ZM12.5096 38.5345C12.4218 38.5345 12.3483 38.4629 12.3483 38.3729L12.3503 37.7294C12.3503 37.6381 12.4224 37.5678 12.5116 37.5678C12.5975 37.5678 12.671 37.6381 12.671 37.7294L12.6703 38.3729C12.6703 38.4629 12.5975 38.5345 12.5096 38.5345ZM12.5096 39.8289C12.4205 39.8289 12.3483 39.7573 12.3483 39.666V39.0205C12.3483 38.9311 12.4205 38.8615 12.5096 38.8615C12.5975 38.8615 12.6703 38.9311 12.6703 39.0205V39.666C12.6703 39.7573 12.5975 39.8289 12.5096 39.8289ZM12.5077 41.1219C12.4165 41.1219 12.3483 41.0484 12.3483 40.9591V40.3135C12.3483 40.2249 12.4205 40.1546 12.5096 40.1546C12.5975 40.1546 12.6703 40.2249 12.6703 40.3135L12.6677 40.9604C12.6677 41.0484 12.5969 41.1219 12.5077 41.1219ZM12.5064 42.4144C12.4165 42.4144 12.345 42.3415 12.345 42.2528L12.3463 41.6079C12.3463 41.5193 12.4165 41.4477 12.5064 41.4477C12.5969 41.4477 12.6677 41.5193 12.6677 41.6079V42.2541C12.6677 42.3415 12.5956 42.4144 12.5064 42.4144ZM12.5051 43.7074C12.4165 43.7074 12.3437 43.6372 12.3437 43.5472L12.345 42.901C12.345 42.811 12.4165 42.7408 12.5051 42.7408C12.5956 42.7408 12.6677 42.811 12.6638 42.901V43.5472C12.6638 43.6372 12.5923 43.7074 12.5051 43.7074ZM12.5024 45.0018C12.4152 45.0018 12.3424 44.9302 12.3424 44.8403L12.3437 44.1921C12.3437 44.1041 12.4152 44.0345 12.5024 44.0345H12.5051C12.5923 44.0345 12.6638 44.1067 12.6638 44.1921V44.8403C12.6638 44.9302 12.5923 45.0018 12.5024 45.0018ZM12.5024 46.2936C12.4126 46.2936 12.3398 46.2214 12.3398 46.132L12.3424 45.4865C12.3424 45.3978 12.4152 45.3262 12.5024 45.3262C12.591 45.3262 12.6638 45.3978 12.6638 45.4865L12.6631 46.132C12.6631 46.2214 12.591 46.2936 12.5024 46.2936ZM12.5005 47.5873C12.4126 47.5873 12.3385 47.5157 12.3385 47.4271L12.3398 46.7809C12.3398 46.6922 12.4126 46.6193 12.5005 46.6193H12.5024C12.591 46.6193 12.6631 46.6922 12.6631 46.7822V47.4271C12.6631 47.5157 12.5897 47.5873 12.5005 47.5873ZM12.5005 48.8817C12.4106 48.8817 12.3385 48.8101 12.3385 48.7202V48.0739C12.3385 47.9853 12.4126 47.9131 12.5005 47.9131C12.5897 47.9131 12.6631 47.9853 12.6631 48.0739L12.6611 48.7202C12.6611 48.8101 12.5897 48.8817 12.5005 48.8817ZM12.4992 50.1748C12.4106 50.1735 12.3378 50.1019 12.3378 50.0145L12.3385 49.3677C12.3385 49.2784 12.4106 49.2061 12.4992 49.2061C12.5897 49.2061 12.6611 49.2784 12.6611 49.3677L12.6598 50.0145C12.6598 50.1019 12.5864 50.1748 12.4992 50.1748ZM12.4992 51.4679C12.4067 51.4679 12.3365 51.3969 12.3365 51.3056L12.3378 50.6608C12.3378 50.5721 12.4106 50.4992 12.4992 50.4992C12.5864 50.4992 12.6572 50.5721 12.6572 50.6608V51.307C12.6572 51.3969 12.5864 51.4679 12.4992 51.4679ZM12.4959 52.7616C12.4067 52.7616 12.3365 52.69 12.3365 52.6V51.9538C12.3365 51.8665 12.4067 51.7936 12.4959 51.7936H12.4992C12.5864 51.7936 12.6572 51.8665 12.6572 51.9538V52.6C12.6572 52.69 12.5844 52.7616 12.4959 52.7616ZM12.4959 54.0547C12.4067 54.0547 12.3358 53.9818 12.3358 53.8944L12.3365 53.2469C12.3365 53.1582 12.4067 53.0847 12.4959 53.0847C12.5844 53.0873 12.6572 53.1609 12.6572 53.2469L12.6546 53.8944C12.6546 53.9818 12.5844 54.0547 12.4959 54.0547ZM12.4932 55.3477C12.4034 55.3477 12.3358 55.2755 12.3358 55.1875V54.5406C12.3358 54.4513 12.406 54.3778 12.4932 54.3778C12.5844 54.3791 12.6546 54.4513 12.6546 54.5406V55.1875C12.6546 55.2755 12.5805 55.3477 12.4932 55.3477ZM12.4932 56.6408C12.4034 56.6408 12.3319 56.5686 12.3319 56.4786V55.8337C12.3319 55.7464 12.4034 55.6722 12.4932 55.6722C12.5805 55.6722 12.6546 55.7464 12.6546 55.8337L12.6526 56.4786C12.6526 56.5686 12.5805 56.6408 12.4932 56.6408ZM12.4906 57.9345C12.4014 57.9345 12.3319 57.863 12.3319 57.773V57.1255C12.3319 57.0381 12.4034 56.9652 12.4906 56.9652H12.4932C12.5805 56.9652 12.6526 57.0381 12.6526 57.1255V57.773C12.6526 57.863 12.5792 57.9345 12.4906 57.9345ZM12.4906 59.2263C12.3975 59.2263 12.3286 59.1573 12.3286 59.0674L12.3319 58.4205C12.3319 58.3312 12.4014 58.2576 12.4906 58.2576C12.5792 58.2576 12.6526 58.3312 12.6526 58.4205L12.6487 59.0674C12.6487 59.1573 12.5792 59.2263 12.4906 59.2263ZM12.4873 60.5207C12.3975 60.5207 12.3273 60.4498 12.3273 60.3591L12.3286 59.7136C12.3286 59.6243 12.3975 59.5533 12.4873 59.5533H12.4906C12.5792 59.5533 12.6487 59.6243 12.6487 59.7136V60.3591C12.6487 60.4498 12.5759 60.5207 12.4873 60.5207ZM12.4873 61.8144C12.3962 61.8144 12.3273 61.7428 12.3273 61.6529V61.0053C12.3273 60.918 12.3975 60.8464 12.4873 60.8464C12.5759 60.8464 12.6487 60.918 12.6487 61.0053L12.6447 61.6529C12.6447 61.7428 12.5759 61.8144 12.4873 61.8144ZM12.4847 63.1062C12.3962 63.1062 12.3234 63.0346 12.3273 62.9473V62.2984C12.3273 62.2124 12.3962 62.1395 12.4847 62.1395C12.5752 62.1408 12.6447 62.2124 12.6447 62.2997V62.9473C12.6447 63.0359 12.5739 63.1062 12.4847 63.1062ZM12.4847 64.4019C12.3962 64.4006 12.3234 64.329 12.3234 64.239V63.5922C12.3234 63.5055 12.3962 63.4319 12.4847 63.4319C12.5739 63.4319 12.6447 63.5055 12.6447 63.5948V64.2403C12.6447 64.329 12.5739 64.4019 12.4847 64.4019ZM12.4814 65.695C12.3942 65.695 12.3234 65.6214 12.3234 65.5334V64.8865C12.3234 64.7979 12.3962 64.725 12.4834 64.725C12.5739 64.725 12.6447 64.7979 12.6428 64.8865V65.5334C12.6428 65.6214 12.5739 65.695 12.4814 65.695ZM12.4814 66.9874C12.3942 66.9874 12.3208 66.9145 12.3208 66.8271L12.3234 66.1796C12.3234 66.091 12.3942 66.0181 12.4814 66.0181C12.5706 66.0194 12.6428 66.0923 12.6428 66.1796L12.6408 66.8271C12.6408 66.9145 12.5706 66.9874 12.4814 66.9874ZM12.4814 68.2791C12.3909 68.2791 12.3208 68.2089 12.3208 68.1202V67.4727C12.3208 67.384 12.3909 67.3111 12.4814 67.3111C12.5706 67.3131 12.6408 67.384 12.6408 67.4727V68.1202C12.6408 68.2089 12.5674 68.2791 12.4814 68.2791ZM12.4782 69.5735C12.3909 69.5735 12.3175 69.5006 12.3175 69.4133V68.7664C12.3175 68.6771 12.3909 68.6049 12.4814 68.6049C12.5674 68.6049 12.6408 68.6771 12.6408 68.7664V69.4133C12.6408 69.5006 12.5674 69.5735 12.4782 69.5735ZM12.4782 70.8679H12.4769C12.387 70.8679 12.3142 70.7944 12.3175 70.707V70.0608C12.3175 69.9708 12.3909 69.8993 12.4782 69.8993C12.5674 69.8993 12.6408 69.9708 12.6395 70.0608V70.707C12.6395 70.7944 12.5654 70.8679 12.4782 70.8679ZM12.4769 72.1616C12.387 72.1616 12.3142 72.0888 12.3142 72.0001V71.3526C12.3142 71.2626 12.387 71.1897 12.4769 71.1897C12.5654 71.1897 12.6382 71.2626 12.6382 71.3526V72.0001C12.6382 72.0888 12.5654 72.1616 12.4769 72.1616ZM12.4769 73.4547H12.4742C12.3863 73.4534 12.3142 73.3831 12.3142 73.2919V72.6456C12.3142 72.557 12.387 72.4861 12.4769 72.4861C12.5654 72.4861 12.6382 72.557 12.6369 72.6456V73.2932C12.6349 73.3831 12.5628 73.4547 12.4769 73.4547ZM12.4742 74.7478C12.3837 74.7478 12.3142 74.6736 12.3142 74.5862V73.9381C12.3142 73.8514 12.385 73.7791 12.4742 73.7791C12.5628 73.7791 12.6349 73.8514 12.6349 73.9394V74.5862C12.6336 74.6736 12.5628 74.7478 12.4742 74.7478ZM12.471 76.0396C12.3824 76.0396 12.3129 75.9673 12.3129 75.8787L12.3142 75.2325C12.3142 75.1425 12.3837 75.0709 12.4742 75.0709C12.5628 75.0722 12.6336 75.1451 12.6336 75.2338L12.6329 75.8787C12.6329 75.9673 12.5628 76.0396 12.471 76.0396ZM12.471 77.332C12.3824 77.332 12.3129 77.263 12.3129 77.173V76.5255C12.3129 76.4356 12.3824 76.3666 12.471 76.3666C12.5628 76.3666 12.6329 76.4356 12.6329 76.5268V77.173C12.6329 77.263 12.5601 77.332 12.471 77.332ZM12.471 78.6277H12.469C12.3811 78.6277 12.3076 78.5535 12.3076 78.4648L12.3103 77.8199C12.3103 77.7299 12.3824 77.6577 12.471 77.6577C12.5601 77.6577 12.6329 77.7299 12.6329 77.8199L12.6316 78.4648C12.6316 78.5535 12.5582 78.6277 12.471 78.6277ZM12.469 79.9208C12.3798 79.9208 12.3076 79.8472 12.3076 79.7592V79.1136C12.3076 79.023 12.3811 78.9521 12.469 78.9521C12.5582 78.9521 12.629 79.023 12.629 79.1136V79.7592C12.629 79.8472 12.5582 79.9208 12.469 79.9208ZM12.4677 81.2145C12.3798 81.2145 12.3076 81.1416 12.3076 81.0529V80.4067C12.3076 80.3167 12.3798 80.2465 12.469 80.2465C12.5582 80.2465 12.629 80.3167 12.629 80.4067L12.627 81.0529C12.627 81.1416 12.5582 81.2145 12.4677 81.2145ZM12.465 82.5076C12.3765 82.5076 12.305 82.4347 12.305 82.3447V81.6998C12.3076 81.6098 12.3798 81.5396 12.4677 81.5396C12.5582 81.5396 12.627 81.6098 12.627 81.6998V82.3447C12.627 82.436 12.5549 82.5076 12.465 82.5076ZM12.465 83.8006H12.4624C12.3765 83.8006 12.3037 83.7277 12.305 83.6378V82.9916C12.305 82.9042 12.3765 82.832 12.465 82.832C12.5549 82.832 12.627 82.9042 12.627 82.9922L12.6238 83.6378C12.6238 83.7277 12.5536 83.8006 12.465 83.8006ZM12.4624 85.0937C12.3752 85.0937 12.3037 85.0202 12.3037 84.9322V84.2853C12.3037 84.1979 12.3765 84.1264 12.4624 84.1264C12.5536 84.1264 12.6238 84.1979 12.6238 84.2866V84.9322C12.6238 85.0202 12.551 85.0937 12.4624 85.0937Z" fill="#EEEBC9"/>
<path fill-rule="evenodd" clip-rule="evenodd" d="M12.4624 86.0619C12.3752 86.0619 12.3018 85.9903 12.3018 85.9003V85.5785C12.3018 85.4899 12.3752 85.4189 12.4624 85.4189C12.5516 85.4189 12.6238 85.4899 12.6238 85.5798V85.9003C12.6238 85.9903 12.5503 86.0619 12.4624 86.0619Z" fill="#EEEBC9"/>
<path fill-rule="evenodd" clip-rule="evenodd" d="M63.1222 85.9362C62.2998 86.9121 61.1599 87.6154 59.8594 87.882V11.4311C61.1252 12.2401 62.2821 13.3434 63.1222 14.8401V85.9362Z" fill="#B5173E"/>
<path fill-rule="evenodd" clip-rule="evenodd" d="M61.4169 13.9616C61.329 13.9616 61.2568 13.89 61.2568 13.8027V13.4809C61.2568 13.3922 61.3283 13.3187 61.4169 13.3187C61.5041 13.3187 61.5775 13.3922 61.5775 13.4809L61.5789 13.8027C61.5789 13.89 61.508 13.9616 61.4169 13.9616Z" fill="#EEEBC9"/>
<path fill-rule="evenodd" clip-rule="evenodd" d="M61.4182 15.2545C61.329 15.2545 61.2568 15.1843 61.2568 15.0956V14.4488C61.2568 14.3608 61.329 14.2872 61.4169 14.2872C61.508 14.2872 61.5789 14.3594 61.5789 14.4488V15.0956C61.5789 15.1843 61.508 15.2545 61.4182 15.2545ZM61.4182 16.5489C61.3303 16.5489 61.2568 16.478 61.2568 16.3887V15.7418C61.2568 15.6532 61.329 15.5803 61.4182 15.5803C61.508 15.5803 61.5789 15.6532 61.5789 15.7418V16.3887C61.5789 16.478 61.508 16.5489 61.4182 16.5489ZM61.4208 17.8414C61.3323 17.8414 61.2621 17.7711 61.2621 17.6824L61.2608 17.0349C61.2608 16.9462 61.3303 16.8734 61.4208 16.8734C61.5093 16.8734 61.5789 16.9462 61.5789 17.0349L61.5821 17.6824C61.5821 17.7711 61.5093 17.8414 61.4208 17.8414ZM61.4208 19.1357C61.3323 19.1357 61.2621 19.0628 61.2621 18.9742V18.328C61.2621 18.2406 61.3323 18.1677 61.4208 18.1677C61.5093 18.1677 61.5821 18.2406 61.5821 18.328V18.9742C61.5821 19.0628 61.5126 19.1357 61.4241 19.1357H61.4208ZM61.4241 20.4301C61.3349 20.4301 61.2621 20.3572 61.2621 20.2686V19.6204C61.2621 19.5337 61.3349 19.4602 61.4241 19.4602C61.5126 19.4602 61.5821 19.5337 61.5821 19.6204L61.5834 20.2686C61.5834 20.3572 61.5126 20.4301 61.4241 20.4301ZM61.4241 21.7232C61.3349 21.7232 61.2647 21.651 61.2647 21.5623L61.2621 20.9135C61.2621 20.8261 61.3349 20.7532 61.4241 20.7532C61.5126 20.7532 61.5861 20.8261 61.5861 20.9135V21.5623C61.5861 21.651 61.5139 21.7219 61.4241 21.7232ZM61.4254 23.0156C61.3382 23.0156 61.2647 22.944 61.2647 22.8567V22.2079C61.2647 22.1192 61.3349 22.0489 61.4254 22.0489C61.5139 22.0489 61.5861 22.1192 61.5861 22.2079L61.588 22.8541C61.588 22.9427 61.5139 23.0156 61.4254 23.0156ZM61.4254 24.3087C61.3382 24.3087 61.2673 24.2371 61.2673 24.1485L61.2647 23.5022C61.2647 23.4136 61.3382 23.3407 61.4254 23.3407C61.5139 23.3407 61.588 23.4136 61.588 23.5009V24.1485C61.588 24.2371 61.5166 24.3087 61.4287 24.3087H61.4254ZM61.4287 25.6044C61.3401 25.6044 61.2693 25.5295 61.2693 25.4428L61.2673 24.7947C61.2673 24.7067 61.3401 24.6331 61.4287 24.6331C61.5166 24.6331 61.588 24.7067 61.588 24.7947L61.59 25.4428C61.59 25.5295 61.5179 25.6044 61.4287 25.6044ZM61.4287 26.8962C61.3401 26.8962 61.2706 26.8239 61.2706 26.7353L61.2693 26.0877C61.2693 25.9978 61.3401 25.9275 61.4287 25.9275C61.5179 25.9275 61.59 25.9978 61.59 26.0877V26.7353C61.59 26.8239 61.5179 26.8962 61.4287 26.8962ZM61.4313 28.1886C61.3441 28.1886 61.2706 28.1157 61.2706 28.027V27.3808C61.2706 27.2922 61.3401 27.2219 61.4287 27.2219C61.5179 27.2219 61.59 27.2922 61.59 27.3808V28.027C61.5926 28.1157 61.5198 28.1886 61.4313 28.1886ZM61.4313 29.483C61.3441 29.483 61.2726 29.4101 61.2726 29.3227L61.2706 28.6739C61.2706 28.5865 61.3441 28.5143 61.4313 28.5143C61.5198 28.5143 61.5926 28.5865 61.5926 28.6739V29.3214C61.5926 29.4101 61.5218 29.483 61.4313 29.483ZM61.4339 30.7774C61.3454 30.7774 61.2726 30.7038 61.2726 30.6158V29.9676C61.2726 29.8796 61.3441 29.8087 61.4339 29.8087C61.5218 29.8087 61.5926 29.8796 61.5926 29.9676L61.5953 30.6158C61.5953 30.7012 61.5218 30.7734 61.4339 30.7774ZM61.4339 32.0698C61.3454 32.0698 61.2726 31.9942 61.2726 31.9069V31.2607C61.2726 31.1707 61.3454 31.1031 61.4339 31.1031C61.5231 31.1031 61.5953 31.1707 61.5953 31.2607V31.9069C61.5953 31.9942 61.5231 32.0698 61.4339 32.0698ZM61.4359 33.3628C61.3467 33.3628 61.2759 33.2899 61.2759 33.2013V32.5551C61.2759 32.4651 61.3467 32.3935 61.4359 32.3935C61.527 32.3935 61.5953 32.4651 61.5953 32.5551V33.2013C61.5953 33.2899 61.527 33.3628 61.4359 33.3628ZM61.4385 34.6559C61.3487 34.6559 61.2759 34.583 61.2759 34.4944V33.8488C61.2759 33.7608 61.3487 33.6873 61.4359 33.6859C61.527 33.6859 61.5979 33.7608 61.5979 33.8488V34.4944C61.5979 34.583 61.527 34.6559 61.4385 34.6559ZM61.4398 35.9477C61.35 35.9477 61.2785 35.8754 61.2785 35.7888V35.1406C61.2785 35.0532 61.3487 34.983 61.4385 34.983C61.527 34.983 61.5979 35.0513 61.5979 35.1406V35.7874C61.5979 35.8754 61.527 35.9477 61.4398 35.9477ZM61.4398 37.2414C61.35 37.2414 61.2818 37.1685 61.2818 37.0799L61.2785 36.435C61.2785 36.345 61.35 36.2734 61.4398 36.2734C61.527 36.2734 61.5979 36.345 61.6012 36.435V37.0799C61.6012 37.1685 61.527 37.2414 61.4398 37.2414ZM61.4424 38.5345C61.3526 38.5345 61.2818 38.4629 61.2818 38.3729V37.7294C61.2818 37.6381 61.35 37.5678 61.4398 37.5678C61.527 37.5678 61.6012 37.6381 61.6012 37.7294L61.6038 38.3729C61.6038 38.4629 61.5303 38.5345 61.4424 38.5345ZM61.4424 39.8289C61.3526 39.8289 61.2818 39.7573 61.2818 39.666V39.0205C61.2818 38.9311 61.3526 38.8615 61.4424 38.8615C61.5303 38.8615 61.6038 38.9311 61.6038 39.0205V39.666C61.6038 39.7573 61.5303 39.8289 61.4424 39.8289ZM61.4457 41.1219C61.3565 41.1219 61.2831 41.0484 61.2818 40.9604V40.3135C61.2818 40.2249 61.3526 40.1546 61.4424 40.1546C61.5303 40.1546 61.6038 40.2249 61.6071 40.3135V40.9591C61.6071 41.0484 61.5336 41.1219 61.4457 41.1219ZM61.4457 42.4144C61.3565 42.4144 61.2831 42.3415 61.2831 42.2541V41.6079C61.2831 41.5193 61.3565 41.4477 61.4457 41.4477C61.5336 41.4477 61.6071 41.5193 61.6071 41.6079V42.2528C61.6071 42.3415 61.5336 42.4144 61.4457 42.4144ZM61.4464 43.7074C61.3591 43.7074 61.2863 43.6372 61.2863 43.5472L61.285 42.901C61.285 42.811 61.3565 42.7408 61.4464 42.7408C61.5336 42.7408 61.6071 42.811 61.6071 42.901V43.5472C61.6071 43.6372 61.5336 43.7074 61.4464 43.7074ZM61.4464 45.0018C61.3591 45.0018 61.2877 44.9302 61.2877 44.8403V44.1921C61.2863 44.1067 61.3591 44.0345 61.4464 44.0345C61.5362 44.0345 61.6071 44.1041 61.6071 44.1921L61.609 44.8403C61.609 44.9302 61.5388 45.0018 61.4464 45.0018ZM61.4503 46.2936C61.3591 46.2936 61.2877 46.2214 61.2877 46.132V45.4865C61.2877 45.3978 61.3591 45.3262 61.4464 45.3262C61.5388 45.3262 61.609 45.3978 61.609 45.4865V46.132C61.609 46.2214 61.5388 46.2936 61.4503 46.2936ZM61.4503 47.5873C61.3618 47.5873 61.289 47.5157 61.289 47.4271V46.7822C61.289 46.6922 61.3618 46.6193 61.4503 46.6193C61.5395 46.6193 61.6103 46.6922 61.6103 46.7809V47.4271C61.6103 47.5157 61.5395 47.5873 61.4503 47.5873ZM61.4529 48.8817C61.3618 48.8817 61.2923 48.8101 61.2923 48.7202L61.2909 48.0739C61.2909 47.9853 61.3618 47.9131 61.4503 47.9131C61.5408 47.9131 61.6103 47.9853 61.6103 48.0739V48.7202C61.6103 48.8101 61.5408 48.8817 61.4529 48.8817ZM61.4536 50.1748C61.3644 50.1748 61.2923 50.1019 61.2923 50.0145V49.3677C61.2923 49.2784 61.3644 49.2061 61.4529 49.2061C61.5421 49.2061 61.6103 49.2784 61.6143 49.3677V50.0145C61.6143 50.1019 61.5421 50.1735 61.4536 50.1748ZM61.4549 51.4679C61.3644 51.4679 61.2955 51.3969 61.2955 51.307L61.2923 50.6608C61.2923 50.5721 61.3644 50.4992 61.4549 50.4992C61.5421 50.4992 61.6143 50.5721 61.6143 50.6608V51.3056C61.6143 51.3969 61.5421 51.4679 61.4549 51.4679ZM61.4549 52.7616C61.367 52.7616 61.2955 52.69 61.2955 52.6V51.9538C61.2955 51.8665 61.3644 51.7936 61.4549 51.7936C61.5448 51.7936 61.6143 51.8665 61.6143 51.9538V52.6C61.6176 52.69 61.5448 52.7616 61.4556 52.7616H61.4549ZM61.4556 54.0547C61.367 54.0547 61.2975 53.9818 61.2975 53.8944L61.2955 53.2469C61.2955 53.1609 61.367 53.0873 61.4556 53.0847C61.5448 53.0847 61.6176 53.1582 61.6176 53.2469V53.8944C61.6176 53.9818 61.5448 54.0547 61.4569 54.0547H61.4556ZM61.4588 55.3477C61.371 55.3477 61.2975 55.2755 61.2975 55.1875V54.5406C61.2975 54.4513 61.369 54.3791 61.4569 54.3778C61.5448 54.3778 61.6176 54.4513 61.6176 54.5406L61.6195 55.1875C61.6195 55.2755 61.5487 55.3477 61.4588 55.3477ZM61.4601 56.6408C61.3723 56.6408 61.2975 56.5686 61.2975 56.4786V55.8337C61.2975 55.7464 61.371 55.6722 61.4588 55.6722C61.5487 55.6722 61.6195 55.7464 61.6195 55.8337V56.4786C61.6195 56.5686 61.5487 56.6408 61.4601 56.6408ZM61.4615 57.9345C61.3723 57.9345 61.3008 57.863 61.3008 57.773L61.2975 57.1255C61.2975 57.0381 61.3723 56.9652 61.4601 56.9652C61.5487 56.9652 61.6228 57.0381 61.6228 57.1255V57.773C61.6228 57.863 61.5493 57.9345 61.4615 57.9345ZM61.4615 59.2263C61.3723 59.2263 61.3008 59.1573 61.3008 59.0674V58.4205C61.3008 58.3312 61.3723 58.2576 61.4615 58.2576C61.5493 58.2576 61.6228 58.3312 61.6228 58.4205V59.0674C61.6228 59.1573 61.5493 59.2263 61.4615 59.2263ZM61.4641 60.5207C61.3762 60.5207 61.3021 60.4498 61.3021 60.3591V59.7136C61.3008 59.6243 61.3723 59.5533 61.4615 59.5533H61.4641C61.5493 59.5533 61.6228 59.6243 61.6228 59.7136L61.6241 60.3591C61.6241 60.4498 61.5513 60.5207 61.4641 60.5207ZM61.4654 61.8144C61.3762 61.8144 61.3041 61.7428 61.3041 61.6529L61.3021 61.0053C61.3021 60.918 61.3762 60.8464 61.4641 60.8464C61.5513 60.8464 61.6241 60.918 61.6248 61.0053V61.6529C61.6248 61.7428 61.5513 61.8144 61.4654 61.8144ZM61.4654 63.1062C61.3775 63.1062 61.3041 63.0359 61.3041 62.9473V62.2997C61.3041 62.2124 61.3762 62.1408 61.4654 62.1395C61.5513 62.1395 61.6248 62.2124 61.6261 62.2984V62.9473C61.6261 63.0346 61.5552 63.1062 61.4654 63.1062ZM61.4654 64.4019C61.3775 64.4019 61.3041 64.329 61.3041 64.2403V63.5948C61.3041 63.5055 61.3775 63.4319 61.4654 63.4319C61.5552 63.4319 61.628 63.5055 61.628 63.5922V64.239C61.628 64.329 61.5552 64.4006 61.4654 64.4019ZM61.4693 65.695C61.3808 65.695 61.308 65.6214 61.308 65.5334L61.3041 64.8865C61.3041 64.7979 61.3775 64.725 61.4654 64.725H61.4693C61.5566 64.725 61.628 64.7979 61.628 64.8865V65.5334C61.6294 65.6214 61.5585 65.695 61.4693 65.695ZM61.4693 66.9874C61.3808 66.9874 61.3093 66.9145 61.3093 66.8271L61.308 66.1796C61.308 66.0923 61.3808 66.0194 61.4693 66.0181C61.5585 66.0181 61.6294 66.091 61.6294 66.1796V66.8271C61.6294 66.9145 61.5585 66.9874 61.4693 66.9874ZM61.4706 68.2791C61.3808 68.2791 61.3113 68.2089 61.3113 68.1202L61.3093 67.4727C61.3093 67.384 61.3808 67.3131 61.4706 67.3111C61.5585 67.3111 61.6294 67.384 61.6294 67.4727V68.1202C61.6294 68.2089 61.5605 68.2791 61.4706 68.2791ZM61.472 69.5735C61.3847 69.5735 61.3132 69.5006 61.3113 69.4133V68.7664C61.3113 68.6771 61.3847 68.6049 61.472 68.6049C61.5605 68.6049 61.6294 68.6771 61.6294 68.7664L61.6333 69.4133C61.6333 69.5006 61.5605 69.5735 61.472 69.5735ZM61.4746 70.8679C61.386 70.8679 61.3132 70.7944 61.3132 70.707V70.0608C61.3132 69.9708 61.3847 69.8993 61.472 69.8993C61.5644 69.8993 61.6333 69.9708 61.6333 70.0608V70.707C61.6333 70.7944 61.5644 70.8679 61.4746 70.8679ZM61.4746 72.1616C61.386 72.1616 61.3132 72.0888 61.3132 72.0001V71.3526C61.3132 71.2626 61.386 71.1897 61.4746 71.1897C61.5644 71.1897 61.6353 71.2626 61.6353 71.3526V72.0001C61.6353 72.0888 61.5644 72.1616 61.4746 72.1616ZM61.4759 73.4547C61.388 73.4547 61.3172 73.3831 61.3172 73.2932L61.3132 72.6456C61.3132 72.557 61.386 72.4861 61.4746 72.4861H61.4759C61.5644 72.4861 61.6353 72.557 61.6353 72.6456L61.6385 73.2919C61.6385 73.3831 61.5671 73.4534 61.4759 73.4547ZM61.4772 74.7478C61.388 74.7478 61.3191 74.6736 61.3172 74.5862V73.9394C61.3172 73.8514 61.388 73.7791 61.4759 73.7791H61.4772C61.5671 73.7791 61.6385 73.8514 61.6385 73.9381V74.5862C61.6385 74.6736 61.5671 74.7478 61.4785 74.7478H61.4772ZM61.4785 76.0396C61.388 76.0396 61.3191 75.9673 61.3191 75.8787V75.2338C61.3191 75.1425 61.388 75.0722 61.4785 75.0709C61.5671 75.0709 61.6385 75.1425 61.6385 75.2325V75.8787C61.6385 75.9673 61.5671 76.0396 61.4785 76.0396ZM61.4811 77.332C61.3913 77.332 61.3191 77.263 61.3191 77.173V76.5268C61.3191 76.4356 61.388 76.3666 61.4811 76.3666C61.5671 76.3666 61.6385 76.4356 61.6385 76.5255L61.6412 77.173C61.6412 77.263 61.5677 77.332 61.4811 77.332ZM61.4831 78.6277C61.3939 78.6277 61.3224 78.5535 61.3224 78.4648L61.3191 77.8199C61.3191 77.7299 61.3913 77.6577 61.4811 77.6577H61.4831C61.5677 77.6577 61.6412 77.7299 61.6412 77.8199V78.4648C61.6444 78.5535 61.5703 78.6277 61.4831 78.6277ZM61.4831 79.9208C61.3939 79.9208 61.3224 79.8472 61.3224 79.7592V79.1136C61.3224 79.023 61.3939 78.9521 61.4831 78.9521C61.5703 78.9521 61.6444 79.023 61.6444 79.1136V79.7592C61.6444 79.8472 61.5703 79.9208 61.4831 79.9208ZM61.4831 81.2145C61.3972 81.2145 61.3231 81.1416 61.3231 81.0529L61.3224 80.4067C61.3224 80.3167 61.3939 80.2465 61.4831 80.2465C61.5703 80.2465 61.6444 80.3167 61.6444 80.4067V81.0529C61.6444 81.1416 61.5743 81.2145 61.4831 81.2145ZM61.4864 82.5076C61.3972 82.5076 61.3231 82.436 61.3231 82.3447V81.6998C61.3231 81.6098 61.3972 81.5396 61.4864 81.5396C61.5743 81.5396 61.6458 81.6098 61.6458 81.6998L61.6464 82.3447C61.6464 82.4347 61.5743 82.5076 61.4864 82.5076ZM61.487 83.8006C61.3972 83.8006 61.3244 83.7277 61.3244 83.6378V82.9922C61.3231 82.9042 61.3972 82.832 61.4864 82.832C61.5743 82.832 61.6464 82.9042 61.6464 82.9916V83.6378C61.6464 83.7277 61.5743 83.8006 61.487 83.8006ZM61.487 85.0937C61.4005 85.0937 61.3283 85.0202 61.3283 84.9322L61.327 84.2866C61.327 84.1979 61.4005 84.1264 61.487 84.1264C61.5743 84.1264 61.6464 84.1979 61.6464 84.2853L61.6503 84.9322C61.6503 85.0202 61.5769 85.0937 61.487 85.0937Z" fill="#EEEBC9"/>
<path fill-rule="evenodd" clip-rule="evenodd" d="M61.4878 86.0619C61.4006 86.0619 61.3291 85.9903 61.3291 85.9003V85.5798C61.3291 85.4899 61.4006 85.4189 61.4878 85.4189C61.5777 85.4189 61.6505 85.4899 61.6505 85.5785V85.9003C61.6505 85.9903 61.5783 86.0619 61.4878 86.0619Z" fill="#EEEBC9"/>
<path fill-rule="evenodd" clip-rule="evenodd" d="M15.7598 65.3124H58.309V63.0074H15.7598V65.3124Z" fill="#EEEBC9"/>
<path fill-rule="evenodd" clip-rule="evenodd" d="M16.7561 64.3941L16.4341 64.3927C16.3469 64.3927 16.2754 64.3185 16.2754 64.2312C16.2754 64.1425 16.3469 64.071 16.4341 64.071H16.7561C16.8493 64.071 16.9155 64.1425 16.9155 64.2325C16.9155 64.3198 16.8453 64.3941 16.7561 64.3941Z" fill="#A89F53"/>
<path fill-rule="evenodd" clip-rule="evenodd" d="M18.059 64.3954L17.4084 64.3941C17.3186 64.3941 17.2471 64.3225 17.2471 64.2325C17.2471 64.1452 17.3205 64.071 17.4084 64.071L18.059 64.0736C18.1475 64.0736 18.221 64.1465 18.221 64.2338C18.221 64.3225 18.1475 64.3954 18.059 64.3954ZM19.3615 64.3967L18.7122 64.3954C18.6237 64.3954 18.5522 64.3238 18.5522 64.2364C18.5522 64.1465 18.6237 64.0749 18.7122 64.0749H19.3615C19.4546 64.0762 19.5228 64.1465 19.5228 64.2364C19.5228 64.3251 19.4514 64.3967 19.3615 64.3967ZM20.666 64.4006L20.0147 64.3967C19.9255 64.3967 19.8541 64.3271 19.8541 64.2391C19.856 64.1465 19.9255 64.0775 20.0147 64.0775L20.666 64.0801C20.7552 64.0801 20.8299 64.1491 20.8299 64.2391C20.8299 64.3271 20.7552 64.4006 20.666 64.4006ZM21.9705 64.4033L21.3186 64.4019C21.2307 64.4019 21.1572 64.3284 21.1579 64.2391C21.1579 64.1504 21.2307 64.0801 21.3186 64.0801H21.9724C22.0597 64.0801 22.1331 64.153 22.1331 64.2417C22.1331 64.3297 22.0583 64.4033 21.9705 64.4033ZM23.2749 64.4059L22.623 64.4033C22.5325 64.4033 22.4643 64.331 22.4643 64.2417C22.4643 64.153 22.5443 64.09 22.623 64.0808L23.2749 64.0821C23.3635 64.0821 23.4336 64.1557 23.4336 64.243C23.4336 64.3323 23.3635 64.4059 23.2749 64.4059ZM24.5774 64.4059H23.9242C23.8363 64.4059 23.7662 64.3336 23.7662 64.2443C23.7662 64.1557 23.8363 64.0834 23.9242 64.0834H23.9282L24.5774 64.0847C24.6666 64.0847 24.7381 64.1583 24.7381 64.2463C24.7368 64.335 24.6666 64.4059 24.5774 64.4059ZM25.8813 64.4092L25.2274 64.4085C25.1428 64.4085 25.0687 64.335 25.0687 64.2463C25.0687 64.1583 25.1428 64.0847 25.2274 64.0847H25.23L25.8813 64.0874C25.9711 64.0874 26.0433 64.1596 26.0433 64.2489C26.0433 64.3376 25.9711 64.4092 25.8813 64.4092ZM27.187 64.4118H27.1831L26.5338 64.4105C26.4446 64.4105 26.3725 64.3376 26.3725 64.2489C26.3725 64.1609 26.4505 64.09 26.5338 64.0874L27.187 64.09C27.2743 64.09 27.3451 64.1629 27.3451 64.2516C27.3451 64.3389 27.2743 64.4118 27.187 64.4118ZM28.4856 64.4144H27.8363C27.7471 64.4144 27.675 64.3402 27.675 64.2516C27.675 64.1629 27.7478 64.09 27.8363 64.09L28.4896 64.0913C28.5787 64.0913 28.6496 64.1629 28.6476 64.2542C28.6476 64.3441 28.5787 64.4144 28.4856 64.4144ZM29.7927 64.4144H29.1395C29.0523 64.4144 28.9788 64.3441 28.9808 64.2542C28.9808 64.1655 29.0523 64.0926 29.1421 64.0926L29.7927 64.0953C29.8806 64.0953 29.9541 64.1668 29.9541 64.2542C29.9541 64.3455 29.8806 64.4144 29.7927 64.4144ZM31.0952 64.417H30.4427C30.3535 64.417 30.2833 64.3455 30.2833 64.2555C30.2833 64.1668 30.3535 64.09 30.4453 64.0966L31.0952 64.0979C31.1838 64.0979 31.2572 64.1681 31.2572 64.2568C31.2572 64.3468 31.1838 64.417 31.0952 64.417ZM32.4003 64.4223L31.7471 64.4184C31.6573 64.4184 31.5884 64.3468 31.5884 64.2607C31.5884 64.1695 31.6573 64.0992 31.7471 64.0992H31.7484H32.4003C32.4909 64.0992 32.5591 64.1708 32.5591 64.2607C32.5591 64.3481 32.4909 64.4223 32.4003 64.4223ZM33.7009 64.4236H33.0509C32.9618 64.4236 32.8909 64.352 32.8909 64.2621C32.8929 64.1708 32.9618 64.1005 33.0509 64.1005H33.7042C33.7927 64.1005 33.8635 64.1747 33.8635 64.2634C33.8635 64.352 33.7927 64.4236 33.7009 64.4236ZM35.0073 64.4262L34.3541 64.4249C34.2669 64.4249 34.1947 64.3533 34.1947 64.2634C34.1947 64.1747 34.2597 64.09 34.3541 64.1044H35.0073C35.0959 64.1044 35.1674 64.176 35.1674 64.266C35.1674 64.3547 35.0926 64.4262 35.0073 64.4262ZM36.3098 64.4276H35.6579C35.5694 64.4276 35.4979 64.3547 35.4979 64.266C35.4979 64.176 35.5694 64.1058 35.6579 64.1058L36.3098 64.1084C36.3984 64.1084 36.4712 64.18 36.4712 64.2686C36.4686 64.3566 36.3984 64.4276 36.3098 64.4276ZM37.6137 64.4315L36.9604 64.4302C36.8726 64.4302 36.803 64.3566 36.803 64.2686C36.803 64.18 36.8726 64.1084 36.9604 64.1084H36.9617H37.6137C37.7029 64.1084 37.7743 64.1826 37.7743 64.2713C37.7743 64.3593 37.7029 64.4315 37.6137 64.4315ZM38.9168 64.4341L38.2675 64.4328C38.1764 64.4328 38.1049 64.3593 38.1049 64.2713C38.1049 64.1839 38.1764 64.1104 38.2675 64.1104L38.9168 64.1117C39.0073 64.1117 39.0782 64.1839 39.0782 64.2726C39.0782 64.3606 39.0047 64.4341 38.9168 64.4341ZM40.22 64.4354H39.57C39.4776 64.4354 39.4074 64.3619 39.4087 64.2732C39.4087 64.1852 39.4815 64.1117 39.57 64.1117L40.2233 64.113C40.3105 64.113 40.3813 64.1852 40.3813 64.2758C40.3813 64.3645 40.3105 64.4354 40.22 64.4354ZM41.5231 64.4374H40.8725C40.7833 64.4374 40.7112 64.3658 40.7112 64.2758C40.7112 64.1878 40.7833 64.1156 40.8725 64.1156L41.5258 64.1182C41.615 64.1182 41.6858 64.1892 41.6858 64.2758C41.6858 64.3671 41.615 64.4374 41.5231 64.4374ZM42.8276 64.44L42.1751 64.4387C42.0872 64.4387 42.017 64.3671 42.017 64.2798C42.017 64.1905 42.0872 64.1182 42.1751 64.1182H42.8276C42.9175 64.1182 42.9876 64.1905 42.9876 64.2811C42.9876 64.3671 42.9175 64.44 42.8276 64.44ZM44.1321 64.444H43.4795C43.391 64.444 43.3195 64.3671 43.3195 64.2811C43.3195 64.1924 43.391 64.1196 43.4795 64.1196H43.4802L44.1321 64.1235C44.22 64.1235 44.2928 64.1924 44.2928 64.2811C44.2928 64.3698 44.22 64.444 44.1321 64.444ZM45.4339 64.4453L44.7847 64.444C44.6955 64.444 44.6233 64.3737 44.6233 64.2824C44.6233 64.1924 44.6955 64.1235 44.7847 64.1235H45.4339C45.5251 64.1248 45.5953 64.1951 45.5953 64.2837C45.5953 64.3737 45.5238 64.4453 45.4339 64.4453ZM46.7371 64.4479L46.0872 64.4453C45.998 64.4453 45.9258 64.375 45.9258 64.2877C45.9258 64.1964 45.998 64.1248 46.0872 64.1248L46.7404 64.1261C46.8263 64.1261 46.8984 64.1977 46.8984 64.2877C46.8984 64.3763 46.8263 64.4479 46.7371 64.4479ZM48.0429 64.4492H48.0409L47.3903 64.4479C47.3018 64.4479 47.2296 64.3763 47.2296 64.2877C47.2296 64.1977 47.3018 64.1274 47.3903 64.1274H48.0429C48.1321 64.1274 48.2049 64.2016 48.2049 64.2903C48.2049 64.3776 48.1321 64.4492 48.0429 64.4492ZM49.3461 64.4532L48.6935 64.4518C48.6043 64.4518 48.5328 64.3776 48.5328 64.2903C48.5328 64.2016 48.6043 64.1274 48.6935 64.1274L49.3461 64.1314C49.4346 64.1314 49.508 64.2043 49.508 64.2929C49.508 64.3816 49.4346 64.4532 49.3461 64.4532ZM50.6486 64.4571L49.9967 64.4532C49.9081 64.4532 49.8366 64.3816 49.8366 64.2929C49.8366 64.2043 49.9081 64.1314 49.9967 64.1314H49.9993L50.6512 64.1327C50.7384 64.134 50.8106 64.2056 50.8106 64.2929C50.8106 64.3822 50.7384 64.4571 50.6486 64.4571ZM51.9543 64.4571H51.2998C51.2113 64.4571 51.1385 64.3836 51.1385 64.2942C51.1404 64.2056 51.2139 64.1353 51.3024 64.1353H51.9543C52.0416 64.1373 52.1144 64.2095 52.1144 64.2982C52.1144 64.3862 52.0416 64.4571 51.9543 64.4571ZM53.2562 64.461L52.6036 64.4597C52.5151 64.4597 52.4443 64.3862 52.4443 64.2982C52.4443 64.2095 52.5164 64.1373 52.6056 64.1373H53.2562C53.3441 64.1386 53.4188 64.2095 53.4188 64.3001C53.4188 64.3875 53.3441 64.461 53.2562 64.461ZM54.5607 64.4624L53.9074 64.461C53.8196 64.461 53.7474 64.3888 53.7474 64.3001C53.7474 64.2108 53.8196 64.1386 53.9074 64.1386H53.9114H54.5607C54.6492 64.1386 54.7187 64.2135 54.7187 64.3001C54.7187 64.3927 54.6492 64.4624 54.5607 64.4624Z" fill="#A89F53"/>
<path fill-rule="evenodd" clip-rule="evenodd" d="M55.5338 64.4646H55.5325L55.2118 64.4633C55.1226 64.4633 55.0518 64.393 55.0518 64.3017C55.0537 64.2131 55.1226 64.1428 55.2131 64.1428H55.5338C55.623 64.1428 55.6951 64.2131 55.6951 64.3031C55.6951 64.393 55.623 64.4646 55.5338 64.4646Z" fill="#A89F53"/>
<path fill-rule="evenodd" clip-rule="evenodd" d="M56.6488 68.0996C56.6488 68.7741 56.1005 69.3231 55.4289 69.3231C54.7527 69.3231 54.2031 68.7741 54.2031 68.0996V64.644C54.2031 63.9682 54.7527 63.4205 55.4289 63.4205C56.1005 63.4205 56.6488 63.9682 56.6488 64.644V68.0996Z" fill="#B5173E"/>
<path fill-rule="evenodd" clip-rule="evenodd" d="M58.4613 22.5631C58.4613 19.3806 55.8851 16.7978 52.7049 16.7978H21.673C18.4935 16.7978 15.916 19.3806 15.916 22.5631V47.871C15.916 51.0547 18.4935 53.6363 21.673 53.6363H52.7049C55.8851 53.6363 58.4613 51.0547 58.4613 47.871V22.5631Z" fill="#EA3663"/>
<path fill-rule="evenodd" clip-rule="evenodd" d="M15.875 25.7912H58.4242V23.4888H15.875V25.7912Z" fill="#EEEBC9"/>
<path fill-rule="evenodd" clip-rule="evenodd" d="M16.8743 24.8744H16.8723L16.5516 24.8731C16.4644 24.8731 16.3916 24.8015 16.3916 24.7115C16.3916 24.6229 16.4644 24.5526 16.5516 24.5526H16.8743C16.9602 24.5526 17.0337 24.6242 17.0337 24.7128C17.0337 24.8015 16.9602 24.8744 16.8743 24.8744Z" fill="#A6A27D"/>
<path fill-rule="evenodd" clip-rule="evenodd" d="M18.1781 24.8756H18.1742L17.5249 24.8743C17.4357 24.8743 17.3662 24.8014 17.3662 24.7141C17.3662 24.6241 17.4357 24.5525 17.5249 24.5525L18.1781 24.5538C18.2673 24.5538 18.3355 24.6267 18.3355 24.7154C18.3355 24.804 18.2673 24.8756 18.1781 24.8756ZM19.4807 24.8783H18.8274C18.7389 24.8783 18.6674 24.804 18.6674 24.7154C18.6674 24.6267 18.7389 24.5538 18.8274 24.5538H18.8287L19.4807 24.5565C19.5692 24.5565 19.6407 24.6294 19.6407 24.7167C19.6407 24.8067 19.5692 24.8783 19.4807 24.8783ZM20.7845 24.8809L20.1319 24.8796C20.0434 24.8796 19.9693 24.8067 19.9712 24.718C19.9712 24.6294 20.046 24.5604 20.1319 24.5604H20.7845C20.8743 24.5604 20.9452 24.632 20.9452 24.7193C20.9452 24.81 20.8743 24.8809 20.7845 24.8809ZM22.0863 24.8822H21.437C21.3465 24.8822 21.2757 24.81 21.2757 24.7206C21.2757 24.632 21.3478 24.5604 21.437 24.5604L22.0863 24.5611C22.1762 24.5611 22.2477 24.632 22.2477 24.7206C22.2477 24.8113 22.1762 24.8822 22.0863 24.8822ZM23.3915 24.8848H23.3888L22.7395 24.8835C22.6497 24.8835 22.5795 24.8113 22.5795 24.7246C22.5795 24.6333 22.6497 24.5611 22.7395 24.5611L23.3915 24.5624C23.4813 24.5637 23.5502 24.6359 23.5502 24.7246C23.5502 24.8126 23.4806 24.8848 23.3915 24.8848ZM24.6946 24.8874H24.042C23.9542 24.8874 23.8807 24.8152 23.8807 24.7252C23.8833 24.6359 23.9542 24.5637 24.042 24.5637L24.6946 24.5663C24.7838 24.5663 24.8546 24.6372 24.8546 24.7252C24.8546 24.8152 24.7805 24.8874 24.6946 24.8874ZM25.9984 24.8894L25.3472 24.8888C25.258 24.8888 25.1852 24.8178 25.1852 24.7266C25.1865 24.6386 25.258 24.5676 25.3472 24.5676L25.9984 24.5689C26.087 24.5689 26.1591 24.6399 26.1591 24.7279C26.1591 24.8191 26.087 24.8894 25.9984 24.8894ZM27.3009 24.892L26.649 24.8894C26.5598 24.8894 26.4916 24.8191 26.4916 24.7305C26.4916 24.6412 26.5618 24.5689 26.649 24.5689L27.3009 24.5703C27.3914 24.5703 27.4623 24.6425 27.459 24.7318C27.459 24.8205 27.3914 24.892 27.3009 24.892ZM28.6048 24.896L27.9515 24.892C27.8637 24.892 27.7935 24.8205 27.7935 24.7318C27.7935 24.6445 27.8669 24.5729 27.9528 24.5729H28.6061C28.6926 24.5729 28.7667 24.6445 28.7667 24.7344C28.7667 24.8231 28.6926 24.896 28.6048 24.896ZM29.9092 24.8973H29.9086L29.2567 24.896C29.1675 24.896 29.096 24.8231 29.096 24.7357C29.096 24.6445 29.1675 24.5742 29.2567 24.5742L29.9092 24.5755C29.9984 24.5755 30.0699 24.6471 30.0699 24.7371C30.0699 24.8257 29.9984 24.8973 29.9092 24.8973ZM31.2104 24.8999L30.5611 24.8973C30.4719 24.8973 30.3998 24.8257 30.3998 24.7371C30.3998 24.6484 30.4719 24.5755 30.5611 24.5755L31.2104 24.5781C31.3029 24.5781 31.3724 24.651 31.3724 24.7397C31.3724 24.8297 31.3029 24.8999 31.2104 24.8999ZM32.5156 24.9012H31.8636C31.7738 24.9012 31.7023 24.8297 31.7023 24.7397C31.7023 24.6523 31.7738 24.5781 31.8663 24.5781L32.5156 24.5808C32.6048 24.5808 32.6769 24.6523 32.6769 24.7423C32.6769 24.831 32.6041 24.9012 32.5156 24.9012ZM33.8207 24.9039H33.1668C33.0783 24.9026 33.0081 24.831 33.0081 24.7423C33.0081 24.6537 33.0783 24.5808 33.1675 24.5808L33.8207 24.5834C33.9079 24.5834 33.982 24.655 33.982 24.7436C33.982 24.8336 33.9079 24.9039 33.8207 24.9039ZM35.1225 24.9065H34.4713C34.3841 24.9065 34.3119 24.8336 34.3119 24.7449C34.3119 24.655 34.3841 24.5834 34.4713 24.5834L35.1225 24.5847C35.2124 24.5847 35.2832 24.6576 35.2832 24.7463C35.2832 24.8336 35.2124 24.9065 35.1225 24.9065ZM36.429 24.9091L35.7758 24.9065C35.6866 24.9065 35.6144 24.8349 35.6144 24.7476C35.6144 24.6589 35.6866 24.586 35.7758 24.586H36.429C36.5149 24.586 36.5864 24.6589 36.5864 24.7489C36.5864 24.8382 36.5149 24.9091 36.429 24.9091ZM37.7295 24.9117L37.0783 24.9104C36.9904 24.9104 36.9182 24.8395 36.9182 24.7489C36.9189 24.6602 36.9904 24.5893 37.0783 24.5893H37.7295C37.8181 24.5893 37.8909 24.6615 37.8909 24.7502C37.8909 24.8408 37.8181 24.9117 37.7295 24.9117ZM39.0346 24.9144L38.3821 24.9131C38.2929 24.9131 38.2207 24.8408 38.2207 24.7502C38.2227 24.6655 38.2929 24.5906 38.3834 24.5906H39.0346C39.1232 24.5906 39.1934 24.6655 39.1934 24.7535C39.1934 24.8408 39.1232 24.9144 39.0346 24.9144ZM40.3372 24.9163L39.6866 24.9144C39.5974 24.9144 39.5239 24.8408 39.5278 24.7561C39.5278 24.6655 39.5974 24.5906 39.6866 24.5906L40.3372 24.5946C40.427 24.5946 40.4985 24.6681 40.4985 24.7561C40.4952 24.8448 40.427 24.9163 40.3372 24.9163ZM41.6397 24.919L40.9904 24.9163C40.9005 24.9163 40.829 24.8448 40.829 24.7561C40.829 24.6681 40.9005 24.5959 40.9904 24.5959L41.6397 24.5972C41.7295 24.5972 41.8017 24.6694 41.8017 24.7587C41.8017 24.8474 41.7295 24.919 41.6397 24.919ZM42.9461 24.9216L42.2935 24.919C42.2024 24.919 42.1322 24.8474 42.1322 24.7587C42.1322 24.6694 42.2024 24.5998 42.2935 24.5998H42.9461C43.032 24.5998 43.1055 24.6727 43.1055 24.7614C43.1055 24.8487 43.032 24.9216 42.9461 24.9216ZM44.248 24.9242L43.5954 24.9229C43.5088 24.9229 43.436 24.8487 43.436 24.7614C43.436 24.6727 43.5088 24.5998 43.5954 24.5998L44.248 24.6024C44.3391 24.6024 44.4073 24.674 44.4073 24.7627C44.4073 24.8526 44.3365 24.9242 44.248 24.9242ZM45.5531 24.9255H44.8999C44.8107 24.9255 44.7385 24.8526 44.7425 24.7627C44.7425 24.6753 44.8107 24.6037 44.8999 24.6037L45.5531 24.6051C45.6416 24.6051 45.7105 24.6766 45.7105 24.7653C45.7105 24.8553 45.6416 24.9255 45.5531 24.9255ZM46.8562 24.9268L46.2024 24.9255C46.1145 24.9255 46.0443 24.8553 46.0443 24.7666C46.0443 24.6766 46.1145 24.6051 46.2024 24.6051L46.8562 24.6064C46.9435 24.6064 47.0176 24.6793 47.0176 24.7692C47.0176 24.8553 46.9435 24.9268 46.8562 24.9268ZM48.1594 24.9308L47.5075 24.9295C47.4209 24.9295 47.3468 24.8592 47.3468 24.7692C47.3468 24.6793 47.4209 24.6077 47.5075 24.6077H47.5095L48.1594 24.6103C48.2486 24.6103 48.3201 24.6806 48.3201 24.7706C48.3201 24.8605 48.246 24.9308 48.1594 24.9308ZM49.4613 24.9334L48.8093 24.9321C48.7208 24.9321 48.6506 24.8605 48.6506 24.7719C48.6506 24.6819 48.7313 24.6202 48.812 24.6103H49.4613C49.5537 24.6103 49.6226 24.6832 49.6226 24.7719C49.6226 24.8605 49.5511 24.9334 49.4613 24.9334ZM50.7644 24.936L50.1105 24.9347C50.0266 24.9347 49.9531 24.8618 49.9531 24.7719C49.9531 24.6845 50.0266 24.6129 50.1145 24.6129H50.7644C50.8562 24.6129 50.9284 24.6858 50.9271 24.7758C50.9271 24.8625 50.8536 24.936 50.7644 24.936ZM52.0715 24.9387L51.419 24.936C51.3291 24.936 51.2563 24.8651 51.257 24.7758C51.257 24.6871 51.3291 24.6156 51.419 24.6156H52.0715C52.1594 24.6156 52.2322 24.6885 52.2322 24.7784C52.2296 24.8664 52.1594 24.9387 52.0715 24.9387ZM53.3734 24.94H53.3721L52.7208 24.9387C52.6316 24.9387 52.5614 24.8664 52.5614 24.7784C52.5614 24.6885 52.6369 24.6202 52.7208 24.6162L53.3734 24.6188C53.4632 24.6188 53.5347 24.6911 53.5347 24.7797C53.5347 24.8677 53.4632 24.94 53.3734 24.94ZM54.6759 24.9439L54.0227 24.9426C53.9361 24.9426 53.8666 24.8677 53.8666 24.7797C53.8666 24.6911 53.9361 24.6188 54.0227 24.6188H54.0266L54.6759 24.6202C54.7657 24.6202 54.8372 24.695 54.8372 24.7817C54.8372 24.8704 54.7657 24.9439 54.6759 24.9439Z" fill="#A6A27D"/>
<path fill-rule="evenodd" clip-rule="evenodd" d="M55.6503 24.9449L55.3303 24.9436C55.2417 24.9436 55.1689 24.8707 55.1689 24.782C55.1689 24.6947 55.2417 24.6231 55.3303 24.6231L55.6503 24.6244C55.7415 24.6244 55.811 24.6947 55.811 24.7833C55.811 24.8733 55.7376 24.9449 55.6503 24.9449Z" fill="#A6A27D"/>
<path fill-rule="evenodd" clip-rule="evenodd" d="M56.7643 28.58C56.7643 29.2544 56.2186 29.8021 55.5418 29.8021C54.867 29.8021 54.3213 29.2544 54.3213 28.58V25.1243C54.3213 24.4486 54.867 23.9009 55.5418 23.9009C56.2186 23.9009 56.7643 24.4486 56.7643 25.1243V28.58Z" fill="#A89F53"/>
<path fill-rule="evenodd" clip-rule="evenodd" d="M21.8926 50.6814H52.1736V34.938H21.8926V50.6814Z" fill="#B5173E"/>
<path fill-rule="evenodd" clip-rule="evenodd" d="M20.7422 37.9122H53.3501V32.7216H20.7422V37.9122Z" fill="#B5173E"/>
<path fill-rule="evenodd" clip-rule="evenodd" d="M22.6719 11.8708H28.9562V9.31946H22.6719V11.8708Z" fill="#EEEBC9"/>
<path fill-rule="evenodd" clip-rule="evenodd" d="M27.0762 14.9787C27.0762 13.9385 27.9197 13.0972 28.9638 13.0788V11.9197C28.9638 11.3182 28.4706 10.8309 27.8633 10.8309H23.7662C23.1595 10.8309 22.665 11.3182 22.665 11.9197V13.0828C22.6965 13.0788 22.7319 13.0775 22.7654 13.0775C23.8252 13.0775 24.6818 13.9293 24.6818 14.9787C24.6818 16.0295 23.8252 16.8799 22.7654 16.8799C22.7319 16.8799 22.6965 16.876 22.665 16.8747V17.4736C22.665 18.0778 23.1595 18.5664 23.7662 18.5664H27.8633C28.4706 18.5664 28.9638 18.0778 28.9638 17.4736V16.8799C27.9197 16.8615 27.0762 16.019 27.0762 14.9787Z" fill="#B5173E"/>
<path fill-rule="evenodd" clip-rule="evenodd" d="M45.1133 11.8708H51.3976V9.31946H45.1133V11.8708Z" fill="#EEEBC9"/>
<path fill-rule="evenodd" clip-rule="evenodd" d="M49.5154 14.9787C49.5154 13.9385 50.3588 13.0972 51.4022 13.0788V11.9197C51.4022 11.3182 50.909 10.8309 50.303 10.8309H46.2027C45.5954 10.8309 45.1035 11.3182 45.1035 11.9197V13.0828C45.137 13.0788 45.1691 13.0775 45.2032 13.0775C46.2617 13.0775 47.1202 13.9293 47.1202 14.9787C47.1202 16.0295 46.2617 16.8799 45.2032 16.8799C45.1691 16.8799 45.137 16.876 45.1035 16.8747V17.4736C45.1035 18.0778 45.5954 18.5664 46.2027 18.5664H50.303C50.909 18.5664 51.4022 18.0778 51.4022 17.4736V16.8799C50.3588 16.8615 49.5154 16.019 49.5154 14.9787Z" fill="#B5173E"/>
</svg>
