<svg width="82" height="90" viewBox="0 0 82 90" fill="none" xmlns="http://www.w3.org/2000/svg">
<path fill-rule="evenodd" clip-rule="evenodd" d="M41 87C63.6437 87 82 68.6437 82 46C82 23.3563 63.6437 5 41 5C18.3563 5 0 23.3563 0 46C0 68.6437 18.3563 87 41 87Z" fill="#DFEBFF"/>
<path d="M62.9373 34L64 62H19L20.0634 34H62.9373Z" fill="#FF933B"/>
<path d="M64 62L62.9274 34H21C21.9929 44.1639 30.7135 52.1387 41.2904 52.1387C47.2648 52.1387 52.6469 49.5939 56.3786 45.5478C57.4512 44.3847 59.4192 45.1048 59.4792 46.6752L60.0666 62H64Z" fill="#F27D27"/>
<path d="M29.8247 60.2565L15.4827 64.1701C9.28746 65.8607 5 71.4012 5 77.7173V87.2425C5 88.213 5.80117 89 6.78917 89H76.2108C77.1988 89 78 88.213 78 87.2425V77.7173C78 71.4012 73.7125 65.8607 67.5173 64.1701L53.1753 60.2565C52.5514 60.0864 51.907 60 51.2593 60H31.74C31.093 60 30.4486 60.0864 29.8247 60.2565Z" fill="#DDF5FF"/>
<path d="M67.4945 63.7969L57.3744 61L52 89H76.2069C77.1971 89 78 88.2012 78 87.216V77.5478C78 71.1367 73.7032 65.5129 67.4945 63.7969Z" fill="#636363"/>
<path d="M67.1935 64.3143L66 64C69.206 66.5957 71.1755 70.4399 71.1755 74.6291V89H76.1556C77.1741 89 78 88.2176 78 87.2527V77.7829C78 71.5034 73.5801 65.995 67.1935 64.3143Z" fill="#494949"/>
<path d="M15.5055 63.7969L25.6256 61L31 89H6.79306C5.80291 89 5 88.2012 5 87.216V77.5478C5 71.1367 9.29678 65.5129 15.5055 63.7969Z" fill="#636363"/>
<path d="M48 59.8141L42.9215 66.3065C42.1991 67.2312 40.8009 67.2312 40.0778 66.3065L35 59.8141V45H48V59.8141Z" fill="#F9B3A7"/>
<path d="M58 20H63V27H58L58 20Z" fill="#F27D27"/>
<path d="M76 20.3908C76 18.7428 74.9233 17.3406 73.412 16.7908V1.35934C73.412 0.608527 72.7793 0 72.0004 0C71.2207 0 70.588 0.608527 70.588 1.35934V16.7908C69.0767 17.3406 68 18.7428 68 20.3908C68 22.0382 69.0767 23.4404 70.588 23.9909V27.6407C70.588 28.3915 71.2207 29 72.0004 29C72.7793 29 73.412 28.3915 73.412 27.6407V23.9909C74.9233 23.4404 76 22.0389 76 20.3908Z" fill="#FFD664"/>
<path d="M73.3327 17C73.7573 17.6172 74.0064 18.3645 74.0064 19.1703C74.0064 21.2889 72.2889 23.0071 70.1696 23.0071C69.3638 23.0071 68.6172 22.7573 68 22.3334C68.6915 23.3394 69.8496 24 71.1632 24C73.2818 24 75 22.2825 75 20.1632C75 18.8496 74.3394 17.6915 73.3327 17Z" fill="#F9C646"/>
<path d="M73.6684 0H8.33156C7.59609 0 7 0.60767 7 1.35743C7 2.10719 7.59609 2.71486 8.33156 2.71486H19.6944V20H62.3056V2.71486H73.6684C74.4039 2.71486 75 2.10719 75 1.35743C75 0.60767 74.4032 0 73.6684 0Z" fill="#636363"/>
<path d="M59.5957 3V14.2148C59.5957 14.8457 57.9911 16.4399 56.0124 16.4399H20V20H63V3H59.5957Z" fill="#494949"/>
<path d="M20 20H25V27H20V20Z" fill="#FF933B"/>
<path d="M42 20H25V33.012C25 42.3945 32.6109 50 42 50C51.3891 50 59 42.3945 59 33.012V20L42 20Z" fill="#FECCC1"/>
<path d="M53.0743 20V33.012C53.0743 41.5342 46.9647 48.5909 39 49.8127C39.8038 49.9359 40.6258 50 41.4632 50C50.5964 50 58 42.3945 58 33.012V20L53.0743 20Z" fill="#F9B3A7"/>
<path d="M21.5003 36H25V26H21.5003C19.5671 26 18 27.6584 18 29.7043V32.2964C18.0007 34.3423 19.5671 36 21.5003 36Z" fill="#FECCC1"/>
<path d="M60.4997 36H57V26H60.4997C62.4329 26 64 27.6584 64 29.7043V32.2964C63.9993 34.3423 62.4329 36 60.4997 36Z" fill="#F9B3A7"/>
<path d="M62.3447 89V83.4389C62.3447 82.6966 62.9396 82.0936 63.6721 82.0936C64.4052 82.0936 64.9994 82.6966 64.9994 83.4389V89H62.3447Z" fill="#494949"/>
<path d="M17.0371 89V83.4389C17.0371 82.6966 17.6313 82.0936 18.3644 82.0936C19.0969 82.0936 19.6918 82.6966 19.6918 83.4389V89H17.0371Z" fill="#494949"/>
</svg>
