<svg width="93" height="89" viewBox="0 0 93 89" fill="none" xmlns="http://www.w3.org/2000/svg">
<mask id="mask0" mask-type="alpha" maskUnits="userSpaceOnUse" x="22" y="0" width="38" height="88">
<path fill-rule="evenodd" clip-rule="evenodd" d="M22.46 0.176758H59.4219V88H22.46V0.176758Z" fill="white"/>
</mask>
<g mask="url(#mask0)">
<path fill-rule="evenodd" clip-rule="evenodd" d="M40.9394 2.71627C32.3195 2.71627 25.0379 21.6618 25.0379 44.087C25.0379 66.5121 32.3195 85.4589 40.9394 85.4589C49.5606 85.4589 56.8439 66.5121 56.8439 44.087C56.8439 21.6618 49.5606 2.71627 40.9394 2.71627ZM40.9394 88.0002C30.5751 88.0002 22.46 68.7103 22.46 44.087C22.46 19.4636 30.5751 0.176758 40.9394 0.176758C51.3044 0.176758 59.4219 19.4636 59.4219 44.087C59.4219 68.7103 51.3044 88.0002 40.9394 88.0002Z" fill="#F7AE58"/>
</g>
<mask id="mask1" mask-type="alpha" maskUnits="userSpaceOnUse" x="0" y="9" width="82" height="72">
<path fill-rule="evenodd" clip-rule="evenodd" d="M0 9.39157H81.8796V80.782H0V9.39157Z" fill="white"/>
</mask>
<g mask="url(#mask1)">
<path fill-rule="evenodd" clip-rule="evenodd" d="M72.0275 11.959C62.4413 11.959 45.8941 20.3836 30.8509 32.9284C20.7715 41.3296 12.4273 50.569 7.35765 58.9372C2.58967 66.8038 1.29144 73.0474 3.79035 76.0582C4.98024 77.4916 7.01827 78.2182 9.85356 78.2182C19.4404 78.2182 35.9882 69.7936 51.0289 57.2494C61.1113 48.847 69.452 39.6094 74.5234 31.2388C79.2896 23.371 80.5884 17.1304 78.0889 14.1178C76.9002 12.6844 74.8622 11.959 72.0275 11.959ZM9.85356 80.782C6.22341 80.782 3.5216 79.7452 1.82414 77.6998C-1.46663 73.7344 -0.277932 66.5986 5.17118 57.6058C10.3839 48.9994 18.9208 39.5356 29.2133 30.9526C44.9262 17.8558 61.7308 9.39157 72.0275 9.39157C75.6559 9.39157 78.3589 10.4308 80.0563 12.478C83.3453 16.4428 82.1578 23.5768 76.7111 32.5714C71.4978 41.176 62.9596 50.6416 52.6683 59.2228C36.9567 72.3214 20.1532 80.782 9.85356 80.782Z" fill="#F7AE58"/>
</g>
<path fill-rule="evenodd" clip-rule="evenodd" d="M9.86703 11.5534C7.02821 11.5534 4.98721 12.2748 3.79917 13.698C1.29303 16.6965 2.59315 22.903 7.36628 30.7277C12.4451 39.0526 20.8015 48.2396 30.8956 56.5961C45.9607 69.0693 62.5303 77.4502 72.1323 77.4502C74.9711 77.4502 77.0121 76.7276 78.2025 75.302C80.7081 72.3077 79.405 66.0982 74.6318 58.2747C69.553 49.9522 61.2002 40.7633 51.1031 32.4081C36.0398 19.9319 19.4666 11.5534 9.86703 11.5534ZM72.1323 80C61.817 80 44.9878 71.5857 29.2556 58.5587C18.9481 50.0244 10.3987 40.6106 5.17842 32.053C-0.278636 23.1076 -1.46907 16.0126 1.8277 12.0671C3.52644 10.0335 6.23219 9 9.86703 9C20.1823 9 37.0103 17.4179 52.7449 30.4431C63.0512 38.9792 71.6018 48.3912 76.8215 56.9505C82.2773 65.8942 83.4696 72.9909 80.1728 76.9347C78.4729 78.9689 75.7659 80 72.1323 80Z" fill="#F7AE58"/>
<path fill-rule="evenodd" clip-rule="evenodd" d="M52 44C52 50.0746 47.0744 55 40.9997 55C34.9256 55 30 50.0746 30 44C30 37.923 34.9256 33 40.9997 33C47.0744 33 52 37.923 52 44Z" fill="#EA3663"/>
<path fill-rule="evenodd" clip-rule="evenodd" d="M83 60.4977C83 63.5367 80.5352 66 77.5006 66C74.4624 66 72 63.5367 72 60.4977C72 57.4633 74.4624 55 77.5006 55C80.5352 55 83 57.4633 83 60.4977Z" fill="#00A09A"/>
<path fill-rule="evenodd" clip-rule="evenodd" d="M14 53.5006C14 56.5394 11.5375 59 8.50058 59C5.4654 59 3 56.5394 3 53.5006C3 50.4629 5.4654 48 8.50058 48C11.5375 48 14 50.4629 14 53.5006Z" fill="#00A09A"/>
<path fill-rule="evenodd" clip-rule="evenodd" d="M40 6.5C40 9.53731 37.5382 12 34.4994 12C31.4613 12 29 9.53731 29 6.5C29 3.46152 31.4613 1 34.4994 1C37.5382 1 40 3.46152 40 6.5Z" fill="#00A09A"/>
<mask id="mask2" mask-type="alpha" maskUnits="userSpaceOnUse" x="63" y="30" width="30" height="59">
<path fill-rule="evenodd" clip-rule="evenodd" d="M63.1719 30.1689H92.789V89H63.1719V30.1689Z" fill="white"/>
</mask>
<g mask="url(#mask2)">
<path fill-rule="evenodd" clip-rule="evenodd" d="M92.7891 33.9866C92.7891 31.8787 91.0671 30.1689 88.9437 30.1689H67.0167C64.8939 30.1689 63.1719 31.8787 63.1719 33.9866C63.1719 35.9944 64.7337 37.6345 66.7125 37.7906V78.2551C66.7125 84.1902 71.5575 89.0002 77.5287 89.0002H78.4305C84.4035 89.0002 89.2473 84.1902 89.2473 78.2551V37.7906C91.2273 37.6345 92.7891 35.9944 92.7891 33.9866Z" fill="#7BBAC6"/>
</g>
<path fill-rule="evenodd" clip-rule="evenodd" d="M69 50V78.3068C69 83.1076 72.8681 87 77.6408 87H78.3615C83.1342 87 87 83.1076 87 78.3068V50H69Z" fill="#EA3663"/>
<path fill-rule="evenodd" clip-rule="evenodd" d="M76 42.9994C76 44.1026 75.1064 45 74.0019 45C72.8948 45 72 44.1026 72 42.9994C72 41.8961 72.8948 41 74.0019 41C75.1064 41 76 41.8961 76 42.9994Z" fill="#EA3663"/>
<path fill-rule="evenodd" clip-rule="evenodd" d="M84 37.9994C84 39.1051 83.1037 40 82.0016 40C80.8963 40 80 39.1051 80 37.9994C80 36.8961 80.8963 36 82.0016 36C83.1037 36 84 36.8961 84 37.9994Z" fill="#EA3663"/>
<path fill-rule="evenodd" clip-rule="evenodd" d="M76 33.5006C76 34.3308 75.3303 35 74.4991 35C73.6714 35 73 34.3308 73 33.5006C73 32.6716 73.6714 32 74.4991 32C75.3303 32 76 32.6716 76 33.5006Z" fill="#EA3663"/>
<path fill-rule="evenodd" clip-rule="evenodd" d="M83 25.5C83 26.3289 82.3309 27 81.5003 27C80.6716 27 80 26.3289 80 25.5C80 24.6711 80.6716 24 81.5003 24C82.3309 24 83 24.6711 83 25.5Z" fill="#EA3663"/>
<path fill-rule="evenodd" clip-rule="evenodd" d="M75 21.4988C75 22.3277 74.3299 23 73.4988 23C72.6732 23 72 22.3277 72 21.4988C72 20.6699 72.6732 20 73.4988 20C74.3299 20 75 20.6699 75 21.4988Z" fill="#EA3663"/>
</svg>
