<svg width="1440" height="1374" viewBox="0 0 1440 1374" fill="none" xmlns="http://www.w3.org/2000/svg">
<g clip-path="url(#clip0)">
<path fill-rule="evenodd" clip-rule="evenodd" d="M1549.17 1249.51C1372.71 1515.21 516.47 1220.1 86.371 1356.54C-182.202 1441.73 -277.26 1051.02 -142.895 420.826C-62.0854 41.8138 113.364 33.7315 351.057 68.677C983.968 161.727 1294.7 -113.648 1488.3 101.367C1681.9 316.383 1725.64 983.812 1549.17 1249.51Z" fill="url(#paint0_linear)"/>
<path fill-rule="evenodd" clip-rule="evenodd" d="M1225.1 702.009C1231.79 705.327 1238.13 709.847 1242.53 716.082C1244.02 718.196 1248.38 732.184 1249.74 732.255C1236.21 732.556 1212.26 732.367 1205.78 717.113C1199.73 702.868 1214.23 696.62 1225.1 702.009M1291.95 856.731C1291.62 856.053 1291.27 855.383 1290.93 854.703C1288.37 854.452 1285.8 854.223 1283.23 854.06C1286.16 854.815 1289.07 855.733 1291.95 856.731M1287.23 820.111C1287.35 820.435 1287.47 820.761 1287.59 821.085C1288.6 819.563 1290.03 817.609 1291.52 815.682C1291.82 814.974 1291.98 814.577 1291.94 814.692C1290.4 816.521 1288.85 818.381 1287.23 820.111M1318.97 869.215C1319.08 868.677 1319.47 867.975 1320.21 867.066C1319.58 867.5 1318.84 868.074 1317.93 868.43C1318.28 868.692 1318.62 868.954 1318.97 869.215M1384.2 961.82C1384.74 962.18 1385.27 962.556 1385.81 962.927C1385.42 962.532 1385.02 962.137 1384.63 961.745C1384.49 961.768 1384.35 961.792 1384.2 961.82M1372.92 968.601C1372.99 968.613 1373.06 968.623 1373.13 968.636C1373.53 968.462 1373.92 968.283 1374.31 968.111C1373.91 968.289 1373.43 968.448 1372.92 968.601M1350.42 975.494C1350.65 975.714 1353.17 977.838 1350.42 975.494ZM1442.45 1019.57C1444.81 1019.26 1447.3 1019.27 1449.61 1019.1C1448.44 1017.84 1447.28 1016.59 1446.12 1015.33C1444.46 1015.91 1442.67 1016.73 1440.82 1017.68C1441.49 1018.02 1442.05 1018.71 1442.45 1019.57M1416.21 1030.3C1416.04 1030.6 1415.88 1030.9 1415.74 1031.18C1416.52 1030.71 1417.28 1030.16 1418.04 1029.62C1417.36 1029.84 1416.74 1030.06 1416.21 1030.3M1545.5 1049.32C1543.4 1051 1541.7 1053.4 1540.74 1055.71C1542.35 1053.59 1543.93 1051.46 1545.5 1049.32M1252.75 707.314C1252.75 707.342 1251.69 700.716 1251.49 699.661C1251.53 700.304 1251.49 701.092 1251.43 701.963C1251.8 703.275 1252.08 704.639 1252.23 706.062C1251.95 704.751 1251.68 703.442 1251.42 702.131C1251.14 705.656 1250.45 710.479 1252.35 712.988C1252.45 710.618 1252.46 708.282 1252.23 706.062C1252.51 707.406 1252.81 708.751 1253.11 710.096C1253.03 709.167 1252.93 708.241 1252.75 707.314M1214.63 771C1222.3 765.141 1234.2 768.876 1241.93 772.335C1244.9 773.669 1252.51 777.935 1258.15 782.737C1257.4 779.409 1256.74 776.052 1256.16 772.667C1253.77 758.751 1252.13 744.571 1251.33 730.474C1251.06 725.551 1251.63 719.856 1251.93 714.292C1251.62 713.96 1251.41 713.501 1251.32 712.878C1251.16 714.137 1251.34 714.181 1250.73 713.277C1245.02 704.745 1240.22 695.131 1239.56 684.562C1239.01 675.599 1246.37 658.64 1256.82 670.381C1261.49 675.624 1260.28 712.447 1253.26 714.704C1255.14 726.906 1257.49 739.087 1260.45 751.113C1260.89 751.035 1261.34 751.028 1261.79 751.089C1261.75 748.099 1261.74 744.837 1261.86 743.715C1262.92 734.05 1270.99 714.43 1283.85 718.24C1293.73 721.168 1287.67 733.219 1284.31 738.494C1278.9 746.986 1272.78 750.663 1265.02 755.079C1264.87 756.904 1263.69 757.965 1262.3 758.31C1267.49 777.733 1274.32 796.676 1283.24 814.569C1284.42 808.922 1285.87 801.762 1286.77 800.338C1291.15 793.378 1300.83 784.876 1309.76 788.996C1328.52 797.658 1308.16 822.552 1292.19 825.26C1291.53 826.177 1290.83 826.914 1290.08 827.337C1293.18 832.739 1296.5 838.027 1300.05 843.18C1305.37 850.93 1311.09 858.656 1317.08 866.336C1317.27 860.328 1319.64 846.939 1320.31 845.501C1324.41 836.765 1336.21 827.776 1345.79 833.983C1356.55 840.981 1346.79 854.203 1340.65 860.187C1338.13 862.64 1325.68 871.631 1321.29 871.671C1335.77 889.782 1351.76 907.584 1368.02 924.741C1366.67 917.06 1364.91 895.908 1365.11 893.561C1366.12 881.444 1374.08 862.063 1389.78 866.786C1405 871.361 1398.27 891.495 1393.06 901.093C1389.9 906.901 1385.54 912.803 1380.27 916.854C1378.18 918.464 1374.67 919.422 1372.89 921.155C1371.11 922.892 1371.87 925.158 1369.96 926.794C1378.75 936.026 1387.6 945.066 1396.32 953.855C1400.43 958.003 1404.62 962.071 1408.85 966.088C1411.17 965.128 1414.47 966.391 1414.3 969.668C1414.27 970.144 1414.16 970.554 1414.01 970.931C1417.22 973.913 1420.45 976.874 1423.7 979.803C1423.62 978.95 1423.64 977.747 1423.79 976.085C1420.63 980.592 1421.92 970.116 1421.59 967.792C1420.51 960.34 1418.43 953.118 1418.5 945.516C1418.61 934.524 1425.57 916.098 1440.22 922.644C1453.69 928.652 1448.79 944.944 1443.71 955.157C1440.49 961.621 1436.09 967.392 1431.49 972.917C1429.45 975.367 1426.86 979.972 1425.22 981.177C1443.34 997.412 1462.07 1012.96 1480.52 1028.81C1480.77 1027.74 1480.98 1026.67 1481.15 1025.67C1480.8 1026.07 1480.31 1026.26 1479.69 1026.22C1477.49 1015.32 1462.34 957.165 1493.8 967.434C1515.11 974.408 1500.07 1017.04 1484.18 1031.96C1493.82 1040.29 1503.38 1048.72 1512.7 1057.41C1519.45 1063.69 1526 1070.19 1532.3 1076.91C1529.04 1068.21 1525.97 1056.95 1527.99 1047.99C1530.92 1034.95 1544.68 1022.64 1558.11 1030.06C1583.4 1044.1 1541.09 1065.88 1536.07 1080.98C1556.1 1103.02 1573.2 1127.49 1584.63 1155.38C1597.05 1185.7 1608.59 1226.44 1602.21 1260.36C1603.55 1243.42 1596.86 1221.55 1593.47 1208.53C1588.15 1188.13 1580.6 1168.28 1570.65 1149.7C1554.7 1119.94 1533.65 1094.68 1509.33 1071.75C1500.4 1074.86 1490.23 1082.25 1485.16 1084.44C1475.86 1088.45 1458 1094.21 1452.07 1081.56C1446.24 1069.13 1461.11 1062.18 1470.33 1059.39C1479.24 1056.7 1487.27 1057.03 1495.58 1059.23C1480.34 1045.72 1464.67 1032.71 1449.08 1019.62C1435.09 1031.09 1415.01 1063.88 1397.66 1046.84C1377.75 1027.29 1415.83 1007.42 1432.05 1008.97C1434.05 1009.16 1435.97 1009.58 1437.85 1010.15C1421.31 996.099 1405.02 981.759 1389.61 966.412C1380.63 968.049 1354.41 1007.28 1336.6 990.074C1327.71 981.477 1330.75 968.088 1339.35 960.433C1347.98 952.745 1360.49 952.759 1371.13 955.349C1375.73 956.463 1379.97 958.589 1383.92 961.18C1384.09 961.189 1384.25 961.199 1384.41 961.207C1369.25 945.945 1354 930.34 1339.31 914.203C1339.06 914.285 1338.79 914.37 1338.53 914.456C1337.64 915.544 1336.15 915.942 1334.79 915.702C1322.88 919.783 1306.68 925.824 1294.31 923.447C1285.77 921.807 1278.03 914.865 1285.25 906.32C1291.12 899.37 1307.06 900.369 1314.83 902.015C1320.22 903.158 1326.28 907.378 1332.1 910.328C1332.55 909.425 1333.33 908.846 1334.22 908.568C1319.71 892.351 1305.87 875.574 1293.31 858.068C1280.37 860.074 1262.62 874.621 1251.21 861.06C1239.32 846.915 1261.69 838.661 1272.32 840.005C1275.91 840.458 1279.45 841.476 1282.87 842.821C1273.73 828.408 1266.75 813.003 1261.85 796.823C1261.73 796.885 1261.63 796.95 1261.49 797.011C1261.62 796.941 1261.72 796.866 1261.84 796.796C1261.35 795.178 1260.89 793.552 1260.44 791.92C1259.61 791.457 1258.83 791.117 1258.46 790.977C1263.29 794.309 1242.91 795.939 1239.09 796.244C1230.66 796.917 1219.35 797.169 1213.16 790.253C1207.96 784.443 1208.26 775.861 1214.63 771M1603.12 1260.41C1602.76 1265.33 1601.87 1269.83 1600.22 1273.54C1601.46 1269.31 1602.41 1264.92 1603.12 1260.41" fill="url(#paint1_linear)"/>
<path fill-rule="evenodd" clip-rule="evenodd" d="M187.106 266.009C180.419 269.327 174.081 273.847 169.678 280.082C168.186 282.196 163.825 296.184 162.471 296.255C175.999 296.556 199.952 296.367 206.431 281.113C212.48 266.868 197.982 260.62 187.106 266.009M120.254 420.731C120.592 420.053 120.942 419.383 121.278 418.703C123.843 418.452 126.408 418.223 128.976 418.06C126.049 418.815 123.142 419.733 120.254 420.731M124.981 384.111C124.858 384.435 124.741 384.761 124.617 385.085C123.606 383.563 122.175 381.609 120.684 379.682C120.39 378.974 120.229 378.577 120.272 378.692C121.809 380.521 123.361 382.381 124.981 384.111M93.2337 433.215C93.1256 432.677 92.74 431.975 91.9947 431.066C92.63 431.5 93.373 432.074 94.2816 432.43C93.9329 432.692 93.5859 432.954 93.2337 433.215M28.005 525.82C27.4634 526.18 26.9336 526.556 26.3992 526.927C26.7906 526.532 27.1842 526.137 27.5779 525.745C27.7188 525.768 27.8596 525.792 28.005 525.82M39.2904 532.601C39.2158 532.613 39.152 532.623 39.0774 532.636C38.6828 532.462 38.2901 532.283 37.8956 532.111C38.3015 532.289 38.7751 532.448 39.2904 532.601M61.7858 539.494C61.5625 539.714 59.0418 541.838 61.7858 539.494ZM-30.246 583.567C-32.6002 583.263 -35.094 583.268 -37.397 583.097C-36.2357 581.843 -35.0758 580.589 -33.9147 579.333C-32.2559 579.912 -30.4621 580.725 -28.6094 581.68C-29.2843 582.021 -29.8424 582.709 -30.246 583.567M-3.997 594.298C-3.82914 594.601 -3.6696 594.898 -3.53162 595.181C-4.31471 594.706 -5.07109 594.161 -5.82871 593.623C-5.15054 593.836 -4.52945 594.058 -3.997 594.298M-133.294 613.317C-131.193 614.997 -129.494 617.404 -128.528 619.708C-130.137 617.589 -131.725 615.459 -133.294 613.317M159.459 271.314C159.455 271.342 160.514 264.716 160.721 263.661C160.679 264.304 160.714 265.092 160.779 265.963C160.405 267.275 160.129 268.639 159.98 270.062C160.261 268.751 160.526 267.442 160.791 266.131C161.065 269.656 161.755 274.479 159.857 276.988C159.759 274.618 159.747 272.282 159.98 270.062C159.694 271.406 159.398 272.751 159.094 274.096C159.176 273.167 159.282 272.241 159.459 271.314M197.579 335C189.908 329.141 178.005 332.876 170.282 336.335C167.306 337.669 159.701 341.935 154.06 346.737C154.806 343.409 155.471 340.052 156.051 336.667C158.438 322.751 160.083 308.571 160.874 294.474C161.149 289.551 160.576 283.856 160.281 278.292C160.59 277.96 160.799 277.501 160.886 276.878C161.045 278.137 160.87 278.181 161.483 277.277C167.191 268.745 171.984 259.131 172.643 248.562C173.201 239.599 165.834 222.64 155.389 234.381C150.717 239.624 151.929 276.447 158.946 278.704C157.071 290.906 154.713 303.087 151.76 315.113C151.317 315.035 150.866 315.028 150.42 315.089C150.462 312.099 150.467 308.837 150.345 307.715C149.293 298.05 141.218 278.43 128.36 282.24C118.48 285.168 124.535 297.219 127.897 302.494C133.309 310.986 139.432 314.663 147.185 319.079C147.34 320.904 148.517 321.965 149.907 322.31C144.715 341.733 137.893 360.676 128.966 378.569C127.785 372.922 126.333 365.762 125.437 364.338C121.063 357.378 111.378 348.876 102.447 352.996C83.6885 361.658 104.048 386.552 120.017 389.26C120.681 390.177 121.383 390.914 122.13 391.337C119.027 396.739 115.711 402.027 112.162 407.18C106.84 414.93 101.121 422.656 95.1247 430.336C94.9399 424.328 92.5673 410.939 91.8944 409.501C87.8002 400.765 75.9983 391.776 66.4229 397.983C55.6538 404.981 65.4175 418.203 71.5598 424.187C74.0771 426.64 86.5292 435.631 90.9215 435.671C76.4346 453.782 60.4445 471.584 44.187 488.741C45.5341 481.06 47.2943 459.908 47.0979 457.561C46.0894 445.444 38.1247 426.063 22.4313 430.786C7.20597 435.361 13.9404 455.495 19.1517 465.093C22.3082 470.901 26.6729 476.803 31.9365 480.854C34.0292 482.464 37.5346 483.422 39.3143 485.155C41.0969 486.892 40.3387 489.158 42.2447 490.794C33.4586 500.026 24.6112 509.066 15.8904 517.855C11.7757 522.003 7.5863 526.071 3.35549 530.088C1.04096 529.128 -2.25949 530.391 -2.08774 533.668C-2.06279 534.144 -1.95276 534.554 -1.80439 534.931C-5.01056 537.913 -8.23721 540.874 -11.489 543.803C-11.4148 542.95 -11.4364 541.747 -11.5857 540.085C-8.41723 544.592 -9.7159 534.116 -9.37849 531.792C-8.29871 524.34 -6.22624 517.118 -6.29547 509.516C-6.39713 498.524 -13.3588 480.098 -28.0106 486.644C-41.4831 492.652 -36.5821 508.944 -31.5004 519.157C-28.2833 525.621 -23.8812 531.392 -19.2803 536.917C-17.2417 539.367 -14.6477 543.972 -13.016 545.177C-31.1283 561.412 -49.8578 576.956 -68.3136 592.812C-68.5623 591.735 -68.7676 590.668 -68.9444 589.67C-68.5871 590.073 -68.1015 590.261 -67.4782 590.224C-65.2832 579.324 -50.1329 521.165 -81.5927 531.434C-102.897 538.408 -87.8616 581.044 -71.9731 595.958C-81.6158 604.286 -91.1671 612.72 -100.495 621.406C-107.245 627.691 -113.795 634.191 -120.096 640.908C-116.835 632.211 -113.763 620.952 -115.779 611.992C-118.714 598.953 -132.468 586.642 -145.899 594.062C-171.19 608.096 -128.886 629.879 -123.86 644.984C-143.89 667.017 -160.991 691.494 -172.418 719.377C-184.846 749.699 -196.383 790.441 -190.005 824.364C-191.343 807.417 -184.656 785.547 -181.262 772.526C-175.945 752.126 -168.392 732.277 -158.438 713.698C-142.495 683.943 -121.437 658.684 -97.1249 635.75C-88.194 638.862 -78.0222 646.252 -72.9489 648.441C-63.647 652.455 -45.7876 658.208 -39.8609 645.563C-34.0338 633.129 -48.9062 626.176 -58.123 623.39C-67.0304 620.701 -75.0606 621.026 -83.3699 623.231C-68.1343 609.718 -52.4587 596.713 -36.8679 583.617C-22.8862 595.085 -2.80616 627.878 14.5448 610.839C34.4556 591.286 -3.62267 571.416 -19.846 572.968C-21.8376 573.157 -23.7644 573.577 -25.6432 574.149C-9.09834 560.099 7.19072 545.759 22.5956 530.412C31.5752 532.049 57.802 571.282 75.6047 554.074C84.4988 545.477 81.4541 532.088 72.8576 524.433C64.2277 516.745 51.7149 516.759 41.08 519.349C36.4826 520.463 32.2413 522.589 28.287 525.18C28.1188 525.189 27.9574 525.199 27.7961 525.207C42.9551 509.945 58.2069 494.34 72.8968 478.203C73.1529 478.285 73.416 478.37 73.6791 478.456C74.5675 479.544 76.0545 479.942 77.4167 479.702C89.3252 483.783 105.526 489.824 117.902 487.447C126.438 485.807 134.182 478.865 126.958 470.32C121.085 463.37 105.149 464.369 97.3777 466.015C91.9921 467.158 85.9281 471.378 80.1089 474.328C79.6618 473.425 78.8818 472.846 77.9931 472.568C92.4991 456.351 106.341 439.574 118.895 422.068C131.838 424.074 149.591 438.621 160.995 425.06C172.889 410.915 150.522 402.661 139.89 404.005C136.299 404.458 132.759 405.476 129.341 406.821C138.477 392.408 145.454 377.003 150.356 360.823C150.478 360.885 150.576 360.95 150.714 361.011C150.586 360.941 150.484 360.866 150.364 360.796C150.853 359.178 151.323 357.552 151.77 355.92C152.6 355.457 153.376 355.117 153.748 354.977C148.917 358.309 169.298 359.939 173.115 360.244C181.553 360.917 192.856 361.169 199.047 354.253C204.247 348.443 203.943 339.861 197.579 335M-190.911 824.411C-190.553 829.327 -189.665 833.829 -188.007 837.54C-189.25 833.314 -190.204 828.922 -190.911 824.411" fill="url(#paint2_linear)"/>
</g>
<defs>
<linearGradient id="paint0_linear" x1="831.574" y1="-628" x2="2090.21" y2="769.855" gradientUnits="userSpaceOnUse">
<stop stop-color="#455998"/>
<stop offset="1" stop-color="#212D5F"/>
</linearGradient>
<linearGradient id="paint1_linear" x1="1633.2" y1="686.462" x2="1602.42" y2="1273.66" gradientUnits="userSpaceOnUse">
<stop stop-color="#E91E51"/>
<stop offset="1" stop-color="#E2F4F5"/>
</linearGradient>
<linearGradient id="paint2_linear" x1="-220.99" y1="250.462" x2="-190.216" y2="837.656" gradientUnits="userSpaceOnUse">
<stop stop-color="#E91D50"/>
<stop offset="1" stop-color="#E2F4F5"/>
</linearGradient>
<clipPath id="clip0">
<rect width="1440" height="1374" fill="white"/>
</clipPath>
</defs>
</svg>
