<svg width="214" height="124" viewBox="0 0 214 124" fill="none" xmlns="http://www.w3.org/2000/svg">
<path d="M81 89V110.857L99.9733 123H113.324L133 110.163V89" stroke="#212D5F" stroke-width="2"/>
<path d="M81 70V62.6922L92.6866 51C92.6866 51 96.9401 56.0719 106.488 56.157C116.568 56.246 120.867 51 120.867 51L133 63.1792V69.4607" stroke="#212D5F" stroke-width="2"/>
<path fill-rule="evenodd" clip-rule="evenodd" d="M128 79C128 82.8661 124.866 86 121 86C117.134 86 114 82.8661 114 79C114 75.1339 117.134 72 121 72C124.866 72 128 75.1339 128 79Z" stroke="#212D5F" stroke-width="2"/>
<path d="M86 79C86 75.1339 89.1339 72 93 72C96.8661 72 100 75.1339 100 79" stroke="#212D5F" stroke-width="2"/>
<path d="M121 101C119.772 104.418 114.153 107 107.407 107C100.956 107 95.5362 104.64 94 101.444" stroke="#212D5F" stroke-width="2"/>
<path fill-rule="evenodd" clip-rule="evenodd" d="M163 83.5C163 85.9851 160.985 88 158.5 88C156.015 88 154 85.9851 154 83.5C154 81.0149 156.015 79 158.5 79C160.985 79 163 81.0149 163 83.5Z" stroke="#212D5F" stroke-width="2"/>
<path fill-rule="evenodd" clip-rule="evenodd" d="M190 83.5C190 85.9851 187.985 88 185.5 88C183.015 88 181 85.9851 181 83.5C181 81.0149 183.015 79 185.5 79C187.985 79 190 81.0149 190 83.5Z" stroke="#212D5F" stroke-width="2"/>
<path d="M54.3665 123L59 101.496L46.3685 95L43 100.911L49.5397 104.649" stroke="#212D5F" stroke-width="2"/>
<path d="M29 123L25 102" stroke="#212D5F" stroke-width="2"/>
<path d="M33.0548 87.1249L30 74.3705L32.1564 70H36.5589L38.446 74.0934L41.4105 90.7287L44.4653 74.0005L46.621 70H51.1137L53 73.9084L47.4722 96" stroke="#212D5F" stroke-width="2"/>
<path fill-rule="evenodd" clip-rule="evenodd" d="M22 102H35V88H22V102Z" stroke="#212D5F" stroke-width="2"/>
<path d="M29 88V102" stroke="#212D5F" stroke-width="2"/>
<path fill-rule="evenodd" clip-rule="evenodd" d="M121 81C123.664 81 123.669 77 121 77C118.336 77 118.331 81 121 81Z" fill="#212D5F"/>
<path d="M154 100V110.154L155.258 123H161.595L163 110.039V100" stroke="#212D5F" stroke-width="2"/>
<path d="M181 100V110.154L182.258 123H188.595L190 110.039V100" stroke="#212D5F" stroke-width="2"/>
<path d="M149 109V96.2103L155 91" stroke="#212D5F" stroke-width="2"/>
<path d="M163 91L168.305 96.2111L171.532 109L174.413 96.2111L180 91" stroke="#212D5F" stroke-width="2"/>
<path d="M190 91L195.263 96.2111L196 109" stroke="#212D5F" stroke-width="2"/>
<path d="M72 67L47.7614 60.7242L29.5823 64.8853C29.5823 64.8853 25.4716 65.7367 24.3036 62.0277C23.4576 59.3428 26.1617 57.5189 26.1617 57.5189L42.2991 53.6662L22.8486 58.31C22.8486 58.31 18.3316 59.4761 16.5315 56.0427C14.2138 51.6206 19.3255 49.5943 19.3255 49.5943L36.2015 45.6404L16.8845 50.1661C16.8845 50.1661 11.7522 51.5483 10.472 47.8739C8.8898 43.3322 13.4728 41.7628 13.4728 41.7628L28.9001 38.6755L11.4985 42.158L7.57232 42.9434C6.54585 43.149 5.48598 43.1643 4.46507 42.9354C2.89952 42.5844 1.00719 41.6825 1.00003 39.3702C0.98731 35.3995 4.81174 34.3 6.97997 33.4888C13.7168 30.967 28.194 29.2707 35.3746 29.0089C38.9056 28.8804 49.4621 30.1879 49.4621 30.1879L71.4029 53.0582" stroke="#212D5F" stroke-width="2"/>
<path d="M142 67L166.239 60.7242L184.419 64.8853C184.419 64.8853 188.528 65.7367 189.696 62.0277C190.542 59.3428 187.838 57.5189 187.838 57.5189L171.701 53.6662L191.151 58.31C191.151 58.31 195.668 59.4761 197.469 56.0427C199.786 51.6206 194.675 49.5943 194.675 49.5943L177.799 45.6404L197.115 50.1661C197.115 50.1661 202.248 51.5483 203.528 47.8739C205.11 43.3322 200.527 41.7628 200.527 41.7628L185.1 38.6755L202.501 42.158L206.428 42.9434C207.454 43.149 208.514 43.1643 209.535 42.9354C211.1 42.5844 212.993 41.6825 213 39.3702C213.013 35.3995 209.188 34.3 207.02 33.4888C200.283 30.967 185.806 29.2707 178.625 29.0089C175.094 28.8804 164.538 30.1879 164.538 30.1879L142.597 53.0582" stroke="#212D5F" stroke-width="2"/>
<path d="M106.5 16C121.687 16 134 20.4777 134 26C134 31.5231 121.687 36 106.5 36C91.3127 36 79 31.5231 79 26C79 23.0646 82.4788 20.4248 88.019 18.5948" stroke="#212D5F" stroke-width="2"/>
<path d="M103 30C93.3554 30 87 27.3141 87 24" stroke="white" stroke-width="2"/>
<path fill-rule="evenodd" clip-rule="evenodd" d="M67.6178 88L63 92.4317L67.4054 97L72 92.5923L67.6178 88Z" fill="#E91D50"/>
<path fill-rule="evenodd" clip-rule="evenodd" d="M172.618 68L168 72.4317L172.405 77L177 72.5915L172.618 68Z" fill="#E91D50"/>
<path fill-rule="evenodd" clip-rule="evenodd" d="M81.5 9L79.4484 6.55081L77 4.5L79.4484 2.4484L81.5 0L83.5508 2.4484L86 4.5L83.5508 6.55081L81.5 9Z" fill="#E91D50"/>
<path fill-rule="evenodd" clip-rule="evenodd" d="M68 27L65.8442 20.2524L61 18L65.8442 15.7476L68 9L70.1558 15.7476L75 18L70.1558 20.2524L68 27Z" fill="#E91D50"/>
</svg>
