<svg width="210" height="126" viewBox="0 0 210 126" fill="none" xmlns="http://www.w3.org/2000/svg">
<path d="M108 122H102.668L86.0327 110.705V90.7926L66.1987 70L54.2558 80.8683L72.3837 101.115H47.4313L33.5683 89.3935L21.4114 86.1959L18 87.4756" stroke="#212D5F" stroke-width="2"/>
<path d="M109 122H114.353L131.052 110.705V91.6515L150.963 70L164.245 81.4128L146.451 101.115H171.445L195 87.7616" stroke="#212D5F" stroke-width="2"/>
<path d="M67 70L59.6006 62.0593L56.3134 47L43 49.724L43.8222 55.011L52.5337 52.7678" stroke="#212D5F" stroke-width="2"/>
<path d="M55 81L48.0924 73.4844L33.684 65.2169L24.2949 54.4059L23 50.749L25.1039 49L28.3424 50.2717L37.4076 60.9245L40.9692 57.7448L34.1699 50.4308L31.1756 53.1801" stroke="#212D5F" stroke-width="2"/>
<path d="M48 48.9701L38.3259 38.3683L35.337 37L33 38.9996L34.1954 41.5263L43.7796 51.1054L44.6032 55.3485L42.4565 57L35.5537 49.6313L38.8695 46.6839" stroke="#212D5F" stroke-width="2"/>
<path fill-rule="evenodd" clip-rule="evenodd" d="M86.5572 79L73.3129 65.6251L79.3203 61.6677L71 47.0276H79.8797L79.284 39.0126H91.7458V31.9155L101.303 35.3275L108.782 24L116.458 35.3275L126.154 31.9155V39.1198H140.217L138.851 47.0276H148L139.807 61.8043L145.405 65.7625L131.478 79V70.8114L121.375 61.8043H96.9344L86.6558 70.9514L86.5572 79Z" stroke="#212D5F" stroke-width="2"/>
<path fill-rule="evenodd" clip-rule="evenodd" d="M126 84C126 86.7617 123.761 89 121 89C118.239 89 116 86.7617 116 84C116 81.2383 118.239 79 121 79C123.761 79 126 81.2383 126 84Z" stroke="#212D5F" stroke-width="2"/>
<path fill-rule="evenodd" clip-rule="evenodd" d="M120.5 86C122.498 86 122.502 83 120.5 83C118.502 83 118.498 86 120.5 86Z" fill="#212D5F"/>
<path fill-rule="evenodd" clip-rule="evenodd" d="M101 84C101 86.7617 98.761 89 96.0004 89C93.239 89 91 86.7617 91 84C91 81.2383 93.239 79 96.0004 79C98.761 79 101 81.2383 101 84Z" stroke="#212D5F" stroke-width="2"/>
<path fill-rule="evenodd" clip-rule="evenodd" d="M96.5003 86C98.4982 86 98.5016 83 96.5003 83C94.5016 83 94.4982 86 96.5003 86Z" fill="#212D5F"/>
<path d="M115 77C115 73.6866 117.687 71 121 71C124.313 71 127 73.6866 127 77" stroke="#212D5F" stroke-width="2"/>
<path d="M115 105C115 108.313 112.313 111 109 111C105.687 111 103 108.313 103 105" stroke="#E91D50" stroke-width="2"/>
<path d="M203 121C203 123.21 201.209 125 199 125C196.791 125 195 123.21 195 121" stroke="#212D5F" stroke-width="2"/>
<path d="M90 79H103" stroke="#212D5F" stroke-width="2"/>
<path d="M100 105H119" stroke="#212D5F" stroke-width="2"/>
<path d="M131 102H171" stroke="#212D5F" stroke-width="2"/>
<path d="M48 102H87" stroke="#212D5F" stroke-width="2"/>
<path d="M60 102V121" stroke="#212D5F" stroke-width="2"/>
<path d="M54 102V121" stroke="#212D5F" stroke-width="2"/>
<path d="M139 121H203" stroke="#212D5F" stroke-width="2"/>
<path d="M158 102V121" stroke="#212D5F" stroke-width="2"/>
<path d="M164 102V121" stroke="#212D5F" stroke-width="2"/>
<path fill-rule="evenodd" clip-rule="evenodd" d="M11.1885 86.485L16.8145 86L42 107.357V112.953L32.222 124H26.4438L22.2961 120.547L2 102.79V97.0463L11.1885 86.485Z" stroke="#212D5F" stroke-width="2"/>
<path fill-rule="evenodd" clip-rule="evenodd" d="M7 103.122L16.6499 92L35 108.119L25.8254 119L7 103.122Z" stroke="#212D5F" stroke-width="2"/>
<path d="M34 122L43.0521 121H79" stroke="#212D5F" stroke-width="2"/>
<path fill-rule="evenodd" clip-rule="evenodd" d="M2 108.753L10.6352 104L13 108.615L4.32589 113L2 108.753Z" fill="#BCBEC0"/>
<path fill-rule="evenodd" clip-rule="evenodd" d="M2 108.753L10.6352 104L13 108.615L4.32589 113L2 108.753Z" stroke="#212D5F" stroke-width="2"/>
<path fill-rule="evenodd" clip-rule="evenodd" d="M4 113.064L13.7833 108L16 112.115L6.1884 117L4 113.064Z" fill="#BCBEC0"/>
<path fill-rule="evenodd" clip-rule="evenodd" d="M4 113.064L13.7833 108L16 112.115L6.1884 117L4 113.064Z" stroke="#212D5F" stroke-width="2"/>
<path fill-rule="evenodd" clip-rule="evenodd" d="M7 116.888L15.7783 112L18 116.299L9.19333 121L7 116.888Z" fill="#BCBEC0"/>
<path fill-rule="evenodd" clip-rule="evenodd" d="M7 116.888L15.7783 112L18 116.299L9.19333 121L7 116.888Z" stroke="#212D5F" stroke-width="2"/>
<path fill-rule="evenodd" clip-rule="evenodd" d="M13 118.593L20.1659 115L23 118.902L16.5886 123L13 118.593Z" fill="#BCBEC0"/>
<path fill-rule="evenodd" clip-rule="evenodd" d="M13 118.593L20.1659 115L23 118.902L16.5886 123L13 118.593Z" stroke="#212D5F" stroke-width="2"/>
<path d="M164 82L193 48.9525V45.8985L190.287 45" stroke="#212D5F" stroke-width="2"/>
<path d="M180 58L190 45.8398V41.9933L187.515 41" stroke="#212D5F" stroke-width="2"/>
<path d="M176.147 55L187 42.3936V38.5053L184.431 37L173 51.9894" stroke="#212D5F" stroke-width="2"/>
<path d="M160 61L151 70" stroke="#212D5F" stroke-width="2"/>
<path fill-rule="evenodd" clip-rule="evenodd" d="M157 51C157 53.7619 159.239 56 162 56C164.761 56 167 53.7619 167 51C167 48.2381 164.761 46 162 46C159.239 46 157 48.2381 157 51Z" stroke="#212D5F" stroke-width="2"/>
<path d="M158 44.5369C159.535 43.5665 161.386 43 163.379 43C168.693 43 173 47.0293 173 52" stroke="#212D5F" stroke-width="2"/>
<path d="M159 60C156.042 58.5172 154 55.3592 154 51.7033C154 49.5487 154.708 47.5672 155.897 46L158.909 47.509" stroke="#212D5F" stroke-width="2"/>
<path d="M158 44L159 47" stroke="#212D5F" stroke-width="2"/>
<path d="M155 66L167 77" stroke="#212D5F" stroke-width="2"/>
<path d="M62 65L50 76" stroke="#212D5F" stroke-width="2"/>
<path d="M97 54H121" stroke="#212D5F" stroke-width="2"/>
<path fill-rule="evenodd" clip-rule="evenodd" d="M193 100H209V95H193V100Z" stroke="#212D5F" stroke-width="2"/>
<path fill-rule="evenodd" clip-rule="evenodd" d="M191 106H209V100H191V106Z" stroke="#212D5F" stroke-width="2"/>
<path fill-rule="evenodd" clip-rule="evenodd" d="M190 112H208V106H190V112Z" stroke="#212D5F" stroke-width="2"/>
<path fill-rule="evenodd" clip-rule="evenodd" d="M192 116H206V112H192V116Z" stroke="#212D5F" stroke-width="2"/>
<path fill-rule="evenodd" clip-rule="evenodd" d="M195 121H203V116H195V121Z" stroke="#212D5F" stroke-width="2"/>
<path fill-rule="evenodd" clip-rule="evenodd" d="M195 95V77L199.209 79.7403L204 77V95H195Z" stroke="#212D5F" stroke-width="2"/>
<path d="M208 96L204 90" stroke="#212D5F" stroke-width="2"/>
<path fill-rule="evenodd" clip-rule="evenodd" d="M202 70C202 71.1047 201.104 72 200 72C198.895 72 198 71.1047 198 70C198 68.8953 198.895 68 200 68C201.104 68 202 68.8953 202 70Z" stroke="#212D5F" stroke-width="2"/>
<path d="M195.028 74L193 70.0818L199.445 62L205 70.0818L203.101 74" stroke="#212D5F" stroke-width="2"/>
<path d="M200 68V62" stroke="#212D5F" stroke-width="2"/>
<path fill-rule="evenodd" clip-rule="evenodd" d="M153 2L137.121 17L129 9.50043L153 2Z" stroke="#E91D50" stroke-width="2"/>
<path d="M142.375 22.5449L139 25.3916V18.5846L147 27L154 2" stroke="#E91D50" stroke-width="2"/>
<path fill-rule="evenodd" clip-rule="evenodd" d="M67.5 30.4383C66.4297 30.4383 65.562 29.5707 65.562 28.5004C65.562 27.4302 66.4297 26.5617 67.5 26.5617C68.5703 26.5617 69.4388 27.4302 69.4388 28.5004C69.4388 29.5707 68.5703 30.4383 67.5 30.4383ZM67.5 23C64.4624 23 62 25.463 62 28.5004C62 31.5378 64.4624 34 67.5 34C70.5376 34 73 31.5378 73 28.5004C73 25.463 70.5376 23 67.5 23Z" fill="#E91D50"/>
<path fill-rule="evenodd" clip-rule="evenodd" d="M79.618 12L75 16.4324L79.405 21L84 16.5923L79.618 12Z" fill="#212D5F"/>
<path fill-rule="evenodd" clip-rule="evenodd" d="M183.592 73L180 76.4464L183.427 80L187 76.5715L183.592 73Z" fill="#E91D50"/>
<path d="M180.229 95.444L180 95" stroke="#212D5F"/>
<path d="M180 95L174.93 85.2186L169 78" stroke="#212D5F" stroke-dasharray="0.99 0.99"/>
<path d="M168.317 77.386L168 77" stroke="#212D5F"/>
<path d="M175.224 98.447L175 98" stroke="#212D5F"/>
<path d="M175 97L171.144 88.9745L165 82" stroke="#212D5F" stroke-dasharray="0.98 0.98"/>
<path d="M164.337 82.369L164 82" stroke="#212D5F"/>
<path d="M155.423 66.267L155 66" stroke="#212D5F"/>
<path d="M154 65L143 58" stroke="#212D5F" stroke-dasharray="0.98 0.98"/>
<path d="M142.423 58.267L142 58" stroke="#212D5F"/>
<path d="M150.387 70.317L150 70" stroke="#212D5F"/>
<path d="M150 69L146 66" stroke="#212D5F" stroke-dasharray="1.02 1.02"/>
<path d="M145.387 66.317L145 66" stroke="#212D5F"/>
<path d="M73.41 66L73 66.286" stroke="#212D5F"/>
<path d="M72 66L67 69" stroke="#212D5F" stroke-dasharray="0.92 0.92"/>
<path d="M67.41 70L67 70.286" stroke="#212D5F"/>
<path d="M76.449 57L76 57.219" stroke="#212D5F"/>
<path d="M75 57L69.1473 59.8927L64 64" stroke="#212D5F" stroke-dasharray="0.99 0.99"/>
<path d="M64.393 65L64 65.31" stroke="#212D5F"/>
<path d="M50.326 76L50 76.38" stroke="#212D5F"/>
<path d="M49 77L42.5103 84.3824L38 92" stroke="#212D5F" stroke-dasharray="1.01 1.01"/>
<path d="M38.25 93L38 93.433" stroke="#212D5F"/>
<path d="M54.353 81L54 81.354" stroke="#212D5F"/>
<path d="M54 82L48.0987 88.2147L44 97" stroke="#212D5F" stroke-dasharray="0.98 0.98"/>
<path d="M43.22 97L43 97.449" stroke="#212D5F"/>
</svg>
