<svg width="230" height="129" viewBox="0 0 230 129" fill="none" xmlns="http://www.w3.org/2000/svg">
<path d="M57 43.9334C53.2123 46.5008 48.6461 48 43.7317 48C30.6256 48 20 37.3381 20 24.1861C20 12.912 27.8071 3.46807 38.2925 1" stroke="#212D5F" stroke-width="2"/>
<path d="M49 1C59.8221 3.13376 68 12.9128 68 24.6545C68 29.5905 66.5548 34.1797 64.0762 38" stroke="#212D5F" stroke-width="2"/>
<path d="M90 49V14H149V49V41.8414L136.035 28.5829L119.5 39.4545L103.493 28.5829L90.4411 41.4076" stroke="#212D5F" stroke-width="2"/>
<path d="M169 35H214.837L229 50.5051V104H169V44.0448" stroke="#212D5F" stroke-width="2"/>
<path d="M182 53H196" stroke="#212D5F" stroke-width="2"/>
<path d="M182 67H214" stroke="#212D5F" stroke-width="2"/>
<path d="M182 76H214" stroke="#212D5F" stroke-width="2"/>
<path d="M182 86H214" stroke="#212D5F" stroke-width="2"/>
<path d="M212 35V52" stroke="#212D5F" stroke-width="2"/>
<path d="M212 52H229" stroke="#212D5F" stroke-width="2"/>
<path d="M90 72V107.938L111.573 123H127.519L150 108.202V72" stroke="#212D5F" stroke-width="2"/>
<path d="M119 114V123" stroke="#212D5F" stroke-width="2"/>
<path d="M114 104H124" stroke="#212D5F" stroke-width="2"/>
<path d="M129 21H143" stroke="#212D5F" stroke-width="2"/>
<path d="M44 9V24.4658L54 35" stroke="#E91D50" stroke-width="2"/>
<path d="M150 105C159.024 106.883 167.441 112.408 172.049 118.894C173.2 120.515 174.18 122.229 175 124" stroke="#212D5F" stroke-width="2"/>
<path d="M90 105C80.9764 106.883 72.5595 112.408 67.9513 118.894C66.7997 120.515 65.8206 122.229 65 124" stroke="#212D5F" stroke-width="2"/>
<path d="M79 70C81.4885 78.6783 87.3927 86.4879 93.9166 90.5011C95.5482 91.5046 97.252 92.3319 99 93" stroke="#212D5F" stroke-width="2"/>
<path d="M39 56C31.185 54.3992 23.8334 50.1748 19 45" stroke="#212D5F" stroke-width="2"/>
<path d="M131 94.0386C128.65 96.4029 124.165 98 119.019 98C113.844 98 109.339 96.3849 107 94" stroke="#212D5F" stroke-width="2"/>
<path fill-rule="evenodd" clip-rule="evenodd" d="M149.236 62C150.88 62 152.151 63.4492 151.985 65.1093C151.122 73.7819 145.529 79.5711 138.48 79.981C130.496 80.4439 124 72.3802 124 62H149.236Z" stroke="#212D5F" stroke-width="3"/>
<path fill-rule="evenodd" clip-rule="evenodd" d="M89.7648 62C88.1203 62 86.8487 63.4492 87.0146 65.1093C87.8785 73.7819 93.4706 79.5711 100.521 79.981C108.505 80.4439 115 72.3802 115 62H89.7648Z" stroke="#212D5F" stroke-width="3"/>
<path d="M150 62H90" stroke="#212D5F" stroke-width="3"/>
<path d="M144 68L143.57 68.8197C142.534 70.7999 140.63 72.2851 138.332 72.9097L138 73" stroke="#212D5F" stroke-width="2"/>
<path d="M107 68L106.571 68.8197C105.534 70.7999 103.631 72.2851 101.332 72.9097L101 73" stroke="#212D5F" stroke-width="2"/>
<path fill-rule="evenodd" clip-rule="evenodd" d="M77.0004 68.4667C75.6381 68.4667 74.5336 67.3623 74.5336 66C74.5336 64.6377 75.6381 63.5333 77.0004 63.5333C78.3628 63.5333 79.4664 64.6377 79.4664 66C79.4664 67.3623 78.3628 68.4667 77.0004 68.4667ZM77.0004 59C73.1338 59 70 62.1345 70 66C70 69.8655 73.1338 73 77.0004 73C80.8671 73 84 69.8655 84 66C84 62.1345 80.8671 59 77.0004 59Z" fill="#E91D50"/>
<path fill-rule="evenodd" clip-rule="evenodd" d="M202 127L201.999 120.001L195 120V126.961L202 127Z" stroke="#212D5F" stroke-width="2"/>
<path fill-rule="evenodd" clip-rule="evenodd" d="M5.64346 68L0 73.4165L5.38369 79L11 73.6117L5.64346 68Z" fill="#E91D50"/>
<path fill-rule="evenodd" clip-rule="evenodd" d="M20.6444 68L15 73.4165L20.3846 79L26 73.6117L20.6444 68Z" fill="#E91D50"/>
<path d="M20 115L27.0605 86.651L40.075 79L59.1826 83.8577L67 96.8026L51.892 110.103" stroke="#212D5F" stroke-width="2"/>
<path d="M56 97L49.1146 123.02L40 128" stroke="#212D5F" stroke-width="2"/>
<path d="M51.2433 82L68 71.7195V66.6949L62.3058 65L40 79.1427" stroke="#212D5F" stroke-width="2"/>
<path d="M54 92L61 88" stroke="#212D5F" stroke-width="2"/>
<path d="M46 91L58 84" stroke="#212D5F" stroke-width="2"/>
<path d="M37 88L48 81" stroke="#212D5F" stroke-width="2"/>
<path fill-rule="evenodd" clip-rule="evenodd" d="M168.989 25L166 20.92L168.989 18C168.989 18 175.001 19.0224 176.664 19.0888C177.434 19.121 179.165 18 179.165 18L182 21.9376C182 21.9376 179.86 24.7112 178.876 24.7522C176.873 24.8341 172.906 23.4761 171.165 23.5776C170.531 23.6156 168.989 25 168.989 25Z" fill="#E91D50"/>
</svg>
