<svg width="190" height="125" viewBox="0 0 190 125" fill="none" xmlns="http://www.w3.org/2000/svg">
<path fill-rule="evenodd" clip-rule="evenodd" d="M64 10V38H104V10L84 14.7929L64 10Z" stroke="#212D5F" stroke-width="2"/>
<path d="M72 19V28" stroke="#212D5F" stroke-width="2"/>
<path d="M64 33H104" stroke="#212D5F" stroke-width="2"/>
<path fill-rule="evenodd" clip-rule="evenodd" d="M52 7H58V1H52V7Z" stroke="#212D5F" stroke-width="2"/>
<path fill-rule="evenodd" clip-rule="evenodd" d="M131.822 109L126 114.806L132.21 121L138 115.226L131.822 109Z" stroke="#212D5F" stroke-width="2"/>
<path fill-rule="evenodd" clip-rule="evenodd" d="M137.912 102L135 104.903L138.105 108L141 105.113L137.912 102Z" fill="#E91D50"/>
<path d="M110.92 124L117 98H52L57.473 124" stroke="#212D5F" stroke-width="2"/>
<path d="M60 84V99H109V84" stroke="#212D5F" stroke-width="2"/>
<path d="M156.502 32.8935C144.712 35.0797 135.444 45.0089 134.29 57.1812C133.672 63.6945 135.324 69.7957 138.546 74.7812L135.102 85.3659C134.851 86.1359 135.609 86.8498 136.359 86.5508L146.209 82.6192C151.187 85.9947 157.331 87.7675 163.908 87.1991C177.066 86.0624 187.678 75.3323 188.724 62.1155C189.841 48.0055 180.314 35.9146 167.342 33.0721" stroke="#212D5F" stroke-width="2"/>
<path d="M58.8759 32.666H41.9408H41.4651" stroke="#212D5F"/>
<path d="M109.505 32.9181L127.873 32.666C127.873 48.1007 108.53 60.613 84.6692 60.613C60.8083 60.613 41.4651 48.1007 41.4651 32.666" stroke="#212D5F" stroke-width="2"/>
<path fill-rule="evenodd" clip-rule="evenodd" d="M72.3618 98.6381V95.6358L77.9961 92.0751H90.4464L96.5672 95.6358V98.6381H72.3618Z" fill="#212D5F"/>
<path d="M1.71436 116.277L6.93028 60.6134L10.5403 58.0145L13.6158 59.6251L13.9781 59.8232" stroke="#212D5F" stroke-width="2"/>
<path d="M9.87158 81.6416L12.8803 60.6134L16.491 58.0145L19.5672 59.6251L19.832 59.7851" stroke="#212D5F" stroke-width="2"/>
<path d="M15.6729 81.6416L18.6816 60.6134L22.2923 58.0145L25.3678 59.6251V63.1159L21.5059 81.6416L21.63 82.3129C23.7217 80.8182 26.2977 79.9373 29.0833 79.9373C36.0838 79.9373 39.3731 83.4662 41.4152 89.4882L37.7916 91.0262" stroke="#212D5F" stroke-width="2"/>
<path d="M21.9741 116.941L22.6336 110.226C22.6336 110.226 26.7222 110.565 27.1908 110.607C33.3144 111.155 39.8894 106.866 40.6636 101.219L38.3294 99.5567" stroke="#212D5F" stroke-width="2"/>
<path d="M123.252 53.2407C123.252 53.2407 120.432 56.1083 118.412 57.2429C116.185 58.4934 113.143 59.8721 113.143 59.8721" stroke="#212D5F" stroke-width="2"/>
<path d="M37.3748 42.7457C37.3748 42.7457 40.2357 47.8587 41.4655 49.3649C42.5103 50.6457 44.9952 52.8542 46.2768 53.8959C47.6724 55.0304 50.707 56.9731 52.1729 58.014C53.011 58.6098 55.7421 60.0548 55.7421 60.0548" stroke="#212D5F" stroke-width="2"/>
<path fill-rule="evenodd" clip-rule="evenodd" d="M108.12 73.5832C108.12 77.7842 104.753 80.7368 100.652 81.1892C91.7875 82.166 87.2827 70.4554 87.2827 70.4554L90.4866 66.7126C90.4866 66.7126 99.507 66.5145 100.636 66.5145C104.762 66.5145 108.12 69.3829 108.12 73.5832Z" stroke="#212D5F" stroke-width="3"/>
<path fill-rule="evenodd" clip-rule="evenodd" d="M60.7163 73.5832C60.7163 77.7842 64.0838 80.7368 68.1846 81.1892C77.0493 82.166 81.5535 70.4554 81.5535 70.4554L78.3496 66.7126C78.3496 66.7126 69.3291 66.5145 68.1997 66.5145C64.0752 66.5145 60.7163 69.3829 60.7163 73.5832Z" stroke="#212D5F" stroke-width="3"/>
<path d="M101.127 66.5141H68.1992" stroke="#212D5F" stroke-width="3"/>
<path fill-rule="evenodd" clip-rule="evenodd" d="M176.182 92.7365C176.506 96.1596 175.637 99.3665 173.945 101.986L175.754 107.548C175.886 107.953 175.488 108.328 175.094 108.171L169.918 106.105C167.302 107.879 164.073 108.81 160.617 108.512C153.702 107.915 148.125 102.275 147.575 95.3305C146.871 86.4357 154.215 79.0688 163.075 79.7834C169.94 80.3366 175.529 85.8544 176.182 92.7365Z" fill="#E91D50"/>
<path fill-rule="evenodd" clip-rule="evenodd" d="M176.182 92.7365C176.506 96.1596 175.637 99.3665 173.945 101.986L175.754 107.548C175.886 107.953 175.488 108.328 175.094 108.171L169.918 106.105C167.302 107.879 164.073 108.81 160.617 108.512C153.702 107.915 148.125 102.275 147.575 95.3305C146.871 86.4357 154.215 79.0688 163.075 79.7834C169.94 80.3366 175.529 85.8544 176.182 92.7365Z" stroke="#212D5F" stroke-width="2"/>
<path d="M95.7686 75.1666V71.4828C95.7686 70.8921 95.9013 70.3093 96.1568 69.7777L97.7009 66.5621" stroke="#212D5F" stroke-width="2"/>
<path d="M67.7085 75.1666V71.4828C67.7085 70.8921 67.8412 70.3093 68.0967 69.7777L69.6416 66.5621" stroke="#212D5F" stroke-width="2"/>
<path d="M35.9888 98.3206H32.1843" stroke="#212D5F"/>
<path fill-rule="evenodd" clip-rule="evenodd" d="M30.6377 97.3142C30.5911 97.4323 30.4411 97.737 28.8482 98.255C27.8407 98.5834 27.4683 98.6022 27.144 98.569C26.7916 98.533 26.3905 98.4862 26.1781 98.1692C25.909 97.7666 26.143 97.2227 26.1781 97.1435C26.3252 96.8157 26.5742 96.6421 26.7184 96.5449C26.9904 96.3597 27.2372 96.2971 27.7402 96.2027C29.26 95.916 29.6411 95.9902 29.814 96.0313C30.3565 96.1616 30.5129 96.3727 30.5524 96.4303C30.7289 96.6875 30.7432 97.0455 30.6377 97.3142ZM28.6178 84.8105C22.9068 84.8105 18.2771 89.4582 18.2771 95.1921C18.2771 100.925 22.9068 105.573 28.6178 105.573C30.5007 105.573 32.2644 105.065 33.7849 104.183L31.9143 102.498C30.9154 102.951 29.8104 103.209 28.6436 103.209C24.24 103.209 20.6709 99.625 20.6709 95.205C20.6709 90.7858 24.24 87.2021 28.6436 87.2021C33.0459 87.2021 36.6157 90.7858 36.6157 95.205C36.6157 96.3122 36.3868 97.3632 35.9814 98.3205H32.3922C32.4022 97.294 32.3828 95.7431 32.3527 93.5972C32.3369 92.4375 31.6588 91.7957 31.3187 91.4535C30.3615 90.4875 28.3394 90.4054 26.4128 90.8852C25.6823 91.0674 24.4696 92.8891 24.4696 92.8891C24.4696 92.8891 25.1477 92.7573 26.4565 92.4389C27.7001 92.1364 29.0046 92.1911 29.4688 92.3748C29.682 92.4591 30.1563 92.7919 30.4296 93.4042C30.5201 93.6066 30.5581 94.7555 30.5581 94.7555C30.0472 94.5992 28.5439 94.3154 26.4565 94.8197C25.5797 95.0314 25.1269 95.5126 24.982 95.656C24.3541 96.2776 24.1525 97.0037 24.085 97.3293C24.0161 97.6592 23.8712 98.3572 24.2127 99.1302C24.5636 99.9247 25.2094 100.301 25.4311 100.417C26.1975 100.818 26.9366 100.719 27.7381 100.61C28.63 100.491 28.7778 100.301 30.0458 99.9672C30.2825 99.9045 30.4949 99.8584 30.6873 99.8239V100.712H34.4178C34.4114 100.719 34.4056 100.726 34.3999 100.733H37.3613C38.3716 99.1287 38.9593 97.2299 38.9593 95.1921C38.9593 89.4582 34.3296 84.8105 28.6178 84.8105Z" fill="#E91D50"/>
<path fill-rule="evenodd" clip-rule="evenodd" d="M150.272 59.7086C149.869 59.7086 149.542 59.3801 149.542 58.9753C149.542 58.5704 149.869 58.2427 150.272 58.2427C150.675 58.2427 151.002 58.5704 151.002 58.9753C151.002 59.3801 150.675 59.7086 150.272 59.7086ZM150.272 55.0927C148.169 55.0927 146.464 56.8035 146.464 58.9148C146.464 61.0261 148.169 62.7376 150.272 62.7376C152.375 62.7376 154.08 61.0261 154.08 58.9148C154.08 56.8035 152.375 55.0927 150.272 55.0927Z" fill="#E91D50"/>
<path fill-rule="evenodd" clip-rule="evenodd" d="M161.487 59.7086C161.084 59.7086 160.757 59.3801 160.757 58.9753C160.757 58.5704 161.084 58.2427 161.487 58.2427C161.89 58.2427 162.217 58.5704 162.217 58.9753C162.217 59.3801 161.89 59.7086 161.487 59.7086ZM161.487 55.0927C159.384 55.0927 157.679 56.8035 157.679 58.9148C157.679 61.0261 159.384 62.7376 161.487 62.7376C163.591 62.7376 165.295 61.0261 165.295 58.9148C165.295 56.8035 163.591 55.0927 161.487 55.0927Z" fill="#E91D50"/>
<path fill-rule="evenodd" clip-rule="evenodd" d="M172.441 59.7086C172.038 59.7086 171.711 59.3801 171.711 58.9753C171.711 58.5704 172.038 58.2427 172.441 58.2427C172.845 58.2427 173.171 58.5704 173.171 58.9753C173.171 59.3801 172.845 59.7086 172.441 59.7086ZM172.441 55.0927C170.337 55.0927 168.633 56.8035 168.633 58.9148C168.633 61.0261 170.337 62.7376 172.441 62.7376C174.545 62.7376 176.249 61.0261 176.249 58.9148C176.249 56.8035 174.545 55.0927 172.441 55.0927Z" fill="#E91D50"/>
</svg>
