<svg width="182" height="135" viewBox="0 0 182 135" fill="none" xmlns="http://www.w3.org/2000/svg">
<path fill-rule="evenodd" clip-rule="evenodd" d="M0.0605432 80.0423C2.6505 44.2668 141.613 -24.7837 167.411 9.10215C193.209 42.988 186.679 114.263 132.616 130.548C78.553 146.833 -2.52942 115.818 0.0605432 80.0423Z" fill="url(#paint0_linear)"/>
<path d="M97.3616 65.2222C104.795 61.4787 107.749 52.4914 103.959 45.1486C100.169 37.8057 91.0716 34.8878 83.6384 38.6313C76.2053 42.3748 73.2514 51.3622 77.041 58.705C78.489 61.5106 80.7983 63.7918 83.6384 65.2222C74.3947 65.4162 67.0029 72.8728 67 82.0061V105H114V82.0061C113.997 72.8728 106.605 65.4162 97.3616 65.2222Z" fill="#C1234A"/>
<path d="M95.2947 65.0053C99.772 62.5184 102.603 57.8236 102.731 52.6736C102.629 45.5723 96.8334 39.8987 89.7857 40.0014C89.6904 40.0028 89.5953 40.0051 89.5 40.0087C82.6754 39.7879 76.9653 45.1836 76.7464 52.0602C76.74 52.2645 76.7383 52.4691 76.7418 52.6736C76.6866 57.7486 79.3472 62.4607 83.7053 65.0053C75.918 65.1841 68 72.5529 68 80.8682V105H111V80.8682C111 72.5529 103.082 65.1841 95.2947 65.0053Z" fill="#EA3663"/>
<path d="M87.8401 17H91.1601V23.6667H87.8401V17Z" fill="#212D5F"/>
<path d="M104.239 25.8181L108.934 21.1042L111.282 23.461L106.587 28.175L104.239 25.8181Z" fill="#212D5F"/>
<path d="M124.36 103.667H131V107H124.36V103.667Z" fill="#212D5F"/>
<path d="M124.36 87H131V90.3333H124.36V87Z" fill="#212D5F"/>
<path d="M124.36 70.3333H131V73.6667H124.36V70.3333Z" fill="#212D5F"/>
<path d="M122.351 54.8077L128.65 52.6985L129.701 55.861L123.401 57.9702L122.351 54.8077Z" fill="#212D5F"/>
<path d="M117.195 37.5237L123.494 35.4146L124.544 38.5771L118.245 40.6862L117.195 37.5237Z" fill="#212D5F"/>
<path d="M67.7192 23.4631L70.0669 21.1065L74.7616 25.8208L72.4139 28.1775L67.7192 23.4631Z" fill="#212D5F"/>
<path d="M48 103.667H54.64V107H48V103.667Z" fill="#212D5F"/>
<path d="M48 87H54.64V90.3333H48V87Z" fill="#212D5F"/>
<path d="M48 70.3333H54.64V73.6667H48V70.3333Z" fill="#212D5F"/>
<path d="M49.3062 55.86L50.3559 52.6973L56.6554 54.805L55.6056 57.9677L49.3062 55.86Z" fill="#212D5F"/>
<path d="M54.4548 38.5808L55.505 35.4183L61.8045 37.5269L60.7543 40.6894L54.4548 38.5808Z" fill="#212D5F"/>
<path fill-rule="evenodd" clip-rule="evenodd" d="M130 22.3008C130 23.2395 130.746 24.0002 131.667 24H131.667C132.588 23.9998 133.333 23.2386 133.333 22.3C133.336 19.4846 135.573 17.203 138.333 17.2C139.254 17.2 140 16.4388 140 15.5C140 14.5612 139.254 13.8 138.333 13.8C135.573 13.797 133.336 11.5154 133.333 8.7C133.333 7.76118 132.587 7 131.667 7C130.746 7 130 7.76118 130 8.7C129.997 11.5154 127.76 13.797 125 13.8C124.08 13.8 123.333 14.5612 123.333 15.5C123.333 16.4388 124.08 17.2 125 17.2C127.76 17.203 129.997 19.4846 130 22.3V22.3008ZM131.667 17.2049C131.191 16.5591 130.628 15.9851 129.995 15.5C130.628 15.0149 131.191 14.4409 131.667 13.7951C132.142 14.4409 132.705 15.0149 133.338 15.5C132.705 15.9851 132.142 16.5591 131.667 17.2049Z" fill="#EA3663"/>
<path fill-rule="evenodd" clip-rule="evenodd" d="M46.6667 22.3008C46.6669 23.2395 47.4131 24.0002 48.3333 24H48.3342C49.2544 23.9998 50.0002 23.2386 50 22.3C50.0029 19.4846 52.2398 17.203 55 17.2C55.9204 17.2 56.6667 16.4388 56.6667 15.5C56.6667 14.5612 55.9204 13.8 55 13.8C52.2398 13.797 50.0029 11.5154 50 8.7C50 7.76118 49.2537 7 48.3333 7C47.4129 7 46.6667 7.76118 46.6667 8.7C46.6637 11.5154 44.4269 13.797 41.6667 13.8C40.7462 13.8 40 14.5612 40 15.5C40 16.4388 40.7462 17.2 41.6667 17.2C44.4269 17.203 46.6637 19.4846 46.6667 22.3V22.3008ZM48.3333 17.2049C47.8577 16.5591 47.295 15.9851 46.6619 15.5C47.295 15.0149 47.8577 14.4409 48.3333 13.7951C48.809 14.4409 49.3717 15.0149 50.0048 15.5C49.3717 15.9851 48.809 16.5591 48.3333 17.2049Z" fill="#EA3663"/>
<defs>
<linearGradient id="paint0_linear" x1="167.818" y1="151.688" x2="193.234" y2="13.0974" gradientUnits="userSpaceOnUse">
<stop stop-color="#C4DAFF"/>
<stop offset="1" stop-color="#E2EDFF"/>
</linearGradient>
</defs>
</svg>
