<svg width="182" height="135" viewBox="0 0 182 135" fill="none" xmlns="http://www.w3.org/2000/svg">
<path fill-rule="evenodd" clip-rule="evenodd" d="M0.0605432 80.0423C2.6505 44.2668 141.613 -24.7837 167.411 9.10215C193.209 42.988 186.679 114.263 132.616 130.548C78.553 146.833 -2.52942 115.818 0.0605432 80.0423Z" fill="url(#paint0_linear)"/>
<path d="M128.915 66.017L127.173 76.7901C127.173 76.7901 105.397 94.1071 97.8514 93.9995H84.0531C75.1059 93.6767 53.8698 72.4877 53.8698 72.4877L53.1109 66.4644C51.4206 39.9102 69.5998 30.7033 70.3415 30.3247C73.6329 28.3887 80.3164 28.7472 82.3113 30.2902C85.5433 32.0775 88.3987 34.4187 90.7455 37.2258H91.2628C93.6192 34.4352 96.4655 32.0966 99.6624 30.3247C103.605 29.4703 107.685 29.4586 111.632 30.2902C111.65 30.3247 130.415 39.2564 128.915 66.017Z" fill="#EA3663"/>
<path d="M80.7902 48.2623C80.78 50.9715 81.8541 53.5741 83.7767 55.4982C81.9535 56.8421 75.5809 62.5446 75.5809 75.8277L75.442 76C74.54 75.2467 73.5034 74.668 72.3859 74.2945C69.1277 72.9843 66.1026 71.1636 63.4261 68.9021C62.8877 68.4713 62.3669 68.0578 61.8806 67.6444C59.415 65.5771 55.7512 66.6797 53.4763 68.9366L53.8756 73.2437L53.1116 67.2137C51.41 40.6304 69.7117 31.4134 70.4584 31.0343H70.4757C72.258 32.1675 74.3323 32.7658 76.449 32.7573C78.5973 32.7623 80.7015 32.1522 82.509 31L82.5263 31.0345C85.7628 32.7893 88.6374 35.133 91 37.9432C85.331 38.0466 80.7902 42.6363 80.7902 48.2623Z" fill="#212D5F"/>
<path d="M87.5494 21.5763C87.5417 27.8563 82.5241 32.9455 76.3324 32.9532C74.2233 32.9619 72.1564 32.3542 70.3788 31.2028C65.8134 28.2973 63.9324 22.508 65.9004 17.4189C67.8681 12.3297 73.128 9.38079 78.4236 10.3977C83.7192 11.4147 87.5519 16.1097 87.5494 21.5763Z" fill="#FDD7AD"/>
<path d="M116.886 21.5763C116.879 27.8563 111.861 32.9455 105.669 32.9532C103.56 32.9619 101.493 32.3542 99.7157 31.2028C95.1503 28.2973 93.2693 22.508 95.2373 17.4189C97.2053 12.3297 102.465 9.38079 107.76 10.3977C113.056 11.4147 116.889 16.1097 116.886 21.5763Z" fill="#FDD7AD"/>
<path d="M106 75.3552C105.298 75.9133 104.662 76.5504 104.105 77.2539C101.874 80.1579 100.689 83.7328 100.742 87.3973V92.2894H99.0352C98.0937 92.2923 97.331 93.0563 97.3281 94H83.6719C83.669 93.0565 82.9065 92.2923 81.9648 92.2894H80.2576V87.3973C80.3112 83.7328 79.126 80.1579 76.8949 77.2539C76.338 76.5504 75.7021 75.9134 75 75.3552L75.1365 75.1841C75.1365 61.996 81.4013 56.3343 83.1936 55C85.1168 56.9691 87.7503 58.079 90.4997 58.079C93.2491 58.079 95.8829 56.9691 97.8058 55C99.598 56.3343 105.863 61.996 105.863 75.1841L106 75.3552Z" fill="#F0C419"/>
<path d="M102 48.4926C102.009 54.2618 97.3538 58.9555 91.5802 58.9997C85.8066 59.0439 81.0807 54.4218 81.001 48.653C80.9211 42.8843 85.5176 38.1335 91.29 38.0182C91.359 38.0037 91.4295 37.9978 91.4999 38.0007C91.6052 37.9978 91.7106 38.0037 91.8149 38.0182C97.4868 38.1814 102 42.8229 102 48.4926Z" fill="#FDD7AD"/>
<path d="M63.0047 72C62.1916 71.999 61.498 71.3867 61.3641 70.5516C59.6387 59.7719 64.5942 47.5599 64.8064 47.0452C65.1709 46.1689 66.1472 45.7645 66.9901 46.1406C67.8331 46.5167 68.2254 47.5314 67.8676 48.4107C67.8197 48.5276 63.0862 60.2171 64.6488 69.9811C64.7293 70.484 64.5929 70.9984 64.2762 71.3874C63.9595 71.7763 63.4944 72.0004 63.0047 72Z" fill="#0C122A"/>
<path d="M117.996 72C117.506 72.0004 117.041 71.7764 116.724 71.3874C116.408 70.9986 116.272 70.4841 116.352 69.9813C117.918 60.1958 113.183 48.533 113.135 48.4162C112.9 47.8471 112.975 47.1911 113.332 46.6951C113.688 46.1993 114.271 45.939 114.861 46.0122C115.452 46.0854 115.96 46.4811 116.194 47.0501C116.406 47.5648 121.361 59.7742 119.636 70.5517C119.502 71.3868 118.809 71.9988 117.996 72Z" fill="#CE1640"/>
<path d="M78.8162 87.8522C77.8549 87.8522 77.0754 87.0766 77.0754 86.1196C77.0754 85.6451 77.1391 74.4175 82.6934 67.6938C83.0881 67.2145 83.7099 66.9814 84.3243 67.0826C84.9385 67.1839 85.4518 67.6039 85.6703 68.1842C85.8887 68.7646 85.7789 69.417 85.3828 69.8949C80.6121 75.6693 80.5569 86.0154 80.5569 86.1194C80.5567 87.0766 79.7774 87.8522 78.8162 87.8522Z" fill="#F29C1F"/>
<path d="M103.185 87.8514C102.225 87.8514 101.446 87.0774 101.445 86.1214C101.445 86.0174 101.374 75.651 96.6188 69.8951C96.0101 69.1557 96.1179 68.0655 96.8595 67.4585C97.6011 66.8514 98.6967 66.9566 99.308 67.6938C104.862 74.4175 104.926 85.6449 104.926 86.1196C104.926 87.0756 104.147 87.8506 103.187 87.8512H103.185V87.8514Z" fill="#F29C1F"/>
<path d="M80.5785 87.8555V92.8083L81.0623 94.9999L63.8726 95.4058L63.9214 92.8083L51.4802 80.288C50.0598 78.872 48.9106 77.2047 48.0904 75.3699L41.3448 60.4422C41.1165 59.9486 40.9989 59.4107 41.0005 58.8664C41.0056 56.774 42.6898 55.0791 44.7689 55.074C46.2783 55.0683 47.6428 55.9769 48.2276 57.3772L52.0822 66.4168C52.1855 66.6591 52.306 66.919 52.4264 67.1615C52.5009 67.3488 52.5931 67.5287 52.7017 67.6984C52.7017 67.7331 52.7188 67.7504 52.7362 67.7849C52.7707 67.8542 52.8221 67.9407 52.8566 68.0101L53.5104 67.6637V67.6464C54.1327 67.0167 54.8845 66.532 55.713 66.2263C57.7904 65.4209 60.1387 65.8193 61.8389 67.2655C62.3208 67.6812 62.837 68.0967 63.3705 68.5296C66.0229 70.803 69.0208 72.6329 72.2496 73.9498C73.3568 74.3255 74.3843 74.907 75.2783 75.6642C75.9861 76.2292 76.6268 76.8742 77.1884 77.5865C79.4377 80.5263 80.6325 84.1455 80.5785 87.8555Z" fill="#FDD7AD"/>
<path d="M140.806 58.8664C140.807 59.4107 140.69 59.9488 140.461 60.4422L133.716 75.3697C132.896 77.2047 131.747 78.8718 130.326 80.2878L117.885 92.8081L117.834 95.9457L101.084 95.4058L101.228 92.8083V87.8555C101.174 84.1455 102.369 80.5263 104.618 77.5863C105.179 76.874 105.82 76.2292 106.528 75.664C107.422 74.9068 108.449 74.3251 109.557 73.9496C112.785 72.6327 115.783 70.8027 118.436 68.5294C118.969 68.0965 119.485 67.6808 119.967 67.2653C122.422 65.1998 126.038 65.3653 128.296 67.6462V67.6635L128.95 68.0099C129.105 67.7155 129.26 67.4212 129.397 67.1268C129.518 66.9016 129.621 66.6593 129.724 66.4168L133.579 57.3772C134.164 55.9769 135.528 55.0683 137.037 55.074C139.116 55.0791 140.801 56.774 140.806 58.8664Z" fill="#FDD7AD"/>
<path d="M64.8323 78.3203C64.1574 78.9927 63.0769 78.9927 62.402 78.3203L56.0526 71.852C54.8967 70.6997 53.9213 69.3745 53.1601 67.9224C53.1054 67.8245 53.0651 67.7192 53.0403 67.6094C53.0746 67.679 53.1258 67.7658 53.1601 67.8356L53.8104 67.4877V67.4704C54.4292 66.8381 55.177 66.3514 56.001 66.0445C56.0675 66.1184 56.1251 66.2001 56.1722 66.288C56.7831 67.4336 57.5559 68.482 58.4656 69.4003L64.8323 75.8511C65.4998 76.5345 65.4998 77.637 64.8323 78.3203Z" fill="#FAC176"/>
<path d="M117.173 78.3203C117.848 78.9927 118.929 78.9927 119.604 78.3203L125.953 71.852C127.109 70.6997 128.084 69.3745 128.846 67.9224C128.9 67.8245 128.941 67.7192 128.965 67.6094C128.931 67.679 128.88 67.7658 128.846 67.8356L128.195 67.4877V67.4704C127.576 66.8381 126.829 66.3514 126.005 66.0445C125.938 66.1184 125.881 66.2001 125.833 66.288C125.223 67.4336 124.45 68.482 123.54 69.4003L117.173 75.8511C116.506 76.5345 116.506 77.637 117.173 78.3203Z" fill="#FAC176"/>
<path d="M63.6924 93H82.3076C83.2422 93 84 93.7611 84 94.7001V108.3C84 109.239 83.2424 110 82.3076 110H63.6924C62.7578 110 62 109.239 62 108.3V94.7001C62.0002 93.7611 62.7578 93 63.6924 93Z" fill="#212D5F"/>
<path d="M78.3333 103H76.6667C75.7463 103 75 102.329 75 101.5C75 100.671 75.7461 100 76.6667 100H78.3333C79.2537 100 80 100.671 80 101.5C80 102.329 79.2537 103 78.3333 103Z" fill="#285680"/>
<path d="M99.6924 93H118.308C119.242 93 120 93.7611 120 94.7001V108.3C120 109.239 119.242 110 118.308 110H99.6924C98.7578 110 98 109.239 98 108.3V94.7001C98 93.7611 98.7576 93 99.6924 93Z" fill="#212D5F"/>
<path d="M104.333 103H102.667C101.746 103 101 102.329 101 101.5C101 100.671 101.746 100 102.667 100H104.333C105.254 100 106 100.671 106 101.5C106 102.329 105.254 103 104.333 103Z" fill="#285680"/>
<defs>
<linearGradient id="paint0_linear" x1="167.818" y1="151.688" x2="193.234" y2="13.0974" gradientUnits="userSpaceOnUse">
<stop stop-color="#C4DAFF"/>
<stop offset="1" stop-color="#E2EDFF"/>
</linearGradient>
</defs>
</svg>
