<svg width="182" height="138" viewBox="0 0 182 138" fill="none" xmlns="http://www.w3.org/2000/svg">
<path fill-rule="evenodd" clip-rule="evenodd" d="M0.0605432 83.0423C2.6505 47.2668 141.613 -21.7837 167.411 12.1021C193.209 45.988 186.679 117.263 132.616 133.548C78.553 149.833 -2.52942 118.818 0.0605432 83.0423Z" fill="url(#paint0_linear)"/>
<path d="M115.78 51.5843C115.222 48.1242 113.425 44 108.035 44C107.266 44 106.609 44.564 106.481 45.3348L105.446 51.5275C105.037 53.974 104.476 56.3045 103.779 58.4541C101.849 64.407 99.4133 67.4583 95.0925 69.3381C93.0164 70.2411 91.3307 71.0136 90.6566 71.3249H82.5766C81.7056 71.3249 81 72.0425 81 72.9284V101.975C81 102.861 81.7058 103.578 82.5766 103.578H90.4409L93.8288 106.368C96.673 108.71 100.255 110 103.914 110H113.52C114.391 110 115.096 109.282 115.096 108.396C115.096 107.797 114.773 107.276 114.294 107.001V74.9784H112.333L115.634 58.0617C116.067 55.8447 116.116 53.6656 115.78 51.5843Z" fill="#F7B081"/>
<path d="M81.4646 68H69.5354C68.6872 68 68 68.7276 68 69.6252V104.375C68 105.273 68.6874 106 69.5354 106H81.4646C82.3128 106 83 105.273 83 104.375V69.6254C83.0002 68.7276 82.3126 68 81.4646 68Z" fill="#EFE7E4"/>
<path d="M68 99V104.992C68 106.101 68.6874 107 69.5354 107H81.4646C82.3128 107 83 106.101 83 104.992V99H68Z" fill="#D8D1D0"/>
<path d="M109.315 105.375C109.315 102.82 111.412 100.75 114 100.75C111.412 100.75 109.315 98.6795 109.315 96.1249C109.315 93.5705 111.412 91.4999 114 91.4999C111.412 91.4999 109.315 89.4291 109.315 86.8749C109.315 84.3205 111.412 82.2499 114 82.2499C111.412 82.2499 109.315 80.1792 109.315 77.6252C109.315 75.0708 111.412 73 114 73H108.685C106.097 73 104 75.0706 104 77.6252C104 80.1796 106.097 82.2499 108.685 82.2499C106.097 82.2499 104 84.3207 104 86.8749C104 89.4293 106.097 91.4999 108.685 91.4999C106.097 91.4999 104 93.5705 104 96.1249C104 98.6793 106.097 100.75 108.685 100.75C106.097 100.75 104 102.821 104 105.375C104 107.929 106.097 110 108.685 110H114C111.412 110 109.315 107.929 109.315 105.375Z" fill="#DD9A76"/>
<path d="M72.8538 22.6158C72.5052 21.4996 71.5959 20.7014 70.4804 20.5326L63.3328 19.451L60.1364 12.7065C59.6374 11.6539 58.6271 11 57.4997 11C56.3725 11 55.3623 11.6539 54.8632 12.7065L51.6672 19.451L44.5199 20.5326C43.4042 20.7012 42.4948 21.4994 42.1462 22.6158C41.7976 23.7321 42.0828 24.9349 42.8901 25.755L48.0622 31.0047L46.8414 38.4174C46.6508 39.5746 47.099 40.7218 48.0107 41.4121C48.5263 41.8022 49.1291 42 49.7363 42C50.2036 42 50.6731 41.8826 51.1073 41.6451L57.5001 38.1453L63.893 41.6451C64.8908 42.1913 66.0771 42.102 66.9889 41.4121C67.901 40.7223 68.3492 39.5746 68.1586 38.4174L66.9377 31.0047L72.1098 25.7546C72.9175 24.9351 73.2022 23.7323 72.8538 22.6158Z" fill="#EA3663"/>
<path d="M70.5456 21.0234L70.3909 21L62.5182 29.117C62.1138 29.5287 61.9293 30.1219 62.0247 30.7032L63.8796 41.5165L64.1285 41.6532C65.1005 42.1869 66.2561 42.0996 67.1444 41.4256C68.0329 40.7515 68.4695 39.63 68.2838 38.4993L67.0945 31.2559L72.1328 26.1257C72.9194 25.3249 73.197 24.1496 72.8577 23.0585C72.5179 21.9679 71.632 21.188 70.5456 21.0234Z" fill="#C1234A"/>
<path d="M106.854 11.6158C106.505 10.4995 105.596 9.70138 104.48 9.53251L97.3327 8.4509L94.1367 1.70652C93.6376 0.653891 92.6274 0 91.5002 0C90.3728 0 89.3628 0.653891 88.8637 1.70652L85.6673 8.4509L78.5199 9.53251C77.4042 9.70094 76.4948 10.4993 76.1462 11.6158C75.7976 12.7322 76.0828 13.9348 76.8901 14.7549L82.0624 20.0048L80.8415 27.4172C80.6508 28.5744 81.099 29.7216 82.0107 30.4119C82.9228 31.102 84.1088 31.1911 85.1071 30.6451L91.5 27.1453L97.8928 30.6451C98.3268 30.8828 98.7963 31 99.2638 31C99.871 31 100.474 30.8017 100.989 30.4121C101.901 29.7221 102.35 28.5747 102.159 27.4177L100.938 20.005L106.11 14.7549C106.917 13.935 107.202 12.7322 106.854 11.6158Z" fill="#EA3663"/>
<path d="M101.145 30.4258C102.033 29.7511 102.47 28.6291 102.284 27.4978L101.095 20.2495L106.133 15.1159C106.919 14.3144 107.197 13.1383 106.858 12.0466C106.518 10.9551 105.632 10.1747 104.546 10.0096L104.482 10L96.5181 18.1083C96.114 18.5202 95.9293 19.114 96.0247 19.6956L97.4664 28.481L97.8116 30.4791L98.1284 30.6529C98.5511 30.8854 99.0085 31 99.4639 31C100.055 31.0006 100.643 30.807 101.145 30.4258Z" fill="#C1234A"/>
<path d="M139.854 22.6158C139.505 21.4995 138.596 20.7014 137.48 20.5325L130.333 19.4509L127.136 12.7065C126.637 11.6539 125.627 11 124.5 11C123.373 11 122.363 11.6539 121.863 12.7065L118.667 19.4509L111.52 20.5325C110.404 20.7012 109.495 21.4993 109.146 22.6158C108.798 23.7322 109.083 24.935 109.89 25.7547L115.062 31.0048L113.841 38.4172C113.651 39.5744 114.099 40.7216 115.011 41.4119C115.923 42.102 117.108 42.1913 118.107 41.6451L124.5 38.1453L130.893 41.6451C131.326 41.8828 131.796 42 132.263 42C132.871 42 133.474 41.8017 133.989 41.4121C134.901 40.7221 135.349 39.5747 135.158 38.4177L133.937 31.005L139.11 25.7549C139.917 24.9348 140.202 23.732 139.854 22.6158Z" fill="#EA3663"/>
<path d="M139.858 23.0549C139.518 21.9639 138.632 21.1838 137.546 21.0187L137.422 21L129.518 29.114C129.114 29.5259 128.929 30.1192 129.025 30.7005L130.698 41.4167L131.128 41.6531C131.551 41.8854 132.008 42 132.464 42C133.055 42 133.642 41.8062 134.145 41.4254C135.033 40.751 135.47 39.6295 135.284 38.4987L134.094 31.2538L139.133 26.1225C139.919 25.3214 140.197 24.1458 139.858 23.0549Z" fill="#C1234A"/>
<path d="M69.4051 65H42.5949C41.7138 65 41 65.7153 41 66.5977V107.402C41 108.285 41.714 109 42.5949 109H69.4051C70.2862 109 71 108.285 71 107.402V66.5977C71.0002 65.715 70.2862 65 69.4051 65Z" fill="#212D5F"/>
<path d="M41 102V105.696C41 106.417 41.714 107 42.5949 107H69.4051C70.2862 107 71 106.416 71 105.696V102H41Z" fill="#A5CDD4"/>
<path d="M60.5 101C61.8807 101 63 99.8807 63 98.5C63 97.1193 61.8807 96 60.5 96C59.1193 96 58 97.1193 58 98.5C58 99.8807 59.1193 101 60.5 101Z" fill="#A5CDD4"/>
<path d="M131.52 73H114.48C111.458 73 109 75.2767 109 78.0753V78.9247C109 81.7235 111.458 84 114.48 84H131.52C134.542 84 137 81.7233 137 78.9247V78.0753C137 75.2765 134.542 73 131.52 73Z" fill="#FFC89F"/>
<path d="M131.52 80.4573H114.48C112.234 80.4573 110.301 79.0326 109.455 77C109.163 77.7022 109 78.4768 109 79.2904V80.2523C109 83.4219 111.458 86 114.48 86H131.52C134.542 86 137 83.4216 137 80.2523V79.2904C137 78.4766 136.837 77.7022 136.545 77C135.699 79.0324 133.766 80.4573 131.52 80.4573Z" fill="#F7B081"/>
<path d="M133.518 82H114.482C111.459 82 109 84.2769 109 87.0753V87.9247C109 90.7235 111.459 93 114.482 93H133.518C136.541 93 139 90.7233 139 87.9247V87.0753C139 84.2767 136.541 82 133.518 82Z" fill="#FFC89F"/>
<path d="M133.518 87.4936H114.482C112.226 87.4936 110.284 86.0526 109.444 84.0002C109.159 84.6976 109 85.465 109 86.2711V87.2357C109 90.4144 111.459 93 114.482 93H133.518C136.541 93 139 90.4142 139 87.2357V86.2709C139 85.4648 138.841 84.6973 138.556 84C137.716 86.0526 135.774 87.4936 133.518 87.4936Z" fill="#F7B081"/>
<path d="M131.061 91H114.939C111.664 91 109 93.4673 109 96.5C109 99.5329 111.664 102 114.939 102H131.061C134.336 102 137 99.5327 137 96.5C137 93.4673 134.336 91 131.061 91Z" fill="#FFC89F"/>
<path d="M131.061 96.4182H114.939C112.624 96.4182 110.616 95.0255 109.636 93C109.23 93.8397 109 94.7876 109 95.791C109 99.2149 111.664 102 114.939 102H131.061C134.336 102 137 99.2147 137 95.791C137 94.7876 136.77 93.8397 136.364 93C135.384 95.0255 133.376 96.4182 131.061 96.4182Z" fill="#F7B081"/>
<path d="M126.203 99H114.797C111.6 99 109 101.467 109 104.5C109 107.533 111.601 110 114.797 110H126.203C129.399 110 132 107.533 132 104.5C132 101.467 129.399 99 126.203 99Z" fill="#FFC89F"/>
<path d="M126.203 104.421H114.797C112.537 104.421 110.576 103.027 109.62 101C109.224 101.839 109 102.787 109 103.79C109 107.214 111.601 110 114.797 110H126.203C129.399 110 132 107.214 132 103.79C132 102.787 131.776 101.839 131.38 101C130.424 103.027 128.463 104.421 126.203 104.421Z" fill="#F7B081"/>
<defs>
<linearGradient id="paint0_linear" x1="167.818" y1="154.688" x2="193.234" y2="16.0974" gradientUnits="userSpaceOnUse">
<stop stop-color="#C4DAFF"/>
<stop offset="1" stop-color="#E2EDFF"/>
</linearGradient>
</defs>
</svg>
