<svg width="182" height="135" viewBox="0 0 182 135" fill="none" xmlns="http://www.w3.org/2000/svg">
<path fill-rule="evenodd" clip-rule="evenodd" d="M0.0605432 80.0423C2.6505 44.2668 141.613 -24.7837 167.411 9.10215C193.209 42.988 186.679 114.263 132.616 130.548C78.553 146.833 -2.52942 115.818 0.0605432 80.0423Z" fill="url(#paint0_linear)"/>
<path d="M115 64H72V35.875C72 23.8126 81.6474 14 93.5 14C105.353 14 115 23.8126 115 35.875V64Z" fill="#FFD8C9"/>
<path d="M93.5 14C81.6474 14 72 23.8964 72 36.0619V48L99.0748 39.6643L115 47.8361V36.0619C115 23.8964 105.353 14 93.5 14V14Z" fill="#FBC0AA"/>
<path d="M115 40.3794V35.7244C115 23.745 105.353 14 93.5 14C81.6474 14 72 23.745 72 35.7244V41L99.6427 32.6206L115 40.3794Z" fill="#212D5F"/>
<path d="M93.5004 112L50 103.704V48L93.5004 57.9527L137 48V103.704L93.5004 112Z" fill="#EA3663"/>
<path d="M94 57.9527V112L137 103.704V48L94 57.9527Z" fill="#C1234A"/>
<path d="M54.9996 92C48.9339 92 44 87.1151 44 81.1107V74.8886C44 68.8841 48.9339 64 54.9996 64C61.0653 64 66 68.8841 66 74.8886V81.1107C66 87.1151 61.0653 92 54.9996 92Z" fill="#FFD8C9"/>
<path d="M54.9996 84.8176C48.9339 84.8176 44 79.9653 44 74V80.1816C44 86.1469 48.9339 91 54.9996 91C61.0653 91 66 86.1469 66 80.1816V74C66 79.9653 61.0653 84.8176 54.9996 84.8176Z" fill="#FBC0AA"/>
<path d="M133 92C126.934 92 122 87.1151 122 81.1107V74.8886C122 68.8841 126.934 64 133 64C139.065 64 144 68.8841 144 74.8886V81.1107C144 87.1151 139.065 92 133 92Z" fill="#FFD8C9"/>
<path d="M133 84.8176C126.934 84.8176 122 79.9653 122 74V80.1816C122 86.1469 126.934 91 133 91C139.065 91 144 86.1469 144 80.1816V74C144 79.9653 139.065 84.8176 133 84.8176Z" fill="#FBC0AA"/>
<path d="M100.068 91.6278H105.914V97.8614H100.068V91.6278Z" fill="white"/>
<path d="M100.068 79.1598H105.914V85.3934H100.068V79.1598Z" fill="white"/>
<defs>
<linearGradient id="paint0_linear" x1="167.818" y1="151.688" x2="193.234" y2="13.0974" gradientUnits="userSpaceOnUse">
<stop stop-color="#C4DAFF"/>
<stop offset="1" stop-color="#E2EDFF"/>
</linearGradient>
</defs>
</svg>
