<svg width="182" height="135" viewBox="0 0 182 135" fill="none" xmlns="http://www.w3.org/2000/svg">
<path fill-rule="evenodd" clip-rule="evenodd" d="M0.0605432 80.0423C2.6505 44.2668 141.613 -24.7837 167.411 9.10215C193.209 42.988 186.679 114.263 132.616 130.548C78.553 146.833 -2.52942 115.818 0.0605432 80.0423Z" fill="url(#paint0_linear)"/>
<path d="M80.5507 51.9675L75.3712 57.0432C73.6645 58.5832 73.533 61.2111 75.0778 62.9129C76.6225 64.6145 79.2584 64.7455 80.9654 63.2055C81.0269 63.15 81.0868 63.0926 81.145 63.0333L77.7484 66.3617C76.0415 67.9018 75.91 70.5297 77.4548 72.2315C78.9995 73.9332 81.6354 74.0643 83.3424 72.5242C83.4041 72.4685 83.464 72.4111 83.5222 72.3519L85.8994 70.0222C84.2853 71.5939 84.2548 74.1724 85.8313 75.7817C85.9536 75.9065 86.084 76.0234 86.2213 76.1317C87.994 77.443 90.4651 77.2504 92.012 75.6805L105.512 62.4509C108.156 65.0241 112.376 65.0241 115.021 62.4509L126.626 51.0775C128.252 49.4953 128.823 47.1239 128.096 44.9782C127.368 42.8326 127.939 40.4612 129.565 38.879L131 37.4723L113.171 20L110.266 22.8464L106.615 22.8255C103.725 22.1139 100.672 22.9428 98.5424 25.0168L80.5507 42.6487C77.9697 45.16 77.919 49.2816 80.4379 51.855C80.475 51.893 80.5126 51.9303 80.5507 51.9675Z" fill="#5466AF"/>
<path d="M116.687 11.637L139.315 33.6242L133.361 39.4108L110.732 17.4236L116.687 11.637Z" fill="#212D5F"/>
<path fill-rule="evenodd" clip-rule="evenodd" d="M78.1682 51.3799L78.0484 51.4962L74.05 55.3815C71.6952 57.5005 71.524 61.1053 73.6677 63.4331C74.3277 64.1498 75.1617 64.6884 76.091 64.9977C73.9288 67.3172 74.0781 70.9303 76.4245 73.0677C77.4394 73.9921 78.7556 74.527 80.1348 74.5753C81.166 74.6251 82.1928 74.4105 83.1156 73.9525C83.4577 75.0621 84.1301 76.0437 85.0451 76.77C87.497 78.5958 90.9346 78.3578 93.1049 76.2117L105.44 64.2256L105.56 64.1093C108.906 66.2474 113.303 65.8156 116.159 63.0684L127.787 51.7696C129.874 49.7678 130.606 46.7557 129.667 44.035C129.133 42.4934 129.548 40.7858 130.731 39.6513L130.979 39.4106L132.17 40.5679C132.832 41.2074 133.889 41.2074 134.551 40.5679L140.506 34.7816C141.153 34.1587 141.166 33.1355 140.536 32.4964C140.526 32.4864 140.516 32.4767 140.506 32.4672L117.878 10.4797C117.216 9.84015 116.158 9.84015 115.496 10.4797L109.541 16.2659C108.895 16.8889 108.882 17.912 109.512 18.5512C109.521 18.5612 109.531 18.5709 109.541 18.5804L110.732 19.7377L109.511 20.9244L106.749 20.9096C103.337 20.1594 99.7733 21.1572 97.2665 23.5643L79.2392 41.081C76.417 43.8095 75.9665 48.1405 78.1682 51.3799ZM116.687 13.9515L136.933 33.6246L133.36 37.0963L132.169 35.9391L114.305 18.5804L113.114 17.4232L116.687 13.9515ZM106.137 24.1326C103.814 23.572 101.363 24.2315 99.6486 25.8786L81.6213 43.3959C80.119 44.8537 79.7279 47.0979 80.6499 48.9688L90.486 39.411L92.8681 41.7255L81.6215 52.6538L80.4305 53.8111L76.4318 57.6964C75.4365 58.5848 75.2855 60.0749 76.0829 61.141C76.1256 61.1918 76.1705 61.2409 76.2173 61.2884C77.2038 62.2881 78.8234 62.3082 79.8349 61.3329L96.4408 45.197L98.8227 47.5115L82.2167 63.6472L80.4303 65.3831L78.8137 66.9539C77.8183 67.8423 77.6673 69.3325 78.4647 70.3985C78.5075 70.4493 78.5524 70.4984 78.5992 70.5459C79.5855 71.5456 81.2052 71.5657 82.2165 70.5905L84.003 68.8546L84.5984 68.276L102.395 50.9831L104.777 53.2975L86.9802 70.5905C86.4742 71.0756 86.2055 71.7537 86.2441 72.4495C86.2806 73.1502 86.621 73.8014 87.178 74.2362C88.2806 75.0105 89.7912 74.866 90.723 73.8972L103.058 61.9112L104.249 60.7539L113.114 52.1401L115.496 54.4546L108.042 61.6978C109.966 62.5938 112.25 62.2178 113.777 60.7539L125.405 49.4549C126.589 48.3205 127.004 46.6124 126.47 45.0702C125.529 42.3504 126.261 39.3378 128.349 37.3368L128.596 37.0961L113.114 22.052L111.395 23.7223C111.075 24.0329 110.643 24.2052 110.195 24.2014L106.536 24.1811C106.402 24.1809 106.268 24.1645 106.137 24.1326Z" fill="#212D5F"/>
<path d="M82.9674 70.4493L88.0431 75.6288C89.5831 77.3355 92.2112 77.467 93.9127 75.9222C95.6143 74.3775 95.7454 71.7414 94.2053 70.0346C94.1498 69.9731 94.0924 69.9132 94.0334 69.855L97.3618 73.2516C98.9018 74.9585 101.53 75.09 103.231 73.5452C104.933 72.0005 105.064 69.3646 103.524 67.6577C103.469 67.5959 103.411 67.5361 103.352 67.4779L101.022 65.1005C102.594 66.7145 105.172 66.7451 106.782 65.1685C106.906 65.0463 107.023 64.9159 107.132 64.7785C108.443 63.0059 108.25 60.5347 106.681 58.9879L93.4509 45.4882C96.0242 42.8441 96.0242 38.6235 93.4509 35.9792L82.0776 24.3736C80.4954 22.7481 78.124 22.1769 75.9783 22.9044C73.8327 23.632 71.4613 23.0608 69.8791 21.4353L68.4724 20L51 37.8294L53.8464 40.734L53.8255 44.3849C53.1139 47.2749 53.9428 50.3286 56.0168 52.4577L73.6487 70.4493C76.1599 73.0303 80.2815 73.081 82.8549 70.5621C82.8929 70.5251 82.9302 70.4874 82.9674 70.4493Z" fill="#B6DEDC"/>
<path d="M42.637 34.3132L64.6242 11.6845L70.4108 17.6391L48.4236 40.2677L42.637 34.3132Z" fill="#A5CDD4"/>
<path fill-rule="evenodd" clip-rule="evenodd" d="M82.3798 72.8317L82.4961 72.9515L86.3814 76.9499C88.5004 79.3047 92.1053 79.4759 94.433 77.3323C95.1497 76.6722 95.6883 75.8382 95.9976 74.9089C98.3171 77.0711 101.93 76.9218 104.068 74.5754C104.992 73.5605 105.527 72.2443 105.575 70.8651C105.625 69.8339 105.41 68.8071 104.952 67.8843C106.062 67.5422 107.044 66.8698 107.77 65.9548C109.596 63.5029 109.358 60.0653 107.212 57.895L95.2256 45.56L95.1093 45.4402C97.2474 42.0938 96.8155 37.6969 94.0684 34.8415L82.7696 23.2128C80.7677 21.1256 77.7556 20.3936 75.035 21.3332C73.4934 21.867 71.7857 21.4523 70.6513 20.269L70.4106 20.0214L71.5678 18.8303C72.2074 18.1682 72.2074 17.1106 71.5678 16.4485L65.7816 10.4937C65.1586 9.84711 64.1355 9.8339 63.4963 10.4641C63.4864 10.4738 63.4766 10.4836 63.4671 10.4937L41.4797 33.1219C40.8401 33.784 40.8401 34.8417 41.4797 35.5038L47.2659 41.4585C47.8889 42.1051 48.912 42.1183 49.5512 41.4881C49.5611 41.4785 49.5709 41.4686 49.5804 41.4585L50.7376 40.2675L51.9243 41.4887L51.9096 44.2511C51.1593 47.6625 52.1571 51.2266 54.5643 53.7334L72.0809 71.7607C74.8094 74.583 79.1405 75.0334 82.3798 72.8317ZM44.9514 34.3127L64.6246 14.0666L68.0963 17.6395L66.939 18.8305L49.5804 36.6948L48.4231 37.8859L44.9514 34.3127ZM55.1325 44.8628C54.572 47.1855 55.2314 49.6366 56.8786 51.3513L74.3954 69.3786C75.8533 70.8809 78.0975 71.272 79.9683 70.35L70.4106 60.5139L72.7251 58.1318L83.6534 69.3784L84.8106 70.5694L88.6959 74.5681C89.5843 75.5634 91.0745 75.7144 92.1405 74.917C92.1913 74.8743 92.2404 74.8294 92.2879 74.7826C93.2876 73.7961 93.3077 72.1765 92.3325 71.165L76.1966 54.5591L78.5111 52.1772L94.647 68.7832L96.3828 70.5696L97.9537 72.1862C98.842 73.1816 100.332 73.3326 101.398 72.5352C101.449 72.4924 101.498 72.4475 101.546 72.4007C102.545 71.4144 102.565 69.7947 101.59 68.7834L99.8544 66.9969L99.2757 66.4015L81.9828 48.6046L84.2973 46.2227L101.59 64.0197C102.076 64.5257 102.754 64.7944 103.449 64.7558C104.15 64.7193 104.801 64.3789 105.236 63.8219C106.01 62.7194 105.866 61.2087 104.897 60.2769L92.9111 47.9416L91.7539 46.7506L83.14 37.8859L85.4545 35.504L92.6978 42.9583C93.5938 41.0341 93.2177 38.7495 91.7539 37.2229L80.4549 25.5948C79.3204 24.4111 77.6124 23.9961 76.0701 24.5294C73.3503 25.4705 70.3378 24.7387 68.3368 22.6511L68.0961 22.4034L53.0519 37.8859L54.7223 39.6048C55.0328 39.9248 55.2051 40.3566 55.2014 40.805L55.1811 44.4639C55.1809 44.5984 55.1645 44.7324 55.1325 44.8628Z" fill="#A5CDD4"/>
<path d="M104.391 54.559V47.3438C104.438 45.1604 102.846 43.2884 100.687 42.9897C98.4173 42.7544 96.387 44.4075 96.1524 46.6821C96.1377 46.8235 96.1305 46.9657 96.1305 47.1079V42.3764C96.1774 40.1931 94.5847 38.321 92.4259 38.0223C90.1565 37.787 88.1262 39.4401 87.8916 41.7147C87.8769 41.8561 87.8697 41.9983 87.8697 42.1405V45.4521C87.8695 43.1654 86.0197 41.312 83.738 41.312C83.5962 41.312 83.4545 41.3192 83.3132 41.3339C81.1547 41.6326 79.5618 43.5047 79.6087 45.688V64.4937C75.9588 64.4937 73 67.4591 73 71.1169V87.2841C73 89.5532 74.2792 91.6277 76.3043 92.6423C78.3295 93.6571 79.6087 95.7314 79.6087 98.0006V100H104.391V95.9539L106.943 93.4257C109.46 91.9123 111 89.1866 111 86.2453V61.1821C111 57.5243 108.041 54.559 104.391 54.559Z" fill="#EA3663"/>
<path d="M76.2239 100.022H107.985V108.337H76.2239V100.022Z" fill="#C1234A"/>
<path fill-rule="evenodd" clip-rule="evenodd" d="M106.313 52.8907V47.1403C106.352 44.0966 104.094 41.5059 101.06 41.1122C99.9882 41.0035 98.9066 41.1916 97.9356 41.6562C97.7432 38.8051 95.5508 36.4876 92.7019 36.1235C89.955 35.8437 87.3855 37.5124 86.5377 40.1265C85.5013 39.5692 84.3211 39.3333 83.1487 39.4493C80.1144 39.843 77.8569 42.4336 77.8953 45.4774V62.8682C74.0067 63.6635 71.214 67.0663 71.2088 71.0155V87.2516C71.1998 90.163 72.8543 92.8268 75.4761 94.121C76.9626 94.8535 77.901 96.3634 77.8953 98.0137V98.3595H76.2237C75.301 98.3589 74.5527 99.1027 74.5521 100.021V100.022V108.337C74.5514 109.255 75.2991 109.999 76.2218 110H76.2237H107.985C108.908 110.001 109.656 109.257 109.657 108.339V108.337V100.022C109.657 99.1045 108.91 98.3602 107.987 98.3595H107.985H106.313V96.6544L108.262 94.7365C111.203 92.8862 112.989 89.6702 113 86.2092V61.038C112.995 57.0888 110.202 53.686 106.313 52.8907ZM106.313 106.674H77.8956V101.685H106.313V106.674ZM106.364 91.9937C108.402 90.77 109.65 88.5772 109.657 86.2092L109.656 61.038C109.65 58.9309 108.311 57.0557 106.313 56.3556V70.0899H102.97V47.1403C103.021 45.8002 102.058 44.6333 100.727 44.4219C100.641 44.4127 100.554 44.4081 100.467 44.4081C99.0807 44.4071 97.9561 45.5242 97.955 46.9031V70.0899H94.6118V42.1516C94.663 40.8115 93.7001 39.6445 92.3688 39.4331C92.2825 39.424 92.1958 39.4194 92.1089 39.4194C90.7227 39.4183 89.5981 40.5354 89.597 41.9144V70.0899H86.2538V45.2402C86.2536 45.154 86.249 45.0675 86.24 44.9816C86.0954 43.6101 84.8604 42.6151 83.4818 42.7589C82.1505 42.9701 81.1876 44.1373 81.2388 45.4774V76.7416H77.8956V66.3333C75.8977 67.0334 74.5587 68.9086 74.5523 71.0157V87.2519C74.5466 88.9025 75.4848 90.4127 76.9716 91.146C79.5937 92.4389 81.2487 95.1025 81.2388 98.0137V98.3596H102.97V95.9595C102.97 95.5151 103.148 95.0892 103.466 94.7772L106.049 92.2373C106.144 92.1435 106.249 92.0616 106.364 91.9937Z" fill="#C1234A"/>
<defs>
<linearGradient id="paint0_linear" x1="167.818" y1="151.688" x2="193.234" y2="13.0974" gradientUnits="userSpaceOnUse">
<stop stop-color="#C4DAFF"/>
<stop offset="1" stop-color="#E2EDFF"/>
</linearGradient>
</defs>
</svg>
