<svg width="182" height="135" viewBox="0 0 182 135" fill="none" xmlns="http://www.w3.org/2000/svg">
<path fill-rule="evenodd" clip-rule="evenodd" d="M0.0605432 80.0423C2.6505 44.2668 141.613 -24.7837 167.411 9.10215C193.209 42.988 186.679 114.263 132.616 130.548C78.553 146.833 -2.52942 115.818 0.0605432 80.0423Z" fill="url(#paint0_linear)"/>
<path d="M126.759 60.0581L125.237 57L122.587 59.0128C120.877 60.3036 119.332 62.0806 118 64.0829L129 67C128.599 64.6128 127.866 62.2678 126.759 60.0581Z" fill="#EA3663"/>
<path d="M117.477 64C115.314 67.321 113.712 71.25 112.922 74.7347L112.883 74.9187C112.447 77.4409 112.019 80.9013 112.003 83.4428C111.989 84.1105 112.023 84.7026 112.075 85.2108L115.166 86.0011L112.526 90.6281L121.797 93L121.347 87.5818L124.437 88.3722C125.744 86.2682 127.352 81.0592 128.074 78.3455C128.114 78.1607 128.17 77.9809 128.202 77.8306C129.095 74.3114 129.234 70.6192 128.642 67.0236L117.477 64Z" fill="#E3DDD5"/>
<path d="M125 74.5C125 76.4337 123.433 78 121.5 78C119.567 78 118 76.4337 118 74.5C118 72.5671 119.567 71 121.5 71C123.433 71 125 72.5671 125 74.5Z" fill="#212D5F"/>
<path d="M58.007 71L74.6625 68.7279L73.2716 58.9364L88.7676 53.5901L89 50.1362L69.0124 52.8628L59.0195 54.2257L40 47L40.0025 51.829L56.6152 61.2085L58.007 71Z" fill="#E3DDD5"/>
<path d="M89.1595 8L129 16.0005L89 32L89.1595 8Z" fill="#EA3663"/>
<path d="M75.1659 68L82 93.8018L78.7667 94.2581L68.433 78.9895L62.6007 96.5429L59.3674 97L59 70.2848L75.1659 68Z" fill="#212D5F"/>
<path d="M69 49C69 51.7612 66.7612 54 64 54C61.2388 54 59 51.7612 59 49C59 46.2388 61.2388 44 64 44C66.7612 44 69 46.2388 69 49Z" fill="#FFB398"/>
<path d="M65.7881 53L69 62.3623L65.9874 66L62 63.2515L62.289 53.4442L65.7881 53Z" fill="#EA3663"/>
<path d="M88 7H91V97H88V7Z" fill="#212D5F"/>
<path d="M137 92.5535L134.36 104L130.188 92.5469L123 87.4439L124.453 87.795C125.804 85.739 127.467 80.6508 128.214 78L137 92.5535Z" fill="#A5CDD4"/>
<path d="M113 86.5143L104.58 87.761L96 96L98.5932 84.6827L112.228 76L112.188 76.1776C111.746 78.6136 111.311 81.9555 111.296 84.4101C111.281 85.055 111.315 85.6269 111.368 86.1176L113 86.5143Z" fill="#A5CDD4"/>
<path d="M139 107C139 107 124 96 89 96C54 96 39 107 39 107H139Z" fill="#EA3663"/>
<defs>
<linearGradient id="paint0_linear" x1="167.818" y1="151.688" x2="193.234" y2="13.0974" gradientUnits="userSpaceOnUse">
<stop stop-color="#C4DAFF"/>
<stop offset="1" stop-color="#E2EDFF"/>
</linearGradient>
</defs>
</svg>
