<svg width="150" height="150" viewBox="0 0 150 150" fill="none" xmlns="http://www.w3.org/2000/svg">
<path fill-rule="evenodd" clip-rule="evenodd" d="M75 150C116.421 150 150 116.421 150 75C150 33.5786 116.421 0 75 0C33.5786 0 0 33.5786 0 75C0 116.421 33.5786 150 75 150Z" fill="#DFEBFF"/>
<path d="M120.898 77.4203L118.812 90.3481C118.812 90.3481 92.7389 111.129 83.7036 110.999H67.1821C56.4689 110.612 31.0414 85.1853 31.0414 85.1853L30.1328 77.9572C28.1089 46.0923 49.8761 35.044 50.7641 34.5897H50.7847C54.7052 32.2664 62.7078 32.6966 65.0964 34.5483L65.117 34.5897C68.9664 36.693 72.3853 39.5024 75.1952 42.8709H75.8147C78.6361 39.5223 82.0442 36.7159 85.8721 34.5897C90.5931 33.5643 95.4777 33.5503 100.204 34.5483L100.225 34.5897C100.225 34.5897 122.694 45.3076 120.898 77.4203Z" fill="#D75E72"/>
<path d="M62.9094 54.7147C62.8973 57.9659 64.1694 61.0889 66.4461 63.3978C64.287 65.0105 56.7406 71.8535 56.7406 87.7932L56.5761 88C55.5079 87.096 54.2803 86.4016 52.957 85.9534C49.0986 84.3812 45.5163 82.1964 42.3467 79.4825C41.7092 78.9656 41.0923 78.4693 40.5165 77.9733C37.5967 75.4925 33.258 76.8157 30.5641 79.5239L31.0369 84.6924L30.1322 77.4564C28.1171 45.5565 49.7902 34.496 50.6744 34.0412H50.6949C52.8056 35.401 55.2619 36.119 57.7685 36.1087C60.3126 36.1148 62.8044 35.3827 64.9448 34L64.9653 34.0415C68.7981 36.1471 72.2022 38.9596 75 42.3318C68.2868 42.4559 62.9094 47.9635 62.9094 54.7147Z" fill="#46B29D"/>
<path d="M71.8857 23.5897C71.8766 30.9619 65.894 36.9361 58.5116 36.9451C55.9969 36.9554 53.5325 36.242 51.4131 34.8904C45.9697 31.4795 43.7269 24.6834 46.0734 18.7092C48.4196 12.735 54.6909 9.27317 61.0049 10.467C67.3189 11.6608 71.8887 17.1723 71.8857 23.5897Z" fill="#FDD7AD"/>
<path d="M106.864 23.5897C106.855 30.9619 100.873 36.9361 93.4901 36.9451C90.9754 36.9554 88.511 36.242 86.3916 34.8904C80.9482 31.4795 78.7055 24.6834 81.0519 18.7092C83.3983 12.735 89.6694 9.27317 95.9834 10.467C102.297 11.6608 106.867 17.1723 106.864 23.5897Z" fill="#FDD7AD"/>
<path d="M94 89.5306C93.162 90.2031 92.4033 90.9709 91.7384 91.8188C89.0754 95.3186 87.6608 99.6267 87.7247 104.043V109.939H85.6872C84.5635 109.942 83.6532 110.863 83.6497 112H67.3503C67.3468 110.863 66.4368 109.942 65.3128 109.939H63.2753V104.043C63.3392 99.6267 61.9246 95.3186 59.2616 91.8188C58.5969 90.9709 57.838 90.2034 57 89.5306L57.1629 89.3244C57.1629 73.4311 64.6402 66.608 66.7795 65C69.0748 67.373 72.2181 68.7106 75.4997 68.7106C78.7812 68.7106 81.9247 67.373 84.2198 65C86.3589 66.608 93.8364 73.4311 93.8364 89.3244L94 89.5306Z" fill="#F0C419"/>
<path d="M88 55.9915C88.0097 62.5849 82.6901 67.9492 76.0917 67.9996C69.4933 68.0501 64.0923 62.7678 64.0012 56.1749C63.9099 49.582 69.1629 44.1525 75.76 44.0208C75.8388 44.0042 75.9195 43.9975 75.9999 44.0009C76.1202 43.9975 76.2407 44.0042 76.3599 44.0208C82.8421 44.2073 87.9998 49.5118 88 55.9915Z" fill="#FDD7AD"/>
<path d="M42.2911 84C41.3618 83.9988 40.5691 83.2687 40.4161 82.2731C38.4443 69.4204 44.1077 54.8599 44.3502 54.2462C44.7667 53.2013 45.8825 52.7192 46.8459 53.1676C47.8092 53.616 48.2576 54.826 47.8487 55.8743C47.7939 56.0136 42.3842 69.9512 44.17 81.5928C44.2621 82.1925 44.1062 82.8058 43.7443 83.2696C43.3823 83.7333 42.8507 84.0005 42.2911 84Z" fill="#527F72"/>
<path d="M107.709 84C107.15 84.0005 106.618 83.7333 106.257 83.2696C105.895 82.806 105.739 82.1926 105.831 81.5931C107.621 69.9258 102.209 56.0201 102.154 55.8808C101.886 55.2023 101.972 54.4202 102.379 53.8288C102.786 53.2376 103.453 52.9272 104.127 53.0145C104.802 53.1019 105.383 53.5736 105.651 54.2521C105.893 54.8657 111.555 69.4231 109.584 82.2732C109.431 83.2689 108.638 83.9986 107.709 84Z" fill="#802D40"/>
<path d="M61.2053 102.831C60.038 102.831 59.0916 101.945 59.0916 100.851C59.0916 100.309 59.1689 87.4772 65.9133 79.793C66.3927 79.2452 67.1476 78.9788 67.8937 79.0945C68.6396 79.2103 69.2628 79.6903 69.5281 80.3535C69.7934 81.0168 69.66 81.7623 69.179 82.3085C63.3861 88.9078 63.319 100.732 63.319 100.851C63.3188 101.945 62.3726 102.831 61.2053 102.831Z" fill="#F29C1F"/>
<path d="M90.7964 102.83C89.6303 102.83 88.6846 101.946 88.6826 100.853C88.6826 100.734 88.5969 88.887 82.8227 82.3088C82.0835 81.4638 82.2145 80.2178 83.115 79.5241C84.0155 78.8303 85.3458 78.9505 86.0881 79.793C92.8326 87.4773 92.9099 100.309 92.9099 100.851C92.9097 101.944 91.9646 102.829 90.7983 102.83H90.7964V102.83Z" fill="#F29C1F"/>
<path d="M63.4941 103.266V109.186L64.0747 111.805L43.4471 112.29L43.5055 109.186L28.5762 94.2222C26.8716 92.53 25.4927 90.5374 24.5083 88.3446L16.4136 70.5041C16.1397 69.9143 15.9986 69.2714 16.0005 68.6208C16.0066 66.1202 18.0276 64.0945 20.5226 64.0884C22.3338 64.0816 23.9713 65.1676 24.673 66.8411L29.2985 77.6445C29.4225 77.9341 29.5671 78.2447 29.7116 78.5345C29.801 78.7584 29.9116 78.9734 30.0419 79.1762C30.0419 79.2177 30.0625 79.2383 30.0833 79.2796C30.1247 79.3623 30.1865 79.4657 30.2279 79.5487L31.0124 79.1347V79.1141C31.7591 78.3615 32.6613 77.7822 33.6555 77.4169C36.1483 76.4542 38.9664 76.9304 41.0066 78.6588C41.5848 79.1556 42.2042 79.6521 42.8445 80.1696C46.0274 82.8866 49.6248 85.0735 53.4995 86.6474C54.8281 87.0964 56.0611 87.7913 57.1338 88.6963C57.9832 89.3715 58.7521 90.1423 59.426 90.9936C62.1252 94.5071 63.5589 98.8325 63.4941 103.266Z" fill="#FDD7AD"/>
<path d="M135.767 68.6208C135.769 69.2714 135.628 69.9145 135.354 70.5041L127.259 88.3443C126.275 90.5374 124.896 92.5297 123.191 94.222L108.262 109.185L108.201 112.935L88.1013 112.29L88.2735 109.186V103.266C88.2087 98.8325 89.6424 94.5071 92.3413 90.9934C93.015 90.1421 93.7841 89.3715 94.6335 88.696C95.7062 87.791 96.939 87.0959 98.2679 86.6472C102.142 85.0733 105.74 82.8861 108.923 80.1693C109.563 79.6519 110.182 79.1551 110.761 78.6585C113.706 76.19 118.045 76.3879 120.755 79.1138V79.1345L121.54 79.5485C121.725 79.1966 121.911 78.8449 122.077 78.493C122.221 78.2239 122.345 77.9343 122.469 77.6445L127.094 66.8411C127.796 65.1676 129.434 64.0816 131.245 64.0884C133.74 64.0945 135.761 66.1202 135.767 68.6208Z" fill="#FDD7AD"/>
<path d="M44.3231 92.2158C43.5062 92.9917 42.1982 92.9917 41.3812 92.2158L33.695 84.7524C32.2958 83.4229 31.115 81.8938 30.1936 80.2183C30.1274 80.1054 30.0786 79.9838 30.0486 79.8572C30.0901 79.9374 30.1521 80.0377 30.1936 80.1181L30.9808 79.7167V79.6967C31.7299 78.9672 32.6351 78.4056 33.6326 78.0515C33.7131 78.1367 33.7828 78.2311 33.8398 78.3324C34.5793 79.6542 35.5148 80.864 36.616 81.9236L44.3231 89.3667C45.1312 90.1554 45.1312 91.4274 44.3231 92.2158Z" fill="#FAC176"/>
<path d="M107.683 92.2158C108.5 92.9917 109.808 92.9917 110.625 92.2158L118.311 84.7524C119.711 83.4229 120.891 81.8938 121.813 80.2183C121.879 80.1054 121.928 79.9838 121.958 79.8572C121.916 79.9374 121.854 80.0377 121.813 80.1181L121.026 79.7167V79.6967C120.276 78.9672 119.371 78.4056 118.374 78.0515C118.293 78.1367 118.224 78.2311 118.167 78.3324C117.427 79.6542 116.492 80.864 115.39 81.9236L107.683 89.3667C106.875 90.1554 106.875 91.4274 107.683 92.2158Z" fill="#FAC176"/>
<path d="M42.077 109H64.923C66.07 109 67 109.94 67 111.1V127.9C67 129.06 66.0702 130 64.923 130H42.077C40.93 130 40 129.06 40 127.9V111.1C40.0002 109.94 40.93 109 42.077 109Z" fill="#4482C3"/>
<path d="M61 122H59C57.8956 122 57 120.881 57 119.5C57 118.119 57.8953 117 59 117H61C62.1044 117 63 118.119 63 119.5C63 120.881 62.1044 122 61 122Z" fill="#285680"/>
<path d="M86.077 109H108.923C110.07 109 111 109.94 111 111.1V127.9C111 129.06 110.07 130 108.923 130H86.077C84.93 130 84 129.06 84 127.9V111.1C84 109.94 84.9298 109 86.077 109Z" fill="#4482C3"/>
<path d="M92 122H90C88.8956 122 88 120.881 88 119.5C88 118.119 88.8953 117 90 117H92C93.1044 117 94 118.119 94 119.5C94 120.881 93.1044 122 92 122Z" fill="#285680"/>
</svg>
