<svg width="150" height="150" viewBox="0 0 150 150" fill="none" xmlns="http://www.w3.org/2000/svg">
<path fill-rule="evenodd" clip-rule="evenodd" d="M75 150C116.421 150 150 116.421 150 75C150 33.5786 116.421 0 75 0C33.5786 0 0 33.5786 0 75C0 116.421 33.5786 150 75 150Z" fill="#DFEBFF"/>
<path fill-rule="evenodd" clip-rule="evenodd" d="M127 113.337C127 117.571 123.521 121 119.233 121H112.765C108.473 121 105 117.571 105 113.337V90.6651C105 86.4311 108.473 83 112.765 83H119.233C123.521 83 127 86.4311 127 90.6651V113.337Z" fill="#FF4133"/>
<path fill-rule="evenodd" clip-rule="evenodd" d="M112.765 83C108.473 83 105 86.5813 105 91.0006V94H127V91.0006C127 86.5813 123.521 83 119.233 83H112.765Z" fill="#B5173E"/>
<path fill-rule="evenodd" clip-rule="evenodd" d="M114 96H127V93H114V96Z" fill="#EEEBC9"/>
<path fill-rule="evenodd" clip-rule="evenodd" d="M114.482 94.3265H114.48L114.16 94.3225C114.07 94.3212 114 94.2496 114 94.1623C114.003 94.071 114.068 93.9915 114.164 94.0007L114.482 94.006C114.573 94.0073 114.643 94.0789 114.643 94.1688C114.643 94.2562 114.569 94.3265 114.482 94.3265Z" fill="#A89F53"/>
<path fill-rule="evenodd" clip-rule="evenodd" d="M116.173 94.3297H116.168L115.234 94.3218C115.105 94.3218 114.998 94.2489 115 94.1589C115 94.0716 115.102 94.0013 115.241 94L116.173 94.0092C116.302 94.0092 116.411 94.0821 116.407 94.1707C116.407 94.2607 116.299 94.3297 116.173 94.3297ZM118.031 94.3428L117.097 94.3362C116.967 94.3336 116.862 94.2614 116.864 94.1734C116.869 94.0847 116.967 94.0013 117.105 94.0151L118.035 94.0217C118.168 94.023 118.269 94.0952 118.269 94.1845C118.269 94.2732 118.164 94.3428 118.031 94.3428ZM119.897 94.3579H119.895L118.963 94.3513C118.831 94.3513 118.727 94.2745 118.727 94.1898C118.727 94.0985 118.831 94.0256 118.968 94.0309L119.898 94.0361C120.031 94.0374 120.136 94.1103 120.136 94.199C120.131 94.2863 120.027 94.3579 119.897 94.3579ZM121.761 94.3717H121.757L120.825 94.3658C120.696 94.3645 120.589 94.2922 120.592 94.2029C120.592 94.1143 120.696 94.0447 120.833 94.0447L121.764 94.0525C121.893 94.0525 122 94.1254 122 94.2141C121.994 94.3014 121.888 94.3717 121.761 94.3717Z" fill="#A89F53"/>
<path fill-rule="evenodd" clip-rule="evenodd" d="M122.483 94.3284H122.481L122.159 94.3232C122.071 94.3218 122 94.249 122 94.1603C122.003 94.0716 122.073 93.9882 122.164 94.0014L122.485 94.004C122.573 94.0079 122.645 94.0795 122.645 94.1682C122.641 94.2568 122.569 94.3284 122.483 94.3284Z" fill="#A89F53"/>
<path fill-rule="evenodd" clip-rule="evenodd" d="M124 99.3432C124 100.258 123.33 101 122.502 101C121.672 101 121 100.258 121 99.3432V94.6568C121 93.7425 121.672 93 122.502 93C123.33 93 124 93.7425 124 94.6568V99.3432Z" fill="#B5173E"/>
<path fill-rule="evenodd" clip-rule="evenodd" d="M24 113.337C24 117.571 27.4792 121 31.7682 121H38.24C42.5263 121 46 117.571 46 113.337V90.6651C46 86.4311 42.5263 83 38.24 83H31.7682C27.4792 83 24 86.4311 24 90.6651V113.337Z" fill="#FF4133"/>
<path fill-rule="evenodd" clip-rule="evenodd" d="M31.7682 83H38.24C42.5263 83 46 86.5813 46 91.0006V94H24V91.0006C24 86.5813 27.4764 83 31.7682 83Z" fill="#B5173E"/>
<path fill-rule="evenodd" clip-rule="evenodd" d="M24 96H37V93H24V96Z" fill="#EEEBC9"/>
<path fill-rule="evenodd" clip-rule="evenodd" d="M36.162 94.3265C36.0715 94.3265 36.0026 94.2562 36 94.1688C36 94.0789 36.0715 94.0073 36.1587 94.006L36.4814 94.0007C36.5699 93.9915 36.6427 94.071 36.644 94.1623C36.6467 94.2496 36.5752 94.3212 36.486 94.3225L36.164 94.3265H36.162Z" fill="#A89F53"/>
<path fill-rule="evenodd" clip-rule="evenodd" d="M34.836 94.3297C34.703 94.3297 34.5953 94.2607 34.5953 94.1707C34.5933 94.0821 34.7001 94.0092 34.8321 94.0092L35.7621 94C35.8941 94.0013 35.9999 94.0716 35.9999 94.1589C36.0038 94.2489 35.898 94.3218 35.7708 94.3218L34.836 94.3297ZM32.9703 94.3428C32.8392 94.3428 32.7324 94.2732 32.7305 94.1845C32.7305 94.0952 32.8353 94.023 32.9644 94.0217L33.8992 94.0151C34.0245 94.0013 34.1342 94.0847 34.1342 94.1734C34.14 94.2614 34.0361 94.3336 33.9041 94.3362L32.9741 94.3428H32.9703ZM31.1045 94.3579C30.9774 94.3579 30.8657 94.2863 30.8657 94.199C30.8657 94.1103 30.9686 94.0374 31.1016 94.0361L32.0355 94.0309C32.1587 94.0256 32.2743 94.0985 32.2743 94.1898C32.2743 94.2745 32.1704 94.3513 32.0393 94.3513L31.1084 94.3579H31.1045ZM29.2388 94.3717C29.1126 94.3717 29.0058 94.3014 29 94.2141C29 94.1254 29.1058 94.0525 29.2388 94.0525L30.1697 94.0447C30.294 94.0447 30.4095 94.1143 30.4105 94.2029C30.4105 94.2922 30.3047 94.3645 30.1736 94.3658L29.2446 94.3717H29.2388Z" fill="#A89F53"/>
<path fill-rule="evenodd" clip-rule="evenodd" d="M28.1581 94.3284C28.0721 94.3284 28 94.2568 28 94.1682C28 94.0795 28.0702 94.0079 28.1581 94.004L28.4775 94.0014C28.5614 93.9882 28.6388 94.0716 28.6414 94.1603C28.6414 94.249 28.5726 94.3218 28.4834 94.3232L28.1613 94.3284H28.1581Z" fill="#A89F53"/>
<path fill-rule="evenodd" clip-rule="evenodd" d="M26 99.3432C26 100.258 26.6702 101 27.4976 101C28.3273 101 29 100.258 29 99.3432V94.6568C29 93.7425 28.3273 93 27.4976 93C26.6702 93 26 93.7425 26 94.6568V99.3432Z" fill="#B5173E"/>
<path fill-rule="evenodd" clip-rule="evenodd" d="M55.522 23C57.614 18.1128 65.9106 12.2353 75.5005 12.2353C85.0858 12.2353 93.3851 18.1128 95.4743 23H100C98.1974 15.5421 88.0836 10 75.5005 10C62.9173 10 52.8053 15.5421 51 23H55.522Z" fill="#B5173E"/>
<path fill-rule="evenodd" clip-rule="evenodd" d="M113 122.959C113 127.4 109.417 131 104.999 131H45.0014C40.5816 131 37 127.4 37 122.959V37.6191C37 24.047 49.2999 22 53.7197 22H96.7971C101.215 22 113 25.0177 113 37.6191V122.959Z" fill="#FF4133"/>
<path fill-rule="evenodd" clip-rule="evenodd" d="M105 114.964C105 118.849 101.876 122 98.026 122H52.9767C49.1281 122 46 118.849 46 114.964V95.0372C46 91.1525 49.1281 88 52.9767 88H98.026C101.876 88 105 91.1525 105 95.0372V114.964Z" fill="#EA3663"/>
<path fill-rule="evenodd" clip-rule="evenodd" d="M39 128.302C40.2643 129.655 42.005 130.63 44 131V25C42.0593 26.1218 40.2915 27.6515 39 29.7266V128.302Z" fill="#B5173E"/>
<path fill-rule="evenodd" clip-rule="evenodd" d="M41.1607 27.6429H41.1581C41.0695 27.6429 41 27.5713 41 27.484V27.1622C41 27.0736 41.0721 27 41.1607 27C41.2486 27 41.3181 27.0736 41.3181 27.1622V27.484C41.3181 27.5713 41.2486 27.6429 41.1607 27.6429Z" fill="#EEEBC9"/>
<path fill-rule="evenodd" clip-rule="evenodd" d="M41.2295 30.3389C41.1397 30.3389 41.0682 30.2416 41.0682 30.1189L41.0715 29.2236C41.0715 29.1 41.141 29 41.2295 29C41.3181 29 41.3896 29.1018 41.3896 29.2236V30.1189C41.3896 30.2416 41.3181 30.3389 41.2295 30.3389ZM41.2295 32.1304C41.139 32.1304 41.0682 32.0322 41.0682 31.9086V31.0133C41.0682 30.8906 41.1397 30.7897 41.2295 30.7897C41.3181 30.7897 41.3889 30.8906 41.3889 31.0133L41.3876 31.9086C41.3876 32.0322 41.3181 32.1304 41.2295 32.1304ZM41.2263 33.9191C41.1377 33.9191 41.0656 33.8219 41.0656 33.6992L41.0682 32.803C41.0682 32.6803 41.1377 32.5794 41.2263 32.5794H41.2295C41.3181 32.5794 41.3876 32.6821 41.3876 32.803V33.6992C41.3876 33.8219 41.3155 33.9191 41.2263 33.9191ZM41.2263 35.7106H41.2236C41.1344 35.7106 41.0623 35.6097 41.0623 35.487L41.0656 34.5927C41.0656 34.4718 41.1377 34.3709 41.2263 34.3709C41.3155 34.3709 41.3876 34.4718 41.3856 34.5927V35.487C41.3856 35.6097 41.3155 35.7106 41.2263 35.7106ZM41.2236 37.5021C41.1344 37.5021 41.0623 37.4012 41.0623 37.2785V36.3814C41.0623 36.2614 41.1344 36.1596 41.2236 36.1596C41.3155 36.1596 41.3856 36.2614 41.3856 36.3814V37.2785C41.3856 37.4012 41.3128 37.5021 41.2236 37.5021ZM41.2217 39.2918C41.1344 39.29 41.0616 39.1918 41.0616 39.0691L41.0623 38.1711C41.0623 38.0502 41.1344 37.9493 41.2236 37.9493C41.3128 37.9493 41.3856 38.0502 41.3856 38.1711V39.0691C41.3817 39.1918 41.3128 39.2918 41.2217 39.2918ZM41.2217 41.0806C41.1338 41.0806 41.0616 40.9797 41.0616 40.857V39.9626C41.0616 39.8399 41.1344 39.7427 41.2217 39.7427C41.3128 39.7427 41.3817 39.8399 41.3817 39.9626V40.8606C41.3817 40.9815 41.3122 41.0806 41.2217 41.0806ZM41.2217 42.8703C41.1338 42.8703 41.0603 42.7712 41.0603 42.6485L41.0616 41.7523C41.0616 41.6314 41.1338 41.5305 41.2217 41.5305C41.3102 41.5305 41.3817 41.6314 41.3817 41.7541V42.6485C41.3817 42.7712 41.3102 42.8703 41.2217 42.8703ZM41.2177 44.6636C41.1305 44.6636 41.0603 44.56 41.0603 44.44V43.5429C41.0603 43.4211 41.1305 43.3193 41.2217 43.3193C41.3089 43.3193 41.3797 43.4211 41.3797 43.5429V44.44C41.3797 44.56 41.3076 44.6636 41.2177 44.6636ZM41.2177 46.4515C41.1305 46.4515 41.0577 46.3515 41.0577 46.2288V45.3326C41.0577 45.2081 41.1305 45.1108 41.2177 45.1108C41.3076 45.1108 41.3797 45.2081 41.3797 45.3326L41.3778 46.2288C41.3778 46.3515 41.3076 46.4515 41.2177 46.4515ZM41.2177 48.2402C41.1285 48.2402 41.0538 48.1394 41.0538 48.0166L41.0577 47.1223C41.0577 46.9996 41.1305 46.9023 41.2177 46.9023C41.3037 46.9023 41.3778 46.9996 41.3778 47.1223V48.0166C41.3778 48.1394 41.3037 48.2402 41.2177 48.2402ZM41.2145 50.0317C41.1285 50.0317 41.0538 49.9309 41.0538 49.8081V48.9119C41.0538 48.7911 41.1285 48.6911 41.2151 48.6911C41.3037 48.6911 41.3778 48.7911 41.3778 48.9119V49.81C41.3778 49.9309 41.3037 50.0317 41.2145 50.0317ZM41.2145 51.8232C41.1259 51.8178 41.0518 51.7178 41.0518 51.5997V50.7025C41.0538 50.5807 41.1259 50.4826 41.2145 50.4826C41.3037 50.4826 41.3778 50.5807 41.3745 50.7025V51.5997C41.3745 51.7214 41.3017 51.8232 41.2145 51.8232ZM41.2145 53.612C41.1246 53.612 41.0518 53.5075 41.0518 53.3866V52.4922C41.0518 52.3677 41.1246 52.2741 41.2145 52.2741C41.3017 52.2741 41.3745 52.3677 41.3745 52.4922V53.3866C41.3732 53.5075 41.3017 53.612 41.2145 53.612ZM41.2105 55.4017C41.122 55.4017 41.0518 55.3008 41.0518 55.1781V54.2837C41.0518 54.1592 41.1246 54.0601 41.2145 54.0601C41.3017 54.0601 41.3732 54.1592 41.3732 54.2837L41.3719 55.1781C41.3719 55.3008 41.2984 55.4017 41.2105 55.4017ZM41.2105 57.1914C41.12 57.1914 41.0505 57.0905 41.0505 56.9678L41.0518 56.0743C41.0518 55.9525 41.122 55.8489 41.2105 55.8489C41.2984 55.8507 41.3719 55.9525 41.3706 56.0743V56.9678C41.3699 57.0905 41.2984 57.1914 41.2105 57.1914ZM41.2105 58.9793C41.1187 58.9793 41.0466 58.8793 41.0466 58.7575L41.0505 57.8622C41.0505 57.7386 41.12 57.644 41.2105 57.644C41.2984 57.644 41.3699 57.7413 41.3699 57.8622V58.7593C41.3699 58.8793 41.2978 58.9793 41.2105 58.9793ZM41.2079 60.7699C41.1187 60.7699 41.0466 60.669 41.0466 60.5463V59.6537C41.0466 59.5292 41.1187 59.4301 41.2079 59.4301C41.2978 59.4301 41.3699 59.5292 41.3699 59.6537V60.5463C41.3699 60.669 41.2978 60.7699 41.2079 60.7699ZM41.2059 62.5595C41.1181 62.5595 41.0446 62.4605 41.0446 62.3359L41.0466 61.4452C41.0466 61.3188 41.1187 61.2216 41.2079 61.2216C41.2938 61.2216 41.3673 61.3188 41.3673 61.4452L41.3666 62.3359C41.3666 62.4605 41.2938 62.5595 41.2059 62.5595ZM41.2059 64.351C41.1167 64.351 41.0446 64.252 41.0446 64.1256V63.2322C41.0446 63.1085 41.1167 63.0122 41.2059 63.0122C41.2938 63.0122 41.3666 63.1085 41.3666 63.2322V64.1256C41.3666 64.252 41.2938 64.351 41.2059 64.351ZM41.204 66.1407C41.1128 66.1407 41.0446 66.0389 41.0446 65.9153V65.0218C41.0446 64.8991 41.1167 64.8019 41.2059 64.8019C41.2938 64.8019 41.3666 64.8991 41.3666 65.0218L41.364 65.9171C41.364 66.0389 41.2932 66.1407 41.204 66.1407ZM41.2027 67.9295C41.1128 67.9295 41.0413 67.8286 41.0413 67.7059L41.0426 66.8133C41.0426 66.6906 41.1128 66.5916 41.2027 66.5916C41.2932 66.5916 41.364 66.6906 41.364 66.8133V67.7077C41.364 67.8286 41.2919 67.9295 41.2027 67.9295ZM41.2013 69.7192C41.1128 69.7192 41.04 69.6219 41.04 69.4974L41.0413 68.603C41.0413 68.4785 41.1128 68.3812 41.2013 68.3812C41.2919 68.3812 41.364 68.4785 41.3601 68.603V69.4974C41.3601 69.6219 41.2886 69.7192 41.2013 69.7192ZM41.1987 71.5107C41.1115 71.5107 41.0387 71.4116 41.0387 71.2871L41.04 70.39C41.04 70.2682 41.1115 70.1718 41.1987 70.1718H41.2013C41.2886 70.1718 41.3601 70.2718 41.3601 70.39V71.2871C41.3601 71.4116 41.2886 71.5107 41.1987 71.5107ZM41.1987 73.2986C41.1089 73.2986 41.0361 73.1986 41.0361 73.075L41.0387 72.1815C41.0387 72.0588 41.1115 71.9597 41.1987 71.9597C41.2873 71.9597 41.3601 72.0588 41.3601 72.1815L41.3594 73.075C41.3594 73.1986 41.2873 73.2986 41.1987 73.2986ZM41.1968 75.0891C41.1089 75.0891 41.0348 74.9901 41.0348 74.8674L41.0361 73.973C41.0361 73.8503 41.1089 73.7494 41.1968 73.7494H41.1987C41.2873 73.7494 41.3594 73.8503 41.3594 73.9748V74.8674C41.3594 74.9901 41.2859 75.0891 41.1968 75.0891ZM41.1968 76.8806C41.1069 76.8806 41.0348 76.7816 41.0348 76.6571V75.7627C41.0348 75.64 41.1089 75.54 41.1968 75.54C41.2859 75.54 41.3594 75.64 41.3594 75.7627L41.3574 76.6571C41.3574 76.7816 41.2859 76.8806 41.1968 76.8806ZM41.1954 78.6703C41.1069 78.6685 41.0341 78.5694 41.0341 78.4486L41.0348 77.5533C41.0348 77.4296 41.1069 77.3297 41.1954 77.3297C41.2859 77.3297 41.3574 77.4296 41.3574 77.5533L41.3561 78.4486C41.3561 78.5694 41.2827 78.6703 41.1954 78.6703ZM41.1954 80.46C41.103 80.46 41.0328 80.3619 41.0328 80.2355L41.0341 79.3429C41.0341 79.2202 41.1069 79.1193 41.1954 79.1193C41.2827 79.1193 41.3535 79.2202 41.3535 79.3429V80.2373C41.3535 80.3619 41.2827 80.46 41.1954 80.46ZM41.1922 82.2506C41.103 82.2506 41.0328 82.1515 41.0328 82.027V81.1326C41.0328 81.0117 41.103 80.9109 41.1922 80.9109H41.1954C41.2827 80.9109 41.3535 81.0117 41.3535 81.1326V82.027C41.3535 82.1515 41.2807 82.2506 41.1922 82.2506ZM41.1922 84.0403C41.103 84.0403 41.0321 83.9394 41.0321 83.8185L41.0328 82.9223C41.0328 82.7996 41.103 82.6978 41.1922 82.6978C41.2807 82.7014 41.3535 82.8032 41.3535 82.9223L41.3509 83.8185C41.3509 83.9394 41.2807 84.0403 41.1922 84.0403ZM41.1895 85.83C41.0997 85.83 41.0321 85.73 41.0321 85.6082V84.7129C41.0321 84.5893 41.1023 84.4875 41.1895 84.4875C41.2807 84.4893 41.3509 84.5893 41.3509 84.7129V85.6082C41.3509 85.73 41.2768 85.83 41.1895 85.83ZM41.1895 87.6197C41.0997 87.6197 41.0282 87.5197 41.0282 87.3952V86.5026C41.0282 86.3817 41.0997 86.279 41.1895 86.279C41.2768 86.279 41.3509 86.3817 41.3509 86.5026L41.3489 87.3952C41.3489 87.5197 41.2768 87.6197 41.1895 87.6197ZM41.1869 89.4103C41.0977 89.4103 41.0282 89.3112 41.0282 89.1867V88.2905C41.0282 88.1696 41.0997 88.0687 41.1869 88.0687H41.1895C41.2768 88.0687 41.3489 88.1696 41.3489 88.2905V89.1867C41.3489 89.3112 41.2755 89.4103 41.1869 89.4103ZM41.1869 91.1981C41.0938 91.1981 41.0249 91.1027 41.0249 90.9782L41.0282 90.0829C41.0282 89.9593 41.0977 89.8575 41.1869 89.8575C41.2755 89.8575 41.3489 89.9593 41.3489 90.0829L41.345 90.9782C41.345 91.1027 41.2755 91.1981 41.1869 91.1981ZM41.1836 92.9896C41.0938 92.9896 41.0236 92.8915 41.0236 92.766L41.0249 91.8726C41.0249 91.7489 41.0938 91.6508 41.1836 91.6508H41.1869C41.2755 91.6508 41.345 91.7489 41.345 91.8726V92.766C41.345 92.8915 41.2722 92.9896 41.1836 92.9896ZM41.1836 94.7802C41.0925 94.7802 41.0236 94.6812 41.0236 94.5566V93.6604C41.0236 93.5395 41.0938 93.4405 41.1836 93.4405C41.2722 93.4405 41.345 93.5395 41.345 93.6604L41.341 94.5566C41.341 94.6812 41.2722 94.7802 41.1836 94.7802ZM41.181 96.5681C41.0925 96.5681 41.0197 96.469 41.0236 96.3481V95.4501C41.0236 95.331 41.0925 95.2301 41.181 95.2301C41.2715 95.232 41.341 95.331 41.341 95.4519V96.3481C41.341 96.4708 41.2702 96.5681 41.181 96.5681ZM41.181 98.3614C41.0925 98.3596 41.0197 98.2605 41.0197 98.136V97.2407C41.0197 97.1207 41.0925 97.0189 41.181 97.0189C41.2702 97.0189 41.341 97.1207 41.341 97.2443V98.1378C41.341 98.2605 41.2702 98.3614 41.181 98.3614ZM41.1777 100.151C41.0905 100.151 41.0197 100.049 41.0197 99.9275V99.0322C41.0197 98.9095 41.0925 98.8086 41.1797 98.8086C41.2702 98.8086 41.341 98.9095 41.3391 99.0322V99.9275C41.3391 100.049 41.2702 100.151 41.1777 100.151ZM41.1777 101.94C41.0905 101.94 41.0171 101.839 41.0171 101.718L41.0197 100.822C41.0197 100.699 41.0905 100.598 41.1777 100.598C41.2669 100.6 41.3391 100.701 41.3391 100.822L41.3371 101.718C41.3371 101.839 41.2669 101.94 41.1777 101.94ZM41.1777 103.728C41.0872 103.728 41.0171 103.63 41.0171 103.508V102.612C41.0171 102.489 41.0872 102.388 41.1777 102.388C41.2669 102.391 41.3371 102.489 41.3371 102.612V103.508C41.3371 103.63 41.2636 103.728 41.1777 103.728ZM41.1745 105.519C41.0872 105.519 41.0138 105.418 41.0138 105.297V104.402C41.0138 104.279 41.0872 104.179 41.1777 104.179C41.2636 104.179 41.3371 104.279 41.3371 104.402V105.297C41.3371 105.418 41.2636 105.519 41.1745 105.519ZM41.1745 107.311H41.1731C41.0833 107.311 41.0105 107.209 41.0138 107.088V106.194C41.0138 106.069 41.0872 105.97 41.1745 105.97C41.2636 105.97 41.3371 106.069 41.3358 106.194V107.088C41.3358 107.209 41.2617 107.311 41.1745 107.311ZM41.1731 109.101C41.0833 109.101 41.0105 109 41.0105 108.878V107.982C41.0105 107.857 41.0833 107.756 41.1731 107.756C41.2617 107.756 41.3345 107.857 41.3345 107.982V108.878C41.3345 109 41.2617 109.101 41.1731 109.101ZM41.1731 110.891H41.1705C41.0826 110.889 41.0105 110.792 41.0105 110.666V109.771C41.0105 109.649 41.0833 109.55 41.1731 109.55C41.2617 109.55 41.3345 109.649 41.3332 109.771V110.667C41.3312 110.792 41.2591 110.891 41.1731 110.891ZM41.1705 112.681C41.08 112.681 41.0105 112.578 41.0105 112.457V111.56C41.0105 111.44 41.0813 111.34 41.1705 111.34C41.2591 111.34 41.3312 111.44 41.3312 111.562V112.457C41.3299 112.578 41.2591 112.681 41.1705 112.681ZM41.1672 114.469C41.0787 114.469 41.0092 114.369 41.0092 114.246L41.0105 113.351C41.0105 113.227 41.08 113.128 41.1705 113.128C41.2591 113.13 41.3299 113.231 41.3299 113.353L41.3292 114.246C41.3292 114.369 41.2591 114.469 41.1672 114.469ZM41.1672 116.257C41.0787 116.257 41.0092 116.162 41.0092 116.037V115.141C41.0092 115.017 41.0787 114.921 41.1672 114.921C41.2591 114.921 41.3292 115.017 41.3292 115.143V116.037C41.3292 116.162 41.2564 116.257 41.1672 116.257ZM41.1672 118.051H41.1653C41.0774 118.051 41.0039 117.948 41.0039 117.825L41.0066 116.933C41.0066 116.808 41.0787 116.708 41.1672 116.708C41.2564 116.708 41.3292 116.808 41.3292 116.933L41.3279 117.825C41.3279 117.948 41.2545 118.051 41.1672 118.051ZM41.1653 119.84C41.0761 119.84 41.0039 119.739 41.0039 119.617V118.723C41.0039 118.598 41.0774 118.5 41.1653 118.5C41.2545 118.5 41.3253 118.598 41.3253 118.723V119.617C41.3253 119.739 41.2545 119.84 41.1653 119.84ZM41.164 121.631C41.0761 121.631 41.0039 121.53 41.0039 121.407V120.513C41.0039 120.388 41.0761 120.291 41.1653 120.291C41.2545 120.291 41.3253 120.388 41.3253 120.513L41.3233 121.407C41.3233 121.53 41.2545 121.631 41.164 121.631ZM41.1613 123.421C41.0728 123.421 41.0013 123.32 41.0013 123.195V122.303C41.0039 122.178 41.0761 122.081 41.164 122.081C41.2545 122.081 41.3233 122.178 41.3233 122.303V123.195C41.3233 123.322 41.2512 123.421 41.1613 123.421ZM41.1613 125.21H41.1587C41.0728 125.21 41 125.109 41.0013 124.985V124.091C41.0013 123.97 41.0728 123.87 41.1613 123.87C41.2512 123.87 41.3233 123.97 41.3233 124.091L41.3201 124.985C41.3201 125.109 41.2499 125.21 41.1613 125.21ZM41.1587 127C41.0715 127 41 126.898 41 126.776V125.881C41 125.76 41.0728 125.661 41.1587 125.661C41.2499 125.661 41.3201 125.76 41.3201 125.883V126.776C41.3201 126.898 41.2473 127 41.1587 127Z" fill="#EEEBC9"/>
<path fill-rule="evenodd" clip-rule="evenodd" d="M41.1607 127.643C41.0735 127.643 41 127.571 41 127.481V127.16C41 127.071 41.0735 127 41.1607 127C41.2499 127 41.322 127.071 41.322 127.161V127.481C41.322 127.571 41.2486 127.643 41.1607 127.643Z" fill="#EEEBC9"/>
<path fill-rule="evenodd" clip-rule="evenodd" d="M112 128.302C110.74 129.655 108.993 130.63 107 131V25C108.94 26.1218 110.713 27.6515 112 29.7266V128.302Z" fill="#B5173E"/>
<path fill-rule="evenodd" clip-rule="evenodd" d="M109.16 27.6429C109.072 27.6429 109 27.5713 109 27.484V27.1622C109 27.0736 109.071 27 109.16 27C109.247 27 109.321 27.0736 109.321 27.1622L109.322 27.484C109.322 27.5713 109.251 27.6429 109.16 27.6429Z" fill="#EEEBC9"/>
<path fill-rule="evenodd" clip-rule="evenodd" d="M109.161 30.3389C109.072 30.3389 109 30.2416 109 30.1189V29.2236C109 29.1018 109.072 29 109.16 29C109.251 29 109.322 29.1 109.322 29.2236V30.1189C109.322 30.2416 109.251 30.3389 109.161 30.3389ZM109.161 32.1304C109.073 32.1304 109 32.0322 109 31.9086V31.0133C109 30.8906 109.072 30.7897 109.161 30.7897C109.251 30.7897 109.322 30.8906 109.322 31.0133V31.9086C109.322 32.0322 109.251 32.1304 109.161 32.1304ZM109.164 33.9191C109.075 33.9191 109.005 33.8219 109.005 33.6992L109.004 32.803C109.004 32.6803 109.073 32.5794 109.164 32.5794C109.252 32.5794 109.322 32.6803 109.322 32.803L109.325 33.6992C109.325 33.8219 109.252 33.9191 109.164 33.9191ZM109.164 35.7106C109.075 35.7106 109.005 35.6097 109.005 35.487V34.5927C109.005 34.4718 109.075 34.3709 109.164 34.3709C109.252 34.3709 109.325 34.4718 109.325 34.5927V35.487C109.325 35.6097 109.256 35.7106 109.167 35.7106H109.164ZM109.167 37.5021C109.078 37.5021 109.005 37.4012 109.005 37.2785V36.3814C109.005 36.2614 109.078 36.1596 109.167 36.1596C109.256 36.1596 109.325 36.2614 109.325 36.3814L109.327 37.2785C109.327 37.4012 109.256 37.5021 109.167 37.5021ZM109.167 39.2918C109.078 39.2918 109.008 39.1918 109.008 39.0691L109.005 38.1711C109.005 38.0502 109.078 37.9493 109.167 37.9493C109.256 37.9493 109.329 38.0502 109.329 38.1711V39.0691C109.329 39.1918 109.257 39.29 109.167 39.2918ZM109.169 41.0806C109.081 41.0806 109.008 40.9815 109.008 40.8606V39.9626C109.008 39.8399 109.078 39.7427 109.169 39.7427C109.257 39.7427 109.329 39.8399 109.329 39.9626L109.331 40.857C109.331 40.9797 109.257 41.0806 109.169 41.0806ZM109.169 42.8703C109.081 42.8703 109.01 42.7712 109.01 42.6485L109.008 41.7541C109.008 41.6314 109.081 41.5305 109.169 41.5305C109.257 41.5305 109.331 41.6314 109.331 41.7523V42.6485C109.331 42.7712 109.26 42.8703 109.172 42.8703H109.169ZM109.172 44.6636C109.083 44.6636 109.012 44.56 109.012 44.44L109.01 43.5429C109.01 43.4211 109.083 43.3193 109.172 43.3193C109.26 43.3193 109.331 43.4211 109.331 43.5429L109.333 44.44C109.333 44.56 109.261 44.6636 109.172 44.6636ZM109.172 46.4515C109.083 46.4515 109.014 46.3515 109.014 46.2288L109.012 45.3326C109.012 45.2081 109.083 45.1108 109.172 45.1108C109.261 45.1108 109.333 45.2081 109.333 45.3326V46.2288C109.333 46.3515 109.261 46.4515 109.172 46.4515ZM109.174 48.2402C109.087 48.2402 109.014 48.1394 109.014 48.0166V47.1223C109.014 46.9996 109.083 46.9023 109.172 46.9023C109.261 46.9023 109.333 46.9996 109.333 47.1223V48.0166C109.336 48.1394 109.263 48.2402 109.174 48.2402ZM109.174 50.0317C109.087 50.0317 109.016 49.9309 109.016 49.81L109.014 48.9119C109.014 48.7911 109.087 48.6911 109.174 48.6911C109.263 48.6911 109.336 48.7911 109.336 48.9119V49.8081C109.336 49.9309 109.265 50.0317 109.174 50.0317ZM109.177 51.8232C109.089 51.8232 109.016 51.7214 109.016 51.5997V50.7025C109.016 50.5807 109.087 50.4826 109.177 50.4826C109.265 50.4826 109.336 50.5807 109.336 50.7025L109.338 51.5997C109.338 51.7178 109.265 51.8178 109.177 51.8232ZM109.177 53.612C109.089 53.612 109.016 53.5075 109.016 53.3866V52.4922C109.016 52.3677 109.089 52.2741 109.177 52.2741C109.266 52.2741 109.338 52.3677 109.338 52.4922V53.3866C109.338 53.5075 109.266 53.612 109.177 53.612ZM109.179 55.4017C109.09 55.4017 109.019 55.3008 109.019 55.1781V54.2837C109.019 54.1592 109.09 54.0601 109.179 54.0601C109.27 54.0601 109.338 54.1592 109.338 54.2837V55.1781C109.338 55.3008 109.27 55.4017 109.179 55.4017ZM109.182 57.1914C109.092 57.1914 109.019 57.0905 109.019 56.9678V56.0743C109.019 55.9525 109.092 55.8507 109.179 55.8489C109.27 55.8489 109.341 55.9525 109.341 56.0743V56.9678C109.341 57.0905 109.27 57.1914 109.182 57.1914ZM109.183 58.9793C109.093 58.9793 109.022 58.8793 109.022 58.7593V57.8622C109.022 57.7413 109.092 57.644 109.182 57.644C109.27 57.644 109.341 57.7386 109.341 57.8622V58.7575C109.341 58.8793 109.27 58.9793 109.183 58.9793ZM109.183 60.7699C109.093 60.7699 109.025 60.669 109.025 60.5463L109.022 59.6537C109.022 59.5292 109.093 59.4301 109.183 59.4301C109.27 59.4301 109.341 59.5292 109.344 59.6537V60.5463C109.344 60.669 109.27 60.7699 109.183 60.7699ZM109.186 62.5595C109.096 62.5595 109.025 62.4605 109.025 62.3359V61.4452C109.025 61.3188 109.093 61.2216 109.183 61.2216C109.27 61.2216 109.344 61.3188 109.344 61.4452L109.347 62.3359C109.347 62.4605 109.273 62.5595 109.186 62.5595ZM109.186 64.351C109.096 64.351 109.025 64.252 109.025 64.1256V63.2322C109.025 63.1085 109.096 63.0122 109.186 63.0122C109.273 63.0122 109.347 63.1085 109.347 63.2322V64.1256C109.347 64.252 109.273 64.351 109.186 64.351ZM109.189 66.1407C109.1 66.1407 109.026 66.0389 109.025 65.9171V65.0218C109.025 64.8991 109.096 64.8019 109.186 64.8019C109.273 64.8019 109.347 64.8991 109.35 65.0218V65.9153C109.35 66.0389 109.277 66.1407 109.189 66.1407ZM109.189 67.9295C109.1 67.9295 109.026 67.8286 109.026 67.7077V66.8133C109.026 66.6906 109.1 66.5916 109.189 66.5916C109.277 66.5916 109.35 66.6906 109.35 66.8133V67.7059C109.35 67.8286 109.277 67.9295 109.189 67.9295ZM109.19 69.7192C109.102 69.7192 109.03 69.6219 109.03 69.4974L109.028 68.603C109.028 68.4785 109.1 68.3812 109.19 68.3812C109.277 68.3812 109.35 68.4785 109.35 68.603V69.4974C109.35 69.6219 109.277 69.7192 109.19 69.7192ZM109.19 71.5107C109.102 71.5107 109.031 71.4116 109.031 71.2871V70.39C109.03 70.2718 109.102 70.1718 109.19 70.1718C109.279 70.1718 109.35 70.2682 109.35 70.39L109.352 71.2871C109.352 71.4116 109.282 71.5107 109.19 71.5107ZM109.193 73.2986C109.102 73.2986 109.031 73.1986 109.031 73.075V72.1815C109.031 72.0588 109.102 71.9597 109.19 71.9597C109.282 71.9597 109.352 72.0588 109.352 72.1815V73.075C109.352 73.1986 109.282 73.2986 109.193 73.2986ZM109.193 75.0891C109.105 75.0891 109.032 74.9901 109.032 74.8674V73.9748C109.032 73.8503 109.105 73.7494 109.193 73.7494C109.283 73.7494 109.353 73.8503 109.353 73.973V74.8674C109.353 74.9901 109.283 75.0891 109.193 75.0891ZM109.196 76.8806C109.105 76.8806 109.035 76.7816 109.035 76.6571L109.034 75.7627C109.034 75.64 109.105 75.54 109.193 75.54C109.284 75.54 109.354 75.64 109.354 75.7627V76.6571C109.354 76.7816 109.284 76.8806 109.196 76.8806ZM109.197 78.6703C109.108 78.6703 109.035 78.5694 109.035 78.4486V77.5533C109.035 77.4296 109.108 77.3297 109.196 77.3297C109.285 77.3297 109.354 77.4296 109.357 77.5533V78.4486C109.357 78.5694 109.285 78.6685 109.197 78.6703ZM109.198 80.46C109.108 80.46 109.039 80.3619 109.039 80.2373L109.035 79.3429C109.035 79.2202 109.108 79.1193 109.198 79.1193C109.285 79.1193 109.357 79.2202 109.357 79.3429V80.2355C109.357 80.3619 109.285 80.46 109.198 80.46ZM109.198 82.2506C109.11 82.2506 109.039 82.1515 109.039 82.027V81.1326C109.039 81.0117 109.108 80.9109 109.198 80.9109C109.288 80.9109 109.357 81.0117 109.357 81.1326V82.027C109.361 82.1515 109.288 82.2506 109.199 82.2506H109.198ZM109.199 84.0403C109.11 84.0403 109.041 83.9394 109.041 83.8185L109.039 82.9223C109.039 82.8032 109.11 82.7014 109.199 82.6978C109.288 82.6978 109.361 82.7996 109.361 82.9223V83.8185C109.361 83.9394 109.288 84.0403 109.2 84.0403H109.199ZM109.202 85.83C109.114 85.83 109.041 85.73 109.041 85.6082V84.7129C109.041 84.5893 109.112 84.4893 109.2 84.4875C109.288 84.4875 109.361 84.5893 109.361 84.7129L109.363 85.6082C109.363 85.73 109.292 85.83 109.202 85.83ZM109.203 87.6197C109.115 87.6197 109.041 87.5197 109.041 87.3952V86.5026C109.041 86.3817 109.114 86.279 109.202 86.279C109.292 86.279 109.363 86.3817 109.363 86.5026V87.3952C109.363 87.5197 109.292 87.6197 109.203 87.6197ZM109.205 89.4103C109.115 89.4103 109.044 89.3112 109.044 89.1867L109.041 88.2905C109.041 88.1696 109.115 88.0687 109.203 88.0687C109.292 88.0687 109.366 88.1696 109.366 88.2905V89.1867C109.366 89.3112 109.293 89.4103 109.205 89.4103ZM109.205 91.1981C109.115 91.1981 109.044 91.1027 109.044 90.9782V90.0829C109.044 89.9593 109.115 89.8575 109.205 89.8575C109.293 89.8575 109.366 89.9593 109.366 90.0829V90.9782C109.366 91.1027 109.293 91.1981 109.205 91.1981ZM109.207 92.9896C109.119 92.9896 109.045 92.8915 109.045 92.766V91.8726C109.044 91.7489 109.115 91.6508 109.205 91.6508H109.207C109.293 91.6508 109.366 91.7489 109.366 91.8726L109.367 92.766C109.367 92.8915 109.294 92.9896 109.207 92.9896ZM109.209 94.7802C109.119 94.7802 109.047 94.6812 109.047 94.5566L109.045 93.6604C109.045 93.5395 109.119 93.4405 109.207 93.4405C109.294 93.4405 109.367 93.5395 109.368 93.6604V94.5566C109.368 94.6812 109.294 94.7802 109.209 94.7802ZM109.209 96.5681C109.121 96.5681 109.047 96.4708 109.047 96.3481V95.4519C109.047 95.331 109.119 95.232 109.209 95.2301C109.294 95.2301 109.368 95.331 109.369 95.4501V96.3481C109.369 96.469 109.298 96.5681 109.209 96.5681ZM109.209 98.3614C109.121 98.3614 109.047 98.2605 109.047 98.1378V97.2443C109.047 97.1207 109.121 97.0189 109.209 97.0189C109.298 97.0189 109.371 97.1207 109.371 97.2407V98.136C109.371 98.2605 109.298 98.3596 109.209 98.3614ZM109.212 100.151C109.124 100.151 109.051 100.049 109.051 99.9275L109.047 99.0322C109.047 98.9095 109.121 98.8086 109.209 98.8086H109.212C109.3 98.8086 109.371 98.9095 109.371 99.0322V99.9275C109.373 100.049 109.302 100.151 109.212 100.151ZM109.212 101.94C109.124 101.94 109.052 101.839 109.052 101.718L109.051 100.822C109.051 100.701 109.124 100.6 109.212 100.598C109.302 100.598 109.373 100.699 109.373 100.822V101.718C109.373 101.839 109.302 101.94 109.212 101.94ZM109.214 103.728C109.124 103.728 109.054 103.63 109.054 103.508L109.052 102.612C109.052 102.489 109.124 102.391 109.214 102.388C109.302 102.388 109.373 102.489 109.373 102.612V103.508C109.373 103.63 109.304 103.728 109.214 103.728ZM109.215 105.519C109.128 105.519 109.056 105.418 109.054 105.297V104.402C109.054 104.279 109.128 104.179 109.215 104.179C109.304 104.179 109.373 104.279 109.373 104.402L109.376 105.297C109.376 105.418 109.304 105.519 109.215 105.519ZM109.218 107.311C109.129 107.311 109.056 107.209 109.056 107.088V106.194C109.056 106.069 109.128 105.97 109.215 105.97C109.308 105.97 109.376 106.069 109.376 106.194V107.088C109.376 107.209 109.308 107.311 109.218 107.311ZM109.218 109.101C109.129 109.101 109.056 109 109.056 108.878V107.982C109.056 107.857 109.129 107.756 109.218 107.756C109.308 107.756 109.378 107.857 109.378 107.982V108.878C109.378 109 109.308 109.101 109.218 109.101ZM109.219 110.891C109.131 110.891 109.06 110.792 109.06 110.667L109.056 109.771C109.056 109.649 109.129 109.55 109.218 109.55H109.219C109.308 109.55 109.378 109.649 109.378 109.771L109.382 110.666C109.382 110.792 109.31 110.889 109.219 110.891ZM109.22 112.681C109.131 112.681 109.062 112.578 109.06 112.457V111.562C109.06 111.44 109.131 111.34 109.219 111.34H109.22C109.31 111.34 109.382 111.44 109.382 111.56V112.457C109.382 112.578 109.31 112.681 109.222 112.681H109.22ZM109.222 114.469C109.131 114.469 109.062 114.369 109.062 114.246V113.353C109.062 113.227 109.131 113.13 109.222 113.128C109.31 113.128 109.382 113.227 109.382 113.351V114.246C109.382 114.369 109.31 114.469 109.222 114.469ZM109.224 116.257C109.134 116.257 109.062 116.162 109.062 116.037V115.143C109.062 115.017 109.131 114.921 109.224 114.921C109.31 114.921 109.382 115.017 109.382 115.141L109.384 116.037C109.384 116.162 109.311 116.257 109.224 116.257ZM109.226 118.051C109.137 118.051 109.066 117.948 109.066 117.825L109.062 116.933C109.062 116.808 109.134 116.708 109.224 116.708H109.226C109.311 116.708 109.384 116.808 109.384 116.933V117.825C109.388 117.948 109.313 118.051 109.226 118.051ZM109.226 119.84C109.137 119.84 109.066 119.739 109.066 119.617V118.723C109.066 118.598 109.137 118.5 109.226 118.5C109.313 118.5 109.388 118.598 109.388 118.723V119.617C109.388 119.739 109.313 119.84 109.226 119.84ZM109.226 121.631C109.14 121.631 109.066 121.53 109.066 121.407L109.066 120.513C109.066 120.388 109.137 120.291 109.226 120.291C109.313 120.291 109.388 120.388 109.388 120.513V121.407C109.388 121.53 109.317 121.631 109.226 121.631ZM109.23 123.421C109.14 123.421 109.066 123.322 109.066 123.195V122.303C109.066 122.178 109.14 122.081 109.23 122.081C109.317 122.081 109.389 122.178 109.389 122.303L109.39 123.195C109.39 123.32 109.317 123.421 109.23 123.421ZM109.23 125.21C109.14 125.21 109.068 125.109 109.068 124.985V124.091C109.066 123.97 109.14 123.87 109.23 123.87C109.317 123.87 109.39 123.97 109.39 124.091V124.985C109.39 125.109 109.317 125.21 109.23 125.21ZM109.23 127C109.144 127 109.071 126.898 109.071 126.776L109.07 125.883C109.07 125.76 109.144 125.661 109.23 125.661C109.317 125.661 109.39 125.76 109.39 125.881L109.394 126.776C109.394 126.898 109.32 127 109.23 127Z" fill="#EEEBC9"/>
<path fill-rule="evenodd" clip-rule="evenodd" d="M109.159 127.643C109.071 127.643 109 127.571 109 127.481V127.161C109 127.071 109.071 127 109.159 127C109.249 127 109.321 127.071 109.321 127.16V127.481C109.321 127.571 109.249 127.643 109.159 127.643Z" fill="#EEEBC9"/>
<path fill-rule="evenodd" clip-rule="evenodd" d="M46 99H105V96H46V99Z" fill="#EEEBC9"/>
<path fill-rule="evenodd" clip-rule="evenodd" d="M47.4807 98.3231L47.1587 98.3218C47.0715 98.3218 47 98.2476 47 98.1602C47 98.0716 47.0715 98 47.1587 98H47.4807C47.5739 98 47.6401 98.0716 47.6401 98.1616C47.6401 98.2489 47.5699 98.3231 47.4807 98.3231Z" fill="#A89F53"/>
<path fill-rule="evenodd" clip-rule="evenodd" d="M49.1267 98.3244L48.2239 98.3231C48.0992 98.3231 48 98.2515 48 98.1616C48 98.0742 48.1019 98 48.2239 98L49.1267 98.0026C49.2496 98.0026 49.3515 98.0755 49.3515 98.1629C49.3515 98.2515 49.2496 98.3244 49.1267 98.3244ZM50.9342 98.3257L50.0332 98.3244C49.9104 98.3244 49.8111 98.2528 49.8111 98.1655C49.8111 98.0755 49.9104 98.0039 50.0332 98.0039H50.9342C51.0635 98.0053 51.1581 98.0755 51.1581 98.1655C51.1581 98.2541 51.0589 98.3257 50.9342 98.3257ZM52.7445 98.3297L51.8407 98.3257C51.717 98.3257 51.6177 98.2561 51.6177 98.1681C51.6205 98.0755 51.717 98.0066 51.8407 98.0066L52.7445 98.0092C52.8683 98.0092 52.972 98.0781 52.972 98.1681C52.972 98.2561 52.8683 98.3297 52.7445 98.3297ZM54.5547 98.3323L53.6501 98.331C53.5281 98.331 53.4262 98.2574 53.4271 98.1681C53.4271 98.0795 53.5281 98.0092 53.6501 98.0092H54.5575C54.6785 98.0092 54.7804 98.0821 54.7804 98.1707C54.7804 98.2587 54.6767 98.3323 54.5547 98.3323ZM56.365 98.3349L55.4603 98.3323C55.3347 98.3323 55.24 98.2601 55.24 98.1707C55.24 98.0821 55.3511 98.019 55.4603 98.0099L56.365 98.0112C56.4878 98.0112 56.5852 98.0847 56.5852 98.1721C56.5852 98.2614 56.4878 98.3349 56.365 98.3349ZM58.1725 98.3349H57.266C57.144 98.3349 57.0466 98.2627 57.0466 98.1734C57.0466 98.0847 57.144 98.0125 57.266 98.0125H57.2714L58.1725 98.0138C58.2962 98.0138 58.3954 98.0873 58.3954 98.1753C58.3936 98.264 58.2962 98.3349 58.1725 98.3349ZM59.9818 98.3382L59.0744 98.3376C58.957 98.3376 58.8542 98.264 58.8542 98.1753C58.8542 98.0873 58.957 98.0138 59.0744 98.0138H59.078L59.9818 98.0164C60.1065 98.0164 60.2066 98.0887 60.2066 98.178C60.2066 98.2666 60.1065 98.3382 59.9818 98.3382ZM61.7939 98.3408H61.7884L60.8874 98.3395C60.7636 98.3395 60.6635 98.2666 60.6635 98.178C60.6635 98.09 60.7718 98.019 60.8874 98.0164L61.7939 98.019C61.9149 98.019 62.0132 98.0919 62.0132 98.1806C62.0132 98.2679 61.9149 98.3408 61.7939 98.3408ZM63.5959 98.3435H62.6949C62.5711 98.3435 62.471 98.2693 62.471 98.1806C62.471 98.0919 62.572 98.019 62.6949 98.019L63.6014 98.0204C63.7251 98.0204 63.8234 98.0919 63.8207 98.1832C63.8207 98.2732 63.7251 98.3435 63.5959 98.3435ZM65.4098 98.3435H64.5033C64.3823 98.3435 64.2803 98.2732 64.283 98.1832C64.283 98.0946 64.3823 98.0217 64.5069 98.0217L65.4098 98.0243C65.5317 98.0243 65.6337 98.0959 65.6337 98.1832C65.6337 98.2745 65.5317 98.3435 65.4098 98.3435ZM67.2173 98.3461H66.3117C66.1879 98.3461 66.0906 98.2745 66.0906 98.1845C66.0906 98.0959 66.1879 98.019 66.3154 98.0256L67.2173 98.0269C67.3402 98.0269 67.4421 98.0972 67.4421 98.1859C67.4421 98.2758 67.3402 98.3461 67.2173 98.3461ZM69.0284 98.3513L68.122 98.3474C67.9973 98.3474 67.9017 98.2758 67.9017 98.1898C67.9017 98.0985 67.9973 98.0282 68.122 98.0282H68.1238H69.0284C69.154 98.0282 69.2487 98.0998 69.2487 98.1898C69.2487 98.2771 69.154 98.3513 69.0284 98.3513ZM70.8332 98.3527H69.9313C69.8075 98.3527 69.7092 98.2811 69.7092 98.1911C69.7119 98.0998 69.8075 98.0296 69.9313 98.0296H70.8378C70.9606 98.0296 71.0589 98.1038 71.0589 98.1924C71.0589 98.2811 70.9606 98.3527 70.8332 98.3527ZM72.6462 98.3553L71.7397 98.354C71.6187 98.354 71.5185 98.2824 71.5185 98.1924C71.5185 98.1038 71.6086 98.019 71.7397 98.0335H72.6462C72.7691 98.0335 72.8683 98.1051 72.8683 98.195C72.8683 98.2837 72.7645 98.3553 72.6462 98.3553ZM74.4537 98.3566H73.549C73.4262 98.3566 73.327 98.2837 73.327 98.195C73.327 98.1051 73.4262 98.0348 73.549 98.0348L74.4537 98.0374C74.5766 98.0374 74.6776 98.109 74.6776 98.1977C74.6739 98.2857 74.5766 98.3566 74.4537 98.3566ZM76.263 98.3605L75.3565 98.3592C75.2346 98.3592 75.1381 98.2857 75.1381 98.1977C75.1381 98.109 75.2346 98.0374 75.3565 98.0374H75.3584H76.263C76.3868 98.0374 76.486 98.1116 76.486 98.2003C76.486 98.2883 76.3868 98.3605 76.263 98.3605ZM78.0714 98.3632L77.1704 98.3619C77.0439 98.3619 76.9447 98.2883 76.9447 98.2003C76.9447 98.113 77.0439 98.0394 77.1704 98.0394L78.0714 98.0407C78.197 98.0407 78.2953 98.113 78.2953 98.2016C78.2953 98.2896 78.1934 98.3632 78.0714 98.3632ZM79.8799 98.3645H78.9779C78.8496 98.3645 78.7522 98.2909 78.754 98.2023C78.754 98.1143 78.8551 98.0407 78.9779 98.0407L79.8844 98.042C80.0055 98.042 80.1038 98.1143 80.1038 98.2049C80.1038 98.2936 80.0055 98.3645 79.8799 98.3645ZM81.6883 98.3664H80.7854C80.6617 98.3664 80.5615 98.2949 80.5615 98.2049C80.5615 98.1169 80.6617 98.0447 80.7854 98.0447L81.6919 98.0473C81.8157 98.0473 81.914 98.1182 81.914 98.2049C81.914 98.2962 81.8157 98.3664 81.6883 98.3664ZM83.4985 98.3691L82.5929 98.3678C82.471 98.3678 82.3736 98.2962 82.3736 98.2088C82.3736 98.1195 82.471 98.0473 82.5929 98.0473H83.4985C83.6232 98.0473 83.7206 98.1195 83.7206 98.2101C83.7206 98.2962 83.6232 98.3691 83.4985 98.3691ZM85.3088 98.373H84.4032C84.2803 98.373 84.1811 98.2962 84.1811 98.2101C84.1811 98.1215 84.2803 98.0486 84.4032 98.0486H84.4041L85.3088 98.0525C85.4307 98.0525 85.5317 98.1215 85.5317 98.2101C85.5317 98.2988 85.4307 98.373 85.3088 98.373ZM87.1154 98.3743L86.2143 98.373C86.0906 98.373 85.9904 98.3027 85.9904 98.2115C85.9904 98.1215 86.0906 98.0525 86.2143 98.0525H87.1154C87.2419 98.0539 87.3392 98.1241 87.3392 98.2128C87.3392 98.3027 87.24 98.3743 87.1154 98.3743ZM88.9238 98.377L88.0218 98.3743C87.8981 98.3743 87.798 98.3041 87.798 98.2167C87.798 98.1254 87.8981 98.0539 88.0218 98.0539L88.9283 98.0552C89.0476 98.0552 89.1477 98.1267 89.1477 98.2167C89.1477 98.3054 89.0476 98.377 88.9238 98.377ZM90.7358 98.3783H90.7331L89.8303 98.377C89.7074 98.377 89.6073 98.3054 89.6073 98.2167C89.6073 98.1267 89.7074 98.0565 89.8303 98.0565H90.7358C90.8596 98.0565 90.9606 98.1307 90.9606 98.2193C90.9606 98.3067 90.8596 98.3783 90.7358 98.3783ZM92.5443 98.3822L91.6387 98.3809C91.5149 98.3809 91.4157 98.3067 91.4157 98.2193C91.4157 98.1307 91.5149 98.0565 91.6387 98.0565L92.5443 98.0604C92.6671 98.0604 92.7691 98.1333 92.7691 98.222C92.7691 98.3106 92.6671 98.3822 92.5443 98.3822ZM94.3518 98.3861L93.4471 98.3822C93.3242 98.3822 93.225 98.3106 93.225 98.222C93.225 98.1333 93.3242 98.0604 93.4471 98.0604H93.4507L94.3554 98.0617C94.4765 98.063 94.5766 98.1346 94.5766 98.222C94.5766 98.3113 94.4765 98.3861 94.3518 98.3861ZM96.1638 98.3861H95.2555C95.1327 98.3861 95.0316 98.3126 95.0316 98.2233C95.0344 98.1346 95.1363 98.0644 95.2592 98.0644H96.1638C96.2849 98.0663 96.3859 98.1386 96.3859 98.2272C96.3859 98.3152 96.2849 98.3861 96.1638 98.3861ZM97.9704 98.3901L97.0648 98.3888C96.942 98.3888 96.8437 98.3152 96.8437 98.2272C96.8437 98.1386 96.9438 98.0663 97.0676 98.0663H97.9704C98.0924 98.0676 98.1961 98.1386 98.1961 98.2292C98.1961 98.3165 98.0924 98.3901 97.9704 98.3901ZM99.7807 98.3914L98.8742 98.3901C98.7522 98.3901 98.6521 98.3179 98.6521 98.2292C98.6521 98.1399 98.7522 98.0676 98.8742 98.0676H98.8796H99.7807C99.9035 98.0676 100 98.1425 100 98.2292C100 98.3218 99.9035 98.3914 99.7807 98.3914Z" fill="#A89F53"/>
<path fill-rule="evenodd" clip-rule="evenodd" d="M100.482 98.3218H100.481L100.16 98.3205C100.071 98.3205 100 98.2502 100 98.1589C100.002 98.0703 100.071 98 100.161 98H100.482C100.571 98 100.643 98.0703 100.643 98.1602C100.643 98.2502 100.571 98.3218 100.482 98.3218Z" fill="#A89F53"/>
<path fill-rule="evenodd" clip-rule="evenodd" d="M102 103.342C102 104.256 101.327 105 100.504 105C99.6742 105 99 104.256 99 103.342V98.6582C99 97.7423 99.6742 97 100.504 97C101.327 97 102 97.7423 102 98.6582V103.342Z" fill="#B5173E"/>
<path fill-rule="evenodd" clip-rule="evenodd" d="M105 39.9816C105 35.5758 101.427 32 97.0173 32H53.9836C49.5743 32 46 35.5758 46 39.9816V75.0184C46 79.426 49.5743 83 53.9836 83H97.0173C101.427 83 105 79.426 105 75.0184V39.9816Z" fill="#EA3663"/>
<path fill-rule="evenodd" clip-rule="evenodd" d="M46 45H105V42H46V45Z" fill="#EEEBC9"/>
<path fill-rule="evenodd" clip-rule="evenodd" d="M47.4827 43.3218H47.4807L47.16 43.3205C47.0728 43.3205 47 43.2489 47 43.1589C47 43.0703 47.0728 43 47.16 43H47.4827C47.5686 43 47.6421 43.0716 47.6421 43.1602C47.6421 43.2489 47.5686 43.3218 47.4827 43.3218Z" fill="#A6A27D"/>
<path fill-rule="evenodd" clip-rule="evenodd" d="M49.1268 43.3231H49.1213L48.2203 43.3218C48.0965 43.3218 48 43.2489 48 43.1616C48 43.0716 48.0965 43 48.2203 43L49.1268 43.0013C49.2505 43.0013 49.3452 43.0742 49.3452 43.1629C49.3452 43.2515 49.2505 43.3231 49.1268 43.3231ZM50.9343 43.3257H50.0278C49.9049 43.3257 49.8057 43.2515 49.8057 43.1629C49.8057 43.0742 49.9049 43.0013 50.0278 43.0013H50.0296L50.9343 43.0039C51.0572 43.0039 51.1564 43.0768 51.1564 43.1642C51.1564 43.2541 51.0572 43.3257 50.9343 43.3257ZM52.7437 43.3284L51.8381 43.327C51.7152 43.327 51.6123 43.2541 51.6151 43.1655C51.6151 43.0768 51.7188 43.0079 51.8381 43.0079H52.7437C52.8683 43.0079 52.9666 43.0795 52.9666 43.1668C52.9666 43.2574 52.8683 43.3284 52.7437 43.3284ZM54.5503 43.3297H53.6492C53.5236 43.3297 53.4254 43.2574 53.4254 43.1681C53.4254 43.0795 53.5255 43.0079 53.6492 43.0079L54.5503 43.0085C54.675 43.0085 54.7742 43.0795 54.7742 43.1681C54.7742 43.2587 54.675 43.3297 54.5503 43.3297ZM56.3615 43.3323H56.3578L55.4568 43.331C55.3321 43.331 55.2347 43.2587 55.2347 43.1721C55.2347 43.0808 55.3321 43.0085 55.4568 43.0085L56.3615 43.0099C56.4862 43.0112 56.5817 43.0834 56.5817 43.1721C56.5817 43.2601 56.4852 43.3323 56.3615 43.3323ZM58.1699 43.3349H57.2643C57.1424 43.3349 57.0404 43.2627 57.0404 43.1727C57.0441 43.0834 57.1424 43.0112 57.2643 43.0112L58.1699 43.0138C58.2937 43.0138 58.392 43.0847 58.392 43.1727C58.392 43.2627 58.2891 43.3349 58.1699 43.3349ZM59.9793 43.3369L59.0755 43.3362C58.9517 43.3362 58.8507 43.2653 58.8507 43.174C58.8525 43.086 58.9517 43.0151 59.0755 43.0151L59.9793 43.0164C60.1021 43.0164 60.2023 43.0873 60.2023 43.1753C60.2023 43.2666 60.1021 43.3369 59.9793 43.3369ZM61.7868 43.3395L60.8821 43.3369C60.7584 43.3369 60.6637 43.2666 60.6637 43.178C60.6637 43.0887 60.7611 43.0164 60.8821 43.0164L61.7868 43.0177C61.9124 43.0177 62.0107 43.09 62.0062 43.1793C62.0062 43.2679 61.9124 43.3395 61.7868 43.3395ZM63.5962 43.3435L62.6897 43.3395C62.5677 43.3395 62.4703 43.2679 62.4703 43.1793C62.4703 43.0919 62.5723 43.0204 62.6915 43.0204H63.598C63.7181 43.0204 63.821 43.0919 63.821 43.1819C63.821 43.2706 63.7181 43.3435 63.5962 43.3435ZM65.4064 43.3448H65.4055L64.5009 43.3435C64.3771 43.3435 64.2779 43.2706 64.2779 43.1832C64.2779 43.0919 64.3771 43.0217 64.5009 43.0217L65.4064 43.023C65.5302 43.023 65.6294 43.0946 65.6294 43.1845C65.6294 43.2732 65.5302 43.3448 65.4064 43.3448ZM67.2122 43.3474L66.3111 43.3448C66.1873 43.3448 66.0872 43.2732 66.0872 43.1845C66.0872 43.0959 66.1873 43.023 66.3111 43.023L67.2122 43.0256C67.3405 43.0256 67.437 43.0985 67.437 43.1872C67.437 43.2771 67.3405 43.3474 67.2122 43.3474ZM69.0233 43.3487H68.1187C67.994 43.3487 67.8948 43.2771 67.8948 43.1872C67.8948 43.0998 67.994 43.0256 68.1223 43.0256L69.0233 43.0282C69.1471 43.0282 69.2472 43.0998 69.2472 43.1898C69.2472 43.2784 69.1462 43.3487 69.0233 43.3487ZM70.8345 43.3513H69.9271C69.8043 43.35 69.7069 43.2784 69.7069 43.1898C69.7069 43.1011 69.8043 43.0282 69.928 43.0282L70.8345 43.0309C70.9556 43.0309 71.0584 43.1024 71.0584 43.1911C71.0584 43.2811 70.9556 43.3513 70.8345 43.3513ZM72.6412 43.354H71.7374C71.6163 43.354 71.5162 43.2811 71.5162 43.1924C71.5162 43.1024 71.6163 43.0309 71.7374 43.0309L72.6412 43.0322C72.7659 43.0322 72.8641 43.1051 72.8641 43.1937C72.8641 43.2811 72.7659 43.354 72.6412 43.354ZM74.4542 43.3566L73.5477 43.354C73.4239 43.354 73.3238 43.2824 73.3238 43.195C73.3238 43.1064 73.4239 43.0335 73.5477 43.0335H74.4542C74.5734 43.0335 74.6726 43.1064 74.6726 43.1964C74.6726 43.2857 74.5734 43.3566 74.4542 43.3566ZM76.259 43.3592L75.3552 43.3579C75.2332 43.3579 75.1331 43.287 75.1331 43.1964C75.134 43.1077 75.2332 43.0368 75.3552 43.0368H76.259C76.3818 43.0368 76.4829 43.109 76.4829 43.1977C76.4829 43.2883 76.3818 43.3592 76.259 43.3592ZM78.0702 43.3619L77.1646 43.3605C77.0408 43.3605 76.9407 43.2883 76.9407 43.1977C76.9434 43.113 77.0408 43.0381 77.1664 43.0381H78.0702C78.193 43.0381 78.2904 43.113 78.2904 43.201C78.2904 43.2883 78.193 43.3619 78.0702 43.3619ZM79.8777 43.3638L78.9748 43.3619C78.8511 43.3619 78.7491 43.2883 78.7546 43.2036C78.7546 43.113 78.8511 43.0381 78.9748 43.0381L79.8777 43.042C80.0024 43.042 80.1016 43.1156 80.1016 43.2036C80.097 43.2922 80.0024 43.3638 79.8777 43.3638ZM81.6852 43.3664L80.7842 43.3638C80.6595 43.3638 80.5603 43.2922 80.5603 43.2036C80.5603 43.1156 80.6595 43.0433 80.7842 43.0433L81.6852 43.0447C81.8099 43.0447 81.91 43.1169 81.91 43.2062C81.91 43.2949 81.8099 43.3664 81.6852 43.3664ZM83.4982 43.3691L82.5926 43.3664C82.4661 43.3664 82.3687 43.2949 82.3687 43.2062C82.3687 43.1169 82.4661 43.0473 82.5926 43.0473H83.4982C83.6175 43.0473 83.7194 43.1202 83.7194 43.2088C83.7194 43.2962 83.6175 43.3691 83.4982 43.3691ZM85.3049 43.3717L84.3993 43.3704C84.2791 43.3704 84.1781 43.2962 84.1781 43.2088C84.1781 43.1202 84.2791 43.0473 84.3993 43.0473L85.3049 43.0499C85.4314 43.0499 85.526 43.1215 85.526 43.2101C85.526 43.3001 85.4277 43.3717 85.3049 43.3717ZM87.116 43.373H86.2095C86.0858 43.373 85.9856 43.3001 85.9911 43.2101C85.9911 43.1228 86.0858 43.0512 86.2095 43.0512L87.116 43.0525C87.2389 43.0525 87.3345 43.1241 87.3345 43.2128C87.3345 43.3027 87.2389 43.373 87.116 43.373ZM88.9245 43.3743L88.0171 43.373C87.8951 43.373 87.7977 43.3027 87.7977 43.2141C87.7977 43.1241 87.8951 43.0525 88.0171 43.0525L88.9245 43.0539C89.0455 43.0539 89.1484 43.1267 89.1484 43.2167C89.1484 43.3027 89.0455 43.3743 88.9245 43.3743ZM90.7329 43.3783L89.8283 43.377C89.7081 43.377 89.6053 43.3067 89.6053 43.2167C89.6053 43.1267 89.7081 43.0552 89.8283 43.0552H89.831L90.7329 43.0578C90.8567 43.0578 90.9559 43.1281 90.9559 43.218C90.9559 43.308 90.8531 43.3783 90.7329 43.3783ZM92.5396 43.3809L91.6349 43.3796C91.512 43.3796 91.4146 43.308 91.4146 43.2193C91.4146 43.1294 91.5266 43.0676 91.6385 43.0578H92.5396C92.6679 43.0578 92.7635 43.1307 92.7635 43.2193C92.7635 43.308 92.6643 43.3809 92.5396 43.3809ZM94.348 43.3835L93.4406 43.3822C93.3241 43.3822 93.2222 43.3093 93.2222 43.2193C93.2222 43.132 93.3241 43.0604 93.4461 43.0604H94.348C94.4754 43.0604 94.5756 43.1333 94.5737 43.2233C94.5737 43.31 94.4718 43.3835 94.348 43.3835ZM96.1619 43.3861L95.2563 43.3835C95.1317 43.3835 95.0306 43.3126 95.0315 43.2233C95.0315 43.1346 95.1317 43.063 95.2563 43.063H96.1619C96.2839 43.063 96.3849 43.1359 96.3849 43.2259C96.3813 43.3139 96.2839 43.3861 96.1619 43.3861ZM97.9686 43.3875H97.9667L97.063 43.3861C96.9392 43.3861 96.8418 43.3139 96.8418 43.2259C96.8418 43.1359 96.9465 43.0676 97.063 43.0637L97.9686 43.0663C98.0933 43.0663 98.1925 43.1386 98.1925 43.2272C98.1925 43.3152 98.0933 43.3875 97.9686 43.3875ZM99.7761 43.3914L98.8696 43.3901C98.7495 43.3901 98.653 43.3152 98.653 43.2272C98.653 43.1386 98.7495 43.0663 98.8696 43.0663H98.8751L99.7761 43.0676C99.9008 43.0676 100 43.1425 100 43.2292C100 43.3179 99.9008 43.3914 99.7761 43.3914Z" fill="#A6A27D"/>
<path fill-rule="evenodd" clip-rule="evenodd" d="M101.481 43.3218L101.161 43.3205C101.073 43.3205 101 43.2476 101 43.1589C101 43.0716 101.073 43 101.161 43L101.481 43.0013C101.573 43.0013 101.642 43.0716 101.642 43.1602C101.642 43.2502 101.569 43.3218 101.481 43.3218Z" fill="#A6A27D"/>
<path fill-rule="evenodd" clip-rule="evenodd" d="M102 48.3432C102 49.2575 101.33 50 100.499 50C99.6701 50 99 49.2575 99 48.3432V43.6586C99 42.7425 99.6701 42 100.499 42C101.33 42 102 42.7425 102 43.6586V48.3432Z" fill="#A89F53"/>
<path fill-rule="evenodd" clip-rule="evenodd" d="M54 79H96V57H54V79Z" fill="#B5173E"/>
<path fill-rule="evenodd" clip-rule="evenodd" d="M53 61H98V54H53V61Z" fill="#B5173E"/>
<path fill-rule="evenodd" clip-rule="evenodd" d="M55 26H64V22H55V26Z" fill="#EEEBC9"/>
<path fill-rule="evenodd" clip-rule="evenodd" d="M61.303 29.8983C61.303 28.4191 62.5081 27.2228 64 27.1966V25.5483C64 24.6929 63.2953 24 62.4275 24H56.5734C55.7066 24 55 24.6929 55 25.5483V27.2022C55.045 27.1966 55.0956 27.1948 55.1434 27.1948C56.6577 27.1948 57.8816 28.406 57.8816 29.8983C57.8816 31.3925 56.6577 32.6018 55.1434 32.6018C55.0956 32.6018 55.045 32.5962 55 32.5944V33.446C55 34.3052 55.7066 35 56.5734 35H62.4275C63.2953 35 64 34.3052 64 33.446V32.6018C62.5081 32.5757 61.303 31.3775 61.303 29.8983Z" fill="#B5173E"/>
<path fill-rule="evenodd" clip-rule="evenodd" d="M87 26H96V22H87V26Z" fill="#EEEBC9"/>
<path fill-rule="evenodd" clip-rule="evenodd" d="M93.3039 29.8983C93.3039 28.4191 94.5091 27.2228 96 27.1966V25.5483C96 24.6929 95.2953 24 94.4294 24H88.5706C87.7028 24 87 24.6929 87 25.5483V27.2022C87.0478 27.1966 87.0937 27.1948 87.1424 27.1948C88.6549 27.1948 89.8816 28.406 89.8816 29.8983C89.8816 31.3925 88.6549 32.6018 87.1424 32.6018C87.0937 32.6018 87.0478 32.5962 87 32.5944V33.446C87 34.3052 87.7028 35 88.5706 35H94.4294C95.2953 35 96 34.3052 96 33.446V32.6018C94.5091 32.5757 93.3039 31.3775 93.3039 29.8983Z" fill="#B5173E"/>
</svg>
