<svg width="150" height="150" viewBox="0 0 150 150" fill="none" xmlns="http://www.w3.org/2000/svg">
<path fill-rule="evenodd" clip-rule="evenodd" d="M75 150C116.421 150 150 116.421 150 75C150 33.5786 116.421 0 75 0C33.5786 0 0 33.5786 0 75C0 116.421 33.5786 150 75 150Z" fill="#DFEBFF"/>
<path d="M114.775 56.7977V81.1798L75.5553 98.5955L36.5723 81.1798V56.7977H114.775Z" fill="#5A5A5A"/>
<path d="M113.427 56.7977V81.1798L74.3262 98.5955V56.7977H113.427Z" fill="#444444"/>
<path d="M128.259 47.3596V103.989H121.518V50.8989L128.259 47.3596Z" fill="#FDBF00"/>
<path d="M128.258 47.3596V103.989H124.213V49.1292L128.258 47.3596Z" fill="#FF9F00"/>
<path d="M124.214 98.5955L113.428 109.01V135H135.001V109.01L124.214 98.5955Z" fill="#FFD400"/>
<path d="M134.999 109.01V135H124.213V98.5955L134.999 109.01Z" fill="#FDBF00"/>
<path d="M135 46.8023L75 78.3708L15 46.8023L75 15L135 46.8023Z" fill="#6E6E6E"/>
<path d="M133.652 46.8023L74.3262 78.3708V15L133.652 46.8023Z" fill="#5A5A5A"/>
<path d="M74.9991 36.5731C67.0706 36.5731 60.8418 41.3193 60.8418 47.3596C60.8418 53.3998 67.0706 58.1461 74.9991 58.1461C82.9276 58.1461 89.1564 53.3998 89.1564 47.3596C89.1564 41.3193 82.9276 36.5731 74.9991 36.5731Z" fill="#FFD400"/>
<path d="M87.8093 47.3596C87.8093 53.3998 81.8771 58.1461 74.3262 58.1461V36.5731C81.8771 36.5731 87.8093 41.3193 87.8093 47.3596Z" fill="#FDBF00"/>
</svg>
