<svg width="150" height="150" viewBox="0 0 150 150" fill="none" xmlns="http://www.w3.org/2000/svg">
<path fill-rule="evenodd" clip-rule="evenodd" d="M75 150C116.421 150 150 116.421 150 75C150 33.5786 116.421 0 75 0C33.5786 0 0 33.5786 0 75C0 116.421 33.5786 150 75 150Z" fill="#DFEBFF"/>
<path d="M75 60.2715V25.7285C75 23.6693 76.7084 22 78.8159 22H129.184C131.292 22 133 23.6693 133 25.7285V60.2715C133 62.3307 131.292 64 129.184 64H78.8161C76.7084 64 75 62.3307 75 60.2715Z" fill="#46738C"/>
<path d="M78.9626 51C78.3824 51 77.8081 50.7532 77.4211 50.28C76.7507 49.4601 76.8963 48.2714 77.747 47.6249L93.8242 35.406C94.6752 34.7595 95.9084 34.9002 96.5789 35.7202C97.2493 36.5401 97.1037 37.7288 96.253 38.3753L80.1758 50.5942C79.8155 50.8672 79.3876 51 78.9626 51Z" fill="#FF8C46"/>
<path d="M48.5 31C53.1944 31 57 27.4183 57 23C57 18.5817 53.1944 15 48.5 15C43.8056 15 40 18.5817 40 23C40 27.4183 43.8056 31 48.5 31Z" fill="#FFB69E"/>
<path d="M53.5 116C51.0146 116 49 113.849 49 111.197V72.8033C49 70.1504 51.0148 68 53.5 68C55.9852 68 58 70.1506 58 72.8033V111.197C58.0002 113.849 55.9854 116 53.5 116Z" fill="#343E6B"/>
<path d="M42.5 116C40.0146 116 38 113.849 38 111.197V72.8033C38 70.1504 40.0148 68 42.5 68C44.9852 68 47 70.1506 47 72.8033V111.197C47.0002 113.849 44.9854 116 42.5 116Z" fill="#414B82"/>
<path d="M81.4088 46.8369C80.2648 45.0057 77.8442 44.4429 76.0015 45.5796L68.0483 50.4875V43.1898C68.0228 38.1226 63.8172 34 58.7187 34H58.5734C56.0631 34 40.0831 34 37.4861 34C32.2813 34 28.0257 38.1438 28 43.2369C28 43.2434 28 43.2502 28 43.2567V72.077C28 74.2435 29.7672 76 31.947 76C34.1268 76 35.8941 74.2435 35.8941 72.077V43.2699C35.9025 42.5239 36.6591 41.8462 37.4861 41.8462H37.6281V71.6756H58.5349C58.5349 68.8945 58.5349 44.9333 58.5349 41.8062C58.5559 41.8062 58.74 41.8062 58.719 41.8062C59.5085 41.8062 60.2264 42.4447 60.2304 43.2295V57.5029C60.2458 60.5592 63.6303 62.4025 66.2285 60.7992L80.1448 52.2117C81.9865 51.0743 82.5525 48.6681 81.4088 46.8369Z" fill="#252D5C"/>
<path d="M82.39 46.9476C81.2096 45.1006 78.7119 44.5329 76.8105 45.6795L68.6041 50.6297V43.269C68.5778 38.1582 64.2383 34 58.9775 34C57.5864 34 49.3378 34 48 34V72H58.7875C58.7875 69.1949 58.7875 45.0271 58.7875 41.8731C58.8092 41.8731 58.9992 41.8731 58.9775 41.8731C59.7922 41.8731 60.5329 42.5171 60.537 43.3086V57.7051C60.5529 60.7877 64.0452 62.6469 66.7261 61.0298L81.0854 52.3683C82.9861 51.2215 83.5701 48.7946 82.39 46.9476Z" fill="#1B224A"/>
<path d="M81.4087 47.0443C80.2644 45.015 77.8432 44.3913 76 45.651L80.1436 53C81.9865 51.74 82.5527 49.0736 81.4087 47.0443Z" fill="#FFB69E"/>
<rect x="79.3704" y="53.6479" width="7.95464" height="1.68296" transform="rotate(-121.506 79.3704 53.6479)" fill="white"/>
<path d="M28.0002 70.7908V72.8375C28.0002 75.0288 29.7902 76.8055 31.998 76.8055C34.2057 76.8055 35.9957 75.0288 35.9957 72.8375V70.7908H28.0002Z" fill="white"/>
<path d="M28 72V72.1004C28 74.254 29.791 76 32 76C34.209 76 36 74.254 36 72.1004V72H28Z" fill="#FFB69E"/>
<path d="M42 34L47.9992 50L54 34H42Z" fill="white"/>
<path d="M50.7856 39.4464L49.3611 36.9831L50.5889 34.8601C50.8123 34.4739 50.518 34 50.0538 34H45.9378C45.4742 34 45.1792 34.4735 45.4028 34.8601L46.6348 36.9902L45.2142 39.4468C45.0175 39.7872 44.9536 40.1821 45.0337 40.5628L45.91 44.7922L47.9965 50L50.0849 44.7915L50.9662 40.5633C51.0466 40.1821 50.9824 39.7867 50.7856 39.4464Z" fill="#FF3C3C"/>
<rect x="51" y="46" width="6" height="2" fill="#252D5C"/>
<path d="M119.643 99.1498C124.028 99.1498 127.582 95.5402 127.582 91.0876C127.582 86.635 124.028 83.0254 119.643 83.0254C115.259 83.0254 111.705 86.635 111.705 91.0876C111.705 95.5402 115.259 99.1498 119.643 99.1498Z" fill="#80391B"/>
<path d="M129.891 101.72C127.559 101.72 111.661 101.72 109.329 101.72C104.356 101.72 100.245 105.829 100.22 110.88V119.901H107.881V110.919C107.884 110.137 108.558 109.5 109.329 109.5H109.404V119.901H129.692V109.5H129.891C130.662 109.5 131.336 110.137 131.34 110.919V119.901H139V110.88C138.975 105.83 134.865 101.72 129.891 101.72Z" fill="#80391B"/>
<path d="M129.839 102H123.525C121.066 103.949 117.838 103.873 115.596 102H109.16C104.159 102 100.025 106.068 100 111.068V116.674H107.704V111.107C107.708 110.333 108.386 109.703 109.16 109.703H109.236V120H129.639V109.703H129.84C130.614 109.703 131.292 110.333 131.296 111.107V116.674H139V111.068C138.974 106.068 134.841 102 129.839 102Z" fill="#55C7A6"/>
<path d="M77.5368 99.1498C81.8948 99.1498 85.4278 95.5402 85.4278 91.0876C85.4278 86.635 81.8948 83.0254 77.5368 83.0254C73.1787 83.0254 69.6458 86.635 69.6458 91.0876C69.6458 95.5402 73.1787 99.1498 77.5368 99.1498Z" fill="#FFB69E"/>
<path d="M87.7234 101.72C85.4046 101.72 69.6017 101.72 67.2833 101.72C62.34 101.72 58.2536 105.829 58.2288 110.88V119.901H65.8437V110.919C65.8475 110.137 66.5177 109.5 67.2833 109.5H67.3582V119.901H87.5254V109.5H87.7237C88.4893 109.5 89.1592 110.137 89.1632 110.919V119.901H96.7782V110.88C96.7533 105.83 92.6669 101.72 87.7234 101.72Z" fill="#FFB69E"/>
<path d="M87.8392 102H81.2099C78.751 103.949 75.5231 103.873 73.2809 102H67.1603C62.1593 102 58.0251 106.068 58 111.068V116.674H65.704V111.107C65.7077 110.333 66.3858 109.703 67.1603 109.703H67.2362V120H87.6391V109.703H87.8397C88.6142 109.703 89.292 110.333 89.296 111.107V116.674H97V111.068C96.9746 106.068 92.8405 102 87.8392 102Z" fill="#252D5C"/>
<path d="M37.4212 99.155C41.8053 99.155 45.3594 95.5684 45.3594 91.1442C45.3594 86.7199 41.8053 83.1333 37.4212 83.1333C33.037 83.1333 29.4829 86.7199 29.4829 91.1442C29.4829 95.5684 33.037 99.155 37.4212 99.155Z" fill="#FFB69E"/>
<path d="M47.6713 101.709C45.3385 101.709 29.441 101.709 27.1087 101.709C22.1359 101.709 18.025 105.792 18 110.81V119.774H25.6606V110.849C25.6643 110.072 26.3385 109.439 27.1087 109.439H27.1841V119.774H47.4719V109.439H47.6713C48.4415 109.439 49.1155 110.071 49.1194 110.849V119.774H56.78V110.81C56.755 105.792 52.6441 101.709 47.6713 101.709Z" fill="#FFB69E"/>
<path d="M47.8396 102H41.21C38.7511 103.949 35.5232 103.873 33.281 102H27.1604C22.1593 102 18.0251 106.068 18 111.068V116.674H25.704V111.107C25.7078 110.333 26.3858 109.703 27.1604 109.703H27.2362V120H47.639V109.702H47.8396C48.6142 109.702 49.292 110.333 49.296 111.107V116.674H57V111.068C56.9749 106.068 52.8407 102 47.8396 102Z" fill="#78BEFF"/>
<path d="M101.445 114.13C105.829 114.13 109.383 110.521 109.383 106.068C109.383 101.615 105.829 98.0059 101.445 98.0059C97.0609 98.0059 93.5068 101.615 93.5068 106.068C93.5068 110.521 97.0609 114.13 101.445 114.13Z" fill="#FFB69E"/>
<path d="M111.694 116.7C109.362 116.7 93.4642 116.7 91.1319 116.7C86.1591 116.7 82.0482 120.809 82.0232 125.859V134.88H89.6838V125.898C89.6875 125.116 90.3617 124.48 91.1319 124.48H91.2073V134.88H111.495V124.48H111.695C112.465 124.48 113.139 125.116 113.143 125.898V134.88H120.803V125.859C120.778 120.809 116.667 116.7 111.694 116.7Z" fill="#FFB69E"/>
<path d="M111.839 116H105.525C103.066 117.949 99.8381 117.873 97.596 116H91.1604C86.1593 116 82.0251 120.068 82 125.068V130.674H89.704V125.107C89.7078 124.333 90.3858 123.703 91.1604 123.703H91.2362V134H111.639V123.703H111.84C112.614 123.703 113.292 124.333 113.296 125.107V130.674H121V125.068C120.974 120.068 116.84 116 111.839 116Z" fill="#78BEFF"/>
<path d="M60.4551 114.13C64.8393 114.13 68.3933 110.521 68.3933 106.068C68.3933 101.615 64.8393 98.0059 60.4551 98.0059C56.0709 98.0059 52.5168 101.615 52.5168 106.068C52.5168 110.521 56.0709 114.13 60.4551 114.13Z" fill="#BA6746"/>
<path d="M70.7045 116.7C68.3717 116.7 52.4742 116.7 50.1419 116.7C45.1691 116.7 41.0582 120.809 41.0332 125.859V134.88H48.6938V125.898C48.6975 125.116 49.3717 124.48 50.1419 124.48H50.2174V134.88H70.5053V124.48H70.7047C71.4749 124.48 72.1489 125.116 72.1529 125.898V134.88H79.8132V125.859C79.788 120.809 75.6776 116.7 70.7045 116.7Z" fill="#BA6746"/>
<path d="M70.8394 116H64.2101C61.7512 117.949 58.5233 117.873 56.2812 116H50.1603C45.1593 116 41.0251 120.068 41 125.068V130.674H48.704V125.107C48.7077 124.333 49.3858 123.703 50.1603 123.703H50.2362V134H70.6391V123.703H70.8397C71.6142 123.703 72.292 124.333 72.296 125.107V130.674H80V125.068C79.9744 120.068 75.8407 116 70.8394 116Z" fill="#FF3C3C"/>
</svg>
