<svg width="" height="" viewBox="-120 0 1375 481" fill="none" xmlns="http://www.w3.org/2000/svg">
<g opacity="0.498302">
<path opacity="0.265455" fill-rule="evenodd" clip-rule="evenodd" d="M955.601 472.365C968.924 478.786 645.816 482.974 367.71 480.051C89.6028 477.129 -37.9793 465.715 94.7285 459.634C227.436 453.552 942.278 465.945 955.601 472.365Z" fill="#212D5F"/>
<path fill-rule="evenodd" clip-rule="evenodd" d="M465.159 277.376C465.159 334.827 480.703 381.393 499.871 381.393C519.044 381.393 534.586 334.827 534.586 277.376C534.586 219.93 519.044 173.361 499.871 173.361C480.703 173.361 465.159 219.93 465.159 277.376Z" fill="#B7C6E0"/>
<path fill-rule="evenodd" clip-rule="evenodd" d="M595.944 187.354H609.13V150.053H638.179V169.666H647.248V187.354V202.354V341.948H610.269V363.865H551.628V248.497H595.944V187.354Z" fill="#B7C6E0"/>
<path fill-rule="evenodd" clip-rule="evenodd" d="M695.044 170.974H701.765V157.18H716.888V195.881H737.052V206.609H742.867V358.218H737.052V370.992H689.745V206.609V195.881V178.445H695.044V170.974Z" fill="#B7C6E0"/>
<path fill-rule="evenodd" clip-rule="evenodd" d="M430.032 114.418H437.138V153.215H441.622V143.227H452.467V346.047H447.047H441.622H437.138H430.032H428.909V345.026H392.262L430.032 114.418Z" fill="#B7C6E0"/>
<path fill-rule="evenodd" clip-rule="evenodd" d="M1050.3 374.495C1050.71 376.143 1050.73 377.789 1050.68 379.435L1082.73 382.931V371.483C1080.72 374.753 1077.73 378.522 1074.04 379.962C1073.01 380.368 1071.97 380.57 1070.94 380.57C1069.85 380.57 1068.76 380.309 1067.69 379.858C1067.24 380.04 1066.44 380.288 1065.24 380.288C1064.3 380.288 1063.15 380.134 1061.79 379.665C1054.37 377.104 1042.54 366.016 1027.3 328.622V374.495H1010.13C1010.29 373.701 1010.38 372.884 1010.38 372.04V369.588C1010.38 362.733 1004.81 357.179 997.936 357.179C991.068 357.179 985.499 362.733 985.499 369.588V372.04C985.499 372.624 985.551 373.19 985.63 373.749C992.576 373.953 999.525 374.157 1006.47 374.495C1021.22 374.927 1035.54 374.495 1050.3 374.495ZM1068.52 377.872V378.362C1070.15 379.002 1071.75 378.997 1073.41 378.353C1077.65 376.699 1081.01 371.264 1082.73 367.948V366.838C1077.83 374.671 1070.76 377.236 1068.52 377.872ZM1066.78 376.839C1050.82 370.845 1033.06 333.935 1027.3 321.123V323.947C1043.82 365.847 1056.2 375.803 1062.2 377.974C1064.55 378.822 1066.09 378.572 1066.78 378.355V376.839ZM918.818 277.605H918.814V280.592L974.795 299.773V297.676L974.788 297.656C974.66 297.275 974.532 296.91 974.425 296.527L918.818 277.605ZM949.699 270.833L949.688 270.828V272.273L949.699 272.277V270.833ZM945.352 268.82L946.493 269.347L945.352 268.818V268.82ZM809.377 306.554C795.095 316.127 780.445 324.075 765.685 330.322C779.921 326.569 795.738 321.581 811.4 315.058C818.608 308.868 836.557 289.676 847.066 278.288V276.575C838.43 284.677 825.57 295.703 809.377 306.554ZM838.246 320.1C841.382 317.734 844.312 315.326 847.066 312.915V300.365C839.904 304.848 832.103 309.079 823.666 313.032C805.367 321.609 784.094 328.93 760.442 334.799C753.454 336.533 746.686 338.025 740.235 339.324C723.884 343.998 707.515 346.513 691.326 346.845C691.498 347.459 691.602 348.092 691.626 348.749L691.724 348.84C763.929 361.978 811.246 340.474 838.246 320.1ZM847.066 282.767C838.919 291.571 827.632 303.607 819.662 311.466C829.119 307.159 838.367 302.243 847.066 296.687V282.767ZM957.437 364.539V372.578C963.223 372.936 969.009 373.198 974.795 373.396V312.054L918.814 294.521V364.539H957.437ZM883.342 364.539C883.45 363.845 883.494 363.129 883.494 362.414V358.684C883.494 354.672 881.864 351.072 879.234 348.448C878.082 347.298 876.756 346.366 875.3 345.672C870.453 347.992 867.106 352.959 867.106 358.684V362.414C867.106 363.129 867.149 363.845 867.279 364.539H883.342ZM656.083 358.042L832.757 364.537V364.539H847.066V316.914C844.883 318.764 842.603 320.605 840.2 322.422C822.657 335.688 802.676 345.158 780.81 350.562C766.319 354.145 750.981 355.936 734.916 355.936C720.854 355.936 706.232 354.561 691.144 351.811C689.875 355.418 686.238 358.042 681.896 358.042C676.505 358.042 672.134 354.021 672.134 349.059C672.134 344.098 676.505 340.077 681.896 340.077C685.149 340.077 688.01 341.556 689.785 343.805C697.449 343.1 716.048 341.088 739.079 336.473C766.7 328.598 790.241 315.719 807.612 304.089C825.054 292.404 838.585 280.526 847.066 272.396V239.409H847.077L852.754 220.152L857.555 239.409H860.05L864.363 234.437V227.241L867.542 225.994L876.51 207.09L888.082 203.768L890.375 208.528L892.566 201.098L897.954 222.713L901.895 222.893L905.151 217.766L908.822 228.796L913.286 213.657L918.218 233.437L918.818 233.734V240.823H918.814V259.814L918.818 259.816L944.896 270.353V268.144L950.112 270.572V272.44L950.117 272.442L970.641 280.743C970.663 280.55 970.663 280.336 970.663 280.145C970.511 279.44 970.769 278.759 971.389 278.182C972.223 277.412 973.569 277.031 974.425 277.308C975.708 277.735 977.588 279.034 977.612 280.507C977.994 281.68 978.207 282.767 978.316 283.834L984.106 286.178L993.959 266.341L1003.5 264.96L1009.18 274.884L1011.53 266.341L1016.52 280.774H1016.24L1017.98 281.685L1020.86 271.238L1025.85 285.668H1025.64V288.555H1027.3V316.81C1029.95 322.953 1050.69 369.757 1067.92 375.406L1068.52 375.599V376.05C1071.13 375.193 1078.06 372.246 1082.29 364.138L1082.73 364.368V363.238H1090V396.682H1082.73V386.895L1055.18 387.717C1057.86 389.251 1060.51 390.779 1062.45 393.542C1062.88 394.412 1063.31 395.277 1063.31 396.142C1063.31 399.606 1063.75 403.503 1062.88 406.966C1043.35 406.532 1023.39 407.4 1003.87 406.532C988.679 406.099 973.058 404.802 957.872 404.802C957.704 403.572 957.58 402.323 957.437 401.083V416.066H821.722V376.551L656.083 373.194V358.042Z" fill="#B7C6E0"/>
<path fill-rule="evenodd" clip-rule="evenodd" d="M767.166 305.115H764.852V294.713H767.166V305.115Z" fill="#B7C6E0"/>
<path fill-rule="evenodd" clip-rule="evenodd" d="M774.107 305.115H771.793V294.713H774.107V305.115Z" fill="#B7C6E0"/>
<path fill-rule="evenodd" clip-rule="evenodd" d="M778.736 305.115H776.422V294.713H778.736V305.115Z" fill="#B7C6E0"/>
<path fill-rule="evenodd" clip-rule="evenodd" d="M784.521 305.115H782.207V294.713H784.521V305.115Z" fill="#B7C6E0"/>
<path fill-rule="evenodd" clip-rule="evenodd" d="M790.309 305.115H787.994V294.713H790.309V305.115Z" fill="#B7C6E0"/>
<path fill-rule="evenodd" clip-rule="evenodd" d="M794.936 305.115H792.621V294.713H794.936V305.115Z" fill="#B7C6E0"/>
<path fill-rule="evenodd" clip-rule="evenodd" d="M801.879 305.115H799.565V294.713H801.879V305.115Z" fill="#B7C6E0"/>
<path fill-rule="evenodd" clip-rule="evenodd" d="M764.852 369.672V360.59H767.166V369.672C767.166 370.398 766.645 370.992 766.009 370.992H766.007C765.371 370.99 764.852 370.396 764.852 369.672Z" fill="#B7C6E0"/>
<path fill-rule="evenodd" clip-rule="evenodd" d="M771.793 369.672V360.59H774.107V369.672C774.107 370.398 773.587 370.992 772.95 370.992H772.946C772.312 370.99 771.793 370.396 771.793 369.672Z" fill="#B7C6E0"/>
<path fill-rule="evenodd" clip-rule="evenodd" d="M776.422 369.672V360.59H778.736V369.672C778.736 370.398 778.216 370.992 777.579 370.992H777.575C776.922 370.99 776.422 370.396 776.422 369.672Z" fill="#B7C6E0"/>
<path fill-rule="evenodd" clip-rule="evenodd" d="M782.207 369.672V360.59H784.521V369.672C784.521 370.398 784.005 370.992 783.355 370.992H783.351C782.722 370.99 782.207 370.396 782.207 369.672Z" fill="#B7C6E0"/>
<path fill-rule="evenodd" clip-rule="evenodd" d="M787.994 369.672V360.59H790.309V369.672C790.309 370.398 789.803 370.992 789.142 370.992H789.138C788.498 370.99 787.994 370.396 787.994 369.672Z" fill="#B7C6E0"/>
<path fill-rule="evenodd" clip-rule="evenodd" d="M792.621 369.672V360.59H794.936V369.672C794.936 370.398 794.434 370.992 793.778 370.992H793.777C793.14 370.99 792.621 370.396 792.621 369.672Z" fill="#B7C6E0"/>
<path fill-rule="evenodd" clip-rule="evenodd" d="M799.565 369.672V360.59H801.879V369.672C801.879 370.398 801.377 370.992 800.722 370.992H800.718C800.083 370.99 799.565 370.396 799.565 369.672Z" fill="#B7C6E0"/>
<path fill-rule="evenodd" clip-rule="evenodd" d="M801.879 357.123H799.565V346.721H801.879V357.123Z" fill="#B7C6E0"/>
<path fill-rule="evenodd" clip-rule="evenodd" d="M792.621 357.123V346.721H794.928H794.936V357.123H794.928H792.621Z" fill="#B7C6E0"/>
<path fill-rule="evenodd" clip-rule="evenodd" d="M790.309 357.123H787.994V346.721H790.309V357.123Z" fill="#B7C6E0"/>
<path fill-rule="evenodd" clip-rule="evenodd" d="M784.521 357.123H782.207V346.721H784.521V357.123Z" fill="#B7C6E0"/>
<path fill-rule="evenodd" clip-rule="evenodd" d="M778.736 357.123H776.422V346.721H778.736V357.123Z" fill="#B7C6E0"/>
<path fill-rule="evenodd" clip-rule="evenodd" d="M774.107 357.123H771.793V346.721H774.107V357.123Z" fill="#B7C6E0"/>
<path fill-rule="evenodd" clip-rule="evenodd" d="M767.166 357.123H764.852V346.721H767.166V357.123Z" fill="#B7C6E0"/>
<path fill-rule="evenodd" clip-rule="evenodd" d="M767.16 308.582H767.166V346.721H767.16H764.852V308.582H767.16Z" fill="#B7C6E0"/>
<path fill-rule="evenodd" clip-rule="evenodd" d="M774.107 346.721H771.793V308.582H774.107V346.721Z" fill="#B7C6E0"/>
<path fill-rule="evenodd" clip-rule="evenodd" d="M778.736 346.721H776.422V308.582H778.736V346.721Z" fill="#B7C6E0"/>
<path fill-rule="evenodd" clip-rule="evenodd" d="M784.521 346.721H782.207V308.582H784.521V346.721Z" fill="#B7C6E0"/>
<path fill-rule="evenodd" clip-rule="evenodd" d="M787.994 346.721V308.582H790.309V346.721H790.303H787.994Z" fill="#B7C6E0"/>
<path fill-rule="evenodd" clip-rule="evenodd" d="M794.936 346.721H792.621V308.582H794.936V346.721Z" fill="#B7C6E0"/>
<path fill-rule="evenodd" clip-rule="evenodd" d="M801.879 346.721H799.565V308.582H801.879V346.721Z" fill="#B7C6E0"/>
<path fill-rule="evenodd" clip-rule="evenodd" d="M782.787 156.072C785.685 156.072 788.045 153.717 788.045 150.82C788.045 147.924 785.685 145.569 782.787 145.569C779.89 145.569 777.529 147.924 777.529 150.82C777.529 153.717 779.89 156.072 782.787 156.072ZM782.778 135.221C791.408 135.221 798.408 142.196 798.408 150.814C798.408 159.432 791.408 166.426 782.778 166.426C774.169 166.426 767.166 159.432 767.166 150.814C767.166 142.196 774.169 135.221 782.778 135.221Z" fill="#B7C6E0"/>
<path fill-rule="evenodd" clip-rule="evenodd" d="M783.363 149.09C784.004 149.09 784.521 149.61 784.521 150.245C784.521 150.882 784.004 151.402 783.363 151.402C782.725 151.402 782.207 150.882 782.207 150.245C782.207 149.61 782.725 149.09 783.363 149.09Z" fill="#B7C6E0"/>
<path fill-rule="evenodd" clip-rule="evenodd" d="M772.207 71.2541C772.207 71.8306 772.657 72.294 773.198 72.294C773.737 72.294 774.169 71.8306 774.169 71.2541V59.3555C774.169 58.759 773.737 58.2978 773.198 58.2978C772.657 58.2978 772.207 58.759 772.207 59.3555V71.2541ZM776.276 71.2541C776.276 71.8306 776.726 72.294 777.265 72.294C777.806 72.294 778.238 71.8306 778.238 71.2541V59.3555C778.238 58.759 777.806 58.2978 777.265 58.2978C776.726 58.2978 776.276 58.759 776.276 59.3555V71.2541ZM780.345 71.2541C780.345 71.8306 780.797 72.294 781.336 72.294C781.876 72.294 782.309 71.8306 782.309 71.2541V59.3555C782.309 58.759 781.876 58.2978 781.336 58.2978C780.797 58.2978 780.345 58.759 780.345 59.3555V71.2541ZM784.414 71.2541C784.414 71.8306 784.866 72.294 785.406 72.294C785.947 72.294 786.397 71.8306 786.397 71.2541V59.3555C786.397 58.759 785.947 58.2978 785.406 58.2978C784.866 58.2978 784.414 58.759 784.414 59.3555V71.2541ZM788.502 71.2541C788.502 71.8306 788.933 72.294 789.475 72.294C790.014 72.294 790.466 71.8306 790.466 71.2541V59.3555C790.466 58.759 790.014 58.2978 789.475 58.2978C788.933 58.2978 788.502 58.759 788.502 59.3555V71.2541ZM794.083 54.4107H793.581V76.2787H769.092V54.4107H768.017C767.546 54.4107 767.165 54.0049 767.165 53.5015C767.165 52.9982 767.546 52.5902 768.017 52.5902H769.455C775.805 41.6428 779.47 16.1582 780.984 3.13984C781.117 1.98679 781.237 0.935744 781.332 0C781.434 0.935744 781.552 1.98679 781.683 3.13984C783.199 16.1582 786.864 41.6428 793.214 52.5902H794.083C794.552 52.5902 794.936 52.9982 794.936 53.5015C794.936 54.0049 794.552 54.4107 794.083 54.4107Z" fill="#B7C6E0"/>
<path fill-rule="evenodd" clip-rule="evenodd" d="M764.317 359.627H764.324H766.94V348.875H764.324H764.317V359.627ZM764.317 370.443C764.317 371.164 764.905 371.754 765.624 371.754H765.629H765.633C766.352 371.754 766.94 371.164 766.94 370.443V361.418H764.324H764.317V370.443ZM771.027 371.754H771.031H771.033C771.754 371.754 772.343 371.164 772.343 370.443V361.418H769.726H769.72V370.443C769.72 371.164 770.308 371.754 771.027 371.754ZM776.451 371.754H776.456H776.46C777.179 371.754 777.767 371.164 777.767 370.443V361.418H775.153H775.144V370.443C775.144 371.164 775.71 371.754 776.451 371.754ZM781.832 371.754H781.836H781.838C782.581 371.754 783.169 371.164 783.169 370.443V361.418H780.531H780.525V370.443C780.525 371.164 781.113 371.754 781.832 371.754ZM787.234 371.754H787.239H787.241C787.984 371.754 788.55 371.164 788.55 370.443V361.418H785.958H785.949V370.443C785.949 371.164 786.516 371.754 787.234 371.754ZM792.659 371.754H792.663H792.667C793.408 371.754 793.975 371.164 793.975 370.443V361.418H791.36H791.352V370.443C791.352 371.164 791.94 371.754 792.659 371.754ZM798.061 371.754H798.066H798.07C798.808 371.754 799.377 371.164 799.377 370.443V361.418H796.763H796.754V370.443C796.754 371.164 797.342 371.754 798.061 371.754ZM799.377 348.875H796.763H796.754V359.627H796.763H799.377V348.875ZM799.377 309.762H796.763H796.754V347.086H796.763H799.377V309.762ZM799.368 307.968H796.754V297.217H799.368V307.968ZM799.368 295.425H796.754V260.381H799.368V295.425ZM799.368 258.589H796.754V254.398H799.368V258.589ZM799.368 252.601H796.754V217.566H799.368V252.601ZM799.368 215.77H796.754V211.578H799.368V215.77ZM799.368 182.318C799.368 181.597 798.802 181.009 798.061 181.009C797.342 181.009 796.754 181.597 796.754 182.318V209.782H799.368V182.318ZM766.931 209.782V182.318C766.931 181.597 766.343 181.009 765.624 181.009C764.905 181.009 764.317 181.597 764.317 182.318V209.782H766.931ZM766.931 215.77H764.317V211.578H766.931V215.77ZM766.931 252.601H764.317V217.566H766.931V252.601ZM766.931 258.589H764.317V254.398H766.931V258.589ZM766.931 295.425H764.317V260.381H766.931V295.425ZM766.931 307.968H764.317V297.217H766.931V307.968ZM769.726 347.086H772.343V309.762H769.726H769.72V347.086H769.726ZM772.343 348.875H769.726H769.72V359.627H769.726H772.343V348.875ZM777.767 348.875H775.153H775.144V359.627H775.153H777.767V348.875ZM783.169 348.875H780.531H780.525V359.627H780.531H783.169V348.875ZM788.55 348.875H785.958H785.949V359.627H785.958H788.55V348.875ZM793.966 295.425H791.352V260.381H793.966V295.425ZM793.966 258.589H791.352V254.398H793.966V258.589ZM793.966 252.601H791.352V217.566H793.966V252.601ZM793.966 215.77H791.352V211.578H793.966V215.77ZM791.352 209.782H793.966V182.318C793.966 181.597 793.399 181.009 792.659 181.009C791.94 181.009 791.352 181.597 791.352 182.318V209.782ZM785.949 209.782H788.541V182.318C788.541 181.597 787.975 181.009 787.234 181.009C786.516 181.009 785.949 181.597 785.949 182.318V209.782ZM780.525 209.782H783.161V182.318C783.161 181.597 782.573 181.009 781.832 181.009C781.113 181.009 780.525 181.597 780.525 182.318V209.782ZM775.144 209.782H777.758V182.318C777.758 181.597 777.17 181.009 776.451 181.009C775.71 181.009 775.144 181.597 775.144 182.318V209.782ZM772.334 258.589H769.72V254.398H772.334V258.589ZM772.334 295.425H769.72V260.381H772.334V295.425ZM777.758 307.968H775.144V297.217H777.758V307.968ZM777.767 309.762H775.153H775.144V347.086H775.153H777.767V309.762ZM783.169 309.762H780.531H780.525V347.086H780.531H783.169V309.762ZM788.541 295.425H785.949V260.381H788.541V295.425ZM788.541 258.589H785.949V254.398H788.541V258.589ZM788.541 252.601H785.949V217.566H788.541V252.601ZM788.541 215.77H785.949V211.578H788.541V215.77ZM783.161 215.77H780.525V211.578H783.161V215.77ZM777.758 215.77H775.144V211.578H777.758V215.77ZM777.758 252.601H775.144V217.566H777.758V252.601ZM777.758 258.589H775.144V254.398H777.758V258.589ZM777.758 295.425H775.144V260.381H777.758V295.425ZM783.161 252.601H780.525V217.566H783.161V252.601ZM783.161 258.589H780.525V254.398H783.161V258.589ZM783.161 295.425H780.525V260.381H783.161V295.425ZM783.161 307.968H780.525V297.217H783.161V307.968ZM788.541 307.968H785.949V297.217H788.541V307.968ZM788.55 309.762H785.958H785.949V347.086H785.958H788.541H788.55V309.762ZM772.334 307.968H769.72V297.217H772.334V307.968ZM772.334 252.601H769.72V217.566H772.334V252.601ZM772.334 215.77H769.72V211.578H772.334V215.77ZM769.72 209.782H772.334V182.318C772.334 181.597 771.746 181.009 771.027 181.009C770.308 181.009 769.72 181.597 769.72 182.318V209.782ZM793.966 307.968H791.352V297.217H793.966V307.968ZM793.975 309.762H791.36H791.352V347.086H791.36H793.975V309.762ZM793.975 348.875H793.966H791.36H791.352V359.627H791.36H793.966H793.975V348.875ZM764.317 347.086H764.324H766.931H766.94V309.762H766.931H764.324H764.317V347.086ZM801.242 170.715H762.139V131.512H801.242V170.715ZM766.938 117.182V110.143C766.938 109.422 766.352 108.834 765.633 108.834C764.912 108.834 764.326 109.422 764.326 110.143V117.182C764.326 117.903 764.912 118.49 765.633 118.49C766.352 118.49 766.938 117.903 766.938 117.182ZM772.347 117.182V110.143C772.347 109.422 771.761 108.834 771.042 108.834C770.323 108.834 769.737 109.422 769.737 110.143V117.182C769.737 117.903 770.323 118.49 771.042 118.49C771.761 118.49 772.347 117.903 772.347 117.182ZM777.756 117.182V110.143C777.756 109.422 777.17 108.834 776.451 108.834C775.713 108.834 775.146 109.422 775.146 110.143V117.182C775.146 117.903 775.713 118.49 776.451 118.49C777.17 118.49 777.756 117.903 777.756 117.182ZM783.167 117.182V110.143C783.167 109.422 782.579 108.834 781.841 108.834C781.124 108.834 780.538 109.422 780.538 110.143V117.182C780.538 117.903 781.124 118.49 781.841 118.49C782.579 118.49 783.167 117.903 783.167 117.182ZM788.557 117.182V110.143C788.557 109.422 787.99 108.834 787.252 108.834C786.533 108.834 785.947 109.422 785.947 110.143V117.182C785.947 117.903 786.533 118.49 787.252 118.49C787.99 118.49 788.557 117.903 788.557 117.182ZM793.966 117.182V110.143C793.966 109.422 793.399 108.834 792.661 108.834C791.942 108.834 791.356 109.422 791.356 110.143V117.182C791.356 117.903 791.942 118.49 792.661 118.49C793.399 118.49 793.966 117.903 793.966 117.182ZM799.375 117.182V110.143C799.375 109.422 798.808 108.834 798.07 108.834C797.353 108.834 796.765 109.422 796.765 110.143V117.182C796.765 117.903 797.353 118.49 798.07 118.49C798.808 118.49 799.375 117.903 799.375 117.182ZM750.709 348.875C750.232 348.875 749.818 348.482 749.818 347.979C749.818 347.477 750.232 347.086 750.709 347.086H751.399V309.762H750.702C750.223 309.762 749.809 309.367 749.809 308.866C749.809 308.361 750.223 307.968 750.702 307.968H751.399V297.217H750.724C750.223 297.217 749.831 296.802 749.831 296.321C749.831 295.818 750.223 295.425 750.724 295.425H751.399V260.381H750.717C750.225 260.381 749.822 259.981 749.822 259.485C749.822 258.989 750.225 258.589 750.717 258.589H751.399V254.398H750.717C750.225 254.398 749.822 253.996 749.822 253.502C749.822 253.003 750.225 252.601 750.717 252.601H751.399V217.566H750.717C750.225 217.566 749.822 217.164 749.822 216.668C749.822 216.172 750.225 215.77 750.717 215.77H751.399V211.578H750.717C750.225 211.578 749.822 211.176 749.822 210.682C749.822 210.184 750.225 209.782 750.717 209.782H751.399V179.25H750.717C750.225 179.25 749.822 178.848 749.822 178.352C749.822 177.856 750.225 177.454 750.717 177.454H751.399V122.076H750.717C750.225 122.076 749.822 121.674 749.822 121.178C749.822 120.684 750.225 120.282 750.717 120.282H756.63V105.613H755.294C754.8 105.613 754.399 105.213 754.399 104.715C754.399 104.221 754.8 103.819 755.294 103.819H757.004L768.275 76.2787H794.236L806.23 103.819H807.812C808.309 103.819 808.707 104.221 808.707 104.715C808.707 105.213 808.309 105.613 807.812 105.613H806.62V120.282H811.395C811.89 120.282 812.289 120.684 812.289 121.178C812.289 121.674 811.89 122.076 811.395 122.076H811.088V177.454H811.395C811.89 177.454 812.289 177.856 812.289 178.352C812.289 178.848 811.89 179.25 811.395 179.25H811.088V209.782H811.395C811.89 209.782 812.289 210.184 812.289 210.682C812.289 211.176 811.89 211.578 811.395 211.578H811.088V215.77H811.395C811.89 215.77 812.289 216.172 812.289 216.668C812.289 217.164 811.89 217.566 811.395 217.566H811.088V252.601H811.395C811.89 252.601 812.289 253.003 812.289 253.502C812.289 253.996 811.89 254.398 811.395 254.398H811.088V258.589H811.395C811.89 258.589 812.289 258.989 812.289 259.485C812.289 259.981 811.89 260.381 811.395 260.381H811.088V295.425H811.393C811.894 295.425 812.286 295.818 812.286 296.321C812.286 296.802 811.894 297.217 811.393 297.217H811.088V307.968H811.393C811.873 307.968 812.286 308.361 812.286 308.866C812.286 309.367 811.873 309.762 811.393 309.762H811.088V347.086H811.402C811.879 347.086 812.293 347.477 812.293 347.979C812.293 348.482 811.879 348.875 811.402 348.875H811.088V359.627H811.402C811.879 359.627 812.293 360.022 812.293 360.522C812.293 361.027 811.879 361.418 811.402 361.418H811.088V391.795H751.399V361.418H750.709C750.232 361.418 749.818 361.027 749.818 360.522C749.818 360.022 750.232 359.627 750.709 359.627H751.399V348.875H750.709Z" fill="#B7C6E0"/>
<path fill-rule="evenodd" clip-rule="evenodd" d="M249.938 106.212C319.547 106.212 376.178 162.776 376.178 232.302C376.178 301.832 319.547 358.394 249.938 358.394C180.329 358.394 123.693 301.832 123.693 232.302C123.693 162.776 180.329 106.212 249.938 106.212ZM249.938 364.057C322.672 364.057 381.848 304.953 381.848 232.302C381.848 159.654 322.672 100.549 249.938 100.549C177.201 100.549 118.026 159.654 118.026 232.302C118.026 304.953 177.201 364.057 249.938 364.057Z" fill="#B7C6E0"/>
<path fill-rule="evenodd" clip-rule="evenodd" d="M251.672 118.233C315.604 118.233 367.614 170.182 367.614 234.037C367.614 297.891 315.604 349.841 251.672 349.841C187.739 349.841 135.722 297.891 135.722 234.037C135.722 170.182 187.739 118.233 251.672 118.233ZM251.672 353.656C317.708 353.656 371.434 299.995 371.434 234.037C371.434 168.079 317.708 114.418 251.672 114.418C185.635 114.418 131.911 168.079 131.911 234.037C131.911 299.995 185.635 353.656 251.672 353.656Z" fill="#B7C6E0"/>
<path fill-rule="evenodd" clip-rule="evenodd" d="M247.623 93.0361C247.623 94.6304 248.916 95.9262 250.515 95.9262C252.112 95.9262 253.408 94.6304 253.408 93.0361C253.408 91.4418 252.112 90.1475 250.515 90.1475C248.916 90.1475 247.623 91.4418 247.623 93.0361Z" fill="#B7C6E0"/>
<path fill-rule="evenodd" clip-rule="evenodd" d="M249.936 100.549H246.464V97.082H249.936V100.549Z" fill="#B7C6E0"/>
<path fill-rule="evenodd" clip-rule="evenodd" d="M247.623 231.727C247.623 233.32 248.919 234.615 250.518 234.615C252.116 234.615 253.408 233.32 253.408 231.727C253.408 230.129 252.116 228.836 250.518 228.836C248.919 228.836 247.623 230.129 247.623 231.727Z" fill="#B7C6E0"/>
<path fill-rule="evenodd" clip-rule="evenodd" d="M253.408 235.77H249.937V232.303H253.408V235.77Z" fill="#B7C6E0"/>
<path fill-rule="evenodd" clip-rule="evenodd" d="M275.448 95.9419C275.136 97.5053 276.157 99.027 277.723 99.3376C279.285 99.6482 280.811 98.6327 281.122 97.0678C281.433 95.5029 280.416 93.9827 278.849 93.6706C277.282 93.36 275.762 94.3754 275.448 95.9419Z" fill="#B7C6E0"/>
<path fill-rule="evenodd" clip-rule="evenodd" d="M274.711 97.082L277.707 97.7771L277.236 100.549L274.236 99.8557L274.711 97.082Z" fill="#B7C6E0"/>
<path fill-rule="evenodd" clip-rule="evenodd" d="M299.915 102.334C299.301 103.805 300.004 105.496 301.479 106.107C302.952 106.719 304.647 106.017 305.256 104.542C305.87 103.067 305.169 101.38 303.693 100.77C302.215 100.159 300.523 100.859 299.915 102.334Z" fill="#B7C6E0"/>
<path fill-rule="evenodd" clip-rule="evenodd" d="M297.657 104.016L302.006 105.205L300.567 107.484L296.22 106.297L297.657 104.016Z" fill="#B7C6E0"/>
<path fill-rule="evenodd" clip-rule="evenodd" d="M324.48 115.703C323.594 117.028 323.946 118.823 325.276 119.712C326.605 120.596 328.403 120.237 329.289 118.912C330.178 117.585 329.819 115.792 328.494 114.904C327.163 114.019 325.369 114.376 324.48 115.703Z" fill="#B7C6E0"/>
<path fill-rule="evenodd" clip-rule="evenodd" d="M322.53 117.885L326.307 120.525L324.298 123.664L320.521 121.022L322.53 117.885Z" fill="#B7C6E0"/>
<path fill-rule="evenodd" clip-rule="evenodd" d="M345.666 129.134C344.538 130.259 344.538 132.09 345.666 133.22C346.798 134.348 348.63 134.348 349.757 133.22C350.886 132.089 350.889 130.259 349.76 129.131C348.628 128.005 346.801 128.005 345.666 129.134Z" fill="#B7C6E0"/>
<path fill-rule="evenodd" clip-rule="evenodd" d="M343.91 135.221L347.133 138.443L344.573 141L341.347 137.781L343.91 135.221Z" fill="#B7C6E0"/>
<path fill-rule="evenodd" clip-rule="evenodd" d="M363.46 149.579C362.133 150.464 361.777 152.257 362.662 153.585C363.553 154.91 365.348 155.268 366.674 154.383C368.004 153.491 368.361 151.699 367.472 150.374C366.584 149.046 364.789 148.691 363.46 149.579Z" fill="#B7C6E0"/>
<path fill-rule="evenodd" clip-rule="evenodd" d="M361.85 151.402L364.49 155.179L361.35 157.18L358.705 153.407L361.85 151.402Z" fill="#B7C6E0"/>
<path fill-rule="evenodd" clip-rule="evenodd" d="M377.847 173.581C376.373 174.189 375.672 175.88 376.282 177.358C376.894 178.832 378.584 179.528 380.061 178.919C381.538 178.305 382.236 176.618 381.628 175.145C381.014 173.668 379.327 172.972 377.847 173.581Z" fill="#B7C6E0"/>
<path fill-rule="evenodd" clip-rule="evenodd" d="M373.716 176.828L374.904 181.177L372.625 182.607L371.433 178.258L373.716 176.828Z" fill="#B7C6E0"/>
<path fill-rule="evenodd" clip-rule="evenodd" d="M385.332 201.155C383.769 201.465 382.748 202.987 383.059 204.553C383.371 206.116 384.897 207.133 386.46 206.821C388.027 206.504 389.043 204.987 388.734 203.424C388.418 201.858 386.9 200.843 385.332 201.155Z" fill="#B7C6E0"/>
<path fill-rule="evenodd" clip-rule="evenodd" d="M384.629 201.098L385.318 204.093L382.545 204.566L381.847 201.569L384.629 201.098Z" fill="#B7C6E0"/>
<path fill-rule="evenodd" clip-rule="evenodd" d="M388.207 225.369C386.611 225.369 385.315 226.664 385.318 228.262C385.318 229.856 386.611 231.151 388.207 231.148C389.81 231.148 391.104 229.856 391.104 228.262C391.104 226.664 389.81 225.37 388.207 225.369Z" fill="#B7C6E0"/>
<path fill-rule="evenodd" clip-rule="evenodd" d="M385.318 228.836L385.316 232.302L381.847 232.303V228.836H385.318Z" fill="#B7C6E0"/>
<path fill-rule="evenodd" clip-rule="evenodd" d="M386.459 253.163C384.892 252.85 383.37 253.867 383.06 255.433C382.749 256.997 383.764 258.519 385.33 258.83C386.9 259.138 388.421 258.128 388.733 256.561C389.044 254.995 388.027 253.477 386.459 253.163Z" fill="#B7C6E0"/>
<path fill-rule="evenodd" clip-rule="evenodd" d="M385.318 253.578L384.621 256.574L381.847 256.099L382.543 253.107L385.318 253.578Z" fill="#B7C6E0"/>
<path fill-rule="evenodd" clip-rule="evenodd" d="M380.064 281.064C378.588 280.455 376.894 281.155 376.284 282.63C375.67 284.103 376.375 285.794 377.849 286.403C379.329 287.011 381.016 286.315 381.628 284.841C382.238 283.365 381.535 281.678 380.064 281.064Z" fill="#B7C6E0"/>
<path fill-rule="evenodd" clip-rule="evenodd" d="M379.533 282.277L378.339 286.623L376.062 285.192L377.25 280.844L379.533 282.277Z" fill="#B7C6E0"/>
<path fill-rule="evenodd" clip-rule="evenodd" d="M370.147 302.133C368.82 301.25 367.023 301.604 366.133 302.932C365.25 304.259 365.606 306.053 366.932 306.94C368.264 307.824 370.056 307.47 370.944 306.143C371.835 304.813 371.475 303.024 370.147 302.133Z" fill="#B7C6E0"/>
<path fill-rule="evenodd" clip-rule="evenodd" d="M364.49 303.649L361.841 307.426L358.705 305.42L361.348 301.648L364.49 303.649Z" fill="#B7C6E0"/>
<path fill-rule="evenodd" clip-rule="evenodd" d="M353.231 323.296C352.097 322.169 350.267 322.169 349.138 323.298C348.008 324.427 348.008 326.255 349.138 327.383C350.272 328.509 352.097 328.514 353.231 327.383C354.358 326.255 354.358 324.427 353.231 323.296Z" fill="#B7C6E0"/>
<path fill-rule="evenodd" clip-rule="evenodd" d="M350.605 325.013L347.378 328.229L344.82 325.672L348.045 322.451L350.605 325.013Z" fill="#B7C6E0"/>
<path fill-rule="evenodd" clip-rule="evenodd" d="M332.761 341.07C331.871 339.745 330.075 339.388 328.744 340.274C327.42 341.161 327.064 342.954 327.948 344.277C328.843 345.605 330.634 345.966 331.964 345.079C333.288 344.188 333.649 342.399 332.761 341.07Z" fill="#B7C6E0"/>
<path fill-rule="evenodd" clip-rule="evenodd" d="M329.777 342.931L325.997 345.566L323.992 342.429L327.774 339.787L329.777 342.931Z" fill="#B7C6E0"/>
<path fill-rule="evenodd" clip-rule="evenodd" d="M308.73 355.439C308.119 353.967 306.424 353.268 304.949 353.874C303.472 354.488 302.776 356.173 303.383 357.647C304.001 359.123 305.689 359.825 307.162 359.214C308.641 358.6 309.337 356.914 308.73 355.439Z" fill="#B7C6E0"/>
<path fill-rule="evenodd" clip-rule="evenodd" d="M305.479 355.937L301.125 357.123L299.693 354.843L304.044 353.656L305.479 355.937Z" fill="#B7C6E0"/>
<path fill-rule="evenodd" clip-rule="evenodd" d="M284.596 365.229C284.282 363.666 282.758 362.648 281.188 362.957C279.625 363.27 278.611 364.789 278.92 366.355C279.237 367.919 280.753 368.936 282.325 368.624C283.889 368.311 284.902 366.795 284.596 365.229Z" fill="#B7C6E0"/>
<path fill-rule="evenodd" clip-rule="evenodd" d="M281.178 363.365L278.179 364.057L277.706 361.286L280.703 360.59L281.178 363.365Z" fill="#B7C6E0"/>
<path fill-rule="evenodd" clip-rule="evenodd" d="M256.879 365.791C256.876 364.198 255.581 362.905 253.985 362.902C252.388 362.905 251.095 364.198 251.093 365.789C251.099 367.384 252.388 368.68 253.987 368.68C255.584 368.674 256.871 367.384 256.879 365.791Z" fill="#B7C6E0"/>
<path fill-rule="evenodd" clip-rule="evenodd" d="M253.408 366.369L249.937 366.367V362.906L253.405 362.902L253.408 366.369Z" fill="#B7C6E0"/>
<path fill-rule="evenodd" clip-rule="evenodd" d="M229.052 366.355C229.362 364.792 228.338 363.271 226.778 362.956C225.21 362.65 223.691 363.664 223.377 365.226C223.069 366.794 224.081 368.313 225.647 368.625C227.216 368.934 228.732 367.919 229.052 366.355Z" fill="#B7C6E0"/>
<path fill-rule="evenodd" clip-rule="evenodd" d="M228.63 364.057L225.636 363.359L226.109 360.59L229.107 361.28L228.63 364.057Z" fill="#B7C6E0"/>
<path fill-rule="evenodd" clip-rule="evenodd" d="M204.587 361.12C205.201 359.644 204.495 357.956 203.02 357.341C201.542 356.735 199.852 357.435 199.242 358.907C198.636 360.384 199.329 362.071 200.809 362.683C202.286 363.29 203.974 362.59 204.587 361.12Z" fill="#B7C6E0"/>
<path fill-rule="evenodd" clip-rule="evenodd" d="M203.375 357.123L199.023 355.931L200.456 353.656L204.809 354.845L203.375 357.123Z" fill="#B7C6E0"/>
<path fill-rule="evenodd" clip-rule="evenodd" d="M180.025 347.749C180.91 346.422 180.549 344.626 179.223 343.738C177.895 342.858 176.101 343.209 175.211 344.538C174.325 345.869 174.682 347.661 176.01 348.547C177.336 349.431 179.132 349.076 180.025 347.749Z" fill="#B7C6E0"/>
<path fill-rule="evenodd" clip-rule="evenodd" d="M178.502 349.033L174.724 346.39L176.723 343.254L180.51 345.892L178.502 349.033Z" fill="#B7C6E0"/>
<path fill-rule="evenodd" clip-rule="evenodd" d="M158.839 330.851C159.965 329.722 159.961 327.891 158.836 326.764C157.707 325.636 155.875 325.636 154.745 326.765C153.615 327.899 153.612 329.722 154.745 330.851C155.875 331.979 157.701 331.979 158.839 330.851Z" fill="#B7C6E0"/>
<path fill-rule="evenodd" clip-rule="evenodd" d="M157.118 331.697L153.896 328.469L156.451 325.918L159.682 329.137L157.118 331.697Z" fill="#B7C6E0"/>
<path fill-rule="evenodd" clip-rule="evenodd" d="M141.039 310.409C142.37 309.519 142.722 307.725 141.836 306.398C140.946 305.072 139.154 304.715 137.825 305.605C136.499 306.493 136.139 308.281 137.024 309.61C137.913 310.936 139.71 311.291 141.039 310.409Z" fill="#B7C6E0"/>
<path fill-rule="evenodd" clip-rule="evenodd" d="M139.182 310.893L136.539 307.114L139.676 305.115L142.324 308.888L139.182 310.893Z" fill="#B7C6E0"/>
<path fill-rule="evenodd" clip-rule="evenodd" d="M126.654 286.405C128.13 285.792 128.829 284.099 128.219 282.625C127.608 281.153 125.916 280.454 124.441 281.066C122.963 281.681 122.264 283.363 122.875 284.84C123.486 286.312 125.178 287.011 126.654 286.405Z" fill="#B7C6E0"/>
<path fill-rule="evenodd" clip-rule="evenodd" d="M126.155 286.623L124.968 282.278L127.247 280.844L128.439 285.189L126.155 286.623Z" fill="#B7C6E0"/>
<path fill-rule="evenodd" clip-rule="evenodd" d="M119.166 262.298C120.732 261.984 121.75 260.461 121.441 258.895C121.127 257.333 119.604 256.317 118.039 256.631C116.466 256.944 115.457 258.46 115.766 260.026C116.08 261.59 117.598 262.604 119.166 262.298Z" fill="#B7C6E0"/>
<path fill-rule="evenodd" clip-rule="evenodd" d="M118.717 260.041L118.025 257.049L120.798 256.574L121.496 259.566L118.717 260.041Z" fill="#B7C6E0"/>
<path fill-rule="evenodd" clip-rule="evenodd" d="M115.133 234.615C116.729 234.615 118.019 233.317 118.025 231.722C118.019 230.127 116.729 228.836 115.128 228.836C113.533 228.842 112.244 230.127 112.24 231.725C112.244 233.323 113.535 234.612 115.133 234.615Z" fill="#B7C6E0"/>
<path fill-rule="evenodd" clip-rule="evenodd" d="M114.554 235.77L114.556 232.307L118.025 232.303V235.767L114.554 235.77Z" fill="#B7C6E0"/>
<path fill-rule="evenodd" clip-rule="evenodd" d="M118.039 206.821C119.607 207.132 121.125 206.113 121.442 204.548C121.747 202.984 120.732 201.463 119.163 201.154C117.597 200.845 116.079 201.856 115.766 203.423C115.456 204.988 116.473 206.505 118.039 206.821Z" fill="#B7C6E0"/>
<path fill-rule="evenodd" clip-rule="evenodd" d="M118.025 208.719L118.726 205.721L121.496 206.193L120.798 209.189L118.025 208.719Z" fill="#B7C6E0"/>
<path fill-rule="evenodd" clip-rule="evenodd" d="M124.436 182.385C125.914 182.999 127.607 182.294 128.221 180.819C128.828 179.344 128.128 177.657 126.65 177.047C125.17 176.442 123.485 177.133 122.873 178.612C122.266 180.088 122.965 181.772 124.436 182.385Z" fill="#B7C6E0"/>
<path fill-rule="evenodd" clip-rule="evenodd" d="M124.968 184.645L126.161 180.295L128.439 181.721L127.249 186.074L124.968 184.645Z" fill="#B7C6E0"/>
<path fill-rule="evenodd" clip-rule="evenodd" d="M134.354 156.692C135.682 157.582 137.477 157.22 138.371 155.894C139.249 154.568 138.898 152.776 137.566 151.888C136.232 151.005 134.442 151.356 133.554 152.684C132.669 154.014 133.026 155.803 134.354 156.692Z" fill="#B7C6E0"/>
<path fill-rule="evenodd" clip-rule="evenodd" d="M136.539 159.801L139.19 156.025L142.324 158.027L139.684 161.803L136.539 159.801Z" fill="#B7C6E0"/>
<path fill-rule="evenodd" clip-rule="evenodd" d="M151.271 136.685C152.401 137.819 154.233 137.811 155.367 136.685C156.493 135.555 156.494 133.73 155.361 132.6C154.226 131.475 152.404 131.469 151.271 132.601C150.142 133.732 150.145 135.553 151.271 136.685Z" fill="#B7C6E0"/>
<path fill-rule="evenodd" clip-rule="evenodd" d="M150.425 138.439L153.654 135.221L156.211 137.778L152.991 141L150.425 138.439Z" fill="#B7C6E0"/>
<path fill-rule="evenodd" clip-rule="evenodd" d="M171.74 118.911C172.626 120.243 174.424 120.594 175.757 119.71C177.08 118.82 177.44 117.03 176.549 115.704C175.655 114.378 173.867 114.017 172.539 114.905C171.21 115.797 170.855 117.584 171.74 118.911Z" fill="#B7C6E0"/>
<path fill-rule="evenodd" clip-rule="evenodd" d="M171.253 120.524L175.037 117.885L177.039 121.02L173.264 123.664L171.253 120.524Z" fill="#B7C6E0"/>
<path fill-rule="evenodd" clip-rule="evenodd" d="M195.771 104.541C196.384 106.02 198.073 106.715 199.554 106.109C201.028 105.496 201.729 103.81 201.116 102.33C200.497 100.858 198.812 100.159 197.336 100.77C195.864 101.384 195.164 103.066 195.771 104.541Z" fill="#B7C6E0"/>
<path fill-rule="evenodd" clip-rule="evenodd" d="M195.552 108.671L199.91 107.484L201.338 109.759L196.987 110.951L195.552 108.671Z" fill="#B7C6E0"/>
<path fill-rule="evenodd" clip-rule="evenodd" d="M219.906 97.0653C220.217 98.6325 221.741 99.646 223.312 99.3385C224.876 99.0221 225.892 97.5056 225.581 95.9398C225.264 94.3741 223.746 93.3591 222.18 93.6711C220.612 93.986 219.598 95.501 219.906 97.0653Z" fill="#B7C6E0"/>
<path fill-rule="evenodd" clip-rule="evenodd" d="M222.165 101.238L225.168 100.549L225.637 103.319L222.64 104.016L222.165 101.238Z" fill="#B7C6E0"/>
<path fill-rule="evenodd" clip-rule="evenodd" d="M201.337 391.171L249.376 232.303H253.965L302.006 391.171C302.006 391.171 296.457 392.575 295.81 391.171C266.921 328.82 251.673 240.15 251.673 240.15C251.673 240.15 232.255 343.961 207.53 391.171C206.811 392.54 201.337 391.171 201.337 391.171Z" fill="#B7C6E0"/>
<path fill-rule="evenodd" clip-rule="evenodd" d="M248.128 117.885L256.879 100.975L255.964 100.549L248.128 115.688L240.442 100.729L239.522 101.148L248.128 117.885Z" fill="#B7C6E0"/>
<path fill-rule="evenodd" clip-rule="evenodd" d="M268.906 117.885L281.178 103.668L280.356 103.113L269.363 115.84L264.821 100.549L263.821 100.781L268.906 117.885Z" fill="#B7C6E0"/>
<path fill-rule="evenodd" clip-rule="evenodd" d="M292.621 124.82L305.479 113.247L304.903 112.572L293.388 122.935L292.469 107.484L291.593 107.537L292.621 124.82Z" fill="#B7C6E0"/>
<path fill-rule="evenodd" clip-rule="evenodd" d="M312.421 135.221L329.777 126.343L329.262 125.558L313.723 133.507L316.118 118.008L315.102 117.885L312.421 135.221Z" fill="#B7C6E0"/>
<path fill-rule="evenodd" clip-rule="evenodd" d="M329.776 149.09L347.133 143.098L346.828 142.195L331.289 147.564L336.575 132.06L335.685 131.754L329.776 149.09Z" fill="#B7C6E0"/>
<path fill-rule="evenodd" clip-rule="evenodd" d="M347.134 168.738L364.49 166.051L364.373 165.02L348.838 167.427L356.634 151.926L355.86 151.402L347.134 168.738Z" fill="#B7C6E0"/>
<path fill-rule="evenodd" clip-rule="evenodd" d="M374.847 187.23L374.904 186.349L359.418 185.365L369.572 173.948L368.908 173.361L357.548 186.134L374.847 187.23Z" fill="#B7C6E0"/>
<path fill-rule="evenodd" clip-rule="evenodd" d="M381.616 214.967L381.848 213.968L366.521 209.304L378.987 198.46L378.44 197.631L364.491 209.758L381.616 214.967Z" fill="#B7C6E0"/>
<path fill-rule="evenodd" clip-rule="evenodd" d="M381.428 239.238L381.848 238.323L366.693 230.497L381.672 222.814L381.252 221.902L364.491 230.497L381.428 239.238Z" fill="#B7C6E0"/>
<path fill-rule="evenodd" clip-rule="evenodd" d="M378.722 266.975L379.279 266.152L366.542 255.179L381.848 250.643L381.618 249.639L364.491 254.718L378.722 266.975Z" fill="#B7C6E0"/>
<path fill-rule="evenodd" clip-rule="evenodd" d="M369.135 287.779L369.81 287.198L359.434 275.704L374.904 274.787L374.849 273.91L357.548 274.936L369.135 287.779Z" fill="#B7C6E0"/>
<path fill-rule="evenodd" clip-rule="evenodd" d="M356.022 312.049L356.804 311.534L348.851 296.014L364.363 298.408L364.49 297.388L347.134 294.713L356.022 312.049Z" fill="#B7C6E0"/>
<path fill-rule="evenodd" clip-rule="evenodd" d="M339.248 329.385L340.15 329.079L334.777 313.562L350.301 318.838L350.605 317.949L333.249 312.049L339.248 329.385Z" fill="#B7C6E0"/>
<path fill-rule="evenodd" clip-rule="evenodd" d="M318.583 343.254L319.617 343.137L317.211 327.614L332.724 335.402L333.248 334.627L315.891 325.918L318.583 343.254Z" fill="#B7C6E0"/>
<path fill-rule="evenodd" clip-rule="evenodd" d="M295.943 353.656L296.93 338.188L308.363 348.329L308.949 347.662L296.163 336.32L295.064 353.601L295.943 353.656Z" fill="#B7C6E0"/>
<path fill-rule="evenodd" clip-rule="evenodd" d="M268.3 360.59L272.968 345.277L283.821 357.733L284.65 357.183L272.509 343.254L267.294 360.359L268.3 360.59Z" fill="#B7C6E0"/>
<path fill-rule="evenodd" clip-rule="evenodd" d="M243.908 364.057L251.744 348.923L259.437 363.884L260.35 363.456L251.748 346.721L242.993 363.631L243.908 364.057Z" fill="#B7C6E0"/>
<path fill-rule="evenodd" clip-rule="evenodd" d="M235.053 364.057L236.051 363.821L230.968 346.721L218.694 360.932L219.516 361.484L230.508 348.767L235.053 364.057Z" fill="#B7C6E0"/>
<path fill-rule="evenodd" clip-rule="evenodd" d="M207.403 357.123L208.281 357.067L207.252 339.787L194.396 351.356L194.973 352.029L206.481 341.675L207.403 357.123Z" fill="#B7C6E0"/>
<path fill-rule="evenodd" clip-rule="evenodd" d="M184.775 346.721L187.453 329.385L170.096 338.258L170.607 339.044L186.144 331.099L183.754 346.594L184.775 346.721Z" fill="#B7C6E0"/>
<path fill-rule="evenodd" clip-rule="evenodd" d="M164.187 332.852L170.096 315.516L152.739 321.511L153.044 322.408L168.581 317.046L163.297 332.542L164.187 332.852Z" fill="#B7C6E0"/>
<path fill-rule="evenodd" clip-rule="evenodd" d="M147.488 315.516L156.211 298.18L138.854 300.862L138.974 301.895L154.507 299.496L146.713 314.992L147.488 315.516Z" fill="#B7C6E0"/>
<path fill-rule="evenodd" clip-rule="evenodd" d="M134.435 291.246L145.797 278.478L128.493 277.377L128.44 278.255L143.928 279.243L133.772 290.657L134.435 291.246Z" fill="#B7C6E0"/>
<path fill-rule="evenodd" clip-rule="evenodd" d="M124.91 270.443L138.854 258.32L121.731 253.107L121.497 254.112L136.826 258.776L124.359 269.614L124.91 270.443Z" fill="#B7C6E0"/>
<path fill-rule="evenodd" clip-rule="evenodd" d="M118.624 242.705L135.383 234.112L118.453 225.369L118.026 226.285L133.19 234.107L118.202 241.791L118.624 242.705Z" fill="#B7C6E0"/>
<path fill-rule="evenodd" clip-rule="evenodd" d="M121.729 218.434L138.854 213.353L124.626 201.098L124.071 201.916L136.805 212.894L121.497 217.433L121.729 218.434Z" fill="#B7C6E0"/>
<path fill-rule="evenodd" clip-rule="evenodd" d="M125.025 190.697L142.324 189.663L130.747 176.828L130.072 177.406L140.437 188.896L124.968 189.816L125.025 190.697Z" fill="#B7C6E0"/>
<path fill-rule="evenodd" clip-rule="evenodd" d="M153.896 168.738L145.013 151.402L144.228 151.919L152.181 167.435L136.667 165.046L136.54 166.068L153.896 168.738Z" fill="#B7C6E0"/>
<path fill-rule="evenodd" clip-rule="evenodd" d="M170.096 152.557L164.097 135.221L163.198 135.526L168.565 151.045L153.05 145.771L152.739 146.66L170.096 152.557Z" fill="#B7C6E0"/>
<path fill-rule="evenodd" clip-rule="evenodd" d="M183.98 135.221L181.301 117.885L180.266 118.005L182.668 133.525L167.148 125.734L166.624 126.507L183.98 135.221Z" fill="#B7C6E0"/>
<path fill-rule="evenodd" clip-rule="evenodd" d="M203.702 124.82L204.809 107.541L203.924 107.484L202.941 122.953L191.507 112.807L190.923 113.472L203.702 124.82Z" fill="#B7C6E0"/>
<path fill-rule="evenodd" clip-rule="evenodd" d="M228.516 117.885L233.736 100.783L232.731 100.549L228.06 115.858L217.209 103.402L216.38 103.951L228.516 117.885Z" fill="#B7C6E0"/>
<path fill-rule="evenodd" clip-rule="evenodd" d="M249.43 232.303L250.072 232.297L256.879 100.582L256.234 100.549L249.685 227.241L240.165 102.639L239.522 102.689L249.43 232.303Z" fill="#B7C6E0"/>
<path fill-rule="evenodd" clip-rule="evenodd" d="M253.992 232.303L284.65 105.226L284.075 105.074L254.583 227.302L269.124 104.092L268.531 104.016L253.408 232.188L253.992 232.303Z" fill="#B7C6E0"/>
<path fill-rule="evenodd" clip-rule="evenodd" d="M253.973 232.303L308.949 112.022L308.396 111.75L255.524 227.445L293.619 107.684L293.037 107.484L253.408 232.074L253.973 232.303Z" fill="#B7C6E0"/>
<path fill-rule="evenodd" clip-rule="evenodd" d="M250.463 232.303L329.777 125.548L329.273 125.171L252.982 227.853L315.037 118.194L314.493 117.885L249.937 231.962L250.463 232.303Z" fill="#B7C6E0"/>
<path fill-rule="evenodd" clip-rule="evenodd" d="M250.379 232.303L347.133 145.444L346.718 144.989L253.656 228.529L334.359 135.623L333.886 135.221L249.935 231.874L250.379 232.303Z" fill="#B7C6E0"/>
<path fill-rule="evenodd" clip-rule="evenodd" d="M250.293 231.148L364.49 164.104L364.166 163.572L254.326 228.056L353.678 151.891L353.29 151.402L249.936 230.641L250.293 231.148Z" fill="#B7C6E0"/>
<path fill-rule="evenodd" clip-rule="evenodd" d="M250.184 233.459L374.904 188.367L374.689 187.767L254.735 231.137L366.768 173.93L366.48 173.361L249.936 232.874L250.184 233.459Z" fill="#B7C6E0"/>
<path fill-rule="evenodd" clip-rule="evenodd" d="M250.063 232.303L381.848 213.437L381.757 212.828L255.001 230.975L376.618 198.223L376.452 197.631L249.937 231.705L250.063 232.303Z" fill="#B7C6E0"/>
<path fill-rule="evenodd" clip-rule="evenodd" d="M381.817 239.238L381.848 238.594L255.013 232.051L379.762 222.543L379.716 221.902L249.937 231.794L249.95 232.438L381.817 239.238Z" fill="#B7C6E0"/>
<path fill-rule="evenodd" clip-rule="evenodd" d="M378.318 263.508L378.468 262.932L256.103 233.477L379.455 247.997L379.533 247.404L251.209 232.303L251.094 232.884L378.318 263.508Z" fill="#B7C6E0"/>
<path fill-rule="evenodd" clip-rule="evenodd" d="M370.365 287.779L370.635 287.231L254.802 234.417L374.708 272.466L374.904 271.884L250.172 232.303L249.936 232.868L370.365 287.779Z" fill="#B7C6E0"/>
<path fill-rule="evenodd" clip-rule="evenodd" d="M356.817 312.049L357.195 311.543L254.392 235.347L364.179 297.329L364.49 296.781L250.28 232.303L249.936 232.827L356.817 312.049Z" fill="#B7C6E0"/>
<path fill-rule="evenodd" clip-rule="evenodd" d="M340.373 329.385L340.831 328.971L257.185 236.02L350.202 316.625L350.605 316.156L253.84 232.303L253.408 232.744L340.373 329.385Z" fill="#B7C6E0"/>
<path fill-rule="evenodd" clip-rule="evenodd" d="M317.066 346.721L317.599 346.395L253.032 236.69L329.29 335.919L329.777 335.529L250.448 232.303L249.937 232.662L317.066 346.721Z" fill="#B7C6E0"/>
<path fill-rule="evenodd" clip-rule="evenodd" d="M294.217 357.123L294.809 356.913L252.215 237.092L308.394 348.998L308.949 348.713L250.511 232.303L249.936 232.551L294.217 357.123Z" fill="#B7C6E0"/>
<path fill-rule="evenodd" clip-rule="evenodd" d="M268.833 364.057L269.443 363.965L251.265 237.366L284.06 358.83L284.65 358.66L250.536 232.303L249.937 232.436L268.833 364.057Z" fill="#B7C6E0"/>
<path fill-rule="evenodd" clip-rule="evenodd" d="M243.636 364.057L250.181 237.37L259.705 361.968L260.35 361.922L250.445 232.303L249.8 232.31L242.993 364.029L243.636 364.057Z" fill="#B7C6E0"/>
<path fill-rule="evenodd" clip-rule="evenodd" d="M234.813 360.59L249.936 232.418L249.352 232.303L218.694 359.378L219.266 359.528L248.756 237.306L234.222 360.51L234.813 360.59Z" fill="#B7C6E0"/>
<path fill-rule="evenodd" clip-rule="evenodd" d="M210.304 357.123L249.936 232.537L249.368 232.303L194.394 352.585L194.945 352.854L247.822 237.168L209.726 356.924L210.304 357.123Z" fill="#B7C6E0"/>
<path fill-rule="evenodd" clip-rule="evenodd" d="M185.38 346.721L249.936 232.645L249.409 232.303L170.095 339.057L170.602 339.432L246.89 236.754L184.835 346.411L185.38 346.721Z" fill="#B7C6E0"/>
<path fill-rule="evenodd" clip-rule="evenodd" d="M165.986 329.385L249.936 232.73L249.499 232.303L152.738 319.161L153.155 319.613L246.217 236.073L165.515 328.982L165.986 329.385Z" fill="#B7C6E0"/>
<path fill-rule="evenodd" clip-rule="evenodd" d="M146.582 312.049L249.936 232.814L249.581 232.303L135.381 299.348L135.703 299.879L245.545 235.395L146.191 311.558L146.582 312.049Z" fill="#B7C6E0"/>
<path fill-rule="evenodd" clip-rule="evenodd" d="M133.394 292.402L249.936 232.886L249.683 232.303L124.967 277.397L125.176 277.998L245.139 234.623L133.107 291.834L133.394 292.402Z" fill="#B7C6E0"/>
<path fill-rule="evenodd" clip-rule="evenodd" d="M123.433 266.975L249.936 232.9L249.803 232.303L118.025 251.17L118.117 251.782L244.867 233.629L123.263 266.387L123.433 266.975Z" fill="#B7C6E0"/>
<path fill-rule="evenodd" clip-rule="evenodd" d="M120.167 242.705L249.936 232.816L249.931 232.172L118.055 225.369L118.025 226.013L244.861 232.554L120.123 242.061L120.167 242.705Z" fill="#B7C6E0"/>
<path fill-rule="evenodd" clip-rule="evenodd" d="M249.822 232.303L249.936 231.721L122.707 201.098L122.557 201.675L244.93 231.128L121.574 216.609L121.496 217.198L249.822 232.303Z" fill="#B7C6E0"/>
<path fill-rule="evenodd" clip-rule="evenodd" d="M249.706 232.303L249.936 231.738L129.511 176.828L129.239 177.38L245.07 230.198L125.164 192.144L124.967 192.721L249.706 232.303Z" fill="#B7C6E0"/>
<path fill-rule="evenodd" clip-rule="evenodd" d="M249.591 231.148L249.936 230.624L143.057 151.402L142.682 151.906L245.48 228.101L135.695 166.126L135.381 166.67L249.591 231.148Z" fill="#B7C6E0"/>
<path fill-rule="evenodd" clip-rule="evenodd" d="M249.506 232.303L249.936 231.861L162.974 135.221L162.518 135.636L246.158 228.587L153.138 147.988L152.738 148.455L249.506 232.303Z" fill="#B7C6E0"/>
<path fill-rule="evenodd" clip-rule="evenodd" d="M249.424 232.303L249.936 231.949L182.814 117.885L182.279 118.207L246.842 227.92L170.585 128.687L170.095 129.074L249.424 232.303Z" fill="#B7C6E0"/>
<path fill-rule="evenodd" clip-rule="evenodd" d="M249.363 232.303L249.936 232.056L205.651 107.484L205.062 107.692L247.655 227.507L191.478 115.613L190.923 115.896L249.363 232.303Z" fill="#B7C6E0"/>
<path fill-rule="evenodd" clip-rule="evenodd" d="M249.336 232.303L249.936 232.171L231.04 100.549L230.434 100.637L248.605 227.239L215.809 105.781L215.222 105.947L249.336 232.303Z" fill="#B7C6E0"/>
<path fill-rule="evenodd" clip-rule="evenodd" d="M475.574 291.246H473.26V266.975H475.574V291.246Z" fill="#B7C6E0"/>
<path fill-rule="evenodd" clip-rule="evenodd" d="M475.296 301.648H475.852H680.383V395.262H572.523V382.594C572.523 379.052 569.676 376.183 566.16 376.183C564.398 376.183 562.809 376.901 561.657 378.061C560.503 379.221 559.791 380.823 559.791 382.594V395.262H475.852H475.296H391.355V382.594C391.355 380.823 390.642 379.221 389.493 378.061C388.337 376.901 386.75 376.183 384.988 376.183C381.474 376.183 378.627 379.052 378.627 382.594V395.262H270.765V301.648H475.296Z" fill="#B7C6E0"/>
<path fill-rule="evenodd" clip-rule="evenodd" d="M475.296 301.648H475.852H680.383V395.262H572.523V382.594C572.523 379.053 569.676 376.183 566.16 376.183C564.398 376.183 562.809 376.901 561.657 378.061C560.503 379.221 559.791 380.823 559.791 382.594V395.262H475.852H475.296H391.355V382.594C391.355 380.823 390.642 379.221 389.493 378.061C388.337 376.901 386.75 376.183 384.988 376.183C381.474 376.183 378.627 379.053 378.627 382.594V395.262H270.765V301.648H475.296Z" stroke="white"/>
<path fill-rule="evenodd" clip-rule="evenodd" d="M676.91 308.582H617.897V294.713H676.91V308.582Z" fill="#B7C6E0"/>
<path fill-rule="evenodd" clip-rule="evenodd" d="M676.91 308.582H617.897V294.713H676.91V308.582Z" stroke="white"/>
<path fill-rule="evenodd" clip-rule="evenodd" d="M676.91 314.361H617.897V308.582H676.91V314.361Z" fill="#B7C6E0"/>
<path fill-rule="evenodd" clip-rule="evenodd" d="M676.91 314.361H617.897V308.582H676.91V314.361Z" stroke="white"/>
<path fill-rule="evenodd" clip-rule="evenodd" d="M656.082 360.59H650.296V315.516H656.082V360.59Z" fill="#B7C6E0"/>
<path fill-rule="evenodd" clip-rule="evenodd" d="M656.082 360.59H650.296V315.516H656.082V360.59Z" stroke="white"/>
<path fill-rule="evenodd" clip-rule="evenodd" d="M645.668 360.59H639.882V315.516H645.668V360.59Z" fill="#B7C6E0"/>
<path fill-rule="evenodd" clip-rule="evenodd" d="M645.668 360.59H639.882V315.516H645.668V360.59Z" stroke="white"/>
<path fill-rule="evenodd" clip-rule="evenodd" d="M628.312 360.59H622.527V315.516H628.312V360.59Z" fill="#B7C6E0"/>
<path fill-rule="evenodd" clip-rule="evenodd" d="M628.312 360.59H622.527V315.516H628.312V360.59Z" stroke="white"/>
<path fill-rule="evenodd" clip-rule="evenodd" d="M676.91 360.59H671.125V315.516H676.91V360.59Z" fill="#B7C6E0"/>
<path fill-rule="evenodd" clip-rule="evenodd" d="M676.91 360.59H671.125V315.516H676.91V360.59Z" stroke="white"/>
<path fill-rule="evenodd" clip-rule="evenodd" d="M482.516 360.59H476.73V315.516H482.516V360.59Z" fill="#B7C6E0"/>
<path fill-rule="evenodd" clip-rule="evenodd" d="M482.516 360.59H476.73V315.516H482.516V360.59Z" stroke="white"/>
<path fill-rule="evenodd" clip-rule="evenodd" d="M506.814 360.59H489.458V315.516H506.814V360.59Z" fill="#B7C6E0"/>
<path fill-rule="evenodd" clip-rule="evenodd" d="M506.814 360.59H489.458V315.516H506.814V360.59Z" stroke="white"/>
<path fill-rule="evenodd" clip-rule="evenodd" d="M680.383 395.262H621.37V301.648H680.383V395.262Z" stroke="white"/>
<path fill-rule="evenodd" clip-rule="evenodd" d="M326.307 308.582H267.294V294.713H326.307V308.582Z" fill="#B7C6E0"/>
<path fill-rule="evenodd" clip-rule="evenodd" d="M326.307 308.582H267.294V294.713H326.307V308.582Z" stroke="white"/>
<path fill-rule="evenodd" clip-rule="evenodd" d="M326.307 314.361H267.294V308.582H326.307V314.361Z" fill="#B7C6E0"/>
<path fill-rule="evenodd" clip-rule="evenodd" d="M326.307 314.361H267.294V308.582H326.307V314.361Z" stroke="white"/>
<path fill-rule="evenodd" clip-rule="evenodd" d="M295.064 360.59H289.279V315.516H295.064V360.59Z" fill="#B7C6E0"/>
<path fill-rule="evenodd" clip-rule="evenodd" d="M295.064 360.59H289.279V315.516H295.064V360.59Z" stroke="white"/>
<path fill-rule="evenodd" clip-rule="evenodd" d="M305.479 360.59H299.693V315.516H305.479V360.59Z" fill="#B7C6E0"/>
<path fill-rule="evenodd" clip-rule="evenodd" d="M305.479 360.59H299.693V315.516H305.479V360.59Z" stroke="white"/>
<path fill-rule="evenodd" clip-rule="evenodd" d="M326.307 360.59H315.893V315.516H326.307V360.59Z" fill="#B7C6E0"/>
<path fill-rule="evenodd" clip-rule="evenodd" d="M326.307 360.59H315.893V315.516H326.307V360.59Z" stroke="white"/>
<path fill-rule="evenodd" clip-rule="evenodd" d="M277.707 360.59H267.293V315.516H277.707V360.59Z" fill="#B7C6E0"/>
<path fill-rule="evenodd" clip-rule="evenodd" d="M277.707 360.59H267.293V315.516H277.707V360.59Z" stroke="white"/>
<path fill-rule="evenodd" clip-rule="evenodd" d="M471.817 287.779H472.38H506.814V301.648H472.38H471.817H437.388V287.779H471.817Z" fill="#B7C6E0"/>
<path fill-rule="evenodd" clip-rule="evenodd" d="M471.817 287.779H472.38H506.814V301.648H472.38H471.817H437.388V287.779H471.817Z" stroke="white"/>
<path fill-rule="evenodd" clip-rule="evenodd" d="M468.631 360.59H462.845V315.516H468.631V360.59Z" fill="#B7C6E0"/>
<path fill-rule="evenodd" clip-rule="evenodd" d="M468.631 360.59H462.845V315.516H468.631V360.59Z" stroke="white"/>
<path fill-rule="evenodd" clip-rule="evenodd" d="M454.746 360.59H437.389V315.516H454.746V360.59Z" fill="#B7C6E0"/>
<path fill-rule="evenodd" clip-rule="evenodd" d="M454.746 360.59H437.389V315.516H454.746V360.59Z" stroke="white"/>
<path fill-rule="evenodd" clip-rule="evenodd" d="M471.824 308.582H472.378H506.814V318.984H472.378H471.824H437.388V308.582H471.824Z" fill="#B7C6E0"/>
<path fill-rule="evenodd" clip-rule="evenodd" d="M471.824 308.582H472.378H506.814V318.984H472.378H471.824H437.388V308.582H471.824Z" stroke="white"/>
<path fill-rule="evenodd" clip-rule="evenodd" d="M326.307 395.262H267.294V301.648H326.307V395.262Z" stroke="white"/>
<path fill-rule="evenodd" clip-rule="evenodd" d="M471.825 291.246H472.376L510.287 308.582H472.376H471.825H433.918L471.825 291.246Z" fill="#B7C6E0"/>
<path fill-rule="evenodd" clip-rule="evenodd" d="M471.825 291.246H472.376L510.287 308.582H472.376H471.825H433.918L471.825 291.246Z" stroke="white"/>
<path fill-rule="evenodd" clip-rule="evenodd" d="M650.875 298.18H651.192L676.91 312.049H624.84L650.875 298.18Z" fill="#B7C6E0"/>
<path fill-rule="evenodd" clip-rule="evenodd" d="M650.875 298.18H651.192L676.91 312.049H624.84L650.875 298.18Z" stroke="white"/>
<path fill-rule="evenodd" clip-rule="evenodd" d="M296.486 298.18L270.764 312.049H322.834L296.794 298.18" fill="#B7C6E0"/>
<path d="M296.486 298.18L270.764 312.049H322.834L296.794 298.18" stroke="white"/>
<path fill-rule="evenodd" clip-rule="evenodd" d="M680.383 394.107H270.765V362.902H680.383V394.107Z" stroke="white"/>
<path fill-rule="evenodd" clip-rule="evenodd" d="M461.688 395.827C461.688 401.26 466.348 405.664 472.102 405.664C477.85 405.664 482.516 401.26 482.516 395.827V380.831C482.516 375.393 477.85 370.992 472.102 370.992C466.348 370.992 461.688 375.393 461.688 380.831V395.827Z" fill="#B7C6E0"/>
<path fill-rule="evenodd" clip-rule="evenodd" d="M492.93 398.729H487.144V381.393H492.93V398.729Z" fill="#B7C6E0"/>
<path fill-rule="evenodd" clip-rule="evenodd" d="M459.373 398.729H453.587V381.393H459.373V398.729Z" fill="#B7C6E0"/>
<path fill-rule="evenodd" clip-rule="evenodd" d="M299.691 398.729H293.906V381.393H299.691V398.729Z" fill="#B7C6E0"/>
<path fill-rule="evenodd" clip-rule="evenodd" d="M652.611 398.729H646.826V381.393H652.611V398.729Z" fill="#B7C6E0"/>
<path fill-rule="evenodd" clip-rule="evenodd" d="M454.746 277.672C461.688 266.681 468.632 288.662 475.574 277.672V266.681C468.632 277.672 461.688 255.69 454.746 266.681V277.672Z" fill="#B7C6E0"/>
<path fill-rule="evenodd" clip-rule="evenodd" d="M888.662 207.672L880.844 190.697L874.777 208.033L888.662 207.672Z" fill="#B7C6E0"/>
<path fill-rule="evenodd" clip-rule="evenodd" d="M1006.69 266.615L998.869 249.639L992.802 266.975L1006.69 266.615Z" fill="#B7C6E0"/>
<path fill-rule="evenodd" clip-rule="evenodd" d="M895.605 380.238H843.535V362.902H895.605V380.238Z" fill="#B7C6E0"/>
<path fill-rule="evenodd" clip-rule="evenodd" d="M135.383 303.959H124.969V298.18H135.383V303.959Z" fill="#B7C6E0"/>
<path fill-rule="evenodd" clip-rule="evenodd" d="M27.1973 303.389V271.151H30.6813C30.353 270.534 30.1626 269.794 30.1976 268.887C30.388 263.682 33.3271 263.238 36.4719 259.864C37.8375 258.399 38.6232 256.464 39.0674 254.903C38.4437 254.678 37.9951 254.098 37.9951 253.401C37.9951 252.512 38.7238 251.791 39.6255 251.791C40.5206 251.791 41.2537 252.512 41.2537 253.401C41.2537 254.098 40.8007 254.678 40.177 254.903C40.6234 256.464 41.4069 258.399 42.7703 259.864C45.9216 263.238 48.8542 263.682 49.0489 268.887C49.084 269.794 48.8892 270.534 48.5697 271.151H52.0471V296.158H57.3147V303.456L60.3895 303.465V296.158H69.1214V303.487L72.2006 303.493V295.611H80.9391V303.513L89.6951 303.532V303.456H83.3661V294.879H89.6951V285.39H91.61C91.5968 285.167 91.5662 284.958 91.5793 284.722C91.82 278.092 95.5623 277.525 99.5715 273.222C101.311 271.361 102.307 268.902 102.876 266.913C102.082 266.63 101.508 265.879 101.508 264.993C101.508 263.859 102.441 262.939 103.587 262.939C104.732 262.939 105.662 263.859 105.662 264.993C105.662 265.879 105.091 266.63 104.294 266.913C104.861 268.902 105.859 271.361 107.597 273.222C111.608 277.525 115.348 278.092 115.598 284.722C115.602 284.958 115.574 285.167 115.563 285.39H117.009V294.879H124.334V303.456H117.009V303.595L142.846 303.656V303.456H140.137V294.879H142.846V268.599H145.155C145.08 268.184 145.037 267.749 145.054 267.266C145.295 260.844 148.917 260.299 152.801 256.13C154.482 254.33 155.449 251.944 155.999 250.023C155.228 249.743 154.677 249.018 154.677 248.159C154.677 247.062 155.576 246.172 156.686 246.172C157.797 246.172 158.695 247.062 158.695 248.159C158.695 249.018 158.145 249.743 157.373 250.023C157.92 251.944 158.89 254.33 160.57 256.13C164.457 260.299 168.079 260.844 168.313 267.266C168.333 267.749 168.289 268.184 168.215 268.599H170.526V295.838L171.773 296.275V294.879H173.294V296.81L175.185 297.474V296.067H176.708V298.011L178.601 298.673V297.253H180.122V299.206L182.013 299.87V298.439H183.536V300.405L185.429 301.071V299.625H186.95V301.604L188.841 302.266V300.812H190.366V302.803L192.441 303.532V301.861H193.964V304.065L195.809 304.714V285.39H198.218C198.216 285.276 198.196 285.172 198.203 285.051C198.4 279.648 201.451 279.187 204.718 275.683C206.136 274.166 206.95 272.155 207.414 270.534C206.764 270.298 206.298 269.699 206.298 268.978C206.298 268.054 207.055 267.305 207.987 267.305C208.922 267.305 209.681 268.054 209.681 268.978C209.681 269.699 209.213 270.298 208.565 270.534C209.027 272.155 209.843 274.166 211.257 275.683C214.527 279.187 217.575 279.648 217.776 285.051C217.779 285.172 217.761 285.276 217.759 285.39H218.693V373.909H207.051L206.298 390.884H148.796L147.641 395.262H17.3558V303.368L27.1973 303.389Z" fill="#B7C6E0"/>
<path fill-rule="evenodd" clip-rule="evenodd" d="M267.293 398.729H-3.05176e-05V343.254H267.293V398.729Z" fill="#B7C6E0"/>
<path fill-rule="evenodd" clip-rule="evenodd" d="M1090 423H0V391.795H1090V423Z" fill="#B7C6E0"/>
<path d="M236.051 343.453V357.123H197.625V336.32H42.7683V353.58H23.9198V343.453H-0.000167847" stroke="white"/>
<path fill-rule="evenodd" clip-rule="evenodd" d="M986.565 106.742C986.565 106.742 1006.12 98.4947 1028.64 113.125C1051.16 127.756 1056.85 140.266 1077.84 142.37C1098.82 144.475 1115.18 139.803 1134.47 152.675C1134.47 152.675 1112.3 181.427 1108.78 201.525C1105.26 221.623 1101.54 235.989 1095.15 243.875C1095.15 243.875 1093.24 233.392 1073.6 236.296C1053.95 239.203 1027.16 241.388 1006.28 221.754C985.401 202.117 960.656 198.446 953.338 201.186L986.565 106.742Z" fill="#B7C6E0"/>
<path fill-rule="evenodd" clip-rule="evenodd" d="M1036.02 168.249L1048.21 128.178C1042.79 123.769 1036.69 118.654 1028.24 113.243C1014.4 104.381 1001.68 103.944 993.828 104.965C1003.44 112.356 1026.93 133.386 1036.02 168.249Z" fill="#819BC8"/>
<path fill-rule="evenodd" clip-rule="evenodd" d="M1003.22 151.221C1010.5 155.548 1017.22 160.772 1023.72 165.828C1028.01 169.162 1032.2 172.412 1036.29 175.195L1051.69 130.709C1050.47 129.762 1049.25 128.771 1047.99 127.742L1035.87 167.73C1026.86 132.939 1003.53 111.95 993.982 104.577C988.946 105.231 985.916 106.49 985.916 106.49L985.314 108.185C1008.92 127.829 1023.04 161.224 1023.04 161.224L1015.66 155.784C1006.99 135.787 989.145 117.734 983.759 112.561L982.065 117.338C997.789 131.158 1011.52 153.289 1011.52 153.289C998.346 141.47 983.245 140.442 973.516 141.416L971.844 146.116C984.536 144.677 995.054 146.372 1003.22 151.221Z" fill="white"/>
<path fill-rule="evenodd" clip-rule="evenodd" d="M1006.56 169.952C992.222 158.685 975.603 159.498 966.867 161.012L960.271 179.826C981.299 170.655 1006.56 169.952 1006.56 169.952Z" fill="#819BC8"/>
<path fill-rule="evenodd" clip-rule="evenodd" d="M1012.34 153.199C1012.34 153.199 998.543 131.107 982.745 117.311L974.156 141.346C983.931 140.375 999.103 141.4 1012.34 153.199Z" fill="#819BC8"/>
<path fill-rule="evenodd" clip-rule="evenodd" d="M1072.51 181.812C1072.51 181.812 1097.92 179.6 1112.12 189.087C1116.17 179.417 1122.21 169.512 1126.9 162.461C1118.37 162.579 1094.23 164.556 1072.51 181.812Z" fill="#819BC8"/>
<path fill-rule="evenodd" clip-rule="evenodd" d="M1053.76 184.369C1059.81 185.362 1066.36 185.519 1073.3 185.685C1086.55 186.005 1100.19 186.33 1112.03 192.56C1112.4 191.585 1112.79 190.599 1113.21 189.614C1098.98 180.157 1073.51 182.362 1073.51 182.362C1095.28 165.165 1119.47 163.194 1128.01 163.076C1131.99 157.123 1135 153.212 1135 153.212C1135 153.212 1110.13 153.448 1089.57 162.51C1071.07 170.665 1058.61 180.907 1058.61 180.907L1053.6 180.614C1053.6 180.614 1067.83 168.617 1084.85 160.521C1101.94 152.391 1117.66 150.289 1129.55 149.975C1125.2 147.718 1120.98 146.277 1116.78 145.343C1076.45 151.387 1050.75 179.407 1050.75 179.407L1064.99 139.52C1064.02 139.095 1063.08 138.638 1062.16 138.149L1047.06 182.298C1049.33 183.284 1051.56 184.01 1053.76 184.369Z" fill="white"/>
<path fill-rule="evenodd" clip-rule="evenodd" d="M1116.49 145.055C1104.2 142.36 1092.12 144.003 1077.94 142.595C1072.78 142.081 1068.55 140.942 1064.76 139.307L1050.53 178.668C1050.53 178.668 1076.2 151.019 1116.49 145.055Z" fill="#819BC8"/>
<path fill-rule="evenodd" clip-rule="evenodd" d="M1093.48 202.474C1081.2 199.907 1063.26 199.506 1063.26 199.506C1063.26 199.506 1091.2 213.208 1101.87 229.606C1103.9 223.529 1105.61 216.187 1107.23 207.669C1104.21 205.748 1099.82 203.801 1093.48 202.474Z" fill="#819BC8"/>
<path fill-rule="evenodd" clip-rule="evenodd" d="M1072.64 196.471C1065.65 196.307 1058.43 196.135 1051.62 195.032C1048.71 194.562 1045.88 193.703 1043.08 192.56L1028.54 234.57C1030.28 235.118 1032.02 235.597 1033.76 235.995C1037.3 223.342 1044.41 198.162 1044.41 198.162C1044.41 198.162 1069.9 216.181 1082.28 235.585C1093.77 236.436 1095.07 243.498 1095.07 243.498C1095.31 243.198 1093.57 234.659 1081.28 222.982C1060.74 203.443 1048.38 197.269 1048.38 197.269L1058.92 198.52C1058.92 198.52 1072.26 207.495 1083.63 218.351C1092.06 226.396 1096.1 232.686 1098.86 237.525C1100.08 235.102 1101.2 232.362 1102.23 229.288C1091.52 212.922 1063.47 199.245 1063.47 199.245C1063.47 199.245 1081.49 199.647 1093.81 202.206C1100.18 203.531 1104.59 205.475 1107.62 207.394C1107.87 206.029 1108.13 204.64 1108.39 203.222C1098.56 197.092 1085.94 196.788 1072.64 196.471Z" fill="white"/>
<path fill-rule="evenodd" clip-rule="evenodd" d="M969.529 201.4C980.076 203.924 993.468 209.955 1005.57 221.376C1008.51 224.153 1011.57 226.482 1014.71 228.448L1028.54 188.937C1028.54 188.937 995.022 182.668 969.529 201.4Z" fill="#819BC8"/>
<path fill-rule="evenodd" clip-rule="evenodd" d="M1017.4 175.72C1011.19 170.852 1004.75 165.814 998.088 161.827C989.734 156.825 978.086 157.284 968.305 159.081L967.311 161.897C976.109 160.381 992.845 159.566 1007.28 170.852C1007.28 170.852 981.845 171.554 960.67 180.742L953.328 201.566C953.756 201.408 954.25 201.272 954.789 201.159L954.795 201.15C954.795 201.15 981.086 177.296 1020.01 182.304L1026.89 185.866C1026.89 185.866 992.891 180.695 963.43 201.018C965.525 201.245 967.823 201.643 970.278 202.227C995.862 183.535 1029.5 189.791 1029.5 189.791L1015.62 229.218C1016.49 229.761 1017.36 230.277 1018.25 230.764L1033.17 187.326C1027.93 183.961 1022.73 179.901 1017.4 175.72Z" fill="white"/>
<path fill-rule="evenodd" clip-rule="evenodd" d="M1033.17 235.841C1047.15 239.007 1061.35 237.553 1073.02 235.846C1076.45 235.343 1079.34 235.256 1081.77 235.433C1068.34 212.451 1044.21 197.191 1044.21 197.191C1044.21 197.191 1036.72 223.206 1033.17 235.841Z" fill="#819BC8"/>
<path opacity="0.1" fill-rule="evenodd" clip-rule="evenodd" d="M996.142 104.577C990.06 105.121 986.32 106.7 986.32 106.7L953.328 200.664C955.589 199.818 959.525 199.587 964.5 200.259C974.547 168.199 986.873 136.882 996.142 104.577Z" fill="#212D5F"/>
<path opacity="0.1" fill-rule="evenodd" clip-rule="evenodd" d="M1026.23 111.695C1021.03 108.67 1016.02 106.815 1011.4 105.734C1009.47 110.594 991.817 164.979 985.263 187.374C983.569 193.168 981.71 198.93 979.943 204.715C982.039 205.548 984.188 206.518 986.361 207.61C993.618 192.398 1019.31 128.05 1026.23 111.695Z" fill="#212D5F"/>
<path opacity="0.1" fill-rule="evenodd" clip-rule="evenodd" d="M1109.03 201.351C1112.59 181.35 1135 152.736 1135 152.736C1134 152.079 1133 151.469 1132.01 150.898C1131.08 150.36 1119.62 165.227 1118.53 166.72C1114.48 172.254 1110.82 178.118 1107.69 184.193C1103.94 191.45 1100.94 199.1 1099.18 207.063C1098.29 211.084 1097.65 215.149 1096.84 219.184C1095.55 225.609 1093.82 232.163 1089.87 237.449C1094.57 239.831 1095.25 243.498 1095.25 243.498C1101.72 235.65 1105.48 221.355 1109.03 201.351Z" fill="#212D5F"/>
<path opacity="0.1" fill-rule="evenodd" clip-rule="evenodd" d="M1129.21 158.988C1125.89 162.399 1122.44 165.715 1119.36 169.329C1112.69 177.156 1108.36 186.539 1105.54 196.339C1104.09 201.375 1103.06 206.516 1102.37 211.705C1101.77 216.217 1101.54 220.769 1100.84 225.268C1100.2 229.408 1099.34 233.657 1097.97 237.71C1102.37 229.408 1105.34 217.048 1108.18 200.991C1110.67 186.923 1122.47 168.583 1129.21 158.988Z" fill="#212D5F"/>
<path opacity="0.1" fill-rule="evenodd" clip-rule="evenodd" d="M1122.27 147.411C1120.56 147.629 1118.85 147.939 1117.18 148.366C1098.65 153.051 1084.36 167.631 1076.84 184.859C1072.61 194.573 1070.25 205.542 1071.87 216.14C1072.9 222.875 1075.27 229.205 1078 235.394C1078.14 235.385 1078.28 235.374 1078.4 235.367C1077.71 229.035 1077.59 222.639 1078.11 216.286C1079.43 200.326 1084.62 184.58 1094.03 171.562C1101.45 161.294 1111.16 153.137 1122.27 147.411Z" fill="#212D5F"/>
<path fill-rule="evenodd" clip-rule="evenodd" d="M893.084 371.861C892.229 371.5 891.79 370.53 892.099 369.642L984.599 102.301C984.919 101.372 985.929 100.88 986.854 101.203C987.761 101.534 988.267 102.538 987.946 103.464L895.45 370.803C895.126 371.73 894.117 372.224 893.192 371.901C893.154 371.89 893.12 371.874 893.084 371.861Z" fill="#B7C6E0"/>
<path fill-rule="evenodd" clip-rule="evenodd" d="M987.946 103.464C988.267 102.537 987.761 101.534 986.854 101.202C985.929 100.88 984.916 101.374 984.597 102.301L983.13 106.535C983.377 106.506 983.629 106.526 983.872 106.612C984.75 106.932 985.241 107.906 984.93 108.811L894.699 369.208C894.386 370.112 893.407 370.59 892.512 370.279C892.478 370.268 892.444 370.256 892.408 370.241C892.262 370.18 892.133 370.092 892.014 370.001C891.915 370.779 892.341 371.548 893.085 371.86C893.119 371.873 893.153 371.889 893.191 371.9C894.118 372.225 895.127 371.731 895.449 370.804L987.946 103.464Z" fill="#B7C6E0"/>
<path fill-rule="evenodd" clip-rule="evenodd" d="M992.871 101.995C991.635 104.938 988.247 106.32 985.308 105.083C982.364 103.845 980.98 100.457 982.221 97.5122C983.456 94.5694 986.844 93.1871 989.786 94.4258C992.73 95.6622 994.109 99.0519 992.871 101.995Z" fill="#9DB2D7"/>
<path fill-rule="evenodd" clip-rule="evenodd" d="M990.087 100.133C989.34 101.902 987.308 102.732 985.542 101.99C983.776 101.245 982.943 99.2099 983.685 97.4429C984.43 95.676 986.466 94.8435 988.23 95.5882C989.996 96.3306 990.826 98.3679 990.087 100.133Z" fill="#B7C6E0"/>
<path fill-rule="evenodd" clip-rule="evenodd" d="M893.375 369.654C893.203 369.584 893.115 369.39 893.176 369.212L983.874 108.289C983.94 108.104 984.144 108.004 984.329 108.07C984.512 108.129 984.616 108.336 984.551 108.522L893.85 369.442C893.784 369.629 893.583 369.729 893.395 369.666C893.391 369.661 893.384 369.661 893.375 369.654Z" fill="#819BC8"/>
<path fill-rule="evenodd" clip-rule="evenodd" d="M839.137 312.218C839.137 313.333 838.235 314.228 837.122 314.228C836.008 314.228 835.104 313.333 835.104 312.218C835.104 311.107 836.008 310.211 837.122 310.211C838.235 310.211 839.137 311.107 839.137 312.218Z" fill="#4A4B4E"/>
<path fill-rule="evenodd" clip-rule="evenodd" d="M844.283 312.218C844.283 313.333 843.382 314.228 842.268 314.228C841.155 314.228 840.25 313.333 840.25 312.218C840.25 311.107 841.155 310.211 842.268 310.211C843.382 310.211 844.283 311.107 844.283 312.218Z" fill="#4A4B4E"/>
<path fill-rule="evenodd" clip-rule="evenodd" d="M849.432 312.218C849.432 313.333 848.534 314.228 847.417 314.228C846.304 314.228 845.402 313.333 845.402 312.218C845.402 311.107 846.304 310.211 847.417 310.211C848.534 310.211 849.432 311.107 849.432 312.218Z" fill="#4A4B4E"/>
<path fill-rule="evenodd" clip-rule="evenodd" d="M839.137 317.078C839.137 318.186 838.235 319.085 837.122 319.085C836.008 319.085 835.104 318.186 835.104 317.078C835.104 315.967 836.008 315.064 837.122 315.064C838.235 315.064 839.137 315.967 839.137 317.078Z" fill="#4A4B4E"/>
<path fill-rule="evenodd" clip-rule="evenodd" d="M844.283 317.078C844.283 318.186 843.382 319.085 842.268 319.085C841.155 319.085 840.25 318.186 840.25 317.078C840.25 315.967 841.155 315.064 842.268 315.064C843.382 315.064 844.283 315.967 844.283 317.078Z" fill="#4A4B4E"/>
<path fill-rule="evenodd" clip-rule="evenodd" d="M849.432 317.078C849.432 318.186 848.534 319.085 847.417 319.085C846.304 319.085 845.402 318.186 845.402 317.078C845.402 315.967 846.304 315.064 847.417 315.064C848.534 315.064 849.432 315.967 849.432 317.078Z" fill="#4A4B4E"/>
<path fill-rule="evenodd" clip-rule="evenodd" d="M839.137 321.932C839.137 323.039 838.235 323.946 837.122 323.946C836.008 323.946 835.104 323.039 835.104 321.932C835.104 320.821 836.008 319.921 837.122 319.921C838.235 319.921 839.137 320.821 839.137 321.932Z" fill="#4A4B4E"/>
<path fill-rule="evenodd" clip-rule="evenodd" d="M844.283 321.932C844.283 323.039 843.382 323.946 842.268 323.946C841.155 323.946 840.25 323.039 840.25 321.932C840.25 320.821 841.155 319.921 842.268 319.921C843.382 319.921 844.283 320.821 844.283 321.932Z" fill="#4A4B4E"/>
<path fill-rule="evenodd" clip-rule="evenodd" d="M849.432 321.932C849.432 323.039 848.534 323.946 847.417 323.946C846.304 323.946 845.402 323.039 845.402 321.932C845.402 320.821 846.304 319.921 847.417 319.921C848.534 319.921 849.432 320.821 849.432 321.932Z" fill="#4A4B4E"/>
<path fill-rule="evenodd" clip-rule="evenodd" d="M839.137 326.785C839.137 327.896 838.235 328.799 837.122 328.799C836.008 328.799 835.104 327.896 835.104 326.785C835.104 325.674 836.008 324.774 837.122 324.774C838.235 324.774 839.137 325.674 839.137 326.785Z" fill="#4A4B4E"/>
<path fill-rule="evenodd" clip-rule="evenodd" d="M844.283 326.785C844.283 327.896 843.382 328.799 842.268 328.799C841.155 328.799 840.25 327.896 840.25 326.785C840.25 325.674 841.155 324.774 842.268 324.774C843.382 324.774 844.283 325.674 844.283 326.785Z" fill="#4A4B4E"/>
<path fill-rule="evenodd" clip-rule="evenodd" d="M849.432 326.785C849.432 327.896 848.534 328.799 847.417 328.799C846.304 328.799 845.402 327.896 845.402 326.785C845.402 325.674 846.304 324.774 847.417 324.774C848.534 324.774 849.432 325.674 849.432 326.785Z" fill="#4A4B4E"/>
<mask id="mask0" mask-type="alpha" maskUnits="userSpaceOnUse" x="792" y="165" width="139" height="308">
<path fill-rule="evenodd" clip-rule="evenodd" d="M792 473H930.965V165.587H792V473Z" fill="white"/>
</mask>
<g mask="url(#mask0)">
<path fill-rule="evenodd" clip-rule="evenodd" d="M809.049 428.74H913.919V236.724H809.049V428.74Z" fill="#CAD8F1"/>
<path fill-rule="evenodd" clip-rule="evenodd" d="M816.395 415.09H906.577V249.959H816.395V415.09ZM809.053 428.74H913.923V236.724H809.053V428.74Z" fill="#2A5480"/>
<path opacity="0.19" fill-rule="evenodd" clip-rule="evenodd" d="M848.723 236.727H809.051V266.278C821.989 256.063 835.326 246.359 848.723 236.727Z" fill="#212D5F"/>
<path opacity="0.191123" fill-rule="evenodd" clip-rule="evenodd" d="M828.965 290.503C838.173 283.255 847.329 275.932 856.838 269.082C866.958 261.791 877.252 254.765 887.655 247.877C893.304 244.138 899.006 240.459 904.676 236.727H891.363C874.993 248.236 858.393 259.418 842.037 270.938C831.941 278.049 822.036 285.417 812.011 292.62C811.032 293.321 810.043 294.013 809.053 294.708V305.73C815.801 300.806 822.404 295.671 828.965 290.503Z" fill="#212D5F"/>
<path opacity="0.191123" fill-rule="evenodd" clip-rule="evenodd" d="M913.921 395.345V387.222C894.868 400.823 875.949 414.608 857.295 428.741H868.013C882.923 417.087 898.318 406.068 913.921 395.345Z" fill="#212D5F"/>
<path opacity="0.191123" fill-rule="evenodd" clip-rule="evenodd" d="M857.486 385.863C875.981 371.771 894.921 358.382 913.921 344.996V313.512C904.009 320.468 894.012 327.3 884.03 334.136C874.288 340.816 815.304 385.538 809.051 390.286V423.336C825.11 410.737 841.25 398.236 857.486 385.863Z" fill="#212D5F"/>
<path fill-rule="evenodd" clip-rule="evenodd" d="M796.408 467.628H926.564V435.047H796.408V467.628Z" fill="#A40014"/>
<path fill-rule="evenodd" clip-rule="evenodd" d="M800.324 231.663H922.646V199.562H800.324V231.663Z" fill="#212D5F"/>
<path fill-rule="evenodd" clip-rule="evenodd" d="M926.562 222.118V181.206C912.054 171.943 888.487 165.809 861.83 165.594C834.901 165.376 811.03 171.245 796.406 180.426V222.118H926.562Z" fill="#CAD8F1"/>
<path fill-rule="evenodd" clip-rule="evenodd" d="M923.119 219.455V185.322C909.379 177.601 887.056 172.48 861.806 172.296C836.305 172.116 813.692 177.016 799.85 184.677V219.455H923.119Z" fill="#819BC8"/>
<path fill-rule="evenodd" clip-rule="evenodd" d="M920.763 218.436V186.349C907.549 179.086 886.078 174.272 861.804 174.106C837.271 173.933 815.525 178.536 802.205 185.735V218.436H920.763Z" fill="#CAD8F1"/>
<path fill-rule="evenodd" clip-rule="evenodd" d="M888.928 425.993H911.523V397.432H888.928V425.993ZM812.079 425.993H834.67V397.432H812.079V425.993ZM812.079 267.919H834.67V239.363H812.079V267.919ZM888.928 299.538H911.523V270.981H888.928V299.538ZM888.928 331.149H911.523V302.589H888.928V331.149ZM888.928 362.763H911.523V334.203H888.928V362.763ZM888.928 394.378H911.523V365.818H888.928V394.378ZM863.317 394.378H885.905V365.818H863.317V394.378ZM863.317 425.993H885.905V397.432H863.317V425.993ZM837.693 425.993H860.284V397.432H837.693V425.993ZM837.693 394.378H860.284V365.818H837.693V394.378ZM812.079 394.378H834.67V365.818H812.079V394.378ZM812.079 362.763H834.67V334.203H812.079V362.763ZM812.079 331.149H834.67V302.589H812.079V331.149ZM812.079 299.534H834.67V270.978H812.079V299.534ZM837.693 299.534H860.284V270.978H837.693V299.534ZM837.693 267.919H860.284V239.363H837.693V267.919ZM863.317 267.923H885.905V239.366H863.317V267.923ZM863.317 299.538H885.905V270.981H863.317V299.538ZM863.317 331.149H885.905V302.589H863.317V331.149ZM863.317 362.763H885.905V334.203H863.317V362.763ZM837.693 331.149H860.284V302.589H837.693V331.149ZM837.693 362.763H860.284V334.203H837.693V362.763ZM888.928 267.919H911.523V239.363H888.928V267.919ZM913.039 236.308H810.566H809.053V429.047H810.566H913.039H914.552V236.308H913.039Z" fill="#212D5F"/>
<path fill-rule="evenodd" clip-rule="evenodd" d="M809.049 428.74H913.919V236.724H809.049V428.74ZM796.408 467.632H926.564V224.21H796.408V467.632Z" fill="#CAD8F1"/>
<path fill-rule="evenodd" clip-rule="evenodd" d="M796.408 467.632H926.564V462.644H796.408V467.632Z" fill="#819BC8"/>
<path fill-rule="evenodd" clip-rule="evenodd" d="M889.252 427.192H912.37V398.283H889.252V427.192ZM810.6 427.192H833.718V398.283H810.6V427.192ZM810.6 267.182H833.718V238.269H810.6V267.182ZM889.252 299.181H912.37V270.272H889.252V299.181ZM889.252 331.187H912.37V302.278H889.252V331.187ZM889.252 363.187H912.37V334.277H889.252V363.187ZM889.252 395.193H912.37V366.28H889.252V395.193ZM863.033 395.193H886.152V366.28H863.033V395.193ZM863.033 427.192H886.152V398.283H863.033V427.192ZM836.815 427.195H859.933V398.286H836.815V427.195ZM836.815 395.193H859.933V366.28H836.815V395.193ZM810.6 395.193H833.718V366.28H810.6V395.193ZM810.6 363.187H833.718V334.277H810.6V363.187ZM810.6 331.187H833.718V302.278H810.6V331.187ZM810.6 299.185H833.718V270.276H810.6V299.185ZM836.815 299.185H859.933V270.276H836.815V299.185ZM836.815 267.182H859.933V238.269H836.815V267.182ZM863.033 267.182H886.152V238.269H863.033V267.182ZM863.033 299.181H886.152V270.272H863.033V299.181ZM863.033 331.187H886.152V302.278H863.033V331.187ZM863.033 363.187H886.152V334.277H863.033V363.187ZM836.815 331.187H859.933V302.278H836.815V331.187ZM836.815 363.187H859.933V334.277H836.815V363.187ZM889.248 267.182H912.367V238.269H889.248V267.182ZM913.919 235.18H809.052H807.5V430.289H809.052H913.919H915.463V235.18H913.919Z" fill="#212D5F"/>
<path fill-rule="evenodd" clip-rule="evenodd" d="M804.302 433.957H918.667V231.511H804.302V433.957ZM800.428 437.819H922.545V227.642H800.428V437.819Z" fill="#819BC8"/>
<path fill-rule="evenodd" clip-rule="evenodd" d="M792 473H930.965V465.868H792V473Z" fill="#212D5F"/>
<path fill-rule="evenodd" clip-rule="evenodd" d="M805.631 215.819H916.829V198.038H805.631V215.819Z" fill="#B7C6E0"/>
<path fill-rule="evenodd" clip-rule="evenodd" d="M805.631 215.819H916.829V198.038H805.631V215.819Z" stroke="#212D5F" stroke-width="1.122"/>
<path fill-rule="evenodd" clip-rule="evenodd" d="M815.552 202.157H811.617V201.183H820.561V202.157H816.623V212.672H815.552V202.157Z" fill="#212D5F"/>
<path fill-rule="evenodd" clip-rule="evenodd" d="M823.145 201.182H830.19V202.156H824.219V206.244H829.815V207.221H824.219V211.693H830.448V212.674H823.145V201.182Z" fill="#212D5F"/>
<path fill-rule="evenodd" clip-rule="evenodd" d="M833.604 201.182H834.678V211.693H840.041V212.674H833.604V201.182Z" fill="#212D5F"/>
<path fill-rule="evenodd" clip-rule="evenodd" d="M842.543 201.182H849.585V202.156H843.618V206.244H849.21V207.221H843.618V211.693H849.846V212.674H842.543V201.182Z" fill="#212D5F"/>
<path fill-rule="evenodd" clip-rule="evenodd" d="M854.071 206.242H856.51C856.818 206.242 857.111 206.21 857.408 206.14C857.698 206.069 857.959 205.953 858.189 205.798C858.415 205.642 858.599 205.434 858.737 205.177C858.879 204.916 858.953 204.595 858.953 204.217C858.953 203.847 858.875 203.533 858.73 203.276C858.585 203.018 858.398 202.799 858.165 202.637C857.931 202.468 857.659 202.348 857.359 202.27C857.051 202.196 856.751 202.158 856.447 202.158H854.071V206.242ZM853 201.18H856.319C856.719 201.18 857.139 201.226 857.578 201.318C858.016 201.417 858.415 201.572 858.78 201.798C859.144 202.031 859.441 202.341 859.677 202.732C859.907 203.128 860.024 203.621 860.024 204.217C860.024 204.736 859.928 205.184 859.741 205.565C859.547 205.946 859.296 206.253 858.974 206.5C858.659 206.743 858.288 206.919 857.871 207.043C857.454 207.163 857.016 207.219 856.56 207.219H854.071V212.672H853V201.18Z" fill="#212D5F"/>
<path fill-rule="evenodd" clip-rule="evenodd" d="M863.146 201.182H864.221V206.244H870.658V201.182H871.729V212.674H870.658V207.221H864.221V212.674H863.146V201.182Z" fill="#212D5F"/>
<path fill-rule="evenodd" clip-rule="evenodd" d="M876.024 206.928C876.024 207.64 876.141 208.31 876.367 208.924C876.597 209.538 876.922 210.078 877.343 210.529C877.767 210.984 878.279 211.34 878.88 211.598C879.481 211.859 880.157 211.989 880.906 211.989C881.652 211.989 882.327 211.859 882.931 211.598C883.529 211.34 884.045 210.984 884.462 210.529C884.886 210.078 885.211 209.538 885.445 208.924C885.671 208.31 885.781 207.64 885.781 206.928C885.781 206.215 885.671 205.545 885.445 204.931C885.211 204.314 884.886 203.781 884.462 203.326C884.045 202.875 883.529 202.515 882.931 202.258C882.327 201.993 881.652 201.863 880.906 201.863C880.157 201.863 879.481 201.993 878.88 202.258C878.279 202.515 877.767 202.875 877.343 203.326C876.922 203.781 876.597 204.314 876.367 204.931C876.141 205.545 876.024 206.215 876.024 206.928ZM874.953 206.928C874.953 206.05 875.098 205.245 875.391 204.508C875.685 203.771 876.095 203.14 876.615 202.6C877.127 202.067 877.756 201.651 878.495 201.344C879.223 201.044 880.026 200.889 880.906 200.889C881.783 200.889 882.589 201.044 883.32 201.344C884.052 201.651 884.678 202.067 885.197 202.6C885.72 203.14 886.127 203.771 886.417 204.508C886.71 205.245 886.855 206.05 886.855 206.928C886.855 207.803 886.71 208.614 886.417 209.351C886.127 210.092 885.72 210.734 885.197 211.266C884.678 211.802 884.052 212.219 883.32 212.515C882.589 212.815 881.783 212.963 880.906 212.963C880.026 212.963 879.223 212.815 878.495 212.515C877.756 212.219 877.127 211.802 876.615 211.266C876.095 210.734 875.685 210.092 875.391 209.351C875.098 208.614 874.953 207.803 874.953 206.928Z" fill="#212D5F"/>
<path fill-rule="evenodd" clip-rule="evenodd" d="M890.074 201.182H891.456L898.47 211.242H898.498V201.182H899.573V212.674H898.19L891.181 202.611H891.152V212.674H890.074V201.182Z" fill="#212D5F"/>
<path fill-rule="evenodd" clip-rule="evenodd" d="M903.539 201.182H910.577V202.156H904.61V206.244H910.206V207.221H904.61V211.693H910.842V212.674H903.539V201.182Z" fill="#212D5F"/>
<path fill-rule="evenodd" clip-rule="evenodd" d="M797.732 181.386C797.732 181.386 829.504 157.609 896.728 170.561C896.728 170.561 843.255 159.93 797.732 181.386Z" fill="#B7C6E0"/>
<path fill-rule="evenodd" clip-rule="evenodd" d="M800.428 439.153H922.545V437.685H800.428V439.153Z" fill="#819BC8"/>
<path fill-rule="evenodd" clip-rule="evenodd" d="M800.426 437.686V227.643H920.761L802.204 229.135L800.426 438.424V437.686Z" fill="#C60019"/>
<path fill-rule="evenodd" clip-rule="evenodd" d="M800.426 437.686V227.643H920.761L802.204 229.135L800.426 438.424V437.686Z" fill="#819BC8"/>
<path fill-rule="evenodd" clip-rule="evenodd" d="M802.205 459.974H920.763V442.705H802.205V459.974Z" fill="#819BC8"/>
</g>
<path fill-rule="evenodd" clip-rule="evenodd" d="M778.488 423.327C778.312 421.754 777.925 401.164 778.429 356.684C778.595 342.116 769.554 328.768 755.931 323.487C736.994 316.126 718.985 308.073 712.027 304.904L688.914 202.175H704.328L701.079 188.334C699.109 179.938 691.609 174 682.974 174H678.502H560.332H121.255C118.351 174 116 176.36 116 179.248V424.595C116 425.991 116.553 427.33 117.539 428.316C118.527 429.29 119.855 429.842 121.255 429.842H121.266C138.498 429.807 183.12 429.772 205.053 429.737C240.834 429.689 281.931 429.643 325.317 429.584C406.931 429.502 496.62 429.431 574.155 429.431C619.846 429.431 661.317 429.455 694.418 429.502C739.757 429.584 769.401 429.712 772.717 429.925H772.775C772.987 429.948 773.199 429.96 773.422 429.96C775.137 429.96 776.772 429.115 777.759 427.67C778.641 426.38 778.889 424.795 778.488 423.327Z" fill="#CAD8F1"/>
<path fill-rule="evenodd" clip-rule="evenodd" d="M583.547 211.143H666.124L685.404 296.838H583.547V211.143Z" fill="#819BC8"/>
<path fill-rule="evenodd" clip-rule="evenodd" d="M475.697 296.838H567.385V211.142H475.697V296.838Z" fill="#819BC8"/>
<path fill-rule="evenodd" clip-rule="evenodd" d="M365.074 296.838H456.762V211.142H365.074V296.838Z" fill="#819BC8"/>
<path fill-rule="evenodd" clip-rule="evenodd" d="M254.455 296.838H346.143V211.142H254.455V296.838Z" fill="#819BC8"/>
<path fill-rule="evenodd" clip-rule="evenodd" d="M143.834 296.838H235.522V211.142H143.834V296.838Z" fill="#EDECEB"/>
<path fill-rule="evenodd" clip-rule="evenodd" d="M716.564 392.799H784.365V421.973C784.365 430.18 777.703 436.834 769.485 436.834H716.564V392.799Z" fill="#212D5F"/>
<path fill-rule="evenodd" clip-rule="evenodd" d="M574.143 428.903C574.143 429.079 574.143 429.255 574.155 429.431C619.845 429.431 661.316 429.455 694.418 429.502C694.431 429.303 694.431 429.103 694.431 428.903C694.431 395.788 667.452 368.835 634.281 368.835C601.12 368.835 574.143 395.788 574.143 428.903Z" fill="#819BC8"/>
<path fill-rule="evenodd" clip-rule="evenodd" d="M205.043 428.903C205.043 429.185 205.043 429.455 205.055 429.736C240.836 429.69 281.932 429.643 325.318 429.584C325.33 429.361 325.33 429.126 325.33 428.903C325.33 395.788 298.352 368.835 265.18 368.835C232.021 368.835 205.043 395.788 205.043 428.903Z" fill="#819BC8"/>
<path fill-rule="evenodd" clip-rule="evenodd" d="M634.285 380.577C661.01 380.577 682.676 402.213 682.676 428.904C682.676 455.592 661.01 477.229 634.285 477.229C607.559 477.229 585.895 455.592 585.895 428.904C585.895 402.213 607.559 380.577 634.285 380.577Z" fill="#212D5F"/>
<path fill-rule="evenodd" clip-rule="evenodd" d="M634.284 399.912C650.318 399.912 663.315 412.891 663.315 428.904C663.315 444.915 650.318 457.895 634.284 457.895C618.251 457.895 605.254 444.915 605.254 428.904C605.254 412.891 618.251 399.912 634.284 399.912Z" fill="white"/>
<path fill-rule="evenodd" clip-rule="evenodd" d="M634.284 414.77C642.1 414.77 648.437 421.097 648.437 428.903C648.437 436.708 642.1 443.037 634.284 443.037C626.468 443.037 620.131 436.708 620.131 428.903C620.131 421.097 626.468 414.77 634.284 414.77Z" fill="#212D5F"/>
<path fill-rule="evenodd" clip-rule="evenodd" d="M265.184 380.577C291.91 380.577 313.575 402.213 313.575 428.904C313.575 455.592 291.91 477.229 265.184 477.229C238.458 477.229 216.793 455.592 216.793 428.904C216.793 402.213 238.458 380.577 265.184 380.577Z" fill="#212D5F"/>
<path fill-rule="evenodd" clip-rule="evenodd" d="M265.185 399.912C281.218 399.912 294.215 412.891 294.215 428.904C294.215 444.915 281.218 457.895 265.185 457.895C249.151 457.895 236.154 444.915 236.154 428.904C236.154 412.891 249.151 399.912 265.185 399.912Z" fill="white"/>
<path fill-rule="evenodd" clip-rule="evenodd" d="M265.184 414.77C273.001 414.77 279.338 421.097 279.338 428.903C279.338 436.708 273.001 443.037 265.184 443.037C257.368 443.037 251.031 436.708 251.031 428.903C251.031 421.097 257.368 414.77 265.184 414.77Z" fill="#212D5F"/>
<path fill-rule="evenodd" clip-rule="evenodd" d="M116 324.361H702.389V308.731H116V324.361Z" fill="#212D5F"/>
<path fill-rule="evenodd" clip-rule="evenodd" d="M116 361.603H702.389V356.132H116V361.603Z" fill="#212D5F"/>
<path fill-rule="evenodd" clip-rule="evenodd" d="M370.201 344.634C370.383 346.319 371.075 347.792 372.942 347.792C374.719 347.792 375.382 346.679 375.382 345.145C375.382 343.492 374.567 342.499 372.009 341.296C368.515 339.643 367.131 338.169 367.131 335.132C367.131 331.884 369.238 329.659 372.912 329.659C377.519 329.659 378.633 332.756 378.694 335.402H375.11C375.02 334.23 374.719 332.516 372.851 332.516C371.406 332.516 370.774 333.448 370.774 334.831C370.774 336.304 371.435 336.996 373.815 338.108C377.46 339.794 379.115 341.416 379.115 344.815C379.115 348.033 377.128 350.679 372.822 350.679C368.124 350.679 366.708 347.672 366.588 344.634H370.201Z" fill="#212D5F"/>
<path fill-rule="evenodd" clip-rule="evenodd" d="M393.627 344.394C393.538 345.417 393.146 350.679 387.516 350.679C381.703 350.679 381.041 345.597 381.041 340.124C381.041 333.538 382.968 329.659 387.725 329.659C393.115 329.659 393.538 334.289 393.627 335.914H390.013C389.953 335.222 389.924 332.726 387.666 332.726C385.377 332.726 384.805 335.522 384.805 340.183C384.805 344.033 385.196 347.642 387.575 347.642C389.744 347.642 389.924 345.177 390.013 344.394H393.627Z" fill="#212D5F"/>
<path fill-rule="evenodd" clip-rule="evenodd" d="M395.916 329.959H399.558V338.019H404.468V329.959H408.142V350.318H404.468V341.177H399.558V350.318H395.916V329.959Z" fill="#212D5F"/>
<path fill-rule="evenodd" clip-rule="evenodd" d="M414.734 339.913C414.734 344.754 415.486 347.611 417.625 347.611C419.883 347.611 420.515 344.966 420.515 339.913C420.515 335.192 419.822 332.726 417.625 332.726C415.427 332.726 414.734 335.372 414.734 339.913ZM424.249 340.003C424.249 347.431 422.233 350.679 417.534 350.679C413.138 350.679 411 347.491 411 339.943C411 332.606 413.5 329.658 417.685 329.658C422.142 329.658 424.249 332.936 424.249 340.003Z" fill="#212D5F"/>
<path fill-rule="evenodd" clip-rule="evenodd" d="M430.3 339.913C430.3 344.754 431.053 347.611 433.19 347.611C435.45 347.611 436.082 344.966 436.082 339.913C436.082 335.192 435.388 332.726 433.19 332.726C430.992 332.726 430.3 335.372 430.3 339.913ZM439.816 340.003C439.816 347.431 437.798 350.679 433.1 350.679C428.704 350.679 426.566 347.491 426.566 339.943C426.566 332.606 429.065 329.658 433.252 329.658C437.707 329.658 439.816 332.936 439.816 340.003Z" fill="#212D5F"/>
<path fill-rule="evenodd" clip-rule="evenodd" d="M442.674 329.959H446.317V347.221H453.304L452.941 350.318H442.674V329.959Z" fill="#212D5F"/>
<path fill-rule="evenodd" clip-rule="evenodd" d="M464.292 347.491H466.46C468.266 347.491 469.321 346.559 469.321 344.273C469.321 342.169 468.447 340.936 466.067 340.936H464.292V347.491ZM466.038 338.079C468.296 338.079 468.898 337.207 468.898 335.463C468.898 333.688 467.965 332.876 466.157 332.876H464.292V338.079H466.038ZM460.707 329.959H466.911C470.464 329.959 472.391 331.913 472.391 335.131C472.391 337.688 471.186 338.95 470.043 339.372C471.489 339.943 472.994 341.267 472.994 344.335C472.994 348.214 470.464 350.318 466.851 350.318H460.707V329.959Z" fill="#212D5F"/>
<path fill-rule="evenodd" clip-rule="evenodd" d="M479.045 329.959V343.973C479.045 345.627 479.467 347.612 481.724 347.612C483.893 347.612 484.345 345.958 484.345 344.003V329.959H487.989V344.063C487.989 347.702 486.574 350.679 481.665 350.679C476.817 350.679 475.402 347.882 475.402 344.063V329.959H479.045Z" fill="#212D5F"/>
<path fill-rule="evenodd" clip-rule="evenodd" d="M493.768 344.634C493.95 346.319 494.642 347.792 496.509 347.792C498.285 347.792 498.949 346.679 498.949 345.145C498.949 343.492 498.134 342.499 495.576 341.296C492.081 339.643 490.697 338.169 490.697 335.132C490.697 331.884 492.805 329.659 496.479 329.659C501.085 329.659 502.2 332.756 502.26 335.402H498.677C498.586 334.23 498.285 332.516 496.418 332.516C494.973 332.516 494.341 333.448 494.341 334.831C494.341 336.304 495.003 336.996 497.381 338.108C501.026 339.794 502.681 341.416 502.681 344.815C502.681 348.033 500.694 350.679 496.388 350.679C491.69 350.679 490.275 347.672 490.154 344.634H493.768Z" fill="#212D5F"/>
<path fill-rule="evenodd" clip-rule="evenodd" d="M528.387 399.012H548.642V390.343H528.387V399.012Z" fill="#819BC8"/>
<path fill-rule="evenodd" clip-rule="evenodd" d="M338.182 399.012H358.437V390.343H338.182V399.012Z" fill="#819BC8"/>
<path fill-rule="evenodd" clip-rule="evenodd" d="M166.494 399.012H186.749V390.343H166.494V399.012Z" fill="#819BC8"/>
</g>
</svg>
