<svg width="1184" height="430" viewBox="0 0 1184 430" fill="none" xmlns="http://www.w3.org/2000/svg">
<path fill-rule="evenodd" clip-rule="evenodd" d="M871.307 87V115.252L859.894 115.173V107.399H856.256V115.148L827.565 114.946V179.054L780 209.844V360H827.565H847.067H893.138H894.627H955.763H957.599H1027V140.637H1020.24V124.645L993.628 110.442L966.703 124.645V140.637H955.763V197.765H938.952V191.198H931.328V178.318L917.752 168.119L904.174 178.318V197.765H894.627V115.415L883.313 115.336V103.488H879.678V115.311L874.942 115.279V87H871.307Z" fill="#DAE7FF"/>
<path fill-rule="evenodd" clip-rule="evenodd" d="M584.24 50V66.5437L574.366 66.3853V127.532H568.301V116.761H560.288V103.459L542.027 89.7905L523.764 103.459V116.761H515.75V127.532H503.896V225.543L475.189 225.441V140.309L446.351 140.144V130.106H442.348V140.121L420.575 139.994V130.106H416.571V139.969L401.327 139.881V161.26H373.279V123.684H289.929V161.26H278.112V209.597H232.187V168.76L170 108.772V360H232.187H278.112H280.621H401.327H405.161H465.098H475.189H503.896H538.961H574.366H580.155H619.436H620.506H667.431H670.402H753V61.0767L667.431 81.5707V130.631H662.66V115.027H658.815V104.84H652.508V96.5411H649.598V104.84H638.66V89.0253H635.748V104.84H631.02V115.027H627.178V130.631H620.506V67.1232L610.75 66.967V55.0165H607.84V66.9218L587.15 66.5913V50H584.24Z" fill="#DAE7FF"/>
<path fill-rule="evenodd" clip-rule="evenodd" d="M433 139H437V127H433V139Z" fill="#DAE7FF"/>
<path fill-rule="evenodd" clip-rule="evenodd" d="M101 139H105V127H101V139Z" fill="#DAE7FF"/>
<path fill-rule="evenodd" clip-rule="evenodd" d="M109.252 130V140.101L87.5391 140.031V130H83.5468V140.017L11 139.78V360H142V140.208L113.242 140.115V130H109.252Z" fill="#DAE7FF"/>
<path fill-rule="evenodd" clip-rule="evenodd" d="M591 66H594V45H591V66Z" fill="#DAE7FF"/>
<path fill-rule="evenodd" clip-rule="evenodd" d="M1051.15 95V104.616L1042 104.132V360H1118.5H1121.1H1184V202.605H1174.59V181.361H1168.8V166.909H1163.07V144.479H1159.32V166.909H1145.25V155.138H1141.51V166.909H1133.4V181.361H1128.46V202.605H1121.1V108.323L1075.37 105.899V99.1913H1068.03V105.51L1058.48 105.005V95H1051.15Z" fill="#DAE7FF"/>
<path fill-rule="evenodd" clip-rule="evenodd" d="M630.237 88V122.387H614.322V144.355H605.772V242.144H581.685V193.897H541.935V242.144H536.379V174.424L469.183 218.055V270.773L434.917 258.502V237.641H430.069V225.411H422.653V215.541L400.227 197.026L377.803 215.541V225.411H365.537V237.641H355.885V166.864L288.001 165.931V210.617H281.112V197.452H252.195V210.617H242.244V219.318H230.417V285.152L220.536 284.829V264.438L204.318 250.449L188.096 264.438V283.769L186.641 283.724V275.883L177.538 275.623V251.296L115 249.389V273.825V328.912V359.722H174.938H186.641H230.417H230.971H288.001H293.528H341.271V360H434.917V359.722H469.183V359.78H521.741H536.379H605.772H611.473H618.835H659.416H699.999V359.762H720.956H743.977H759.919H766.998H800.074H806.956H849.096H855.422H895.138V359.71H971.823H974.704H1043V282.562L1033.96 282.322V259.935L974.704 258.264V238.97H959.324V231.49H946.379V220.167H908.769V231.49H895.138V200.843L855.422 193.123V189.638H851.129V181.796H856.597V175.103H798.902V181.796H804.367V189.638H800.074V278.824H766.998V244.863L743.977 248.031V218.89L699.999 211.31V202.193H704.575V190.743H659.416V144.355H650.424V122.387H634.51V88H630.237ZM840.639 189.638H846.324V181.796H840.639V189.638ZM830.151 189.638H835.834V181.796H830.151V189.638ZM819.662 189.638H825.347V181.796H819.662V189.638ZM809.172 189.638H814.857V181.796H809.172V189.638Z" fill="#B8CFF8"/>
<path fill-rule="evenodd" clip-rule="evenodd" d="M1080.59 336.978H1052V393H1080.59H1082.25H1095.39H1110.2H1125V313.47L1110.2 315.664V295.493L1080.59 290V336.978Z" fill="#BBCEF0"/>
<path fill-rule="evenodd" clip-rule="evenodd" d="M0 232V236.64H3.48028V242.075H0.746096V360H31.9784H36.0087H61.3106V359.964H112V276.271H102.202V271.086H93.9562V263.235H69.9955V271.086H61.3106V249.841L36.0087 244.49V242.075H33.2745V236.64H36.7548V232H0ZM26.589 242.075H30.2112V236.64H26.589V242.075ZM19.9102 242.075H23.5324V236.64H19.9102V242.075ZM13.2246 242.075H16.8469V236.64H13.2246V242.075ZM6.54355 242.075H10.1658V236.64H6.54355V242.075Z" fill="#BBCFF4"/>
<path fill-rule="evenodd" clip-rule="evenodd" d="M1082.92 25.1268C1082.51 25.1268 1082.09 24.989 1081.75 24.706C1080.97 24.0593 1080.86 22.9018 1081.5 22.1191C1082.63 20.7632 1083.67 19.3246 1084.61 17.8492C1085.16 16.9931 1086.3 16.7432 1087.15 17.2889C1088.01 17.8345 1088.26 18.97 1087.71 19.8262C1086.69 21.4283 1085.55 22.9863 1084.34 24.4598C1083.97 24.8989 1083.45 25.1268 1082.92 25.1268ZM1073.48 33.7951C1072.9 33.7951 1072.32 33.5195 1071.97 33.0051C1071.39 32.1691 1071.6 31.0245 1072.43 30.4476C1073.88 29.4462 1075.28 28.3475 1076.6 27.1845C1077.36 26.5157 1078.52 26.5837 1079.19 27.348C1079.87 28.1087 1079.79 29.2699 1079.03 29.9405C1077.6 31.199 1076.09 32.3859 1074.52 33.4699C1074.2 33.6904 1073.84 33.7951 1073.48 33.7951ZM1062.03 39.5679C1061.26 39.5679 1060.55 39.0847 1060.29 38.3185C1059.96 37.3576 1060.48 36.314 1061.44 35.9907C1063.1 35.4285 1064.74 34.7579 1066.33 33.9954C1067.25 33.5526 1068.35 33.9421 1068.78 34.8552C1069.22 35.7702 1068.84 36.8671 1067.92 37.3062C1066.2 38.1348 1064.42 38.8624 1062.62 39.4705C1062.42 39.5367 1062.22 39.5679 1062.03 39.5679ZM990.793 40.9771C990.765 40.9771 990.738 40.9771 990.71 40.9753C988.886 40.8963 987.067 40.8338 985.25 40.7989C984.236 40.7787 983.429 39.9409 983.448 38.9267C983.468 37.9235 984.285 37.1243 985.285 37.1243H985.322C987.168 37.161 989.02 37.2217 990.872 37.3043C991.886 37.3503 992.672 38.2083 992.627 39.2225C992.584 40.2073 991.77 40.9771 990.793 40.9771ZM972.428 41.0487C971.469 41.0487 970.66 40.3028 970.596 39.3309C970.53 38.3185 971.296 37.444 972.31 37.376C974.164 37.2566 976.025 37.1757 977.892 37.1316C978.867 37.0581 979.749 37.9106 979.771 38.9248C979.795 39.9409 978.992 40.7823 977.978 40.8044C976.163 40.8485 974.353 40.9256 972.551 41.0451C972.508 41.0469 972.47 41.0487 972.428 41.0487ZM1003.63 41.7598C1003.59 41.7598 1003.54 41.7579 1003.5 41.7543C1001.67 41.6238 999.838 41.4952 998.012 41.3776C996.999 41.3115 996.231 40.4369 996.297 39.4246C996.362 38.4122 997.247 37.6406 998.249 37.7104C1000.09 37.8298 1001.92 37.9566 1003.76 38.0889C1004.77 38.1624 1005.54 39.0424 1005.46 40.0548C1005.39 41.0212 1004.59 41.7598 1003.63 41.7598ZM1049.47 42.2577C1048.56 42.2577 1047.77 41.5871 1047.65 40.6629C1047.52 39.6579 1048.22 38.7338 1049.23 38.5996C1051.04 38.3589 1052.84 38.0668 1054.56 37.7324C1055.55 37.5377 1056.52 38.1918 1056.72 39.1876C1056.91 40.1852 1056.26 41.148 1055.26 41.3409C1053.47 41.6881 1051.6 41.9913 1049.72 42.2412C1049.63 42.2522 1049.55 42.2577 1049.47 42.2577ZM959.679 42.6619C958.817 42.6619 958.049 42.0537 957.877 41.1774C957.682 40.1815 958.33 39.217 959.326 39.0204C961.114 38.6713 962.98 38.3645 964.873 38.1091C965.883 37.9768 966.804 38.6805 966.938 39.6855C967.072 40.6923 966.367 41.6165 965.362 41.7524C963.541 41.9968 961.749 42.2908 960.033 42.627C959.914 42.6509 959.795 42.6619 959.679 42.6619ZM1016.46 42.6711C1016.42 42.6711 1016.38 42.6692 1016.34 42.6674C1014.5 42.5498 1012.66 42.423 1010.83 42.2908C1009.81 42.2173 1009.05 41.3372 1009.13 40.3249C1009.2 39.3143 1010.09 38.5574 1011.09 38.6254C1012.92 38.7558 1014.75 38.8826 1016.57 39.0002C1017.58 39.0645 1018.35 39.9372 1018.29 40.9495C1018.23 41.9233 1017.42 42.6711 1016.46 42.6711ZM1036.65 43.2241C1035.66 43.2241 1034.84 42.4304 1034.82 41.4327C1034.79 40.4186 1035.59 39.5752 1036.61 39.5514C1038.43 39.5054 1040.24 39.4264 1042.04 39.307C1043.04 39.2409 1043.93 40.007 1043.99 41.0212C1044.06 42.0335 1043.29 42.9081 1042.28 42.9742C1040.43 43.0955 1038.57 43.1782 1036.7 43.2241C1036.69 43.2241 1036.67 43.2241 1036.65 43.2241ZM1029.3 43.2388H1029.27C1027.42 43.2039 1025.57 43.1451 1023.72 43.0661C1022.71 43.0238 1021.92 42.1658 1021.96 41.1535C1022 40.1393 1022.92 39.3842 1023.87 39.3952C1025.7 39.4723 1027.52 39.5311 1029.34 39.5642C1030.35 39.5844 1031.16 40.4222 1031.14 41.4364C1031.12 42.4396 1030.3 43.2388 1029.3 43.2388ZM947.314 46.1307C946.57 46.1307 945.87 45.6751 945.594 44.9365C945.238 43.9866 945.719 42.9265 946.671 42.5719C948.407 41.9215 950.21 41.3207 952.028 40.7915C953.011 40.5012 954.026 41.0671 954.307 42.0409C954.59 43.0147 954.033 44.0344 953.057 44.3191C951.327 44.8244 949.611 45.3939 947.959 46.0131C947.748 46.0921 947.529 46.1307 947.314 46.1307ZM935.745 51.7014C935.12 51.7014 934.514 51.3854 934.167 50.8103C933.645 49.9413 933.926 48.8132 934.795 48.2895C935.241 48.0213 935.693 47.7585 936.145 47.4995C937.345 46.816 938.547 46.1748 939.756 45.574C940.669 45.1202 941.767 45.4932 942.219 46.4026C942.671 47.3102 942.3 48.4126 941.393 48.8646C940.244 49.4342 939.103 50.0423 937.968 50.6909C937.538 50.9352 937.112 51.1851 936.689 51.4386C936.393 51.6169 936.066 51.7014 935.745 51.7014ZM925.471 59.4033C924.982 59.4033 924.495 59.2104 924.135 58.8282C923.437 58.0915 923.472 56.9285 924.209 56.2321C925.546 54.9663 927.007 53.7242 928.548 52.5392C929.351 51.92 930.505 52.0707 931.124 52.8754C931.741 53.6801 931.593 54.8321 930.786 55.4513C929.344 56.561 927.981 57.7222 926.731 58.9017C926.377 59.2361 925.925 59.4033 925.471 59.4033ZM917.618 69.514C917.337 69.514 917.051 69.4496 916.782 69.3118C915.88 68.8489 915.524 67.741 915.987 66.8388C916.834 65.1853 917.877 63.5299 919.088 61.9167C919.7 61.1065 920.852 60.943 921.66 61.553C922.472 62.1611 922.636 63.3131 922.028 64.1252C920.94 65.5711 920.009 67.0483 919.255 68.5145C918.93 69.1502 918.287 69.514 917.618 69.514ZM928.929 71.4505C928.012 71.4505 927.22 70.767 927.104 69.8336C926.983 68.8268 927.701 67.9118 928.706 67.7887C930.654 67.5536 932.645 67.5205 934.597 67.6969C935.607 67.7906 936.353 68.6853 936.261 69.694C936.167 70.7045 935.297 71.4321 934.264 71.3586C932.57 71.2024 930.837 71.2318 929.153 71.4376C929.077 71.4449 929.002 71.4505 928.929 71.4505ZM946.239 75.9555C945.833 75.9555 945.422 75.8195 945.082 75.5403C943.823 74.5151 942.387 73.6534 940.81 72.9772C939.879 72.5786 939.445 71.4982 939.846 70.5649C940.246 69.6315 941.33 69.2016 942.256 69.6003C944.148 70.4105 945.879 71.4505 947.402 72.6943C948.189 73.3355 948.306 74.493 947.667 75.2775C947.303 75.724 946.772 75.9555 946.239 75.9555ZM908.035 84.9968C907.69 84.9968 907.339 84.8995 907.028 84.6937C906.18 84.1351 905.946 82.996 906.503 82.149C907.591 80.4973 908.79 78.9576 910.063 77.5705C910.752 76.8227 911.914 76.7749 912.66 77.4602C912.884 77.666 913.045 77.9141 913.143 78.1823C913.141 78.0868 913.141 77.9894 913.141 77.8938C913.141 76.707 913.242 75.498 913.444 74.2983C913.611 73.2969 914.556 72.6227 915.559 72.7898C915.586 72.7935 915.612 72.799 915.64 72.8045C915.739 72.6998 915.851 72.6024 915.978 72.5198C917.598 71.4523 919.34 70.5336 921.151 69.7895C922.085 69.4074 923.165 69.852 923.549 70.7909C923.935 71.7316 923.487 72.8045 922.548 73.1904C920.953 73.8445 919.423 74.651 917.997 75.5899C917.672 75.8048 917.306 75.9206 916.929 75.8912C916.852 76.5636 916.815 77.2324 916.815 77.8938C916.815 78.5589 916.854 79.2259 916.929 79.8745C917.049 80.8813 916.327 81.7944 915.32 81.9138C914.309 82.0369 913.398 81.3112 913.281 80.3025C913.24 79.9718 913.211 79.6374 913.187 79.3012C913.113 79.5731 912.974 79.8322 912.77 80.0545C911.629 81.2984 910.552 82.6837 909.571 84.17C909.218 84.7065 908.634 84.9968 908.035 84.9968ZM952.262 86.9499C951.347 86.9499 950.553 86.2682 950.441 85.3367C950.237 83.674 949.783 82.0847 949.094 80.613C948.666 79.6926 949.063 78.5994 949.982 78.1694C950.9 77.7395 951.992 78.1364 952.425 79.055C953.276 80.8795 953.836 82.8435 954.086 84.8903C954.209 85.8989 953.493 86.8139 952.486 86.937C952.411 86.9462 952.335 86.9499 952.262 86.9499ZM920.36 93.4631C919.83 93.4631 919.307 93.2371 918.945 92.798C917.633 91.2179 916.531 89.5717 915.665 87.9071C915.197 87.0068 915.546 85.8971 916.446 85.4286C917.348 84.9601 918.456 85.3092 918.923 86.2113C919.669 87.6444 920.628 89.0719 921.772 90.4536C922.421 91.2344 922.313 92.3919 921.532 93.0405C921.188 93.3253 920.773 93.4631 920.36 93.4631ZM902.687 96.6453C902.51 96.6453 902.329 96.6196 902.149 96.5644C901.178 96.2668 900.633 95.2397 900.93 94.2678C901.5 92.414 902.158 90.6116 902.891 88.9084C903.291 87.9751 904.37 87.547 905.303 87.9438C906.236 88.3462 906.666 89.4265 906.268 90.3581C905.586 91.94 904.972 93.6174 904.443 95.3463C904.203 96.1363 903.473 96.6453 902.687 96.6453ZM948.914 98.9823C948.483 98.9823 948.051 98.8317 947.702 98.5248C946.939 97.8542 946.866 96.6949 947.535 95.9324C948.554 94.7749 949.333 93.3841 949.851 91.8022C950.166 90.8376 951.209 90.3103 952.17 90.6281C953.133 90.9442 953.658 91.9822 953.344 92.9468C952.668 95.0046 951.645 96.8253 950.294 98.3576C949.932 98.771 949.425 98.9823 948.914 98.9823ZM930.237 101.547C929.978 101.547 929.713 101.492 929.463 101.374C928.008 100.697 926.637 99.8679 925.394 98.9107C925.076 98.6663 924.765 98.4219 924.46 98.1757C923.668 97.54 923.545 96.3825 924.181 95.5925C924.819 94.8043 925.974 94.6757 926.764 95.3132C927.047 95.5411 927.336 95.7707 927.631 95.9986C928.664 96.7904 929.803 97.4794 931.016 98.0453C931.934 98.4734 932.333 99.5666 931.905 100.485C931.593 101.154 930.929 101.547 930.237 101.547ZM938.429 103.418H938.418C938.012 103.418 937.602 103.405 937.191 103.379C936.178 103.313 935.41 102.438 935.477 101.426C935.543 100.414 936.375 99.6474 937.43 99.7117C937.764 99.7319 938.085 99.6878 938.427 99.743C939.768 99.743 941.056 99.5684 942.256 99.2193C943.237 98.9345 944.251 99.4986 944.534 100.472C944.815 101.448 944.253 102.466 943.279 102.749C941.747 103.193 940.114 103.418 938.429 103.418ZM900.221 109.253C900.159 109.253 900.098 109.249 900.038 109.244C899.027 109.143 898.29 108.242 898.39 107.232C898.579 105.339 898.84 103.452 899.165 101.628C899.343 100.627 900.3 99.9616 901.296 100.142C902.296 100.32 902.961 101.273 902.782 102.273C902.474 104.005 902.226 105.797 902.047 107.597C901.952 108.544 901.153 109.253 900.221 109.253ZM899.99 122.101C899.025 122.101 898.217 121.35 898.158 120.376C898.053 118.662 898 116.922 898 115.206L898.002 114.733C898.013 113.717 898.777 112.869 899.859 112.916C900.875 112.929 901.687 113.762 901.676 114.776L901.675 115.206C901.675 116.848 901.724 118.511 901.825 120.152C901.888 121.164 901.116 122.035 900.102 122.097C900.065 122.099 900.027 122.101 899.99 122.101ZM901.774 134.824C900.934 134.824 900.175 134.244 899.984 133.389C899.58 131.592 899.231 129.728 898.946 127.844C898.794 126.841 899.485 125.904 900.488 125.754C901.489 125.594 902.428 126.292 902.578 127.293C902.85 129.092 903.185 130.872 903.569 132.583C903.791 133.573 903.168 134.556 902.178 134.778C902.044 134.81 901.908 134.824 901.774 134.824ZM905.841 147C905.152 147 904.493 146.612 904.179 145.949C903.403 144.31 902.681 142.53 902.033 140.658C901.7 139.699 902.211 138.653 903.168 138.321C904.129 137.986 905.175 138.495 905.507 139.456C906.112 141.203 906.782 142.859 907.501 144.376C907.936 145.293 907.543 146.388 906.626 146.824C906.372 146.943 906.106 147 905.841 147Z" fill="#BBCFF4"/>
<path fill-rule="evenodd" clip-rule="evenodd" d="M1034 43.3058L961 49L967.313 35L1034 43.3058Z" fill="#2F3788"/>
<path fill-rule="evenodd" clip-rule="evenodd" d="M1035.73 41.4841L961.066 16.0328L974.588 52.906L1035.73 41.4841Z" fill="#DC4272"/>
<path fill-rule="evenodd" clip-rule="evenodd" d="M1035 41.1321L968.381 38.4861L962 47L964.865 29L1035 41.1321Z" fill="#793481"/>
<path fill-rule="evenodd" clip-rule="evenodd" d="M742.527 358.133H754.532V348.827L748.53 344.323L742.527 348.827V358.133Z" fill="#FFF4FF"/>
<path fill-rule="evenodd" clip-rule="evenodd" d="M737.648 429.058H766.147V357.415H737.648V429.058Z" fill="#FFF4FF"/>
<path fill-rule="evenodd" clip-rule="evenodd" d="M750.74 360.314H757.903V354.516H750.74V360.314Z" fill="#FFF4FF"/>
<path fill-rule="evenodd" clip-rule="evenodd" d="M616.717 429.058H639.238V327.737H616.717V429.058Z" fill="#FFF4FF"/>
<path fill-rule="evenodd" clip-rule="evenodd" d="M620.137 337.045H635.816V320.844H620.137V337.045Z" fill="#FFF4FF"/>
<path fill-rule="evenodd" clip-rule="evenodd" d="M621.836 330.217H634.118V316.344H621.836V330.217Z" fill="#FFF4FF"/>
<path fill-rule="evenodd" clip-rule="evenodd" d="M765.336 429.058H796.83V332.187H765.336V429.058Z" fill="#FFF4FF"/>
<path fill-rule="evenodd" clip-rule="evenodd" d="M770.172 338.084H793.842V325.126L782.076 318.854L770.172 325.126V338.084Z" fill="#FFF4FF"/>
<path fill-rule="evenodd" clip-rule="evenodd" d="M637.924 306.065V429.058H675.735V297.012L637.924 306.065Z" fill="#FFF4FF"/>
<path fill-rule="evenodd" clip-rule="evenodd" d="M418.121 429.058H445.599V344.579L418.121 318.081V429.058Z" fill="#FFF4FF"/>
<path fill-rule="evenodd" clip-rule="evenodd" d="M534.395 331.636H536.164V326.275H534.395V331.636Z" fill="#FFF4FF"/>
<path fill-rule="evenodd" clip-rule="evenodd" d="M538.465 332.866H540.234V327.505H538.465V332.866Z" fill="#FFF4FF"/>
<path fill-rule="evenodd" clip-rule="evenodd" d="M527.074 332.866H528.843V327.505H527.074V332.866Z" fill="#FFF4FF"/>
<path fill-rule="evenodd" clip-rule="evenodd" d="M520.34 429.058H552.978V332.012L520.34 331.823V429.058Z" fill="#FFF4FF"/>
<path fill-rule="evenodd" clip-rule="evenodd" d="M387.547 331.636H389.316V326.275H387.547V331.636Z" fill="#FFF4FF"/>
<path fill-rule="evenodd" clip-rule="evenodd" d="M391.617 332.866H393.386V327.505H391.617V332.866Z" fill="#FFF4FF"/>
<path fill-rule="evenodd" clip-rule="evenodd" d="M380.227 332.866H381.996V327.505H380.227V332.866Z" fill="#FFF4FF"/>
<path fill-rule="evenodd" clip-rule="evenodd" d="M348.082 429.058H406.128V332.012L348.082 331.823V429.058Z" fill="#FFF4FF"/>
<path fill-rule="evenodd" clip-rule="evenodd" d="M548.518 429.058H581.156V369.717L548.518 369.601V429.058Z" fill="#FFF4FF"/>
<path fill-rule="evenodd" clip-rule="evenodd" d="M727.996 323.582H729.604V308.501H727.996V323.582Z" fill="#FFF4FF"/>
<path fill-rule="evenodd" clip-rule="evenodd" d="M731.697 322.456H733.304V315.782H731.697V322.456Z" fill="#FFF4FF"/>
<path fill-rule="evenodd" clip-rule="evenodd" d="M721.344 324.184H722.951V317.51H721.344V324.184Z" fill="#FFF4FF"/>
<path fill-rule="evenodd" clip-rule="evenodd" d="M708.656 429.058H738.306V321.049L708.656 320.842V429.058Z" fill="#FFF4FF"/>
<path fill-rule="evenodd" clip-rule="evenodd" d="M687.629 362.749V429.058H717.279V343.578L687.629 362.749Z" fill="#FFF4FF"/>
<path fill-rule="evenodd" clip-rule="evenodd" d="M604.344 299.233H605.63V290H604.344V299.233Z" fill="#FFF4FF"/>
<path fill-rule="evenodd" clip-rule="evenodd" d="M623.924 318.591H625.211V309.357H623.924V318.591Z" fill="#FFF4FF"/>
<path fill-rule="evenodd" clip-rule="evenodd" d="M611.592 303.568H612.878V294.334H611.592V303.568Z" fill="#FFF4FF"/>
<path fill-rule="evenodd" clip-rule="evenodd" d="M630.045 321.911H631.331V312.677H630.045V321.911Z" fill="#FFF4FF"/>
<path fill-rule="evenodd" clip-rule="evenodd" d="M601.164 301.353H602.45V292.119H601.164V301.353Z" fill="#FFF4FF"/>
<path fill-rule="evenodd" clip-rule="evenodd" d="M596.801 429.058H617.19V299.683L596.801 299.356V429.058Z" fill="#FFF4FF"/>
<path fill-rule="evenodd" clip-rule="evenodd" d="M565.66 429.058H599.358V326.367H565.66V429.058Z" fill="#FFF4FF"/>
<path fill-rule="evenodd" clip-rule="evenodd" d="M570.898 329.365H594.12V321.61H570.898V329.365Z" fill="#FFF4FF"/>
<path fill-rule="evenodd" clip-rule="evenodd" d="M574.441 328.207H590.58V315.733L582.51 309.695L574.441 315.733V328.207Z" fill="#FFF4FF"/>
<path fill-rule="evenodd" clip-rule="evenodd" d="M807.523 320.033H810.759V311.963H807.523V320.033Z" fill="#FFF4FF"/>
<path fill-rule="evenodd" clip-rule="evenodd" d="M814.973 321.886H818.208V313.816H814.973V321.886Z" fill="#FFF4FF"/>
<path fill-rule="evenodd" clip-rule="evenodd" d="M803.486 429.058H838.384V317.85L803.486 315.998V429.058Z" fill="#FFF4FF"/>
<path fill-rule="evenodd" clip-rule="evenodd" d="M837.24 429.058H866.141V359.51H837.24V429.058Z" fill="#FFF4FF"/>
<path fill-rule="evenodd" clip-rule="evenodd" d="M841.635 373.107H861.99V350.123H841.635V373.107Z" fill="#FFF4FF"/>
<path fill-rule="evenodd" clip-rule="evenodd" d="M843.814 363.42H859.434V343.738H843.814V363.42Z" fill="#FFF4FF"/>
<path fill-rule="evenodd" clip-rule="evenodd" d="M855.254 346.926H856.906V333.826H855.254V346.926Z" fill="#FFF4FF"/>
<path fill-rule="evenodd" clip-rule="evenodd" d="M847.395 351.637H849.047V338.537H847.395V351.637Z" fill="#FFF4FF"/>
<path fill-rule="evenodd" clip-rule="evenodd" d="M465.893 429.058H522.033V341.267H465.893V429.058Z" fill="#FFF4FF"/>
<path fill-rule="evenodd" clip-rule="evenodd" d="M419.006 429.058H467.003V362.618H419.006V429.058Z" fill="#FFF4FF"/>
<path fill-rule="evenodd" clip-rule="evenodd" d="M471.113 357.097H507.943V324.667H471.113V357.097Z" fill="#FFF4FF"/>
<path fill-rule="evenodd" clip-rule="evenodd" d="M701.207 360.427H715.574V358.168H701.207V360.427Z" fill="#DBDEFF"/>
<path fill-rule="evenodd" clip-rule="evenodd" d="M701.207 366.054H715.574V363.795H701.207V366.054Z" fill="#DBDEFF"/>
<path fill-rule="evenodd" clip-rule="evenodd" d="M701.207 371.682H715.574V369.423H701.207V371.682Z" fill="#DBDEFF"/>
<path fill-rule="evenodd" clip-rule="evenodd" d="M701.207 377.309H715.574V375.05H701.207V377.309Z" fill="#DBDEFF"/>
<path fill-rule="evenodd" clip-rule="evenodd" d="M701.207 382.936H715.574V380.677H701.207V382.936Z" fill="#DBDEFF"/>
<path fill-rule="evenodd" clip-rule="evenodd" d="M701.207 388.563H715.574V386.304H701.207V388.563Z" fill="#DBDEFF"/>
<path fill-rule="evenodd" clip-rule="evenodd" d="M701.207 394.19H715.574V391.931H701.207V394.19Z" fill="#DBDEFF"/>
<path fill-rule="evenodd" clip-rule="evenodd" d="M701.207 399.817H715.574V397.558H701.207V399.817Z" fill="#DBDEFF"/>
<path fill-rule="evenodd" clip-rule="evenodd" d="M701.207 405.444H715.574V403.185H701.207V405.444Z" fill="#DBDEFF"/>
<path fill-rule="evenodd" clip-rule="evenodd" d="M701.207 411.071H715.574V408.812H701.207V411.071Z" fill="#DBDEFF"/>
<path fill-rule="evenodd" clip-rule="evenodd" d="M701.207 416.699H715.574V414.44H701.207V416.699Z" fill="#DBDEFF"/>
<path fill-rule="evenodd" clip-rule="evenodd" d="M346.365 381.623H355.555V380.062H346.365V381.623Z" fill="#DBDEFF"/>
<path fill-rule="evenodd" clip-rule="evenodd" d="M346.365 385.509H355.555V383.948H346.365V385.509Z" fill="#DBDEFF"/>
<path fill-rule="evenodd" clip-rule="evenodd" d="M346.365 389.395H355.555V387.835H346.365V389.395Z" fill="#DBDEFF"/>
<path fill-rule="evenodd" clip-rule="evenodd" d="M346.365 393.282H355.555V391.721H346.365V393.282Z" fill="#DBDEFF"/>
<path fill-rule="evenodd" clip-rule="evenodd" d="M346.365 397.169H355.555V395.608H346.365V397.169Z" fill="#DBDEFF"/>
<path fill-rule="evenodd" clip-rule="evenodd" d="M346.365 401.056H355.555V399.495H346.365V401.056Z" fill="#DBDEFF"/>
<path fill-rule="evenodd" clip-rule="evenodd" d="M346.365 404.942H355.555V403.381H346.365V404.942Z" fill="#DBDEFF"/>
<path fill-rule="evenodd" clip-rule="evenodd" d="M346.365 408.829H355.555V407.268H346.365V408.829Z" fill="#DBDEFF"/>
<path fill-rule="evenodd" clip-rule="evenodd" d="M346.365 412.715H355.555V411.154H346.365V412.715Z" fill="#DBDEFF"/>
<path fill-rule="evenodd" clip-rule="evenodd" d="M346.365 416.602H355.555V415.041H346.365V416.602Z" fill="#DBDEFF"/>
<path fill-rule="evenodd" clip-rule="evenodd" d="M346.365 420.489H355.555V418.928H346.365V420.489Z" fill="#DBDEFF"/>
<path fill-rule="evenodd" clip-rule="evenodd" d="M615.24 339.696H629.987V338.269H615.24V339.696Z" fill="#D9DCFF"/>
<path fill-rule="evenodd" clip-rule="evenodd" d="M615.24 343.25H629.987V341.823H615.24V343.25Z" fill="#D9DCFF"/>
<path fill-rule="evenodd" clip-rule="evenodd" d="M615.24 346.806H629.987V345.379H615.24V346.806Z" fill="#D9DCFF"/>
<path fill-rule="evenodd" clip-rule="evenodd" d="M615.24 350.36H629.987V348.933H615.24V350.36Z" fill="#D9DCFF"/>
<path fill-rule="evenodd" clip-rule="evenodd" d="M615.24 353.916H629.987V352.489H615.24V353.916Z" fill="#D9DCFF"/>
<path fill-rule="evenodd" clip-rule="evenodd" d="M615.24 357.47H629.987V356.043H615.24V357.47Z" fill="#D9DCFF"/>
<path fill-rule="evenodd" clip-rule="evenodd" d="M615.24 361.025H629.987V359.598H615.24V361.025Z" fill="#D9DCFF"/>
<path fill-rule="evenodd" clip-rule="evenodd" d="M615.24 364.58H629.987V363.153H615.24V364.58Z" fill="#D9DCFF"/>
<path fill-rule="evenodd" clip-rule="evenodd" d="M615.24 368.135H629.987V366.708H615.24V368.135Z" fill="#D9DCFF"/>
<path fill-rule="evenodd" clip-rule="evenodd" d="M615.24 371.69H629.987V370.263H615.24V371.69Z" fill="#D9DCFF"/>
<path fill-rule="evenodd" clip-rule="evenodd" d="M615.24 375.245H629.987V373.818H615.24V375.245Z" fill="#D9DCFF"/>
<path fill-rule="evenodd" clip-rule="evenodd" d="M615.24 378.514H629.987V377.087H615.24V378.514Z" fill="#D9DCFF"/>
<path fill-rule="evenodd" clip-rule="evenodd" d="M615.24 382.069H629.987V380.642H615.24V382.069Z" fill="#D9DCFF"/>
<path fill-rule="evenodd" clip-rule="evenodd" d="M615.24 385.624H629.987V384.197H615.24V385.624Z" fill="#D9DCFF"/>
<path fill-rule="evenodd" clip-rule="evenodd" d="M615.24 389.179H629.987V387.752H615.24V389.179Z" fill="#D9DCFF"/>
<path fill-rule="evenodd" clip-rule="evenodd" d="M615.24 392.734H629.987V391.307H615.24V392.734Z" fill="#D9DCFF"/>
<path fill-rule="evenodd" clip-rule="evenodd" d="M615.24 396.289H629.987V394.862H615.24V396.289Z" fill="#D9DCFF"/>
<path fill-rule="evenodd" clip-rule="evenodd" d="M615.24 399.844H629.987V398.417H615.24V399.844Z" fill="#D9DCFF"/>
<path fill-rule="evenodd" clip-rule="evenodd" d="M615.24 403.398H629.987V401.971H615.24V403.398Z" fill="#D9DCFF"/>
<path fill-rule="evenodd" clip-rule="evenodd" d="M615.24 406.953H629.987V405.526H615.24V406.953Z" fill="#D9DCFF"/>
<path fill-rule="evenodd" clip-rule="evenodd" d="M615.24 410.508H629.987V409.081H615.24V410.508Z" fill="#D9DCFF"/>
<path fill-rule="evenodd" clip-rule="evenodd" d="M615.24 414.063H629.987V412.636H615.24V414.063Z" fill="#D9DCFF"/>
<path fill-rule="evenodd" clip-rule="evenodd" d="M645.072 364.236H648.803V362.732H645.072V364.236Z" fill="#D9DCFF"/>
<path fill-rule="evenodd" clip-rule="evenodd" d="M645.072 369.843H648.803V368.339H645.072V369.843Z" fill="#D9DCFF"/>
<path fill-rule="evenodd" clip-rule="evenodd" d="M645.072 375.45H648.803V373.946H645.072V375.45Z" fill="#D9DCFF"/>
<path fill-rule="evenodd" clip-rule="evenodd" d="M645.072 381.058H648.803V379.554H645.072V381.058Z" fill="#D9DCFF"/>
<path fill-rule="evenodd" clip-rule="evenodd" d="M645.072 386.665H648.803V385.161H645.072V386.665Z" fill="#D9DCFF"/>
<path fill-rule="evenodd" clip-rule="evenodd" d="M645.072 392.272H648.803V390.768H645.072V392.272Z" fill="#D9DCFF"/>
<path fill-rule="evenodd" clip-rule="evenodd" d="M645.072 397.879H648.803V396.375H645.072V397.879Z" fill="#D9DCFF"/>
<path fill-rule="evenodd" clip-rule="evenodd" d="M645.072 403.486H648.803V401.982H645.072V403.486Z" fill="#D9DCFF"/>
<path fill-rule="evenodd" clip-rule="evenodd" d="M645.072 409.094H648.803V407.59H645.072V409.094Z" fill="#D9DCFF"/>
<path fill-rule="evenodd" clip-rule="evenodd" d="M645.072 414.701H648.803V413.197H645.072V414.701Z" fill="#D9DCFF"/>
<path fill-rule="evenodd" clip-rule="evenodd" d="M645.072 420.308H648.803V418.804H645.072V420.308Z" fill="#D9DCFF"/>
<path fill-rule="evenodd" clip-rule="evenodd" d="M639.613 364.236H643.344V362.732H639.613V364.236Z" fill="#D9DCFF"/>
<path fill-rule="evenodd" clip-rule="evenodd" d="M639.613 369.843H643.344V368.339H639.613V369.843Z" fill="#D9DCFF"/>
<path fill-rule="evenodd" clip-rule="evenodd" d="M639.613 375.45H643.344V373.946H639.613V375.45Z" fill="#D9DCFF"/>
<path fill-rule="evenodd" clip-rule="evenodd" d="M639.613 381.058H643.344V379.554H639.613V381.058Z" fill="#D9DCFF"/>
<path fill-rule="evenodd" clip-rule="evenodd" d="M639.613 386.665H643.344V385.161H639.613V386.665Z" fill="#D9DCFF"/>
<path fill-rule="evenodd" clip-rule="evenodd" d="M639.613 392.272H643.344V390.768H639.613V392.272Z" fill="#D9DCFF"/>
<path fill-rule="evenodd" clip-rule="evenodd" d="M639.613 397.879H643.344V396.375H639.613V397.879Z" fill="#D9DCFF"/>
<path fill-rule="evenodd" clip-rule="evenodd" d="M639.613 403.486H643.344V401.982H639.613V403.486Z" fill="#D9DCFF"/>
<path fill-rule="evenodd" clip-rule="evenodd" d="M639.613 409.094H643.344V407.59H639.613V409.094Z" fill="#D9DCFF"/>
<path fill-rule="evenodd" clip-rule="evenodd" d="M639.613 414.701H643.344V413.197H639.613V414.701Z" fill="#D9DCFF"/>
<path fill-rule="evenodd" clip-rule="evenodd" d="M639.613 420.308H643.344V418.804H639.613V420.308Z" fill="#D9DCFF"/>
<path fill-rule="evenodd" clip-rule="evenodd" d="M634.152 364.236H637.882V362.732H634.152V364.236Z" fill="#D9DCFF"/>
<path fill-rule="evenodd" clip-rule="evenodd" d="M634.152 369.843H637.882V368.339H634.152V369.843Z" fill="#D9DCFF"/>
<path fill-rule="evenodd" clip-rule="evenodd" d="M634.152 375.45H637.882V373.946H634.152V375.45Z" fill="#D9DCFF"/>
<path fill-rule="evenodd" clip-rule="evenodd" d="M634.152 381.058H637.882V379.554H634.152V381.058Z" fill="#D9DCFF"/>
<path fill-rule="evenodd" clip-rule="evenodd" d="M634.152 386.665H637.882V385.161H634.152V386.665Z" fill="#D9DCFF"/>
<path fill-rule="evenodd" clip-rule="evenodd" d="M634.152 392.272H637.882V390.768H634.152V392.272Z" fill="#D9DCFF"/>
<path fill-rule="evenodd" clip-rule="evenodd" d="M634.152 397.879H637.882V396.375H634.152V397.879Z" fill="#D9DCFF"/>
<path fill-rule="evenodd" clip-rule="evenodd" d="M634.152 403.486H637.882V401.982H634.152V403.486Z" fill="#D9DCFF"/>
<path fill-rule="evenodd" clip-rule="evenodd" d="M634.152 409.094H637.882V407.59H634.152V409.094Z" fill="#D9DCFF"/>
<path fill-rule="evenodd" clip-rule="evenodd" d="M634.152 414.701H637.882V413.197H634.152V414.701Z" fill="#D9DCFF"/>
<path fill-rule="evenodd" clip-rule="evenodd" d="M634.152 420.308H637.882V418.804H634.152V420.308Z" fill="#D9DCFF"/>
<path fill-rule="evenodd" clip-rule="evenodd" d="M524.984 374.819H528.91V373.619H524.984V374.819Z" fill="#D9DCFF"/>
<path fill-rule="evenodd" clip-rule="evenodd" d="M524.984 379.294H528.91V378.094H524.984V379.294Z" fill="#D9DCFF"/>
<path fill-rule="evenodd" clip-rule="evenodd" d="M524.984 383.77H528.91V382.57H524.984V383.77Z" fill="#D9DCFF"/>
<path fill-rule="evenodd" clip-rule="evenodd" d="M524.984 388.244H528.91V387.044H524.984V388.244Z" fill="#D9DCFF"/>
<path fill-rule="evenodd" clip-rule="evenodd" d="M524.984 392.719H528.91V391.519H524.984V392.719Z" fill="#D9DCFF"/>
<path fill-rule="evenodd" clip-rule="evenodd" d="M524.984 397.194H528.91V395.994H524.984V397.194Z" fill="#D9DCFF"/>
<path fill-rule="evenodd" clip-rule="evenodd" d="M524.984 401.669H528.91V400.469H524.984V401.669Z" fill="#D9DCFF"/>
<path fill-rule="evenodd" clip-rule="evenodd" d="M524.984 406.144H528.91V404.944H524.984V406.144Z" fill="#D9DCFF"/>
<path fill-rule="evenodd" clip-rule="evenodd" d="M524.984 410.619H528.91V409.418H524.984V410.619Z" fill="#D9DCFF"/>
<path fill-rule="evenodd" clip-rule="evenodd" d="M524.984 415.094H528.91V413.894H524.984V415.094Z" fill="#D9DCFF"/>
<path fill-rule="evenodd" clip-rule="evenodd" d="M524.984 419.569H528.91V418.369H524.984V419.569Z" fill="#D9DCFF"/>
<path fill-rule="evenodd" clip-rule="evenodd" d="M516.557 374.819H520.483V373.619H516.557V374.819Z" fill="#D9DCFF"/>
<path fill-rule="evenodd" clip-rule="evenodd" d="M516.557 379.294H520.483V378.094H516.557V379.294Z" fill="#D9DCFF"/>
<path fill-rule="evenodd" clip-rule="evenodd" d="M516.557 383.77H520.483V382.57H516.557V383.77Z" fill="#D9DCFF"/>
<path fill-rule="evenodd" clip-rule="evenodd" d="M516.557 388.244H520.483V387.044H516.557V388.244Z" fill="#D9DCFF"/>
<path fill-rule="evenodd" clip-rule="evenodd" d="M516.557 392.719H520.483V391.519H516.557V392.719Z" fill="#D9DCFF"/>
<path fill-rule="evenodd" clip-rule="evenodd" d="M516.557 397.194H520.483V395.994H516.557V397.194Z" fill="#D9DCFF"/>
<path fill-rule="evenodd" clip-rule="evenodd" d="M516.557 401.669H520.483V400.469H516.557V401.669Z" fill="#D9DCFF"/>
<path fill-rule="evenodd" clip-rule="evenodd" d="M516.557 406.144H520.483V404.944H516.557V406.144Z" fill="#D9DCFF"/>
<path fill-rule="evenodd" clip-rule="evenodd" d="M516.557 410.619H520.483V409.418H516.557V410.619Z" fill="#D9DCFF"/>
<path fill-rule="evenodd" clip-rule="evenodd" d="M516.557 415.094H520.483V413.894H516.557V415.094Z" fill="#D9DCFF"/>
<path fill-rule="evenodd" clip-rule="evenodd" d="M516.557 419.569H520.483V418.369H516.557V419.569Z" fill="#D9DCFF"/>
<path fill-rule="evenodd" clip-rule="evenodd" d="M508.131 374.819H512.057V373.619H508.131V374.819Z" fill="#D9DCFF"/>
<path fill-rule="evenodd" clip-rule="evenodd" d="M508.131 379.294H512.057V378.094H508.131V379.294Z" fill="#D9DCFF"/>
<path fill-rule="evenodd" clip-rule="evenodd" d="M508.131 383.77H512.057V382.57H508.131V383.77Z" fill="#D9DCFF"/>
<path fill-rule="evenodd" clip-rule="evenodd" d="M508.131 388.244H512.057V387.044H508.131V388.244Z" fill="#D9DCFF"/>
<path fill-rule="evenodd" clip-rule="evenodd" d="M508.131 392.719H512.057V391.519H508.131V392.719Z" fill="#D9DCFF"/>
<path fill-rule="evenodd" clip-rule="evenodd" d="M508.131 397.194H512.057V395.994H508.131V397.194Z" fill="#D9DCFF"/>
<path fill-rule="evenodd" clip-rule="evenodd" d="M508.131 401.669H512.057V400.469H508.131V401.669Z" fill="#D9DCFF"/>
<path fill-rule="evenodd" clip-rule="evenodd" d="M508.131 406.144H512.057V404.944H508.131V406.144Z" fill="#D9DCFF"/>
<path fill-rule="evenodd" clip-rule="evenodd" d="M508.131 410.619H512.057V409.418H508.131V410.619Z" fill="#D9DCFF"/>
<path fill-rule="evenodd" clip-rule="evenodd" d="M508.131 415.094H512.057V413.894H508.131V415.094Z" fill="#D9DCFF"/>
<path fill-rule="evenodd" clip-rule="evenodd" d="M508.131 419.569H512.057V418.369H508.131V419.569Z" fill="#D9DCFF"/>
<path fill-rule="evenodd" clip-rule="evenodd" d="M572.887 374.819H576.813V373.619H572.887V374.819Z" fill="#D9DCFF"/>
<path fill-rule="evenodd" clip-rule="evenodd" d="M572.887 379.294H576.813V378.094H572.887V379.294Z" fill="#D9DCFF"/>
<path fill-rule="evenodd" clip-rule="evenodd" d="M572.887 383.77H576.813V382.57H572.887V383.77Z" fill="#D9DCFF"/>
<path fill-rule="evenodd" clip-rule="evenodd" d="M572.887 388.244H576.813V387.044H572.887V388.244Z" fill="#D9DCFF"/>
<path fill-rule="evenodd" clip-rule="evenodd" d="M572.887 392.719H576.813V391.519H572.887V392.719Z" fill="#D9DCFF"/>
<path fill-rule="evenodd" clip-rule="evenodd" d="M572.887 397.194H576.813V395.994H572.887V397.194Z" fill="#D9DCFF"/>
<path fill-rule="evenodd" clip-rule="evenodd" d="M572.887 401.669H576.813V400.469H572.887V401.669Z" fill="#D9DCFF"/>
<path fill-rule="evenodd" clip-rule="evenodd" d="M572.887 406.144H576.813V404.944H572.887V406.144Z" fill="#D9DCFF"/>
<path fill-rule="evenodd" clip-rule="evenodd" d="M572.887 410.619H576.813V409.418H572.887V410.619Z" fill="#D9DCFF"/>
<path fill-rule="evenodd" clip-rule="evenodd" d="M572.887 415.094H576.813V413.894H572.887V415.094Z" fill="#D9DCFF"/>
<path fill-rule="evenodd" clip-rule="evenodd" d="M572.887 419.569H576.813V418.369H572.887V419.569Z" fill="#D9DCFF"/>
<path fill-rule="evenodd" clip-rule="evenodd" d="M564.459 374.819H568.385V373.619H564.459V374.819Z" fill="#D9DCFF"/>
<path fill-rule="evenodd" clip-rule="evenodd" d="M564.459 379.294H568.385V378.094H564.459V379.294Z" fill="#D9DCFF"/>
<path fill-rule="evenodd" clip-rule="evenodd" d="M564.459 383.77H568.385V382.57H564.459V383.77Z" fill="#D9DCFF"/>
<path fill-rule="evenodd" clip-rule="evenodd" d="M564.459 388.244H568.385V387.044H564.459V388.244Z" fill="#D9DCFF"/>
<path fill-rule="evenodd" clip-rule="evenodd" d="M564.459 392.719H568.385V391.519H564.459V392.719Z" fill="#D9DCFF"/>
<path fill-rule="evenodd" clip-rule="evenodd" d="M564.459 397.194H568.385V395.994H564.459V397.194Z" fill="#D9DCFF"/>
<path fill-rule="evenodd" clip-rule="evenodd" d="M564.459 401.669H568.385V400.469H564.459V401.669Z" fill="#D9DCFF"/>
<path fill-rule="evenodd" clip-rule="evenodd" d="M564.459 406.144H568.385V404.944H564.459V406.144Z" fill="#D9DCFF"/>
<path fill-rule="evenodd" clip-rule="evenodd" d="M564.459 410.619H568.385V409.418H564.459V410.619Z" fill="#D9DCFF"/>
<path fill-rule="evenodd" clip-rule="evenodd" d="M564.459 415.094H568.385V413.894H564.459V415.094Z" fill="#D9DCFF"/>
<path fill-rule="evenodd" clip-rule="evenodd" d="M564.459 419.569H568.385V418.369H564.459V419.569Z" fill="#D9DCFF"/>
<path fill-rule="evenodd" clip-rule="evenodd" d="M556.031 374.819H559.957V373.619H556.031V374.819Z" fill="#D9DCFF"/>
<path fill-rule="evenodd" clip-rule="evenodd" d="M556.031 379.294H559.957V378.094H556.031V379.294Z" fill="#D9DCFF"/>
<path fill-rule="evenodd" clip-rule="evenodd" d="M556.031 383.77H559.957V382.57H556.031V383.77Z" fill="#D9DCFF"/>
<path fill-rule="evenodd" clip-rule="evenodd" d="M556.031 388.244H559.957V387.044H556.031V388.244Z" fill="#D9DCFF"/>
<path fill-rule="evenodd" clip-rule="evenodd" d="M556.031 392.719H559.957V391.519H556.031V392.719Z" fill="#D9DCFF"/>
<path fill-rule="evenodd" clip-rule="evenodd" d="M556.031 397.194H559.957V395.994H556.031V397.194Z" fill="#D9DCFF"/>
<path fill-rule="evenodd" clip-rule="evenodd" d="M556.031 401.669H559.957V400.469H556.031V401.669Z" fill="#D9DCFF"/>
<path fill-rule="evenodd" clip-rule="evenodd" d="M556.031 406.144H559.957V404.944H556.031V406.144Z" fill="#D9DCFF"/>
<path fill-rule="evenodd" clip-rule="evenodd" d="M556.031 410.619H559.957V409.418H556.031V410.619Z" fill="#D9DCFF"/>
<path fill-rule="evenodd" clip-rule="evenodd" d="M556.031 415.094H559.957V413.894H556.031V415.094Z" fill="#D9DCFF"/>
<path fill-rule="evenodd" clip-rule="evenodd" d="M556.031 419.569H559.957V418.369H556.031V419.569Z" fill="#D9DCFF"/>
<path fill-rule="evenodd" clip-rule="evenodd" d="M473.896 351.03H494.963V349.526H473.896V351.03Z" fill="#D9DCFF"/>
<path fill-rule="evenodd" clip-rule="evenodd" d="M473.896 356.513H494.963V355.009H473.896V356.513Z" fill="#D9DCFF"/>
<path fill-rule="evenodd" clip-rule="evenodd" d="M473.896 361.997H494.963V360.493H473.896V361.997Z" fill="#D9DCFF"/>
<path fill-rule="evenodd" clip-rule="evenodd" d="M473.896 367.479H494.963V365.975H473.896V367.479Z" fill="#D9DCFF"/>
<path fill-rule="evenodd" clip-rule="evenodd" d="M473.896 372.963H494.963V371.459H473.896V372.963Z" fill="#D9DCFF"/>
<path fill-rule="evenodd" clip-rule="evenodd" d="M473.896 378.446H494.963V376.942H473.896V378.446Z" fill="#D9DCFF"/>
<path fill-rule="evenodd" clip-rule="evenodd" d="M473.896 383.929H494.963V382.425H473.896V383.929Z" fill="#D9DCFF"/>
<path fill-rule="evenodd" clip-rule="evenodd" d="M473.896 389.413H494.963V387.909H473.896V389.413Z" fill="#D9DCFF"/>
<path fill-rule="evenodd" clip-rule="evenodd" d="M473.896 394.895H494.963V393.391H473.896V394.895Z" fill="#D9DCFF"/>
<path fill-rule="evenodd" clip-rule="evenodd" d="M473.896 400.379H494.963V398.875H473.896V400.379Z" fill="#D9DCFF"/>
<path fill-rule="evenodd" clip-rule="evenodd" d="M473.896 405.862H494.963V404.358H473.896V405.862Z" fill="#D9DCFF"/>
<path fill-rule="evenodd" clip-rule="evenodd" d="M160.177 2.6924C159.482 2.6924 158.904 2.13951 158.877 1.43463C158.849 0.711422 159.408 0.102193 160.126 0.0733694C161.373 0.023583 162.624 0 163.876 0H164.081C164.8 0 165.383 0.586956 165.383 1.31017C165.383 2.03338 164.8 2.62034 164.081 2.62034H163.876C162.658 2.62034 161.442 2.64261 160.229 2.69109C160.212 2.6924 160.194 2.6924 160.177 2.6924ZM173.18 3.02256C173.145 3.02256 173.109 3.02125 173.072 3.01863C171.788 2.9125 170.504 2.82472 169.219 2.75922C168.501 2.72253 167.949 2.10806 167.985 1.38485C168.021 0.662945 168.64 0.0969525 169.349 0.142808C170.662 0.209627 171.974 0.298718 173.286 0.407462C174.003 0.46642 174.535 1.09923 174.477 1.81982C174.421 2.50504 173.851 3.02256 173.18 3.02256ZM151.113 3.56104C150.482 3.56104 149.929 3.09986 149.829 2.45264C149.718 1.73728 150.204 1.06779 150.914 0.956423C152.201 0.754657 153.526 0.583025 154.853 0.446768C155.573 0.356366 156.208 0.896155 156.281 1.61544C156.354 2.33603 155.835 2.97932 155.119 3.05269C153.836 3.18502 152.556 3.3501 151.315 3.54532C151.247 3.5558 151.18 3.56104 151.113 3.56104ZM182.233 4.05104C182.172 4.05104 182.11 4.04711 182.051 4.03794C180.771 3.85845 179.488 3.69075 178.206 3.53877C177.492 3.4536 176.982 2.80114 177.066 2.08317C177.15 1.36389 177.802 0.847679 178.511 0.93546C179.812 1.09006 181.112 1.26038 182.411 1.44381C183.123 1.54469 183.619 2.20632 183.52 2.92299C183.429 3.57807 182.87 4.05104 182.233 4.05104ZM191.225 5.50795C191.15 5.50795 191.073 5.50271 190.995 5.4883C189.722 5.25902 188.445 5.0376 187.165 4.82535C186.456 4.70875 185.975 4.03401 186.091 3.31997C186.207 2.60724 186.876 2.12116 187.587 2.24039C188.88 2.45395 190.168 2.67798 191.453 2.90857C192.16 3.03566 192.631 3.71564 192.504 4.42837C192.393 5.0638 191.843 5.50795 191.225 5.50795ZM142.235 5.5787C141.676 5.5787 141.159 5.21316 140.99 4.64586C140.783 3.95409 141.172 3.22301 141.86 3.01339C143.111 2.63475 144.406 2.28493 145.709 1.97573C146.406 1.81065 147.109 2.24694 147.273 2.95181C147.438 3.65537 147.003 4.36024 146.305 4.52663C145.054 4.82273 143.811 5.15813 142.611 5.52236C142.486 5.56036 142.36 5.5787 142.235 5.5787ZM200.167 7.22951C200.081 7.22951 199.992 7.22165 199.905 7.20331C198.634 6.94258 197.364 6.68841 196.091 6.44079C195.386 6.30322 194.925 5.61669 195.06 4.90527C195.197 4.19516 195.874 3.73267 196.586 3.86762C197.865 4.11655 199.145 4.37334 200.425 4.63538C201.129 4.7795 201.584 5.47257 201.441 6.18138C201.315 6.80109 200.772 7.22951 200.167 7.22951ZM133.787 8.9799C133.312 8.9799 132.855 8.71786 132.626 8.26323C132.301 7.61732 132.556 6.8286 133.197 6.50237C134.387 5.89445 135.611 5.32715 136.835 4.81618C137.501 4.53842 138.26 4.85548 138.536 5.52367C138.81 6.19186 138.495 6.95831 137.831 7.23606C136.669 7.72213 135.506 8.26061 134.375 8.8384C134.186 8.93535 133.985 8.9799 133.787 8.9799ZM209.063 9.17249C208.967 9.17249 208.869 9.1607 208.77 9.13843C207.507 8.84626 206.242 8.56064 204.977 8.28289C204.275 8.12698 203.83 7.42997 203.984 6.72248C204.137 6.01629 204.831 5.57084 205.532 5.72282C206.808 6.00319 208.082 6.29012 209.355 6.58491C210.055 6.74737 210.492 7.45093 210.331 8.1558C210.193 8.76241 209.656 9.17249 209.063 9.17249ZM217.911 11.3395C217.804 11.3395 217.695 11.3264 217.586 11.2976C216.33 10.9727 215.074 10.6556 213.816 10.3451C213.117 10.1735 212.69 9.46335 212.86 8.7611C213.031 8.05754 213.741 7.62911 214.434 7.80074C215.703 8.11387 216.97 8.43356 218.234 8.7611C218.93 8.94059 219.349 9.65463 219.171 10.3556C219.02 10.9465 218.491 11.3395 217.911 11.3395ZM226.704 13.7332C226.586 13.7332 226.466 13.7175 226.348 13.6834C225.1 13.3257 223.852 12.9759 222.6 12.6326C221.908 12.4427 221.498 11.7234 221.686 11.0251C221.876 10.3267 222.592 9.91667 223.284 10.1053C224.544 10.4499 225.802 10.8023 227.06 11.1626C227.751 11.3605 228.151 12.085 227.955 12.7807C227.792 13.3572 227.27 13.7332 226.704 13.7332ZM126.067 13.8288C125.672 13.8288 125.284 13.6506 125.027 13.31C124.594 12.7322 124.707 11.9107 125.281 11.4745C126.338 10.67 127.443 9.8957 128.566 9.16987C129.172 8.77944 129.975 8.95631 130.364 9.56554C130.752 10.1735 130.576 10.9845 129.971 11.3749C128.904 12.064 127.854 12.8017 126.851 13.5642C126.615 13.7437 126.34 13.8288 126.067 13.8288ZM235.434 16.3575C235.304 16.3575 235.174 16.3378 235.045 16.2972C233.807 15.9068 232.567 15.5242 231.324 15.1482C230.637 14.9399 230.247 14.2088 230.454 13.5157C230.66 12.8226 231.389 12.4322 232.075 12.6392C233.326 13.0178 234.574 13.403 235.82 13.7961C236.508 14.0123 236.889 14.7459 236.675 15.4377C236.501 15.9972 235.987 16.3575 235.434 16.3575ZM94.6326 17.7973C93.9911 17.7973 93.4315 17.3191 93.3456 16.6601C93.2506 15.9421 93.7516 15.2831 94.4635 15.1888C95.7935 15.0106 97.1547 14.9123 98.5094 14.894H98.5263C99.2369 14.894 99.8186 15.4692 99.8277 16.1871C99.8368 16.9103 99.2616 17.5052 98.5432 17.5143C97.2926 17.5314 96.0342 17.6231 94.8057 17.7868C94.7485 17.7934 94.6899 17.7973 94.6326 17.7973ZM107.538 18.6516C107.426 18.6516 107.313 18.6358 107.2 18.6057C106 18.2795 104.765 18.024 103.53 17.8432C102.818 17.7397 102.325 17.0754 102.429 16.3588C102.532 15.6434 103.19 15.1495 103.904 15.2504C105.241 15.4456 106.577 15.7233 107.877 16.0745C108.57 16.2631 108.981 16.9824 108.795 17.6807C108.638 18.2651 108.113 18.6516 107.538 18.6516ZM244.091 19.2136C243.951 19.2136 243.809 19.1914 243.669 19.1429C242.443 18.7197 241.213 18.3031 239.981 17.8943C239.299 17.6676 238.928 16.9274 239.153 16.2395C239.377 15.553 240.111 15.177 240.797 15.4063C242.038 15.819 243.276 16.2369 244.514 16.664C245.193 16.8986 245.555 17.644 245.322 18.3279C245.137 18.8717 244.632 19.2136 244.091 19.2136ZM119.357 20.0115C119.048 20.0115 118.737 19.9002 118.488 19.6761C117.953 19.1927 117.909 18.3633 118.389 17.8262C119.269 16.8383 120.214 15.8675 121.196 14.9385C121.719 14.4446 122.544 14.4695 123.035 14.9975C123.527 15.5242 123.502 16.3535 122.978 16.8488C122.05 17.7266 121.157 18.645 120.326 19.5765C120.069 19.8648 119.714 20.0115 119.357 20.0115ZM85.8979 20.2775C85.4021 20.2775 84.9271 19.9892 84.7097 19.5032C84.4156 18.8428 84.7097 18.0672 85.3656 17.7711C86.5889 17.2195 87.8694 16.7374 89.1734 16.3378C89.8579 16.1256 90.588 16.5186 90.7975 17.2117C91.0057 17.9035 90.6179 18.6345 89.9308 18.8455C88.731 19.2123 87.5532 19.6552 86.4301 20.1622C86.2571 20.2408 86.0762 20.2775 85.8979 20.2775ZM252.67 22.3069C252.52 22.3069 252.365 22.2807 252.215 22.2244C251 21.7671 249.781 21.3164 248.562 20.8736C247.885 20.6286 247.535 19.8779 247.779 19.1979C248.022 18.5166 248.768 18.1655 249.444 18.4092C250.674 18.8546 251.9 19.3093 253.125 19.7691C253.799 20.022 254.141 20.7767 253.89 21.454C253.693 21.982 253.198 22.3069 252.67 22.3069ZM78.1222 25.0098C77.7344 25.0098 77.3518 24.8369 77.0954 24.5067C76.653 23.9355 76.7545 23.1127 77.3206 22.6672C78.3474 21.8602 79.4613 21.078 80.6313 20.343C81.2416 19.9578 82.0445 20.1452 82.4245 20.7609C82.8045 21.3741 82.6197 22.1825 82.0094 22.565C80.9163 23.2529 79.8765 23.9813 78.9226 24.7321C78.6844 24.9194 78.402 25.0098 78.1222 25.0098ZM261.159 25.64C260.997 25.64 260.831 25.6086 260.67 25.543C259.469 25.0517 258.265 24.5683 257.057 24.0914C256.388 23.8267 256.058 23.0668 256.321 22.3934C256.584 21.72 257.336 21.3872 258.007 21.6518C259.224 22.1314 260.438 22.6201 261.65 23.1153C262.316 23.3878 262.636 24.1516 262.366 24.8225C262.16 25.3308 261.673 25.64 261.159 25.64ZM114.045 27.4336C113.83 27.4336 113.612 27.3799 113.41 27.2672C112.784 26.9135 112.56 26.1143 112.912 25.4841C113.557 24.322 114.278 23.1664 115.054 22.0475C115.061 22.0383 115.068 22.0279 115.076 22.0174C114.031 21.3689 112.974 20.8015 111.89 20.3037C111.237 20.0037 110.948 19.2267 111.246 18.5677C111.544 17.9087 112.317 17.6191 112.97 17.9205C114.197 18.4839 115.393 19.1298 116.526 19.8399C117.132 20.2198 117.335 21.0308 116.963 21.644C116.941 21.6794 116.919 21.7134 116.895 21.7449C117.46 22.1654 117.593 22.9659 117.188 23.549C116.462 24.5958 115.786 25.678 115.183 26.7641C114.943 27.1926 114.501 27.4336 114.045 27.4336ZM122.764 28.221C122.402 28.221 122.042 28.0691 121.784 27.773C120.961 26.8231 120.077 25.9217 119.156 25.0924C118.619 24.6102 118.574 23.7822 119.053 23.2424C119.53 22.7026 120.354 22.6554 120.89 23.1389C121.891 24.0403 122.851 25.019 123.744 26.0488C124.217 26.5938 124.162 27.4218 123.621 27.8974C123.373 28.1149 123.069 28.221 122.764 28.221ZM269.553 29.2181C269.377 29.2181 269.199 29.1814 269.029 29.1067C267.842 28.58 266.652 28.0612 265.459 27.5489C264.798 27.2659 264.489 26.4955 264.772 25.8313C265.052 25.1644 265.819 24.8552 266.478 25.1382C267.682 25.6544 268.882 26.1772 270.079 26.7091C270.736 27 271.034 27.7743 270.744 28.4359C270.529 28.9259 270.053 29.2181 269.553 29.2181ZM71.8783 31.6327C71.6271 31.6327 71.3733 31.5593 71.1495 31.4074C70.5548 30.9999 70.3999 30.185 70.8033 29.5862C71.5568 28.4687 72.4092 27.3838 73.3384 26.3606C73.8225 25.8247 74.6437 25.788 75.1759 26.2767C75.7069 26.7654 75.7446 27.5935 75.2592 28.128C74.4146 29.0582 73.6403 30.0435 72.9571 31.0575C72.7059 31.4323 72.296 31.6327 71.8783 31.6327ZM277.838 33.0411C277.65 33.0411 277.459 33.0005 277.278 32.9127C276.108 32.352 274.934 31.7978 273.757 31.2515C273.103 30.9488 272.818 30.1706 273.119 29.5129C273.419 28.8552 274.192 28.5682 274.846 28.8709C276.034 29.4225 277.219 29.9819 278.398 30.5492C279.048 30.8597 279.322 31.6419 279.013 32.2957C278.79 32.766 278.323 33.0411 277.838 33.0411ZM127.735 35.8711C127.249 35.8711 126.78 35.5947 126.559 35.1204C126.027 33.9884 125.422 32.8748 124.759 31.8109C124.378 31.1964 124.563 30.3881 125.172 30.0042C125.781 29.6216 126.585 29.8063 126.965 30.4195C127.682 31.5711 128.337 32.7765 128.912 34.0015C129.219 34.6553 128.942 35.4361 128.291 35.7466C128.112 35.8305 127.923 35.8711 127.735 35.8711ZM110.647 35.9104C110.541 35.9104 110.433 35.8973 110.325 35.8698C109.628 35.6903 109.208 34.9763 109.386 34.2753C109.717 32.9756 110.132 31.6694 110.619 30.3907C110.876 29.7146 111.628 29.3753 112.3 29.636C112.971 29.8954 113.306 30.654 113.05 31.3288C112.597 32.5131 112.214 33.7237 111.908 34.9252C111.757 35.5174 111.228 35.9104 110.647 35.9104ZM286.004 37.1184C285.803 37.1184 285.599 37.0712 285.408 36.973C284.257 36.3742 283.1 35.7846 281.939 35.2016C281.297 34.8793 281.035 34.0919 281.355 33.4447C281.677 32.7975 282.456 32.5341 283.102 32.8564C284.272 33.4447 285.439 34.0395 286.601 34.6435C287.24 34.975 287.491 35.765 287.162 36.4083C286.93 36.8603 286.475 37.1184 286.004 37.1184ZM68.1889 39.9601C68.0835 39.9601 67.9768 39.9484 67.8714 39.9208C67.1738 39.7453 66.7509 39.0325 66.9266 38.3316C67.2623 36.9861 67.6931 35.6707 68.2097 34.4207C68.4856 33.7526 69.2482 33.4368 69.9106 33.7133C70.5743 33.991 70.8892 34.7588 70.6133 35.4257C70.1462 36.5576 69.7544 37.7499 69.4499 38.9697C69.3016 39.5645 68.7719 39.9601 68.1889 39.9601ZM294.04 41.4485C293.826 41.4485 293.609 41.3961 293.408 41.2834C292.276 40.6506 291.139 40.023 289.996 39.4046C289.364 39.0614 289.127 38.2661 289.468 37.6294C289.809 36.9926 290.597 36.7528 291.231 37.0974C292.383 37.7211 293.531 38.3539 294.673 38.9932C295.302 39.3444 295.528 40.1423 295.178 40.7751C294.941 41.2061 294.498 41.4485 294.04 41.4485ZM130.438 44.5981C129.811 44.5981 129.259 44.1409 129.155 43.4976C128.956 42.266 128.679 41.0292 128.33 39.8213C128.13 39.1269 128.527 38.3997 129.216 38.198C129.91 37.9962 130.628 38.3958 130.83 39.0902C131.208 40.4004 131.509 41.742 131.724 43.0783C131.84 43.7924 131.357 44.4645 130.648 44.5811C130.578 44.5929 130.507 44.5981 130.438 44.5981ZM109.683 44.9951C108.996 44.9951 108.422 44.454 108.384 43.7544C108.358 43.2683 108.345 42.7822 108.345 42.2962C108.345 41.7315 108.363 41.1694 108.396 40.6113C108.415 40.2877 108.439 39.9628 108.469 39.6405C108.534 38.9186 109.162 38.4024 109.882 38.4535C110.598 38.519 111.126 39.157 111.061 39.8763C111.034 40.1724 111.012 40.4698 110.995 40.7685C110.965 41.2742 110.948 41.7839 110.948 42.2962C110.948 42.7338 110.96 43.174 110.983 43.6142C111.022 44.3361 110.472 44.9532 109.753 44.9925C109.73 44.9938 109.706 44.9951 109.683 44.9951ZM301.932 46.0367C301.705 46.0367 301.474 45.9777 301.265 45.8507C300.153 45.1799 299.037 44.5169 297.916 43.8618C297.294 43.4989 297.083 42.6971 297.444 42.0708C297.806 41.4446 298.601 41.2336 299.223 41.5952C300.355 42.2569 301.482 42.9264 302.604 43.6037C303.219 43.9758 303.42 44.7816 303.05 45.4013C302.806 45.8114 302.375 46.0367 301.932 46.0367ZM67.3326 49.058C66.639 49.058 66.0625 48.5077 66.0338 47.8028C66.0117 47.2656 66 46.7298 66 46.1979C66 45.3672 66.0273 44.5444 66.0846 43.7295C66.134 43.0076 66.7483 42.4704 67.4731 42.5137C68.1902 42.5648 68.7303 43.191 68.6808 43.9116C68.6275 44.6676 68.6027 45.4288 68.6027 46.1979C68.6027 46.6931 68.6131 47.1923 68.634 47.6928C68.6639 48.416 68.1056 49.0265 67.3886 49.0566C67.3703 49.058 67.3508 49.058 67.3326 49.058ZM309.669 50.887C309.427 50.887 309.182 50.8188 308.965 50.6773C307.876 49.9685 306.783 49.2689 305.684 48.5758C305.075 48.1932 304.89 47.3836 305.272 46.7717C305.653 46.1586 306.457 45.9712 307.065 46.3551C308.174 47.0534 309.277 47.7609 310.377 48.4762C310.979 48.8693 311.154 49.679 310.763 50.2869C310.514 50.676 310.096 50.887 309.669 50.887ZM130.398 53.7143C130.29 53.7143 130.181 53.6999 130.071 53.6724C129.375 53.4903 128.957 52.7749 129.137 52.074C129.382 51.1293 129.505 50.0406 129.527 48.6492L129.53 48.4907C129.538 47.7727 130.12 47.1962 130.83 47.1962H130.846C131.565 47.2041 132.141 47.7976 132.133 48.5208L132.13 48.6859C132.104 50.2961 131.955 51.58 131.658 52.7317C131.506 53.3226 130.977 53.7143 130.398 53.7143ZM112.057 53.7641C111.605 53.7641 111.166 53.5283 110.926 53.1064C110.257 51.9298 109.708 50.6197 109.293 49.2152C109.088 48.5208 109.481 47.7923 110.17 47.5866C110.862 47.377 111.584 47.7753 111.787 48.4684C112.145 49.6803 112.615 50.8018 113.185 51.8028C113.541 52.4316 113.325 53.2322 112.702 53.5911C112.498 53.7091 112.275 53.7641 112.057 53.7641ZM317.236 56.0005C316.979 56.0005 316.72 55.9232 316.493 55.7647C315.431 55.0192 314.362 54.2816 313.288 53.5531C312.692 53.1483 312.536 52.3334 312.937 51.7346C313.34 51.1346 314.147 50.976 314.743 51.3809C315.828 52.1172 316.908 52.8627 317.981 53.6147C318.57 54.0287 318.716 54.845 318.305 55.4385C318.052 55.804 317.648 56.0005 317.236 56.0005ZM68.6782 58.1112C68.0939 58.1112 67.5629 57.7116 67.4159 57.1142C67.0879 55.7778 66.8147 54.4493 66.6025 53.1693C66.4841 52.4552 66.963 51.7805 67.6723 51.6613C68.375 51.5394 69.0517 52.0229 69.1688 52.7382C69.3705 53.9527 69.6308 55.2144 69.9431 56.4879C70.1149 57.1902 69.6894 57.9003 68.9905 58.0732C68.8864 58.0994 68.7823 58.1112 68.6782 58.1112ZM118.928 59.4044C118.815 59.4044 118.7 59.3886 118.586 59.3572C117.12 58.955 115.795 58.3117 114.649 57.4443C114.074 57.0094 113.958 56.1879 114.39 55.6088C114.822 55.0323 115.638 54.9144 116.213 55.3494C117.096 56.0176 118.124 56.5154 119.269 56.8286C119.962 57.0185 120.372 57.7391 120.184 58.4375C120.025 59.0205 119.5 59.4044 118.928 59.4044ZM124.081 59.5891C123.476 59.5891 122.933 59.1633 122.809 58.5423C122.664 57.8335 123.117 57.1417 123.821 56.9963C124.984 56.7565 126.002 56.3097 126.848 55.6704C127.423 55.2341 128.239 55.352 128.67 55.9285C129.102 56.5063 128.986 57.3277 128.412 57.7627C127.257 58.6392 125.888 59.2445 124.344 59.5629C124.256 59.5812 124.168 59.5891 124.081 59.5891ZM324.616 61.3775C324.344 61.3775 324.07 61.291 323.837 61.1141C322.801 60.332 321.761 59.5563 320.712 58.7886C320.132 58.3641 320.003 57.5439 320.426 56.9583C320.848 56.3739 321.662 56.2442 322.244 56.67C323.302 57.4457 324.355 58.2278 325.4 59.0192C325.974 59.4541 326.091 60.2756 325.659 60.8534C325.402 61.1967 325.012 61.3775 324.616 61.3775ZM71.4905 66.8317C70.9725 66.8317 70.4819 66.5186 70.2789 66.0037C69.7805 64.7354 69.3198 63.4724 68.9099 62.25C68.6795 61.5648 69.0452 60.8207 69.7258 60.5901C70.4051 60.3542 71.1456 60.725 71.3746 61.4115C71.7703 62.592 72.2166 63.8118 72.6994 65.0381C72.9636 65.7115 72.637 66.4727 71.9694 66.7387C71.8119 66.8016 71.6492 66.8317 71.4905 66.8317ZM331.8 67.0177C331.512 67.0177 331.222 66.9221 330.981 66.7269C329.975 65.9054 328.963 65.0931 327.945 64.2887C327.379 63.8419 327.28 63.0178 327.724 62.4492C328.168 61.878 328.985 61.781 329.551 62.2265C330.579 63.0401 331.603 63.8615 332.62 64.6896C333.178 65.1442 333.264 65.9696 332.812 66.533C332.555 66.8527 332.179 67.0177 331.8 67.0177ZM338.765 72.9227C338.462 72.9227 338.157 72.8166 337.91 72.5991C336.935 71.7422 335.954 70.8919 334.966 70.0508C334.418 69.5831 334.351 68.755 334.815 68.2035C335.28 67.6519 336.101 67.5811 336.649 68.0502C337.647 68.9018 338.639 69.7599 339.622 70.6273C340.164 71.1029 340.219 71.9309 339.746 72.4759C339.488 72.772 339.128 72.9227 338.765 72.9227ZM75.2787 75.1722C74.805 75.1722 74.3496 74.9128 74.1192 74.4608C73.5128 73.2725 72.9311 72.0789 72.378 70.8867C72.0735 70.2316 72.3546 69.452 73.0053 69.1455C73.6559 68.8402 74.4302 69.1219 74.7348 69.777C75.2761 70.9404 75.8422 72.1038 76.4343 73.2633C76.7636 73.9066 76.5111 74.6966 75.8722 75.0281C75.6809 75.1264 75.4791 75.1722 75.2787 75.1722ZM345.499 79.091C345.178 79.091 344.857 78.9717 344.605 78.7333C343.667 77.8384 342.72 76.9514 341.766 76.0723C341.235 75.5849 341.198 74.7556 341.684 74.2224C342.168 73.6878 342.99 73.6485 343.521 74.1398C344.487 75.0281 345.445 75.9243 346.395 76.8283C346.917 77.3262 346.939 78.1555 346.446 78.6822C346.189 78.9534 345.844 79.091 345.499 79.091ZM79.7541 83.1734C79.3156 83.1734 78.8874 82.9507 78.6415 82.5459C77.953 81.4113 77.2828 80.2688 76.6322 79.1211C76.2756 78.4922 76.4929 77.693 77.1176 77.334C77.7396 76.975 78.5361 77.1938 78.8926 77.8227C79.5303 78.9481 80.1888 80.0683 80.8629 81.1807C81.2377 81.7991 81.0438 82.6048 80.4308 82.9822C80.2187 83.1119 79.9845 83.1734 79.7541 83.1734ZM351.987 85.5173C351.648 85.5173 351.311 85.385 351.055 85.123C350.152 84.1901 349.241 83.2678 348.323 82.3533C347.812 81.8449 347.808 81.0143 348.313 80.5007C348.818 79.9858 349.642 79.9806 350.153 80.4902C351.082 81.4152 352.004 82.3493 352.919 83.2914C353.421 83.8102 353.41 84.6395 352.896 85.1452C352.643 85.3929 352.315 85.5173 351.987 85.5173ZM84.7319 90.8589C84.3193 90.8589 83.9133 90.6624 83.6608 90.2942C82.9151 89.212 82.1786 88.1167 81.4576 87.0122C81.062 86.4082 81.2273 85.5959 81.8285 85.1977C82.431 84.798 83.2366 84.9671 83.6309 85.5711C84.3427 86.6585 85.0663 87.7368 85.8003 88.8032C86.2102 89.3967 86.0619 90.213 85.471 90.6257C85.2459 90.7829 84.9869 90.8589 84.7319 90.8589ZM358.211 92.2005C357.855 92.2005 357.501 92.0538 357.244 91.7668C356.379 90.7986 355.506 89.8396 354.623 88.8884C354.134 88.3591 354.163 87.5298 354.688 87.0358C355.214 86.5432 356.035 86.572 356.527 87.1013C357.419 88.0643 358.302 89.0338 359.178 90.0138C359.66 90.551 359.615 91.379 359.082 91.8638C358.833 92.0891 358.522 92.2005 358.211 92.2005ZM361.699 96.1939C361.335 96.1939 360.973 96.0406 360.715 95.7419L361.649 94.8248L362.646 93.9823L361.649 94.8248L362.683 94.0256C363.153 94.5719 363.094 95.3999 362.551 95.8742C362.305 96.0878 362.001 96.1939 361.699 96.1939ZM90.1078 98.2718C89.7174 98.2718 89.3322 98.095 89.0745 97.7596C88.2833 96.7206 87.4947 95.6633 86.7112 94.5929C86.2857 94.0098 86.4093 93.1897 86.9884 92.7613C87.5688 92.3328 88.3822 92.4573 88.8077 93.039C89.5794 94.0963 90.359 95.1392 91.1398 96.1638C91.577 96.7376 91.4703 97.5604 90.9003 98.0006C90.6635 98.1827 90.385 98.2718 90.1078 98.2718ZM95.8143 105.432C95.4421 105.432 95.0738 105.272 94.8161 104.963C93.9872 103.967 93.1543 102.948 92.3188 101.908C91.8672 101.344 91.9544 100.519 92.5127 100.064C93.0723 99.6108 93.8896 99.6986 94.3437 100.261C95.1688 101.288 95.9926 102.297 96.8111 103.281C97.2731 103.835 97.2002 104.662 96.6498 105.127C96.4064 105.331 96.1097 105.432 95.8143 105.432ZM101.811 112.348C101.457 112.348 101.104 112.204 100.848 111.92C99.9904 110.973 99.1158 109.987 98.227 108.968C97.7533 108.424 97.8067 107.596 98.3467 107.119C98.8881 106.644 99.708 106.696 100.183 107.24C101.061 108.246 101.925 109.22 102.773 110.155C103.257 110.691 103.218 111.519 102.687 112.006C102.437 112.236 102.123 112.348 101.811 112.348ZM108.095 119C107.761 119 107.428 118.872 107.174 118.615C106.299 117.734 105.381 116.786 104.424 115.78C103.927 115.257 103.945 114.428 104.464 113.927C104.984 113.428 105.807 113.445 106.305 113.969C107.248 114.962 108.155 115.895 109.017 116.765C109.524 117.277 109.523 118.108 109.014 118.617C108.759 118.873 108.427 119 108.095 119Z" fill="#BBCFF4"/>
<path fill-rule="evenodd" clip-rule="evenodd" d="M230 13L288 41L287.45 27.039L230 13Z" fill="#2F3788"/>
<path fill-rule="evenodd" clip-rule="evenodd" d="M229 11L299 13.8145L275.985 40L229 11Z" fill="#DC4272"/>
<path fill-rule="evenodd" clip-rule="evenodd" d="M229 11L284.115 29.9187L286.6 39L290 23.1705L229 11Z" fill="#793481"/>
<path fill-rule="evenodd" clip-rule="evenodd" d="M498.85 92L493 118.555L495.148 119L501 92.4473L498.85 92Z" fill="#B8B9F1"/>
<path fill-rule="evenodd" clip-rule="evenodd" d="M518.381 115.405L507.4 84.8034L566.88 62.9234L577.869 93.5474C577.869 93.5474 570.148 106.855 550.584 114.041C531.38 121.099 518.381 115.405 518.381 115.405Z" fill="#CAD8F1"/>
<path fill-rule="evenodd" clip-rule="evenodd" d="M490.404 83.9348C486.435 86.8948 488.749 93.2168 493.69 92.8988L499.24 92.5428L501.838 92.3748L540.252 89.9048C541.209 89.8428 542.129 89.5068 542.9 88.9328L580.338 61.0388C584.309 58.0788 581.993 51.7588 577.054 52.0728L530.493 55.0688C529.535 55.1308 528.615 55.4688 527.846 56.0408L490.404 83.9348Z" fill="#CAD8F1"/>
<path fill-rule="evenodd" clip-rule="evenodd" d="M498.41 92.5968L501.836 92.3748L533.682 74.4988C535.201 73.7088 534.083 72.4828 533.105 73.0488L498.41 92.5968Z" fill="#CAD8F1"/>
<path fill-rule="evenodd" clip-rule="evenodd" d="M495.677 129.028C496.06 128.166 496.38 127.196 496.603 126.15C497.476 122.066 496.569 118.404 494.575 117.978C492.582 117.55 490.259 120.514 489.384 124.6C489.159 125.648 489.057 126.662 489.055 127.608L495.677 129.028Z" fill="#CAD8F1"/>
<path fill-rule="evenodd" clip-rule="evenodd" d="M495.959 119.329C496.126 119.007 496.258 118.637 496.342 118.239C496.675 116.683 496.166 115.255 495.204 115.049C494.242 114.841 493.191 115.935 492.858 117.491C492.772 117.889 492.744 118.281 492.76 118.643L495.959 119.329Z" fill="#CAD8F1"/>
<path fill-rule="evenodd" clip-rule="evenodd" d="M731.128 54.669L733.726 66.819L732.769 67.023L730.172 54.873L731.128 54.669Z" fill="#CAD8F1"/>
<path fill-rule="evenodd" clip-rule="evenodd" d="M722.334 65.4542L727.327 51.5322L700.271 41.5782L695.271 55.5102C695.271 55.5102 698.785 61.5622 707.682 64.8302C716.42 68.0422 722.334 65.4542 722.334 65.4542Z" fill="#CAD8F1"/>
<path fill-rule="evenodd" clip-rule="evenodd" d="M735.059 51.1378C736.864 52.4858 735.814 55.3598 733.566 55.2158L731.038 55.0518L729.86 54.9778L712.385 53.8518C711.95 53.8278 711.531 53.6738 711.181 53.4118L694.149 40.7218C692.342 39.3758 693.399 36.5018 695.645 36.6438L716.823 38.0078C717.259 38.0338 717.678 38.1858 718.029 38.4478L735.059 51.1378Z" fill="#CAD8F1"/>
<path fill-rule="evenodd" clip-rule="evenodd" d="M731.416 55.0774L729.86 54.9774L715.372 46.8454C714.681 46.4854 715.19 45.9294 715.635 46.1854L731.416 55.0774Z" fill="#CAD8F1"/>
<path fill-rule="evenodd" clip-rule="evenodd" d="M732.662 71.6516C732.486 71.2596 732.34 70.8176 732.239 70.3416C731.841 68.4816 732.257 66.8176 733.163 66.6236C734.069 66.4296 735.126 67.7776 735.525 69.6356C735.625 70.1116 735.675 70.5756 735.675 71.0056L732.662 71.6516Z" fill="#CAD8F1"/>
<path fill-rule="evenodd" clip-rule="evenodd" d="M732.532 67.2374C732.458 67.0914 732.398 66.9254 732.358 66.7434C732.208 66.0334 732.44 65.3834 732.879 65.2914C733.316 65.1954 733.793 65.6954 733.943 66.4014C733.983 66.5854 733.995 66.7614 733.987 66.9274L732.532 67.2374Z" fill="#CAD8F1"/>
<mask id="mask0" mask-type="alpha" maskUnits="userSpaceOnUse" x="268" y="124" width="43" height="43">
<path fill-rule="evenodd" clip-rule="evenodd" d="M268 124.512H310.039V166.621H268V124.512Z" fill="white"/>
</mask>
<g mask="url(#mask0)">
<path fill-rule="evenodd" clip-rule="evenodd" d="M268.002 145.827C268.143 157.453 277.671 166.767 289.276 166.619C300.886 166.477 310.179 156.935 310.038 145.307C309.892 133.681 300.367 124.367 288.759 124.513C277.152 124.657 267.86 134.199 268.002 145.827Z" fill="#CAD8F1"/>
</g>
<path fill-rule="evenodd" clip-rule="evenodd" d="M304.248 148.157C304.13 138.519 296.961 130.645 287.719 129.341C288.685 129.129 289.689 129.015 290.715 129.001C299.015 128.897 305.825 135.555 305.929 143.867C305.961 146.615 305.248 149.193 303.99 151.425C304.162 150.359 304.264 149.273 304.248 148.157Z" fill="#B8B9F1"/>
<path fill-rule="evenodd" clip-rule="evenodd" d="M269.896 154.314L308.351 153.842L299.039 176.162L279.755 176.4L269.896 154.314Z" fill="#CAD8F1"/>
<path fill-rule="evenodd" clip-rule="evenodd" d="M289.65 196.999C294.975 196.935 299.24 192.555 299.176 187.223L299.038 176.161L279.756 176.399L279.89 187.459C279.958 192.793 284.326 197.065 289.65 196.999Z" fill="#CAD8F1"/>
<path fill-rule="evenodd" clip-rule="evenodd" d="M279.875 186.157L299.127 185.921L299.149 187.871L279.901 188.111L279.875 186.157Z" fill="#CAD8F1"/>
<path fill-rule="evenodd" clip-rule="evenodd" d="M279.85 184.208L299.102 183.972L299.126 185.92L279.876 186.158L279.85 184.208Z" fill="#CAD8F1"/>
<path fill-rule="evenodd" clip-rule="evenodd" d="M279.826 182.257L299.078 182.019L299.1 183.971L279.85 184.209L279.826 182.257Z" fill="#CAD8F1"/>
<path fill-rule="evenodd" clip-rule="evenodd" d="M279.803 180.304L299.055 180.066L299.077 182.018L279.827 182.258L279.803 180.304Z" fill="#CAD8F1"/>
<path fill-rule="evenodd" clip-rule="evenodd" d="M279.777 178.351L299.032 178.115L299.053 180.065L279.803 180.305L279.777 178.351Z" fill="#CAD8F1"/>
<path fill-rule="evenodd" clip-rule="evenodd" d="M279.756 176.4L299.006 176.162L299.03 178.114L279.778 178.352L279.756 176.4Z" fill="#CAD8F1"/>
<path fill-rule="evenodd" clip-rule="evenodd" d="M293.728 196.007C292.493 196.613 291.119 196.981 289.652 196.999C288.184 197.019 286.803 196.681 285.551 196.111C285.956 194.231 287.605 192.813 289.602 192.789C291.598 192.765 293.277 194.141 293.728 196.007Z" fill="#CAD8F1"/>
<mask id="mask1" mask-type="alpha" maskUnits="userSpaceOnUse" x="792" y="90" width="45" height="62">
<path fill-rule="evenodd" clip-rule="evenodd" d="M792.324 90.5452H836.328V151.578H792.324V90.5452Z" fill="white"/>
</mask>
<g mask="url(#mask1)">
<path fill-rule="evenodd" clip-rule="evenodd" d="M801.906 107.083L799.019 93.6792L813.502 90.5452L816.391 103.947C816.854 106.111 818.483 107.809 820.597 108.441C828.619 110.833 835.01 117.725 836.158 126.835C837.458 137.113 831.209 147.117 821.402 150.407C808.736 154.659 795.561 146.897 792.822 134.191C791.067 126.039 794.07 117.983 799.95 112.887C801.609 111.449 802.369 109.231 801.906 107.083Z" fill="#CAD8F1"/>
</g>
<path fill-rule="evenodd" clip-rule="evenodd" d="M817.24 139.527C816.982 138.329 817.741 137.149 818.937 136.891C820.131 136.633 821.307 137.395 821.566 138.591C821.824 139.787 821.065 140.969 819.867 141.227C818.675 141.485 817.497 140.725 817.24 139.527Z" fill="#E5E9FF"/>
<path fill-rule="evenodd" clip-rule="evenodd" d="M810.65 135.204C810.391 134.006 811.152 132.828 812.343 132.57C813.539 132.31 814.719 133.07 814.977 134.268C815.234 135.466 814.474 136.646 813.28 136.904C812.084 137.162 810.908 136.4 810.65 135.204Z" fill="#E5E9FF"/>
<path fill-rule="evenodd" clip-rule="evenodd" d="M809.265 124.956C809.007 123.758 809.768 122.58 810.964 122.32C812.156 122.062 813.334 122.822 813.591 124.02C813.849 125.216 813.088 126.398 811.894 126.656C810.7 126.914 809.522 126.152 809.265 124.956Z" fill="#E5E9FF"/>
<path fill-rule="evenodd" clip-rule="evenodd" d="M807.564 130.573C807.398 129.803 807.887 129.045 808.656 128.879C809.422 128.713 810.183 129.201 810.347 129.971C810.512 130.741 810.025 131.501 809.255 131.667C808.488 131.833 807.731 131.343 807.564 130.573Z" fill="#E5E9FF"/>
<path fill-rule="evenodd" clip-rule="evenodd" d="M812.76 140.392C812.639 139.838 812.992 139.292 813.547 139.176C814.1 139.054 814.643 139.406 814.761 139.958C814.881 140.514 814.529 141.058 813.976 141.18C813.425 141.298 812.882 140.946 812.76 140.392Z" fill="#E5E9FF"/>
<path fill-rule="evenodd" clip-rule="evenodd" d="M803.721 122.466C803.6 121.914 803.953 121.368 804.508 121.25C805.059 121.13 805.602 121.482 805.722 122.034C805.842 122.59 805.49 123.134 804.935 123.252C804.386 123.372 803.843 123.02 803.721 122.466Z" fill="#E5E9FF"/>
<path fill-rule="evenodd" clip-rule="evenodd" d="M815.66 129.179C815.54 128.629 815.892 128.081 816.445 127.963C816.998 127.841 817.541 128.193 817.663 128.747C817.78 129.303 817.431 129.845 816.876 129.967C816.325 130.083 815.78 129.731 815.66 129.179Z" fill="#E5E9FF"/>
<path fill-rule="evenodd" clip-rule="evenodd" d="M794.311 89.0792L815.897 84.4072L817.055 89.7792L795.469 94.4472L794.311 89.0792Z" fill="#CAD8F1"/>
</svg>
