<svg fill="none" viewBox="100 0 1431 671" xmlns="http://www.w3.org/2000/svg"><g opacity=".5"><g clip-rule="evenodd"><path d="m635 261c0 54.1 14.6 98 32.5 98 18 0 32.5-43.9 32.5-98s-14.6-98-32.5-98c-18 0-32.5 43.9-32.5 98m123.7-84.5h12.4v-35h27.4v18.4h8.5v161.8h-34.8v20.6h-55.2v-108.3h41.7v-57.4zm93.3-15.4h6.3v-13h14.2v36.4h19v10h5.5v142.5h-5.5v12h-44.5v-180.9h5zm-249.5-53.1h6.7v36.4h4.3v-9.3h10.2v190.5h-22.2v-1h-34.5z" fill="#b7c6e0" fill-rule="evenodd"/><path d="m1185.7 352c.3 1.5.4 3 .3 4.6l30.2 3.3v-10.9a19 19 0 0 1 -8.2 8 8 8 0 0 1 -3 .5c-1 0-2-.2-3-.6a6 6 0 0 1 -2.3.4c-.9 0-2-.2-3.2-.6-7-2.4-18.1-12.8-32.5-48v43.3h-16l.2-2.3v-2.3a11.7 11.7 0 0 0 -23.4 0v2.3c0 .6 0 1.1.2 1.6l19.6.7c13.8.4 27.3 0 41.2 0zm17.1 3.1v.5a6 6 0 0 0 4.6 0c4-1.6 7.1-6.7 8.8-9.8v-1a24 24 0 0 1 -13.4 10.3zm-1.6-1c-15-5.6-31.7-40.3-37.2-52.3v2.6c15.6 39.4 27.2 48.8 32.9 50.8 2.2.8 3.6.6 4.3.4v-1.6zm-139.2-93.1v2.8l52.7 18v-2l-.4-1zm29-6.4v1.4zm-4-1.9 1 .5zm-128 35.4c-13.4 9-27.2 16.5-41 22.3 13.3-3.5 28.2-8.2 43-14.3 6.7-5.8 23.6-23.9 33.5-34.6v-1.5c-8.1 7.6-20.2 18-35.5 28.2zm27.2 12.7c3-2.2 5.7-4.5 8.3-6.7v-11.8a207 207 0 0 1 -22 11.9c-17.2 8-37.2 15-59.5 20.4-6.5 1.7-13 3-19 4.3a180.7 180.7 0 0 1 -46 7l.3 1.8.1.1c67.9 12.4 112.4-7.8 137.8-27zm8.3-35a939.7 939.7 0 0 1 -25.8 27c8.9-4.1 17.6-8.8 25.8-14zm103.7 76.8v7.5c5.5.4 11 .6 16.4.8v-57.6l-52.7-16.5v65.8zm-69.6 0 .1-2v-3.6a13.5 13.5 0 0 0 -7.7-12.2 13.6 13.6 0 0 0 -7.7 12.2v3.5c0 .7 0 1.3.2 2h15zm-213.6-6.1 166.1 6h13.5v-44.7a152.8 152.8 0 0 1 -62.3 31.6c-13.6 3.4-28 5.1-43.2 5.1-13.2 0-27-1.3-41.1-3.9a9.1 9.1 0 0 1 -8.7 5.9c-5.1 0-9.2-3.8-9.2-8.5 0-4.6 4.1-8.4 9.2-8.4 3 0 5.7 1.4 7.4 3.5 7.2-.7 24.7-2.6 46.3-6.9 26-7.4 48.1-19.5 64.5-30.4 16.4-11 29.1-22.2 37-29.8v-31l5.4-18.1 4.5 18.1h2.4l4-4.7v-6.7l3-1.2 8.5-17.8 10.8-3 2.2 4.4 2-7 5.1 20.3 3.7.2 3-4.8 3.5 10.3 4.2-14.2 4.7 18.6.5.3v24.5l24.6 9.9v-2.1l4.9 2.3v1.7l19.3 7.8v-.5c-.1-.7 0-1.3.7-1.9.8-.7 2-1 2.8-.8 1.2.4 3 1.6 3 3 .4 1.1.6 2.1.7 3.1l5.4 2.2 9.3-18.6 9-1.3 5.3 9.3 2.2-8 4.7 13.6h-.3l1.7.8 2.7-9.8 4.7 13.6h-.2v2.7h1.5v26.5c2.5 5.8 22 49.8 38.2 55l.6.3v.4a23 23 0 0 0 13-11.2l.4.2v-1h6.8v31.4h-6.8v-9.2l-26 .8c2.6 1.4 5 2.8 6.9 5.4.4.9.8 1.7.8 2.5 0 3.2.4 6.9-.4 10.1-18.4-.4-37.1.5-55.5-.4-14.3-.4-29-1.6-43.2-1.6l-.5-3.5v14.1h-127.6v-37.1l-155.7-3.2z" fill="#b7c6e0" fill-rule="evenodd"/><path d="m920 287h-2v-10h2zm6 0h-2v-10h2zm4 0h-2v-10h2zm6 0h-2v-10h2zm5 0h-2v-10h2zm4 0h-2v-10h2zm7 0h-2v-10h2zm-34 61.7v-8.7h2v8.7c0 .7-.5 1.3-1 1.3-.6 0-1-.6-1-1.3m6 0v-8.7h2v8.7c0 .7-.5 1.3-1 1.3-.6 0-1-.6-1-1.3m4 0v-8.7h2v8.7c0 .7-.5 1.3-1 1.3-.6 0-1-.6-1-1.3m6 0v-8.7h2v8.7c0 .7-.4 1.3-1 1.3s-1-.6-1-1.3m5 0v-8.7h2v8.7c0 .7-.4 1.3-1 1.3s-1-.6-1-1.3m4 0v-8.7h2v8.7c0 .7-.4 1.3-1 1.3s-1-.6-1-1.3m7 0v-8.7h2v8.7c0 .7-.4 1.3-1 1.3s-1-.6-1-1.3m2-12.7h-2v-10h2zm-9 0v-10h2v10zm-2 0h-2v-10h2zm-5 0h-2v-10h2zm-6 0h-2v-10h2zm-4 0h-2v-10h2zm-6 0h-2v-10h2zm0-46v36h-2v-36zm6 36h-2v-36h2zm4 0h-2v-36h2zm6 0h-2v-36h2zm3 0v-36h2v36zm6 0h-2v-36h2zm7 0h-2v-36h2zm-18-179a5 5 0 1 0 0-10 5 5 0 0 0 0 10m0-20a15 15 0 1 1 0 30 15 15 0 0 1 0-30" fill="#b7c6e0" fill-rule="evenodd"/><path d="m935 141a1 1 0 1 1 0 2 1 1 0 0 1 0-2m-11.3-73.7c0 .5.4 1 1 1 .5 0 .9-.5.9-1v-11.3c0-.5-.4-1-1-1-.5 0-.9.5-.9 1zm3.8 0c0 .5.5 1 1 1s.9-.5.9-1v-11.3c0-.5-.4-1-1-1-.4 0-.9.5-.9 1zm3.8 0c0 .5.5 1 1 1s.9-.5.9-1v-11.3c0-.5-.4-1-1-1-.4 0-.9.5-.9 1zm3.9 0c0 .5.4 1 .9 1s1-.5 1-1v-11.3c0-.5-.5-1-1-1s-1 .5-1 1v11.3zm3.8 0c0 .5.4 1 .9 1s1-.5 1-1v-11.3c0-.5-.5-1-1-1s-1 .5-1 1v11.3zm5.2-16h-.5v20.7h-22.9v-20.6h-1c-.4 0-.8-.4-.8-.9s.4-.9.8-.9h1.3c6-10.3 9.4-34.3 10.8-46.6l.4-3 .3 3c1.4 12.3 4.8 36.3 10.8 46.6h.8c.4 0 .8.4.8.9s-.4.9-.8.9z" fill="#b7c6e0" fill-rule="evenodd"/><path d="m916.7 338.7h2.5v-10.1h-2.5zm0 10.2c0 .7.6 1.2 1.2 1.2.7 0 1.3-.5 1.3-1.2v-8.5h-2.5zm6.3 1.2c.7 0 1.3-.5 1.3-1.2v-8.5h-2.5v8.5c0 .7.6 1.2 1.2 1.2zm5.2 0c.6 0 1.2-.5 1.2-1.2v-8.5h-2.5v8.5c0 .7.6 1.2 1.3 1.2zm5 0c.7 0 1.3-.5 1.3-1.2v-8.5h-2.5v8.5c0 .7.6 1.2 1.2 1.2zm5.1 0c.7 0 1.3-.5 1.3-1.2v-8.5h-2.6v8.5c0 .7.6 1.2 1.2 1.2zm5.2 0c.7 0 1.2-.5 1.2-1.2v-8.5h-2.5v8.5c0 .7.6 1.2 1.3 1.2zm5 0c.8 0 1.3-.5 1.3-1.2v-8.5h-2.5v8.5c0 .7.6 1.2 1.3 1.2zm1.3-21.5h-2.5v10.1h2.5zm0-36.8h-2.5v35.1h2.5zm0-1.7h-2.5v-10.1h2.5v10zm0-11.8h-2.5v-33h2.5zm0-34.7h-2.5v-4h2.5zm0-5.6h-2.5v-33h2.5zm0-34.7h-2.5v-4h2.5zm0-31.5c0-.7-.5-1.2-1.2-1.2s-1.3.5-1.3 1.2v25.9h2.5zm-30.6 25.9v-25.9a1.2 1.2 0 0 0 -2.5 0v25.9zm0 5.6h-2.5v-4h2.5zm0 34.7h-2.5v-33h2.5zm0 5.6h-2.5v-4h2.5zm0 34.7h-2.5v-33h2.5zm0 11.8h-2.5v-10.1h2.5v10zm2.6 36.8h2.5v-35.1h-2.5zm2.5 1.7h-2.5v10.1h2.5zm5.1 0h-2.5v10.1h2.5zm5.1 0h-2.5v10.1h2.5zm5 0h-2.4v10.1h2.5v-10.1zm5.2-50.3h-2.5v-33h2.5zm0-34.7h-2.5v-4h2.5zm0-5.6h-2.5v-33h2.5zm0-34.7h-2.5v-4h2.5zm-2.5-5.6h2.5v-25.9c0-.7-.5-1.2-1.2-1.2s-1.3.5-1.3 1.2zm-5 0h2.4v-25.9a1.2 1.2 0 1 0 -2.5 0v25.9zm-5.2 0h2.5v-25.9c0-.7-.6-1.2-1.3-1.2-.6 0-1.2.5-1.2 1.2zm-5 0h2.4v-25.9a1.2 1.2 0 0 0 -2.5 0v25.9zm-2.7 46h-2.5v-4h2.5zm0 34.6h-2.5v-33h2.5zm5 11.8h-2.3v-10.1h2.5v10zm.1 1.7h-2.5v35.1h2.5zm5.1 0h-2.5v35.1h2.5zm5-13.5h-2.4v-33h2.5v33zm0-34.7h-2.4v-4h2.5v4zm0-5.6h-2.4v-33h2.5v33zm0-34.7h-2.4v-4h2.5v4zm-5 0h-2.5v-4h2.5zm-5.1 0h-2.5v-4h2.5zm0 34.7h-2.5v-33h2.5zm0 5.6h-2.5v-4h2.5zm0 34.7h-2.5v-33h2.5zm5-40.3h-2.4v-33h2.5v33zm0 5.6h-2.4v-4h2.5v4zm0 34.7h-2.4v-33h2.5v33zm0 11.8h-2.4v-10.1h2.5v10zm5.2 0h-2.6v-10.1h2.5v10zm0 1.7h-2.6v35.1h2.5v-35.1zm-15.3-1.7h-2.5v-10.1h2.5v10zm0-52.1h-2.5v-33h2.5zm0-34.7h-2.5v-4h2.5zm-2.5-5.6h2.5v-25.9a1.2 1.2 0 0 0 -2.5 0zm22.9 92.4h-2.5v-10.1h2.5v10zm0 1.7h-2.5v35.1h2.5zm0 36.8h-2.5v10.1h2.5zm-28-1.7h2.5v-35.1h-2.5zm34.9-166h-37v-37h37zm-32.4-50.4v-6.6a1.2 1.2 0 0 0 -2.5 0v6.6a1.2 1.2 0 0 0 2.5 0zm5 0v-6.6a1.2 1.2 0 0 0 -2.4 0v6.6a1.2 1.2 0 0 0 2.5 0zm5.2 0v-6.6a1.2 1.2 0 0 0 -2.5 0v6.6c0 .7.6 1.2 1.3 1.2.6 0 1.2-.5 1.2-1.2zm5.1 0v-6.6a1.2 1.2 0 0 0 -2.5 0v6.6c0 .7.6 1.2 1.2 1.2.7 0 1.3-.5 1.3-1.2zm5 0v-6.6c0-.7-.4-1.3-1.1-1.3s-1.3.6-1.3 1.3v6.6a1.2 1.2 0 0 0 2.5 0zm5.2 0v-6.6c0-.7-.5-1.3-1.2-1.3s-1.3.6-1.3 1.3v6.6a1.2 1.2 0 0 0 2.5 0zm5.1 0v-6.6c0-.7-.5-1.3-1.2-1.3s-1.3.6-1.3 1.3v6.6c0 .7.6 1.2 1.3 1.2s1.2-.5 1.2-1.2zm-46 218.1a.8.8 0 0 1 -.8-.8c0-.5.4-.9.9-.9h.6v-35.1h-.7a.8.8 0 0 1 -.8-.9c0-.4.4-.8.8-.8h.7v-10.1h-.6a.8.8 0 0 1 -.9-.9c0-.4.4-.8.9-.8h.6v-33h-.6a.8.8 0 0 1 -.9-.8c0-.5.4-.9.9-.9h.6v-4h-.6a.8.8 0 0 1 0-1.6h.6v-33h-.6a.8.8 0 0 1 0-1.7h.6v-4h-.6a.8.8 0 0 1 0-1.6h.6v-28.8h-.6a.8.8 0 0 1 0-1.7h.6v-52h-.6a.8.8 0 0 1 -.9-1c0-.4.4-.8.9-.8h5.5v-13.8h-1.2a.8.8 0 1 1 0-1.7h1.6l10.6-25.9h24.6l11.3 26h1.5a.8.8 0 1 1 0 1.6h-1.2v13.8h4.6a.8.8 0 0 1 0 1.7h-.3v52.1h.3a.8.8 0 0 1 0 1.7h-.3v28.8h.3a.8.8 0 0 1 0 1.7h-.3v4h.3a.8.8 0 0 1 0 1.6h-.3v33h.3a.8.8 0 0 1 0 1.7h-.3v4h.3a.8.8 0 1 1 0 1.6h-.3v33h.3c.4 0 .8.4.8.8 0 .5-.4.9-.9.9h-.2v10h.3c.4 0 .8.5.8 1 0 .4-.4.8-.9.8h-.2v35.1h.3c.4 0 .8.4.8.9 0 .4-.4.8-.8.8h-.3v10.1h.3c.4 0 .8.4.8.9 0 .4-.4.8-.8.8h-.3v28.6h-56.4v-28.6h-.6a.8.8 0 0 1 0-1.7h.6v-10.1h-.6zm-470.8-228.3a118.8 118.8 0 0 1 0 237.3 118.8 118.8 0 0 1 -118.7-118.6c0-65.4 53.3-118.7 118.7-118.7m0 242.7c68.4 0 124-55.6 124-124s-55.6-124-124-124-124 55.6-124 124 55.6 124 124 124" fill="#b7c6e0" fill-rule="evenodd"/><path d="m434.5 111.6a109 109 0 0 1 0 217.8 109 109 0 0 1 -109-108.9c0-60 49-109 109-109m0 221.5c62 0 112.5-50.5 112.5-112.5s-50.5-112.5-112.5-112.5-112.5 50.5-112.5 112.5 50.5 112.5 112.5 112.5m-3.5-245.5a2.5 2.5 0 1 0 5 0 2.5 2.5 0 0 0 -5 0m2 6.5h-3v-3h3z" fill="#b7c6e0" fill-rule="evenodd"/><path d="m431 217.5a2.5 2.5 0 1 0 5 0 2.5 2.5 0 0 0 -5 0" fill="#b7c6e0" fill-rule="evenodd"/><path d="m436 221h-3v-3h3zm21-131a2.5 2.5 0 1 0 5 1 2.5 2.5 0 0 0 -5-1" fill="#b7c6e0" fill-rule="evenodd"/><path d="m456.4 91 2.6.6-.4 2.4-2.6-.6zm23.8 5.5a2.5 2.5 0 1 0 4.6 2 2.5 2.5 0 0 0 -4.6-2" fill="#b7c6e0" fill-rule="evenodd"/><path d="m478.2 98 3.8 1-1.2 2-3.8-1zm25.2 11.1a2.5 2.5 0 1 0 4.2 2.8 2.5 2.5 0 0 0 -4.2-2.8" fill="#b7c6e0" fill-rule="evenodd"/><path d="m501.7 111 3.3 2.3-1.7 2.7-3.3-2.3zm22 10.7a2.5 2.5 0 1 0 3.6 3.6 2.5 2.5 0 0 0 -3.6-3.6m-2.5 5.3 2.8 2.8-2.2 2.2-2.8-2.8zm18.9 14.4a2.5 2.5 0 1 0 2.8 4.2 2.5 2.5 0 0 0 -2.8-4.2" fill="#b7c6e0" fill-rule="evenodd"/><path d="m538.7 143 2.3 3.3-2.7 1.7-2.3-3.3zm14.8 20.2a2.5 2.5 0 1 0 2 4.6 2.5 2.5 0 0 0 -2-4.6m-4.5 2.8 1 3.8-2 1.2-1-3.8zm12 23a2.5 2.5 0 1 0 1 5 2.5 2.5 0 0 0 -1-5" fill="#b7c6e0" fill-rule="evenodd"/><path d="m560.4 189 .6 2.6-2.4.4-.6-2.6zm3.1 23a2.5 2.5 0 1 0 0 5 2.5 2.5 0 0 0 0-5" fill="#b7c6e0" fill-rule="evenodd"/><path d="m561 215v3h-3v-3zm1 23a2.5 2.5 0 1 0 -1 5 2.5 2.5 0 0 0 1-5" fill="#b7c6e0" fill-rule="evenodd"/><path d="m561 238.4-.6 2.6-2.4-.4.6-2.6zm-5.5 25.8a2.5 2.5 0 1 0 -2 4.6 2.5 2.5 0 0 0 2-4.6" fill="#b7c6e0" fill-rule="evenodd"/><path d="m555 265.2-1 3.8-2-1.2 1-3.8zm-9.1 19.2a2.5 2.5 0 1 0 -2.8 4.2 2.5 2.5 0 0 0 2.8-4.2m-4.9 1.3-2.3 3.3-2.7-1.7 2.3-3.3zm-10.7 18a2.5 2.5 0 1 0 -3.6 3.6 2.5 2.5 0 0 0 3.6-3.6" fill="#b7c6e0" fill-rule="evenodd"/><path d="m528 305.2-2.8 2.8-2.2-2.2 2.8-2.8zm-17.4 15.9a2.5 2.5 0 1 0 -4.2 2.8 2.5 2.5 0 0 0 4.2-2.8" fill="#b7c6e0" fill-rule="evenodd"/><path d="m508 322.7-3.3 2.3-1.7-2.7 3.3-2.3zm-19.2 11.8c-.5-1.2-2-1.8-3.3-1.3a2.5 2.5 0 1 0 3.3 1.3" fill="#b7c6e0" fill-rule="evenodd"/><path d="m485 335-3.8 1-1.2-2 3.8-1zm-19 9a2.5 2.5 0 1 0 0 0m-4-1.6-2.6.6-.4-2.4 2.6-.6zm-23 2.1a2.5 2.5 0 1 0 -5 0 2.5 2.5 0 0 0 5 0" fill="#b7c6e0" fill-rule="evenodd"/><path d="m436 345h-3v-3h3zm-23 0c.2-1.4-.7-2.7-2-3a2.5 2.5 0 0 0 -1 5c1.4.2 2.7-.7 3-2" fill="#b7c6e0" fill-rule="evenodd"/><path d="m412.6 343-2.6-.6.4-2.4 2.6.6zm-22.8-3.5a2.5 2.5 0 1 0 -4.6-2 2.5 2.5 0 0 0 4.6 2m-1-3.5-3.8-1 1.2-2 3.8 1zm-22.2-9.1c.7-1.2.4-2.7-.7-3.5a2.5 2.5 0 1 0 .7 3.5" fill="#b7c6e0" fill-rule="evenodd"/><path d="m365.3 328-3.3-2.3 1.7-2.7 3.3 2.3zm-18-16.7c1-1 1-2.6 0-3.6a2.5 2.5 0 1 0 0 3.6" fill="#b7c6e0" fill-rule="evenodd"/><path d="m345.8 312-2.8-2.8 2.2-2.2 2.8 2.8zm-14.9-20.4a2.5 2.5 0 1 0 -2.8-4.2 2.5 2.5 0 0 0 2.8 4.2" fill="#b7c6e0" fill-rule="evenodd"/><path d="m329.3 292-2.3-3.3 2.7-1.7 2.3 3.3zm-11.8-23.2c1.2-.5 1.8-2 1.3-3.3a2.5 2.5 0 1 0 -1.3 3.3" fill="#b7c6e0" fill-rule="evenodd"/><path d="m317 269-1-3.8 2-1.2 1 3.8zm-7-23a2.5 2.5 0 1 0 0 0m-.4-2-.6-2.6 2.4-.4.6 2.6zm-3.1-24a2.5 2.5 0 1 0 0 0" fill="#b7c6e0" fill-rule="evenodd"/><path d="m306 221v-3h3v3zm3-27a2.5 2.5 0 1 0 1-5 2.5 2.5 0 0 0 -1 5" fill="#b7c6e0" fill-rule="evenodd"/><path d="m309 196.6.6-2.6 2.4.4-.6 2.6zm6.5-25.8a2.5 2.5 0 1 0 2-4.6 2.5 2.5 0 0 0 -2 4.6" fill="#b7c6e0" fill-rule="evenodd"/><path d="m316 172.8 1-3.8 2 1.2-1 3.8zm8.1-25.2a2.5 2.5 0 1 0 2.8-4.2 2.5 2.5 0 0 0 -2.8 4.2m2.9 2.7 2.3-3.3 2.7 1.7-2.3 3.3zm13.7-22a2.5 2.5 0 1 0 3.6-3.6 2.5 2.5 0 0 0 -3.6 3.6" fill="#b7c6e0" fill-rule="evenodd"/><path d="m340 129.8 2.8-2.8 2.2 2.2-2.8 2.8zm20.4-17.9a2.5 2.5 0 1 0 4.2-2.8 2.5 2.5 0 0 0 -4.2 2.8" fill="#b7c6e0" fill-rule="evenodd"/><path d="m360 113.3 3.3-2.3 1.7 2.7-3.3 2.3zm23.2-14.8a2.5 2.5 0 1 0 4.6-2 2.5 2.5 0 0 0 -4.6 2m-.2 3.5 3.8-1 1.2 2-3.8 1zm22-11a2.5 2.5 0 1 0 5-1 2.5 2.5 0 0 0 -5 1m2 4.6 2.6-.6.4 2.4-2.6.6zm-20 271.8 45.3-149.4h4.4l45.3 149.4s-5.2 1.3-5.8 0c-27.3-58.6-41.7-142-41.7-142s-18.3 97.6-41.7 142c-.6 1.3-5.8 0-5.8 0m44-256.4 8-15.6-.8-.4-7.3 14-7-13.8-.9.4zm19.7 0 11.3-13.1-.8-.5-10 11.7-4.3-14.1-.9.2zm22.3 6 12-10.7-.5-.6-10.8 9.6-.9-14.3h-.8zm19 10 16-8.2-.5-.7-14.3 7.3 2.2-14.3-1-.1zm16 13 16-5.5-.3-.9-14.3 5 4.9-14.3-.9-.3zm17 19 16-2.5-.1-1-14.3 2.3 7.2-14.3-.8-.5zm25 17v-.8l-14.3-1 9.4-10.6-.6-.6-10.5 12zm6.8 26 .2-1-14.1-4.2 11.5-10-.5-.8-12.9 11.2zm-.2 23 .4-.8-14-7.3 13.8-7-.3-.9-15.5 8zm-2.5 26 .5-.8-11.7-10 14.1-4.3-.2-.9-15.8 4.7zm-9.4 19 .6-.5-9.6-10.8 14.3-.9v-.8l-16 1zm-11.5 23 .7-.5-7.3-14.3 14.3 2.2.1-1-16-2.4zm-15.7 17 .9-.3-5-14.3 14.3 4.9.3-.9-16-5.4zm-20 13 1-.1-2.3-14.3 14.3 7.2.5-.8-16-8zm-20.7 10 1-14.3 10.7 9.4.5-.6-12-10.5-1 16z" fill="#b7c6e0" fill-rule="evenodd"/><path d="m451 339 4.2-14.1 10 11.5.8-.5-11.2-12.9-4.8 15.8zm-23.2 3 7.3-14 7 13.8.9-.4-8-15.4-8 15.6zm-8.8 0 1-.2-4.7-15.8-11.3 13.1.8.5 10-11.7 4.3 14.1zm-25.8-6h.8l-1-16-12 10.7.5.6 10.8-9.6zm-21.7-10 2.5-16-16 8.2.5.7 14.3-7.3-2.2 14.3 1 .1zm-18.9-13 5.4-16-16 5.5.3.9 14.3-5-4.9 14.3zm-15.6-17 8-16-16 2.5.1 1 14.3-2.3-7.2 14.3zm-12.5-22 10.5-12-16-1v.8l14.3 1-9.4 10.6zm-9.4-20 12.9-11.2-15.8-4.8-.2 1 14.1 4.2-11.5 10zm-5.5-26 15.4-8-15.6-8-.4.8 14 7.3-13.8 7zm2.6-23 15.8-4.7-13.1-11.3-.5.8 11.7 10-14.1 4.3zm3.8-26 16-1-10.7-12-.6.5 9.6 10.8-14.3.9zm27-20-8.2-16-.7.5 7.3 14.3-14.3-2.2-.1 1zm15-16-5.5-16-.9.3 5 14.3-14.3-4.9-.3.9zm13-16-2.5-16-1 .1 2.3 14.3-14.3-7.2-.5.8zm18-10 1-16h-.8l-1 14.3-10.7-9.4-.5.6zm24.2-6 4.8-15.8-1-.2-4.2 14.1-10-11.5-.8.5zm18.9 108h.6l6.3-124h-.6l-6 119.2-8.8-117.2h-.6zm4.5 0 29.4-119.9-.6-.1-28.3 115.3 14-116.2-.6-.1-14.5 120.9zm.9 0 51.5-113.7-.5-.3-49.5 109.4 35.6-113.2-.5-.2-37.1 117.8z" fill="#b7c6e0" fill-rule="evenodd"/><path d="m433.5 219 74.5-100.8-.5-.3-71.6 96.9 58.3-103.5-.6-.3-60.6 107.7z" fill="#b7c6e0" fill-rule="evenodd"/><path d="m433.4 218 90.6-81.4-.4-.4-87.1 78.3 75.5-87.1-.4-.4-78.6 90.6z" fill="#b7c6e0" fill-rule="evenodd"/><path d="m433.3 218 107.7-63-.3-.6-103.7 60.7 93.7-71.6-.4-.5-97.4 74.5.3.5z" fill="#b7c6e0" fill-rule="evenodd"/><path d="m432.2 219 117.8-42-.2-.6-113.3 40.4 105.8-53.3-.3-.5-110 55.5z" fill="#b7c6e0" fill-rule="evenodd"/><path d="m433.1 219 123.9-18v-.5l-119.2 17.2 114.2-31.1-.2-.6-118.8 32.4z" fill="#b7c6e0" fill-rule="evenodd"/><path d="m557 225v-.6l-119.2-6 117.2-8.8v-.6l-122 9.1v.6z" fill="#b7c6e0" fill-rule="evenodd"/><path d="m553.9 248 .1-.6-115.3-28.3 116.2 14 .1-.6-120.9-14.5-.1.6z" fill="#b7c6e0" fill-rule="evenodd"/><path d="m545.7 270 .3-.5-109.4-49.5 113.2 35.6.2-.5-117.8-37.1-.2.5z" fill="#b7c6e0" fill-rule="evenodd"/><path d="m533.8 293 .3-.5-96.9-71.6 103.5 58.3.3-.6-107.7-60.6-.3.5z" fill="#b7c6e0" fill-rule="evenodd"/><path d="m518.4 309 .4-.4-78.3-87.1 87.1 75.5.4-.4-90.6-78.6-.4.4zm-22.4 17 .6-.3-60.7-103.7 71.6 93.7.5-.4-74.5-97.4-.5.3z" fill="#b7c6e0" fill-rule="evenodd"/><path d="m475 336 .6-.2-40.4-113.3 53.3 105.8.5-.3-55.5-110-.5.2z" fill="#b7c6e0" fill-rule="evenodd"/><path d="m451 342h.5l-17.2-119.2 31.1 114.2.6-.2-32.4-118.8-.6.1z" fill="#b7c6e0" fill-rule="evenodd"/><path d="m427.6 342 6-119.2 8.8 117.2h.6l-9.1-122h-.6l-6.3 124zm-9.1-3 14.5-120.9-.6-.1-29.4 119.9.6.1 28.3-115.3-14 116.2z" fill="#b7c6e0" fill-rule="evenodd"/><path d="m395.9 336 37.1-117.8-.5-.2-51.5 113.7.5.3 49.5-109.4-35.6 113.2z" fill="#b7c6e0" fill-rule="evenodd"/><path d="m372.4 326 60.6-107.7-.5-.3-74.5 100.8.5.3 71.6-96.9-58.3 103.5z" fill="#b7c6e0" fill-rule="evenodd"/><path d="m354.4 309 78.6-90.6-.4-.4-90.6 81.4.4.4 87.1-78.3-75.5 87.1z" fill="#b7c6e0" fill-rule="evenodd"/><path d="m335.6 293 97.4-74.5-.3-.5-107.7 63 .3.6 103.6-60.7-93.7 71.6z" fill="#b7c6e0" fill-rule="evenodd"/><path d="m323 274 110-55.5-.2-.5-117.8 42 .2.6 113.3-40.4-105.8 53.3z" fill="#b7c6e0" fill-rule="evenodd"/><path d="m314 251 119-32.4-.1-.6-123.9 18v.5l119.2-17.2-114.2 31.1.2.6z" fill="#b7c6e0" fill-rule="evenodd"/><path d="m311 228 122-9.1v-.6l-124-6.3v.6l119.2 6-117.2 8.8z" fill="#b7c6e0" fill-rule="evenodd"/><path d="m432.9 219 .1-.6-119.9-29.4-.1.6 115.3 28.3-116.2-14-.1.6zm-.1-1 .2-.5-113.7-51.5-.3.5 109.4 49.5-113.2-35.6-.2.5z" fill="#b7c6e0" fill-rule="evenodd"/><path d="m432.7 218 .3-.5-100.8-74.5-.3.5 96.9 71.6-103.5-58.3-.3.6z" fill="#b7c6e0" fill-rule="evenodd"/><path d="m432.6 218 .4-.4-81.4-90.6-.4.4 78.3 87.1-87.1-75.5-.4.4z" fill="#b7c6e0" fill-rule="evenodd"/><path d="m432.5 219 .5-.3-63-107.7-.6.3 60.7 103.6-71.6-93.7-.5.4z" fill="#b7c6e0" fill-rule="evenodd"/><path d="m432.5 219 .5-.2-42-117.8-.6.2 40.4 113.3-53.3-105.8-.5.3z" fill="#b7c6e0" fill-rule="evenodd"/><path d="m432.4 219 .6-.1-18-123.9h-.5l17.2 119.2-31.1-114.2-.6.2zm212.6 55h-2v-23h2zm.2 10h192.8v88h-101.4v-12a6 6 0 0 0 -10.2-4.2 6 6 0 0 0 -1.7 4.3v11.9h-158.4v-12a6 6 0 0 0 -6-6 6 6 0 0 0 -6 6v12h-101.3v-88z" fill="#b7c6e0" fill-rule="evenodd"/><path d="m645.2 284h192.8v88h-101.4v-12a6 6 0 0 0 -10.2-4.2 6 6 0 0 0 -1.7 4.3v11.9h-158.4v-12a6 6 0 0 0 -6-6 6 6 0 0 0 -6 6v12h-101.3v-88z" stroke="#fff"/><path d="m834 290h-56v-13h56z" fill="#b7c6e0" fill-rule="evenodd"/><path d="m834 290h-56v-13h56z" stroke="#fff"/><path d="m834 295h-56v-5h56z" fill="#b7c6e0" fill-rule="evenodd"/><path d="m834 295h-56v-5h56z" stroke="#fff"/><path d="m815 339h-5v-42h5z" fill="#b7c6e0" fill-rule="evenodd"/><path d="m815 339h-5v-42h5z" stroke="#fff"/><path d="m805 339h-5v-42h5z" fill="#b7c6e0" fill-rule="evenodd"/><path d="m805 339h-5v-42h5z" stroke="#fff"/><path d="m789 339h-5v-42h5z" fill="#b7c6e0" fill-rule="evenodd"/><path d="m789 339h-5v-42h5z" stroke="#fff"/><path d="m834 339h-5v-42h5z" fill="#b7c6e0" fill-rule="evenodd"/><path d="m834 339h-5v-42h5z" stroke="#fff"/><path d="m652 339h-5v-42h5z" fill="#b7c6e0" fill-rule="evenodd"/><path d="m652 339h-5v-42h5z" stroke="#fff"/><path d="m675 339h-16v-42h16z" fill="#b7c6e0" fill-rule="evenodd"/><path d="m675 339h-16v-42h16zm163 33h-56v-88h56z" stroke="#fff"/><path d="m505 290h-56v-13h56z" fill="#b7c6e0" fill-rule="evenodd"/><path d="m505 290h-56v-13h56z" stroke="#fff"/><path d="m505 295h-56v-5h56z" fill="#b7c6e0" fill-rule="evenodd"/><path d="m505 295h-56v-5h56z" stroke="#fff"/><path d="m476 339h-5v-42h5z" fill="#b7c6e0" fill-rule="evenodd"/><path d="m476 339h-5v-42h5z" stroke="#fff"/><path d="m485 339h-5v-42h5z" fill="#b7c6e0" fill-rule="evenodd"/><path d="m485 339h-5v-42h5z" stroke="#fff"/><path d="m505 339h-10v-42h10z" fill="#b7c6e0" fill-rule="evenodd"/><path d="m505 339h-10v-42h10z" stroke="#fff"/><path d="m459 339h-10v-42h10z" fill="#b7c6e0" fill-rule="evenodd"/><path d="m459 339h-10v-42h10z" stroke="#fff"/><path d="m642.2 271h32.8v13h-65v-13z" fill="#b7c6e0" fill-rule="evenodd"/><path d="m642.2 271h32.8v13h-65v-13z" stroke="#fff"/><path d="m639 339h-5v-42h5z" fill="#b7c6e0" fill-rule="evenodd"/><path d="m639 339h-5v-42h5z" stroke="#fff"/><path d="m626 339h-16v-42h16z" fill="#b7c6e0" fill-rule="evenodd"/><path d="m626 339h-16v-42h16z" stroke="#fff"/><path d="m642.2 290h32.8v10h-65v-10z" fill="#b7c6e0" fill-rule="evenodd"/><path d="m642.2 290h32.8v10h-65v-10zm-137.2 82h-56v-88h56z" stroke="#fff"/><path d="m641.7 274h.6l35.7 16h-72z" fill="#b7c6e0" fill-rule="evenodd"/><path d="m641.7 274h.6l35.7 16h-72z" stroke="#fff"/><path d="m809.5 280h.3l24.2 13h-49z" fill="#b7c6e0" fill-rule="evenodd"/><path d="m809.5 280h.3l24.2 13h-49z" stroke="#fff"/><path d="m476.2 280-24.2 13h49l-24.5-13" fill="#b7c6e0" fill-rule="evenodd"/></g><path d="m476.2 280-24.2 13h49l-24.5-13" stroke="#fff"/><path clip-rule="evenodd" d="m838 372h-385v-30h385z" stroke="#fff"/><path clip-rule="evenodd" d="m632 372.6c0 5.2 4.5 9.4 10 9.4s10-4.2 10-9.4v-14.2c0-5.2-4.5-9.4-10-9.4s-10 4.2-10 9.4zm29 2.4h-5v-16h5zm-31 0h-5v-16h5zm-150 0h-5v-16h5zm331 0h-5v-16h5zm-186-114c6.7-10 13.3 10.2 20 0v-10c-6.7 10-13.3-10.2-20 0zm408-65.3-7.3-15.7-5.7 16zm112 55-7.3-15.7-5.7 16zm-105 107.3h-49v-16h49zm-715-73h-10v-5h10z" fill="#b7c6e0" fill-rule="evenodd"/><path clip-rule="evenodd" d="m223.3 286.1v-30.5h3.3c-.3-.6-.5-1.3-.5-2.1.2-5 3-5.4 6-8.6 1.2-1.3 2-3.2 2.4-4.6a1.5 1.5 0 0 1 .5-3c.9 0 1.6.7 1.6 1.5 0 .7-.5 1.2-1 1.5.4 1.4 1.1 3.3 2.4 4.6 3 3.2 5.7 3.7 6 8.6 0 .8-.2 1.5-.5 2.1h3.2v23.7h5v6.9h3v-7h8.2v7h2.9v-7.4h8.2v7.4h8.3-6v-8.2h6v-9h1.8v-.6c.2-6.3 3.7-6.8 7.5-11 1.6-1.7 2.6-4 3.1-5.9a2 2 0 0 1 .7-3.7c1 0 2 .8 2 1.9a2 2 0 0 1 -1.4 1.8c.6 1.9 1.5 4.2 3.2 6 3.7 4 7.3 4.6 7.5 10.9v.6h1.3v9h7v8h-7v.2h24.4v-.1h-2.4v-8.1h2.5v-24.9h2.2v-1.1c.1-6 3.6-6.5 7.2-10.5 1.6-1.7 2.5-4 3-5.8a1.9 1.9 0 0 1 .7-3.6c1 0 1.9.8 1.9 1.9 0 .8-.5 1.5-1.3 1.7.5 1.9 1.5 4.1 3 5.8 3.7 4 7.1 4.5 7.4 10.5l-.1 1.3h2.1v25.7l1.2.4v-1.4h1.5v1.8l1.7.6v-1.3h1.5v1.8l1.8.7v-1.4h1.4v1.9l1.8.6v-1.4h1.4v1.9l1.8.6v-1.3h1.4v1.8l1.8.7v-1.4h1.5v1.9l2 .6v-1.5h1.4v2l1.7.7v-18.3h2.3v-.3c.1-5.1 3-5.6 6.1-8.9a12 12 0 0 0 2.6-4.9 1.6 1.6 0 0 1 .5-3c.9 0 1.6.7 1.6 1.6 0 .7-.4 1.2-1 1.4a12 12 0 0 0 2.5 5c3 3.2 6 3.7 6.1 8.8v.3h.9v83.7h-11l-.7 16h-54.4l-1 4.2h-123v-87l9.3.1z" fill="#b7c6e0" fill-rule="evenodd"/><path clip-rule="evenodd" d="m450 375h-252v-52h252z" fill="#b7c6e0" fill-rule="evenodd"/><path clip-rule="evenodd" d="m1223 398h-1025v-30h1025z" fill="#b7c6e0" fill-rule="evenodd"/><path d="m420 323.5v12.5h-36.1v-19h-145.7v15.8h-17.7v-9.3h-22.5" stroke="#fff"/></g><g clip-rule="evenodd" fill-rule="evenodd" opacity=".5"><path d="m1155.6 178.3s36.3-15.3 78 11.9c41.9 27.1 52.4 50.4 91.3 54.3 39 3.9 69.3-4.8 105.1 19.1 0 0-41.1 53.4-47.7 90.7-6.5 37.4-13.4 64-25.3 78.7 0 0-3.5-19.5-40-14-36.4 5.3-86 9.4-124.8-27-38.7-36.6-84.6-43.4-98.2-38.3z" fill="#b7c6e0"/><path d="m1246.6 294 22.4-74.3c-10-8.1-21.2-17.6-36.7-27.6a93.2 93.2 0 0 0 -63.3-15.4 222.7 222.7 0 0 1 77.6 117.3" fill="#819bc8"/><path d="m1187.2 261.9c13.5 8 26 17.6 38 26.9a466 466 0 0 0 23.3 17.2l28.5-81.9c-2.3-1.7-4.5-3.6-6.9-5.5l-22.4 73.7c-16.7-64-60-102.7-77.7-116.3-9.3 1.2-15 3.5-15 3.5l-1 3.1c43.7 36.2 69.9 97.7 69.9 97.7l-13.7-10c-16-36.8-49.1-70-59.1-79.6l-3.1 8.8c29 25.4 54.5 66.2 54.5 66.2a90.5 90.5 0 0 0 -70.4-21.9l-3.1 8.7c23.5-2.7 43 .4 58.2 9.4" fill="#fff"/><path d="m1193 296.4c-26.3-21.1-56.8-19.6-72.9-16.8l-12.1 35.4c38.6-17.2 85-18.6 85-18.6m10-30.4s-25.3-41.2-54.3-67l-15.7 44.9c18-1.8 45.7 0 70 22.1m113 53.3s46.7-4.1 72.8 13.7a318.8 318.8 0 0 1 27.2-50c-15.7.2-60 4-100 36.3" fill="#819bc8"/><path d="m1280.4 322c11.3 1.8 23.4 2 36.2 2.4 24.6.6 49.9 1.2 71.8 12.6l2.2-5.4c-26.4-17.4-73.6-13.3-73.6-13.3a172.3 172.3 0 0 1 101-35.5c7.4-11 13-18.1 13-18.1s-46 .4-84.2 17a272.6 272.6 0 0 0 -57.4 33.9l-9.3-.6s26.4-22 58-36.9c31.6-15 60.8-18.8 82.8-19.4a96 96 0 0 0 -23.7-8.5c-74.7 11.1-122.4 62.6-122.4 62.6l26.4-73.3-5.2-2.5-28 81.1c4.2 1.9 8.3 3.2 12.4 3.8" fill="#fff"/><path d="m1396 249.7c-22.7-5-45-2-71.3-4.6-9.5-1-17.4-3-24.4-6.1l-26.3 73s47.5-51.3 122-62.3m-41.7 106.7a391 391 0 0 0 -56.3-5.4s52.1 25 72 55a310 310 0 0 0 10-40c-5.6-3.6-13.8-7.2-25.7-9.6" fill="#819bc8"/><path d="m1315.7 345.3c-13-.3-26.3-.6-39-2.7a71.9 71.9 0 0 1 -15.8-4.6l-26.9 78.3c3.2 1 6.4 2 9.7 2.7l19.7-70.6s47.3 33.7 70.2 69.8c21.3 1.6 23.7 14.8 23.7 14.8.5-.6-2.8-16.5-25.5-38.3-38.1-36.4-61-48-61-48l19.5 2.4s24.7 16.8 45.8 37c15.6 15 23.1 26.7 28.2 35.8 2.3-4.6 4.4-9.7 6.3-15.4-19.9-30.5-71.9-56-71.9-56s33.4.7 56.3 5.5c11.8 2.5 20 6 25.6 9.7l1.4-7.8c-18.2-11.4-41.6-12-66.3-12.6" fill="#fff"/><path d="m1124 354a151.3 151.3 0 0 1 67.2 37 109 109 0 0 0 17 13l25.8-73.1s-62.5-11.6-110 23" fill="#819bc8"/><path d="m1212.8 307.1c-11.5-9-23.5-18.3-35.8-25.7-15.5-9.3-37.1-8.4-55.2-5l-1.9 5.1c16.3-2.8 47.3-4.3 74.1 16.6 0 0-47.1 1.3-86.4 18.3l-13.6 38.6a19 19 0 0 1 2.7-.8s48.8-44.2 120.9-34.9l12.8 6.6s-63-9.6-117.7 28c4 .5 8.2 1.2 12.7 2.3 47.4-34.6 109.8-23 109.8-23l-25.7 73 4.8 2.8 27.7-80.4a393.3 393.3 0 0 1 -29.2-21.5" fill="#fff"/><path d="m1243 418.5c25.9 5.9 52.2 3.2 73.8 0 6.4-.9 11.7-1 16.2-.7-24.9-42.6-69.6-70.8-69.6-70.8z" fill="#819bc8"/><path d="m1174 176c-11.4 1-18.3 4-18.3 4l-61.7 174c4.2-1.6 11.6-2 20.9-.8 18.8-59.3 41.8-117.4 59.1-177.2m55 12c-9.5-5.6-18.8-9-27.2-11-3.6 9-36 110-48 151.5-3.1 10.7-6.6 21.4-9.8 32.1 3.8 1.6 7.8 3.4 11.8 5.4 13.3-28.2 60.5-147.6 73.2-178m154.2 166.7c6.6-37.1 47.8-90.3 47.8-90.3l-5.5-3.4c-1.7-1-22.8 26.6-24.8 29.4a247.2 247.2 0 0 0 -20 32.5 176.8 176.8 0 0 0 -15.6 42.4c-1.6 7.5-2.8 15-4.3 22.5a83.5 83.5 0 0 1 -12.8 34c8.6 4.4 9.9 11.2 9.9 11.2 11.9-14.6 18.8-41.1 25.3-78.3" fill="#212d5f" opacity=".1"/><path d="m1421 276c-6.2 6.3-12.6 12.4-18.3 19a131.9 131.9 0 0 0 -25.7 49.8c-2.6 9.3-4.6 18.7-5.8 28.3-1.2 8.3-1.6 16.7-2.9 25-1.2 7.6-2.8 15.4-5.3 22.9 8.2-15.3 13.7-38 19-67.6 4.6-26 26.5-59.7 39-77.4m-13-22c-3.2.4-6.4 1-9.5 1.8-34.6 8.6-61.2 35.7-75.3 67.6a106 106 0 0 0 -9.2 58c1.9 12.4 6.3 24.1 11.4 35.6h.8a182.3 182.3 0 0 1 -.6-35.4 163.9 163.9 0 0 1 29.7-82.9c13.9-19 32-34 52.7-44.7" fill="#212d5f" opacity=".1"/><path d="m983 670.7a3.3 3.3 0 0 1 -1.8-4l171.4-495.5a3.3 3.3 0 1 1 6.2 2.2l-171.4 495.4a3.3 3.3 0 0 1 -4.2 2h-.2" fill="#b7c6e0"/><path d="m1158.8 173.4c.6-1.7-.3-3.6-2-4.2s-3.6.3-4.2 2l-2.7 7.9 1.4.1c1.6.6 2.5 2.4 2 4l-167.3 482.7a3.2 3.2 0 0 1 -5 1.5c-.2 1.4.6 2.9 2 3.4l.2.1c1.7.6 3.6-.3 4.2-2l171.4-495.4z" fill="#b7c6e0"/><path d="m1168.1 171.3a11 11 0 1 1 -20.2-8.6 11 11 0 0 1 20.2 8.6" fill="#9db2d7"/><path d="m1163.5 167a6.5 6.5 0 1 1 -12-5 6.5 6.5 0 0 1 12 5" fill="#b7c6e0"/><path d="m983.4 666a.7.7 0 0 1 -.4-.9l168.7-483.7c.1-.3.5-.5.8-.4.4.1.6.5.5.9l-168.7 483.6c-.1.4-.5.6-.9.5" fill="#819bc8"/></g></svg>