<svg width="699" height="428" viewBox="0 0 699 428" fill="none" xmlns="http://www.w3.org/2000/svg">
<path opacity="0.426121" fill-rule="evenodd" clip-rule="evenodd" d="M419.082 43.6039C265.166 -29.8884 103.423 -8.28352 57.8175 91.8595C12.2132 192.004 39.2561 511.344 253.934 406.256C468.61 301.167 569.593 458.143 615.198 358C660.802 257.856 572.998 117.096 419.082 43.6039Z" fill="#B7C6E0"/>
<path opacity="0.200577" fill-rule="evenodd" clip-rule="evenodd" d="M320.751 363.106C300.32 363.147 279.889 363.479 259.494 365.015C251.804 365.594 244.275 366.867 236.567 367.381C221.173 368.407 206.053 370.321 190.603 371.204C178.162 371.915 165.668 372.334 153.263 373.236C141.632 374.083 128.755 373.888 117.215 372.49C108.67 371.456 100.087 370.873 91.6862 369.212C82.2891 367.353 72.0802 366.025 62.2888 366.072C48.3267 366.141 34.7299 366.148 21.3686 369.431C16.6784 370.582 10.9358 372.476 7.37394 374.893C-0.778929 380.428 -1.88265 394.237 6.25863 399.978C19.9699 409.638 49.2362 413.429 68.4567 413.608C89.5187 413.804 109.979 412.746 131.072 412.124C150.672 411.545 170.223 410.722 189.854 410.751C229.951 410.81 270.052 410.751 310.077 408.938C347.681 407.235 385.378 407.819 423.064 407.819C461.709 407.819 500.093 408.025 538.46 411.502C555.177 413.017 572.207 413.547 589.008 414.608C604.054 415.559 618.513 414.59 633.5 413.711C646.084 412.974 658.586 410.785 670.018 407.087C679.068 404.16 695.201 395.065 697.977 388.077C705.756 368.487 588.329 368.958 570.299 369.002C550.13 369.051 529.8 369.5 509.647 368.979C501.169 368.76 492.816 367.639 484.542 366.41C476.301 365.185 467.997 365.497 459.64 364.982C424.788 362.837 389.858 363.15 354.895 363.15C343.518 363.15 332.134 363.083 320.751 363.106Z" fill="#212D5F"/>
<path fill-rule="evenodd" clip-rule="evenodd" d="M366.989 216.999C351.038 216.989 339.315 228.502 338.902 243.788C338.468 259.858 350.196 272.527 366.603 272.556C382.664 272.584 394.743 261.245 394.722 244.621C394.7 228.013 382.62 217.239 366.989 216.999ZM341.532 334.027V331.489C341.532 322.531 341.557 302.53 341.557 302.53C341.557 302.53 341.228 302.377 339.757 301.687C319.936 292.386 308.338 276.798 304.938 255.276C302.19 237.881 305.388 221.594 315.733 207.152C325.699 193.237 339.541 185.416 356.414 182.84C369.448 180.85 382.043 182.362 394.11 187.732C407.619 193.743 417.677 203.468 423.578 216.936C432.136 236.464 431.858 256.102 422.157 275.224C415.259 288.821 404.212 297.978 389.953 303.319C389.093 303.641 388.239 303.98 387.402 304.643C413.111 311.447 438.921 317.819 465.942 311.742C465.972 312.658 465.928 332.429 465.998 341.676C466.003 342.437 465.998 343.953 465.998 343.953C465.998 343.953 464.79 344.267 463.876 344.487C453.956 346.868 443.954 347.406 433.779 346.731C416.602 345.591 400.084 341.145 383.435 337.303C373.872 335.095 364.273 332.987 354.416 332.813C350.767 332.749 347.104 333.441 343.448 333.793C342.896 333.846 342.347 333.926 341.532 334.027Z" fill="#E91D50"/>
<path fill-rule="evenodd" clip-rule="evenodd" d="M574.978 234.882L575.684 231.188L577.306 229.68C579.021 228.086 577.263 224.364 575.236 224.037C574.313 223.888 573.389 224.22 572.516 224.547C568.833 225.926 570.04 228.044 570.893 231.173L570.846 235L574.978 234.882Z" fill="#F5CEB0"/>
<path fill-rule="evenodd" clip-rule="evenodd" d="M577.782 250.909C575.971 245.281 577.157 238.523 576.946 232.68C575.389 232.129 573.709 231.905 572.062 232.037C569.935 232.206 569.89 232.391 569.452 234.345C568.719 237.611 568.537 241.133 568.349 244.468C567.965 251.281 567.14 258.102 570.977 264.129C575.325 270.956 579.982 277.63 584.44 284.393C585.222 285.58 586.025 286.789 587.148 287.655C590.009 289.86 594.349 289.181 597.128 286.872C599.946 284.53 600.233 281.552 601.93 278.609C603.009 276.737 606.214 274.558 604.511 272.021C603.844 271.028 602.56 270.725 601.412 270.414C593.481 268.264 587.187 262.348 581.269 256.611C579.542 254.937 578.455 253.001 577.782 250.909Z" fill="#1F28CF"/>
<path fill-rule="evenodd" clip-rule="evenodd" d="M589.78 386.775C589.897 389.519 590.514 391.933 588.97 394.303C588.64 394.809 588.266 395.308 587.753 395.617C587.451 395.799 587.11 395.908 586.808 396.091C586.541 396.253 586.308 396.471 586.041 396.635C584.919 397.322 583.482 396.916 582.265 396.426C581.662 396.184 580.962 395.762 581.002 395.103C581.023 394.748 581.264 394.455 581.477 394.175C582.196 393.233 582.726 392.141 583.026 390.986C583.137 390.564 586.135 385.096 585.927 385C585.928 385 589.78 386.775 589.78 386.775Z" fill="#2F302F"/>
<path fill-rule="evenodd" clip-rule="evenodd" d="M576 324L576.588 351.662L582.972 387.941L589.876 388L592.267 352.619L598 325.874L576 324Z" fill="#E91D50"/>
<path fill-rule="evenodd" clip-rule="evenodd" d="M621.636 381.793C621.411 382.394 621.095 382.964 620.741 383.505C619.688 385.121 618.285 386.52 616.651 387.587C616.35 387.783 616.024 387.974 615.662 387.998C614.743 388.056 614.138 387.047 614.034 386.159C613.818 384.312 614.71 382.57 614.784 380.743C614.85 379.139 614.659 378.866 615.983 377.889C616.337 377.627 619.549 375.243 619.395 375C620.757 377.154 622.595 378.28 621.813 381.237C621.763 381.426 621.704 381.611 621.636 381.793Z" fill="#2F302F"/>
<path fill-rule="evenodd" clip-rule="evenodd" d="M613.392 380.227C613.523 380.377 613.654 380.527 613.786 380.677C613.9 380.808 614.022 380.945 614.17 380.986C614.393 381.049 614.599 380.882 614.777 380.72C616.586 379.073 618.33 377.315 620 375.453C617.597 369.861 615.193 364.268 612.79 358.675C612.27 357.466 611.742 356.228 611.559 354.895C611.32 353.169 611.681 351.462 612.012 349.81C612.904 345.366 613.604 340.848 614.11 336.279C614.445 333.252 614.684 330.073 613.843 327.107C613.165 324.718 611.84 322.669 610.98 320.362C610.596 319.334 610.276 318.203 609.579 317.47C608.771 316.621 608.277 317.139 607.524 317.358C606.622 317.619 605.641 317.957 604.518 318.031C601.809 318.209 599.106 318.453 596.411 318.76C595.382 318.878 591.997 318.589 591.296 319.461C590.587 320.344 591.363 324.425 591.449 325.711C592.074 335.062 593.001 344.407 594.225 353.713C594.312 354.373 594.402 355.039 594.601 355.668C594.815 356.339 595.146 356.945 595.483 357.538C596.837 359.923 598.315 362.201 599.903 364.35C601.963 367.138 604.202 369.703 606.438 372.264C608.756 374.918 611.074 377.572 613.392 380.227Z" fill="#E91D50"/>
<path fill-rule="evenodd" clip-rule="evenodd" d="M621.966 256.682C622.694 256.104 623.275 255.341 623.633 254.479C623.923 253.778 624.205 252.936 623.792 252.3C623.487 251.831 622.876 251.642 622.321 251.694C621.811 251.741 621.327 251.968 620.858 252.151C620.159 250.716 621.099 248.262 620.72 246.603C620.46 245.463 619.852 244.411 619.233 243.389C618.828 242.718 618.405 242.041 617.807 241.51C615.514 239.473 612.238 238.732 609.257 239.085C602.941 239.833 601.569 246.332 599.447 251.233C597.758 255.134 596.839 259.217 600.787 262.254C601.798 263.032 602.874 264.161 603.129 265.445C603.268 266.143 603.209 266.86 603.131 267.563C603.073 268.086 603.006 268.635 603.206 269.127C603.554 269.983 604.553 270.355 605.441 270.63C606.522 270.965 607.798 271.272 608.691 270.603C609.831 269.749 609.952 267.938 610.943 266.908C611.763 266.057 612.812 265.692 613.751 265.057C614.715 264.404 615.627 263.629 616.598 262.967C617.877 262.095 619.178 261.065 619.421 259.447C619.507 258.875 619.507 258.221 619.93 257.831C620.137 257.64 620.413 257.55 620.673 257.443C621.139 257.252 621.574 256.993 621.966 256.682Z" fill="#F5CEB0"/>
<path fill-rule="evenodd" clip-rule="evenodd" d="M626.329 244.773C625.678 242.911 624.585 241.182 623.191 239.752C622.093 238.626 620.896 237.55 619.452 236.923C616.767 235.757 608.979 236.907 608.641 233.251C608.514 231.887 606.568 231.028 605.457 231.845C605.126 232.089 604.885 232.432 604.549 232.668C604.213 232.906 603.708 233.009 603.385 232.74C602.962 232.388 603.143 231.681 602.791 231.261C602.352 230.739 601.424 231.068 601.112 231.653C600.934 231.991 601.01 232.444 600.845 232.751C600.719 232.987 600.503 233.035 600.361 233.252C600.04 233.742 599.727 234.143 599.938 234.777C600.022 235.03 600.175 235.261 600.23 235.52C600.336 236.017 600.067 236.499 599.925 236.982C599.613 238.046 599.927 239.179 600.422 240.215C599.788 241.171 599.246 242.207 599.065 243.272C598.764 245.043 599.591 247.342 599.891 249.105C600.353 248.698 600.595 248.106 600.89 247.566C601.514 246.424 602.439 245.447 603.547 244.758C604.092 244.42 604.678 244.146 605.198 243.771C605.264 243.806 605.33 243.841 605.393 243.876C605.787 244.096 606.193 244.319 606.639 244.395C608.156 244.653 609.611 245.152 611.163 245.491C612.768 245.841 614.401 246.246 615.77 247.152C617.138 248.057 618.212 249.565 618.165 251.2C618.144 251.936 617.925 252.759 618.37 253.346C619.918 255.393 621.676 251.887 623.104 252.94C624.148 253.709 622.849 255.377 622.176 255.981C621.578 256.517 620.845 256.888 620.256 257.434C619.667 257.979 619.223 258.802 619.457 259.568C619.512 259.748 619.622 259.934 619.804 259.986C620.02 260.047 620.235 259.899 620.41 259.757C622.863 257.77 625.098 255.384 626.267 252.458C627.278 249.924 627.19 247.233 626.329 244.773Z" fill="#212D5F"/>
<path fill-rule="evenodd" clip-rule="evenodd" d="M576.58 316.192C577.392 312.508 578.336 308.85 579.119 305.147C579.899 301.459 580.769 297.791 581.76 294.159C583.873 286.414 586.63 278.865 592.347 273.161C593.597 271.914 594.942 270.575 596.571 269.851C597.677 269.36 599.286 269.467 600.231 268.678C600.912 268.109 601.087 266.855 601.014 266C603.944 266.372 607.116 266.878 610.16 267.152C612.548 267.368 611.902 268.531 612.585 270.269C613.319 272.134 615.637 273.342 616.829 274.84C617.935 276.229 618.637 277.951 619.204 279.695C620.136 282.566 620.743 285.577 620.931 288.635C621.112 291.579 620.906 294.545 620.659 297.494C619.801 307.708 618.441 317.883 616.587 327.961C616.261 329.73 616.083 332.261 615.206 333.83C614.311 335.428 612.481 334.92 610.786 334.933C606.829 334.964 602.877 334.697 598.965 334.141C591.14 333.029 583.475 330.756 576.256 327.376C575.85 327.187 575.423 326.971 575.193 326.56C574.94 326.108 574.988 325.53 575.048 324.997C575.381 322.022 575.94 319.1 576.58 316.192Z" fill="#1F28CF"/>
<path fill-rule="evenodd" clip-rule="evenodd" d="M645.492 305.871C646.747 305.848 648.002 305.826 649.255 305.742C649.848 305.244 650.44 304.745 651.032 304.244C652.137 304.167 653.243 304.057 654.348 304C654.45 304.316 654.783 305.693 654.487 305.843C653.853 306.164 653.323 306.218 652.921 306.833C653.946 307.325 654.932 307.556 656.087 307.61C657.094 307.656 658.212 307.465 657.965 308.865C657.899 309.241 657.629 309.606 657.333 309.899C656.584 310.64 655.687 311.14 654.642 311.343C653.818 311.503 653.023 311.473 652.248 311.845C652.12 311.905 652.065 312.005 651.864 312C651.377 311.988 650.482 311.43 650.1 311.239C649.718 311.047 648.932 310.738 648.78 310.717C647.351 310.522 646.301 310.363 645 310.103C645.167 308.693 645.297 307.277 645.492 305.871Z" fill="#F5CEB0"/>
<path fill-rule="evenodd" clip-rule="evenodd" d="M630.807 302.621C632.654 303.347 634.911 303.402 636.925 303.683C640.505 304.183 643.6 304.898 646.997 305.886C647.048 306.447 646.323 314 646.409 314C640.915 313.977 635.422 313.954 629.929 313.932C627.966 313.923 625.947 313.905 624.125 313.19C618.84 311.115 615.367 305.457 612.506 300.891C609.302 295.777 606.722 290.198 605.259 284.362C604.932 283.059 604.973 281.877 605.068 280.643C605.31 277.488 607.948 275.844 611.018 275.173C612.909 274.759 615.044 275.067 616.488 276.33C617.711 277.4 618.293 278.983 618.856 280.489C621.391 287.275 624.44 293.878 627.968 300.226C628.642 301.439 629.643 302.163 630.807 302.621Z" fill="#1F28CF"/>
<path fill-rule="evenodd" clip-rule="evenodd" d="M496.662 355.007C496.824 361.394 497.112 372.751 496.954 372.781C495.467 373.062 493.983 372.921 492.496 373C491.419 367.124 490.638 361.093 490 355.01C492.221 354.999 494.442 354.996 496.662 355.007Z" fill="#EDD2BD"/>
<path fill-rule="evenodd" clip-rule="evenodd" d="M491.966 370.037C491.14 369.877 490.508 370.193 490.493 371.821C490.484 372.784 490.848 373.719 490.838 374.682C490.833 375.253 490.695 375.812 490.559 376.366C490.121 378.143 489.683 379.92 489.245 381.698C489.091 382.321 488.936 382.964 489.027 383.6C489.397 386.195 492.836 386.392 494.639 385.566C496.388 384.766 497.838 383.213 498.396 381.319C498.695 380.307 498.739 379.235 498.781 378.177C498.85 376.439 498.919 374.701 498.988 372.963C499.007 372.498 499.023 372.021 498.875 371.582C498.273 369.803 496.155 371.452 494.952 371.21C494.137 371.045 492.922 370.222 491.966 370.037Z" fill="#212D5F"/>
<path fill-rule="evenodd" clip-rule="evenodd" d="M485.654 367.221C491.999 368.53 493.77 367.919 500.197 367.343C503.66 342.285 509.655 286.763 511.854 261.563C512.024 259.609 512.182 257.579 511.49 255.743C510.183 252.27 506.227 250.513 502.529 250.089C496.781 249.43 480.963 252.452 478.468 258.533C475.832 264.959 477.604 265.354 477.343 272.269C477.12 278.173 479.763 296.344 480.003 306.089C480.53 327.494 484.381 354.307 485.654 367.221Z" fill="#1119B0"/>
<path fill-rule="evenodd" clip-rule="evenodd" d="M515.338 358.007C515.176 364.394 514.888 375.751 515.046 375.781C516.533 376.062 518.017 375.921 519.503 376C520.581 370.124 521.363 364.093 522 358.01C519.779 357.999 517.559 357.996 515.338 358.007Z" fill="#EDD2BD"/>
<path fill-rule="evenodd" clip-rule="evenodd" d="M520.034 373.037C520.86 372.877 521.492 373.193 521.507 374.821C521.516 375.784 521.152 376.719 521.162 377.682C521.168 378.253 521.305 378.812 521.441 379.366C521.879 381.143 522.317 382.92 522.756 384.698C522.909 385.321 523.064 385.964 522.973 386.6C522.603 389.195 519.164 389.392 517.36 388.566C515.612 387.766 514.162 386.213 513.604 384.319C513.305 383.307 513.261 382.235 513.219 381.177C513.15 379.439 513.081 377.701 513.012 375.963C512.993 375.498 512.977 375.021 513.125 374.582C513.727 372.803 515.845 374.452 517.049 374.21C517.863 374.045 519.078 373.222 520.034 373.037Z" fill="#212D5F"/>
<path fill-rule="evenodd" clip-rule="evenodd" d="M526.438 370.726C520.521 371.295 517.321 370.954 511.038 369.923C510.185 356.818 508.641 321.76 508.641 321.76C508.641 321.76 503.198 275.025 503.01 262.82C502.98 260.855 502.968 258.815 503.777 257.029C505.307 253.651 509.322 252.176 512.99 252.015C518.691 251.764 528.687 254.695 530.713 260.948C532.855 267.556 533.179 275.111 533.806 282.015C534.564 290.361 532.855 317.79 532.855 317.79C532.855 317.79 528.435 356.392 526.438 370.726Z" fill="#1119B0"/>
<path fill-rule="evenodd" clip-rule="evenodd" d="M517.475 186.22C511.417 184.459 499.406 184.376 493.871 187.499C486.172 191.842 484.073 202.659 481.708 210.067C476.388 226.73 472.379 243.877 470.839 261.312C470.442 265.803 470.209 270.308 470.161 274.816C470.114 279.178 468.897 282.781 473.965 283.899C479.129 285.038 484.426 285.776 489.673 286.418C500.205 287.706 510.834 288.211 521.441 287.921C527.044 287.768 532.728 287.377 538.006 285.507C538.707 285.259 539.44 284.954 539.86 284.346C540.237 283.802 540.298 283.11 540.345 282.453C541.655 264.034 541.21 244.987 537.073 226.768C535.013 217.7 532.315 207.867 527.739 199.684C525.047 194.869 521.004 190.499 517.475 186.22Z" fill="#FF7B5B"/>
<path fill-rule="evenodd" clip-rule="evenodd" d="M515.49 157.175C516.811 159.538 517.447 162.259 517.565 164.977C517.596 165.699 517.644 166.534 518.217 166.96C518.829 167.417 518.29 168.419 518.757 167.808C519.223 167.197 520.806 165.075 520.877 164.304C521.044 162.498 521.041 160.676 520.869 158.87C520.72 157.3 520.406 155.659 519.399 154.462C518.802 153.752 518.005 153.253 517.221 152.769C516.083 152.068 514.91 151.361 513.603 151.112C511.351 150.684 509.97 151.509 511.957 153.111C513.381 154.26 514.585 155.557 515.49 157.175Z" fill="#212D5F"/>
<path fill-rule="evenodd" clip-rule="evenodd" d="M501.257 188.007C501.272 189.134 501.044 190.304 502.025 191.179C502.497 191.599 503.134 191.768 503.754 191.868C505.357 192.125 507.018 192.006 508.569 191.521C509.207 191.322 509.843 191.051 510.325 190.582C510.894 190.028 510.923 189.503 510.95 188.777C510.982 187.927 511.151 187.063 511.261 186.201C511.501 184.316 511.609 182.415 511.663 180.516C514.416 180.037 517.655 179.134 518.596 176.209C518.892 175.287 518.903 174.285 518.91 173.305C518.939 169.252 518.968 165.199 518.997 161.147C519.008 159.745 519.011 158.301 518.538 157C517.707 154.718 515.597 153.357 513.528 152.501C508.247 150.316 502.092 150.404 497.218 153.511C495.921 154.338 494.696 155.401 493.949 156.845C492.798 159.071 492.942 161.82 493.121 164.389C493.286 166.76 493.451 169.131 493.616 171.502C493.807 174.23 494.21 177.369 496.298 178.809C497.407 179.574 498.84 179.714 499.796 180.704C501.464 182.431 500.669 185.012 501.162 187.106C501.231 187.399 501.253 187.701 501.257 188.007Z" fill="#F5CEB0"/>
<path fill-rule="evenodd" clip-rule="evenodd" d="M509.97 176.592C508.53 177.554 506.944 177.606 505.34 177.126C504.658 176.922 504.947 175.785 505.63 175.989C506.96 176.387 508.214 176.376 509.413 175.576C510.016 175.173 510.569 176.192 509.97 176.592ZM519.97 170.982C519.925 170.244 519.601 168.079 518.483 169.44C518.19 169.796 518.118 170.298 518.1 170.772C518.082 171.246 518.103 171.733 517.953 172.179C517.609 173.203 516.468 173.669 515.453 173.651C515.049 173.644 514.637 173.578 514.28 173.376C513.933 173.18 513.658 172.868 513.389 172.562L511.434 170.332C510.313 169.054 508.09 169.607 506.58 169.803C504.84 170.028 503.099 170.55 501.677 171.688C501.534 171.802 501.394 171.923 501.254 172.044C500.911 172.337 500.566 172.628 500.168 172.821C498.824 173.471 497.16 172.793 496.218 171.576C495.786 171.019 495.383 170.302 494.713 170.209C494.188 170.136 493.678 170.509 493.408 170.997C493.139 171.484 493.067 172.066 493.031 172.631C492.898 174.689 493.183 176.811 494.081 178.636C496.028 182.594 499.791 183.079 503.573 182.991L508.059 182.886C510.792 182.822 513.682 182.709 515.984 181.13C518.015 179.738 519.222 177.37 519.717 174.89C519.973 173.61 520.049 172.288 519.97 170.982Z" fill="#212D5F"/>
<path fill-rule="evenodd" clip-rule="evenodd" d="M519.491 149.731C519.749 148.735 519.939 147.719 520.06 146.695C519.157 147.028 518.174 147.116 517.23 146.95C517.228 146.359 517.226 145.768 517.224 145.176C517.22 144.685 510.888 144.341 510.374 144.296C505.557 143.881 501.152 143.487 496.797 146.202C493.077 148.521 490.692 151.985 490.121 156.493C489.576 160.8 490.917 166.425 493.289 170C493.275 168.853 492.647 166.149 492.904 165.059C493.062 163.967 493.421 162.914 493.917 161.942C494.907 160.001 496.439 158.367 498.21 157.201C501.033 155.343 504.315 154.36 507.593 153.881C510.597 153.441 514.257 153.036 517.224 153.871C518.65 154.273 518.887 154.649 519.75 153.137C519.903 152.87 521.11 149.757 520.992 149.755C520.492 149.747 519.991 149.739 519.491 149.731Z" fill="#212D5F"/>
<path fill-rule="evenodd" clip-rule="evenodd" d="M476.181 245.606C476.198 245.757 476.066 245.825 475.973 246.015C475.94 246.082 475.26 246.808 475.293 246.859C476.036 248.001 476.766 248.761 477.59 249.888C478.25 250.789 479.181 252.116 478.969 253.357C478.867 253.955 478.384 254.256 477.947 254.579C477.286 255.068 476.567 255.456 475.849 255.853C475.712 255.929 475.585 255.996 475.41 256C475.234 256.004 475.056 255.916 474.896 255.815C473.924 255.202 473.017 254.626 472.079 253.918C471.142 253.21 470.222 252.439 469.607 251.386C469.188 250.667 469.005 249.852 468.739 249.052C468.299 247.728 467.828 246.349 467.546 244.974C467.363 244.078 467.318 243.184 466.894 242.358C466.469 241.531 465.74 240.672 466.094 239.709C466.23 239.337 466.563 239.203 466.866 239.006C467.33 238.704 467.802 238.455 468.277 238.146C468.401 238.065 468.476 237.993 468.693 238.001C468.911 238.008 469.188 238.213 469.363 238.414C470.404 239.609 471.408 240.838 472.283 242.166C472.538 242.552 472.791 242.971 473.142 243.258C473.493 243.546 473.763 243.66 474.183 243.875C474.833 244.209 475.711 244.647 476.07 245.308C476.171 245.494 476.164 245.455 476.181 245.606Z" fill="#F5CEB0"/>
<path fill-rule="evenodd" clip-rule="evenodd" d="M496.104 217.182C488.19 219.073 479.952 219.226 472.466 222.491C471.062 231.347 472.68 236.141 475.541 244.341C472.972 245.219 470.461 246.235 467.849 247C461.163 238.336 457.859 230.826 456.24 220.442C455.53 215.889 456.382 214.524 458.97 211.744C465.479 204.753 477.617 197.384 484.857 193.828C492.098 190.272 494.081 199.095 497.155 202.82C500.229 206.545 499.175 213.381 496.104 217.182Z" fill="#FF7B5B"/>
<path fill-rule="evenodd" clip-rule="evenodd" d="M570.605 235.105C572.151 235.079 573.694 235.055 575.236 234.96C575.967 234.399 576.695 233.837 577.424 233.274C578.784 233.187 580.144 233.064 581.505 233C581.63 233.356 582.04 234.905 581.676 235.074C580.896 235.435 580.245 235.494 579.749 236.187C581.011 236.74 582.224 237 583.646 237.06C584.884 237.113 586.261 236.898 585.957 238.473C585.876 238.896 585.543 239.307 585.179 239.636C584.257 240.47 583.154 241.032 581.868 241.26C580.854 241.441 579.874 241.407 578.921 241.825C578.763 241.894 578.696 242.005 578.448 242C577.848 241.987 576.747 241.359 576.277 241.143C575.807 240.928 574.839 240.58 574.653 240.557C572.893 240.337 571.601 240.159 570 239.866C570.206 238.281 570.365 236.687 570.605 235.105Z" fill="#F5CEB0"/>
<path fill-rule="evenodd" clip-rule="evenodd" d="M552.007 231.266C554.174 232.143 556.821 232.21 559.183 232.549C563.383 233.152 567.013 234.015 570.997 235.207C571.056 235.884 570.206 245 570.306 245C563.864 244.972 557.42 244.945 550.978 244.917C548.675 244.907 546.307 244.885 544.171 244.022C537.971 241.518 533.898 234.689 530.542 229.179C526.784 223.007 523.758 216.274 522.042 209.231C521.659 207.658 521.707 206.232 521.818 204.743C522.103 200.935 516.63 190.846 520.231 190.036C522.45 189.536 528.946 194.445 530.64 195.97C532.074 197.261 536.948 205.834 537.608 207.652C540.581 215.842 544.539 220.715 548.678 228.376C549.469 229.841 550.642 230.714 552.007 231.266Z" fill="#FF7B5B"/>
<path fill-rule="evenodd" clip-rule="evenodd" d="M264 346.024L260.823 356.459L248.454 381L244 378.742L251.603 352.932L252.532 342L264 346.024Z" fill="#F5CEB0"/>
<path fill-rule="evenodd" clip-rule="evenodd" d="M250.184 380.674C249.823 381.413 249.495 382.284 249.759 382.976C250.049 383.731 250.889 384.129 250.991 385.019C251.034 385.392 250.913 385.764 250.759 386.106C250.644 386.362 250.503 386.619 250.274 386.783C249.897 387.056 249.385 387.014 248.922 386.961C248.203 386.878 247.474 386.792 246.802 386.525C245.644 386.066 244.787 385.125 244.058 384.153C243.44 383.329 242.755 382.624 243.087 381.487C243.186 381.148 243.39 380.85 243.576 380.548C244.062 379.755 244.437 378.895 244.685 378C246.65 378.635 248.616 379.27 250.581 379.906C250.464 380.132 250.322 380.393 250.184 380.674Z" fill="#333232"/>
<path fill-rule="evenodd" clip-rule="evenodd" d="M276 343L275.533 354.254L271.12 382L266.215 381.079L265.77 354.661L264 343.574L276 343Z" fill="#F5CEB0"/>
<path fill-rule="evenodd" clip-rule="evenodd" d="M272.892 380.656C272.693 381.473 272.555 382.416 272.963 383.052C273.409 383.746 274.323 383.966 274.612 384.835C274.734 385.199 274.693 385.597 274.615 385.973C274.556 386.254 274.471 386.542 274.282 386.756C273.968 387.109 273.454 387.177 272.986 387.223C272.26 387.293 271.523 387.364 270.804 387.241C269.566 387.028 268.52 386.269 267.595 385.451C266.811 384.758 265.986 384.198 266.07 382.989C266.096 382.627 266.234 382.285 266.353 381.943C266.664 381.045 266.85 380.104 266.904 379.154C268.976 379.37 271.047 379.585 273.119 379.801C273.053 380.052 272.968 380.345 272.892 380.656Z" fill="#333232"/>
<path fill-rule="evenodd" clip-rule="evenodd" d="M256.842 272.396C256.108 273.096 255.906 274.168 255.697 275.118C255.424 276.355 255.144 277.591 254.854 278.824C254.223 281.52 253.492 284.188 252.834 286.876C252.33 288.935 252.354 290.872 251.601 292.874C249.573 298.267 247.222 303.589 244.733 308.787C242.775 312.876 240.63 316.919 237.732 320.417C234.834 323.916 231.117 326.865 226.768 328.247C225.188 328.75 223.207 329.393 223.014 331.025C222.935 331.685 223.202 332.335 223.512 332.924C224.868 335.5 227.187 337.564 229.916 338.625C231.807 339.361 233.915 339.648 235.573 340.813C237.647 342.271 238.634 344.835 240.505 346.542C243.667 349.427 248.531 349.262 252.776 348.589C255.879 348.096 258.953 347.426 261.979 346.583C265.878 345.496 270.627 343.954 274.636 345.325C276.074 345.816 277.451 346.507 278.942 346.801C280.371 347.083 281.874 346.985 283.253 346.521C283.568 346.415 283.906 346.263 284.039 345.96C284.117 345.785 284.111 345.587 284.104 345.396C283.508 328.589 286.456 312.27 284.021 295.353C283.532 291.953 282.159 288.767 281.616 285.441C281.205 282.921 281.325 280.484 280.597 277.955C280.191 276.542 279.64 275.166 278.882 273.9C278.207 272.773 277.455 271.279 276.24 270.669C275.562 270.328 274.813 270.16 274.083 269.952C271.222 269.143 268.397 267.688 265.446 268.059C262.863 268.384 260.694 270.051 258.437 271.338C257.889 271.651 257.323 271.948 256.862 272.377C256.855 272.384 256.849 272.39 256.842 272.396Z" fill="#C1CBD2"/>
<path fill-rule="evenodd" clip-rule="evenodd" d="M253.337 245.463C252.775 246.261 252.305 247.115 251.948 247.99C250.723 250.997 250.683 254.484 251.841 257.519C252.523 259.306 253.667 260.953 254.088 262.838C254.494 264.66 254.895 266.261 255.775 267.968C256.572 269.511 257.939 271.478 259.684 270.895C260.444 270.642 260.958 269.976 261.692 269.673C262.476 269.349 263.396 269.331 264.228 269.295C265.864 269.225 267.615 269.383 269.097 268.529C270.75 267.576 271.559 265.622 272.06 263.757C272.561 261.893 272.899 259.91 274.035 258.36C274.709 257.438 275.476 256.789 275.912 255.724C276.394 254.549 277.23 253.581 277.638 252.353C278.533 249.656 277.728 246.458 275.668 244.529C275.007 243.909 274.24 243.421 273.477 242.935C272.037 242.018 270.561 240.901 268.943 240.338C268.192 240.078 267.385 240.008 266.586 240.001C264.774 239.985 262.996 240.278 261.216 240.458C258.063 240.775 255.195 242.823 253.337 245.463Z" fill="#212D5F"/>
<path fill-rule="evenodd" clip-rule="evenodd" d="M276.935 254.063C277.19 251.733 276.717 249.495 275.069 247.66C274.545 247.077 273.876 246.636 273.175 246.273C270.791 245.041 267.951 244.684 265.329 245.287C261.646 246.133 259.498 248.191 258.519 251.142C258.183 252.157 257.984 253.278 257.909 254.492C257.906 254.542 257.903 254.593 257.9 254.644C257.677 254.548 257.422 254.492 257.13 254.483C256.331 254.46 255.572 254.984 255.233 255.692C254.893 256.401 254.943 257.253 255.266 257.97C255.589 258.686 256.163 259.275 256.82 259.721C257.22 259.993 258.347 260.04 258.824 260.07C259.308 262.872 258.549 264.135 262.122 267.276C263.569 268.547 263.759 268.792 263.843 270.803C263.887 271.836 264.14 272.992 265.03 273.55C265.499 273.844 266.073 273.919 266.628 273.96C267.387 274.014 268.149 274.013 268.907 273.959C269.49 273.916 270.109 273.825 270.548 273.448C271.227 272.865 271.228 271.847 271.166 270.964C270.997 268.544 271.3 268.467 273.289 267.495C275.091 266.613 276.931 264.689 276.986 262.983C277.018 262.004 276.753 260.94 276.389 259.729C275.851 257.948 276.591 256.397 276.87 254.562C276.895 254.395 276.917 254.229 276.935 254.063Z" fill="#F5CEB0"/>
<path fill-rule="evenodd" clip-rule="evenodd" d="M272.648 246.704C273.704 247.074 274.713 247.585 275.412 248.46C276.225 249.477 276.497 250.848 276.517 252.164C276.527 252.784 276.33 253.276 275.73 253.427C276.394 254.607 278.063 253.735 278.617 252.869C279.437 251.585 278.76 248.991 278.263 247.652C277.754 246.279 276.936 245.051 276.056 243.904C274.93 242.436 273.125 241.412 271.169 241.061C269.423 240.748 267.456 241.675 266.176 242.986C265.791 243.381 264.853 244.212 265.02 244.863C265.264 245.817 266.821 245.312 267.496 245.43C268.9 245.673 270.298 246.002 271.671 246.397C271.996 246.49 272.325 246.59 272.648 246.704Z" fill="#212D5F"/>
<path fill-rule="evenodd" clip-rule="evenodd" d="M265.68 251.335C264.561 252.027 263.329 252.537 262.034 252.813C261.77 252.87 261.474 252.937 261.33 253.162C261.244 253.298 261.231 253.464 261.221 253.624C261.143 254.848 261.362 255.999 260.75 257.109C260.191 258.122 259.257 259.037 259.268 260.19C259.274 260.815 259.566 261.398 259.764 261.993C259.978 262.635 259.862 263.044 259.776 263.667C259.699 264.229 259.819 264.769 259.945 265.365C260.219 266.658 260.567 267.947 261.176 269.131C261.649 270.053 262.274 270.898 263.018 271.625C263.534 272.128 264.124 272.599 264.402 273.259C264.713 273.995 264.576 274.849 264.257 275.582C263.568 277.165 262.054 278.339 260.362 278.782C258.67 279.224 256.829 278.971 255.248 278.231C251.785 276.612 248.967 272.744 252.938 270.076C253.907 269.425 255.09 268.744 255.221 267.597C255.431 265.763 252.751 264.507 253.012 262.68C253.199 261.372 254.723 260.786 255.758 259.946C260.148 256.383 255.365 250.667 256.864 246.415C257.233 245.368 257.976 244.493 258.744 243.682C260.116 242.232 261.734 240.85 263.851 241.013C264.88 241.092 265.898 241.315 266.865 241.67C267.676 241.968 270.723 242.297 271.166 242.928C271.256 243.057 275.027 244.013 275 244.167C274.429 247.433 268.523 249.579 265.68 251.335Z" fill="#212D5F"/>
<path fill-rule="evenodd" clip-rule="evenodd" d="M310.773 283.047C310.668 283.021 310.561 282.996 310.457 283.001C309.489 283.044 309.011 283.641 308.096 283.945C307.688 284.081 306.822 283.396 306.599 284.259C306.516 284.577 306.425 285.387 306.255 286.067C306.008 287.06 305.089 288.17 304.195 288.918C300.684 291.856 296.463 293.767 292.228 295.526C291.987 295.627 291.733 295.727 291.472 295.706C290.715 295.645 289.753 294.588 289.194 294.143C288.217 293.366 287.186 292.657 286.128 291.995C284 290.663 281.754 289.528 279.514 288.396C278.806 288.038 278.074 287.674 277.283 287.61C275.047 287.432 273.801 290.201 274.026 292.067C274.454 295.612 279.513 297.048 282.268 298.428C284.874 299.735 287.574 300.861 290.339 301.794C290.68 301.909 291.034 302.023 291.394 301.996C291.777 301.967 292.128 301.781 292.465 301.599C296.809 299.247 300.918 296.529 304.994 293.714C306.114 292.941 306.681 291.682 307.723 290.976C308.388 290.526 309.237 290.646 309.959 290.359C310.674 290.074 311.539 289.52 312.097 288.995C313.197 287.959 313 286.418 312.962 285.055C312.952 284.716 312.947 284.487 312.789 284.209C312.532 283.759 312.066 283.561 311.611 283.349C311.341 283.223 311.06 283.118 310.773 283.047Z" fill="#F5CEB0"/>
<path fill-rule="evenodd" clip-rule="evenodd" d="M266.18 291.859C266.219 292.185 266.281 292.513 266.378 292.845C266.747 294.104 267.457 295.223 268.37 296.168C270.369 298.239 272.88 299.776 274.892 301.834C274.957 301.901 275.027 301.971 275.118 301.993C275.219 302.017 275.323 301.977 275.415 301.93C276.127 301.567 276.503 300.78 276.73 300.021C276.957 299.263 277.096 298.457 277.542 297.799C278.583 296.264 280.785 296.133 282.432 295.253C283.352 294.761 284.123 294.003 284.625 293.098C284.787 292.806 284.924 292.485 284.911 292.152C284.874 291.169 284.28 290.5 285.037 289.581C285.227 289.351 285.472 289.161 285.613 288.898C287.238 285.876 283.316 285.586 281.709 284.757C279.592 283.666 277.847 281.875 275.478 281.279C273.547 280.793 271.927 280.966 270.067 281.616C269.632 281.769 269.169 281.941 268.898 282.31C268.726 282.545 268.652 282.834 268.523 283.095C268.274 283.596 267.664 284.007 267.319 284.465C266.912 285.008 266.578 285.604 266.326 286.231C265.896 287.3 265.988 288.019 266.066 289.1C266.135 290.045 266.07 290.945 266.18 291.859Z" fill="#DAEAF5"/>
<path fill-rule="evenodd" clip-rule="evenodd" d="M290.864 242.055C290.785 242.128 290.705 242.204 290.652 242.293C290.162 243.124 290.412 243.847 290.173 244.775C290.066 245.189 289.008 245.54 289.624 246.194C289.852 246.436 290.495 246.95 290.985 247.461C291.699 248.204 292.148 249.573 292.3 250.723C292.9 255.244 292.232 259.801 291.427 264.288C291.382 264.543 291.33 264.81 291.169 265.016C290.704 265.615 289.275 265.845 288.589 266.071C287.391 266.465 286.223 266.941 285.078 267.465C282.778 268.52 280.582 269.779 278.391 271.035C277.699 271.432 276.988 271.845 276.502 272.471C275.131 274.24 276.82 276.78 278.54 277.603C281.806 279.165 285.794 275.722 288.479 274.171C291.018 272.703 293.454 271.061 295.76 269.259C296.045 269.036 296.335 268.803 296.508 268.488C296.692 268.153 296.725 267.76 296.753 267.379C297.11 262.481 297.026 257.58 296.84 252.655C296.789 251.301 296.021 250.146 295.986 248.894C295.963 248.095 296.529 247.453 296.677 246.694C296.824 245.944 296.821 244.922 296.676 244.172C296.39 242.693 294.964 242.022 293.777 241.316C293.481 241.14 293.282 241.02 292.959 241.002C292.433 240.972 292.01 241.254 291.579 241.519C291.325 241.676 291.082 241.853 290.864 242.055Z" fill="#F5CEB0"/>
<path fill-rule="evenodd" clip-rule="evenodd" d="M273.648 285.308C273.941 285.454 274.249 285.583 274.579 285.684C275.83 286.066 277.145 286.084 278.423 285.834C281.219 285.288 283.841 284.018 286.634 283.455C286.725 283.436 286.82 283.416 286.888 283.351C286.961 283.28 286.983 283.17 286.992 283.067C287.066 282.266 286.606 281.516 286.091 280.907C285.576 280.298 284.974 279.737 284.66 278.998C283.926 277.276 284.985 275.346 285.122 273.473C285.198 272.426 284.973 271.359 284.481 270.438C284.322 270.14 284.125 269.848 283.839 269.675C282.995 269.165 282.119 269.297 281.752 268.153C281.659 267.866 281.63 267.554 281.485 267.291C279.815 264.257 277.489 267.404 275.941 268.303C273.903 269.487 271.475 269.973 269.717 271.642C268.284 273.002 267.569 274.463 267.127 276.39C267.024 276.841 266.922 277.326 267.088 277.757C267.193 278.032 267.396 278.253 267.546 278.506C267.834 278.991 267.854 279.733 268.056 280.275C268.295 280.917 268.616 281.528 269.008 282.086C269.676 283.037 270.327 283.356 271.275 283.884C272.103 284.347 272.823 284.898 273.648 285.308Z" fill="#DAEAF5"/>
<path fill-rule="evenodd" clip-rule="evenodd" d="M218.163 366.09L218 376.915L224.819 377L225 365L218.163 366.09Z" fill="#F5CEB0"/>
<path fill-rule="evenodd" clip-rule="evenodd" d="M224.258 376L218.667 377.834L217 379.614L217.282 383.835L232.395 385C233.672 383.155 232.841 380.652 230.71 379.926L230.007 379.686L224.258 376Z" fill="#212D5F"/>
<path fill-rule="evenodd" clip-rule="evenodd" d="M171.404 359L167 369.38L173.118 372L178 360.492L171.404 359Z" fill="#F5CEB0"/>
<path fill-rule="evenodd" clip-rule="evenodd" d="M172.949 371.332C172.731 371.094 172.477 370.868 172.182 370.655C171.451 370.128 165.561 367.044 165.055 368.434C164.973 368.66 164.999 368.908 165.028 369.146C165.513 373.146 166.463 377.091 167.853 380.878C168.447 382.498 169.349 384.292 171.045 384.696C171.788 384.873 172.569 384.742 173.315 384.576C174.415 384.329 175.497 384.005 176.55 383.606C176.935 383.46 177.344 383.28 177.544 382.924C177.944 382.21 177.246 381.365 176.518 380.981C175.79 380.596 174.901 380.32 174.545 379.583C174.386 379.253 174.363 378.877 174.343 378.512C174.195 375.802 174.661 373.199 172.949 371.332Z" fill="#212D5F"/>
<path fill-rule="evenodd" clip-rule="evenodd" d="M213.067 317.289C210.893 327.239 204.676 334.387 198.035 341.703C190.436 350.076 183.287 358.858 176.631 368C173.754 366.799 170.877 365.599 168 364.398C170.405 350.416 177.034 337.588 182.17 324.364C183.858 320.02 185.38 315.604 186.541 311.088C187.627 306.861 189.583 300.715 188.716 296.336C187.973 292.584 185.692 289.106 184.986 285.14C184.127 280.317 183.963 275.401 183.805 270.516C183.708 267.538 182.743 259.784 185.24 257.516C186.703 256.187 191.319 256.126 193.414 256.027C197.876 255.816 202.33 256.804 205.91 259.574C213.169 265.193 215.09 275.586 215.733 284.193C216.556 295.199 215.421 306.522 213.067 317.289Z" fill="white"/>
<path fill-rule="evenodd" clip-rule="evenodd" d="M187 264.987C186.983 259.109 187.704 253.443 188.808 249.122C197.911 248.636 208.199 249.639 217.202 251.459C226.001 253.237 231.489 255.145 231.553 264.649C231.67 282.137 238.532 297.034 241.495 313.843C243.217 323.612 240.242 332.349 236.945 341.396C233.173 351.749 229.96 362.303 227.326 373C224.277 372.982 221.228 372.964 218.179 372.946C215.17 359.459 216.411 345.451 216.155 331.638C215.977 322.039 214.991 312.215 211.449 303.209C207.556 293.31 201.95 297.25 195.515 291.509C189.26 285.928 187.03 275.141 187 264.987Z" fill="white"/>
<path fill-rule="evenodd" clip-rule="evenodd" d="M198.017 201.386C196.99 202.174 196.087 203.125 195.195 204.067C194.396 204.911 193.598 205.754 192.798 206.598C190.031 209.521 188.663 213.848 187.477 217.583C181.234 237.235 178.986 264.197 183.041 284.732C198.419 286.047 216.217 282.208 231.561 280.132C233.053 279.931 234.743 279.599 235.517 278.321C235.987 277.546 236 276.591 236 275.688C235.998 262.652 233.216 248.642 230.607 235.791C229.506 230.368 228.149 224.991 226.409 219.733C224.568 214.166 222.491 208.156 218.181 203.945C213.569 199.44 204.74 197.215 198.966 200.732C198.637 200.933 198.321 201.152 198.017 201.386Z" fill="#86C2BB"/>
<path fill-rule="evenodd" clip-rule="evenodd" d="M209.688 195.113C203.754 196.372 197.606 195.288 191.623 194.291C185.639 193.294 179.426 192.395 173.577 194.001C163.015 196.9 154.997 207.571 144.044 207.485C139.535 207.449 135.283 205.524 130.889 204.505C125.433 203.239 119.75 203.375 114.221 202.472C108.694 201.569 102.984 199.346 99.8603 194.697C96.1543 189.18 97.1703 181.398 101.059 176.008C104.948 170.617 111.176 167.335 117.557 165.475C122.007 164.178 126.75 163.428 130.602 160.847C134.498 158.236 137.042 154.034 140.672 151.065C149.781 143.616 163.957 145.751 173.366 152.816C175.73 154.592 177.921 156.652 180.578 157.951C191.38 163.239 206.917 156.239 216.221 165.86C225.668 175.63 224.323 192.009 209.688 195.113Z" fill="#1F28CF"/>
<path fill-rule="evenodd" clip-rule="evenodd" d="M202.431 200.38C202.541 200.568 202.685 200.746 202.873 200.911C203.613 201.564 204.603 201.899 205.571 201.978C206.848 202.083 208.121 201.791 209.362 201.471C211.038 201.039 210.917 200.039 211.069 198.468C211.152 197.609 211.184 196.747 211.195 195.885C211.206 195.075 210.75 193.897 211.363 193.279C211.751 192.888 212.723 192.852 213.225 192.554C213.749 192.244 214.208 191.819 214.586 191.346C215.325 190.42 215.776 189.3 216.126 188.171C217.258 184.508 216.839 181.019 216.99 177.309C217.099 174.658 216.309 171.203 214.222 169.395C212.238 167.677 209.466 167.204 206.941 167.035C203.596 166.812 200.193 167.639 197.435 169.597C196.321 170.388 195.281 171.388 194.675 172.712C193.741 174.754 193.97 177.217 194.223 179.517L194.924 185.886C195.193 188.327 195.665 191.131 197.561 192.347C198.568 192.992 199.837 193.065 200.717 193.918C201.819 194.987 201.855 196.691 201.985 198.124C202.06 198.943 202.046 199.724 202.431 200.38Z" fill="#F5CEB0"/>
<path fill-rule="evenodd" clip-rule="evenodd" d="M203.623 174.667C204.945 175.698 206.285 176.717 207.743 177.522C212.055 179.903 217.14 180.267 222 179.852C219.991 177.926 219.668 174.811 218.78 172.117C216.925 166.492 211.953 162.125 206.333 161.184C203.889 160.775 201.269 161.004 199.135 162.316C191.566 166.968 199.568 171.506 203.623 174.667Z" fill="#1F28CF"/>
<path fill-rule="evenodd" clip-rule="evenodd" d="M197.528 175.305C196.622 177.765 196.455 180.578 196.878 183.199C197.56 187.415 199.553 191.264 201.557 195C201.43 194.763 198.427 194.437 197.978 194.293C196.742 193.897 195.552 193.35 194.437 192.672C192.416 191.442 189.929 189.464 188.938 187.185C187.682 184.298 187.834 180.045 188.538 177.029C189.33 173.641 191.049 170.503 193.423 168.035C194.846 166.556 196.641 165.231 198.732 165.022C200.224 164.872 202.378 165.479 202.901 167.132C203.511 169.064 201.154 170.229 200.038 171.327C198.905 172.44 198.08 173.807 197.528 175.305Z" fill="#1F28CF"/>
<path fill-rule="evenodd" clip-rule="evenodd" d="M258.387 185.355C258.458 185.328 258.489 185.392 258.791 185.443C259.34 185.535 259.382 185.737 259.945 185.578C261.072 185.261 261.238 184.678 261.727 183.698C261.788 183.576 261.85 183.449 261.849 183.312C261.849 183.164 261.773 183.027 261.712 182.891C261.501 182.419 261.446 181.879 261.561 181.375C261.589 181.251 261.635 181.118 261.744 181.051C261.832 180.997 261.943 180.998 262.046 181.001C263.133 181.031 264.049 181.23 265.006 181.784C265.503 182.094 265.846 182.707 266.137 183.212C266.744 184.267 267.285 185.651 266.832 186.861C266.428 187.942 265.957 189.032 265.157 189.867C264.611 190.437 263.934 190.864 263.265 191.285C261.997 192.082 260.558 192.489 259.317 193.181C258.113 193.852 257.303 195.492 256.423 196.55C254.192 199.233 251.685 201.689 248.954 203.867C248.869 203.935 248.773 204.006 248.664 204C248.538 203.993 248.444 203.885 248.366 203.786C247.244 202.367 246.122 200.948 245 199.529C247.041 197.312 249.195 195.198 251.45 193.196C253.204 191.64 256.59 189.903 257.231 187.644C257.387 187.096 257.677 185.88 258.155 185.52C258.29 185.419 258.346 185.371 258.387 185.355Z" fill="#F5CEB0"/>
<path fill-rule="evenodd" clip-rule="evenodd" d="M213.617 200.989L233.568 201.948L244.468 196L252 203.304L238.303 216.614L210.656 216.979C207.135 217.435 206.037 210.138 206.037 210.138C205.564 204.1 209.662 201.692 213.617 200.989Z" fill="#86C2BB"/>
<path fill-rule="evenodd" clip-rule="evenodd" d="M261.62 240.466C261.879 240.4 262.137 240.335 262.399 240.284C263.295 240.106 264.21 240.086 265.121 240.066C266.106 240.045 267.116 240.028 268.045 240.384C268.974 240.74 269.82 241.554 269.973 242.612C270.055 243.176 269.936 243.749 269.819 244.305C269.777 244.5 269.733 244.703 269.615 244.858C269.35 245.209 268.852 245.165 268.44 245.089L263.539 244.186C263.834 244.876 263.409 245.807 262.724 245.969C262.021 246.135 261.362 245.594 260.676 245.357C259.083 244.807 257.647 245.884 256.086 245.894C254.557 245.904 252.967 245.434 251.393 245.285C247.977 244.96 244.59 244.257 241.305 243.187C241.203 243.153 241.091 243.112 241.036 243.013C240.971 242.898 241.006 242.75 241.043 242.621C241.569 240.774 242.095 238.927 242.622 237.079C242.797 236.463 255.134 239.631 256.48 240.069C257.723 240.473 259.007 240.871 260.298 240.734C260.744 240.686 261.182 240.576 261.62 240.466Z" fill="#F5CEB0"/>
<path fill-rule="evenodd" clip-rule="evenodd" d="M220.295 206.768L232.842 226.996L246 233.688L243.976 246L221.759 241.521L202.722 214.631C199.899 211.483 206.264 205.49 206.264 205.49C211.824 200.959 216.938 203.359 220.295 206.768Z" fill="#86C2BB"/>
<path fill-rule="evenodd" clip-rule="evenodd" d="M148.257 295C156.764 295 157.202 287.674 157.202 273.07C157.202 258.466 169.51 246 161.004 246C152.497 246 138 258.466 138 273.07C138 287.674 139.751 295 148.257 295Z" fill="#121BB4"/>
<path fill-rule="evenodd" clip-rule="evenodd" d="M167.724 220C162.371 220 158.031 224.339 158.031 229.692V237.782C158.031 242.638 161.601 246.659 166.26 247.365C166.262 247.405 166.264 247.444 166.266 247.484H178.759C180.883 245.416 178.482 231.386 176.985 226.736C176.757 226.029 176.537 225.535 176.321 225.214C174.704 222.115 171.461 220 167.724 220Z" fill="#191847"/>
<path fill-rule="evenodd" clip-rule="evenodd" d="M167.91 240.711C170.699 242.386 173.44 243.196 174.727 242.866C177.953 242.037 178.249 230.275 175.753 225.638C173.257 221.001 160.424 218.98 159.777 228.167C159.553 231.356 160.896 234.202 162.881 236.523L159.322 253.056H169.661L167.91 240.711Z" fill="#FFC0A5"/>
<path fill-rule="evenodd" clip-rule="evenodd" d="M158.41 228.221C158.711 227.925 159.001 227.639 159.289 227.383L159.275 227.049C159.275 227.049 162.52 220.429 167.508 220.429C172.492 220.429 174.068 222.738 175.408 224.701L175.412 224.706C174.711 227.103 172.599 228.072 170.21 229.169C169.182 229.641 168.102 230.136 167.062 230.779C166.655 230.449 166.135 230.252 165.569 230.252C164.261 230.252 163.2 231.309 163.2 232.613C163.2 233.917 164.261 234.974 165.569 234.974C165.605 234.974 165.641 234.973 165.677 234.971C166.153 240.071 165.962 245.894 164.543 247.276H152.051C151.692 241.067 153.304 239.295 154.951 237.485C156.5 235.782 158.081 234.045 158.081 228.544C158.192 228.436 158.302 228.328 158.41 228.221Z" fill="#191847"/>
<path fill-rule="evenodd" clip-rule="evenodd" d="M142.633 329.897C142.633 329.897 157.959 334.189 169.079 334.189C180.199 334.189 189.737 327.579 189.737 327.579C189.737 327.579 174.738 323.173 165.033 323.173C155.328 323.173 142.633 329.897 142.633 329.897Z" fill="#121BB4"/>
<path fill-rule="evenodd" clip-rule="evenodd" d="M177.925 338.314C177.827 338.165 177.743 338.004 177.677 337.829C176.312 334.213 154.435 295.197 152.256 288.063H176.885C178.543 293.487 186.001 327.522 187.05 334.312C190.362 345.023 197.181 379.713 198.051 382.116C198.967 384.644 193.814 387.278 192.441 384.17C190.257 379.225 185.052 365.541 182.734 357.186C180.561 349.353 178.792 342.306 177.925 338.314Z" fill="#FFC0A5"/>
<path fill-rule="evenodd" clip-rule="evenodd" d="M157.774 343.077C147.772 345.608 111.189 350.184 108.679 350.902C106.096 351.64 103.832 346.31 107.024 345.156C112.103 343.318 126.099 339.073 134.584 337.341C141.41 335.948 147.638 334.811 151.819 334.145C151.465 322.384 149.846 294.159 150.907 288.063H172.7C171.682 293.909 163.078 336.562 161.479 340.832C160.971 342.356 159.457 343.03 157.774 343.077Z" fill="#FFC0A5"/>
<path fill-rule="evenodd" clip-rule="evenodd" d="M107.689 346.056C107.869 344.899 107.199 343.713 106.035 343.579C105.394 343.504 104.749 343.468 104.326 343.543C103.19 343.744 101.077 344.506 101.077 344.506C101.309 345.822 105.248 368.164 105.248 368.164C105.248 368.164 108.463 368.548 108.357 366.518C108.25 364.488 108.214 363.14 108.214 363.14L111.04 351.852C111.177 351.305 110.835 350.753 110.284 350.632L109.02 350.355C109.02 350.355 107.837 348.667 107.634 347.517C107.565 347.129 107.606 346.594 107.689 346.056Z" fill="#C5CFD6"/>
<path fill-rule="evenodd" clip-rule="evenodd" d="M193.221 383.75C192.112 383.372 190.829 383.826 190.494 384.949C190.309 385.568 190.162 386.196 190.162 386.627C190.162 387.78 190.546 389.993 190.546 389.993C191.882 389.993 214.569 389.993 214.569 389.993C214.569 389.993 215.505 386.894 213.488 386.646C211.47 386.399 210.136 386.2 210.136 386.2L199.51 381.457C198.996 381.227 198.393 381.468 198.178 381.989L197.685 383.186C197.685 383.186 195.818 384.059 194.65 384.059C194.256 384.059 193.736 383.926 193.221 383.75Z" fill="#C5CFD6"/>
<path fill-rule="evenodd" clip-rule="evenodd" d="M150.979 288.063C150.979 288.063 165.384 283.937 178.238 288.063C181.219 301.684 188.464 307.09 189.738 327.973C175.256 335.178 157.368 322.835 142.46 329.861C138.201 320.033 144.164 296.365 150.979 288.063Z" fill="#1F28CF"/>
<path fill-rule="evenodd" clip-rule="evenodd" d="M209.416 268.682L192.484 270.99L195.522 278.571L209.26 273.128C215.182 273.712 218.046 273.571 217.851 272.706C217.687 271.977 217.057 271.757 216.477 271.554C216.026 271.396 215.604 271.249 215.456 270.879C215.118 270.036 217.043 268.287 218.94 266.707C220.838 265.126 219.564 264.835 218.763 264.858C215.919 265.525 212.803 266.799 209.416 268.682ZM127.041 310.248C128.298 307.699 139.298 274.906 139.298 274.906L148.688 274.94C148.688 274.94 133.239 309.679 132.577 311.317C131.717 313.446 133.177 316.538 134.166 318.635C134.319 318.959 134.461 319.26 134.581 319.529C133.208 320.144 132.548 319.401 131.853 318.619C131.067 317.735 130.236 316.799 128.279 317.71C127.523 318.061 126.808 318.477 126.109 318.883C123.694 320.286 121.476 321.575 118.459 319.714C117.981 319.419 117.457 318.309 118.724 317.441C121.879 315.278 126.426 311.493 127.041 310.248Z" fill="#FFC0A5"/>
<path fill-rule="evenodd" clip-rule="evenodd" d="M165.016 245.142L172.368 245.631C174.18 262.004 184.044 272.345 206.126 268.846L209.061 289.929C188.422 292.594 170.32 284.335 166.609 261.975C165.649 256.187 164.89 250.163 165.016 245.142Z" fill="#D3DEE6"/>
<path fill-rule="evenodd" clip-rule="evenodd" d="M128.33 306C133.435 278.856 144.209 257.856 160.653 243H161.359H161.383L161.389 243.007L172.529 245.557C172.529 258.93 175.506 268.922 178.368 278.529C179.604 282.677 180.819 286.754 181.763 291H151.677C151.253 295.865 150.993 300.865 150.857 306H128.33Z" fill="#C5CFD6"/>
<path fill-rule="evenodd" clip-rule="evenodd" d="M151.814 291.317C152.677 281.413 154.218 272.07 156.765 263.288C156.207 272.68 156.052 284.331 157.929 291.317H151.814Z" fill="black" fill-opacity="0.1"/>
<path fill-rule="evenodd" clip-rule="evenodd" d="M153.875 249.201L157.325 246C157.325 246 159.776 255.156 159.937 260.516C160.099 265.876 160.126 266.82 157.713 273.656C155.299 280.493 152 283 152 283C152 283 154.686 270.836 155.077 263.789C155.468 256.742 153.875 249.201 153.875 249.201Z" fill="#1F28CF"/>
<path fill-rule="evenodd" clip-rule="evenodd" d="M80.8451 184C74.0249 184 68.4961 189.529 68.4961 196.349V204.898C68.4961 211.084 73.0446 216.207 78.9796 217.107C78.9824 217.157 78.9854 217.208 78.9885 217.258H94.9049C97.6116 214.755 94.5526 197.778 92.6452 192.151C92.1941 190.82 91.7669 190.115 91.3447 189.845C89.1666 186.337 85.2787 184 80.8451 184Z" fill="#191847"/>
<path fill-rule="evenodd" clip-rule="evenodd" d="M80.917 209.031C84.4632 211.063 87.9474 212.045 89.583 211.644C93.6843 210.639 94.0614 196.377 90.888 190.755C87.7147 185.132 71.401 182.682 70.5787 193.822C70.2933 197.688 72.0012 201.138 74.5246 203.954L70 224H83.1429L80.917 209.031Z" fill="#B28B67"/>
<path fill-rule="evenodd" clip-rule="evenodd" d="M69.1674 193.429C69.5499 193.071 69.9199 192.725 70.287 192.415L70.2693 192.011C70.2693 192.011 74.4035 184 80.7591 184C87.109 184 89.1172 186.794 90.8243 189.169L90.8289 189.176C89.936 192.075 87.245 193.249 84.2015 194.576C82.8915 195.147 81.5161 195.746 80.1907 196.524C79.6716 196.125 79.0096 195.886 78.2886 195.886C76.6214 195.886 75.2699 197.165 75.2699 198.743C75.2699 200.321 76.6214 201.6 78.2886 201.6C78.3345 201.6 78.3803 201.599 78.4257 201.597C79.0326 207.768 78.7895 214.814 76.9808 216.487H61.0644C60.6075 208.973 62.661 206.83 64.7595 204.639C66.734 202.579 68.7482 200.476 68.7482 193.82C68.8898 193.689 69.0294 193.558 69.1674 193.429Z" fill="#191847"/>
<path fill-rule="evenodd" clip-rule="evenodd" d="M68 272L87.3098 338.546L96.3921 388.51H105.508L96.4084 272H68Z" fill="#B28B67"/>
<path fill-rule="evenodd" clip-rule="evenodd" d="M59.165 272C60.5123 306.571 59.9809 325.426 59.6794 328.567C59.3778 331.708 57.6659 352.743 46 389.565H55.4814C70.9309 354.241 76.3242 333.206 78.0961 328.567C79.8681 323.929 85.1014 305.073 92.7418 272H59.165Z" fill="#B28B67"/>
<path fill-rule="evenodd" clip-rule="evenodd" d="M68 272C73.0228 294.899 81.71 331.451 94.0617 381.657H107.395C108.38 330.125 104.19 296.209 96.9355 272H68Z" fill="#DA2621"/>
<path fill-rule="evenodd" clip-rule="evenodd" d="M59.6934 272C61.0129 306.571 57.5932 340.629 47 382.195H61.2257C76.7036 347.399 87.7971 313.508 95.3788 272H59.6934Z" fill="#FF4133"/>
<path fill-rule="evenodd" clip-rule="evenodd" d="M44 395.429L44.4509 388.289C44.4912 387.652 45.1124 387.213 45.7441 387.309C50.303 388 56.1737 386 56.1737 386C61.9972 390.051 70.1548 392.113 74.0479 392.918C75.232 393.163 75.9889 394.365 75.6535 395.527L75.2282 397H56.1737H45.0586L44 395.429Z" fill="#C5CFD6"/>
<path fill-rule="evenodd" clip-rule="evenodd" d="M94 395.429L94.4509 388.289C94.4912 387.652 95.1124 387.213 95.7441 387.309C100.303 388 106.174 386 106.174 386C111.997 390.051 120.155 392.113 124.048 392.918C125.232 393.163 125.989 394.365 125.654 395.527L125.228 397H106.174H95.0586L94 395.429Z" fill="#C5CFD6"/>
<path fill-rule="evenodd" clip-rule="evenodd" d="M95 395.197L95.4234 388.277C95.4626 387.635 96.0915 387.194 96.7277 387.289C101.024 387.927 106.504 386 106.504 386C111.961 389.919 119.588 391.93 123.302 392.729C124.474 392.981 125.226 394.169 124.903 395.323L124.509 396.73H106.504H96.0003L95 395.197Z" fill="#212D5F"/>
<path fill-rule="evenodd" clip-rule="evenodd" d="M45 395.197L45.4234 388.277C45.4626 387.635 46.0915 387.194 46.7277 387.289C51.0241 387.927 56.5036 386 56.5036 386C61.9613 389.919 69.5884 391.93 73.3024 392.729C74.4742 392.981 75.2256 394.169 74.9027 395.323L74.5093 396.73H56.5036H46.0003L45 395.197Z" fill="#212D5F"/>
<path fill-rule="evenodd" clip-rule="evenodd" d="M111.902 263.991L128.595 276.434C133.121 277.676 136.902 279.22 139.94 281.066C140.657 281.73 141.525 283.073 138.551 282.839C135.576 282.604 132.438 282.494 132.028 283.523C131.619 284.551 133.419 285.784 132.591 287.172C132.038 288.097 129.424 285.774 124.747 280.201L108.221 273.238L111.902 263.991ZM47.7902 264.453C47.7902 264.453 42.6581 295.168 41.1338 298.316C40.3886 299.855 34.8535 304.521 31.0108 307.186C29.4684 308.255 30.1122 309.631 30.697 309.998C35.4537 312.981 38.5695 309.48 42.6734 307.554C47.1695 305.445 46.8068 311.438 50.3712 309.83C49.268 307.338 46.6919 302.698 47.8939 299.661C48.6952 297.635 58.7266 264.529 58.7266 264.529L47.7902 264.453Z" fill="#B28B67"/>
<path fill-rule="evenodd" clip-rule="evenodd" d="M79.1253 218.214L83.6493 217.421C100.412 232.106 107.269 260.35 127.821 275.29L122.862 281.522C87.1824 277.085 78.3808 242.635 79.1253 218.214Z" fill="#69A1AC"/>
<path fill-rule="evenodd" clip-rule="evenodd" d="M60 275.497C60 275.497 87.2 275.497 100.015 275.497C101.844 275.497 101.499 272.818 101.235 271.466C98.1845 255.864 86.2762 239.046 86.2762 216.837L74.7338 215C65.1868 230.58 61.8853 249.762 60 275.497Z" fill="#C5CFD6"/>
<path fill-rule="evenodd" clip-rule="evenodd" d="M54.8753 286.506C53.0769 290.888 51.3134 294.713 49.6516 297.65H41.0697C40.1464 267.358 51.4489 244.05 60.9079 229.996C58.8077 229.843 56.912 228.952 55.7137 226.758C51.495 219.033 53.0186 214.781 57.5271 213.383C60.0062 212.614 62.3379 213.139 65.129 213.767C67.4129 214.281 70.0045 214.864 73.2363 214.864C73.2373 214.864 73.2384 214.864 73.2394 214.864C73.5526 214.864 73.8377 214.886 74.0964 214.926L77.9263 215.148C77.9263 215.148 93.477 268.625 86.5039 286.506H54.8753Z" fill="#89C5CC"/>
<path fill-rule="evenodd" clip-rule="evenodd" d="M54.8667 286.31C57.2263 280.559 59.6459 273.847 61.9745 266.916C62.8413 274.549 64.2848 282.216 66.6881 286.31H54.8667Z" fill="black" fill-opacity="0.1"/>
</svg>
