<svg xmlns="http://www.w3.org/2000/svg" fill="none" viewBox="0 0 589 418"><path fill="#B7C6E0" fill-rule="evenodd" d="M380.2 43.2C226.3-28.6 64.6-7.5 19 90.3-26.6 188.1.4 500 215 397.3c214.8-102.5 315.7 50.8 361.3-47 45.6-97.8-42.2-235.3-196-307l-.1-.1z" clip-rule="evenodd" opacity=".4"/><g fill-rule="evenodd" clip-rule="evenodd"><path fill="#1F28CF" d="M509.7 360.1h-24c-8.3 0-15.1 6.8-15.1 15 0 1 .8 1.9 1.8 1.9s1.9-.8 1.9-1.8c0-6.3 5.1-11.4 11.5-11.4h1.2a15 15 0 0 0-5.2 11.4c0 1 .8 1.8 1.9 1.8 1 0 1.8-.8 1.8-1.8 0-6.3 5.1-11.4 11.5-11.4h1.5c6.3 0 11.4 5.1 11.4 11.4 0 1 .8 1.8 1.9 1.8 1 0 1.8-.8 1.8-1.8 0-4.6-2-8.6-5.2-11.4h1.3c6.3 0 11.4 5.1 11.4 11.4 0 1 .8 1.8 1.9 1.8 1 0 1.8-.8 1.8-1.8a15 15 0 0 0-15.1-15"/><path fill="#1F28CF" d="M495 365h6v-67h-6v67z"/><path fill="#EA3663" d="M527.6 301h-58.2c-2.4 0-4.4-2-4.4-4.5s2-4.5 4.4-4.5h58.2c2.4 0 4.4 2 4.4 4.5s-2 4.5-4.4 4.5z"/><path fill="#1B3874" d="M423.3 376c1.1 0 2-1 1.7-2l-30.3-129H388l33.7 129.7c.2.8.9 1.3 1.6 1.3z"/><path fill="#FFC0A5" d="M477.4 185.4L497 187l-6-33.8-7.6 6.6-6 25.6z"/><path fill="#FFC0A5" d="M462.2 146a9.7 9.7 0 0 0-1 6.5l.3 2v.2l1 5.4c1.3 7.4 5.3 12 8.6 13.4 1.7.8 7.9-1 11.9-4.9 3.8-3.5 9.4-12 8.8-15.7l-1.2-6.6s-6.4-10-22.8-5.2c-3 1-4.6 3-5.6 4.9zm-13.7 91.6a6.5 6.5 0 1 0 8.8-9.6 6.5 6.5 0 0 0-8.8 9.6z"/><path fill="#FFC0A5" d="M446 231.8l12 4.2 16.1-42.1c2.3-4.5 0-10-4.7-11.6-4.7-1.6-13.3 3.1-14.2 8l-9.2 41.5z"/><path fill="#C8987E" d="M383.6 367H378l8.9-19h8.1l-11.4 19z"/><path fill="#DDD" d="M435.6 283H486l-7.2-21-56.5 4.5a17 17 0 0 0-14 13.8L377 362.7l13.2 3.3 46.8-82.7-1.4-.3z"/><path fill="#C8987E" d="M446 365h-5.7l-4.3-17h8.3l1.7 17z"/><path fill="#1B3874" d="M439.5 364l4.5 2 4.2-2 3.8 12h-35c0-6 13.2-6 13.2-6l9.3-6zm-62 0l4.5 2 4.2-2 3.8 12h-35c0-6 13.2-6 13.2-6l9.3-6z"/><path fill="#F5F5F5" d="M423.2 286.6h-.2c0-8.2 6-15.3 14.2-16.8l41.3-7.8H521c1.2 3.3 2.2 7.4 2.1 12.8-.1 7.9-5.4 12.7-11.4 15.4-4.4 1.9-10.1 1.8-14.3 1.8h-48.2l.8 73-13-1.7-13.8-76.7z"/><path fill="#FFC0A5" d="M413 243l38.4-3.1L455 225l-42 11.7v6.3z"/><path fill="#EA3663" d="M520 262l-12.5-87-44.3 4.1-2.2 12.3c-.3 22 23 59.7 17.3 70.6H520z"/><path fill="#EA3663" d="M449 218.3l17.7 4.7 9.4-29a10.7 10.7 0 0 0-20.3-6.9l-6.8 31.2z"/><path fill="#FFC0A5" d="M477 245l39.7-3.5L519 227l-42 11.7v6.3z"/><path fill="#FFC0A5" d="M515 241a7 7 0 1 0 2-14 7 7 0 0 0-2 14zm-38-2.2l-5.4-1.4c-4.4-1-9 0-12.5 2.8L452 246l25-.8v-6.4z"/><path fill="#FFC0A5" d="M509.3 233l14.7-.4-6.2-46.1c-.1-5-4.5-7.1-9.5-6.3-5 .8-10.6 9-9 13.7l10 39.1z"/><path fill="#EA3663" d="M504.4 220l17.6-3.1-4-32a10.5 10.5 0 1 0-20.7 3l7 32.1h.1z"/><path fill="#1B3874" d="M541 247H341a3 3 0 1 1 0-6h200a3 3 0 1 1 0 6z"/><path fill="#1B3874" d="M325.7 376c-1.1 0-1.9-1-1.7-2l30.3-129h6.7l-33.7 129.7c-.2.8-.9 1.3-1.6 1.3zm236.6 0c1.1 0 2-1 1.7-2l-30.3-129H527l33.7 129.7c.2.8.9 1.3 1.6 1.3zm-98.6 0c-1.1 0-2-1-1.7-2l30.3-129h6.7l-33.7 129.7c-.2.8-.9 1.3-1.6 1.3"/><path fill="#FFC0A5" d="M475 178l.4 1.2a11 11 0 0 0 21.5-2.2l.1-1-22 2z"/><path fill="#1F28CF" d="M435 239h-48.1L372 210h48.1l14.9 29zm-44 2h61v-2h-61v2z"/><path fill="#191847" d="M463.5 135.8c1.8-1.8 4.9-3.7 6.3-4.3a13.2 13.2 0 0 1-4-5.4c-.7-2.1-.7-4.2-.8-6.4-.1-1-.1-2 .2-3 .3-.9.9-1.7 1.6-2.4a7 7 0 0 1 2.7-1.4c.4 0 .8 0 1.2-.2.5-.1.5-.4.7-.8a5 5 0 0 1 2-2.3 7.3 7.3 0 0 1 6.2-1c.5.2 1 .4 1.3.8l.4.2.6-.2a7 7 0 0 1 5.2 1.3c.9.7 2 2.1 2.8 4 .9 1.7 1.7 7 1.1 9.5-.5 2.2-2 4.2-3.6 5.6 2 .8 3.8 2.1 5.4 3.6 3.4 3.2 5.9 7.1 7.3 11.5.5 2 .4 4-.7 5.7-.5.9-1 1.6-1.7 2.3l-1.9 2c-1.3 1-3 1.9-4.8 1.3-.6-.2-1.4-.5-2-.9-.2 0-.3-.2-.3-.4l.3-1c.7-1.5.7-3.2 0-4.8-.6-1.7-2.1-3.5-4-3.4-2.4.2-4 2.2-5.1 4-2-2.1-4.8-3.6-7.7-3.5-3.2 0-6.2 1.4-9.4 1.7-.8.1-1.7.2-2.5-.2-.4 0-.8-.3-1-.6-.4-.3-.3-.8-.2-1.3.1-2.3 2.5-8.1 4.4-10z"/></g><path fill="#212D5F" fill-rule="evenodd" d="M348 336.5c2.2 5.6-53 9.2-100.4 6.7-47.5-2.6-69.3-12.5-46.6-17.8 22.6-5.3 144.7 5.5 147 11v.1z" clip-rule="evenodd" opacity=".3"/><g fill-rule="evenodd" clip-rule="evenodd"><path fill="#2143AF" d="M255.3 317c-1.6 0-3.2-.7-4.3-2.1l-18-24.4a5.1 5.1 0 0 1 .2-6.3l23.6-28.3a5.3 5.3 0 0 1 7.3-.7 5 5 0 0 1 .7 7.2l-21 25.2 15.7 21.2a5.1 5.1 0 0 1-1.2 7.2c-.9.7-2 1-3 1zm34.3 0a5 5 0 0 1-3-1 5.1 5.1 0 0 1-1.2-7.2l15.8-21.2-21-25.2a5.1 5.1 0 0 1 .7-7.2 5.3 5.3 0 0 1 7.4.7l23.5 28.2a5.1 5.1 0 0 1 .2 6.3L293.8 315a5.2 5.2 0 0 1-4.2 2.1"/><path fill="#191847" d="M288 225a15 15 0 1 1-30 0 15 15 0 0 1 30 0z"/><path fill="#FFC0A5" d="M277 243.7V267h-10l.5-22.6.1-6.4 9.4 5.7z"/><path fill="#2143AF" d="M256.4 265c0-4.3 3.8-8.5 7.8-10.5 5.9-3 15-.9 18 .8a16 16 0 0 1 7.5 14.6l.3 32.1h-35s1.3-27.3 1.4-37"/><path fill="#FFC0A5" d="M281 254.7a21.6 21.6 0 0 0-16-.3l3.8 3.8a6.2 6.2 0 0 0 8.7 0l3.5-3.5zm-5.2-37.7h-5.6c-5 0-9.8 4.1-9.1 9 .4 3.7 0 6.4 0 11.8 0 4.5 5.2 13.2 9.8 13.2h4.2c4.6 0 9.8-8.7 9.8-13.2 0-5.4-.4-8.1 0-11.7.7-5-4-9.1-9-9.1"/><path fill="#FFFEFF" d="M268 243c.4 1.7 2.3 3 4.5 3s4.1-1.3 4.5-3h-9z"/><path fill="#566CD3" d="M278.5 334h-11c-7.9 0-13.8-7.3-12.3-15l.7-16h34.2l.7 16c1.5 7.7-4.4 15-12.3 15"/><path fill="#566CD3" d="M222.5 316.6l48.1-4.6 1.4 14.4-48.1 4.6c-4 .3-7.5-2.5-7.9-6.5v-.1c-.3-4 2.5-7.4 6.5-7.8"/><path fill="#566CD3" d="M317 316.6l-48-4.5-1.4 14 48 4.4a7 7 0 0 0 7.8-6.2v-.2a7 7 0 0 0-6.4-7.5"/><path fill="#fff" d="M291.5 325h-37c-2 0-3.5-1.5-3.5-3.4v-24.2c0-1.9 1.5-3.4 3.5-3.4h37c2 0 3.5 1.5 3.5 3.4v24.2c0 1.9-1.5 3.4-3.5 3.4z"/><path fill="#EA3663" d="M291.5 327h-37c-2 0-3.5-1.5-3.5-3.4v-24.2c0-1.9 1.5-3.4 3.5-3.4h37c2 0 3.5 1.5 3.5 3.4v24.2c0 1.9-1.5 3.4-3.5 3.4z"/><path fill="#fff" d="M277.5 314h-10a2.5 2.5 0 1 1 0-5h10c1.4 0 2.5 1.1 2.5 2.5s-1.1 2.5-2.5 2.5zM254 341l13.8-.8v.2c-.2.9.5 1.6 1.3 1.6.6 0 1.1-.5 1.2-1.1l.2-1h1.5v.4c-.2.8.4 1.6 1.3 1.6.6 0 1.1-.5 1.2-1.2l.2-1 8.7-.5.5-.3 1-.3c4-1.5 6-6.1 4.6-10.3a7.6 7.6 0 0 0-9.8-4.8h-.1L252 334a3 3 0 0 0-1.2.8c-2.2 2.4-.2 6.5 3 6.3"/><path fill="#F7B75D" d="M276.4 335a7.5 7.5 0 1 1 14.1-5 7.5 7.5 0 0 1-14 5"/><path fill="#C5CFD6" d="M252 335.2l27.5-9.9c3-1 6.1.5 7.2 3.4 1 2.8-.5 10.5-3.4 11.5L254 342c-3.3.2-5.3-3.7-3-6a3 3 0 0 1 1-.8z"/><path fill="#fff" d="M274.7 338c.8 0 1.4.6 1.3 1.4l-.5 2.6c0 .6-.6 1-1.2 1-.8 0-1.4-.6-1.3-1.4l.5-2.6c0-.6.6-1 1.2-1zm-5 0c.8 0 1.4.6 1.3 1.4l-.5 2.6c0 .6-.6 1-1.2 1-.8 0-1.4-.6-1.3-1.4l.5-2.6c0-.6.6-1 1.2-1z"/><path fill="#FFC0A5" d="M313.8 319.2l-31.6 9a6 6 0 0 0-4 7.3c.8 3.3 4 5.2 7 4.3l31.6-9a6 6 0 0 0 4-7.3c-.8-3.3-4-5.2-7-4.3z"/><path fill="#fff" d="M285 341l-13.8-.8v.2c.2.9-.5 1.6-1.3 1.6-.6 0-1.1-.5-1.2-1.1l-.2-1H267v.4c.2.8-.4 1.6-1.3 1.6-.6 0-1.1-.5-1.2-1.2l-.2-1-8.7-.5-.5-.3-1-.3c-4-1.5-6-6.1-4.6-10.3a7.6 7.6 0 0 1 9.8-4.8h.1L287 334c.4.2.8.4 1.2.8 2.2 2.4.2 6.5-3 6.3"/><path fill="#FFC0A5" d="M225.2 319.2l31.6 9a6 6 0 0 1 4 7.3c-.8 3.3-4 5.2-7 4.3l-31.6-9a6 6 0 0 1-4-7.3c.8-3.3 4-5.2 7-4.3z"/><path fill="#C5CFD6" d="M287 335.2l-27.5-9.9c-3-1-6.1.5-7.2 3.4-1 2.8.5 10.5 3.4 11.5L285 342c3.3.2 5.3-3.7 3-6a3 3 0 0 0-1-.8"/><path fill="#fff" d="M265.3 338c-.8 0-1.4.6-1.3 1.4l.5 2.6c0 .6.6 1 1.2 1 .8 0 1.4-.6 1.3-1.4l-.5-2.6c0-.6-.6-1-1.2-1zm3 0c-.8 0-1.4.6-1.3 1.4l.5 2.6c0 .6.6 1 1.2 1 .8 0 1.4-.6 1.3-1.4l-.5-2.6c0-.6-.6-1-1.2-1z"/><path fill="#191847" d="M273.7 210c-10 0-18.7 10.2-18.7 10.2 12.5 7.5 21.3 2 24.3-.4 1-.7 2.7-2.1 2.7-4l-8.3-5.8z"/></g><g fill-rule="evenodd" clip-rule="evenodd"><path fill="#FFC0A5" d="M131.4 139.1c4.6 2.7 9 4 11.2 3.5 5.3-1.3 5.8-20.3 1.7-27.8-4.1-7.4-25.2-10.7-26.3 4.1-.3 5.2 1.9 9.7 5.1 13.5l-5.8 26.6h17l-2.9-19.9z"/><path fill="#191847" d="M119.6 108.4c-12.9 12.3 0 25.4 3.5 25.4a13 13 0 0 1 2-5.2 4 4 0 0 1-.9-2.5c0-2.2 2-4 4.3-4 .7 0 1.4.1 2 .4 4.3-3.6 9.4-6.3 14.8-7.8 5.6-1-13-18.7-25.7-6.3z"/><path fill="#B28B67" d="M111.9 221l24 83 11.4 62.5h11.4L147.3 221h-35.4z"/><path fill="#B28B67" d="M101.4 221c1.6 43.2 1 66.7.6 70.6-.4 4-2.5 30.2-17 76.1h11.8c19.3-44 26-70.3 28.2-76 2.2-5.9 8.8-29.4 18.3-70.7h-42 .1z"/><path fill="#DA2621" d="M111.2 221a6645 6645 0 0 0 32.6 136.5h16.6c1.3-64.1-4-106.4-13-136.5h-36.2z"/><path fill="#FF4133" d="M100.7 221A463 463 0 0 1 85 358.1h17.8c19.7-43.8 34-89.8 42.4-137.1h-44.5z"/><path fill="#C5CFD6" d="M83 376l.6-9.2c0-.7.6-1.1 1.3-1a32 32 0 0 0 13.2-1.6 65.4 65.4 0 0 0 23.7 9.1 2 2 0 0 1 .8 2.3l-.7 2.4H84.4l-1.3-2H83zm61.6 0l.6-9.2c0-.7.6-1.1 1.3-1a32 32 0 0 0 13.2-1.6 65.4 65.4 0 0 0 23.6 9.1 2 2 0 0 1 .8 2.3l-.7 2.4h-37.5l-1.3-2z"/><path fill="#121BB4" d="M95.1 234c15.1 0 15.9-12.9 15.9-38.5s21.7-47.5 6.7-47.5S77 169.9 77 195.5 80.1 234 95.1 234z"/><path fill="#FFC0A5" d="M192 207.9l-22.1-16.1-4.9 12 21.8 9c6.2 7.2 9.7 10.2 10.4 9 .6-1 .1-2-.3-2.8-.4-.7-.7-1.3-.4-2 .5-1.3 4.6-1.1 8.6-.8 3.9.3 2.7-1.4 1.8-2.3-4-2.4-9-4.4-15-6h.1zM76.5 234.6l17.6-20.9-11.6-5.7L72 229.1c-7.6 5.7-10.9 9-9.7 9.7 1 .7 2 .3 2.8 0 .7-.4 1.4-.6 2-.4 1.2.7.8 4.8.2 8.7-.6 3.9 1.3 2.8 2.2 2 2.7-3.9 5-8.7 7-14.5z"/><path fill="#69A1AC" d="M136 148.3c12 22.2 29.3 39.3 54.3 57l-9.5 10.6c-28-10.3-42.7-16.6-50-37.6-1.8-5.3-3-22-4.2-30.9l9.4.9z"/><path fill="#C5CFD6" d="M102.8 222h53.3s-18.1-54.6-18.5-75c0-.6-1.3-1.8-1.9-1.7a22.8 22.8 0 0 1-13.4-1.3c-12.6 20.1-17 44.9-19.5 78z"/><path fill="#89C5CC" d="M125 239.3H96.8c-1.2-8-1.3-17-.5-26.1-4 5.3-8 11.2-11.6 17.7l-12.6-9c7.8-30.8 19-58.6 40-69.3.9-2.2 1.9-4.2 2.8-6 .5-.9 1.3-2.4 3.4-2.4h8.2c3.3 10 6.3 20 8.7 30.3 8.3 35.6 8 64.8-10.3 64.8h.1z"/><path fill="#1F28CF" d="M106.3 153.7l6-5.7s4.3 16.3 4.6 25.9a47 47 0 0 1-3.9 23.4c-4.2 12.2-10 16.7-10 16.7s4.7-21.7 5.4-34.3c.7-12.5-2.1-26-2.1-26z"/></g></svg>