<svg xmlns="http://www.w3.org/2000/svg" fill="none" viewBox="0 0 1440 657"><path fill="#DAE7FF" fill-rule="evenodd" d="M991.307 144v28.252l-11.413-.079v-7.774h-3.638v7.749l-28.691-.202v64.108L900 266.844V417h247V197.637h-6.76v-15.992l-26.61-14.203-26.93 14.203v15.992h-10.94v57.128h-16.81v-6.567h-7.62v-12.88l-13.58-10.199-13.58 10.199v19.447h-9.54v-82.35l-11.32-.079v-11.848h-3.632v11.823l-4.736-.032V144h-3.635zM704.24 107v16.544l-9.874-.159v61.147h-6.065v-10.771h-8.013v-13.302l-18.261-13.669-18.263 13.669v13.302h-8.014v10.771h-11.854v98.011l-28.707-.102v-85.132l-28.838-.165v-10.038h-4.003v10.015l-21.773-.127v-9.888h-4.004v9.863l-15.244-.088v21.379h-28.048v-37.576h-83.35v37.576h-11.817v48.337h-45.925V225.76L290 165.772V417h583V118.077l-85.569 20.494v49.06h-4.771v-15.604h-3.845V161.84h-6.307v-8.299h-2.91v8.299H758.66v-15.815h-2.912v15.815h-4.728v10.187h-3.842v15.604h-6.672v-63.508l-9.756-.156v-11.95h-2.91v11.905l-20.69-.331V107h-2.91z" clip-rule="evenodd"/><path fill="#DAE7FF" fill-rule="evenodd" d="M553 196h4v-12h-4v12zM221 196h4v-12h-4v12z" clip-rule="evenodd"/><path fill="#DAE7FF" fill-rule="evenodd" d="M229.252 187v10.101l-21.713-.07V187h-3.992v10.017L131 196.78V417h131V197.208l-28.758-.093V187h-3.99zM711 123h3v-21h-3v21zM1171.15 152v9.616l-9.15-.484V417h142V259.605h-9.41v-21.244h-5.79v-14.452h-5.73v-22.43h-3.75v22.43h-14.07v-11.771h-3.74v11.771h-8.11v14.452h-4.94v21.244h-7.36v-94.282l-45.73-2.424v-6.708h-7.34v6.319l-9.55-.505V152h-7.33z" clip-rule="evenodd"/><path fill="#B8CFF8" fill-rule="evenodd" d="M750.237 145v34.387h-15.915v21.968h-8.55v97.789h-24.087v-48.247h-39.75v48.247h-5.556v-67.72l-67.196 43.631v52.718l-34.266-12.271v-20.861h-4.848v-12.23h-7.416v-9.87l-22.426-18.515-22.424 18.515v9.87h-12.266v12.23h-9.652v-70.777l-67.884-.933v44.686h-6.889v-13.165h-28.917v13.165h-9.951v8.701h-11.827v65.834l-9.881-.323v-20.391l-16.218-13.989-16.222 13.989v19.331l-1.455-.045v-7.841l-9.103-.26v-24.327L235 306.389v110.333h226.271V417h93.646v-.278h34.266v.058h230.816v-.018H1015.14v-.052H1163v-77.148l-9.04-.24v-22.387l-59.26-1.671V295.97h-15.38v-7.48h-12.94v-11.323h-37.61v11.323h-13.63v-30.647l-39.718-7.72v-3.485h-4.293v-7.842h5.468v-6.693h-57.695v6.693h5.465v7.842h-4.293v89.186h-33.076v-33.961l-23.021 3.168V275.89l-43.978-7.58v-9.117h4.576v-11.45h-45.159v-46.388h-8.992v-21.968H754.51V145h-4.273zm210.402 101.638h5.685v-7.842h-5.685v7.842zm-10.488 0h5.683v-7.842h-5.683v7.842zm-10.489 0h5.685v-7.842h-5.685v7.842zm-10.49 0h5.685v-7.842h-5.685v7.842z" clip-rule="evenodd"/><path fill="#BBCEF0" fill-rule="evenodd" d="M1200.59 393.978H1172V450h73v-79.53l-14.8 2.194v-20.171L1200.59 347v46.978z" clip-rule="evenodd"/><path fill="#BBCFF4" fill-rule="evenodd" d="M120 289v4.64h3.48v5.435h-2.734V417h60.565v-.036H232v-83.693h-9.798v-5.185h-8.246v-7.851h-23.961v7.851h-8.684v-21.245l-25.302-5.351v-2.415h-2.734v-5.435h3.48V289H120zm26.589 10.075h3.622v-5.435h-3.622v5.435zm-6.679 0h3.622v-5.435h-3.622v5.435zm-6.685 0h3.622v-5.435h-3.622v5.435zm-6.681 0h3.622v-5.435h-3.622v5.435zM1202.92 82.1268c-.41 0-.83-.1378-1.17-.4208-.78-.6467-.89-1.8042-.25-2.5869 1.13-1.3559 2.17-2.7945 3.11-4.2699.55-.8561 1.69-1.106 2.54-.5603.86.5456 1.11 1.6811.56 2.5373-1.02 1.6021-2.16 3.1601-3.37 4.6336-.37.4391-.89.667-1.42.667zm-9.44 8.6683c-.58 0-1.16-.2756-1.51-.79-.58-.836-.37-1.9806.46-2.5575 1.45-1.0014 2.85-2.1001 4.17-3.2631.76-.6688 1.92-.6008 2.59.1635.68.7607.6 1.9219-.16 2.5925-1.43 1.2585-2.94 2.4454-4.51 3.5294-.32.2205-.68.3252-1.04.3252zm-11.45 5.7728c-.77 0-1.48-.4832-1.74-1.2494-.33-.9609.19-2.0045 1.15-2.3278 1.66-.5622 3.3-1.2328 4.89-1.9953.92-.4428 2.02-.0533 2.45.8598.44.915.06 2.0119-.86 2.451-1.72.8286-3.5 1.5562-5.3 2.1643-.2.0662-.4.0974-.59.0974zm-71.24 1.4092c-.02 0-.05 0-.08-.0018-1.82-.079-3.64-.1415-5.46-.1764-1.01-.0202-1.82-.858-1.8-1.8722.02-1.0032.84-1.8024 1.83-1.8024h.04c1.85.0367 3.7.0974 5.55.18 1.02.046 1.8.904 1.76 1.9182-.05.9848-.86 1.7546-1.84 1.7546zm-18.36.0716c-.96 0-1.77-.7459-1.83-1.7178-.07-1.0124.7-1.8869 1.71-1.9549 1.85-.1194 3.72-.2003 5.58-.2444.98-.0735 1.86.779 1.88 1.7932.03 1.0161-.78 1.8575-1.79 1.8796-1.82.0441-3.63.1212-5.43.2407-.04.0018-.08.0036-.12.0036zm31.2.7111c-.04 0-.09-.0019-.13-.0055-1.83-.1305-3.66-.2591-5.49-.3767-1.01-.0661-1.78-.9407-1.71-1.953.06-1.0124.95-1.784 1.95-1.7142 1.84.1194 3.67.2462 5.51.3785 1.01.0735 1.78.9535 1.7 1.9659-.07.9664-.87 1.705-1.83 1.705zm45.84.4979c-.91 0-1.7-.6706-1.82-1.5948-.13-1.005.57-1.9291 1.58-2.0633 1.81-.2407 3.61-.5328 5.33-.8672.99-.1947 1.96.4594 2.16 1.4552.19.9976-.46 1.9604-1.46 2.1533-1.79.3472-3.66.6504-5.54.9003-.09.011-.17.0165-.25.0165zm-89.79.4042c-.86 0-1.63-.6082-1.8-1.4845-.2-.9959.45-1.9604 1.45-2.157 1.78-.3491 3.65-.6559 5.54-.9113 1.01-.1323 1.93.5714 2.07 1.5764.13 1.0068-.57 1.931-1.58 2.0669-1.82.2444-3.61.5384-5.33.8746-.12.0239-.24.0349-.35.0349zm56.78.0092c-.04 0-.08-.0019-.12-.0037-1.84-.1176-3.68-.2444-5.51-.3766-1.02-.0735-1.78-.9536-1.7-1.9659.07-1.0106.96-1.7675 1.96-1.6995 1.83.1304 3.66.2572 5.48.3748 1.01.0643 1.78.937 1.72 1.9493-.06.9738-.87 1.7216-1.83 1.7216zm20.19.5529c-.99 0-1.81-.7936-1.83-1.7913-.03-1.0141.77-1.8575 1.79-1.8813 1.82-.046 3.63-.125 5.43-.2444 1-.0661 1.89.7 1.95 1.7142.07 1.0123-.7 1.8869-1.71 1.953-1.85.1208-3.71.2038-5.58.2498h-.05zm-7.35.015h-.03c-1.85-.035-3.7-.094-5.55-.173-1.01-.042-1.8-.9002-1.76-1.9125.04-1.0142.96-1.7693 1.91-1.7583 1.83.0771 3.65.1359 5.47.169 1.01.0202 1.82.858 1.8 1.8722-.02 1.0032-.84 1.8026-1.84 1.8026zm-81.99 2.892c-.74 0-1.44-.456-1.72-1.195-.35-.949.13-2.0095 1.08-2.3641 1.74-.6504 3.54-1.2512 5.36-1.7804.98-.2903 2 .2756 2.28 1.2494.28.9741-.28 1.9931-1.25 2.2781-1.73.505-3.45 1.075-5.1 1.694-.21.079-.43.118-.65.118zm-11.57 5.57c-.62 0-1.23-.316-1.57-.891-.53-.869-.24-1.997.62-2.52.45-.269.9-.531 1.36-.791 1.2-.683 2.4-1.324 3.61-1.925.91-.454 2.01-.081 2.46.829.45.907.08 2.01-.83 2.462-1.15.569-2.29 1.177-3.42 1.826-.43.244-.86.494-1.28.748-.3.178-.62.262-.95.262zm-10.27 7.702c-.49 0-.97-.193-1.33-.575-.7-.737-.67-1.9.07-2.596 1.34-1.266 2.8-2.508 4.34-3.693.8-.619 1.95-.468 2.57.336.62.805.47 1.957-.33 2.576-1.45 1.11-2.81 2.271-4.06 3.451-.35.334-.81.501-1.26.501zm-7.85 10.111c-.28 0-.57-.064-.84-.202-.9-.463-1.26-1.571-.79-2.473.84-1.654 1.89-3.309 3.1-4.922.61-.811 1.76-.974 2.57-.364.81.608.98 1.76.37 2.572-1.09 1.446-2.02 2.923-2.77 4.389-.33.636-.97 1-1.64 1zm11.31 1.936c-.92 0-1.71-.683-1.83-1.616-.12-1.007.6-1.922 1.61-2.045 1.94-.235 3.94-.269 5.89-.092 1.01.094 1.75.988 1.66 1.997-.09 1.011-.96 1.738-2 1.665-1.69-.157-3.42-.127-5.11.079-.07.007-.15.012-.22.012zm17.31 4.506c-.41 0-.82-.136-1.16-.416-1.26-1.025-2.69-1.887-4.27-2.563-.93-.398-1.36-1.479-.96-2.412.4-.933 1.48-1.363 2.41-.965 1.89.811 3.62 1.85 5.14 3.094.79.642.91 1.799.27 2.584-.37.446-.9.678-1.43.678zm-38.2 9.041c-.35 0-.7-.098-1.01-.303-.85-.559-1.08-1.698-.53-2.545 1.09-1.652 2.29-3.191 3.56-4.579.69-.747 1.85-.795 2.6-.11.22.206.39.454.48.722v-.288c0-1.187.1-2.396.3-3.596.17-1.001 1.12-1.675 2.12-1.508.03.004.05.009.08.015.1-.105.21-.203.34-.285 1.62-1.068 3.36-1.986 5.17-2.73.93-.383 2.02.062 2.4 1.001.38.941-.06 2.014-1 2.399-1.6.654-3.13 1.461-4.55 2.4-.33.215-.69.331-1.07.301-.08.673-.11 1.341-.11 2.003 0 .665.03 1.332.11 1.98.12 1.007-.6 1.92-1.61 2.04-1.01.123-1.92-.603-2.04-1.611-.04-.331-.07-.666-.09-1.002-.08.272-.22.531-.42.754-1.14 1.243-2.22 2.629-3.2 4.115-.35.537-.94.827-1.53.827zm44.22 1.953c-.91 0-1.71-.682-1.82-1.613-.2-1.663-.66-3.252-1.35-4.724-.42-.92-.03-2.014.89-2.444.92-.429 2.01-.033 2.45.886.85 1.824 1.41 3.789 1.66 5.835.12 1.009-.6 1.924-1.6 2.047-.08.009-.15.013-.23.013zm-31.9 6.513c-.53 0-1.05-.226-1.42-.665-1.31-1.58-2.41-3.226-3.27-4.891-.47-.9-.12-2.01.78-2.478.9-.469 2.01-.12 2.47.782.75 1.433 1.71 2.861 2.85 4.243.65.78.54 1.938-.24 2.586-.34.285-.76.423-1.17.423zm-17.67 3.182c-.18 0-.36-.025-.54-.081-.97-.297-1.52-1.324-1.22-2.296.57-1.854 1.23-3.656 1.96-5.36.4-.933 1.48-1.361 2.41-.964.94.402 1.37 1.483.97 2.414-.68 1.582-1.3 3.259-1.83 4.988-.24.79-.97 1.299-1.75 1.299zm46.22 2.337c-.43 0-.86-.15-1.21-.457-.76-.671-.83-1.83-.17-2.593 1.02-1.157 1.8-2.548 2.32-4.13.32-.964 1.36-1.492 2.32-1.174.96.316 1.49 1.354 1.17 2.319-.67 2.058-1.7 3.878-3.05 5.411-.36.413-.86.624-1.38.624zm-18.67 2.565c-.26 0-.53-.055-.78-.173-1.45-.677-2.82-1.506-4.07-2.463-.31-.245-.62-.489-.93-.735-.79-.636-.91-1.793-.28-2.583.64-.789 1.79-.917 2.58-.28.29.228.58.458.87.686 1.03.791 2.17 1.48 3.39 2.046.91.428 1.31 1.522.88 2.44-.31.669-.97 1.062-1.66 1.062zm8.19 1.871h-.01c-.41 0-.82-.013-1.23-.039-1.01-.066-1.78-.941-1.71-1.953.06-1.012.89-1.779 1.95-1.714.33.02.66-.024 1 .031 1.34 0 2.63-.175 3.83-.524.98-.284 1.99.28 2.27 1.253.29.976-.28 1.994-1.25 2.277-1.53.444-3.17.669-4.85.669zm-38.21 5.835c-.06 0-.12-.004-.18-.009-1.01-.101-1.75-1.002-1.65-2.012.19-1.893.45-3.78.77-5.604.18-1.001 1.14-1.666 2.14-1.486 1 .178 1.66 1.131 1.48 2.131-.31 1.732-.55 3.524-.73 5.324-.1.947-.9 1.656-1.83 1.656zm-.23 12.848c-.96 0-1.77-.751-1.83-1.725-.11-1.714-.16-3.454-.16-5.17v-.473c.01-1.016.78-1.864 1.86-1.817 1.02.013 1.83.846 1.82 1.86l-.01.43c0 1.642.05 3.305.16 4.946.06 1.012-.71 1.883-1.73 1.945-.03.002-.07.004-.11.004zm1.78 12.723c-.84 0-1.59-.58-1.79-1.435-.4-1.797-.75-3.661-1.03-5.545-.16-1.003.53-1.94 1.54-2.09 1-.16 1.94.538 2.09 1.539.27 1.799.6 3.579.99 5.29.22.99-.4 1.973-1.39 2.195-.14.032-.27.046-.41.046zm4.07 12.176c-.69 0-1.35-.388-1.66-1.051-.78-1.639-1.5-3.419-2.15-5.291-.33-.959.18-2.005 1.14-2.337.96-.335 2 .174 2.34 1.135.6 1.747 1.27 3.403 1.99 4.92.44.917.04 2.012-.87 2.448-.26.119-.52.176-.79.176z" clip-rule="evenodd"/><path fill="#2F3788" fill-rule="evenodd" d="M1154 100.306L1081 106l6.31-14 66.69 8.306z" clip-rule="evenodd"/><path fill="#DC4272" fill-rule="evenodd" d="M1155.73 98.4841l-74.66-25.4512 13.52 36.8731 61.14-11.4219z" clip-rule="evenodd"/><path fill="#793481" fill-rule="evenodd" d="M1155 98.1321l-66.62-2.646L1082 104l2.87-18L1155 98.1321z" clip-rule="evenodd"/><path fill="#BBCFF4" fill-rule="evenodd" d="M280.177 59.6924c-.695 0-1.273-.5529-1.3-1.2578-.028-.7232.531-1.3324 1.249-1.3612 1.247-.0498 2.498-.0734 3.75-.0734h.205c.719 0 1.302.587 1.302 1.3102 0 .7232-.583 1.3101-1.302 1.3101h-.205c-1.218 0-2.434.0223-3.647.0708-.017.0013-.035.0013-.052.0013zm13.003.3302c-.035 0-.071-.0014-.108-.004-1.284-.1061-2.568-.1939-3.853-.2594-.718-.0367-1.27-.6511-1.234-1.3744.036-.7219.655-1.2878 1.364-1.242 1.313.0668 2.625.1559 3.937.2647.717.0589 1.249.6917 1.191 1.4123-.056.6852-.626 1.2028-1.297 1.2028zm-22.067.5384c-.631 0-1.184-.4611-1.284-1.1084-.111-.7153.375-1.3848 1.085-1.4962 1.287-.2017 2.612-.3734 3.939-.5096.72-.0904 1.355.4494 1.428 1.1686.073.7206-.446 1.3639-1.162 1.4373-1.283.1323-2.563.2974-3.804.4926-.068.0105-.135.0157-.202.0157zm31.12.49c-.061 0-.123-.0039-.182-.0131-1.28-.1795-2.563-.3472-3.845-.4991-.714-.0852-1.224-.7377-1.14-1.4556.084-.7193.736-1.2355 1.445-1.1477 1.301.1546 2.601.3249 3.9.5083.712.1009 1.208.7625 1.109 1.4792-.091.6551-.65 1.128-1.287 1.128zm8.992 1.4569c-.075 0-.152-.0052-.23-.0196-1.273-.2293-2.55-.4507-3.83-.6629-.709-.1167-1.19-.7914-1.074-1.5054.116-.7128.785-1.1988 1.496-1.0796 1.293.2135 2.581.4376 3.866.6682.707.1271 1.178.807 1.051 1.5198-.111.6354-.661 1.0795-1.279 1.0795zm-48.99.0708c-.559 0-1.076-.3655-1.245-.9328-.207-.6918.182-1.4229.87-1.6325 1.251-.3787 2.546-.7285 3.849-1.0377.697-.165 1.4.2712 1.564.9761.165.7036-.27 1.4084-.968 1.5748-1.251.2961-2.494.6315-3.694.9958-.125.038-.251.0563-.376.0563zm57.932 1.6508c-.086 0-.175-.0079-.262-.0262-1.271-.2607-2.541-.5149-3.814-.7625-.705-.1376-1.166-.8241-1.031-1.5355.137-.7101.814-1.1726 1.526-1.0377 1.279.2489 2.559.5057 3.839.7678.704.1441 1.159.8372 1.016 1.546-.126.6197-.669 1.0481-1.274 1.0481zm-66.38 1.7504c-.475 0-.932-.262-1.161-.7167-.325-.6459-.07-1.4346.571-1.7608 1.19-.608 2.414-1.1753 3.638-1.6862.666-.2778 1.425.0393 1.701.7075.274.6682-.041 1.4346-.705 1.7124-1.162.486-2.325 1.0245-3.456 1.6023-.189.097-.39.1415-.588.1415zm75.276.1926c-.096 0-.194-.0118-.293-.0341-1.263-.2921-2.528-.5778-3.793-.8555-.702-.1559-1.147-.8529-.993-1.5604.153-.7062.847-1.1517 1.548-.9997 1.276.2804 2.55.5673 3.823.8621.7.1625 1.137.866.976 1.5709-.138.6066-.675 1.0167-1.268 1.0167zm8.848 2.167c-.107 0-.216-.0131-.325-.0419-1.256-.3249-2.512-.642-3.77-.9525-.699-.1716-1.126-.8818-.956-1.584.171-.7036.881-1.132 1.574-.9604 1.269.3132 2.536.6329 3.8.9604.696.1795 1.115.8935.937 1.5945-.151.5909-.68.9839-1.26.9839zm8.793 2.3937c-.118 0-.238-.0157-.356-.0498-1.248-.3577-2.496-.7075-3.748-1.0508-.692-.1899-1.102-.9092-.914-1.6075.19-.6984.906-1.1084 1.598-.9198 1.26.3446 2.518.697 3.776 1.0573.691.1979 1.091.9224.895 1.6181-.163.5765-.685.9525-1.251.9525zm-100.637.0956c-.395 0-.783-.1782-1.04-.5188-.433-.5778-.32-1.3993.254-1.8355 1.057-.8045 2.162-1.5788 3.285-2.3046.606-.3905 1.409-.2136 1.798.3956.388.608.212 1.419-.393 1.8094-1.067.6891-2.117 1.4268-3.12 2.1893-.236.1795-.511.2646-.784.2646zm109.367 2.5287c-.13 0-.26-.0197-.389-.0603-1.238-.3904-2.478-.773-3.721-1.149-.687-.2083-1.077-.9394-.87-1.6325.206-.6931.935-1.0835 1.621-.8765 1.251.3786 2.499.7638 3.745 1.1569.688.2162 1.069.9498.855 1.6416-.174.5595-.688.9198-1.241.9198zm-140.801 1.4398c-.642 0-1.202-.4782-1.287-1.1372-.095-.718.406-1.377 1.117-1.4713 1.33-.1782 2.692-.2765 4.046-.2948h.017c.711 0 1.293.5752 1.302 1.2931.009.7232-.566 1.3181-1.285 1.3272-1.25.0171-2.509.1088-3.737.2725-.058.0066-.116.0105-.173.0105zm12.905.8543c-.112 0-.225-.0158-.338-.0459-1.2-.3262-2.435-.5817-3.67-.7625-.712-.1035-1.205-.7678-1.101-1.4844.103-.7154.761-1.2093 1.475-1.1084 1.337.1952 2.673.4729 3.973.8241.693.1886 1.104.9079.918 1.6062-.157.5844-.682.9709-1.257.9709zm136.553.562c-.14 0-.282-.0222-.422-.0707-1.226-.4232-2.456-.8398-3.688-1.2486-.682-.2267-1.053-.9669-.828-1.6548.224-.6865.958-1.0625 1.644-.8332 1.241.4127 2.479.8306 3.717 1.2577.679.2346 1.041.98.808 1.6639-.185.5438-.69.8857-1.231.8857zm-124.734.7979c-.309 0-.62-.1113-.869-.3354-.535-.4834-.579-1.3128-.099-1.8499.88-.9879 1.825-1.9587 2.807-2.8877.523-.4939 1.348-.469 1.839.059.492.5267.467 1.356-.057 1.8513-.928.8778-1.821 1.7962-2.652 2.7277-.257.2883-.612.435-.969.435zm-33.459.266c-.496 0-.971-.2883-1.188-.7743-.294-.6604 0-1.436.656-1.7321 1.223-.5516 2.503-1.0337 3.807-1.4333.685-.2122 1.415.1808 1.625.8739.208.6918-.18 1.4228-.867 1.6338-1.2.3668-2.378.8097-3.501 1.3167-.173.0786-.354.1153-.532.1153zm166.772 2.0294c-.15 0-.305-.0262-.455-.0825-1.215-.4573-2.434-.908-3.653-1.3508-.677-.245-1.027-.9957-.783-1.6757.243-.6813.989-1.0324 1.665-.7887 1.23.4454 2.456.9001 3.681 1.3599.674.2529 1.016 1.0076.765 1.6849-.197.528-.692.8529-1.22.8529zm-174.548 2.7029c-.388 0-.77-.1729-1.027-.5031-.442-.5712-.341-1.394.226-1.8395 1.026-.807 2.14-1.5892 3.31-2.3242.611-.3852 1.414-.1978 1.794.4179.38.6132.195 1.4216-.416 1.8041-1.093.6879-2.133 1.4163-3.086 2.1671-.239.1873-.521.2777-.801.2777zm183.037.6302c-.162 0-.328-.0314-.489-.097-1.201-.4913-2.405-.9747-3.613-1.4516-.669-.2647-.999-1.0246-.736-1.698s1.015-1.0062 1.686-.7416c1.217.4796 2.431.9683 3.643 1.4635.666.2725.986 1.0363.716 1.7072-.206.5083-.693.8175-1.207.8175zm-147.114 1.7936c-.215 0-.433-.0537-.635-.1664-.626-.3537-.85-1.1529-.498-1.7831.645-1.1621 1.366-2.3177 2.142-3.4366.007-.0092.014-.0196.022-.0301-1.045-.6485-2.102-1.2159-3.186-1.7137-.653-.3-.942-1.077-.644-1.736.298-.659 1.071-.9486 1.724-.6472 1.227.5634 2.423 1.2093 3.556 1.9194.606.3799.809 1.1909.437 1.8041-.022.0354-.044.0694-.068.1009.565.4205.698 1.221.293 1.8041-.726 1.0468-1.402 2.129-2.005 3.2151-.24.4285-.682.6695-1.138.6695zm8.719.7874c-.362 0-.722-.1519-.98-.448-.823-.9499-1.707-1.8513-2.628-2.6806-.537-.4822-.582-1.3102-.103-1.85.477-.5398 1.301-.587 1.837-.1035 1.001.9014 1.961 1.8801 2.854 2.9099.473.545.418 1.373-.123 1.8486-.248.2175-.552.3236-.857.3236zm146.789.9971c-.176 0-.354-.0367-.524-.1114-1.187-.5267-2.377-1.0455-3.57-1.5578-.661-.283-.97-1.0534-.687-1.7176.28-.6669 1.047-.9761 1.706-.6931 1.204.5162 2.404 1.039 3.601 1.5709.657.2909.955 1.0652.665 1.7268-.215.49-.691.7822-1.191.7822zm-197.675 2.4146c-.251 0-.505-.0734-.728-.2253-.595-.4075-.75-1.2224-.347-1.8212.754-1.1175 1.606-2.2024 2.535-3.2256.485-.5359 1.306-.5726 1.838-.0839.531.4887.569 1.3168.083 1.8513-.844.9302-1.619 1.9155-2.302 2.9295-.251.3748-.661.5752-1.079.5752zm205.96 1.4084c-.188 0-.379-.0406-.56-.1284-1.17-.5607-2.344-1.1149-3.521-1.6612-.654-.3027-.939-1.0809-.638-1.7386.3-.6577 1.073-.9447 1.727-.642 1.188.5516 2.373 1.111 3.552 1.6783.65.3105.924 1.0927.615 1.7465-.223.4703-.69.7454-1.175.7454zm-150.103 2.83c-.486 0-.955-.2764-1.176-.7507-.532-1.132-1.137-2.2456-1.8-3.3095-.381-.6145-.196-1.4228.413-1.8067.609-.3826 1.413-.1979 1.793.4153.717 1.1516 1.372 2.357 1.947 3.582.307.6538.03 1.4346-.621 1.7451-.179.0839-.368.1245-.556.1245zm-17.088.0393c-.106 0-.214-.0131-.322-.0406-.697-.1795-1.117-.8935-.939-1.5945.331-1.2997.746-2.6059 1.233-3.8846.257-.6761 1.009-1.0154 1.681-.7547.671.2594 1.006 1.018.75 1.6928-.453 1.1843-.836 2.3949-1.142 3.5964-.151.5922-.68.9852-1.261.9852zm175.357 1.208c-.201 0-.405-.0472-.596-.1454-1.151-.5988-2.308-1.1884-3.469-1.7714-.642-.3223-.904-1.1097-.584-1.7569.322-.6472 1.101-.9106 1.747-.5883 1.17.5883 2.337 1.1831 3.499 1.7871.639.3315.89 1.1215.561 1.7648-.232.452-.687.7101-1.158.7101zm-217.815 2.8417c-.106 0-.212-.0117-.318-.0393-.697-.1755-1.12-.8883-.944-1.5892.335-1.3455.766-2.6609 1.283-3.9109.276-.6681 1.038-.9839 1.701-.7074.663.2777.978 1.0455.702 1.7124-.467 1.1319-.859 2.3242-1.163 3.544-.148.5948-.678.9904-1.261.9904zm225.851 1.4884c-.214 0-.431-.0524-.632-.1651-1.132-.6328-2.269-1.2604-3.412-1.8788-.632-.3432-.869-1.1385-.528-1.7752.341-.6368 1.129-.8766 1.763-.532 1.152.6237 2.3 1.2565 3.442 1.8958.629.3512.855 1.1491.505 1.7819-.237.431-.68.6734-1.138.6734zm-163.602 3.1495c-.627 0-1.179-.457-1.283-1.1-.199-1.232-.476-2.4688-.825-3.6767-.2-.6944.197-1.4216.886-1.6233.694-.2018 1.412.1978 1.614.8922.378 1.3102.679 2.6518.894 3.9878.116.714-.367 1.387-1.076 1.503-.07.012-.141.017-.21.017zm-20.755.397c-.687 0-1.261-.541-1.299-1.241-.026-.486-.039-.9718-.039-1.4578 0-.5647.018-1.1268.051-1.6849.019-.3236.043-.6485.073-.9708.065-.7219.693-1.2381 1.413-1.187.716.0655 1.244.7035 1.179 1.4228-.027.2961-.049.5935-.066.8922-.03.5057-.047 1.0154-.047 1.5277 0 .4376.012.8778.035 1.3178.039.722-.511 1.339-1.23 1.379-.023.001-.047.002-.07.002zm192.249 1.042c-.227 0-.458-.059-.667-.186-1.112-.671-2.228-1.334-3.349-1.989-.622-.363-.833-1.1649-.472-1.7912.362-.6262 1.157-.8372 1.779-.4756 1.132.6617 2.259 1.3312 3.381 2.0088.615.372.816 1.178.446 1.797-.244.41-.675.636-1.118.636zm-234.599 3.021c-.694 0-1.271-.55-1.299-1.255-.022-.537-.034-1.073-.034-1.605 0-.831.027-1.654.085-2.469.049-.721.663-1.2586 1.388-1.2153.717.0511 1.257.6773 1.208 1.3983-.054.756-.078 1.517-.078 2.286 0 .495.01.994.031 1.495.03.723-.528 1.334-1.245 1.364-.019.001-.038.001-.056.001zm242.336 1.829c-.242 0-.487-.068-.704-.21-1.089-.708-2.182-1.408-3.281-2.101-.609-.383-.794-1.192-.412-1.804.381-.613 1.185-.801 1.793-.417 1.109.698 2.212 1.406 3.312 2.121.602.393.777 1.203.386 1.811-.249.389-.667.6-1.094.6zm-179.271 2.827c-.108 0-.217-.014-.327-.042-.696-.182-1.114-.897-.934-1.598.245-.945.368-2.033.39-3.425l.003-.158c.008-.718.59-1.295 1.3-1.295h.016c.719.008 1.295.602 1.287 1.325l-.003.165c-.026 1.61-.175 2.894-.472 4.046-.152.591-.681.982-1.26.982zm-18.341.05c-.452 0-.891-.236-1.131-.658-.669-1.176-1.218-2.486-1.633-3.891-.205-.694.188-1.423.877-1.628.692-.21 1.414.188 1.617.881.358 1.212.828 2.334 1.398 3.335.356.629.14 1.429-.483 1.788-.204.118-.427.173-.645.173zm205.179 2.237c-.257 0-.516-.078-.743-.236-1.062-.746-2.131-1.483-3.205-2.212-.596-.405-.752-1.22-.351-1.818.403-.6 1.21-.759 1.806-.354 1.085.736 2.165 1.482 3.238 2.234.589.414.735 1.23.324 1.823-.253.366-.657.563-1.069.563zm-248.558 2.11c-.584 0-1.115-.399-1.262-.997-.328-1.336-.601-2.665-.813-3.945-.119-.714.36-1.389 1.069-1.508.703-.122 1.38.362 1.497 1.077.202 1.215.462 2.476.774 3.75.172.702-.254 1.412-.952 1.585-.105.026-.209.038-.313.038zm50.25 1.293c-.113 0-.228-.015-.342-.047-1.466-.402-2.791-1.045-3.937-1.913-.575-.435-.691-1.256-.259-1.835.432-.577 1.248-.695 1.823-.26.883.669 1.911 1.166 3.056 1.48.693.19 1.103.91.915 1.608-.159.583-.684.967-1.256.967zm5.153.185c-.605 0-1.148-.426-1.272-1.047-.145-.709.308-1.4 1.012-1.546 1.163-.239 2.181-.686 3.027-1.326.575-.436 1.391-.318 1.822.258.432.578.316 1.4-.258 1.835-1.155.876-2.524 1.482-4.068 1.8-.088.018-.176.026-.263.026zm200.535 1.788c-.272 0-.546-.086-.779-.263-1.036-.782-2.076-1.558-3.125-2.325-.58-.425-.709-1.245-.286-1.831.422-.584 1.236-.714 1.818-.288 1.058.776 2.111 1.558 3.156 2.349.574.435.691 1.257.259 1.834-.257.344-.647.524-1.043.524zm-253.126 5.455c-.517 0-1.008-.313-1.211-.828-.499-1.269-.959-2.532-1.369-3.754-.23-.685.135-1.429.816-1.66.679-.236 1.42.135 1.649.822.395 1.18.842 2.4 1.324 3.626.265.674-.062 1.435-.73 1.701-.157.063-.32.093-.479.093zm260.31.186c-.288 0-.578-.096-.819-.291-1.006-.822-2.018-1.634-3.036-2.438-.566-.447-.665-1.271-.221-1.84.444-.571 1.261-.668 1.827-.223 1.028.814 2.052 1.636 3.069 2.464.558.454.644 1.28.192 1.843-.257.32-.633.485-1.012.485zm6.965 5.905c-.303 0-.608-.106-.855-.324-.975-.857-1.956-1.707-2.944-2.548-.548-.468-.615-1.296-.151-1.848.465-.551 1.286-.622 1.834-.153.998.852 1.99 1.71 2.973 2.577.542.476.597 1.304.124 1.849-.258.296-.618.447-.981.447zm-263.486 2.249c-.474 0-.929-.259-1.16-.711-.606-1.189-1.188-2.382-1.741-3.574-.305-.655-.023-1.435.627-1.742.651-.305 1.425-.023 1.73.632.541 1.163 1.107 2.327 1.699 3.486.33.644.077 1.434-.562 1.765-.191.098-.393.144-.593.144zm270.22 3.919c-.321 0-.642-.119-.894-.358-.938-.895-1.885-1.782-2.839-2.661-.531-.487-.568-1.316-.082-1.85.484-.534 1.306-.573 1.837-.082.966.888 1.924 1.784 2.874 2.688.522.498.544 1.327.051 1.854-.257.271-.602.409-.947.409zm-265.745 4.082c-.438 0-.867-.222-1.113-.627-.688-1.135-1.358-2.277-2.009-3.425-.356-.629-.139-1.428.486-1.787.622-.359 1.418-.14 1.775.489.637 1.125 1.296 2.245 1.97 3.358.375.618.181 1.424-.432 1.801-.212.13-.447.191-.677.191zm272.233 2.344c-.339 0-.676-.132-.932-.394-.903-.933-1.814-1.855-2.732-2.77-.511-.508-.515-1.339-.01-1.852.505-.515 1.329-.52 1.84-.011.929.925 1.851 1.859 2.766 2.801.502.519.491 1.349-.023 1.854-.253.248-.581.372-.909.372zm-267.255 5.342c-.413 0-.819-.197-1.071-.565-.746-1.082-1.482-2.177-2.203-3.282-.396-.604-.231-1.416.371-1.814.602-.4 1.408-.231 1.802.373.712 1.087 1.435 2.166 2.169 3.232.41.594.262 1.41-.329 1.823-.225.157-.484.233-.739.233zm273.479 1.342c-.356 0-.71-.147-.967-.434-.865-.968-1.738-1.927-2.621-2.879-.489-.529-.46-1.358.065-1.852.526-.493 1.347-.464 1.839.065.892.963 1.775 1.933 2.651 2.913.482.537.437 1.365-.096 1.85-.249.225-.56.337-.871.337zm3.488 3.993c-.364 0-.726-.153-.984-.452l.934-.917.997-.843-.997.843 1.034-.799c.47.546.411 1.374-.132 1.848-.246.214-.55.32-.852.32zm-271.591 2.078c-.391 0-.776-.177-1.033-.512-.792-1.039-1.58-2.097-2.364-3.167-.425-.583-.302-1.403.277-1.832.581-.428 1.394-.304 1.82.278.771 1.057 1.551 2.1 2.332 3.125.437.574.33 1.396-.24 1.837-.237.182-.515.271-.792.271zm5.706 7.16c-.372 0-.74-.16-.998-.469-.829-.996-1.662-2.015-2.497-3.055-.452-.564-.365-1.389.194-1.844.559-.453 1.377-.365 1.831.197.825 1.027 1.649 2.036 2.467 3.02.462.554.389 1.381-.161 1.846-.244.204-.54.305-.836.305zm5.997 6.916c-.354 0-.707-.144-.963-.428-.858-.947-1.732-1.933-2.621-2.952-.474-.544-.42-1.372.12-1.849.541-.475 1.361-.423 1.836.121.878 1.006 1.742 1.98 2.59 2.915.484.536.445 1.364-.086 1.851-.25.23-.564.342-.876.342zm6.284 6.652c-.334 0-.667-.128-.921-.385-.875-.881-1.793-1.829-2.75-2.835-.497-.523-.479-1.352.04-1.853.52-.499 1.343-.482 1.841.042.943.993 1.85 1.926 2.712 2.796.507.512.506 1.343-.003 1.852-.255.256-.587.383-.919.383z" clip-rule="evenodd"/><path fill="#2F3788" fill-rule="evenodd" d="M350 70l58 28-.55-13.961L350 70z" clip-rule="evenodd"/><path fill="#DC4272" fill-rule="evenodd" d="M349 68l70 2.8145L395.985 97 349 68z" clip-rule="evenodd"/><path fill="#793481" fill-rule="evenodd" d="M349 68l55.115 18.9187L406.6 96l3.4-15.8295L349 68z" clip-rule="evenodd"/><path fill="#B8B9F1" fill-rule="evenodd" d="M618.85 149L613 175.555l2.148.445L621 149.447l-2.15-.447z" clip-rule="evenodd"/><path fill="#CAD8F1" fill-rule="evenodd" d="M638.381 172.405L627.4 141.803l59.48-21.88 10.989 30.624s-7.721 13.308-27.285 20.494c-19.204 7.058-32.203 1.364-32.203 1.364z" clip-rule="evenodd"/><path fill="#CAD8F1" fill-rule="evenodd" d="M610.404 140.935c-3.969 2.96-1.655 9.282 3.286 8.964l5.55-.356 2.598-.168 38.414-2.47c.957-.062 1.877-.398 2.648-.972l37.438-27.894c3.971-2.96 1.655-9.28-3.284-8.966l-46.561 2.996c-.958.062-1.878.4-2.647.972l-37.442 27.894z" clip-rule="evenodd"/><path fill="#CAD8F1" fill-rule="evenodd" d="M618.41 149.597l3.426-.222 31.846-17.876c1.519-.79.401-2.016-.577-1.45l-34.695 19.548zM615.677 186.028c.383-.862.703-1.832.926-2.878.873-4.084-.034-7.746-2.028-8.172-1.993-.428-4.316 2.536-5.191 6.622-.225 1.048-.327 2.062-.329 3.008l6.622 1.42z" clip-rule="evenodd"/><path fill="#CAD8F1" fill-rule="evenodd" d="M615.959 176.329c.167-.322.299-.692.383-1.09.333-1.556-.176-2.984-1.138-3.19-.962-.208-2.013.886-2.346 2.442-.086.398-.114.79-.098 1.152l3.199.686zM851.128 111.669l2.598 12.15-.957.204-2.597-12.15.956-.204zM842.334 122.454l4.993-13.922-27.056-9.9538-5 13.9318s3.514 6.052 12.411 9.32c8.738 3.212 14.652.624 14.652.624z" clip-rule="evenodd"/><path fill="#CAD8F1" fill-rule="evenodd" d="M855.059 108.138c1.805 1.348.755 4.222-1.493 4.078l-2.528-.164-1.178-.074-17.475-1.126c-.435-.024-.854-.178-1.204-.44l-17.032-12.6902c-1.807-1.346-.75-4.22 1.496-4.078l21.178 1.364c.436.026.855.178 1.206.44l17.03 12.6902z" clip-rule="evenodd"/><path fill="#CAD8F1" fill-rule="evenodd" d="M851.416 112.077l-1.556-.1-14.488-8.132c-.691-.36-.182-.916.263-.66l15.781 8.892zM852.662 128.652c-.176-.392-.322-.834-.423-1.31-.398-1.86.018-3.524.924-3.718.906-.194 1.963 1.154 2.362 3.012.1.476.15.94.15 1.37l-3.013.646z" clip-rule="evenodd"/><path fill="#CAD8F1" fill-rule="evenodd" d="M852.532 124.237c-.074-.146-.134-.312-.174-.494-.15-.71.082-1.36.521-1.452.437-.096.914.404 1.064 1.11.04.184.052.36.044.526l-1.455.31z" clip-rule="evenodd"/><mask id="a" width="43" height="43" x="388" y="181" maskUnits="userSpaceOnUse"><path fill="#fff" fill-rule="evenodd" d="M388 181.512h42.039v42.109H388v-42.109z" clip-rule="evenodd"/></mask><g fill-rule="evenodd" clip-rule="evenodd" mask="url(#a)"><path fill="#CAD8F1" d="M388.002 202.827c.141 11.626 9.669 20.94 21.274 20.792 11.61-.142 20.903-9.684 20.762-21.312-.146-11.626-9.671-20.94-21.279-20.794-11.607.144-20.899 9.686-20.757 21.314z"/><path fill="#B8B9F1" d="M424.248 205.157c-.118-9.638-7.287-17.512-16.529-18.816.966-.212 1.97-.326 2.996-.34 8.3-.104 15.11 6.554 15.214 14.866.032 2.748-.681 5.326-1.939 7.558.172-1.066.274-2.152.258-3.268z"/><path fill="#CAD8F1" d="M389.896 211.314l38.455-.472-9.312 22.32-19.284.238-9.859-22.086z"/></g><mask id="b" width="45" height="62" x="912" y="147" maskUnits="userSpaceOnUse"><path fill="#fff" fill-rule="evenodd" d="M912.324 147.545h44.004v61.033h-44.004v-61.033z" clip-rule="evenodd"/></mask><g fill-rule="evenodd" clip-rule="evenodd" mask="url(#b)"><path fill="#CAD8F1" d="M921.906 164.083l-2.887-13.404 14.483-3.134 2.889 13.402c.463 2.164 2.092 3.862 4.206 4.494 8.022 2.392 14.413 9.284 15.561 18.394 1.3 10.278-4.949 20.282-14.756 23.572-12.666 4.252-25.841-3.51-28.58-16.216-1.755-8.152 1.248-16.208 7.128-21.304 1.659-1.438 2.419-3.656 1.956-5.804z"/><path fill="#E5E9FF" d="M937.24 196.527c-.258-1.198.501-2.378 1.697-2.636 1.194-.258 2.37.504 2.629 1.7.258 1.196-.501 2.378-1.699 2.636-1.192.258-2.37-.502-2.627-1.7zM930.65 192.204c-.259-1.198.502-2.376 1.693-2.634 1.196-.26 2.376.5 2.634 1.698.257 1.198-.503 2.378-1.697 2.636-1.196.258-2.372-.504-2.63-1.7zM929.265 181.956c-.258-1.198.503-2.376 1.699-2.636 1.192-.258 2.37.502 2.627 1.7.258 1.196-.503 2.378-1.697 2.636s-2.372-.504-2.629-1.7zM927.564 187.573c-.166-.77.323-1.528 1.092-1.694.766-.166 1.527.322 1.691 1.092.165.77-.322 1.53-1.092 1.696-.767.166-1.524-.324-1.691-1.094zM932.76 197.392c-.121-.554.232-1.1.787-1.216.553-.122 1.096.23 1.214.782.12.556-.232 1.1-.785 1.222-.551.118-1.094-.234-1.216-.788zM923.721 179.466c-.121-.552.232-1.098.787-1.216.551-.12 1.094.232 1.214.784.12.556-.232 1.1-.787 1.218-.549.12-1.092-.232-1.214-.786zM935.66 186.179c-.12-.55.232-1.098.785-1.216.553-.122 1.096.23 1.218.784.117.556-.232 1.098-.787 1.22-.551.116-1.096-.236-1.216-.788z"/><path fill="#CAD8F1" d="M914.311 146.079l21.586-4.672 1.158 5.372-21.586 4.668-1.158-5.368z"/></g></svg>