<svg xmlns="http://www.w3.org/2000/svg" fill="none" viewBox="0 -100 1184 430"><path fill="#DAE7FF" fill-rule="evenodd" d="M871 87v28h-11v-8h-4v8h-28v64l-48 31v150h247V141h-7v-16l-26-15-27 15v16h-11v57h-17v-7h-8v-13l-13-10-14 10v20h-9v-83h-12v-12h-3v12h-5V87h-4zM584 50v17l-10-1v62h-6v-11h-8v-14l-18-13-18 13v14h-8v11h-12v98l-29-1v-85h-29v-10h-4v10h-21v-10h-4v10h-16v21h-28v-37h-83v37h-12v49h-46v-41l-62-60v251h583V61l-86 21v49h-4v-16h-4v-10h-6v-8h-3v8h-11V89h-3v16h-5v10h-4v16h-6V67h-10V55h-3v12h-21V50h-3z" clip-rule="evenodd"/><path fill="#DAE7FF" fill-rule="evenodd" d="M433 139h4v-12h-4v12zM101 139h4v-12h-4v12z" clip-rule="evenodd"/><path fill="#DAE7FF" fill-rule="evenodd" d="M109 130v10H88v-10h-4v10H11v220h131V140h-29v-10h-4zM591 66h3V45h-3v21zM1051 95v10l-9-1v256h142V203h-9v-22h-6v-14h-6v-23h-4v23h-14v-12h-3v12h-9v14h-5v22h-7v-95l-46-2v-7h-7v7l-10-1V95h-7z" clip-rule="evenodd"/><path fill="#B8CFF8" fill-rule="evenodd" d="M630 88v34h-16v22h-8v98h-24v-48h-40v48h-6v-68l-67 44v53l-34-12v-21h-5v-13h-7v-9l-23-19-22 19v9h-12v13h-10v-71l-68-1v45h-7v-14h-29v14h-10v8h-12v66h-9v-21l-17-14-16 14v20h-1v-8h-9v-25l-63-2v111h928v-77l-9-1v-22l-59-2v-19h-16v-8h-13v-11h-37v11h-14v-30l-40-8v-3h-4v-8h6v-7h-58v7h5v8h-4v89h-33v-34l-23 3v-29l-44-8v-9h5v-11h-46v-47h-9v-22h-15V88h-5zm211 102h5v-8h-5v8zm-11 0h6v-8h-6v8zm-10 0h5v-8h-5v8zm-11 0h6v-8h-6v8z" clip-rule="evenodd"/><path fill="#BBCEF0" fill-rule="evenodd" d="M1081 337h-29v56h73v-80l-15 3v-21l-29-5v47z" clip-rule="evenodd"/><path fill="#BBCFF4" fill-rule="evenodd" d="M0 232v5h3v5H1v118h111v-84h-10v-5h-8v-8H70v8h-9v-21l-25-6v-2h-3v-5h4v-5H0zm27 10h3v-5h-3v5zm-7 0h4v-5h-4v5zm-7 0h4v-5h-4v5zm-6 0h3v-5H7v5zM1083 25h-1v-3l3-4a2 2 0 0 1 3 2l-4 4-1 1zm-10 9l-1-1v-3l5-3a2 2 0 1 1 2 3l-4 3-2 1zm-11 6a2 2 0 0 1-1-4l5-2 3 1-1 2a47 47 0 0 1-6 3zm-71 1h-6a2 2 0 0 1 0-4h6a2 2 0 0 1 0 4zm-19 0a2 2 0 0 1 0-4h6l2 2-2 2h-5-1zm32 1a801 801 0 0 0-8-3l2-1a786 786 0 0 1 7 2l-1 2zm45 0a2 2 0 0 1 0-3l6-1 2 1-2 2a95 95 0 0 1-6 1zm-89 1a2 2 0 0 1-1-4l6-1a2 2 0 1 1 0 4 90 90 0 0 0-5 1zm56 0a667 667 0 0 1-7-3l2-1a832 832 0 0 0 7 2l-2 2zm21 0l-2-2 2-1 5-1a2 2 0 0 1 0 4h-5zm-8 0h-5l-2-2 2-2 5 1a2 2 0 0 1 0 3zm-82 3a2 2 0 0 1 0-3l5-2 2 1c1 1 0 2-1 2a73 73 0 0 0-6 2zm-11 6a2 2 0 0 1-1-4 74 74 0 0 1 5-2 2 2 0 1 1 1 3 66 66 0 0 0-5 3zm-11 7h-1v-3l5-3a2 2 0 1 1 2 2l-4 4h-2zm-7 11l-1-1-1-2 3-5a2 2 0 0 1 3 2l-3 5-1 1zm11 1a2 2 0 0 1 0-3h6a2 2 0 0 1-1 3 24 24 0 0 0-5 0zm17 5h-1l-4-3a2 2 0 0 1 1-3c2 0 4 1 5 3a2 2 0 0 1-1 3zm-38 9h-1v-3l3-4a2 2 0 0 1 3 0v-4l3-1 5-3a2 2 0 0 1 2 3l-5 3h-1a18 18 0 0 0 0 4 2 2 0 1 1-4 0v-1 1l-3 4-2 1zm44 2l-2-2-1-4a2 2 0 0 1 3-2l2 6a2 2 0 0 1-2 2zm-32 6h-1l-3-5a2 2 0 0 1 3-2l3 4a2 2 0 0 1-2 3zm-17 4a2 2 0 0 1-2-3l2-5a2 2 0 0 1 3 1l-2 5-1 2zm46 2h-1v-3l2-4a2 2 0 1 1 3 1c0 2-1 4-3 5l-1 1zm-19 3l-1-1a22 22 0 0 1-5-3 2 2 0 1 1 3-3l1 1 3 2a2 2 0 0 1-1 4zm8 1h-1l-2-2 2-1h1l4-1a2 2 0 1 1 1 4h-5zm-38 6l-2-2 1-5a2 2 0 1 1 4 0l-1 6-2 1zm0 13l-2-2v-5l2-2 2 2v5a2 2 0 0 1-2 2zm2 13l-2-2-1-5a2 2 0 0 1 4-1l1 6a2 2 0 0 1-2 2zm4 12l-2-1-2-5a2 2 0 0 1 4-2l2 5a2 2 0 0 1-2 3z" clip-rule="evenodd"/><path fill="#2F3788" fill-rule="evenodd" d="M1034 43l-73 6 6-14 67 8z" clip-rule="evenodd"/><path fill="#DC4272" fill-rule="evenodd" d="M1036 41l-75-25 14 37 61-12z" clip-rule="evenodd"/><path fill="#793481" fill-rule="evenodd" d="M1035 41l-67-3-6 9 3-18 70 12z" clip-rule="evenodd"/><path fill="#FFF4FF" fill-rule="evenodd" d="M743 358h12v-9l-6-5-6 5v9z" clip-rule="evenodd"/><path fill="#FFF4FF" fill-rule="evenodd" d="M738 429h28v-72h-28v72z" clip-rule="evenodd"/><path fill="#FFF4FF" fill-rule="evenodd" d="M751 360h7v-5h-7v5zM617 429h22V328h-22v101z" clip-rule="evenodd"/><path fill="#FFF4FF" fill-rule="evenodd" d="M620 337h16v-16h-16v16z" clip-rule="evenodd"/><path fill="#FFF4FF" fill-rule="evenodd" d="M622 330h12v-14h-12v14zM765 429h32v-97h-32v97z" clip-rule="evenodd"/><path fill="#FFF4FF" fill-rule="evenodd" d="M770 338h24v-13l-12-6-12 6v13zM638 306v123h38V297l-38 9zM418 429h28v-84l-28-27v111zM534 332h2v-6h-2v6zM538 333h2v-5h-2v5zM527 333h2v-5h-2v5z" clip-rule="evenodd"/><path fill="#FFF4FF" fill-rule="evenodd" d="M520 429h33v-97h-33v97zM388 332h1v-6h-1v6zM392 333h1v-5h-1v5zM380 333h2v-5h-2v5z" clip-rule="evenodd"/><path fill="#FFF4FF" fill-rule="evenodd" d="M348 429h58v-97h-58v97zM549 429h32v-59h-32v59zM728 324h2v-15h-2v15zM732 322h1v-6h-1v6zM721 324h2v-6h-2v6z" clip-rule="evenodd"/><path fill="#FFF4FF" fill-rule="evenodd" d="M709 429h29V321h-29v108z" clip-rule="evenodd"/><path fill="#FFF4FF" fill-rule="evenodd" d="M688 363v66h29v-85l-29 19zM604 299h2v-9h-2v9zM624 319h1v-10h-1v10zM612 304h1v-10h-1v10zM630 322h1v-9h-1v9zM601 301h1v-9h-1v9z" clip-rule="evenodd"/><path fill="#FFF4FF" fill-rule="evenodd" d="M597 429h20V300l-20-1v130z" clip-rule="evenodd"/><path fill="#FFF4FF" fill-rule="evenodd" d="M566 429h33V326h-33v103z" clip-rule="evenodd"/><path fill="#FFF4FF" fill-rule="evenodd" d="M571 329h23v-7h-23v7z" clip-rule="evenodd"/><path fill="#FFF4FF" fill-rule="evenodd" d="M574 328h17v-12l-8-6-9 6v12zM808 320h3v-8h-3v8zM815 322h3v-8h-3v8z" clip-rule="evenodd"/><path fill="#FFF4FF" fill-rule="evenodd" d="M803 429h35V318l-35-2v113z" clip-rule="evenodd"/><path fill="#FFF4FF" fill-rule="evenodd" d="M837 429h29v-69h-29v69z" clip-rule="evenodd"/><path fill="#FFF4FF" fill-rule="evenodd" d="M842 373h20v-23h-20v23z" clip-rule="evenodd"/><path fill="#FFF4FF" fill-rule="evenodd" d="M844 363h15v-19h-15v19z" clip-rule="evenodd"/><path fill="#FFF4FF" fill-rule="evenodd" d="M855 347h2v-13h-2v13zM847 352h2v-13h-2v13zM466 429h56v-88h-56v88z" clip-rule="evenodd"/><path fill="#FFF4FF" fill-rule="evenodd" d="M419 429h48v-66h-48v66zM471 357h37v-32h-37v32z" clip-rule="evenodd"/><path fill="#DBDEFF" fill-rule="evenodd" d="M701 360h15v-2h-15v2zM701 366h15v-2h-15v2zM701 372h15v-3h-15v3zM701 377h15v-2h-15v2zM701 383h15v-2h-15v2zM701 389h15v-3h-15v3zM701 394h15v-2h-15v2zM701 400h15v-2h-15v2zM701 405h15v-2h-15v2zM701 411h15v-2h-15v2zM701 417h15v-3h-15v3zM346 382h10v-2h-10v2zM346 386h10v-2h-10v2zM346 389h10v-1h-10v1zM346 393h10v-1h-10v1zM346 397h10v-1h-10v1zM346 401h10v-2h-10v2zM346 405h10v-2h-10v2zM346 409h10v-2h-10v2zM346 413h10v-2h-10v2zM346 417h10v-2h-10v2zM346 420h10v-1h-10v1z" clip-rule="evenodd"/><path fill="#D9DCFF" fill-rule="evenodd" d="M615 340h15v-2h-15v2zM615 343h15v-1h-15v1zM615 347h15v-2h-15v2zM615 350h15v-1h-15v1zM615 354h15v-2h-15v2zM615 357h15v-1h-15v1zM615 361h15v-1h-15v1zM615 365h15v-2h-15v2zM615 368h15v-1h-15v1zM615 372h15v-2h-15v2zM615 375h15v-1h-15v1zM615 379h15v-2h-15v2zM615 382h15v-1h-15v1zM615 386h15v-2h-15v2zM615 389h15v-1h-15v1zM615 393h15v-2h-15v2zM615 396h15v-1h-15v1zM615 400h15v-2h-15v2zM615 403h15v-1h-15v1zM615 407h15v-1h-15v1zM615 411h15v-2h-15v2zM615 414h15v-1h-15v1zM645 364h4v-1h-4v1zM645 370h4v-2h-4v2zM645 375h4v-1h-4v1zM645 381h4v-1h-4v1zM645 387h4v-2h-4v2zM645 392h4v-1h-4v1zM645 398h4v-2h-4v2zM645 403h4v-1h-4v1zM645 409h4v-1h-4v1zM645 415h4v-2h-4v2zM645 420h4v-1h-4v1zM640 364h3v-1h-3v1zM640 370h3v-2h-3v2zM640 375h3v-1h-3v1zM640 381h3v-1h-3v1zM640 387h3v-2h-3v2zM640 392h3v-1h-3v1zM640 398h3v-2h-3v2zM640 403h3v-1h-3v1zM640 409h3v-1h-3v1zM640 415h3v-2h-3v2zM640 420h3v-1h-3v1zM634 364h4v-1h-4v1zM634 370h4v-2h-4v2zM634 375h4v-1h-4v1zM634 381h4v-1h-4v1zM634 387h4v-2h-4v2zM634 392h4v-1h-4v1zM634 398h4v-2h-4v2zM634 403h4v-1h-4v1zM634 409h4v-1h-4v1zM634 415h4v-2h-4v2zM634 420h4v-1h-4v1zM525 375h4v-1h-4v1zM525 379h4v-1h-4v1zM525 384h4v-1h-4v1zM525 388h4v-1h-4v1zM525 393h4v-1h-4v1zM525 397h4v-1h-4v1zM525 402h4v-2h-4v2zM525 406h4v-1h-4v1zM525 411h4v-2h-4v2zM525 415h4v-1h-4v1zM525 420h4v-2h-4v2zM517 375h3v-1h-3v1zM517 379h3v-1h-3v1zM517 384h3v-1h-3v1zM517 388h3v-1h-3v1zM517 393h3v-1h-3v1zM517 397h3v-1h-3v1zM517 402h3v-2h-3v2zM517 406h3v-1h-3v1zM517 411h3v-2h-3v2zM517 415h3v-1h-3v1zM517 420h3v-2h-3v2zM508 375h4v-1h-4v1zM508 379h4v-1h-4v1zM508 384h4v-1h-4v1zM508 388h4v-1h-4v1zM508 393h4v-1h-4v1zM508 397h4v-1h-4v1zM508 402h4v-2h-4v2zM508 406h4v-1h-4v1zM508 411h4v-2h-4v2zM508 415h4v-1h-4v1zM508 420h4v-2h-4v2zM573 375h4v-1h-4v1zM573 379h4v-1h-4v1zM573 384h4v-1h-4v1zM573 388h4v-1h-4v1zM573 393h4v-1h-4v1zM573 397h4v-1h-4v1zM573 402h4v-2h-4v2zM573 406h4v-1h-4v1zM573 411h4v-2h-4v2zM573 415h4v-1h-4v1zM573 420h4v-2h-4v2zM564 375h4v-1h-4v1zM564 379h4v-1h-4v1zM564 384h4v-1h-4v1zM564 388h4v-1h-4v1zM564 393h4v-1h-4v1zM564 397h4v-1h-4v1zM564 402h4v-2h-4v2zM564 406h4v-1h-4v1zM564 411h4v-2h-4v2zM564 415h4v-1h-4v1zM564 420h4v-2h-4v2zM556 375h4v-1h-4v1zM556 379h4v-1h-4v1zM556 384h4v-1h-4v1zM556 388h4v-1h-4v1zM556 393h4v-1h-4v1zM556 397h4v-1h-4v1zM556 402h4v-2h-4v2zM556 406h4v-1h-4v1zM556 411h4v-2h-4v2zM556 415h4v-1h-4v1zM556 420h4v-2h-4v2zM474 351h21v-1h-21v1zM474 357h21v-2h-21v2zM474 362h21v-2h-21v2zM474 367h21v-1h-21v1zM474 373h21v-2h-21v2zM474 378h21v-1h-21v1zM474 384h21v-2h-21v2zM474 389h21v-1h-21v1zM474 395h21v-2h-21v2zM474 400h21v-1h-21v1zM474 406h21v-2h-21v2z" clip-rule="evenodd"/><path fill="#BBCFF4" fill-rule="evenodd" d="M160 3l-1-2 1-1h4l1 1-1 2h-4zm13 0h-4l-1-2 1-1h4a1 1 0 0 1 0 3zm-22 1l-1-2 1-1 4-1 1 2-1 1a72 72 0 0 0-4 1zm31 0h-4a1 1 0 0 1 1-3h3a1 1 0 0 1 0 3zm9 2V5a280 280 0 0 0-5-2l2-1a283 283 0 0 1 5 2l-2 2zm-49 0l-1-1 1-2 4-1 1 1-1 2a62 62 0 0 0-4 1zm58 1a381 381 0 0 0-5-2l2-1a404 404 0 0 1 4 2l-1 1zm-66 2l-1-1V7l4-2 2 1-1 1a50 50 0 0 0-4 2zm75 0a347 347 0 0 0-5-2l2-1a348 348 0 0 1 4 2l-1 1zm9 2a349 349 0 0 0-5-2l1-1a337 337 0 0 1 5 2l-1 1zm9 3h-1a338 338 0 0 0-4-3l1-1a327 327 0 0 1 5 3l-1 1zm-101 0l-1-1v-2l4-2 1 1v1l-3 3h-1zm109 2a332 332 0 0 0-5-2c1-1 1-2 2-1a334 334 0 0 1 5 2l-2 1zM95 18l-2-1 1-2h5l1 1-1 2a32 32 0 0 0-4 0zm13 1h-1l-3-1-2-2 2-1 4 1a1 1 0 0 1 0 3zm136 0a325 325 0 0 0-5-3l2-1a352 352 0 0 1 4 3l-1 1zm-125 1h-1v-2l3-3h2v2l-3 3h-1zm-33 0h-1v-2l4-2 2 1-1 2a29 29 0 0 0-4 1zm167 2h-1a337 337 0 0 0-4-3l1-1a337 337 0 0 1 5 3l-1 1zM78 25h-1v-2l4-3 1 1v2l-3 2h-1zm183 1a316 316 0 0 0-5-4h2a314 314 0 0 1 4 3l-1 1zm-147 1h-1v-2l2-3-3-2-1-1 2-1 4 2a1 1 0 0 1 0 2v2l-2 3h-1zm9 1h-1l-3-3v-2h2l3 3a1 1 0 0 1-1 2zm147 1h-1a324 324 0 0 0-4-3l1-1a299 299 0 0 1 5 3l-1 1zM72 32l-1-1v-1l2-4h2v2l-2 3-1 1zm206 1h-1a316 316 0 0 0-4-3l2-1a285 285 0 0 1 4 3l-1 1zm-150 3l-1-1-2-3v-2h2l2 4a1 1 0 0 1-1 2zm-17 0a1 1 0 0 1-2-2l2-4h1l1 1-1 4-1 1zm175 1h-1a272 272 0 0 0-4-4h2a292 292 0 0 1 4 3l-1 1zM68 40l-1-2 1-4a1 1 0 1 1 3 1l-2 4-1 1zm226 1h-1a282 282 0 0 0-4-3l2-1a278 278 0 0 1 4 4h-1zm-164 4l-1-2-1-3 1-2 2 1 1 4a1 1 0 0 1-2 2zm-20 0l-2-1a27 27 0 0 1 0-4l2-2 1 2a26 26 0 0 0 0 4 1 1 0 0 1-1 1zm192 1h-1a279 279 0 0 0-4-4h2a278 278 0 0 1 4 3l-1 1zM67 49l-1-1a39 39 0 0 1 0-4 1 1 0 1 1 3 0 32 32 0 0 0 0 4l-2 1zm243 2h-1a272 272 0 0 0-4-4l2-1a269 269 0 0 1 4 4l-1 1zm-180 3l-1-2 1-3v-1l1-1 1 2v4l-2 1zm-18 0l-1-1-2-4 1-1h2l1 4a1 1 0 0 1-1 2zm205 2h-1l-3-2v-2l2-1a261 261 0 0 1 3 4l-1 1zM69 58l-2-1v-4c-1-1 0-1 1-1l1 1 1 3a1 1 0 0 1-1 2zm50 1l-4-2-1-1 2-1 3 2a1 1 0 0 1 0 2zm5 1l-1-1 1-2 3-1h2l-1 2a10 10 0 0 1-4 2zm201 1h-1l-3-2-1-2h2l3 2a1 1 0 0 1 0 2zM71 67l-1-1-1-4 1-1h1l2 4a1 1 0 0 1-2 2zm261 0h-1l-3-3v-2h2a284 284 0 0 1 3 5h-1zm7 6h-1l-3-3v-2h2l3 3v1l-1 1zM75 75l-1-1-2-3 1-2 2 1 1 3a1 1 0 0 1-1 2zm270 4l-3-3v-2h2l2 3v2h-1zM80 83h-1l-2-4v-2l2 1 2 3a1 1 0 0 1-1 2zm272 3l-1-1-3-3v-1l2-1 3 3v2l-1 1zM85 91l-1-1-3-3 1-2 2 1 2 3a1 1 0 0 1-1 2zm273 1h-1l-2-3v-2h2l2 3a1 1 0 0 1-1 2zm4 4h-1l1-1 1-1-1 1 1-1v2h-1zM90 98h-1l-2-3v-2h2l2 3a1 1 0 0 1-1 2zm6 7h-1l-3-3 1-2h1l3 3v2h-1zm6 7h-1l-3-3v-2h2l3 3a1 1 0 0 1-1 2zm6 7h-1l-3-3v-2h2l3 3a1 1 0 0 1-1 2z" clip-rule="evenodd"/><path fill="#2F3788" fill-rule="evenodd" d="M230 13l58 28-1-14-57-14z" clip-rule="evenodd"/><path fill="#DC4272" fill-rule="evenodd" d="M229 11l70 3-23 26-47-29z" clip-rule="evenodd"/><path fill="#793481" fill-rule="evenodd" d="M229 11l55 19 3 9 3-16-61-12z" clip-rule="evenodd"/><path fill="#B8B9F1" fill-rule="evenodd" d="M499 92l-6 27h2l6-27h-2z" clip-rule="evenodd"/><path fill="#CAD8F1" fill-rule="evenodd" d="M518 115l-11-30 60-22 11 31s-8 13-27 20c-20 7-33 1-33 1z" clip-rule="evenodd"/><path fill="#CAD8F1" fill-rule="evenodd" d="M490 84c-4 3-1 9 4 9h5l3-1 38-2 3-1 37-28c4-3 2-9-3-9l-47 3-2 1-38 28z" clip-rule="evenodd"/><path fill="#CAD8F1" fill-rule="evenodd" d="M498 93l4-1 32-18c1 0 0-2-1-1l-35 20zM496 129l1-3c0-4 0-8-2-8s-5 3-6 7v3l7 1z" clip-rule="evenodd"/><path fill="#CAD8F1" fill-rule="evenodd" d="M496 119v-1c1-1 0-3-1-3l-2 2v2h3zM731 55l3 12h-1l-3-12h1zM722 65l5-13-27-10-5 14s4 6 13 9c8 3 14 0 14 0z" clip-rule="evenodd"/><path fill="#CAD8F1" fill-rule="evenodd" d="M735 51c2 1 1 4-1 4h-4l-18-1-1-1-17-12c-2-2-1-4 2-4l21 1h1l17 13z" clip-rule="evenodd"/><path fill="#CAD8F1" fill-rule="evenodd" d="M731 55h-1l-15-8 1-1 15 9zM733 72l-1-2 1-3c1-1 2 1 3 3v1l-3 1z" clip-rule="evenodd"/><path fill="#CAD8F1" fill-rule="evenodd" d="M733 67h-1l1-2 1 1v1h-1z" clip-rule="evenodd"/><mask id="a" width="43" height="43" x="268" y="124" maskUnits="userSpaceOnUse"><path fill="#fff" fill-rule="evenodd" d="M268 125h42v42h-42v-42z" clip-rule="evenodd"/></mask><g mask="url(#a)"><path fill="#CAD8F1" fill-rule="evenodd" d="M268 146a21 21 0 1 0 42-1 21 21 0 0 0-42 1z" clip-rule="evenodd"/></g><path fill="#B8B9F1" fill-rule="evenodd" d="M304 148c0-9-7-17-16-19h3a15 15 0 0 1 13 22v-3z" clip-rule="evenodd"/><path fill="#CAD8F1" fill-rule="evenodd" d="M270 154h38l-9 22h-19l-10-22zM290 197c5 0 9-4 9-10v-11h-19v11c0 6 4 10 10 10z" clip-rule="evenodd"/><path fill="#CAD8F1" fill-rule="evenodd" d="M280 186h19v2h-19v-2zM280 184h19v2h-19v-2zM280 182h19v2h-19v-2zM280 180h19v2h-19v-2zM280 178h19v2h-19v-2zM280 176h19v2h-19v-2zM294 196a9 9 0 0 1-8 0 4 4 0 0 1 8 0z" clip-rule="evenodd"/><mask id="b" width="45" height="62" x="792" y="90" maskUnits="userSpaceOnUse"><path fill="#fff" fill-rule="evenodd" d="M792 91h44v61h-44V91z" clip-rule="evenodd"/></mask><g mask="url(#b)"><path fill="#CAD8F1" fill-rule="evenodd" d="M802 107l-3-13 15-3 2 13c1 2 2 4 5 4a22 22 0 1 1-21 5c2-2 2-4 2-6z" clip-rule="evenodd"/></g><path fill="#E5E9FF" fill-rule="evenodd" d="M817 140a2 2 0 1 1 5-1 2 2 0 0 1-5 1zM811 135a2 2 0 1 1 4-1 2 2 0 0 1-4 1zM809 125l2-3 3 2-2 3-3-2zM808 131a1 1 0 1 1 2-1 1 1 0 0 1-2 1zM813 140l1-1 1 1-1 1-1-1zM804 122a1 1 0 1 1 2 0 1 1 0 1 1-2 0zM816 129a1 1 0 1 1 2 0 1 1 0 0 1-2 0z" clip-rule="evenodd"/><path fill="#CAD8F1" fill-rule="evenodd" d="M794 89l22-5 1 6-22 4-1-5z" clip-rule="evenodd"/></svg>