<svg xmlns="http://www.w3.org/2000/svg" fill="none" viewBox="0 -24 1100 563"><g fill-rule="evenodd"><path fill="#BCCAE4" d="M324 69c1 0 1 0 0 0v-1h-1l-1-1h-1-2v1h-1s0-1 0 0h-1v1-1h-1s0-1 0 0v-1-1h-2l-1 1v-1h1v-1h1v-1h-1s0-1 0 0l-1-1-1 1v-1h-1v-1l-1-1h-1-2l-1-1h-2s1 0 0 0h-2l-2 1v1l-1 1v1h1l-1 1-1-1 1-1-1-1h-1v1l-1-1c0 1 0 0 0 0h-1v1l-1 1h-1v1l-1-1 1-1v-1-1l1-1-1-1v-1l-1-1h-1v-1-1-1h-5l-2 1h-1-1l-1 1h-2c0 1 0 0 0 0l-1 1h-1v1l-1 1v3h3l1 1v1l-1-1h-1-1v1l-1 1 1 1 1 1h1s1 0 0 0l1 1h-2l-1-1h-1-1v-1-1h-1v-1-1-1l-1-1 2-2c0-1-2 0 0-2l3-2 1-1h-1l-5-1-2 1-3 1-2 2c-1 1-2 0-2 2l-1 2-2 2v4l3 2 2 1h3-5l1 3 2 1 1 1h1l2-1c2 2 2 1 3 1l1 2h12l2 1-1-2 2 1 1-1h1v1l1-1v1h4l1 1 1-1h1v-1h-1v-1h-1v-1s0 1 0 0h1v1h1l1 1h2v2l1-1h1v1h1v1h1v1h2v1h1v1h-2-1l-1 1 1 1h2l1-1h3-1l1 1s0-1 0 0l1 1h2v1s-1 0 0 0l1 1v-1l2 3 1 1 1 1v1l-1 1v1h-1l-1 1s1 0 0 0c0 1 0 0 0 0l-1 1-1 1-2 1v1l1 1h1v1l-1 1h-1v1h-1-2l-1 1h1v1h-1l-1-1h-1v-1h-1l-1-1-1 1h-1l-1 1s1 0 0 0l-1 1-1 2 1 1h1l1 1 1-1h1c1 1-1 1 1 1l1-1h1v-1h1l1 1h2v-1-1h-1l1-1 1 1v1h1v0h2v1l1 1h1v1h1v2l1-1h2v1h1l-1 1h-1l1 1 1 1h1l1 1-1 1h1l1 1v-1h1v-1h1l1 1v1h2v1h2l1 1h3l1 1h2v-1-1-1l-3-1-1-1s2 0 0-1l-3-1v-1l-1-1-1-1h2v1h2l2 2h2l1 1h2v1h1v1h1v1l1-1h-1v-1h-1l1-1v1l1-1-1-1 1-1s0 1 0 0v-1-1-1h-1l-1-1v-1-1l-1-1-1-1v1h-1l-1-1h-1v-1-1h-1v-1l-1-1h-1v-1h-1l-1-1v-1 1h1l1 1h2v-1h-1l-1-1h1l1-1v-1h1v1h1v1h1l1 1v1l1-1 1 1 1 1h-1c1 0 2 0 1 1 0 0 1 0 0 0v1h1l1 1v-1l1 1h1l1 1v-1l1-1-1-1v-1h2l1-1h1v-1h1-1v-1-1h2v1h1l1-2v-1l-1-1h-1-1l-1-1v1h-1s-1 0 0 0v-1h1l-1-1h-1v-1l-1-1h-1l-1 1h-1v1h-1l1-1v-1-1h-1l-1-1-1 1v-1h-1v1h-2-1l1-1v-1-1s1 0 0 0l-2-1v1h-1l-1 1h-1v-1l-1 1v-1-1h-1-1v-1h-1l1-1v-1h1v-1h1l1 1h2l1-1h-1v-1h-2-1-1l-1-1 1-1h3v-1l-1-1-1-1h-1l-1 1h-1-1 1v-1h-1l2-1v-1h-1-1l-1-1h-2l-1 1v-1h1-3c0 1 0 1 0 0l1-1v-1h-2l-1 1v-1-1zM144 65l1 1h2v1l2 1 1 2h3l1-1 2-1h3l1-2v-1-1h1l2-2 1-1 2-1 2-1h1l2-1 2-2h1l2-1 1-1-4-2-1-1-2-1h-2-1-1l-2 1-1-1h-3l-3-2-1 1h-2l-1-1h-2l-2 1h-1-3l1 2 1 1v2l-1 2-1 1v1l-1 1-1 1v2l-2 3h3z"/><path fill="#BCCAE4" d="M220 78h1v-1l1 1h3v-1-1l-1-1h-2v-1h-2l-1-1-1-1s0-1 0 0h-2l-1-1-1-1h-1v-2h1v-2l-1-1-1-1-1-1-1-2v-1-1h-1 2v-1l1-1 1-1v-1l-1-1-1-1h-3-1l-1 1h-1l1 1 1 1 1 1v1l-1-1h-1l-1-1-1 1-1-1h-1l-1 1v4l1 1 1 1v3h-1-1l-1-1v-1-1l-1-1v-1l-1-1h-1l-1-1-1-1h-1-2l1 1a21 21 0 0 1 2 1v1h-1s0-1 0 0h-3l-1 1h-1l1-1 1-1h-1l-1-1h-1-1l-1-1h-2-1v1l-1 1h1l-2 1s0-1 0 0h-1v-1l1-1v-2-1l-1-1-2 1-1 1h-3l-1 1h-1l-1 1h-1-1l-1 1h-1l-1 2h1l1 1h-2v1h-1l-1 1v1l1 1 2-1 2 1h-1v1h3l1-1h4s1 0 0 0l-1 1h-2l-1 1h-2-1l-2 1v1l1 1a179 179 0 0 1 3 1h2l1-1 2 1h4l1-1 3 1h2l1 1h-7l-2 1h-6-1l-1 1v1l1 1 2 2h1l1 1h7l1 1v1 1l1 1h6s-1-1 1-1h6l2-1h1l2-1h2l1-1v-1h2v1h3l1 1 1 1h8l1-1h1v-1l-1-1-1-1-1 1h-1v-1h-1 2l1-1zM256-1h2l1-1h3l-2 1h-1v1h3a22 22 0 0 1 2-1h1l-1 1h-2l-1 1-1 1v1h4v1l1 1 2 1h4V5h1l1-1 2-1h1v1h-2v1h-1v1 1h9V6l1-1h1v2h4l1-1h2l1-1h3l1-1h1V3l1-1h2V1h1l3-1-3 2-1 1-1 1c-1 0 0 0 0 0h5s1 1 0 0h-2l-1 1h-4l-1 1h-1l-1 1h-1-1-1l-2 1h-1-1-1-1v1l1 1h1v1l2 1h1l-1 1h1-1l-1-1-1-1h-2v-1h-2V9h-1-2-1l-1-1-1 1-1-1h-1-1l-1 1h-1l1 1v1h1v1c-1 0-1 0 0 0v1h2l2 1 1 1h1v1h1l2 2h2v1h1v-1h3v1h-2-2l1 1h1v1h-1-1l-1-1-1-1h-1-2-3c-1 0 0 0 0 0h-2-2l-2 1-1 1v2l1 1v1l2-1 1-1v1l1 1h2l1-1v-1-1h1v1l1 1h0l-2 1h-1l-1 1h2v1l-1 1h7v-1l1-1 1-1v1l-1 2h-1l-1 1h-1l-2 1h-1-1l-1-1-2-1-2-2h-3-1-1v3h1v1h2v1h-4l-1 1h-1l-1 1-1 1v1l1 1h2v-2l1 1h-1v1h3s0-1 0 0h6l1 1h3v-1h-1 3v-1h1v1c1 0 0 0 0 0h3v1h1l1 1v-1h1l1-1-1-1h-1l1-1v1h1v1h3v1h-1l1 1h1l1-1h3l1-1h1v-1h1v1l2-1v-1-1l-1-1h-1v1h-1-1l-1-1h1v-1s-1 0 0 0v-1h2l2-1v-1s0 1 0 0l-1-2h6l1-1h1l1-1h-1l1-1h1l-1-1h-1v-1h3v-1h1s1 0 0 0h-1l-1-1-2-1h4v-1-1h-3-2-1v-1h-3c0 1 0 0 0 0h1l1-1 1 1h8l1-1h2l-1-1-1-1h2v1h6l1-1v-1-1h1s1 0 0 0h-2c-1 0-1 0 0 0l2-1h1l1-1h-1 2l1-1h1l1-1 3-2h1l1-1h2l1-1h1l1-1 5-2-1-1-1 1h-2-1l-1 1h-2-1l1-1h3l3-1h1l1-1h3l1-1h2l1-1h2v-1h1l1-1-1-1-2-1h-2-2l-2-1c2-1 2-2 1-2h-6l-1 1h-1-3l-1 1h-3-2l-1 1 3-2h4l1-1h-1-3-1v-1h-2-1-1-1-1l-1-1h-2-1l-1 1h-1 1l1 1h-2v-1h-1v-1l-1 1-2-1h-1l-1 1h-1v1h1v1h-1-1l-1-1v-1h-1-2-1-1-5c-1 0-1 0 0 0v1l1 1h1l1 1h1v1h-1v-1h-2l-1-1s0-1 0 0l-1-1h-1-1-1-2-1l-1-1-1 1h-1l1 1 1 1h-1l-1-1h-1s0-1 0 0h-2-1v1h1l1 1h-1v-1h-3l-1 1h1l-1 1h-1v1h3l2 1 2 1h3l1 1v1l-2-1-1-1h-3l-2-1h-1l-1-1h-1-1l1 1h1v1h-1l-1-1h-1l-1-1-1-1h-4l-2-1v2s1 0 0 0h-1-1-1l-1 1s-1 0 0 0h4l1 1h1v1h-1l-1-1h-3-1v1h-1l-1-1s1 0 0 0h-1l-2-1-1 1-1 1h-1-1c0 1 0 0 0 0h-1-1-2l-1 1h-1-1l-1 1 1 1z"/><path fill="#BCCAE4" d="M240 12l1 1 1 1 2-1h2v1h-4l1 2h2v1l1-1h1s0-1 0 0v1l2-1h1l1-1h1l1 1h0-1l1 1h2-3-1l-2 1s0-1 0 0h-2s-1-1 0 0l2 2h1l1 1h3l1 1h-3c-1 1 0 1 1 1l1 1h1l1 1h1l2-1 1 1v-2h1l1 1h1v-1l1 1 1 1 1-1v-1-1h1v1l1-1v-1l-1-1v-1s0-1 0 0h1l-1 1 1 1h1l1-1 1-1h1l3-1 1-1h1-1l1-1-1-1v-1h-1s0-1 0 0h-1-2-1v-1l-1-1v-1l-2-1h-1l2-1-1-1-2-1-1 1v1h1v1h-2V9 8l-1-1h-1l-1-1h-2V5l-1-1h-1l-1-1-1-1-1-1h-3l-1-1h-1-1l-1 1v1h3l1 1-2-1-2 1c0-1 0-1 0 0h-3-1v1l1 1h2l1 1h-1-1-1-1-2 1l-1 1 1 1h-2v1h3l1 1h2l1-1-2 1h-6v1l1 1zM233 21l1 2c0 2 0 0 1 1h2l-2 1h1v1l1 1h1l1-1c1 0 0 0 0 0l1 1 1-1h3v-1l-1-1 1-1v-1h-1-2c-1 0 0 0 0 0l-1-1v-1h-4l-1-1h-2v2z"/><path fill="#BCCAE4" d="M242 28l1 1h7l1-1v-1h-1l-2-1h-1l-3 1h-1v-1l-2 1h-1v1h2zM259 27c-3 1-2 1-2 2l1 1v1h1v-1h1l1 1h2v-2l-1-1h-1c0-1 1-1-2-1zM250 35l-1-2h-1-1-1-1l-1-1h-1-3l-1 1h-1v2h2l1 1s0-1 0 0l1 1h1s0-1 0 0h1l1 1h3l1-1v-1l1-1zM259 48h6v-1h1v2h3l1-1h1v1l1-1 1 1 1-1h1l1 1v-1h3l1 1h1l1-1h2v-1 1h3l1 1h3l1-1h2v-1-1h2v-1-1h1v-1l-1-1h-1l-1-1h-1-2l-2-1h-1-1-1-1l-1 1-1-1h-2l-1 1h-3l-1 1h-1s0-1 0 0h-1v1l-1-1h-2l-1-1h-1l-1 1h-1v-1h-1-1v1h-1v-1-1h-1-1v-1h-2v-1h-1 4l1-1h-2-1l-1-1-1-1h-1l-1-1h-3l-1 1h-1l-1-1v1l-1 1 1 1v1h1l1 1 1 1v2h-1v2l1 1v1l1 1h1v1h1l1-1 1 1zM210 18h2v1s-1 0 0 0h1v-1h2v2h1l1 1-1-1h-1l1 1h-1l-1-1-1 1h-1l-1 1 2 1 1 1 1-1 1 1 1-1h1l1-1v1h2l1 1h1s-1 0 0 0l2 1v1h1l2 1h3l1-1v-1l-1-1-1-1-1-1 1-1h-1l-1-1v-1h-3v-1h-1l-1-1h-1-1l-1 1h-1v-1-1h-1l-2-1h-2-4l-1 1v1l1 1zM220 28h4v-1l-1-1h-2-1l-1 1 1 1zM241 81h1c0 1 0 0 0 0l1-1h-1l-1-1-1 1h-1-1l-1-1-1-1h-2-1v3h-1v1h-3v1l1 1h4v1h3l1 1h2l1-1h1l1-1s0 1 0 0v-1h-1-1v-1h-1v-1h1zM239 63l1-1v-1h-1v-1l1-1-1-1h-1l-1 1 1 1v1l-1-1v-1h-1-1-1v1-1l1-1 1-1h1v-1h1v-1-1l-1-1-1 1-1-1h1v-1h-2-1v1h-1-1-1l1 1c1 0 0 0 0 0v1l-1-1h-1l-1-1v1h-1-2v1h-2v1c-1 0 0 0 0 0v1l1 1h3v1 1h-1l-1 1h-1l-2-2h-1-1l-1 1v1h1v1l1 1h1v1h4v1l1 1h1l1 1 1 1v1h1v1h2l1-1v-1-1c-1 0 0 0 0 0l1 1c0 1 0 0 0 0h2l1-1h1v-1l1-1-1-1v-1zM231 36h-1v-2h-2v1h-1v-1l-2 1v-1l-2 1v1h2v1h1l1 1 1 1v1s1 0 0 0h-1v-1h-1l-1-1-1-1h-1l-1-1-1 1-1 1 1 1h1l1 1 1 1h-2l-1-1v-1l-1 1v-1h-1v-1l-1-1h-1v-1h-1l-1-1h-3v1l1 1v2 1l2-1v2h3v2h2c1 0 0 0 0 0l1-1 1 1h3v-1h2v1h-1v4h8l1-1 1-1c0-1 0 0 0 0h-1v-1c0-2 0 0 1-1v1h1v-2h-1v-1-1-2-1c-1 0 0 0 0 0v-1l-1-1h-3l-1 1zM240 43l2-1-1-1h-1l-2 1 1 1h1s-1 0 0 0zM247 49h2l1-1v-1-1l-1-2h-1l-1-1v-1h-4l-1 1-1 1s0-1 0 0l-1 1h-1v1l1 1h2l1 1 2 1h2zM242 48l-1 1 1 1h1v-1l-1-1zM246 40h1l-1-1h-1v1h1zM176 37h-1v1h1-3l-1 1 1 1h1l2-1 2 1h-2-1-3l-1 1-1 1h7-2-1v1h-1-1l-2-1v1h-1l1 2h3c0-1 0 0 0 0l1 1h1l1-1v1h3l1-1v-1l1 1v-2l1 1-1 1 1 1h1v-1h6c0-1 0 0 0 0l1-1h1s1 0 0 0l-1 1h-1l-1 1h-2-1l-2 1h-1l-2 1v1h1l2 1h3l3-1 3-1 1-1h3l1-1h3l1 1 1-1c0-1 0 0 0 0h1l1 1 1-1h2l1-1c1 0 0 0 0 0l1-1v-2c0-1 0 0 0 0l1-1v-1-1h-2-2-1v1l-1-1-1 1h-1v-1c1 0 0 0 0 0l-2-1v-2-1-1l-1-1h-2l-1 1-1 1-1 1v1h1v1h1v1c1 0 0 0 0 0h-1v1h-1 1l1 1h1l1 1h-1-4s1 0 0 0h-1-1l-1-1 1-1h-2l-1-1h-1l-1-1-1-1h-2-2v-1l-1-1h-1l-2 1h-1v1zM167 39h-1l-2 2-1 1 1 1h2l1-1 1-1 1-2-1-1h-1v1z"/><path fill="#BCCAE4" d="M152 39h1v1l1-1h4v-1h1l1 1v1h2l1-1v-1h1c1 0 0 0 0 0l1-1h1v-1-1h1v-1h1v2l1 1h2l1-1v-1h2l1-1-1-1h1v-2c-1 0 0 0 0 0l1-1h1l-1-1-1-1h-2-1l-1 1h-2-1-2-1l-2 2-2 1-1 1h-1l-1 1-1 1h-1l-3 1-1 1 1 1-1 1zM158 39c0 1 0 0 0 0zM180 33h-2v1l1 1h4v-2h-2-1zM178 27l2 1h1l1-1h1v-1h-1l-1-1h-1-1l-1 1v1zM194 25h2v-1h-1-2-3-1l-1 1-1-1-1 1h-2l-1 1v3h2l1 1h3l1-1h2l2-1v-1s1 0 0 0l-2-1 2-1zM184 24h2l1-1h1v1h1l1-1h1l2 1h3l1-1v-1l-1-1-1-1h-1-3l-2 1v1h-3-1l-2 1v1h1zM209 30l1 1 1 1h3v-1l-1-1-1-1-1-1h-1l-2-1v2l1 1zM213 46h3v-2l-3-1-1 1v2h1zM228 11h1l1 1h1l1-1v-1l-1-1h-3l-1 1 1 1zM305 60h3l-1-1v-1l-1-1h-1v-1h-1l-1-1h-1-1l-1-1-1 1h-1-1-1l-1-1v1l-1-1h-2v3h2v2l1 1h1v1h3l2-1h4zM356 180l-3-2-2-1h-4l1 1 2 1 2 1 2 1h1l1-1zM374 170l-1 1-1 2-1 1-1 1-1 2v2h-1l-1 1v1l-1 1v1h-1l1 1c1 0 0 0 0 0l-1 1-1 1v1h10l1-1 1 1v1l1 1h-1l-1 1h2l1-1h1l1-1h1v2h2l1 1 1-1c1 0 0 0 0 0v-1l1-1v-1h-2 1v-2l-1 1-1 1-1-1 1-1 1-1 1-1h-1l-1 1h-1v-1c1 0 0 0 0 0v-1l1-1v-1h-1l-1-1h-1-1v1l-1 1h-1v-2h-2v-1h1v-1h-1-1-1l-1 2v-1l1-1v-1l1-1 2-2-1-1 1-1v-1h-2zM290 113h2l1-2-1-1h-3l-1-3h-3l-2-2-2-1h-1l-1-1h-1l-1-1v-1l-1-1-3 2 1 4c-1 1-2 1-1 2v2l-2 1s-2 0-1 1h5l1 2 2 1 2-2 1-1 1-2h1l2 2 3 1h2zM149 184l2-1-1-2-2-1-2-1-1-1-2-2-2-1-3-1-2-1h-3l2 2h-1l2 1 1 1h1l2 1v1l2 1 1 1h2v1h2l2 2zM124 166l-1-1v-1c-1 0-1 1-1-1v-2-1l1-1h-2l-2-1c0 1-1-1-1 1l1 2v1c1 0-1 0 0 0l1 1 1 1v1l1 1 1 1 1 1h1v-1l-1-1zM120 155l2 1v-1l-1-1-1-2v-1l-1-1-1-1h-1l-1-1 1 2v1c0 1-2 1-1 2l3 1c1 1-1 1 1 1zM109 143v-1l-1-1v-1l1-1h-2l-1 1v2l2 1v1l1-1zM114 145v-2l1-1-1-1v-1h-2l-1 1c0 1-1 1 1 1h1l-1 2 1 1h1zM112 145l-1-1-1-1h-1v3l1 1 1 1 1 1v-2-2zM117 148l1-1v-1l-2-1-1 2 1 1h1zM114 145l-1 1v1l1 2v0l1-1v-1l-1-2zM128 161l-2-1 1 2 2 1v-1l-1-1zM16 154h-3l-1 2v1h2l1-1h2l-1-2zM53 138l-2 1h-1l-2 1 1 1v2l-1-1-1-1-2 1 1 2 1 1h1l2-1 2-1 1-1-1-3 2-1h-1zM6 128l-2 1c-1 1-2 1 0 1l3 1 2-1c-1-1-1-3-3-2zM348 189l-1 1 1 1 1 1v-1l-1-1v-1zM353 191h-4v1l2 1h2v-1l1-1h-1zM360 191l-1-2-1 1-2 2 1 1h1l2-2zM360 195l2-1v-2h-2l-1 2v1h1zM307 87l-2 1-1 3 1 2h3l3-2v-2l-1-2h-3zM299 83l1-2 1-1h-2l-2 2 1 1h1zM300 80l2-1-1-1-2 1 1 1zM306 81l-2-1-1 2h2l1-1zM311 84h-1v1l1-1zM313 90h4v-1l-3-1h-1-1v1l1 1zM295 80l1-1h1l-2-1-2 1c0-1 0 0 0 0l2 1zM272 87l-1 2 1 1 1-1v-1l-1-1zM273 77l-2-1h-1l2 1h1zM287 115l-2 1h-2l-1 2 1 1h2l2-2c1-1 3 0 2-1l-2-1zM296 123l1-3v-2l-2 1-1 1 1 2 1 1zM301 114l1 1h1v-2h-3l1 1zM304 112l-1 1 2 1 1-1-2-1zM485 78l2-1h1l1-1v-1h-1-1l-1 1h-1l-2-1-1-1h-1-1-1-1l-3 1h-2v1h-2-1-1v-1l1 1 1-1h2l1-1h1l1-1 2-1h1v-1l-1-1h-2c-1 0 0 0 0 0l-3 1-1 1h-1l-1 1 1 1h-1l-1-1h-1l1-1h1v-1l1-1h5l1-1h2v-1l-3-1h-2-1l1-1h1l1 1h2l1 1 1 1h1l1 1 1 1v1h1l1 1h3l-1-1h1v1l1 1 1-1 1-1v-1h-1v-1h1l1-1-1-1-1-1-1 1v-1l-1-1v-1h-1l-1-1h-1v-1h-1l-1-1h-2v-1-1-1h-1l-1-1h1v-1h-4l-1-1h-1c0-1 0 0 0 0h4v-1h2v1h3l2 1-2-2h-2v-1l-1 1-1-1h3l1-1h3l1 1h-2-1v1l1 1h1l1 1 2-1h2l1-1h3v-1l1-1-1-1h-2-1c0-1 0 0 0 0l-1-1v1h-1l-1-1 1-1h1l1 1h4v-1h2l1-1h1l1-1v-1h-1v1h-1v-1h-1-1l1-1-2-1h-1v-1-1h1l1 1h2v-1-1l1-1v-1l-1-2h-1v-1h-1v-1h-1-1-2-2v-1l-1-1h-1v-1h1v1h2l1-1h3v-1h2l1 1h4v-1-1-1-1l-1 1-1-1h-1-1-1-1v-1h-1-1v-1c0-1 0 0 0 0l1-1 1 1h1v1h1l1-1h1l-1-1h-1-1v-1h-2-1-1-1-1v1l-1 1v-1-1h1v-1-1l1-1v-1-1-1h2c0-1 0 0 0 0l1-1h1v-1h1v-1h1l1-1h-2 1l-1-1v-1l1-1h3l1-1h1l1-1V9h-2-1-1-2l-1-1v1h-1v1l-1 1h-1v-1l1-1 1-1h6v1h1l1-1h2l1-1h1l1-1-1-1v1h-2V5h-1-1-1v1h-1l-1-1 2-1 1 1 1-1 3 1h-1 2l1-1h3l1-1V2h-1 1V1h1l1 1V1h2l1-1 3-2v-1h-1l-1-1h-2-1l-3-1h-1-1-1-4-1l-2 1v1l-1 1-1 1h-1v-1h-1-3l-1 1h-1l1-1v-1h-1-1v1h-1l-1 1-2 1h-1v1h-1a18 18 0 0 1-4 2v1h-1l-1 1 1-1V3l2-1 1-1 1-1 2-3v-1-1-1h-4-1l-1 1h-1v1l-1 1h-1-1-1-1l-1 1h-1l-1 1h-2-1l1-1h3l1-1h1l1-1v-1-1h-1-3-1l-1 1-3-1h-1-3l-1 1h-1-3l-1 1h-1-1-1-1l-2 1v-1h2v-1h5l1-1h6v-1h3l3 1 2-1h8l5-1 1-1h1l1-1v-1h-1-1l-1-1h-2-1-3l-1-1h-1l-2 1h-1l1-1h1l1-1-1-1h-2-1c-1 0 0 0 0 0l-2 1h-5-2l1-1c2 0 0 0 1 1h1l1-1h3l1-1h1v-1h-1-1-1-3-3l-1-1h-3-1-3l-1-1h-1-5-2v1h-1c0 1 0 0 0 0h-1v-1a364 364 0 0 0-8 1v1h-1s0-1 0 0l-1-1-2 1h-2l-1 1 1 1h2-1-1v1l-2 1h1l1 1h-1-1l-1-1v-1-1h-1-1c-1 0 0 0 0 0v1h-3-1-1v-1h-1l-3-1h-1l-1 1h-2-1-3-1v2l-1-1h-3v1l1 1h4c0 1 0 0 0 0l-2 1h1l1 1h1l1 1h1l1 1h-1l-1-1h-1l-2-1h-1l-1-1h-2c-1 0 0 0 0 0h-1-1l-1 1-1-1v1h1v1h1l1 1h2l1 1h2v1h1v1h1l1 1h-1-1-1l-1-1h-1-1v-1h-1l-1-1v1l-1-1h-1-1l-2-1h-1l-1-1h-1v-1h-1-1-1-1-1l-1 1v1h1v1l1 1 1 1h-2v1h-1v-1h-1v-1l-1-1h-1l-3-1h-1l-1 1h1v3h-1v1l-1 1v-1-1-1-1-1l-1-1-2-1h-1l-1 1c0-1 0 0 0 0h-1-1l-1 1c0-1 0 0 0 0h-1-1l-1 1v-1h-2v1h-5l-1 1h1l1 1h1l1 1h1l1 1c0-1 0 0 0 0h1l1 1h1v1l-1-1h-1l-2-1h-1l-2-1v-1h-1v-1h-3-1-1l-2 1-1 1 1 1s0-1 0 0h1v1h-1v1c-1 0-1 0 0 0v2h-2V1h-1-1-1-1-1v1h-1-1-1-1l-1 1-1 1h-1v1h-1-1-1l-1 1h-1v1h-1l-1 1v1h4l1 1h1l1-1 1 1h1l1-1h0l-1 1h-1v4h-1v1h-1l-1 1h-2-1-1-1v1h-1l-1 1v-1h-2l-1 1-1 1h-2-1-1v1h-1-1-2l-1 1-1 1v-1h-1v2h-1v1h1l1 1h2v1h3l1 1h3v1h3v-1l1 1h3l1-1h2l1 1h1l-1 1h-1-1-1-1-4-1v1h-1-2-1-1-1-1l-1 1 1 1h1v1h1l1-1h1v1l1 1h1c0-1 0 0 0 0h4v1h-1-1c0-1 0 0 0 0h-1-1v2h1l1 1h6l-1-1h2v1h1v-1h2v1h2v-1h2v-1h1v1h2l1-1c0-1 0 0 0 0h2l1 1h1c0-1 0 0 0 0h5v1h3l1 1 1 1h2v1h1v3h1s0 1 0 0l1 1h1l1 1v1h1l1 1c0-1 0 0 0 0l1 1h-1v1h1v1l1 1v2h1v1h1v1l-1 2 1-1v1h2v2l1 1h-1v1h-1v1l-1 1v1l1-1h1v-1 1l-1 1h-1l-1 1h-1v1h3l2 1 1-1 1-1v-1h1l-1-1v-1l-1-1h1v1l1 1v1l1-1h1v1h-1v1h3v1h2v1l-1 1h1l1 1 1 1v2h1v1h-1-1l-1-1h-1l-1-1h-1-1l-1-1h-1-1-1-1v1h-1 1v1h1v1h4l1 1v1h7l1 1h-1v2h-1v1l1 1h1l-1 2v-1h-1-1v1h1v1h-1v3h1v1c1 0 0 0 0 0h2v2h-2 2-1c-1 0 0 0 0 0h-1l-1 1v-1h-1-1c0-1 0 0 0 0h-1l-1-1h-1-1-1v1h-1l-1 1c-1 1 0 0 0 0v1h1l1-1h6v1h3-2v1h-1l-1-1h-1v-1h-1l-1 1h-2-1-1l1 1 1 1 2-1 1 1c0-1 0 0 0 0l-1 1h-2l-1 1v1h2l1-1h1l1-1 1-1h1l2-1v1h-1-1l-2 1-1 1-1 1h-1v1h-1v1h2l2-1v1h-1-1-1v1l-1 1h4l1-1h0v1h-1-1v4h1v-1h1l1 1h-1-1v1h-1v1l1 1 1-1v-1h1v-1h1v-1-1l1 1v1h2v1c1 0 0 0 0 0l1 1v1h-1l-1-1v1l-1 1h-1s0 1 0 0v1h-1v1h2l-1 1h1l-1 1h2l-1 1h3l-1 1 1 1h-1v2h2l-1 1h1v1l1-1c1 0 0 0 0 0l1 1v2h1v2h1v-1h1v3h2v-1h1v1h1l1-1h2v-1c0-1 0 0 0 0l1 1 1-1v2h-1v1h2v1h1v1s0 1 0 0h3v0h1l1-1h-1l-1-1h2c1 0 0 0 0 0l1-1h1l-1-1 1-1v-1s1 0 0 0v-1l1-1v-2-1-1h-1l-1-1h3l1-1v-1h1v-1h1v-1l-1-1h2l1-1v-1h-1l-1-1h-1 3l1-1v-1l-1-1h-1-1v-1l1-1 1 1h2v-1h1v-1h-1v-1h5l1-1v-1l1-1v-1h1v1h-1v1l-1 1 1 1h1v-1-1l1 1v-1h1l1 1v-1l1-1v1h1l1-1 1-1h3v-1-1h1l1-1v-1l1-1 1-1 1-1 1-1 1-1h2l-1-1v-1l-1-1h1l1 1h1l1 1h2c0-1 0-1 0 0h2l1-1h-1 5l1-1h1l3-1h2l1-1h1l1-1h1l1-1 1-1 4-2z"/><path fill="#BCCAE4" d="M388 77l-2-1-2-1h-4l1 2h1l-2 1 1 2h3c0 1-2 0-1 1h2l4-1h1l1-2-3-1zM391 86l-1-1h-1l-2-1v2h-2l2 1-1 1h-1l-1 1-1 1 3-1h6v-1h-2l-2-1h2l1-1zM491 59l-4-1-2-1h-2l-1 1 2 1h1l1 1h4c1-1 2 0 1-1z"/><path fill="#BCCAE4" d="M489 62l-1-1-1-1h-3v-1h-1l-1 1 2 2h1l1 1 1 1h2l-1-2h1zM377 59l-1 1h2l1-1h-2zM379 64l1-2v-1h-2v1h1l-2 1v1h2c-1 0 0 0 0 0zM384 68l-1 1 1 1 1-1-1-1zM385 68v2h1l1-1-1-1h-1zM384 66l1 1v-1h-1zM389 68l-2-1 1 1v1l1-1zM391 71l-1-1h-1l1 1h1zM336 192zm-72 117v-1 1zm111-143v-1l1-1-1-2 1-1-3-1-2-1v1l-1 1v-2l-1-1-2 1h-1l-2 1v1l-2 1-2-1v-1h3l1-1 1-1h3l2-1h1l-2-1v-1h-3l-1-1-1-1-1 1-1 1 1-1-1-1h-1l-1-2-1-1s1 0 0 0v1l-1-1-1-2h-1l-1-1v-1h2v-1l-1-1-1-1v-1l1-1-2-1-1-1v-1h-1l-1-1v-2h-1v-1l-1-1-1-1-1-1v-1c0-1 0-2-1-1l-1 2s0-1 0 0l-2 1 1 1v1h-1v2s1-1 0 0l-1 2-2-1s1 0 0 0l-1 1-1 1-1 1-1-1h-1l-1 1v-1-1-2h-1l-3 1h-1v-1h2v-1c-1-1-1 1-1-1l-1-1v-1-2-1-1l1-2h-2l-1-1-1 1-1-1h-2v-1l-1-1-1-1h-1v-1l-1-1-1-1h-4l-1 1h-1l-1-1h-2l-1-1h-4-1l-1 1-1 1 1 1v2l1 1-1 2v2l1 1v1l1 1v2h-1l-1 2-1 1-1 1-1 1 3 1 2 1 1 1 1 1v8l-1 1-2 1-1 1-1 1-1 1h-2-1l-1 1 2 1v3l1 1-1 1 1 1v2l1 1v1l-1 1v1l1 1-1 1h-3v1l1 1-2-1-1-1-2 1 1-1v-1-1h-1v-1l-2-1h-1l1-1c0 1 1 1 0 0l-1-1h-1v-1h-1l1-1v-1-1l-1-2v-1-1-1-1-1l-2-1-1 1h-2l-1-1h-4c-1-1 0-2-1-1l-2-1-1-1h-2-1l-1-2-1-1h-1-1l-1-1h-2l-1-1h-1v-1h-5l-1 1h-2-1l1-1v-1-1l-1-1v-1l-1-2s1 0 0 0l-2-1h-2l-1-1v-1l-1-1h1v-2-2-1-1l1-1 1-2 1-1v-1l2-1v-2h2v-2h1l1-1-1-1h2v1l2-1h1v-1l-1-1v-1h-2-1v-1h-2v-1h-1l-1-1 3 1v1l1-1 1 1h1l1 1h2v-1h1v-1-1h1l1 1h3l1-1 2-1 1-2 1-1v-2h-1-1v-1h2l1-1 1-1h1l1-2-1-1h-1v-1h4l1 2h1l1-1h1l1 1 1-1-1-1-1-1-1-1h-1 1v-1 1h1v1l1 1h1l1 1 1 1v-1-1s-1 0 0 0l2-1s-1 0 0 0l1-1h1v-1h1l1-1v-2h-1l-1-1-1-1v-1l-1-1h-1l1-1h2l1-1h1v-1h-1-1v-1h1v-1l-2-1h-1l-1-1h-1 1v-1h-2l-1-1h-2-1-3-1v1l1 1v1l1 1 1 1h1l-2 1h-1l-1 1v2l-1 2h-1l-1 1v2h-1l-1 1-1 1v-1l-1-1-1-2-1-1v-1l1-1h1v-1l-1-1v-1l-1-1-1-1h-1-1-1l-1 1-1 1-1 2v-1-1-1l-1-1 1-1c0 1 1 1 0 0v-1h-1l-1-1-1-1h-1v1h-2l-1-1s-2 1 0 0c2-2 3-2 3-1h1l-1-2h-1v-1l-2-1v-1h-1v-2-1l-2-1-1-1h-1l-1-1h-1v-1h3v-1l1-1v-1-1h-1 2l1-1 2 1 2-1 1-1v-2h1l1-1 1-2v-1h-1l-1-1h-2l-2 1-1-1h-3-2-3l-1 1s0-1 0 0v1h-1v1l-1 1v4l1 1v1l1 1-1 1 1 1v1l-2 1v1l1 1h-2-1v1l-1 1v2h1l1 1-1 1v1l1 2 1 1h2l2 1h1l1 1h-1v1l1 1h-1l-1 1h2v-1h1v3l-2 1-1 1h-2l-1 1-1 1 1 1 1 1v2l-1 1v-1-2h-3v-1l1-1v-1-1-1l-1 1v-1h-2l-1-1h-2s1 0 0 0l-1 1-1-1-1 1 1 1h-1v2h-1s1-1-1-1l-1 1h-1-3-3v1l-1-1h-1s1 0 0 0l-2-1-1-1h-1-3l-1-1s1 0 0 0l-2-1v-1l-1-1v-1h-2l-1 1h-1l-2 1h-3v1h-1l-1 1 1 1h3l1-1h2l2-1 1-1 1 1-1 1h-1l-2 1h-1l-2 1-1 1 1 1 1 1 1 1v2l-1-1h-1l1 2v1l-1-2h-1l-1-1 2-1s0-1 0 0l-1-1h-2l-1-1v-1h-2l-1-1h-2-1-1v1h-2-1-2l-2 1-1-1h-3v-1h-3l1-1h1l1-1h1v-1l-1-1-2-1-2-1h-1l-2 1h-3l-2-1-1-1h-1l-1-1h-3l-1-1h-1l-3-1h-1l-2-1h-4v1l-1 1-1 1-1-1v-1l-1-1v-1-1h-1l-1 1c0 1 0 0 0 0v2h-1v1l-1 1-1-1-1-1h-1l-1-2v-1l-1-1-1-1-2-1s1 0 0 0v2l1 1h-1l-1 2h-4l-1 1h-2v1l-2 1-1-1h-1l-1 1v1h-2v2h-1c-1 1 1 1-1 1l-1-2h1l1-1h1v-1h2s-1 0 0 0l1-1h2l2-1 1-1 2-1v-1h-1-1l-1 1-1-1-1 1-1 1h-1-1l-1 1h-1l-1 1h-1l-1 1h-1-1l1-1h-1l-1-1-1 1s1 0 0 0l-1 1h-2-1v2h1l1 1h-2l-1-1h-1-1-2-2l-1-1-1-1-1-1v-1h-1a4 4 0 0 1-1 1l-2-1h-2l-1 1-1-1h-1l-1-1h-1l-1-1h-2l-1-1-3 1h-2-2v-1h-1l-1-1-2 1h-2-1l-2-1h-1-1l-1-1h-2-1l-2 1-1-1-2 1-1-1h-2v-2h-2l-1-1-2 1h-2l-1-1h-2l-1 1h-1l1-1v-1h-3l-1-1-2 1-1 1-2 1h-3l-2 1-1 1h-1l-1 1h-1l-1 1s-1-2-2-1l-2 2-2 3-1 1-2 2-3 1-1-1-1 1H7l-1 1-1 1 2 1v1l3 1h1l2 1 1 1v2l1 1h1l1 1 1-1h3l1 1h-1v1h1l1 1 1-1c0 1 0 0 0 0h2v1h-1l-1 1v1l-1-1-1 1h-1-3-1-2-1s1 0 0 0v-1l1-1h-1s0-1 0 0l-1-1-2 1h-1v1H9 8l1 1H6l-1 1H4 3l-1 1H1v2h5v1h1-2-1l1 1v1h1v1h1v1h6v-1h1l1 1h5v-1h1l1-1h2v1s1 0 0 0v1h-1l1 1 1 1v2h-1v1h-1-2-1l-1 1h-1v1h-1-2-2-1v1h-1v1l1 1h-1-1v1H9v1H8v2l-1 1 1 1 1 1h1v-1l1-1v1h-1v1l1 1h2v1h1v-1h1v1h1l-1 1-1-1-1 1-1-1h-1-1v1H9h2v1h1l1 2 1 1h3l1-1h1v-1-1s-1 0 0 0l2-1h-1v3l1 1v1s1 0 0 0v1s-1 0 0 0v1l1 1h-1v1s-1 0 0 0h2l2-1h3c0 1 0 0 0 0h1v1h1v1h1l1-1v-1-1h1l1 1h-1v1c-1 0-1 0 0 0l1 1 1-1h1v-1h2v-1h1l-1 1v1c-1 0 0 0 0 0l-2 1v3l-1 1v1h-1v1h-1-1v2h-1-1l-1 1h-1l-1 1-1 1v1h-1-1-1-2l-1 1v1h-1v1h-1l-1 1s0-1 0 0c0 0-1 0 0 0l1 1h1v-1 1l1-1h1v-1h1v-1h1v1h3v-1h1l1-1v1h1v-1h1l1-1h2v-1h1l-1-1h1l1-1h1s0-1 0 0l1-1h2l1-2v-1h1l1-1h1l1-1h1v-1h2v-1l1-1h1v-1h1v-1l-1-1h-2l1-1v-1h1l1-1h1l1-1v-1l1-1 1-1 1-1 1-1 1-1h1l1-1h1v1l1-1h1l1-1v1h-1v1h1v1h-1-2-1v-1l-1 1v1h-1v2l-1 1h-1v2h2v1h-1l-1 1s0-1 0 0h-1l1 1 2-1h1l2-1v-1h3v-1h2l1-1 1-1v-1h-1v-1l1-1 1-1v2h1v-1h4v1h1v1h-1 1l1 1h2l1-1h1s0-1 0 0l-1 1h1l1 1v1l3-1v1h2v-1h3v1l2-1v1l1 1h4l1-1 1 1h-1l-1 1 3 2h2v1h1v1h1l1 1h1l1 1h1l1-1s1 0 0 0v-1-1l1 1v1l2 1v-1-1l1-1v2l1 1c-1 0 0 0 0 0h1l1 1h1l1 1v1c-1 0 0 0 0 0v1h1v2h1l1 1v1h1l1 1 1 1s1 0 0 0v1h-1v1h2v-1h1l1 1v1h-1v1h1l1 1h-1v1s0-1 0 0v1h1v1 1h3l-1 1h-1v1h1l1 1 1 1 1-2 1 1v1c-1 0 0 0 0 0v1l1 1 1 1v1h1v1h2v1s0-1 0 0h-1-1v2h1s1 0 0 0v1 1l1 1h3v1h1v1l3-1h1v1l-1 1h2v1c-1 0 0 0 0 0l1 1h1l1 1h1l1 1v1s0-1 0 0c0-1 0 0 0 0-1 0 0 0 0 0v1h1l1 1h-1v1l-1 1h-1-1l-1-1h-2v3h1l1 1v5s1 0 0 0v4 1c-1 0 0 0 0 0v1l-1 1v1l1 1-1 1v1l-1 1v2l1 2v3l1 1-1 1s1-1 0 0v1s-1 0 0 0v2l1 1v1l1 1v2l1 1 1 1 1 1v1l1-1h3-1-1l-1 1v1l1 2h1v3l1 1h1v1l1 1v1h1v2l1 1s0-1 0 0h1s0-1 0 0h3l1 1h2v1h1v1h1l1 2 1 1v2h1v2l1 1 1 1 1 1v3h1v1l1 1h1v1l1 1h1l1 1v2l-1 1v-1h-1-1v1h1v1l1 1 1 1h2v1h2l1 1 1 1 1 1v1l-1 1 1 1v1h1l1 1 2 1v1h1l1 1v1l1 1h1l1-1v-1h-1v-1-1h-1v-1h-2l-1-1v-1l1-1h-1v-1l-1-1c-1 0-1 0 0 0v-1l-1-1h1l-1-1-1-1v-1h-1v-1l-1-1h-1l-1-2v-1l-1-1v-1-1l-1-1h-1-1v-1h-1l-1-1v-2-1-1c0-1-2-2 0-1h3l1 1 1 1s0-1 0 0v2l1 1v1h1v1l1 1v2h1v1h1v1l1 1h1l1 1h1v2h1l1 1 1 1h1v1l-1 1 1 1h1l1 1 1 1h1v2h1v1h1l1 1h1v1l1 1 1 1 1 1 1 1v1l1 1v1h-1l1 1v3l-1 1 1 1 1 1v1l1 1h2l1 1v1h1v1h2l1 1h3l1 1 1 1h1l1 1h1l1 1h3v1h1l1 1h1a46 46 0 0 0 4 1h2v1l1-1h2l1-1h3l2 1 1 1h1l1 1h1l1 2v1h1a26 26 0 0 1 4 2l1-1 1 1 2 1h2a26 26 0 0 0 2 1h3v2h2v1l1 1v1h1l1 1v1h1l-1 2 1 1v1h1l1 1h1v-1l-1-1 1 1 1 1h1l1 1h1v1 1l1 1h1v-1 1h3l1 1h1v1h1l1 1v1h2v-1l1-1h-1v-1l1-1 1-1v-1h1v1h1l1-1v1h2v1l-1 1v1l2 2 1-2 2-1-1-1-1-1v-1l-1-1h-1l-2-1h-1-2v1l-2 1h-3-1l-2-1h-1l-1-1-1-1-1-1v-1-1l-2-1 1-2v-1-2-2l1-3v-1-1l-1-1-1-1-2-2-1-1h-4l-1 1-2-1h-2-1v1h-3l1-2 1-1v-1-2c0-1-2-1 0-1v-1-1-1s0-1 0 0l1 2v-1-2l1-1v-1-2l1-1 1-1 1-2-2-1h-1l-1 1-3-1h-1c-1 2-2 1-2 1l-2 1s1-1 0 0-1-1-1 2l-1 3v1l-1 1-1 1h-2l-2 1h-3-1l-1 1h-1l-1-1-1-1h-2l-1-1-1-1-1-2-1-1-1-2v-1l-2-2-1-1 1-3v-1-1-1l1-1-1-3 1-2 1-1v-2l-1-2-1-1 1-2h1v-2h1l1-1h1l3-1v-1l1-1 1-1h2l2-1 1 1h6l1 1 1 1h1v-1h1v1l1-1h1l1 1 1-1-1-1v-1h-1v-1h-2 4l1-1 2 1 1-1 1 1 1-1h3l2 1 1 1 1 1h2l1-1h1l1 1h1l1 1 1 1v5l1 2 1 1 1 2-1 1 2 1h1v2h3v-1l1-1v-1-2-1-1l-1-1v-1l-1-1v-1-2-1l-1-1-1-1v-2-1-2-1l1-2 1-1 2-2 2-2h1l1-2h3v-1l2-2h2l1-1-1-1v-1h2l1-1v-1l-1-1 1-1v-2h-1l-1-1c-1 0-2 0-1-1h1v-1l-1-1v-2c1 0 0 2 1 0l1-3v4l1 1v1h1v-1l1-1 1-1-1-1v-1l-1-1 1 1h2l2-3v-1-1l-1-1 1-1 1-1-1 2 2-1 1-1h3l2-1h1l1-1 2-1-1-1v-1l-1-1 1-1 1-2 1-1c1-1-1-1 1-1h3v-2h3l2-1 1-1h1v-1h2l1-1h4v-1h1v1h2v1h-4l-1 1-2 1-1 2v2h4l2-2 1-1 1-1 3-1h2l3-1 1-1h1l-1-1v-1h-2l-1 1-1-1-2 1-1-1h-1l-1-1-2-1v-1l-1-1-1-1v-1l1-1v-1h-3v-1h-1l4-1h1l1-2-1-1-1-1h-2l-1-1-3 1-2 1h-1l-2 1-2 1-1 1-3 2-1 1-2 2v-2l2-1 1-1 1-1 1-1 1-1 1-1 1-1h2l1-1 1-1 2-1 2-1h5l1-1h2l1 1h8l3-1 1-1 3-2 1-1h1l3-1h1l2-1 2-1v-1l-1-1zM474 165h1v-1 1h1v-1h1s1 0 0 0l-1 1v2h1l1-1 1 1s-1 0 0 0l-1 1h1v2l-1 1v2h4v-1h2l-1 1v1l1 1v1h1l-1 1 1 1v1l-1 1h-3v1h-1l1 1 1 1-1 1v1h-2v1h-1v2l1-1h1l1 1h1l1 1h1l1-1h1v-1 2h-1l-1 1h-1v-1h-1v1h-2v1l-1 1-1 1-1 1v1h1v-1l1-1 1 1v-1h1v1h2v-1l1-1h4v-1l1 1h2l1-1 2 1h1l1-1h2l1-1v-1h-1-1v-1h1l1-1 1-1v-1-1h1v-1l-1-1-1-1h-1l-1 1h-2v-1h1v-1-1h-1v-1h-1v-1-1-1h-1v-1h-1l-1-1-1-1v-1l-1-1v-1l-1-1h-1v-1h-3 1v-1h1v-1-1h1v-2h1v-1l1-1v-1l-1-1-1 1s0-1 0 0l-1-1-2 1-1-1v1h-1v-1h-1l1-1h1l1-1v-2h-2l-1 1-1-1h-2v2h-1v2h-1v3l-1 2-1 1v1z"/><path fill="#BCCAE4" d="M462 187l1 1h2l2-1h1l1-1 1-1h3l2-5v-1l-1-1-1-1-1-1h1l1 1 1-1h1l1-1v-1l-2-2-1-1h-2l-1 1-1 1v1l-1 1 1 1h-1l-1-1h-1l-1 1h-1-1-1-1v-1l-1 1v1h1l1 1-1 1v1h2l1 1h-1v2l-1 1h-1l-1 1v1l1 1zM462 128h3l1-1h1l1-1c0-1 0 0 0 0l1-1h3v-1h1v-1h1v-1h1v-1h1v-2s-1 0 0 0v-1h-1l-1-1v1h-1v-1l-1-1v-1h-1v-1l1-1h-1-1v1h-1v-1h-1l-1-1h-1v2h-2-1v1h-1-1-1v1h0v-1l-1-1h-1l-1 1h-1v1l-1-1h-1l-1 1v2-1l-2 1c-1-1 0 0 0 0v2l-1-1v-1l-1-1h-1l1-1v-2l-1-1h-1l-1-1h-2v1l1 1v1l-2-1-1 1h1l-1 1-1 1h-1v2c0 1 0 0 0 0h1l2-1h4c1 0 0 0 0 0v1l-1 1h1c-1 0 0 0 0 0l-1 1h-2-1-1l-1 1h1s0 1 0 0h4v1l1 1 1-1v1c-1 0 0 0 0 0v2h-1-2v1l1 1h1l2-1s0 1 0 0h2l1 1h1v1h1l1 1h4l1-1h1l1-1zM666 82l1 1h3v1l-1 1h1c1 1 1 2 2 1v-2s-2-1 0-1l1 1v1h2v1h-2v1h3l1 2h9l1-1-2-1-2-2v-1l-2-1-1-2v-2-2-1l1-1 1-1 2-2 2-1v-1l2-2 1-2h1v-1-1l1-1v1l1-1v-1h3l1-1h1l1-2h1v-1h2l1-1 2-1h2l6-2h1l2-1h1l3-1h1l1-1h2l1-1 1-1v-2l-1-1h-6l-2 1-1 1-1 1h-2l-1 1h-2l-2 1h-9v2h-1l-1-1-1 1h-4v2h-1l-2 1-1 1v1c-1 0 0-2-2-1l-1 1-1 1h-1-1v3l-1 1s-1 0 0 0v1l-1 1-1 1-1 1-1 1h-1l-1 2 1-1v1l1 1-2 1h-2v1l-1 1-1 1s-1 0 0 0l1 1v1l-1 1v1h-2-1l-1 2v1zM656 95l-1 2-1 2 2 1h1l1-1h2l1-1 1-1c0-1-4-3-6-2z"/><path fill="#BCCAE4" d="M616 253l1-2v-1h10l3-1 3-1h2l1 1h1l3-1 3 1h1v-1l-1-2-1-3v-3c0-2 1-2 1-1l4 2 2 1 1-1-1-1v-1l-2-1 1-1h-1v-2l-1-1v-1l-1-1h4l1 1v-2h-1v-1h2l3 2 3-2-2-3-1-2-1-3-2-3 1-2 1-3 3-1 2-1v-1h-1v-1-1-2l-1-1-1-1-3-1v-1h-1l-1-1v-1l1-2v-2l1-2 1-1h1l2 2 1-1 1-3 3-2 3-3h1-1v-1l-3-1-1-1h-2l-1-1h-1v-1l-1-1v-1l2-2 2-1h1l1 1 2-2-1-1v-1l1 1h2l1-1h2v1h1l2 1 1 1 1-1c0-1 1-3-1-4h1c0-2 2-1 2-2l-1-2h-2s2 0 1-2l-2 1 1-2-1 1-1 1h-2-1-1l-1-1h-1c-1-1-1-2-2-1l-1-2h-1l-3-1-2 1h-2-1-1v-3l2-1v-1h-4v-1c-1-1 3-3 4-4v-1l-1-1-1-2v-2h-2l2-2 1-2 2-1 2 1 1 3v-1l-1 3v1l3 1 1 1c1-2 1-2 3-2l2-1h2l1-2h0v-1l-1-1 1-1 4-1v1h1l5-1 4-2c4 0 9 2 10-2l1-5v-5l1-5 1-2h2l3-3c2-2 3-1 5-2 0-2 5-6 7-6l2-3 1-1v-1h-2-1l1-3-1-1c0-2-1-1-3-2l1-2 1-1-1-1h-1l-1-1h-2-1-1l-5-1h-1l-3-1-1-1-1-1-2-1-1 1v2h1l1 1h1l1 1 1 1s0 1 0 0l1 1v1l1 1v1h-1l-1 1h-1v2h-2v-1-1-1l-1-1h-2v1h-2l-1 1-1 1-2-1h-2l-1 1-3 1h-3-2 1l1-1v-2l2-1h-3l-1 1h-1l-1 1-1 2v-1l-1-1-1 1h-3l-1 1-1 1-2 1c-1 0 0 0 0 0l-5 2h-1v2l-1 1-4 1h-1l-1-2h-1l-2-1 1-1 1-1h4v-1l-2-2-1-1h-3l-1-1-2 1-2-1 1 1h1l1 1v4l-1 1-1 1 1 1h1l1 1-1 2v2l-1 1-1-1-1-1h-1-2-1l-2 2-2 1h-1l-1 1-2 2c0 2 1 1 1 1l2 2-2 1h-2l-2-1h-1-2l-1-1-2-1h-1l-1 1 1 1v1l1 1 2 1 1 1-1 1h-1-2v-1h-2l-1-1h-1l-2-1v-1-2l-1-1v-2l1-1v-1l-1-1h-1l-1-1h-1l-1-1v-1h-1l-1-1-1-1-1-1h2l1 1 1 1h2l1 1h1l2 1 2 1h4l2 1h4l2-1h1l2-1 2-1 1-1v-2-1-1l-1-1-2-1-1-1-1-1h-1l-1-1-3-1-1-1-1-1h-2l-1-1h-1l-1-1-1-1-1 1-2-1h-1-2-1-1v-1l-1 1-1-1h-1v-1h2l-1-1h-2-1-1l-1 1-2-1-1 1h-1l-1-1-1-1 1-1 1 1 1-1 2-1v-1-1h-2l-1-1h-2l-2-1v1l-2 2v-1-1l1-1-1-1h-2l-1 1v2l-1 1h-1v-1-2l-1 1-1 1-2 2h-2l1-1 2-2v-2l-1 1h-2v1l-1 1h-1l-1 1-1 1h-1l-1 1h-2l-1-1h-1v1l1 1h-2-2v1l-2 1h-2l-1-1h-1v2l-1 1h-1l-1-1-1-1-2 1 1 2-1 1h-1v1h-1l-1-1-1 1s-1 0 0 0v-2l-2 1v1l-2 1v2h1c0-1 0 0 0 0h2v-1h2v2h-1l-1-1-1 1-1 1c-1 0-1 0 0 0l-1 1h-1v2l-1 1-1 1-1 1-2 3v1h-2l-1 1 1 1v1h-1v2l-1 1h-1v2h-1v1h-1-1l-1 1-1 2h-1l-1 1-1 1-1 1s0 1 0 0v-1h-1l-1 1v2h-4v2h-1-1l-1 1-1 1-2 1h-1v1l-1 2v1l1 1v2l-1 2 1 1h1l1 1-1 1-1 2v1h3v1l-2 1v1l2 1 1 1 1 1h3l3-1 1-1 1-1h1l1-1 1-1 1-1 1-2v2l2 1v3l1 1 1 1v2l1 2 1 1 1 1v2l-1 2 1 1 1 1v1h4l1-1-1-1 2-1h4v-1l1-1v2l1-2 1-1v-3 1l-1 1v-1-1-1l1-1v-1-2-1-1h3l1-1 1-1h1v-1-1l1-1v-1-1l-1-1-2-1-1-1h-1-1v-1-1-2-1h1v-1-1l1-1h-1v-1l1-1v1l1-1v-1-1c-1-1 0 0 0 0h1l1-1 2-1 1-1h1l1-1h1l1-1 1-1 1-1c1 0 0 0 0 0l1-1-1-1v-1-1l1-1 1-1 1-1h1v-1h4l1 1 1-1h1l1 1 1 1v3l-1-1s0 1 0 0l-1 2-1 1h-1v1l-2 1-1 1-1 1-1 1-1 1h-2v1l-1 1-1 1v2l1 1 1 2v1l-1 5 1 1h3l1 1 1 1 1 1h3v-1h3l1-1h2l1-1h7l1 1 1 1h3l-1 1h-1-1-2l-1 1-1 1h-3l-1-1h-2-1l-1 1h-1-2-2l-1 1-1 1v2l1 1v1h1l1 2v3l-1 1h-1l-2-1-1-1-1-1h-1-1l-1 1-1 1v2h-1v2c1 0 0 0 0 0v2l-1 1 1 1v1l-1 1v1l-1 1h-1l-2 2h-3l-1-2h-1-2-1l-2 1-2 1-1 1h-2-1a5 5 0 0 1-2 1l-1-1-3-2h-2l-1 1-1 1-2 1v-2h-1-1l-2-1 1-1-1-1h-1v-2-1h1v-1l2-1h1v-1l-1-1h-1v-2l1-1v-1-2-1l-2 1-1 2h-1l-1 1h-1l-1 1-1 1-1 1 1 1v4h1l1 1-1 1v2h1v3l-1 1-1 1-1-1h-2-1v1h-2-2l-2 1v2l-1 1-1 1v1l-1 1-1 1-2 1-1 1h-1l-1 1h-1l-2 1v3l-1 1h-1l-2 1v2h-1-2l-2-1h-1l-2-1v1l1 1v1l1 2h-4l-1-1h-1-1-1-1-1l-1 2v1l1 1 2 1c0-1 0 0 0 0h1l1 1h1l1 1h1v2l1 1 1 1 1 1h1v3l-1 1 1 2-1 4-1 1h-2-2-2-2-2-3l-1-1-3 1h-1-1v-1h-2l-1 1-1 1h-2v1 1l1 1v4l1 2v1l-2 5-1 1v3h2v4l-1 2h7c0-1 0 0 0 0h2v2l2 1 1 1 1-1 1-1h4l1-1 1 1 1-1h3l1-2h1l1-1 1-1v-1l1-1h1l1-1v-1l-1-1v-1-1-1l1-3h1l1-1 1-1h1l2-1h1l1-2h2v-1l1-1-1-1v-1-1l1-1 2-1h3l1 1h1l3 1 2-2 1-1 1-1h2v-1h5l1 1 1 1v2l1 1 2 2 2 1 2 2v1l2 1 3 1v1h2l1 1v1l2 1h1l1 2v1l1 2-2 3h1l1-1 1-2 1-1 1-1v-1h-1l-1-1v-1-1h3l1 1h2v-1l-1-1-2-1-1-1-2-1-2-1v-1h1l-1-1h-3-1l-1-1-1-1-1-3-1-2-2-1h-1v-1l-1-1v-1-1-1-1h1l1-1 1-1 1 1v2a17150 17150 0 0 0 2 1l1-1h1v2h1l1 1v2l1 1h1v1h2l1 1 1 1h1l1 1h1l1 1 2 1v1l1 1v1h1v1l-1 2v2l1 1 1 1-1 1h2v1l1 1h1l1 1 1 1h1l-1 1v1l-1 1 2 1v2l1 1h1 1l1 1h1v-1c1 0 0 0 0 0l-1-1v-2 1l3-1h-1l-1-1-2-1h1v-1h1l1 1 2 1v-1l-1-1h2l-1-1-1-1-2-2-1-2-1-2 1-1 1 1 1 1h1v-1l1 1 1-1-1-1v-1c0-1 0 0 0 0h1l1 1 1-1h2l2 1h3l1-1h1l1-1h5l-1-1h-1l-2-1v-1l-1-1-1-1v-2l1-1v-1h2v-2l1-2v-1l1-1c0-1 0 0 0 0h1l1-1 1-1-1-1v-1h2l1-2 1-1 1-1h1l1-1v1l-1 1 1 1c0-1 0 0 0 0h1l2 1 2-1v1h-1l-1 1-1 1h1l1 1 1 1v1h-1l1 1h2l1-1h2l1-1v-1l1 1h3l1-1-1-1h-2-1-1l-1-1-1-1v-1h2l2-2h1l2-1 2-1h3l2-1 1 1-2 1-2 1 1 1v1l-1 1-1 1-1 1h-1v1l1 1 1 1h1l1 1h1l1 1 1 1 1 1 1 1v1h1l1 1h2v1h1v1h1v1l1 1v1h-1v1h-1l-1 1-1 1h-1-1l-1-1-1 1h-4-4l-1-1-1-1h-1l-1-1h-1v-1h-2-2-1-4l-4 3-1 1h-1-2-2l-1 1h-1l-1 1-1 1h-1l-3-1h-2v1h-1l-1 1v2h2v2l1 1v1l-1 1v1h1v1h-1l1 1v1h1l1 1h1l1 1h1l1 1 1 1h4s1 1 1-1v-1h4l1 1v1l1 1h2l1-1h1l1-1h1l1-1c0-1 0 0 0 0h4v4l2-1z"/><path fill="#BCCAE4" d="M521 233c-1 2 2 3 2 5v3l2-1 2-1v-3c0-3 0-3-2-4l-1-1-3 2zM536 246l4 2 3 2h2v-2l1-4-4 1h-4 1c-2-1-3 0-3 1zM669 422v-2-1-1l-1-1v-1l-1-1h-1l-1 1v3l-1 1h-1l-1 1v2l-1 1h-1v1l-1 1h-1l-1 1v1h-3-2v1h-1l-1 1-1 2v7l1 1v1s0-1 0 0v2l-1 1v1h-1v1l-1 1v1l-1 1 1 1-1 1v1l2 2v1l-1 2 1 1v1l1 1h1l1 1h1v1h2l1-1h2v-1h2v-1l1-1v-1l1-1v-2-1l1-1v-1-1l1-1v-2-1l1-1v-1l1-1v-1l1-1v-2-1l1-1v-2-1-2l1-1 1-2-1-1v-1-1l1 1 1 1 1-1v-1a46 46 0 0 0-2-4z"/><path fill="#BCCAE4" d="M673 334h-1l-1 1-1 1h-4v1h-1-2-3v1h-2-1-3l-1 1h-1-1l-2-1-1-1v-1h-1v-1h-2 1l1-1 1-1-1-1h-1l-1-1-1-1v-1l-1-1-2-2-1-1h-1l-1-1h-1l-1-1-1-1-1-1v-1l-2-4v-2l-1-1h-1l-1-2-1-1h-1v-2l-1-1v-2l1-2-1-2-1-1v-1l-1-1-1-1-1-1h-1v-1-1-1-1l-1-1v-1l-1-1-1-1v-1l-2-4v-1h-1v-1l-1-1v-1-1l-1-1v-1l-1-1-1-1v-2 1l1 1h1v1l1 2 1 1 1 1h1v-2l1-1v-2-4l-1-3-1-1h-1l-3 1-1-1h-1l-1-1h-1-4v1l-2 1-1 1h-1l-1-1h-2l-1-1h-1l-3-1h-3-1-1l-1-1v-1h-4-2l-1-1-1-1h-1l-1-1h-1-2v1h-2l-1 1-1 1-1 1 1 1v3l-2 1h-1l-1 1-1-1-1-1-1-1h-2l-3-1h-2-1v-1l-1-2v-1h-1-1l-2-2h-2-4-1l-1-1h-1l-1-1-1-1h-1-1l-1-1 1-1 1-1 1-1 1-1v-1l-1-2-1-1v-1l1-1 1-1-1-1-2 2v-1-1l-1-1h-1l-1 1-3 1h-1-1-1v-1l-1 1h-1-1l-1-1-1 1h-1l-2 1-1-1h-3-1-2l-1 1h-2-3l-2 1-1 1-2 1v-1l-3 1v1l-1 1h-1l-1 1h-2v-1h-2-1-1l-2 1-1-1h-1l-2-1v-1h-1-1v2l-1 2-1 1v1l-1 1-1 1h-2l-1 1h-1l-1 1-1 1-1 2-1 1v1l-1 4 1 1v1l-1 1v1l-1 1-1 1h-1v1h-1v1l-1 1h-2l-3 2-1 1-1 2-2 1-1 1-1 1v3l-1 1-1 1-1 1-1 1v1l-1 1v1l-1 3-1 1-1 1v2h-1l1 2v-1l2 2 1 2-1 1v2h1v5l-1 2v2l-1 2v1l-2 1v1l1 1v1l1 1v2c1-1 0 0 0 0v1 3h1v1h3l1 1v2l1 1 1 1 1 1a20 20 0 0 0 4 4v1l1 2v2h2l1 1 1 1v1h1l2 1 2 2 1 1h1l1 1 1 1 1 1h1l2 1h1l3-2h1l1-1h12l1 2h1l1-1 2-1 1-1h3a5 5 0 0 0 1-1l1-1h2l1-1h1l3-1v1h2l3-1 1 2h1l1 2v1l1 2h8l2-1v2l1 1 1-1 1 1 1 2v4h-1v5l-1 2v4l1 2 1 2 3 4 2 2 3 3v4l1 2 2 2 1 2v2l-1 1 1 3 1 3v2l1 1-1 2v1l-2 1-1 1v1l-1 2-1 2v2l-1 2v5 5l1 1 1 1 1 1 1 2v1l1 3 1 1 1 1 1 1 1 2v2l-1 3 1 1v1l1 1v6l1 2 1 1 2 4 1 1 1 2 1 1 1 1v3l1 2 1 1 1 1 1 1v3h-1l-1 1 1 1 1 2v1c0 1 0 1 0 0l1 1h1v1h2l2 1 1-1h3l1-1h2l1-1h5l1 1h2v-1h3l1-1h3l1-1h1l1-2 1-1h1v-1l1-1 1-1 1-1 2-1c1-1 0 0 0 0l1-1 1-1v-1l1-1 1-1v-1l1-1 1-1 1-1 1-2 1-1v-1l1-1v-1-1-1l1-1-1-1h-1v-1l1-1v-1h1l1-1h2l1-1h1l1-1h1v-1l1-2v-1-1-1-1-1-1h-1v-1-1-1-1l-1-1h-1v-1-1-1l1 1v-1l1-1h1v-1l2-1a4 4 0 0 0 1-1l1-1 1-1 1-1h1v-1h1l2-1h1l2-1 3-3v-1h1v-3-1-1-1-2-1-1-1l-1-2 1-1v-1-2l-1-1v-1l-1-1-1-1v-1l-1-1-1-1v-1l1-1v-2-1-1l-1-1-1-1v-1-1-1h1v-1l1-1v-1l1-1v-1l1-2v-1l1-1 1-1 1-1h1l1-1 1-1v-1l1-1 2-2 1-1 1-1v-1l2-1 1-1 1-1h1l1-1h1l2-2 1-1h1v-1l1-1 3-3 1-2 1-1 1-2 1-1v-1l1-1 1-1v-1l1-1 1-1v-1l1-1v-1l1-1v-1l1-1v-1-1l1-1v-2-2l-1-1zM858 69h-3l-1 1h-1v1h2v1h2l1-1 1-1-1-1zM947 183l1 2 1 1v3h-1l1 1v1s0-2 0 0v3l-1 2v2l1 1v1l-1 1v2c0 1 0 0 0 0v2l-1 1 1 1v1l1-1v-1h3v1l1 1v-1-1-1h-1v-1h-1v-1l-1-1 1-2v-1-1-2c1 0 0 0 0 0l1-1h3v1h1l-1-1v-1l-1-1v-2l-1-1v-1l1-1-1-1-1-2v-1-1-1-1l1-1-1-2v-1-1l-1-2s1 1 0 0l-1-1-1 1 1 1v1l-1 1h-1v4l-1 1v1z"/><path fill="#BCCAE4" d="M1100 117h-1l-2-1-1-1v-1l-1-1h-1l-1-1h-2l-1 1-1-1h-1-2c-1 0 0 0 0 0v2l1 1v1l-1-1h-1c0 1 0 0 0 0l-1-1v-1-1-1c0-1 0 0 0 0l-1-1v-1l-2-1-1-1h-1l-2-1h-1c0-1 0 0 0 0l-1-1h-1l-2-2h-1l-1-1h-2l-4-3h-1-1l-1-1h-1-1-1l-1-1h-3l-2-1h-2l-1 1h-2-1l-1-1h-1-1-2l-3-1v2l-1 1h1l1 1v1l1 1-1 1h-1-1-1l-1 1v-1l-1-1-1-1h-1-1v-1-1l-1-1h-1v1h-2-1-7l-1-1h-1v1h-1l-1-1-2 1h-1-1-1v1l-1 1 1 1v1h-1v-1-1-1h-1v-1h-1l-1-1h-1-1v-1h1v-2-1l-1-1-1-1h-1l-1-1h-1-1-3-2c0-1 0 0 0 0h-1l-1-1-1 1h-2l-1 1-2-1v1h-4-2v-1-1l-1-1h-2l-1-1v1h-2v-1h-3v-1l2 1c1-1 0-1-1-1l1-1v-1l-1-1-4-1h-1-1-1l-1 1-1-1h-1l-1-1h-1-2-1-2l-3-1h-2-1-1-1l-1-1h-1v3h-5v2l1-1h1v1h-1v2l1 1h-2-1v-1l-2 1h-2 1v2h-1-1-1l-1-1-1-1-1-1-1 1h-2l-1 1h-4l-1-1-1-1-1-1v1l-2 2v1l-1 1-1 1h-1-1l-1-1h-1l-1-2-2-2h-1l-1-1v-1h2l1-1v-1h-1l-1-1 1-1-1-1h-1 1v-2h-1l-1-1v-1h-4l-1 1v-1h-1-2-1l-1-1h-1l-1-1v1h-2l-1 1v4h-1-1l-1-1h-3l-1 1-1-1h-1l-1-1-1 1h-2v-1h-2v-1-1h-5l-1-1h-4-1l-1 1h-2l-1 1v1l-1-1h-1l1-1-1-1v-1l-2 1h-1-1l-1-1h-1-1l-1-1-1 1h-1l-1 1h2v1h-3l-1 1h-2l-1 1h-1-2-1l-2 1-1 1h-1l-1 1v-1h1l1-1 1-1 1-1h1l1-1h1l2-1 1-1 1-1h2l1-1 1-1h1l1-1h1l1-1h1l2-1 1-1h2l1-2v-1l-1-1-1-1c-1 0 0 0 0 0l1 1h1l1-2h-1v-1l-1-1v1h-1c-1 0 0 0 0 0l-1-1v-1l-1-1h-1l-1-1h-1-1-4-6v1h-4l1-1 1-1v-1h-2-2v-1h-2l-2 1 1-1h1l2-1v-1l-1-1h-2-1l-1-1h-1-1-1l-1 1h-1l-1 1-2 1-2 2v1 2h-4-1l-1 1c-1 0 0 0 0 0v1h1l1 1h-2l-1-1h-1l-1 1h-1l-1 1h-2c0 1 0 1 0 0h-2l-2 1 1-1v-1h-2-2-1l-1 1-3-1-1 1v1h-2l-1 1h-1l-1-1-1 1h-2l-1 1h-2l-2 1-1 1h-1l-1 1-1 1h-1v1h-1v1h1v1h-2v1h1v1h1v1h-1-2l-2 1-1-1-1 1h-5l-1 1h-4l-2-1-1 1-1 1v1l2 1-1 1v1l1 2h1l2 1h1l1 1v1l-1 1h-2-1l-1-1-1-1h-1l-1-1h-2l-1-1h-1-1l-1-1h-3l-1 1v1h1l1 1h2v1l-1 1-1-1-1-1h-2l-1 1c-1 0 0 0 0 0v1l1 1 1 1 2 1h2l1 1v1l-1-1h-1v-1h-1-3-1-1l-2-1 1-1-1-1v-1l1-1v-2-2l-2-1v5h-1l-2 1h-1v1l-1 1-1 1v1h1l2 2 1 1v1l-1 1-1 1v4l1 2h4v-1h3l1 1h1l1 1 1 1 1 1 1 1v1h-2v2h1l1 1h2v1h-2l-2-1-1-1v-1-1-1-1l-2-1v-1h-2-2-1l-1 1-1 2h1v3l-1 1-1 1v1l-1 2-2 1h-1l-1 1v1h-2-1-1-1-1-1l-1-1h-2v-2h2l1 1h1l2-1h2l1-1v-1l1-1 1-1h1v-2l1-1v-1l1-1-1-1-2-1-1-1 1-2v-2-1l-1-1v-1h1v-1-2l-1-2h-1v-1l-1-1h1l1-1v-1l1-1v-1-1-1-1h-2l-1-1h-3-2-3l-1 1v2l-1 1v2h-1l-1 1-1 1-1 1h-1l-1 1v1l-1 1 2 1h1v2l-1 1v4l1-1 1 1h1v1l1 1 1 1 1 1v1l-1 1h-1-1l-1-1-4-3h-1-2l-1-1h-1v1l-1 2 3 1v4l2 1c0-1 0 0 0 0l-1 1-2 3c-2 0-7 3-7 5l-4 2-3 3h-2l-1 2v4l-1 5v5c-2 3-7 1-10 2l-4 2h-4-1-1c-1-1-3 0-4 1v1h1v1h0l-1 2h-4c-2 1-2 1-2 3h-1v-1h-1l-2-1v-1-2-2l-2-1h-2l-1 2-2 2h2v2l1 2 1 1-1 1c0 1-4 2-3 4h3l1 1-2 1v3h2l2-1h4l1 1h1v1l2 2h2v1a2 2 0 0 0 2 0h1l1-1 1-1v1h1c2 2 0 1-1 2h1l2-1v2l-1 2h-1c2 1 0 3 0 4v1l-1-1h-1a4 4 0 0 1-1-1h-1v-1h-2l-1 1h-2v-1h-1l1 1v1l-2 2-1-1h-1l-2 1-1 1v2h1v2h1l1 1 1-1v1h1l3 2h1l-3 3-4 2v3h-1l-2-2h-2v2l-1 2v1l-1 2v1l1 1h1v1l3 1 1 1v1l1 2h-1v1h1l1 1 4-2 2-1 2 1c2 0 4-2 5 1 0 1-2 4 0 5l-5-1c-3 1-1 3-1 4l-2-1c-1 0-2 1-1 2l2 1 1 3 2 1 3 2-2 1 1 1v1c2 1 0 5 1 7h1c-1 2 1 2 1 3 2 1 1 1 1 3v4l-3 1-3 1-3-1-1-1h-2c0-2-1-2-2-2l-2-2v-1l1-2 1-1v-2l1-3-3-3-1-2-2 2-3-1-1-1h-1v1h1v2l-1-1a7 7 0 0 0-1 0h-2-1l1 1v1h1v2l1 1v1h1v1l1 2h-3l-3-3-2 1 1 3v3l1 2v1l-1-1h-2-7l-3 1-2 1h-10v1l-1 2h-2v6h-1v2l-1 1v1h-1v3l-1 1v1l-1 1 1 1 1 3v5l-1 1v1h1l1 1 1 1 1 1v1l1 1 1 1 1 1 1 3h1v3h1l1 1 1 1 1 1 1 1v4l1 1-1 1 1 1v1h1v1h1l1 1 1 1v1h1l1 3 1 1v1l1 1 1 1 1 1v1c1 0 0 0 0 0v1l1 1v4l1 4v1l1 1v1h5l1-1h1l1-1h1l2-1s0 1 0 0h2l1-1h2l1-1h1v-1h2l1-1h3l1-1h1l1-1 1-1v-1l1-1 1-1h3l1-1h2l1-1 1-2h3v-1l1-1 1-1h2v-3-1l1-1h1v-1l1-1 1-1 1-1 1-1 1-2h-1l-1-1-1-1-1-1-1-1h-2l-1-1h-1l-1-1-1-1v-3-1-2l-1 1-1 1-1 1-1 1v1h-1l-2 1-2 1-1 1-1-1h-1l-1 1h-1v-1l-1 1v-1l-1-1v-1l1-1v-2l-1-1-1 1-1 1v1h-1v-1l-1-1v-1l1-1-1-1h-1v-1l-2-1v-1l-1-1-1-1v-1l-1-2v-2-1h1l1-1h4v1l1 1 1 1 1 1v2l1 1v1h1l1 1v1l1-1 1 1h1l1 1 1 1h2v1l1-1h4v-1h3l1 1v2l1 1h3l1 1h3l3 1h1l1 1h1l1-1h12l2-1v1h1v1h1v1l1 1 1 1v1h2v1h1v1l1 1h3l1 1h-1-1l-1 1h-1l1 1 1 1h1v1l1 1h1l1 1h1l1-1 2-1v-1-1l1-1c1 0 1 0 0 0l1 1v1 7l1 2v6l1 1v3l1 1 1 2 1 2v1l1 2v1l1 2 1 1 1 1 1 3v1l1 1v3h1v2l1 1h1v1h2l1-1v-1l1-1c0-1 0 0 0 0l1-1h1l-1-1 1-1 1-1 1-1v-1-1-1-1l1-2v-1l1-1v-2l-1-1v-2-1-2l2-1h1v-1l1-1h3v-1-1h1l1-1 1-1 1-1h1l1-1 1-1 1-1 1-1 1-2h3v-1l1-1 1-1v-2c-1 0 0 0 0 0h1l2-1h4l1-1 1-1v1h2l1-1s0 1 0 0h1l1-1h1v4l1 1v-1h1l-1 1v1h1l1 1v1h1l1 1v1h1v1l-1 1 1 1v-1h1l1 3v6h2l1 1h1l1-1h1v-2l1-1h1s1 0 0 0l1 2h1v3l1 1v2 1l1 2v1l1 1v3 1h1v3l-1 1a5 5 0 0 0 1 0v1l-1 1v1l-1 1v3h1l1 1 1 1v1l1 1h1v2h-1 2v1l1 1-1 1 1 1v3l1 1 1 2 1 1 1 1 1 1 2 2 1 1h2l1 1 1-1v-1l-1-1v-1l-1-1-1-2v-1-2-2-1l-1-1-1-1-1-1h-1v-1l-1-1h-1-1v-1h-1l-1-1v-1l-1-1v-1-1l-1-1v-1h-1l-1-1v-1-2l2-4v-1l1-1v-2-1l1-1h1v3h3l1 1h1l1 1v1h1l1 2v1h1l1 1v1h1c0-1 0 0 0 0h2v3 2l1-1h1l2-1c0-1 0 0 0 0l1-1c1 0 0 0 0 0l-1-1v-1l1-1 1-1v1h3l1-1 2-1 1-2v-1l1-1v-1-1l-1-1v-1-2-2l-1-1-1-2-3-3-1-1-1-1-1-1v-1l-1-1-1-1-1-1 1-1v-2l1-1 1-1v-1l1-1h2v-1l1-1h1l1-1 1 1 1 1 1-1h1v3l2 1h1l-1-1v-1l1-1h2l1-1h3l1-1h3v-2h4l1-1h2l2-1 1-1 1-1 1-1h1v-1-1h1l1-1h1l1-1 1-1c1 0 0 0 0 0v-1-1h1v-2h1v-1l1-1h1v-1-1l2-1v-1l1-2v-1l1-2h-1-1v-1h-1l-1-1h1l1-1h1v-1l-1-2h1v-1l-1-1-1-1-1-2-1-1v-1l-1-2-1-2h-1l-1-1h1l1-1v-2l2-1 1-1h1l2-1h1l1-1v-1h-1l-1-1-1 1-1-1-1-1h-1-1l-2 2h-1-1v-2-1h-2v-1h-1l-1-1 1-2h3l1-1 1-1v-1h2v-1l1-1 2-1h3v2l-1 1-1 1v1h1l-1 1-1 1h1l1-1 2-1 2-1h1l2-1 1 1h3v3l-1 1v2l2 1h3v1l1 1v1h-2l1 2c-1 0 0 0 0 0v4l-2 2v2h1l1-2v2l2-1h2l1-2 1 1h1l1-1 1-1h2-1v-1l-1-1v-1-4l-1-1v-1l-2-1v-1-1h-1l-1-1-1-2 1-1v-1l2-1 2-1 1-1 1-3 1-2 2-1a8 8 0 0 1 1-1l1-1 2-2v1h1l1 1 2 1 2-1 1-1 2-1 2-2 1-2 3-2 1-1 3-3v-1l1-2 1-2 1-1 1-1 2-2 1-1 1-3v-1-1-2-2-2a95 95 0 0 0 3-5l-1-2v-1l1-1-1-1-1-1-2-1-1-2h-3l-1 1v1l-1 1h-1l-1 1v-1-1h-1v-2h1v-1l-1 1v1l-1 1h-1v-2-1c1 0 0 0 0 0h-1-1-1l-1-1h-1l1-1 1-1h1l1-1 1-1 1-1h1l1-1 1-1 1-1 1-2 2-1 1-1 2-1 1-1v-1l1-1h1l1-1 1-1 2-1 1-1h7l1-1 2 1h1l1-1 1 1h1l2-1v1h2l2-1 1-1h3l1 1 1-1 1 1 2 1h-1-1l-1 1 1 1h2l1-1 1 1 1-1h1l1-1 1 1 1-1h3v-1h-1-2v-1-1l1-1 1-1 1-1 1-1 1-1 3-2 1-1 1-1h4l1-1v1h2l1 1v-1h1v1l-1 1v1 1h1l-1 1h2l2-1v-1h2l1-1v-1h2v-1-1l2-2 1-1 2-1 1 1 1 1-1-1-1 1h-1v2l-1 1v3l-1 1-1 1h-1l-1 1h-1l-1 1-1 1-1 1v1h-1l-1 1-1 1-3 3-1 1-1 1h-1-1l-1 1-2 1h-1l1 1-1 1v1l-1 1-1 1-1 1v1l-1 2v4l1 2 1 3-1 3 1 2 1 2v4l1 1 1-1 1-1 2-1 1-2v-2l1-1 1-1 1-1h2v-1-2l1-1 1-1 1-1h2l2-1-1-1v-2-1l1-2 1-1v1l1 1 2-1v-1l-1-1-1-1v-1-1l1-1v-1l-2-1v1l-1-1-1-1 1-2 2-1 1-2 2-3h4l2-2 1-1 1 2-1 2 1-1 2-1 1-1 2-1h4l3 3h1v-2l1-1h1l2-2h1l1-1 2-2 2-1h2l2-1 2-1h2l2-2 1-1 2 1 3 1h1l1-2v-1-1l-2-1-1-1 1-1v-2l-1-1h-1-1-1l-1-1v-1l-1 1-2-1h2v-1l1 1 3 1h2l3-2 2-1 1-2-1-1v-2l2-1h2l-1 2 1 2h6l1 1 1 1 1 2h1l2 1h1l2 1v-1l1 2 1-1h1l1-1h-1v-1h1c1 0 0 0 0 0l-1-1h1l1-1-1-1v-1l1 1 1-1h3l1-1c0-1 0 0 0 0v-1h1l2-1h-1z"/><path fill="#BCCAE4" d="M836 382v-1-3l-1-1 1-1v-1l-1-1-1-1h-1l-1-1-1-1v-1-1l-1-1h-1s-1 0 0 0v-1h-1v-1l1-1-1-1s1 0 0 0h-1-1v-1l-1-1h-1v-1-1h-1l-1-1-1 1v-1l-1-1v1l-1-1-1-1-1-1s1 1 0 0l-2-2h-1l-1-1-1-1v-1l-1-1h-1v-1-1 1l-1-1h-2-3l-1-1h-1v2l1 2h1l2 2v1s-1 1 0 0l3 1v1l1 2 2 1 1 1 1 1v1l1 2 1 1 1 1 1 2v1l2 3 1 2 1 1 1 1 1 1c1 0 0-2 1 0l1 3 3 2 1 1 1 1 1-1h1l1 1h1l1-2zM850 359h-1s0-1 0 0h-2v-1l-1 1v1l-1 2v1l1 1v1l1 2 1 2v1l1 1v2h5v1h3c0 1 0 0 0 0l1-1 2 1v1l1-1h1v2l1 1h1l1-1h1v-1h1v-1l1-1v-1-1-1-1h1l2-3v-1-1-1l1-1h1c1-1 0-2 1-1h2l-1-1h-1l-1-1v-1-1-1h-1v-1l-1-1v-1-1l1 1v-1-1h2v-1-1-1h2l1-1h-1l-1-1h-1l-1-1-1-1-1-1-1-1h-1l-1 1v1h-1v1l-1 1h-1v4h-1l-1 1h-1l-1-1s0-1 0 0h-1v1l-1 1-1 1-1 1-1 1h-3v1h-1v2l-1 1h-1zM861 392l1-1v-1l-1-1h-1-1-2v-1-1h3l1-1h-1l-1 1-1-1h-1l-1 1h-1l-1-1h-1l-1-1h-1-1v1h-1l-1 1-1-1s1 0 0 0h-3l-1-1-1-1h-2l-1-1-1 1h-2l-1 1-1 1 2 1h1v1l1 1 1-1h1l1 1h6l1 1h1l1 1h8l2 1h1zM863 390v2h1l1 1v-1l1-1-2-1h-1zM869 391h-1l-1 1v1h2v-2zM881 292l1 2h1v-2h1l1-2v-1-1-1c1-1 1 1 1-1v-2l-1-1h-1l-1 1v1l-1 1-1 1v1l-1 1v1l1 2zM758 336l-1-1-3-2v2l-1 1 1 1v8l4 1 2-2v-2-2l-2-4zM836 370l-1-1h-2v1l1 1 1 1 1 1 1 1v-2l-1-1v-1zM843 373v-1h-2v2h1l1-1zM913 253l-1 1-1 1h-1v2h1v1h1v-1l1-1v3l-1 1v3h1v-1l1-1v2h1l1-1v-1l1-1v-1-2l1-1-1-1v-1h-1-1l-1-1h-1zM929 247h-1v-1l-1 1v-1h-1-1v1h-1-1-2-1v1h-1l-1 1h-1v1h-1l-1 1h-1v1h1v1h2c0-1 0 0 0 0h1c1 0 0 0 0 0v-1-1h6l1-1h3v2c-1 0-1 0 0 0v1l1 1h1v-1l1-1h1v-1h1l-1-1v-1l1 1h2l1 1 1-1 1-1v1h2v-1-1h2v1h2v-1-1h1v-1c1 0 0 0 0 0v-1-1l-1-1h1v-1l1-1v-1-1-1-1h1v-1-1h1v-1h1l-1-1h1v-1-1-1h-1v-2h-1v-1c-1 0 0 0 0 0v-1-1h-1v1h-1c0 1 0 1 0 0h-1-1 1l-1 1v1h-1v1l1 1h-1v1l1 1v1h-1v2l-1 1c0-1 0 0 0 0l-1 1v1h-1v2h-1v1h-1-2v1h-1-1v-1h-1v3h-1v1h-1v1l-1 1z"/><path fill="#BCCAE4" d="M919 256v1h2v-1l1-1v-1h1l1 1 1-1h1v-2l-1-1h-2v1h-1-1-1v1h-1v1l-1 1h1v1zM943 220l-1 1v1l1 1v2h1v-1 0h2v-1h-1c0-1 0 0 0 0l-1-1v-1h1v1h1v-1h3v1h2l1 1h1v-1l1-1v-1h1l1-1 1 1 1-1h1v-1c1 0 0 0 0 0l1-1h-1v-1-1-1l-1 2h-1l-1-1h-1c0-1 0 0 0 0l-1-1h-1l-1-1-2-2-1-1h-1v6h-1v3h-1l-1-1h-1v2h-1zM878 367v1l-1 1v3s-1 0 0 0v1l-1 1v1l1 1h1v2l1 1-1 1-1 1 1 1 1 1 1-1 1-2v-2-1-2l1-2 1 1-1 1v1h1l1 2s1 0 0 0l1 1h3l1-2-2-2v-1l-1-1-1-1v-1l1-1h1l1-1 1-1 1-1-1-1-1 1h-2l-1 1h-1l-2 1-1-1-1-1v-1-1l1-1v-1l2 1 2-1s-1 0 0 0h4l2 1h1l1-1h1l2-1v-1-1l-1-1-1 1-1 1-1 1h-1-1-1-1-1l-1-1h-2-1-1v1h-1l-1 1-1 1v1l-1 2zM871 391h-1v2l1 1h1l1-1v-1l-1-1h-1zM874 391v1l1 1h2v-1-1h-2l-3-1 2 1zM885 393l2-1v-1l-1 1h-1l-1-1h-1-1-1-1l-1 1 1 1h5zM891 391h4l1-1h-1-1-1v1h-1l-1-1-1 1h1zM889 390l-1 1-1 1h1l1-1h1v-1h-1zM895 393zM891 398h1l2-1h1l1-1 1-1v-1l-1-1h-1l-1 1h-1l-2 1v3z"/><path fill="#BCCAE4" d="M897 394l3-1 1-1h1l1-1h-1-3l-2 1h-1-1v1h1l1 1zM878 396h2l1 1h2v-1l-1-1-2-1h-2-1v1l1 1zM898 370h-1-1l-1-1-1 1 1 1 3-1 1 1v0l1-1h-2zM892 369v-1l-1-1h-1l-1 1 1 1h2zM876 333c-1 1 1 0 0 0z"/><path fill="#BCCAE4" d="M878 328l-1 1v2l-2 1v1l-1 1-1 1-1 1v1l-1 1 1-1h1l1-1 1-1 1-1v-1l1-1 1-1v-1-1-1zM879 314l1 1v3h3s-1 0 0 0h1l-1 1h-1v1h1l1 1h1v-1h1v-1h-1v-1-1h-1v-2h1v-1h1l1-1v-1l1-1v-1h-1v-1-1-1-1h-2l-1-1h-1l-1 1v1l-1 1v5h-2v1zM884 322l-2-1h-1l-1-1v1h1v1h1v1l1 1v1h1l1-1v-1-1h-1z"/><path fill="#BCCAE4" d="M888 319h-1-1v1h1l1 1v1h1l-1-2h0v-1z"/><path fill="#BCCAE4" d="M892 321l-1-1s0 1 0 0h-1v1h-1v-1-1h-1-1v1h1l1 1s-1 0 0 0l1 1v1l1 1s-1-1 0 0l1 1h1v-1-1h-1l-1-1h1v-1zM893 321s1 0 0 0z"/><path fill="#BCCAE4" d="M893 320l-1 1v1h2v-1-1h-1zM887 326l1-1-1-1h-1v3l1 1v1h-1v2h1v-1h1v0l1-1 1-1-1-1h-1c-1 0-2 0-1-1zM891 334l1-1 1-1c0-1 0 0 0 0v-1-1-1l-1 1v2h-1c0 1 0 0 0 0v-1-1h-1l-1 1v2h-1v1l1 1h1v-1-1h1v1c0 1 0 0 0 0z"/><path fill="#BCCAE4" d="M893 335h1v-1h1v-2h-1l-1 1h-1v2h1z"/><path fill="#BCCAE4" d="M897 326l-1-1-1-1h-1-1v1l1 1v1l-1 1v2h1l1 1-1 1 1 1 1-1v-1l-1-2h2v-1-2zM886 321v1h1v-1h-1zM889 327h1v-1h1v1l1-1v-1h-1l-1-1-1-1 1 1v2l-1 1zM898 334l-1 1v1h-1l-1 1v1h-1s0-1 0 0h-1v1h-1v-1h-2v1h-1l-2 1v1l-1 1v3h1v-1h-1l1-1v-1-1h3s0-1 0 0h1c0 1 0 1 0 0v-1h1l1 1v4s-1 0 0 0l1 1 1 1v-1l1 1v-1l1 1v1l1-1v-1-1l-1-1 1-1c0 1 0 0 0 0l1-1v3l1-2 1-1v-1l-1-1v-1-1-1-1l-1-1v-1h-1zM896 347zM897 332v1l1-1-1-1v1zM899 334h1v-1h-1v1zM884 345h-1l1 1h1v-1h-1zM885 346h1l-1-1v1zM901 350v2l1-1v-1h-1zM898 390h3l1-2h-3l-1 2zM1010 475l-1-1v-1-1h-1v-1-1-1-1-2-1-1-1c1 0 1 1 1-1v-2l-1 2h-1-1l-1-1v-2l-2-1v-1l-2-1-1-1-1-1v-1-1-1h-1-1v-1h-1l-1 1-1-1v-2-1l-1-1v-1l-1-1h-1v-1l1-1h-3l1-1-2-1h-1v-1l-1-1h-2l-1-1-1-2-1-1v-2-1-1l-1-1-1-1-1-1v-2-1-2-1l-1-1-1-1h-1-2l-1-1v-1l-1-1v-2-1-1l-1-1v-1-1l-1-1h-1v-1-1-1h-1l-1 1v3l-1 1v1l-1 1h1v1l-1 1v9s0-1 0 0v1s0-1 0 0v1l-1 1v3l-1 1h-1l-1 2s0-1 0 0h-3v-1h-1-1l-1-1s1 0 0 0v-1h-1-1v-1h-1-1l-1-1-1-1-1-1h-1-1-1v-1-1h-1l-2-1v-2l1-1 1-1v-1h1l-2-1 1-1h2v-1l1-1v-1l-1-1v-1l-1 1s1 0 0 0h-2v-2l-1 1v1h-1l-1-1h-2v1l-2-1-1-1h-1-1v-1l-1-1-1 1v-1l-1-1h-1l-1 1v1h2l1 1v1l-1 1h-1-1v1l-2-1h-1l-1 1-1 1h-1v2l-1 1-1 1-1 1v3l1 1h-2l-1-1-2 1-1 1v-1l-1-2-2-1s1 0 0 0l-2-2-1 1-2 1-1 1h-2l-1 2v1l-2 1v3h-1l-2-1v2l1 1-1 2-1 1v-3l-2-1-1 1-2 2v1l1 1-1 1v1l-1 1v1l-1 1-1 1-1 1-2 1h-2l-1 1h-1-2l-1 1h-2v1h-2-4v1l-2 1-2 1-1 1h-1l-1 1-1 1v1h-1s-1 0 0 0v-1-1h-1v2l-1 1v4l-1 1v4h1l1 3h1l-1 1 1 1-1 1v-1l-1-1h-1l1 1 1 1-1 1v-1h-1l-1-1v-1l-1-1 1 2v1l1 1h1l1 2 1 1v4l1 1v1l2 1v7l2 2 1 1v2s0-1 0 0v3l-1 1 1 1-1 1v1h-1l-1 1v1l1 1h2l1 1v1l1 1h9v-1l1-1h1l2-1 1-1 2-1 1 1 2-1h9l1-1 1-1v-1l2-1 2-1h1l1-1 1-1h8v-1h1l1-1h6l2-1h3l1 1 1 1 1 1h1l1-1h1l1 1h2l1 1v1s1 0 0 0v1l1 1 1 1 1 1v1h1v3l1 1 1 1h1v-1-1l1-1h1l1-1v-1h1v-1h1l1-1v-1l1-1s-1 0 0 0v3l-1 1v4l-1 1h-1v1l1-1h2v-1l1-1s2 0 1 1h1l-1 1v2h3l1 1-1 1 1 1h1v3l1 2v1l1 1 1 1h2l1 1 1 1h5v1h1l1 1v-1l1 1 1-1 1-1 1-1v1l1-1v-1h1v2l1-1 1 1h-1l1 1h2v1h1v1l1-1v-1h2l1-2h1l1-1 1-1h6l1-1 1-2v-1l-1-1 1-1v-1-1l1-1v-1l1-2 1-1v-1-1-1h1v-2h1v-1-1h1l1-1 1-1v-1l1-1v-1l1-1v-1-1l1-1v-1-1-1-1-1l1-1v-1l1-1v-1-1-1zM989 529h-2l-3 1h-4l-2-1-2-1v1l-1 1 1 2 1 3 1 1v2l1 2 2 1 1 1h1l1-1h1v-2h2l1 1v-2-2l1-1v-2-3-1zM989 525l-2-1 1 1 1 2 1-1-1-1z"/><path fill="#BCCAE4" d="M948 506l-2 1-1 1h3l2-1v-1h-2zM973 524l-1 1 1 1 1-1-1-1zM979 383l-2-2-2-2-2-1h-2l-2-1-2-1-3-1-1-1h-1v-1h-1-1v-1h-2l-2-1-2-1h-2l-2-1h-1l-1 1h-1v1h-1l-1 1h-1l-2 2-1 1v1h-3v-1l-1-1-1-1v-1l-1-1v-1h1v-1-2h-2-1l-2-2h-3l-1 1h-1l-1 1h-2-1v1h1l1 1h2l1 1v1l1 1h7l-1 1h-2-1l-1 1h-1l-1-1v2h1v1h1v2l1 1h2v-1-1-1l1-1v3h2v1l2-1v2h2v1h3l2 1h1l1 1h1l2 1v1l1 1 1 1v1l1 1 1 1h-1v1h-2l-1 1-1 1v2h5v-1h1l1 1 1-1h1v1l1 1 2 1v1h1v1h8l1-1-1-1h-1l-2-1-1-1 2 1h3v-1s-1 0 0 0h2v-1h1v-1h2l1 1h3l2 2v1l1 1 1 1v1h1v1h1l1 1h1l1 1 1-1 1 1h4l1 1 1 1h1v-1h1v-1h-1l-1-1h-1l-1-1h-1l-1-1v-1l-1-1h-1l-1-1-1-1v-1l-1-1h-1l-1-1-1-1-1-1v-1h1l2-1h1l-1-1-1-1-2-1h-2v-1l-1-1h-1l-1-1zM924 365l-2-1-2 1 4 1v-1z"/><path fill="#BCCAE4" d="M943 369l-1-2h-2l1 2h2zM1054 501l-5-2 1 3 2 2 3 3 2-1-1-2c0-2 0-2-2-3zM1055 508l1 2 1-3-2 1zM1071 513c-2-1-2 1-3 2s-2-1-4-1-1-1-2-3l-2-2v2l-1-1c-2-1-1 2-2 3v4l-1 2c-1 1-2 1-2 3l3 1 2 2-1 4c-1 1 0 1 1 2 2 0 2 0 2-2l3-2 2-3v-3c0-2 1-1 2-1s1 1 1-1l1-1 2-3-1-2zM1052 529h-1l-2-2s0-2-1-1l-1 3-1 2-3 4-2 2-4 3-4 2-3 4c-2 2-1-2-2 3 0 0-4 1-2 2l3 2 2 1h4l3-1 2-2 3-4 1-4 2-1 3-1h2c1 0-3-1-1-2l3-4 1-3 2-3h-4zM1031 555c-1 0-3 1-2 2h3c1-1 0-2-1-2zM371 464l-1 3c-1 0 0-2-1 0l-1 2-1 1v-1l1-2 1-1 1-1 1-1zm53-81v-1-1l-1-1-1-3h-5l-1-1-1-2-2-1h-1l-1-2h-1l-1-1h-2l-1-1h-3l-1 1h-1l-2-1h-1l-1-1h-2l-2 1h-1s1 0 0 0v-1-1l-1-1-1-1h-1l-1-1h-2l-1-1h-1l-1-1h-1-1-1v1l-1 1-2 2h-1v1h-1v0h-2l-1-1h-1 5l2-1v-1-1-1-1h-2-1-3l-1 1v2h-1v-1l-1-2 1-1h1l1-1 1-1v-1c1-1 1 1 1-1v-1l-1-1h-1l-1-1v-1-1-1l-1-1v-2l-2-1-1-1-2-2h-1l-1-1h-1l-1-1h-1-4s1 0 0 0h-3-2-1l-1-2-2-1h-1-1v-1l-1-2-1-1-2-1h-1v-1l-2-1h-1l-2 1 1-1 1-1-1-2h-2v-1l-1 1h-1v-1h-2v-1h1l1-1h-2-2-1l-1 1-2 1h-1l-2-1-1-1h-3l-3 1-1-1-1-1v-1h-3l-1-1v-1l-1-1h-1l-1 2v1h-2l-1 1v1l1 2v3h-1l-2-2v-1c2-2 1-4 1-4l-1-1 1-1h1l1-1v1h1v-1l-1-1h-3l-1 2-1 1h-1l-1 1h-2c-1 0 0-2-1 0l-1 1h-2l-2 1v4h-1l-1 1-1 2h-1v1h-1l-1 2-1 1v2l1 1v4l1 1-1 1v2l1 1-1 1v1l-1 1h-1v1h-1l-1 1-1 1c0 1 0 0 0 0v1a2 2 0 0 0 0 1l-1 1h-2l-1 1s0-1 0 0v2l-1 1v3l-1 1v2s1 0 0 0v1l1 1h2v-2 3l-1 1h-1l-1 1-1 1-1 2v2l1 1 1 1-1 1v1h1l1 1h1l1 1v1h1v1l1 1v2h1v1l1 1 1 1v1l1 1v2l1 1 1 1v1l1 1v1l1 1 1 1v1l1 2v3l2 1v1h1l1 1 1 1 2 1 2 2h2l1 1h1l1 1h2l1 2 1 2h1v1l1 1v7l1 1v1l-1 2v3l-1 2v8l-1 1v4l-1 2v4h-1v2l1 2-1 1v1l-1 4v2l1 1v2l-1 1v1 1l-1 2-1 1 1 1-1 2-1 2v1l-1 2h-1v2c-2 1-1 1-1 2v3l1 1v3l-1 1v2l-1 2v2h1v1h3v1s-1 0 0 0v3l-1 1v7l-1 1v1l1 2-1-1-1 1v3l-1 1h-1v-1l-1-1-1-1-1 2-1 1s-2 0-1 1l1 1 1-1h1v1l2-1v2h-2l1 2h1s0 1 0 0h1l1 1-2 1s0-1 0 0l-1 1-1 1 1 1c0 1 2 1 1 2v2h-1v2l1 1v1h-2v1l2 1 1-1 1 2v2h1v-2l1 1h2v1l-1 1v1s0-1 0 0h2l1 1h1v1l1 2-2-1-1 1v1l1 1 2 1 1-2v-1l1-1v-1h1v-1h2v1c-2 0-3 2-3 2h3v1h-1v2l1 1v1h-1-3-1v1l2 1 2-1h1l1 1h2l2 1 1-1 2 1h5l1-1v-1h-3l-1-1-1-1h-1l-1-2h-1l-1-2v-1-1l-1-1-2 1-1-1-1-1 1-1 1 1h2v-1l-1-2-1-1v-2-1l1-2 2-1h1v-2l1-3 2-1 2-1 2-1v-1l-1-1v-1l1-1-1-1h-1-1l-2-1-1-2 1-1 1-2v-1l1-1h1l2-1h2v-5l1-2h1l-1-2h2l1 1s0 2 1 0v-3h-2l-1 1-1-1v-1-1-1-2h1l2 1 1 1h3l1-1 1-1-1-1v-1l1-2v-1l-1-2h3s-1 0 0 0h3l6-1h1l1-1h1l1-1 1-1 1-1v-1l1-1v-1-1-1l-1-1v-2-2l-1-1c-1 1-2 0-3-1h-1v-1l1-1v-2-1-1-1-1l1 2-1 1v4l1 1h3l1 1 1 1h2l1-1 2 1 2-1 1-1h1l1-2 1-1 1-2 1-1 1-1v-1l1-1s0 1 0 0l2-1 1-1 1-1 1-1 1-1v-2l1-1v-1l2-3 2-2v-1l1-1v-2-2-1l-1-1v-1l1-1-1-1h3l1-1 2-2 1-1h1l1-1 1 1h1l1-1-1-1h2l1-1v-1l1 1 2-1h6v-2l2-1 1-1v-2l1-2 2-1v-2c1 0 1 2 1-1v-3-1l1-1h1v-2-2-1l1-2-1-2 1-2v-3l-1-1v-1l1-1h1-2l1-1h1l1 1 1-2 1-1v-1l1-2h1l3-3 1-1 1-2 1-1v-1l1-1v-2-2-1z"/><path fill="#0BB" d="M497 148c0 5-11 21-11 21s-12-15-12-21 5-11 11-11c7 0 12 5 12 11z"/><path fill="#fff" d="M491 147c0 3-2 5-5 5s-6-2-6-5 2-5 5-5 6 2 6 5z"/><path fill="#F7F7F7" d="M476 148c0-5 4-9 10-9 3 0 6 1 8 4-2-3-5-5-9-5-6 0-10 4-10 9l2 6-1-5z"/></g></svg>