<svg xmlns="http://www.w3.org/2000/svg" fill="none" viewBox="0 -30 1184 395"><path fill="#DAE7FF" fill-rule="evenodd" d="M871.3 42v28.3l-11.4-.1v-7.8h-3.6v7.7l-28.7-.2v64.2L780 164.8V315H1027V95.6h-6.8v-16l-26.6-14.2-26.9 14.2v16h-11v57.2H939v-6.6h-7.6v-12.9l-13.5-10.2-13.6 10.2v19.5h-9.6V70.4h-11.3v-12h-3.6v12l-4.8-.1V42h-3.6zM584.2 5v16.5l-9.8-.1v61.1h-6.1V71.8h-8V58.5L542 44.8l-18.2 13.7v13.3h-8v10.7h-11.9v98h-28.7V95.2l-28.8-.2v-10h-4v10l-21.8-.1V85h-4V95l-15.3-.1v21.4h-28V78.7h-83.4v37.6h-11.8v48.3h-46v-40.8l-62.1-60V315h583V16l-85.6 20.6v49h-4.7V70h-3.9V59.8h-6.3v-8.3h-2.9v8.3h-11V44h-2.9v15.8H631V70h-3.8v15.6h-6.7V22.1l-9.8-.1V10h-2.9v12l-20.6-.4V5h-3z" clip-rule="evenodd"/><path fill="#DAE7FF" fill-rule="evenodd" d="M433 94h4V82h-4v12zM101 94h4V82h-4v12z" clip-rule="evenodd"/><path fill="#DAE7FF" fill-rule="evenodd" d="M109.3 85v10.1H87.5V85h-4v10L11 94.8V315h131V95.2h-28.8V85h-4zM591 21h3V0h-3v21zM1051.2 50v9.6l-9.2-.5V315h142V157.6h-9.4v-21.2h-5.8v-14.5h-5.7V99.5h-3.8v22.4h-14v-11.8h-3.8V122h-8.1v14.5h-5v21.2h-7.3V63.3l-45.7-2.4v-6.7h-7.4v6.3l-9.5-.5V50h-7.3z" clip-rule="evenodd"/><path fill="#B8CFF8" fill-rule="evenodd" d="M630.2 43v34.4h-15.9v22h-8.5V197h-24.1V149h-39.8v48.2h-5.5v-67.7l-67.2 43.7v52.7l-34.3-12.3v-20.9h-4.8v-12.2h-7.4v-9.9L400.2 152l-22.4 18.5v10h-12.3v12.1H356V122l-67.9-1v44.7h-6.9v-13.1h-29v13.1h-9.9v8.7h-11.8v65.9l-9.9-.4v-20.4l-16.2-14-16.2 14v19.4h-1.5v-8l-9-.2v-24.3l-62.6-2V314.8h226.3v.3h93.6v-.3H1043v-77.1l-9-.3V215l-59.3-1.6V194h-15.4v-7.5h-13v-11.3h-37.5v11.3H895v-30.7l-39.7-7.7v-3.5h-4.3v-7.8h5.5v-6.7h-57.7v6.7h5.5v7.8H800v89.2H767v-34l-23 3.2V174l-44-7.6v-9.1h4.6v-11.5h-45.2V99.4h-9v-22h-15.9V43h-4.3zm210.4 101.6h5.7v-7.8h-5.7v7.8zm-10.4 0h5.6v-7.8h-5.6v7.8zm-10.5 0h5.6v-7.8h-5.6v7.8zm-10.5 0h5.7v-7.8h-5.7v7.8z" clip-rule="evenodd"/><path fill="#BBCEF0" fill-rule="evenodd" d="M1080.6 292H1052v56h73v-79.5l-14.8 2.2v-20.2l-29.6-5.5v47z" clip-rule="evenodd"/><path fill="#BBCFF4" fill-rule="evenodd" d="M0 187v4.6h3.5v5.5H.7V315H112v-83.7h-9.8V226H94v-7.9H70v7.9h-8.7v-21.3L36 199.5V197h-2.7v-5.5h3.5V187H0zm26.6 10h3.6v-5.4h-3.6v5.5zm-6.7 0h3.6v-5.4H20v5.5zm-6.7 0h3.6v-5.4h-3.6v5.5zm-6.7 0h3.7v-5.4H6.5v5.5z" clip-rule="evenodd"/><path fill="#B7C6E0" fill-rule="evenodd" d="M969.6 129.7s19.5-8.2 42 6.4c22.6 14.7 28.2 27.2 49.2 29.3 21 2 37.4-2.6 56.7 10.3 0 0-22.2 28.7-25.7 48.8-3.5 20.1-7.3 34.5-13.7 42.4 0 0-1.9-10.5-21.5-7.6-19.7 2.9-46.4 5-67.3-14.5-20.9-19.7-45.6-23.4-53-20.6l33.3-94.5z" clip-rule="evenodd"/><path fill="#819BC8" fill-rule="evenodd" d="M1019 191.2l12.2-40c-5.4-4.4-11.5-9.5-20-15a51 51 0 0 0-34.4-8.2c9.6 7.4 33.1 28.4 42.2 63.2z" clip-rule="evenodd"/><path fill="#fff" fill-rule="evenodd" d="M986.2 174.2a202 202 0 0 1 20.5 14.6 254 254 0 0 0 12.6 9.4l15.4-44.5-3.7-3-12.1 40c-9-34.8-32.4-55.8-42-63.1-5 .6-8 1.9-8 1.9l-.6 1.7c23.6 19.6 37.7 53 37.7 53l-7.3-5.4c-8.7-20-26.6-38-32-43.2l-1.6 4.7c15.7 13.9 29.4 36 29.4 36a48.6 48.6 0 0 0-38-11.9l-1.7 4.7c12.7-1.4 23.3.3 31.4 5.1z" clip-rule="evenodd"/><path fill="#819BC8" fill-rule="evenodd" d="M989.6 193a50.2 50.2 0 0 0-39.7-9l-6.6 18.8c21-9.1 46.3-9.8 46.3-9.8zM995.3 176.2s-13.8-22-29.6-35.9l-8.5 24c9.7-1 24.9.1 38.1 11.9zM1055.5 204.8s25.4-2.2 39.6 7.3c4-9.7 10.1-19.6 14.8-26.6-8.5 0-32.7 2-54.4 19.3z" clip-rule="evenodd"/><path fill="#fff" fill-rule="evenodd" d="M1036.8 207.4c6 1 12.6 1.1 19.5 1.3 13.3.3 26.9.6 38.7 6.9l1.2-3c-14.2-9.4-39.7-7.2-39.7-7.2A92.5 92.5 0 0 1 1111 186c4-6 7-9.9 7-9.9s-24.9.2-45.4 9.3c-18.5 8.2-31 18.4-31 18.4l-5-.3s14.2-12 31.3-20c17-8.2 32.8-10.3 44.6-10.6a51.6 51.6 0 0 0-12.7-4.7c-40.3 6-66 34.1-66 34.1l14.2-39.9-2.8-1.4-15.1 44.2c2.2 1 4.5 1.7 6.7 2z" clip-rule="evenodd"/><path fill="#819BC8" fill-rule="evenodd" d="M1099.5 168c-12.3-2.6-24.4-1-38.6-2.4-5.1-.5-9.4-1.7-13.1-3.3l-14.3 39.4s25.7-27.7 66-33.6zM1076.5 225.5c-12.3-2.6-30.2-3-30.2-3s27.9 13.7 38.6 30.1c2-6 3.7-13.4 5.3-22a41 41 0 0 0-13.7-5.1z" clip-rule="evenodd"/><path fill="#fff" fill-rule="evenodd" d="M1055.6 219.5c-7-.2-14.2-.4-21-1.5a39 39 0 0 1-8.5-2.4l-14.6 42 5.3 1.4 10.6-37.8s25.5 18 37.9 37.4c11.5.8 12.8 7.9 12.8 7.9.2-.3-1.5-8.8-13.8-20.5-20.6-19.6-33-25.7-33-25.7l10.6 1.2s13.4 9 24.7 19.9c8.5 8 12.5 14.3 15.3 19.1 1.2-2.4 2.3-5.1 3.3-8.2-10.7-16.4-38.7-30-38.7-30s18 .3 30.3 3a41.3 41.3 0 0 1 13.8 5l.8-4c-9.8-6.2-22.5-6.5-35.8-6.8z" clip-rule="evenodd"/><path fill="#819BC8" fill-rule="evenodd" d="M952.5 224.4a81 81 0 0 1 36 20c3 2.8 6 5 9.2 7l13.8-39.5s-33.5-6.2-59 12.5z" clip-rule="evenodd"/><path fill="#fff" fill-rule="evenodd" d="M1000.4 198.7a193 193 0 0 0-19.3-13.9c-8.4-5-20-4.5-29.8-2.7l-1 2.8a50.7 50.7 0 0 1 40 9s-25.5.7-46.6 9.8l-7.4 20.9 1.5-.4s26.3-23.9 65.2-18.9l6.9 3.6s-34-5.2-63.5 15.1c2.1.2 4.4.6 6.9 1.2 25.6-18.7 59.2-12.4 59.2-12.4l-13.9 39.4 2.6 1.6 15-43.5c-5.3-3.3-10.5-7.4-15.8-11.6z" clip-rule="evenodd"/><path fill="#819BC8" fill-rule="evenodd" d="M1016.2 258.8c14 3.2 28.1 1.8 39.8 0 3.5-.5 6.3-.5 8.8-.4-13.5-23-37.6-38.2-37.6-38.2l-11 38.6z" clip-rule="evenodd"/><path fill="#212D5F" fill-rule="evenodd" d="M979.1 127.6c-6 .5-9.8 2.1-9.8 2.1l-33 94c2.3-.9 6.2-1.1 11.2-.4 10-32.1 22.4-63.4 31.6-95.7zM1009.2 134.7c-5.2-3-10.2-4.9-14.8-6-2 4.9-19.6 59.3-26.1 81.7-1.7 5.8-3.6 11.5-5.4 17.3 2.1.8 4.3 1.8 6.5 3 7.2-15.3 32.9-79.6 39.8-96zM1092 224.4c3.6-20 26-48.7 26-48.7l-3-1.8c-1-.5-12.4 14.3-13.5 15.8-4 5.6-7.7 11.4-10.8 17.5-3.8 7.3-6.8 14.9-8.5 22.9-1 4-1.5 8-2.4 12-1.3 6.5-3 13-7 18.3 4.8 2.4 5.5 6.1 5.5 6.1 6.4-7.9 10.2-22.1 13.7-42.1z" clip-rule="evenodd" opacity=".1"/><path fill="#212D5F" fill-rule="evenodd" d="M1112.2 182c-3.3 3.4-6.8 6.7-9.8 10.3a71.7 71.7 0 0 0-13.9 27 106 106 0 0 0-3.1 15.4c-.6 4.5-.9 9-1.6 13.6-.6 4.1-1.5 8.4-2.8 12.4 4.4-8.3 7.3-20.7 10.2-36.7 2.5-14 14.3-32.4 21-42zM1105.3 170.4a42 42 0 0 0-5.1 1 62.2 62.2 0 0 0-40.4 36.5 57.6 57.6 0 0 0-5 31.2c1 6.8 3.5 13.1 6.2 19.3h.4c-.7-6.4-.8-12.8-.3-19.1 1.3-16 6.5-31.7 16-44.7a79.8 79.8 0 0 1 28.2-24.2z" clip-rule="evenodd" opacity=".1"/><path fill="#B7C6E0" fill-rule="evenodd" d="M876 394.9a1.8 1.8 0 0 1-.9-2.3l92.5-267.3c.3-1 1.3-1.4 2.3-1.1.9.3 1.4 1.3 1 2.3l-92.4 267.3c-.4 1-1.4 1.4-2.3 1.1h-.1z" clip-rule="evenodd"/><path fill="#B7C6E0" fill-rule="evenodd" d="M971 126.5c.3-1-.2-2-1.1-2.3-1-.3-2 .2-2.3 1.1l-1.5 4.2.8.1c.9.3 1.3 1.3 1 2.2l-90.2 260.4a1.7 1.7 0 0 1-2.7.8c0 .8.3 1.5 1 1.9h.2c1 .3 2-.2 2.2-1.1L971 126.5z" clip-rule="evenodd"/><path fill="#9DB2D7" fill-rule="evenodd" d="M975.9 125a5.8 5.8 0 1 1-10.7-4.5A5.8 5.8 0 0 1 976 125z" clip-rule="evenodd"/><path fill="#B7C6E0" fill-rule="evenodd" d="M973 123.1a3.5 3.5 0 1 1-6.3-2.7 3.5 3.5 0 0 1 6.4 2.7z" clip-rule="evenodd"/><path fill="#819BC8" fill-rule="evenodd" d="M876.4 392.7a.4.4 0 0 1-.2-.5l90.7-261c0-.1.2-.2.4-.1.2 0 .3.2.3.4l-90.8 261-.4.2z" clip-rule="evenodd"/></svg>