<svg xmlns="http://www.w3.org/2000/svg" width="1083" height="578" fill="none"><g fill-rule="evenodd" clip-path="url(#clip0)" clip-rule="evenodd" filter="url(#filter0_d)"><path fill="#EA3663" d="M796 156c-8 24-70 73-70 73s-22-76-14-100 33-37 56-29c23 7 36 33 28 56"/><path fill="#fff" d="M775 148c-4 11-16 18-27 14s-17-16-13-27 16-18 27-14 17 16 13 27"/><path fill="#F7F7F7" d="M718 136c7-21 29-33 49-26 12 4 20 13 24 24-3-13-12-25-26-29-20-7-41 5-48 26-3 8-3 17 0 25-1-7-1-14 1-20"/><path fill="#F5CEB0" d="M969 312l-1-2h-2l-2 1c-2-1-3-3-5-1s-1 2 1 3l4 3 3 5h1c4-3 1-6 1-9"/><path fill="#1F28CF" d="M981 331l-8-12c-1-2-1-3-3-3l-6 2c2 9 5 19 9 28 2 5 6 4 11 4h17c3 0 7-1 9-3 2-3 3-8 3-12-1-6-5-5-10-4a57492 57492 0 0 1-21 0h-1"/><path fill="#042036" d="M985 412c1-5 3-9 8-11 4-2 9-2 13-3l28-2c8 0 13 7 17 13 2 4 1 6-2 9l-9 8c-7 4-18 3-26 2s-15-3-21-6c-5-2-9-5-8-10"/><path fill="#002D51" d="M1033 429l3 9 1 5c0 4-5 7-8 3l-3-5c-1-3 1-1 3-2 3-1 3-2 2-4-2-3-3-5-3-8l1-2 2 1 1 1 1 2"/><path fill="#1F28CF" d="M1018 330c-4-1-8-2-11 0-2 1-2 4-3 7l-4 24-2 13 1 9c0 3-1 6-4 7l-3 1-2 3 2 1 8 5 7 3 10 2c10 0 19-1 28-3 4-1 9-4 8-9-1-6-4-11-6-16l-6-21-6-18c-1-3-3-5-6-7-4-2-8-1-11-1"/><path fill="#F5CEB0" d="M1003 430h-3l-2-1v-2l2-2a31 31 0 0 1 9-1l1 1c1 4-4 5-7 5M1034 438v1l-1 1c-1 1-3 0-5-2l-3-5c-4-2-1-7 3-6 5 1 5 7 6 11"/><path fill="#002D51" d="M983 413c-3-2-6-5-8-9-1-4 1-10 5-12 5-3 11 1 14 4l25 19 12 10-6 10c-15-4-30-13-42-22"/><path fill="#002D51" d="M1058 418l8-7c1-4-1-10-5-14-5-4-10-2-13 1l-24 12-12 7c0 1 4 12 6 12 14 0 28-6 40-11M1008 432l-9 4-5 1c-4 0-7-4-3-7l5-4c3-1 1 1 2 3s2 2 4 1l8-2h2v2l-2 1-2 1"/><path fill="#DFDBE9" d="M976 400l42-14 51 3-29 13-64-2z"/><path fill="#9CA7AF" d="M977 395l-2-41 64 2 2 43-64-4z"/><path fill="#9CA7AF" d="M1069 389l-29 11v1-3l-64-2v4l64 2 1 1a82462 82462 0 0 1 28-14"/><path fill="#F5CEB0" d="M1041 386l-1 1 2 2 2-1-1 3-3 3-1 3c3 1 6-1 8-4l1-3 2-7c-2-1-3-3-5-2l-4 5"/><path fill="#1F28CF" d="M1052 361c3 5 5 10 5 15s-2 11-7 13l-5-7c-4-7-1-16-4-23-1-4-4-7-7-11l-3-5-3-5v-2l3-3 3 1c4 4 6 9 9 13 3 5 7 9 9 14"/><path fill="#F5CEB0" d="M1022 333v1l-3 1h-3c-4-1-2-8-2-10-2-1-5-2-5-5v-3a4093 4093 0 0 1 3-14l5-4c5-1 11 0 14 4l3 3-1 7-1 7c-1 2-2 5-4 6l-3 1c-2 2-1 5-3 6"/><path fill="#002D51" d="M1016 303h-1l-1 4-4 4v4l-2 5 1 5-3-1-1-2v-4l-1-3 1-6v-8l4-4 2-3 3-2h2l4-1c2 0 4 2 5 4l-1 3c-3 2-7 3-8 5"/><path fill="#002D51" d="M1040 300l3 3 1 7-1 6c0 2-1 3-3 4-1 0-4 0-5 2s1 4-1 6l-3 1-3 2-3 2 2-5c0-1 2-3 1-4l-2-3 1-1c2-2 2-4 2-6s-2-4-3-5l-2-4c0-2-1-3-3-4-1-1-2-1-2-3l1-4 2-1 7-2 3 2h2l4 2 1 3 1 2"/><path fill="#002D51" d="M1035 290l2-3h3l3-3h2c1 1 3-1 4-1 2 0 4 1 4 3v3c0 3 4 5 4 8 0 2-3 4-2 6l1 4-2 1-3-2-2-3-3-3-4 1-3-2-3-1-2-2-1-2 2-1v-3"/><path fill="#EA3663" d="M960 314s-12-47-7-62c5-14 21-21 35-16s22 20 16 35c-5 14-44 43-44 43z"/><path fill="#fff" d="M992 265c-2 7-10 11-16 8-7-2-11-10-8-16 2-7 10-11 16-8 7 2 11 10 8 16"/><path fill="#F7F7F7" d="M957 257c5-12 18-19 31-15 7 3 12 9 14 15-1-8-7-15-15-18a24 24 0 0 0-31 30c-1-4 0-8 1-12"/><path fill="#212D5F" d="M79 136l-7 10v-21-1l2-1c9-1 8 7 5 13"/><path fill="#FFC0A5" d="M58 151l-2-2c-8-6-19-36 4-40 21-3 17 24 12 35l-5 6 2 7c-1 3-3 4-5 4s-4-2-5-3l-1-7"/><path fill="#212D5F" d="M55 141c-2 2-5 1-7 0-8-6-12-17-9-26 3-8 13-12 14-2 1 3-2 8-2 12 0 5 2 11 4 16"/><path fill="#212D5F" d="M82 101c9 7 12 20 20 28-9 2-19 1-26-3-8-5-28-9-23-20 4-11 21-11 29-5"/><path fill="#002D51" d="M72 412l-1 2-1 2 5 8 5 2h6s2-1 1-3l-6-3 1-6-10-2zM52 412l-1 4-3 7 2 2 5-1 4-5v-11l-7 1v3z"/><path fill="#212D5F" d="M45 262l-4 21 11 131 11-2 19-146-37-4z"/><path fill="#212D5F" d="M102 258l2 85-21 73-13-5 11-65-10-89 31 1z"/><path fill="#C9EEEE" d="M37 174c-2 4-2 9-3 14a252 252 0 0 0-1 60l2 16c0 3-1 10 2 11l5 1a409635 409635 0 0 0 57-7c4-3 3-7 4-11l1-15-3-31c0-11-2-26-6-37l-8-12c-5-4-9-5-15-6h-1v-1l-1-4-1-1h-2l-12 3v3l-1 2-12 8-5 7"/><path fill="#EA3663" d="M159 210c-6 25-65 81-65 81s-30-76-24-101c5-25 30-40 55-35 24 6 39 30 34 55"/><path fill="#fff" d="M136 202c-2 12-14 19-26 16-12-2-19-14-16-26 2-12 14-19 26-16 12 2 19 14 16 26"/><path fill="#F7F7F7" d="M76 195c5-22 26-36 48-31 12 3 22 12 27 23-4-14-15-25-29-28-22-5-43 9-48 31-2 9-1 18 3 26-2-7-3-14-1-21"/><path fill="#FFC0A5" d="M79 238l5 2 1 1h2l2-1h2l2-4v-1h-1l-4-1-3-2 2-1 1-1-1-1h-5c-2 0-6-2-7 0l-2 4a5314 5314 0 0 1 6 5"/><path fill="#C9EEEE" d="M34 175l4-5c3-4 8-10 13-9 6 2 7 8 6 13-2 5-14 21-16 27l38 24c-1 2-2 6-4 7-4 3-21-6-25-7a123 123 0 0 1-32-20l1-4c4-9 9-17 15-26M131 263l-4 1-2-3-2-6c-1-5 3-10 8-7 4 3 4 11 0 15"/><path fill="#FFC0A5" d="M120 263l-4-3 1-5h6l-2-3v-2h1c3 1 6 1 8 3 3 2 3 5 0 7-2 3-7 3-10 3M758 211l-2-3 1-4-2-3c-1 0-2 1-2 3l1 1-1 2-5 3-1 1v1l2 1c2 0 3 3 5 4 2 0 4-2 4-4v-2"/><path fill="#FEB137" d="M773 234l-2-3-6-9-5-9c-3-3-6 0-9 1-3 2-2 3-1 6 10 23 17 44 35 63l2 1c11 5 20-21 20-27v-2h-1c-8-3-16-3-23-8-5-3-8-8-10-13"/><path fill="#212D5F" d="M825 441l-1-2h-1c-1-1 0-2-2-2l-5 1h-1v2l-3 2-1 1c-1 0-5 2-4 4l4 1h3c4-1 7-1 10-3l1-3v-1"/><path fill="#212D5F" d="M824 335l3 14-6 39 2 52h-10l-10-50-8-55h29zM777 442v-1l-1-1c-1-1 0-2-2-2l-5-1h-1v2l-4 2h-1c-2 0-6 1-5 3l3 2 4 1 10-1c1 0 2-1 2-3v-1"/><path fill="#212D5F" d="M803 340l4 10-20 40-10 50-10-2 2-51 5-54 29 7z"/><path fill="#FEB137" d="M836 336l-1-5a196 196 0 0 0-7-39c-2-10-4-19-8-28l-5-9c-2-2-5-4-9-5l-4-1-4 1-3 1c-7 3-10 8-12 14l-4 16a302 302 0 0 0-9 48l-1 18c0 3 2 2 4 1 4-3 7-5 12-6h6a116 116 0 0 1 41 5l3 2 1-3v-10"/><path fill="#212D5F" d="M799 224c-2 2-3 4-3 7l-1 1-1 1-1-4 1-4 2-4 2-1 4-1c2 0 3 1 1 2l-4 3"/><path fill="#FFC0A5" d="M807 253l-8-1v-7c-2-1-5-2-5-5v-2l2-11 1-3 5-4c5-1 11 0 14 4l3 3-1 7-1 6c-1 2-2 5-4 6l-3 1c-2 1-2 4-3 6"/><path fill="#212D5F" d="M802 242l3 1v1l-4-1 1-1m-9-2l2 6c2 2 4 2 7 3l3 1c4 0 7 0 9-3l2-5v-1l-1-1-2 1h-3l-1-1-4-2c-1-1-3-2-4-1l-2 2-1 1h-1l-2-2v-1-2c-1-1-1 1-2 2v3M796 218v-3l3 1v-2h7c4 1 8 1 12 4 3 3 4 6 4 10s-2 8-5 11l1-4v-3l-3-5-8-4c-3-1-6-2-9-1l-2-1-1-4 1 1"/><path fill="#FFC0A5" d="M858 262l1-2-1-3-2-3-4-2-1 4h-1-1l-1 4v7l1 1 4 2 5-8"/><path fill="#FEB137" d="M816 298l7 5 4 1c2 0 4-2 5-3l16-17 10-19-10-4c-1-1-11 13-12 15-4 5-7 0-9-5l-5-9c-3-3-6-5-9-5s-5 2-6 5c-2 2-2 5-2 7 0 11 3 22 11 29"/></g><defs><filter id="filter0_d" width="1092" height="391" x="-2" y="79" color-interpolation-filters="sRGB" filterUnits="userSpaceOnUse"><feFlood flood-opacity="0" result="BackgroundImageFix"/><feColorMatrix in="SourceAlpha" values="0 0 0 0 0 0 0 0 0 0 0 0 0 0 0 0 0 0 127 0"/><feOffset dy="2"/><feGaussianBlur stdDeviation="10"/><feColorMatrix values="0 0 0 0 0 0 0 0 0 0 0 0 0 0 0 0 0 0 0.1 0"/><feBlend in2="BackgroundImageFix" result="effect1_dropShadow"/><feBlend in="SourceGraphic" in2="effect1_dropShadow" result="shape"/></filter><clipPath id="clip0"><path fill="#fff" d="M0 0h1083v578H0z"/></clipPath></defs></svg>