<svg width="589" height="418" viewBox="0 0 589 418" fill="none" xmlns="http://www.w3.org/2000/svg">
<path opacity="0.426121" fill-rule="evenodd" clip-rule="evenodd" d="M380.223 43.221C226.307 -28.551 64.564 -7.4519 18.959 90.347C-26.6453 188.147 0.397598 500.012 215.075 397.384C429.751 294.755 530.734 448.057 576.339 350.258C621.943 252.458 534.139 114.993 380.223 43.221Z" fill="#B7C6E0"/>
<path opacity="0.265455" fill-rule="evenodd" clip-rule="evenodd" d="M500.823 325.159C506.727 386.016 363.555 425.712 240.324 398.009C117.093 370.307 60.561 262.126 119.364 204.484C178.168 146.841 494.92 264.302 500.823 325.159Z" fill="white"/>
<path fill-rule="evenodd" clip-rule="evenodd" d="M130 391H478V385H130V391Z" fill="#212D5F"/>
<path fill-rule="evenodd" clip-rule="evenodd" d="M227.397 309L228 385H161.603L161 309H227.397Z" fill="#254380"/>
<path fill-rule="evenodd" clip-rule="evenodd" d="M316.191 283L317 385H227.809L227 283H316.191Z" fill="#3565C7"/>
<path fill-rule="evenodd" clip-rule="evenodd" d="M371.496 322L372 385H316.504L316 322H371.496Z" fill="#96B2EA"/>
<path fill-rule="evenodd" clip-rule="evenodd" d="M192 347H197L194.539 339H194.461L192 347ZM204.26 328L215 359H201.319L199.538 353.758H189.483L187.701 359H174L184.74 328H204.26Z" fill="white"/>
<path fill-rule="evenodd" clip-rule="evenodd" d="M272 354H272.711C274.577 354 275.922 353.71 276.755 353.127C277.584 352.544 278 351.559 278 350.17C278 347.39 276.399 346 273.193 346H272V354ZM272 340H272.433C273.27 340 273.98 339.94 274.557 339.815C275.137 339.686 275.609 339.481 275.975 339.199C276.337 338.918 276.602 338.552 276.762 338.105C276.922 337.655 277 337.12 277 336.488C277 335.265 276.653 334.376 275.963 333.825C275.27 333.278 274.284 333 273.005 333H272V340ZM279.065 325C283.488 325 286.906 325.931 289.332 327.792C291.791 329.649 293.02 332.254 293.02 335.607C293.02 337.519 292.607 339.134 291.787 340.452C290.966 341.773 289.785 342.878 288.258 343.775C290.137 344.803 291.566 346.006 292.538 347.374C293.514 348.743 294 350.451 294 352.491C294 355.763 292.889 358.325 290.672 360.187C288.438 362.061 285.465 363 281.749 363H256V325H279.065Z" fill="white"/>
<path fill-rule="evenodd" clip-rule="evenodd" d="M347.305 336C349.902 336 352.553 336.353 355.26 337.058C357.935 337.732 360.181 338.638 362 339.781L355.236 352.445C354.282 352.117 353.242 351.864 352.121 351.692C350.995 351.519 349.862 351.435 348.716 351.435C346.979 351.435 345.687 351.668 344.834 352.137C343.982 352.61 343.554 353.287 343.554 354.181C343.554 355.075 344.027 355.765 344.977 356.25C345.923 356.735 347.289 356.976 349.075 356.976C350.221 356.976 351.317 356.867 352.369 356.647C353.421 356.43 354.375 356.118 355.236 355.709L362 369.288C360.12 370.398 357.808 371.3 355.068 371.99C352.394 372.663 349.796 373 347.281 373C343.252 373 339.701 372.214 336.627 370.651C333.552 369.083 331.179 366.874 329.508 364.024C327.836 361.189 327 358.098 327 354.747C327 351.114 327.897 347.847 329.699 344.948C331.497 342.054 333.944 339.837 337.03 338.301C340.154 336.766 343.579 336 347.305 336Z" fill="white"/>
<path fill-rule="evenodd" clip-rule="evenodd" d="M316.669 310.558C318.655 317.543 323.605 330.781 330.452 345.983L336.969 344.075C331.29 309.086 326.56 285.923 323.847 278.874C322.055 274.216 308.473 274.77 310.029 284.143C310.682 288.073 313.268 298.598 316.669 310.558ZM289.929 285.783C279.281 287.992 257.201 295.789 250.895 298.28C246.933 299.845 249.483 305.143 252.863 304.677C253.435 304.598 255.46 304.371 258.482 304.032C268.187 302.942 288.173 300.697 303.331 298.509C311.313 297.358 307.03 282.441 298.742 284.026C295.954 284.559 292.988 285.149 289.929 285.783Z" fill="#B28B67"/>
<path fill-rule="evenodd" clip-rule="evenodd" d="M326 350.885L326.455 343.945C326.496 343.312 327.11 342.876 327.737 342.969C332.349 343.654 338.306 341.698 338.306 341.698C344.186 345.641 352.421 347.65 356.361 348.436C357.559 348.675 358.323 349.894 357.972 351.064L357.568 352.416H338.306H327.07L326 350.885Z" fill="#C5CFD6"/>
<path fill-rule="evenodd" clip-rule="evenodd" d="M244.083 296.124L251.038 296.094C251.672 296.091 252.15 296.672 252.101 297.304C251.74 301.953 254.106 307.759 254.106 307.759C250.583 313.9 249.153 322.255 248.644 326.241C248.489 327.452 247.326 328.299 246.134 328.031L244.758 327.721L243.414 308.507L242.63 297.298L244.083 296.124Z" fill="#C5CFD6"/>
<path fill-rule="evenodd" clip-rule="evenodd" d="M323.295 275.089C322.213 271.553 273.031 259 273.031 259H269V262.762L302.899 280.047C302.853 280.606 302.881 281.197 302.99 281.82C302.74 294.63 308.211 304.197 313.627 313.669C317.169 319.863 320.688 326.017 322.569 333.01L335.022 331.145C334.66 330.216 334.088 326.027 333.306 320.3C331.334 305.86 328.027 281.639 323.377 275.232C323.355 275.203 323.333 275.173 323.311 275.144C323.306 275.126 323.301 275.108 323.295 275.089Z" fill="#1F28CF"/>
<path fill-rule="evenodd" clip-rule="evenodd" d="M317.784 297.075C312.54 299.67 279.376 291.619 263.503 288.834C247.631 286.049 243.003 277.548 245.739 259H274.984C279.761 260.373 304.587 270.79 317.468 276.33C326.394 280.17 323.029 294.48 317.784 297.075Z" fill="#2B44FF"/>
<path fill-rule="evenodd" clip-rule="evenodd" d="M259.76 294.214L302.291 279.626C306.849 279.216 318.559 296.38 316.341 297.299C290.356 308.068 269.801 302.423 262.934 304.228L259.76 294.214Z" fill="#2B44FF"/>
<path fill-rule="evenodd" clip-rule="evenodd" d="M269.691 195.683C273.328 198.04 276.901 199.178 278.579 198.713C282.785 197.548 283.172 181.005 279.917 174.484C276.663 167.962 259.931 165.119 259.088 178.041C258.795 182.525 260.547 186.528 263.135 189.793L258.494 213.045H271.974L269.691 195.683Z" fill="#B28B67"/>
<path fill-rule="evenodd" clip-rule="evenodd" d="M272.183 167.478C270.404 167.165 265.614 166.949 264.731 166.949C264.166 166.949 263.555 167.088 263.22 166.531C262.947 166.075 263.047 165.304 262.965 164.775C262.87 164.16 262.735 163.554 262.599 162.948C262.211 161.226 261.625 159.588 260.804 158.05C259.264 155.164 257.008 152.904 254.159 151.588C251.014 150.136 247.455 149.804 244.072 150.098C240.451 150.413 237.689 150.913 233.545 154.537C229.4 158.161 230.247 160.383 227.206 163.894C224.164 167.406 220.485 166.672 217.59 164.775C214.625 162.833 212.029 161.57 208.525 161.862C205.254 162.134 202.52 161.956 199.815 163.894C197.284 165.707 195.875 166.298 194.696 169.368C193.428 172.67 193.911 180.747 195.996 183.666C199.019 187.896 202.625 188.599 207.294 188.49C209.995 188.427 213.884 187.783 216.433 186.82C219.833 185.536 222.183 184.456 224.133 180.746C226.011 177.174 226.011 172.204 226.011 169.368C226.011 166.531 229.383 163.894 231.851 164.775C234.318 165.655 233.697 166.03 235.417 166.704C237.067 167.351 238.814 167.713 240.572 167.699C243.992 167.67 247.363 166.526 250.685 165.759C253.393 165.134 256.291 164.511 259.053 165.112C260.205 165.363 261.888 165.88 262.304 167.167C255.3 168.53 252.549 177.835 254.523 184.666C255.589 188.353 261.996 192.662 264.487 190.724C266.065 189.496 265.107 187.884 264.487 186.82C263.299 184.782 262.893 182.165 265.09 180.746C266.985 179.522 268.978 182.428 269.016 182.425C269.537 182.381 274.037 179.647 277.138 175.657C280.198 175.852 280.662 173.685 279.931 171.913C279.201 170.141 274.641 167.911 272.183 167.478Z" fill="#111030"/>
<path fill-rule="evenodd" clip-rule="evenodd" d="M324.425 234.88L304.856 243.361L311.104 251.261L325.761 240.172C333.082 238.845 336.477 237.705 335.946 236.752C335.499 235.949 334.667 235.903 333.9 235.862C333.303 235.829 332.746 235.799 332.441 235.414C331.746 234.535 333.462 231.819 335.202 229.311C336.942 226.803 335.311 226.894 334.356 227.194C331.164 228.947 327.853 231.509 324.425 234.88ZM236.806 247.864L225.738 245.697C218.233 265.22 213.758 275.918 212.314 277.792C211.256 279.166 204.726 282.705 200.307 284.596C198.533 285.354 198.914 286.834 199.434 287.307C202.716 290.292 205.767 289.246 209.088 288.107C210.049 287.777 211.033 287.44 212.052 287.19C214.689 286.544 215.492 287.882 216.25 289.147C216.922 290.266 217.559 291.329 219.404 290.905C219.32 290.547 219.217 290.147 219.106 289.715C218.386 286.922 217.326 282.803 218.899 280.41C219.707 279.182 225.676 268.333 236.806 247.864Z" fill="#B28B67"/>
<path fill-rule="evenodd" clip-rule="evenodd" d="M266.85 204.681L271.525 203.899C281.724 213.632 285.915 236.987 292.707 240.088C294.493 240.903 296.484 241.273 298.662 241.302C304.318 241.378 311.227 239.147 319.031 236.402L322.353 243.685C312.543 254.127 291.624 262.93 283.132 257.875C269.556 249.793 266.382 220.991 266.85 204.681Z" fill="#DA2621"/>
<path fill-rule="evenodd" clip-rule="evenodd" d="M246.619 262.874C246.619 262.874 274.795 262.874 288.07 262.874C289.964 262.874 289.607 260.179 289.334 258.818C286.174 243.119 273.838 226.196 273.838 203.848L261.882 202C251.992 217.677 248.572 236.979 246.619 262.874Z" fill="#DA2621"/>
<path fill-rule="evenodd" clip-rule="evenodd" d="M261.072 202H260.936C234.309 218.292 218.217 243.546 212.66 277.764L221.287 279.442C227.001 272.831 234.053 262.013 242.443 246.987C239.869 256.039 237.99 265.322 237.404 274.101H274.45C281.622 256.105 265.636 202 265.636 202H263.079H261.072Z" fill="#FF4133"/>
<g filter="url(#filter0_d)">
<path fill-rule="evenodd" clip-rule="evenodd" d="M425.18 200.095C428.649 202.254 432.057 203.297 433.657 202.871C437.669 201.804 438.038 186.65 434.934 180.676C431.83 174.701 415.871 172.097 415.066 183.934C414.787 188.042 416.458 191.709 418.926 194.7L414.5 216H427.357L425.18 200.095Z" fill="#FFC0A5"/>
<path fill-rule="evenodd" clip-rule="evenodd" d="M416.212 175.488C406.506 185.34 416.249 195.812 418.919 195.812C419.091 194.39 419.617 193.007 420.387 191.691C419.978 191.142 419.736 190.459 419.736 189.719C419.736 187.905 421.191 186.435 422.986 186.435C423.547 186.435 424.075 186.578 424.535 186.831C428.426 183.39 433.307 180.992 435.73 180.52C439.945 179.7 425.919 165.636 416.212 175.488Z" fill="#191847"/>
<path fill-rule="evenodd" clip-rule="evenodd" d="M409.49 264L429.108 328.562L438.336 377.037H447.597L438.352 264H409.49Z" fill="#B28B67"/>
<path fill-rule="evenodd" clip-rule="evenodd" d="M400.946 264C402.315 297.532 401.775 315.821 401.469 318.868C401.162 321.914 399.422 342.318 387.566 378.033H397.202C412.903 343.77 418.384 323.367 420.185 318.868C421.986 314.368 427.305 296.079 435.07 264H400.946Z" fill="#B28B67"/>
<path fill-rule="evenodd" clip-rule="evenodd" d="M408.969 264C414.075 286.149 422.907 321.504 435.464 370.065H449.019C450.02 320.222 445.761 287.416 438.386 264H408.969Z" fill="#DA2621"/>
<path fill-rule="evenodd" clip-rule="evenodd" d="M400.441 264C401.779 297.431 398.311 330.367 387.566 370.563H401.995C417.694 336.913 428.946 304.14 436.636 264H400.441Z" fill="#FF4133"/>
<path fill-rule="evenodd" clip-rule="evenodd" d="M386 384.469L386.455 377.529C386.496 376.896 387.11 376.46 387.737 376.553C392.349 377.237 398.306 375.281 398.306 375.281C404.186 379.225 412.421 381.234 416.361 382.02C417.559 382.259 418.323 383.478 417.972 384.648L417.568 386H398.306H387.07L386 384.469Z" fill="#C5CFD6"/>
<path fill-rule="evenodd" clip-rule="evenodd" d="M436.113 384.469L436.568 377.529C436.609 376.896 437.223 376.46 437.85 376.553C442.462 377.237 448.419 375.281 448.419 375.281C454.3 379.225 462.534 381.234 466.475 382.02C467.672 382.259 468.436 383.478 468.086 384.648L467.681 386H448.419H437.183L436.113 384.469Z" fill="#C5CFD6"/>
<path fill-rule="evenodd" clip-rule="evenodd" d="M397.386 274C410.146 274 410.802 263.983 410.802 244.015C410.802 224.046 429.265 207 416.506 207C403.746 207 382 224.046 382 244.015C382 263.983 384.627 274 397.386 274Z" fill="#121BB4"/>
<path fill-rule="evenodd" clip-rule="evenodd" d="M475.013 254.9L457.199 241.987L453.318 251.518L470.933 258.774C475.932 264.546 478.723 266.955 479.308 266.002C479.8 265.198 479.409 264.442 479.048 263.746C478.767 263.203 478.505 262.697 478.694 262.232C479.126 261.172 482.467 261.299 485.633 261.553C488.799 261.807 487.87 260.416 487.104 259.728C483.864 257.81 479.834 256.201 475.013 254.9ZM381.831 276.163L395.955 259.294L386.717 254.758L378.251 271.823C372.144 276.407 369.546 279.024 370.456 279.673C371.224 280.22 372.005 279.883 372.725 279.572C373.286 279.329 373.809 279.103 374.26 279.324C375.287 279.829 374.928 283.153 374.453 286.293C373.979 289.434 375.431 288.605 376.171 287.888C378.31 284.79 380.197 280.882 381.831 276.163Z" fill="#FFC0A5"/>
<path fill-rule="evenodd" clip-rule="evenodd" d="M429.787 207.341C439.501 225.089 453.496 238.723 473.762 252.92L466.148 261.387C443.553 253.031 431.625 247.996 425.706 231.241C424.221 227.036 423.138 213.646 422.228 206.599L429.787 207.341Z" fill="#69A1AC"/>
<path fill-rule="evenodd" clip-rule="evenodd" d="M403.094 266.154H446.065C446.065 266.154 431.464 222.656 431.148 206.445C431.137 205.894 430.095 204.923 429.635 205.051C424.579 206.445 418.815 204.008 418.815 204.008C408.628 220.012 405.105 239.717 403.094 266.154Z" fill="#C5CFD6"/>
<path fill-rule="evenodd" clip-rule="evenodd" d="M420.923 279.908H398.186C397.214 273.467 397.191 266.356 397.847 259.075C394.517 263.383 391.282 268.148 388.295 273.443L378.236 266.259C384.664 241.581 393.722 219.271 410.617 210.613C411.365 208.969 412.117 207.428 412.864 206.006C413.2 205.367 413.916 204.161 415.601 204.161H422.208C434.978 242.105 439.742 279.908 420.923 279.908Z" fill="#89C5CC"/>
<path fill-rule="evenodd" clip-rule="evenodd" d="M404.578 211.412L409.321 207C409.321 207 412.692 219.621 412.914 227.009C413.136 234.397 413.173 235.697 409.855 245.121C406.536 254.544 402 258 402 258C402 258 405.693 241.234 406.231 231.52C406.768 221.806 404.578 211.412 404.578 211.412Z" fill="#1F28CF"/>
</g>
<g filter="url(#filter1_d)">
<path fill-rule="evenodd" clip-rule="evenodd" d="M169.205 306C167.742 306 166.295 305.373 165.365 304.191L148.916 283.273C147.634 281.645 147.704 279.418 149.083 277.861L170.58 253.608C172.249 251.726 175.242 251.458 177.268 253.005C179.295 254.557 179.584 257.339 177.917 259.22L158.765 280.83L173.038 298.982C174.586 300.951 174.124 303.712 172.004 305.15C171.159 305.724 170.177 306 169.205 306Z" fill="#2143AF"/>
<path fill-rule="evenodd" clip-rule="evenodd" d="M200.678 306C199.701 306 198.717 305.723 197.868 305.148C195.746 303.707 195.285 300.946 196.838 298.977L211.208 280.776L192.085 259.222C190.414 257.337 190.705 254.556 192.739 253.007C194.77 251.455 197.774 251.729 199.443 253.61L220.915 277.813C222.297 279.372 222.366 281.599 221.081 283.228L204.527 304.193C203.591 305.375 202.146 306 200.678 306Z" fill="#2143AF"/>
<path fill-rule="evenodd" clip-rule="evenodd" d="M200 226.999C200 234.181 193.732 240 186.002 240C178.27 240 172 234.181 172 226.999C172 219.819 178.27 214 186.002 214C193.732 214 200 219.819 200 226.999Z" fill="#191847"/>
<path fill-rule="evenodd" clip-rule="evenodd" d="M189 242.885L188.969 255.049L188.942 263L180 262.979L180.451 243.532L180.578 238L189 242.885Z" fill="#FFC0A5"/>
<path fill-rule="evenodd" clip-rule="evenodd" d="M170.271 261.245C170.305 257.568 173.788 254.01 177.396 252.297C182.798 249.734 191.131 251.519 193.789 252.961C198.309 255.411 201 260.394 200.682 265.517L201 293H169C169 293 170.196 269.607 170.271 261.245Z" fill="#2143AF"/>
<path fill-rule="evenodd" clip-rule="evenodd" d="M193 252.468C188.775 250.847 182.816 250.311 178 252.196L181.566 255.454C183.821 257.515 187.477 257.515 189.732 255.454C190.823 254.46 191.911 253.464 193 252.468Z" fill="#FFC0A5"/>
<path fill-rule="evenodd" clip-rule="evenodd" d="M188.608 220H183.394C178.787 220 174.474 223.497 175.052 227.734C175.471 230.819 175.052 233.132 175.052 237.714C175.052 241.551 179.902 249 184.043 249H187.957C192.099 249 196.948 241.551 196.948 237.714C196.948 233.132 196.528 230.819 196.948 227.734C197.525 223.497 193.212 220 188.608 220Z" fill="#FFC0A5"/>
<path fill-rule="evenodd" clip-rule="evenodd" d="M181 242C181.355 243.707 183.008 245 185.001 245C186.992 245 188.644 243.707 189 242H181Z" fill="#FFFEFF"/>
<path fill-rule="evenodd" clip-rule="evenodd" d="M190.534 321H180.466C173.232 321 167.807 314.666 169.227 307.882L169.832 294H201.168L201.773 307.882C203.193 314.666 197.768 321 190.534 321Z" fill="#566CD3"/>
<path fill-rule="evenodd" clip-rule="evenodd" d="M139.026 304.856L183.723 301L185 313.115L140.301 316.972C136.643 317.289 133.393 314.86 133.042 311.548L133.031 311.425C132.68 308.113 135.366 305.172 139.026 304.856Z" fill="#566CD3"/>
<path fill-rule="evenodd" clip-rule="evenodd" d="M226.455 304.845L181.875 301.098L180.602 312.871L225.183 316.619C228.832 316.928 232.073 314.567 232.421 311.348L232.434 311.229C232.782 308.01 230.105 305.152 226.455 304.845Z" fill="#566CD3"/>
<path fill-rule="evenodd" clip-rule="evenodd" d="M202.783 313H168.218C166.441 313 165 311.676 165 310.042V288.959C165 287.326 166.441 286 168.218 286H202.783C204.561 286 206 287.326 206 288.959V310.042C206 311.676 204.561 313 202.783 313Z" fill="white"/>
<path fill-rule="evenodd" clip-rule="evenodd" d="M202.783 315H168.218C166.441 315 165 313.676 165 312.041V290.959C165 289.326 166.441 288 168.218 288H202.783C204.561 288 206 289.326 206 290.959V312.041C206 313.676 204.561 315 202.783 315Z" fill="#EA3663"/>
<path fill-rule="evenodd" clip-rule="evenodd" d="M189.631 303H180.367C179.061 303 178 302.113 178 301.021V300.979C178 299.886 179.061 299 180.367 299H189.631C190.94 299 192 299.886 192 300.979V301.021C192 302.113 190.94 303 189.631 303Z" fill="white"/>
<path fill-rule="evenodd" clip-rule="evenodd" d="M167.677 326.181L180.465 325.451L180.426 325.675C180.302 326.383 180.889 327.02 181.642 327C182.217 326.984 182.701 326.586 182.795 326.045L182.921 325.311L184.358 325.228L184.298 325.576C184.177 326.284 184.76 326.919 185.515 326.902C186.091 326.887 186.573 326.486 186.667 325.946L186.817 325.089L194.859 324.629C195.031 324.569 195.195 324.486 195.356 324.384C195.671 324.319 195.984 324.242 196.296 324.136C199.996 322.863 201.912 318.983 200.573 315.468C199.235 311.952 195.148 310.134 191.448 311.406C191.42 311.414 191.394 311.428 191.37 311.437C191.355 311.44 191.34 311.441 191.326 311.446L165.939 320.172C165.535 320.308 165.183 320.548 164.876 320.852C162.804 322.914 164.679 326.35 167.677 326.181Z" fill="white"/>
<path fill-rule="evenodd" clip-rule="evenodd" d="M189.42 321.711C188.104 318.336 189.984 314.61 193.619 313.39C197.253 312.168 201.266 313.914 202.581 317.29C203.895 320.664 202.014 324.389 198.382 325.61C194.748 326.832 190.735 325.085 189.42 321.711Z" fill="#F7B75D"/>
<path fill-rule="evenodd" clip-rule="evenodd" d="M165.923 321.999L191.123 313.294C193.786 312.372 196.725 313.69 197.691 316.233C198.654 318.777 197.293 325.526 194.629 326.447L167.649 327.994C164.674 328.165 162.811 324.735 164.871 322.677C165.174 322.373 165.524 322.136 165.923 321.999Z" fill="#C5CFD6"/>
<path fill-rule="evenodd" clip-rule="evenodd" d="M187.701 324C188.495 323.985 189.113 324.51 188.983 325.089L188.512 327.215C188.413 327.659 187.903 327.987 187.299 328C186.503 328.015 185.887 327.493 186.017 326.911L186.488 324.786C186.587 324.342 187.095 324.013 187.701 324Z" fill="white"/>
<path fill-rule="evenodd" clip-rule="evenodd" d="M182.703 324C183.497 323.984 184.113 324.509 183.983 325.088L183.512 327.215C183.415 327.659 182.905 327.988 182.3 328C181.506 328.016 180.887 327.493 181.017 326.912L181.489 324.785C181.587 324.341 182.098 324.013 182.703 324Z" fill="white"/>
<path fill-rule="evenodd" clip-rule="evenodd" d="M223.299 307.178L193.922 314.825C191.098 315.56 189.423 318.37 190.183 321.104L190.212 321.206C190.971 323.938 193.877 325.559 196.702 324.822L226.08 317.175C228.902 316.44 230.577 313.63 229.817 310.896L229.788 310.794C229.03 308.062 226.125 306.441 223.299 307.178Z" fill="#FFC0A5"/>
<path fill-rule="evenodd" clip-rule="evenodd" d="M197.324 326.181L184.535 325.451L184.574 325.675C184.698 326.383 184.11 327.02 183.357 327C182.783 326.984 182.3 326.586 182.205 326.045L182.079 325.311L180.64 325.228L180.702 325.576C180.824 326.284 180.239 326.919 179.486 326.902C178.908 326.887 178.425 326.486 178.333 325.946L178.183 325.089L170.139 324.629C169.969 324.569 169.805 324.486 169.644 324.384C169.331 324.319 169.014 324.242 168.704 324.136C165.004 322.863 163.088 318.983 164.427 315.468C165.765 311.952 169.852 310.134 173.553 311.406C173.58 311.414 173.606 311.428 173.631 311.437C173.645 311.44 173.658 311.441 173.674 311.446L199.061 320.172C199.464 320.308 199.816 320.548 200.123 320.852C202.197 322.914 200.321 326.35 197.324 326.181Z" fill="white"/>
<path fill-rule="evenodd" clip-rule="evenodd" d="M141.701 307.178L171.079 314.825C173.905 315.56 175.576 318.37 174.817 321.104L174.79 321.206C174.03 323.938 171.124 325.559 168.301 324.822L138.921 317.175C136.097 316.44 134.424 313.63 135.183 310.896L135.21 310.794C135.97 308.062 138.876 306.441 141.701 307.178Z" fill="#FFC0A5"/>
<path fill-rule="evenodd" clip-rule="evenodd" d="M198.075 321.999L172.877 313.294C170.214 312.372 167.273 313.69 166.309 316.233C165.346 318.777 166.707 325.526 169.371 326.447L196.351 327.994C199.324 328.165 201.189 324.735 199.129 322.677C198.825 322.373 198.477 322.136 198.075 321.999Z" fill="#C5CFD6"/>
<path fill-rule="evenodd" clip-rule="evenodd" d="M178.299 324C177.506 323.985 176.889 324.51 177.017 325.089L177.487 327.215C177.586 327.659 178.097 327.987 178.701 328C179.494 328.015 180.113 327.493 179.983 326.911L179.511 324.786C179.413 324.342 178.904 324.013 178.299 324Z" fill="white"/>
<path fill-rule="evenodd" clip-rule="evenodd" d="M181.298 324C180.504 323.984 179.889 324.509 180.017 325.088L180.487 327.215C180.587 327.659 181.096 327.988 181.702 328C182.495 328.016 183.113 327.493 182.983 326.912L182.512 324.785C182.413 324.341 181.903 324.013 181.298 324Z" fill="white"/>
<path fill-rule="evenodd" clip-rule="evenodd" d="M186.338 214C177.046 214 169 222.783 169 222.783C180.577 229.136 188.723 224.47 191.527 222.413C192.342 221.817 194 220.56 194 218.908L186.338 214Z" fill="#191847"/>
</g>
<defs>
<filter id="filter0_d" x="350.279" y="154" width="157.571" height="254" filterUnits="userSpaceOnUse" color-interpolation-filters="sRGB">
<feFlood flood-opacity="0" result="BackgroundImageFix"/>
<feColorMatrix in="SourceAlpha" type="matrix" values="0 0 0 0 0 0 0 0 0 0 0 0 0 0 0 0 0 0 127 0"/>
<feOffset dy="2"/>
<feGaussianBlur stdDeviation="10"/>
<feColorMatrix type="matrix" values="0 0 0 0 0 0 0 0 0 0 0 0 0 0 0 0 0 0 0.1 0"/>
<feBlend mode="normal" in2="BackgroundImageFix" result="effect1_dropShadow"/>
<feBlend mode="normal" in="SourceGraphic" in2="effect1_dropShadow" result="shape"/>
</filter>
<filter id="filter1_d" x="113" y="196" width="139.464" height="154" filterUnits="userSpaceOnUse" color-interpolation-filters="sRGB">
<feFlood flood-opacity="0" result="BackgroundImageFix"/>
<feColorMatrix in="SourceAlpha" type="matrix" values="0 0 0 0 0 0 0 0 0 0 0 0 0 0 0 0 0 0 127 0"/>
<feOffset dy="2"/>
<feGaussianBlur stdDeviation="10"/>
<feColorMatrix type="matrix" values="0 0 0 0 0 0 0 0 0 0 0 0 0 0 0 0 0 0 0.1 0"/>
<feBlend mode="normal" in2="BackgroundImageFix" result="effect1_dropShadow"/>
<feBlend mode="normal" in="SourceGraphic" in2="effect1_dropShadow" result="shape"/>
</filter>
</defs>
</svg>
