<svg xmlns="http://www.w3.org/2000/svg" fill="none" viewBox="0 0 589 418"><path fill="#212D5F" fill-rule="evenodd" d="M130 391h348v-6H130v6z" clip-rule="evenodd"/><path fill="#254380" fill-rule="evenodd" d="M227 309l1 76h-66l-1-76h66z" clip-rule="evenodd"/><path fill="#3565C7" fill-rule="evenodd" d="M316 283l1 102h-89l-1-102h89z" clip-rule="evenodd"/><path fill="#96B2EA" fill-rule="evenodd" d="M371 322l1 63h-55l-1-63h55z" clip-rule="evenodd"/><path fill="#fff" fill-rule="evenodd" d="M192 347h5l-2-8h-1l-2 8zm12-19l11 31h-14l-1-5h-11l-1 5h-14l11-31h19zM272 354h1l4-1 1-3c0-3-2-4-5-4h-1v8zm0-14h3l1-1 1-1v-2l-1-2-3-1h-1v7zm7-15c4 0 8 1 10 3 3 2 4 4 4 8l-1 4-4 4 5 3 1 5c0 4-1 6-3 8l-9 3h-26v-38h23zM347 336a31 31 0 0 1 15 4l-7 12a18 18 0 0 0-6-1l-4 1-1 2 1 2 4 1a16 16 0 0 0 6-1l7 13-7 3-8 1-10-2c-3-2-6-4-7-7l-3-9a18 18 0 0 1 10-17l10-2z" clip-rule="evenodd"/><path fill="#B28B67" fill-rule="evenodd" d="M317 311l13 35 7-2c-6-35-10-58-13-65-2-5-16-4-14 5l7 27zm-27-25c-11 2-33 10-39 12-4 2-2 7 2 7l5-1 45-5c8-2 4-17-4-15l-9 2z" clip-rule="evenodd"/><path fill="#C5CFD6" fill-rule="evenodd" d="M326 351v-7l2-1c4 1 10-1 10-1 6 4 14 6 18 6 2 1 2 2 2 3v1h-31l-1-1zM244 296h7l1 1 2 11c-3 6-5 14-5 18l-3 2h-1l-2-19v-12l1-1z" clip-rule="evenodd"/><path fill="#1F28CF" fill-rule="evenodd" d="M323 275c-1-3-50-16-50-16h-4v4l34 17v2c0 13 5 22 11 32 3 6 7 12 9 19l12-2-2-11c-2-14-5-38-10-45z" clip-rule="evenodd"/><path fill="#2B44FF" fill-rule="evenodd" d="M318 297c-5 3-39-5-54-8-16-3-21-11-18-30h29l42 17c9 4 6 18 1 21z" clip-rule="evenodd"/><path fill="#2B44FF" fill-rule="evenodd" d="M260 294l42-14c5-1 17 16 14 17-26 11-46 5-53 7l-3-10z" clip-rule="evenodd"/><path fill="#B28B67" fill-rule="evenodd" d="M270 196l9 3c4-1 4-18 1-25-3-6-20-9-21 4 0 5 2 9 4 12l-5 23h14l-2-17z" clip-rule="evenodd"/><path fill="#111030" fill-rule="evenodd" d="M272 167h-9v-2a28 28 0 0 0-2-7c-2-3-4-5-7-6-3-2-7-2-10-2-4 0-6 1-10 5-5 3-4 5-7 9-3 3-7 3-9 1l-9-3c-4 0-6 0-9 2s-4 2-5 5c-2 4-1 12 1 15 3 4 7 5 11 4l9-1c4-1 6-3 8-6 2-4 2-9 2-12 0-2 3-5 6-4l3 2 6 1 10-2 8-1 3 2c-7 2-9 11-7 18 1 3 7 8 9 6s1-3 0-4c-1-2-1-5 1-6s4 1 4 1c1 0 5-2 8-6 3 0 4-2 3-4s-5-4-8-5z" clip-rule="evenodd"/><path fill="#B28B67" fill-rule="evenodd" d="M324 235l-19 8 6 8 15-11c7-1 10-2 10-3l-2-1-2-1 3-6c2-2 0-2-1-2l-10 8zm-87 13l-11-2c-8 19-12 30-14 32l-12 7-1 2c4 3 7 2 10 1l3-1c3 0 3 1 4 2l3 2v-1c-1-3-2-7 0-10l18-32z" clip-rule="evenodd"/><path fill="#DA2621" fill-rule="evenodd" d="M267 205l5-1c10 10 14 33 21 36l6 1c5 0 12-2 20-5l3 8c-9 10-30 19-39 14-13-8-17-37-16-53z" clip-rule="evenodd"/><path fill="#DA2621" fill-rule="evenodd" d="M247 263h41c2 0 2-3 1-4-3-16-15-33-15-55l-12-2c-10 16-13 35-15 61z" clip-rule="evenodd"/><path fill="#FF4133" fill-rule="evenodd" d="M261 202c-27 16-43 42-48 76l8 1c6-6 13-17 21-32l-5 27h37c8-18-8-72-8-72h-5z" clip-rule="evenodd"/><g fill-rule="evenodd" clip-rule="evenodd"><path fill="#FFC0A5" d="M425 200l9 3c4-1 4-16 1-22s-19-9-20 3c0 4 1 8 4 11l-4 21h12l-2-16z"/><path fill="#191847" d="M416 175c-9 10 0 21 3 21l1-4a3 3 0 0 1 3-6l2 1c3-4 8-6 11-6 4-1-10-15-20-6z"/><path fill="#B28B67" d="M409 264l20 65 9 48h10l-10-113h-29z"/><path fill="#B28B67" d="M401 264v55c0 3-2 23-13 59h9c16-34 21-55 23-59l15-55h-34z"/><path fill="#DA2621" d="M409 264l26 106h14c1-50-3-83-11-106h-29z"/><path fill="#FF4133" d="M400 264c2 33-2 66-12 107h14c16-34 27-67 35-107h-37z"/><path fill="#C5CFD6" d="M386 384v-6c0-1 1-2 2-1l10-2c6 4 14 6 18 7 2 0 2 1 2 3v1h-31l-1-2zM436 384l1-6c0-1 0-2 1-1l10-2c6 4 15 6 18 7 2 0 2 1 2 3v1h-31l-1-2z"/><path fill="#121BB4" d="M397 274c13 0 14-10 14-30s18-37 6-37c-13 0-35 17-35 37s3 30 15 30z"/><path fill="#FFC0A5" d="M475 255l-18-13-4 10 18 7c5 6 8 8 8 7v-2-2h7c3 0 2-2 1-2l-12-5zm-93 21l14-17-9-4-9 17c-6 4-8 7-8 8h3l1-1v7c0 3 1 3 2 2l6-12z"/><path fill="#69A1AC" d="M430 207c10 18 23 32 44 46l-8 8c-22-8-34-13-40-30-2-4-3-17-4-24h8z"/><path fill="#C5CFD6" d="M403 266h43s-15-43-15-60l-1-1c-5 1-11-1-11-1-10 16-14 36-16 62z"/><path fill="#89C5CC" d="M421 280h-23v-21l-10 14-10-7c7-24 16-47 33-55l2-5c0-1 1-2 3-2h6c13 38 18 76-1 76z"/><path fill="#1F28CF" d="M405 211l4-4s4 13 4 20 0 9-3 18c-3 10-8 13-8 13s4-17 4-26c1-10-1-21-1-21z"/></g><g fill-rule="evenodd" clip-rule="evenodd"><path fill="#2143AF" d="M169 306l-4-2-16-21v-5l22-24c1-2 4-3 6-1s3 4 1 6l-19 22 14 18c2 2 1 5-1 6l-3 1zM201 306l-3-1c-2-1-3-4-1-6l14-18-19-22c-2-2-1-4 1-6s5-1 6 1l22 24v5l-16 21-4 2z"/><path fill="#191847" d="M200 227c0 7-6 13-14 13s-14-6-14-13 6-13 14-13 14 6 14 13z"/><path fill="#FFC0A5" d="M189 243v20h-9v-19l1-6 8 5z"/><path fill="#2143AF" d="M170 261c0-3 4-7 7-9 6-2 14 0 17 1 4 2 7 7 7 13v27h-32l1-32z"/><path fill="#FFC0A5" d="M193 252c-4-1-10-2-15 0l4 3c2 3 5 3 8 0l3-3zM189 220h-6c-4 0-9 3-8 8v10c0 4 5 11 9 11h4c4 0 9-7 9-11v-10c1-5-4-8-8-8z"/><path fill="#FFFEFF" d="M181 242c0 2 2 3 4 3s4-1 4-3h-8z"/><path fill="#566CD3" d="M191 321h-11c-7 0-12-6-11-13l1-14h31l1 14c1 7-4 13-11 13z"/><path fill="#566CD3" d="M139 305l45-4 1 12-45 4c-3 0-7-2-7-5v-1c0-3 2-6 6-6z"/><path fill="#566CD3" d="M226 305l-44-4-1 12 44 4c4 0 7-2 7-6 1-3-2-6-6-6z"/><path fill="#fff" d="M203 313h-35c-2 0-3-1-3-3v-21c0-2 1-3 3-3h35c2 0 3 1 3 3v21c0 2-1 3-3 3z"/><path fill="#EA3663" d="M203 315h-35c-2 0-3-1-3-3v-21c0-2 1-3 3-3h35c2 0 3 1 3 3v21c0 2-1 3-3 3z"/><path fill="#fff" d="M190 303h-10l-2-2 2-2h10l2 2-2 2zM168 326l12-1v1l2 1 1-1v-1h1v1l2 1 1-1v-1h8v-1h1c4-1 6-5 5-9-2-3-6-5-10-4l-25 9-1 1c-2 2 0 5 3 5z"/><path fill="#F7B75D" d="M189 322c-1-4 1-7 5-9 3-1 7 1 9 4 1 4-1 7-5 9-3 1-7-1-9-4z"/><path fill="#C5CFD6" d="M166 322l25-9c3-1 6 1 7 3 1 3-1 10-3 10l-27 2c-3 0-5-3-3-5l1-1z"/><path fill="#fff" d="M188 324l1 1v2l-2 1-1-1v-2l2-1zM183 324l1 1v2l-2 1-1-1v-2l2-1z"/><path fill="#FFC0A5" d="M223 307l-29 8c-3 1-5 3-4 6s4 5 7 4l29-8c3-1 5-3 4-6s-4-5-7-4z"/><path fill="#fff" d="M197 326l-12-1v1l-2 1-1-1v-1h-1v1l-2 1-1-1v-1h-8v-1h-1c-4-1-6-5-5-9 2-3 6-5 10-4l25 9 1 1c2 2 0 5-3 5z"/><path fill="#FFC0A5" d="M142 307l29 8c3 1 5 3 4 6s-4 5-7 4l-29-8c-3-1-5-3-4-6s4-5 7-4z"/><path fill="#C5CFD6" d="M198 322l-25-9c-3-1-6 1-7 3-1 3 1 10 3 10l27 2c3 0 5-3 3-5l-1-1z"/><path fill="#fff" d="M178 324l-1 1v2l2 1 1-1v-2l-2-1zM181 324l-1 1v2l2 1 1-1v-2l-2-1z"/><path fill="#191847" d="M186 214c-9 0-17 9-17 9 12 6 20 1 23-1 0 0 2-1 2-3l-8-5z"/></g></svg>