<svg width="749" height="671" viewBox="0 0 749 671" fill="none" xmlns="http://www.w3.org/2000/svg">
<path opacity="0.426121" fill-rule="evenodd" clip-rule="evenodd" d="M470.223 130.221C316.307 58.449 154.564 79.5481 108.959 177.347C63.3547 275.147 90.3976 587.012 305.075 484.384C519.751 381.755 620.734 535.057 666.339 437.258C711.943 339.458 624.139 201.993 470.223 130.221Z" fill="#B7C6E0"/>
<g filter="url(#filter0_d)">
<path fill-rule="evenodd" clip-rule="evenodd" d="M599.672 447.148H594.429H580.99H575.75C567.389 447.148 560.588 453.882 560.588 462.159C560.588 463.177 561.421 464.001 562.446 464.001C563.474 464.001 564.305 463.177 564.305 462.159C564.305 455.912 569.436 450.829 575.75 450.829H577.044C573.838 453.583 571.797 457.637 571.797 462.159C571.797 463.177 572.627 464.001 573.655 464.001C574.681 464.001 575.514 463.177 575.514 462.159C575.514 455.912 580.647 450.829 587.014 450.829H588.461C594.772 450.829 599.903 455.912 599.903 462.159C599.903 463.177 600.736 464.001 601.764 464.001C602.788 464.001 603.62 463.177 603.62 462.159C603.62 457.637 601.582 453.583 598.365 450.829H599.672C605.979 450.829 611.112 455.912 611.112 462.159C611.112 463.177 611.945 464.001 612.971 464.001C613.999 464.001 614.829 463.177 614.829 462.159C614.829 453.882 608.03 447.148 599.672 447.148Z" fill="#1F28CF"/>
<path fill-rule="evenodd" clip-rule="evenodd" d="M585 452H591V385H585V452Z" fill="#1F28CF"/>
<path fill-rule="evenodd" clip-rule="evenodd" d="M617.631 388H559.372C556.958 388 555 385.986 555 383.5C555 381.014 556.958 379 559.372 379H617.631C620.042 379 622 381.014 622 383.5C622 385.986 620.042 388 617.631 388Z" fill="#EA3663"/>
<path fill-rule="evenodd" clip-rule="evenodd" d="M513.322 463C514.405 463 515.205 461.975 514.954 460.906L484.657 332H478L511.697 461.733C511.893 462.479 512.561 463 513.322 463Z" fill="#1B3874"/>
<path fill-rule="evenodd" clip-rule="evenodd" d="M567.381 272.43L587 274L580.983 240.186L573.361 246.804L567.381 272.43Z" fill="#FFC0A5"/>
<path fill-rule="evenodd" clip-rule="evenodd" d="M552.157 232.955C551.093 234.927 550.785 237.238 551.142 239.461L551.484 241.408C551.514 241.493 551.539 241.58 551.571 241.665L552.471 247.053C553.781 254.547 557.824 259.116 561.098 260.534C562.779 261.262 569.004 259.43 573 255.642C576.788 252.051 582.42 243.618 581.776 239.936L580.612 233.276C580.608 233.263 574.249 223.241 557.824 228.076C554.873 229.131 553.153 231.109 552.157 232.955Z" fill="#FFC0A5"/>
<path fill-rule="evenodd" clip-rule="evenodd" d="M538.475 324.603C541.293 326.827 545.38 326.344 547.602 323.524C549.828 320.706 549.343 316.619 546.525 314.397C543.707 312.173 539.62 312.656 537.396 315.474C535.174 318.292 535.655 322.381 538.475 324.603Z" fill="#FFC0A5"/>
<path fill-rule="evenodd" clip-rule="evenodd" d="M536 318.84L548.089 323L564.1 280.899C566.371 276.419 564.172 270.951 559.439 269.327C554.706 267.699 546.119 272.42 545.188 277.363L536 318.84Z" fill="#FFC0A5"/>
<path fill-rule="evenodd" clip-rule="evenodd" d="M473.56 454H468L476.864 435H485L473.56 454Z" fill="#C8987E"/>
<path fill-rule="evenodd" clip-rule="evenodd" d="M525.631 370H576L568.761 349L512.273 353.536C504.957 354.821 499.414 360.393 498.234 367.258L467 449.727L480.196 453L527 370.314L525.631 370Z" fill="#DDDDDD"/>
<path fill-rule="evenodd" clip-rule="evenodd" d="M536 452H530.331L526 435H534.296L536 452Z" fill="#C8987E"/>
<path fill-rule="evenodd" clip-rule="evenodd" d="M529.488 451L534.019 452.934L538.225 451L542 463H507C507 457.001 520.158 457.001 520.158 457.001L529.488 451Z" fill="#1B3874"/>
<path fill-rule="evenodd" clip-rule="evenodd" d="M467.49 451L472.021 452.934L476.225 451L480 463H445C445 457.001 458.158 457.001 458.158 457.001L467.49 451Z" fill="#1B3874"/>
<path fill-rule="evenodd" clip-rule="evenodd" d="M513.151 373.634L513 373.603C513 365.376 518.968 358.326 527.186 356.848L568.522 349.004L569.267 349.004L610 349H610.886C612.103 352.297 613.081 356.422 612.995 361.812C612.87 369.659 607.604 374.526 601.615 377.163C597.234 379.094 591.471 379.031 587.267 378.985L587.267 378.985C586.666 378.978 586.097 378.972 585.569 378.972H539.425L539.359 379L539.238 378.975L540 452L526.928 450.272L513.151 373.634Z" fill="#F5F5F5"/>
<path fill-rule="evenodd" clip-rule="evenodd" d="M503 330L541.446 326.867L545 312L503 323.747V330Z" fill="#FFC0A5"/>
<path fill-rule="evenodd" clip-rule="evenodd" d="M610 348.996L597.519 262L553.164 266.141L551.003 278.429C550.689 300.348 573.967 338.082 568.284 349L610 348.996Z" fill="#EA3663"/>
<path fill-rule="evenodd" clip-rule="evenodd" d="M539 305.261L556.661 310L566.095 281.053C568.817 274.83 565.144 267.675 558.493 266.243C552.811 265.022 547.182 268.513 545.77 274.14L539 305.261Z" fill="#EA3663"/>
<path fill-rule="evenodd" clip-rule="evenodd" d="M567 332L606.727 328.451L609 314L567 325.747V332Z" fill="#FFC0A5"/>
<path fill-rule="evenodd" clip-rule="evenodd" d="M605.026 327.931C608.856 328.47 612.394 325.802 612.931 321.974C613.468 318.146 610.801 314.608 606.972 314.069C603.146 313.532 599.606 316.199 599.069 320.028C598.53 323.856 601.198 327.396 605.026 327.931Z" fill="#FFC0A5"/>
<path fill-rule="evenodd" clip-rule="evenodd" d="M567 325.832L561.6 324.447C557.216 323.32 552.56 324.352 549.051 327.226L542 333L567 332.208V325.832Z" fill="#FFC0A5"/>
<path fill-rule="evenodd" clip-rule="evenodd" d="M599.337 320L614 319.593L607.796 273.463C607.698 268.458 603.307 266.363 598.259 267.167C593.21 267.972 587.73 276.168 589.261 280.942L599.337 320Z" fill="#FFC0A5"/>
<path fill-rule="evenodd" clip-rule="evenodd" d="M594.389 307L612 303.86L607.996 271.83C607.569 265.21 601.184 260.639 594.776 262.367C589.301 263.841 585.986 269.389 587.279 274.902L594.389 307Z" fill="#EA3663"/>
<path fill-rule="evenodd" clip-rule="evenodd" d="M631.046 334H430.956C429.323 334 428 332.659 428 331.001C428 329.343 429.323 328 430.956 328H631.046C632.679 328 634 329.343 634 331.001C634 332.659 632.679 334 631.046 334Z" fill="#1B3874"/>
<path fill-rule="evenodd" clip-rule="evenodd" d="M415.68 463C414.595 463 413.795 461.975 414.046 460.906L444.343 332H451L417.303 461.733C417.107 462.479 416.441 463 415.68 463Z" fill="#1B3874"/>
<path fill-rule="evenodd" clip-rule="evenodd" d="M652.32 463C653.405 463 654.205 461.975 653.954 460.906L623.655 332H617L650.697 461.733C650.891 462.479 651.559 463 652.32 463Z" fill="#1B3874"/>
<path fill-rule="evenodd" clip-rule="evenodd" d="M553.68 463C552.595 463 551.795 461.975 552.046 460.906L582.345 332H589L555.303 461.733C555.109 462.479 554.441 463 553.68 463Z" fill="#1B3874"/>
<path fill-rule="evenodd" clip-rule="evenodd" d="M565 265.004L565.355 266.152C566.771 270.814 571.058 274 575.919 274C581.608 274 586.367 269.664 586.907 263.982L587 263L565 265.004Z" fill="#FFC0A5"/>
<path fill-rule="evenodd" clip-rule="evenodd" d="M525 326H476.871L462 297H510.131L525 326Z" fill="#1F28CF"/>
<path fill-rule="evenodd" clip-rule="evenodd" d="M481 328H542V326H481V328Z" fill="#1F28CF"/>
<path fill-rule="evenodd" clip-rule="evenodd" d="M553.455 222.849C555.306 221 558.392 219.067 559.823 218.504C558.078 217.073 556.684 215.187 555.872 213.06C555.083 210.994 555.071 208.883 554.953 206.728C554.898 205.734 554.895 204.719 555.195 203.778C555.5 202.819 556.086 201.981 556.826 201.337C557.583 200.678 558.494 200.214 559.455 199.936C559.88 199.813 560.316 199.806 560.743 199.704C561.18 199.599 561.239 199.26 561.389 198.87C561.751 197.93 562.584 197.119 563.379 196.564C564.271 195.942 565.337 195.56 566.413 195.39C567.461 195.224 568.575 195.267 569.599 195.649C570.055 195.819 570.508 196.047 570.891 196.362C571.048 196.491 571.112 196.583 571.309 196.556C571.492 196.531 571.672 196.437 571.858 196.407C573.659 196.112 575.592 196.597 577.107 197.734C577.992 198.397 579.015 199.848 579.888 201.62C580.761 203.392 581.606 208.778 581.016 211.22C580.489 213.4 579.077 215.404 577.44 216.823C579.43 217.58 581.193 218.909 582.758 220.383C584.458 221.983 585.946 223.794 587.196 225.781C588.384 227.669 589.502 229.739 590.063 231.906C590.588 233.932 590.451 235.896 589.411 237.649C588.934 238.452 588.348 239.177 587.742 239.877C587.145 240.566 586.541 241.249 585.841 241.83C584.516 242.929 582.771 243.789 580.994 243.213C580.353 243.006 579.613 242.711 579.034 242.349C578.826 242.219 578.695 242.131 578.729 241.877C578.77 241.574 578.936 241.27 579.047 240.99C579.683 239.395 579.703 237.706 579.056 236.054C578.4 234.379 576.893 232.568 574.993 232.695C572.647 232.852 571.081 234.936 569.881 236.741C567.823 234.596 565.146 233.104 562.227 233.171C558.998 233.244 555.995 234.648 552.792 234.941C551.958 235.017 551.09 235.062 550.277 234.745C549.938 234.613 549.523 234.427 549.268 234.149C548.933 233.784 549.017 233.283 549.052 232.841C549.24 230.494 551.604 224.697 553.455 222.849Z" fill="#191847"/>
</g>
<path opacity="0.265455" fill-rule="evenodd" clip-rule="evenodd" d="M437.932 423.492C440.206 429.075 385.058 432.717 337.592 430.175C290.125 427.634 268.349 417.709 291 412.421C313.65 407.132 435.658 417.908 437.932 423.492Z" fill="#212D5F"/>
<g filter="url(#filter1_d)">
<path fill-rule="evenodd" clip-rule="evenodd" d="M345.257 404C343.652 404 342.065 403.268 341.046 401.889L323.005 377.485C321.599 375.586 321.676 372.987 323.188 371.172L346.765 342.876C348.595 340.68 351.878 340.368 354.1 342.173C356.324 343.983 356.64 347.229 354.812 349.423L333.807 374.635L349.461 395.812C351.159 398.109 350.653 401.33 348.327 403.008C347.4 403.678 346.323 404 345.257 404Z" fill="#2143AF"/>
<path fill-rule="evenodd" clip-rule="evenodd" d="M379.614 404C378.543 404 377.464 403.676 376.533 403.006C374.205 401.324 373.7 398.104 375.403 395.807L391.163 374.572L370.19 349.425C368.357 347.227 368.676 343.982 370.907 342.175C373.135 340.364 376.429 340.684 378.26 342.878L401.81 371.115C403.326 372.934 403.401 375.532 401.992 377.433L383.836 401.892C382.81 403.271 381.224 404 379.614 404Z" fill="#2143AF"/>
<path fill-rule="evenodd" clip-rule="evenodd" d="M378 311.999C378 320.286 371.284 327 363.002 327C354.717 327 348 320.286 348 311.999C348 303.714 354.717 297 363.002 297C371.284 297 378 303.714 378 311.999Z" fill="#191847"/>
<path fill-rule="evenodd" clip-rule="evenodd" d="M367 330.667L366.966 344.776L366.935 354L357 353.975L357.501 331.417L357.642 325L367 330.667Z" fill="#FFC0A5"/>
<path fill-rule="evenodd" clip-rule="evenodd" d="M346.39 351.952C346.427 347.662 350.237 343.512 354.183 341.514C360.092 338.523 369.206 340.605 372.113 342.288C377.056 345.146 380 350.96 379.652 356.936L380 389H345C345 389 346.308 361.708 346.39 351.952Z" fill="#2143AF"/>
<path fill-rule="evenodd" clip-rule="evenodd" d="M371 341.713C366.494 339.822 360.137 339.196 355 341.395L358.804 345.196C361.209 347.601 365.109 347.601 367.515 345.196C368.678 344.037 369.839 342.875 371 341.713Z" fill="#FFC0A5"/>
<path fill-rule="evenodd" clip-rule="evenodd" d="M365.845 304H360.157C355.131 304 350.426 308.1 351.057 313.067C351.514 316.684 351.057 319.396 351.057 324.769C351.057 329.267 356.347 338 360.865 338H365.135C369.653 338 374.943 329.267 374.943 324.769C374.943 319.396 374.485 316.684 374.943 313.067C375.573 308.1 370.868 304 365.845 304Z" fill="#FFC0A5"/>
<path fill-rule="evenodd" clip-rule="evenodd" d="M358 330C358.399 331.707 360.259 333 362.501 333C364.741 333 366.599 331.707 367 330H358Z" fill="#FFFEFF"/>
<path fill-rule="evenodd" clip-rule="evenodd" d="M368.492 421H357.508C349.617 421 343.698 413.728 345.248 405.938L345.907 390H380.093L380.752 405.938C382.302 413.728 376.383 421 368.492 421Z" fill="#566CD3"/>
<path fill-rule="evenodd" clip-rule="evenodd" d="M312.489 403.579L360.625 399L362 413.386L313.863 417.967C309.923 418.344 306.423 415.459 306.046 411.526L306.033 411.38C305.656 407.446 308.548 403.954 312.489 403.579Z" fill="#566CD3"/>
<path fill-rule="evenodd" clip-rule="evenodd" d="M406.962 403.566L359.017 399.116L357.647 413.097L405.594 417.548C409.518 417.914 413.004 415.111 413.378 411.288L413.392 411.147C413.767 407.324 410.887 403.93 406.962 403.566Z" fill="#566CD3"/>
<path fill-rule="evenodd" clip-rule="evenodd" d="M381.548 412H344.454C342.546 412 341 410.48 341 408.604V384.398C341 382.522 342.546 381 344.454 381H381.548C383.455 381 385 382.522 385 384.398V408.604C385 410.48 383.455 412 381.548 412Z" fill="white"/>
<path fill-rule="evenodd" clip-rule="evenodd" d="M381.548 414H344.454C342.546 414 341 412.48 341 410.602V386.398C341 384.522 342.546 383 344.454 383H381.548C383.455 383 385 384.522 385 386.398V410.602C385 412.48 383.455 414 381.548 414Z" fill="#EA3663"/>
<path fill-rule="evenodd" clip-rule="evenodd" d="M367.462 401H357.537C356.137 401 355 399.891 355 398.526V398.474C355 397.108 356.137 396 357.537 396H367.462C368.864 396 370 397.108 370 398.474V398.526C370 399.891 368.864 401 367.462 401Z" fill="white"/>
<path fill-rule="evenodd" clip-rule="evenodd" d="M343.975 428.027L357.8 427.161L357.758 427.426C357.624 428.267 358.258 429.023 359.072 428.999C359.694 428.981 360.217 428.509 360.319 427.866L360.456 426.994L362.009 426.895L361.944 427.309C361.813 428.15 362.443 428.904 363.259 428.884C363.882 428.866 364.403 428.39 364.505 427.749L364.667 426.73L373.361 426.185C373.547 426.113 373.724 426.014 373.898 425.893C374.239 425.816 374.578 425.725 374.915 425.599C378.915 424.088 380.986 419.48 379.538 415.306C378.092 411.13 373.674 408.971 369.673 410.482C369.643 410.491 369.615 410.508 369.589 410.519C369.573 410.522 369.557 410.524 369.541 410.53L342.096 420.892C341.659 421.053 341.278 421.339 340.947 421.699C338.707 424.148 340.734 428.228 343.975 428.027Z" fill="white"/>
<path fill-rule="evenodd" clip-rule="evenodd" d="M366.45 422.051C365.04 418.157 367.054 413.857 370.949 412.45C374.842 411.04 379.142 413.054 380.551 416.949C381.959 420.843 379.943 425.141 376.052 426.551C372.159 427.96 367.859 425.944 366.45 422.051Z" fill="#F7B75D"/>
<path fill-rule="evenodd" clip-rule="evenodd" d="M342.093 422.199L369.517 412.333C372.414 411.289 375.613 412.782 376.663 415.664C377.712 418.547 376.23 426.196 373.331 427.24L343.971 428.993C340.734 429.187 338.706 425.299 340.948 422.968C341.277 422.622 341.658 422.354 342.093 422.199Z" fill="#C5CFD6"/>
<path fill-rule="evenodd" clip-rule="evenodd" d="M364.701 425C365.495 424.981 366.113 425.637 365.983 426.361L365.512 429.019C365.413 429.573 364.903 429.984 364.299 430C363.503 430.019 362.887 429.366 363.017 428.639L363.488 425.983C363.587 425.428 364.095 425.016 364.701 425Z" fill="white"/>
<path fill-rule="evenodd" clip-rule="evenodd" d="M359.703 425C360.497 424.98 361.113 425.636 360.983 426.36L360.512 429.019C360.415 429.573 359.905 429.985 359.3 430C358.506 430.02 357.887 429.366 358.017 428.64L358.489 425.981C358.587 425.427 359.098 425.016 359.703 425Z" fill="white"/>
<path fill-rule="evenodd" clip-rule="evenodd" d="M403.797 406.207L372.216 415.13C369.181 415.987 367.38 419.266 368.197 422.455L368.228 422.573C369.044 425.761 372.168 427.652 375.205 426.793L406.786 417.87C409.819 417.013 411.62 413.734 410.803 410.545L410.772 410.427C409.958 407.239 406.834 405.348 403.797 406.207Z" fill="#FFC0A5"/>
<path fill-rule="evenodd" clip-rule="evenodd" d="M375.026 428.027L361.201 427.161L361.243 427.426C361.376 428.267 360.741 429.023 359.926 428.999C359.306 428.981 358.783 428.509 358.682 427.866L358.545 426.994L356.989 426.895L357.056 427.309C357.188 428.15 356.556 428.904 355.741 428.884C355.116 428.866 354.595 428.39 354.495 427.749L354.333 426.73L345.637 426.185C345.453 426.113 345.276 426.014 345.102 425.893C344.763 425.816 344.421 425.725 344.086 425.599C340.085 424.088 338.014 419.48 339.462 415.306C340.908 411.13 345.327 408.971 349.327 410.482C349.357 410.491 349.385 410.508 349.411 410.519C349.427 410.522 349.441 410.524 349.459 410.53L376.904 420.892C377.34 421.053 377.72 421.339 378.052 421.699C380.294 424.148 378.266 428.228 375.026 428.027Z" fill="white"/>
<path fill-rule="evenodd" clip-rule="evenodd" d="M315.204 406.207L346.785 415.13C349.822 415.987 351.62 419.266 350.803 422.455L350.774 422.573C349.957 425.761 346.834 427.652 343.798 426.793L312.215 417.87C309.179 417.013 307.38 413.734 308.197 410.545L308.226 410.427C309.043 407.239 312.166 405.348 315.204 406.207Z" fill="#FFC0A5"/>
<path fill-rule="evenodd" clip-rule="evenodd" d="M376.906 422.199L349.483 412.333C346.586 411.289 343.385 412.782 342.337 415.664C341.288 418.547 342.77 426.196 345.669 427.24L375.029 428.993C378.265 429.187 380.294 425.299 378.053 422.968C377.721 422.622 377.342 422.354 376.906 422.199Z" fill="#C5CFD6"/>
<path fill-rule="evenodd" clip-rule="evenodd" d="M355.299 425C354.506 424.981 353.889 425.637 354.017 426.361L354.487 429.019C354.586 429.573 355.097 429.984 355.701 430C356.494 430.019 357.113 429.366 356.983 428.639L356.511 425.983C356.413 425.428 355.904 425.016 355.299 425Z" fill="white"/>
<path fill-rule="evenodd" clip-rule="evenodd" d="M358.298 425C357.504 424.98 356.889 425.636 357.017 426.36L357.487 429.019C357.587 429.573 358.096 429.985 358.702 430C359.495 430.02 360.113 429.366 359.983 428.64L359.512 425.981C359.413 425.427 358.903 425.016 358.298 425Z" fill="white"/>
<path fill-rule="evenodd" clip-rule="evenodd" d="M363.725 297C353.69 297 345 307.246 345 307.246C357.503 314.658 366.301 309.215 369.329 306.815C370.21 306.12 372 304.653 372 302.726L363.725 297Z" fill="#191847"/>
</g>
<g filter="url(#filter2_d)">
<path fill-rule="evenodd" clip-rule="evenodd" d="M221.397 226.119C225.976 228.818 230.475 230.121 232.587 229.589C237.883 228.254 238.37 209.312 234.273 201.844C230.175 194.377 209.109 191.122 208.047 205.918C207.679 211.053 209.884 215.636 213.142 219.375L207.3 246H224.271L221.397 226.119Z" fill="#FFC0A5"/>
<path fill-rule="evenodd" clip-rule="evenodd" d="M209.56 195.36C196.748 207.675 209.609 220.765 213.133 220.765C213.361 218.988 214.054 217.259 215.071 215.614C214.531 214.928 214.211 214.074 214.211 213.149C214.211 210.881 216.132 209.043 218.502 209.043C219.242 209.043 219.939 209.223 220.546 209.538C225.683 205.238 232.125 202.24 235.324 201.651C240.888 200.625 222.372 183.045 209.56 195.36Z" fill="#191847"/>
<path fill-rule="evenodd" clip-rule="evenodd" d="M201.868 308L225.977 391.084L237.317 453.465H248.698L237.337 308H201.868Z" fill="#B28B67"/>
<path fill-rule="evenodd" clip-rule="evenodd" d="M191.367 308C193.05 351.152 192.386 374.688 192.009 378.608C191.633 382.529 189.495 408.786 174.925 454.747H186.766C206.062 410.655 212.798 384.398 215.011 378.608C217.224 372.818 223.76 349.282 233.302 308H191.367Z" fill="#B28B67"/>
<path fill-rule="evenodd" clip-rule="evenodd" d="M201.227 308C207.502 336.503 218.355 382.001 233.787 444.494H250.445C251.675 380.351 246.441 338.134 237.377 308H201.227Z" fill="#DA2621"/>
<path fill-rule="evenodd" clip-rule="evenodd" d="M190.746 308C192.391 351.022 188.129 393.407 174.925 445.135H192.656C211.949 401.831 225.776 359.656 235.227 308H190.746Z" fill="#FF4133"/>
<path fill-rule="evenodd" clip-rule="evenodd" d="M173 463.029L173.58 453.766C173.62 453.127 174.242 452.689 174.873 452.799C180.574 453.802 188.123 451.206 188.123 451.206C195.645 456.489 206.303 459.074 210.88 459.995C212.062 460.233 212.815 461.429 212.483 462.589L211.794 465H188.123H174.315L173 463.029Z" fill="#C5CFD6"/>
<path fill-rule="evenodd" clip-rule="evenodd" d="M234.585 463.029L235.165 453.766C235.205 453.127 235.827 452.689 236.458 452.799C242.159 453.802 249.708 451.206 249.708 451.206C257.23 456.489 267.888 459.074 272.465 459.995C273.647 460.233 274.4 461.429 274.068 462.589L273.379 465H249.708H235.9L234.585 463.029Z" fill="#C5CFD6"/>
<path fill-rule="evenodd" clip-rule="evenodd" d="M185.148 321C200.197 321 200.972 308.143 200.972 282.511C200.972 256.88 222.749 235 207.699 235C192.649 235 167 256.88 167 282.511C167 308.143 170.098 321 185.148 321Z" fill="#121BB4"/>
<path fill-rule="evenodd" clip-rule="evenodd" d="M281.92 294.898L259.892 278.774L255.04 290.749L276.845 299.776C283.018 306.995 286.468 310.005 287.196 308.807C287.81 307.797 287.328 306.85 286.884 305.978C286.539 305.298 286.216 304.664 286.452 304.081C286.992 302.748 291.133 302.893 295.057 303.198C298.981 303.503 297.835 301.763 296.888 300.903C292.881 298.511 287.891 296.509 281.92 294.898ZM166.522 321.552L184.143 300.702L172.536 295.027L162.01 316.15C154.378 321.803 151.134 325.035 152.279 325.845C153.244 326.528 154.222 326.114 155.123 325.732C155.825 325.434 156.48 325.156 157.046 325.433C158.337 326.064 157.903 330.185 157.325 334.078C156.747 337.971 158.563 336.95 159.487 336.065C162.153 332.234 164.498 327.396 166.522 321.552Z" fill="#FFC0A5"/>
<path fill-rule="evenodd" clip-rule="evenodd" d="M225.995 235.299C237.961 257.524 255.253 274.568 280.315 292.291L270.839 302.947C242.864 292.561 228.099 286.296 220.834 265.301C219.01 260.031 217.725 243.237 216.627 234.401L225.995 235.299Z" fill="#69A1AC"/>
<path fill-rule="evenodd" clip-rule="evenodd" d="M192.84 309.048H246.061C246.061 309.048 227.978 254.427 227.586 234.071C227.573 233.379 226.282 232.16 225.712 232.319C219.451 234.071 212.312 231.01 212.312 231.01C199.695 251.107 195.331 275.85 192.84 309.048Z" fill="#C5CFD6"/>
<path fill-rule="evenodd" clip-rule="evenodd" d="M214.923 326.318H186.762C185.56 318.242 185.53 309.326 186.339 300.198C182.275 305.496 178.334 311.352 174.7 317.855L162.1 308.805C169.903 278.06 181.008 250.291 202.007 239.641C202.984 237.45 203.966 235.402 204.942 233.519C205.358 232.716 206.244 231.202 208.331 231.202H216.514C219.926 241.481 222.877 251.752 225.172 261.54C225.176 261.542 225.179 261.545 225.183 261.548C225.181 261.551 225.178 261.553 225.176 261.555C233.517 297.13 233.2 326.318 214.923 326.318Z" fill="#89C5CC"/>
<path fill-rule="evenodd" clip-rule="evenodd" d="M196.281 240.709L202.318 235C202.318 235 206.608 251.333 206.89 260.894C207.173 270.455 207.221 272.138 202.997 284.332C198.774 296.527 193 301 193 301C193 301 197.701 279.302 198.385 266.731C199.069 254.161 196.281 240.709 196.281 240.709Z" fill="#1F28CF"/>
</g>
<defs>
<filter id="filter0_d" x="394" y="172.791" width="280" height="313.21" filterUnits="userSpaceOnUse" color-interpolation-filters="sRGB">
<feFlood flood-opacity="0" result="BackgroundImageFix"/>
<feColorMatrix in="SourceAlpha" type="matrix" values="0 0 0 0 0 0 0 0 0 0 0 0 0 0 0 0 0 0 127 0"/>
<feOffset dy="2"/>
<feGaussianBlur stdDeviation="10"/>
<feColorMatrix type="matrix" values="0 0 0 0 0 0 0 0 0 0 0 0 0 0 0 0 0 0 0.1 0"/>
<feBlend mode="normal" in2="BackgroundImageFix" result="effect1_dropShadow"/>
<feBlend mode="normal" in="SourceGraphic" in2="effect1_dropShadow" result="shape"/>
</filter>
<filter id="filter1_d" x="286" y="279" width="147.425" height="173" filterUnits="userSpaceOnUse" color-interpolation-filters="sRGB">
<feFlood flood-opacity="0" result="BackgroundImageFix"/>
<feColorMatrix in="SourceAlpha" type="matrix" values="0 0 0 0 0 0 0 0 0 0 0 0 0 0 0 0 0 0 127 0"/>
<feOffset dy="2"/>
<feGaussianBlur stdDeviation="10"/>
<feColorMatrix type="matrix" values="0 0 0 0 0 0 0 0 0 0 0 0 0 0 0 0 0 0 0.1 0"/>
<feBlend mode="normal" in2="BackgroundImageFix" result="effect1_dropShadow"/>
<feBlend mode="normal" in="SourceGraphic" in2="effect1_dropShadow" result="shape"/>
</filter>
<filter id="filter2_d" x="132.055" y="173" width="185.754" height="314" filterUnits="userSpaceOnUse" color-interpolation-filters="sRGB">
<feFlood flood-opacity="0" result="BackgroundImageFix"/>
<feColorMatrix in="SourceAlpha" type="matrix" values="0 0 0 0 0 0 0 0 0 0 0 0 0 0 0 0 0 0 127 0"/>
<feOffset dy="2"/>
<feGaussianBlur stdDeviation="10"/>
<feColorMatrix type="matrix" values="0 0 0 0 0 0 0 0 0 0 0 0 0 0 0 0 0 0 0.1 0"/>
<feBlend mode="normal" in2="BackgroundImageFix" result="effect1_dropShadow"/>
<feBlend mode="normal" in="SourceGraphic" in2="effect1_dropShadow" result="shape"/>
</filter>
</defs>
</svg>
