<svg width="705" height="418" viewBox="0 0 705 418" fill="none" xmlns="http://www.w3.org/2000/svg">
<path opacity="0.426121" fill-rule="evenodd" clip-rule="evenodd" d="M459.223 43.221C305.307 -28.551 143.564 -7.4519 97.959 90.347C52.3547 188.147 79.3976 500.012 294.075 397.384C508.751 294.755 609.734 448.057 655.339 350.258C700.943 252.458 613.139 114.993 459.223 43.221Z" fill="#B7C6E0"/>
<path opacity="0.200577" fill-rule="evenodd" clip-rule="evenodd" d="M326.751 355.106C306.32 355.147 285.889 355.479 265.494 357.015C257.804 357.594 250.275 358.867 242.567 359.381C227.173 360.407 212.053 362.321 196.603 363.204C184.162 363.915 171.668 364.334 159.263 365.236C147.632 366.083 134.755 365.888 123.215 364.49C114.67 363.456 106.087 362.873 97.686 361.212C88.2891 359.353 78.0802 358.025 68.2888 358.072C54.3267 358.141 40.7299 358.148 27.3686 361.431C22.6784 362.582 16.9358 364.476 13.3739 366.893C5.22111 372.428 4.11741 386.237 12.2586 391.978C25.9699 401.638 55.2362 405.429 74.4567 405.608C95.519 405.804 115.979 404.746 137.072 404.124C156.672 403.545 176.223 402.722 195.854 402.751C235.951 402.81 276.052 402.751 316.077 400.938C353.681 399.235 391.378 399.819 429.064 399.819C467.709 399.819 506.093 400.025 544.46 403.502C561.177 405.017 578.207 405.547 595.008 406.608C610.054 407.559 624.513 406.59 639.5 405.711C652.084 404.974 664.586 402.785 676.018 399.087C685.068 396.16 701.201 387.065 703.977 380.077C711.756 360.487 594.329 360.958 576.299 361.002C556.13 361.051 535.8 361.5 515.647 360.979C507.169 360.76 498.816 359.639 490.542 358.41C482.301 357.185 473.997 357.497 465.64 356.982C430.788 354.837 395.858 355.15 360.895 355.15C349.518 355.15 338.134 355.083 326.751 355.106Z" fill="#212D5F"/>
<path fill-rule="evenodd" clip-rule="evenodd" d="M291.182 319L266 393H268.818L294 319H291.182Z" fill="#191847"/>
<path fill-rule="evenodd" clip-rule="evenodd" d="M334.182 319L309 393H311.818L337 319H334.182Z" fill="#191847"/>
<path fill-rule="evenodd" clip-rule="evenodd" d="M384.808 306.262H361.681C351.083 306.262 339.676 298.707 337.7 288.273L326.608 242.04C323.24 224.276 306.174 209.84 288.436 209.84C270.652 209.84 258.976 224.276 262.299 242.04L280.442 311.479C281.295 315.886 285.068 318.99 289.514 318.99L384.808 318.9C388.311 318.9 391.096 316.066 391.096 312.603C391.096 309.095 388.311 306.262 384.808 306.262Z" fill="#191847"/>
<path fill-rule="evenodd" clip-rule="evenodd" d="M289.621 311.488L271.478 242.049C268.424 225.859 277.945 212.457 293.079 210.208C291.552 210.028 289.98 209.849 288.453 209.849C270.67 209.849 258.994 224.285 262.317 242.049L280.46 311.488C281.268 315.895 285.085 318.999 289.531 318.999H298.558C294.202 318.954 290.429 315.85 289.621 311.488Z" fill="#EAEBEF"/>
<path fill-rule="evenodd" clip-rule="evenodd" d="M364.307 318.954L389.635 392.755H392.464L367.136 318.954H364.307Z" fill="#191847"/>
<path fill-rule="evenodd" clip-rule="evenodd" d="M321.523 318.954L346.807 392.755H349.636L324.353 318.954H321.523Z" fill="#191847"/>
<path fill-rule="evenodd" clip-rule="evenodd" d="M400.202 274.947C388.392 270.63 366.207 273.418 355.025 273.058C350.175 272.878 334.053 279.624 346.897 289.743C365.129 304.18 381.61 298.513 391.445 295.815C402.178 292.847 411.295 278.995 400.202 274.947Z" fill="#2B7DEC"/>
<path fill-rule="evenodd" clip-rule="evenodd" d="M381.584 373.807L375.432 373.672C375.432 373.672 374.758 373.987 374.129 375.561C374.129 375.561 372.468 376.821 372.513 378.754C372.513 379.879 374.938 382.352 375.926 384.151C376.734 385.59 378.665 386.895 381 388.154C383.335 389.413 386.838 389.818 387.602 388.514C389.129 385.905 382.437 380.149 381.943 377.36C381.674 375.921 381.584 373.807 381.584 373.807Z" fill="#194866"/>
<path fill-rule="evenodd" clip-rule="evenodd" d="M381.894 373.632L375.248 372.912C375.248 372.912 374.754 373.992 374.125 375.566C374.125 375.566 375.248 377.725 377.718 378.309C380.008 378.894 381.939 377.365 381.939 377.365C381.625 375.161 381.894 373.632 381.894 373.632Z" fill="#FCD2C5"/>
<path fill-rule="evenodd" clip-rule="evenodd" d="M407.505 295.59C382.716 283.132 313.063 265.818 301.926 266.132C301.926 266.132 277.361 285.696 309.021 304.989C328.916 317.087 371.309 312.68 403.553 312.185C414.69 312.005 418.058 300.897 407.505 295.59Z" fill="#1F28CF"/>
<path fill-rule="evenodd" clip-rule="evenodd" d="M391.957 308.587C383.155 342.632 374.219 373.663 374.219 373.663C377.138 375.687 380.147 376.272 383.155 376.272C383.155 376.272 396.403 348.209 413.064 311.915C419.89 297.119 397.751 286.146 391.957 308.587Z" fill="#1F28CF"/>
<path fill-rule="evenodd" clip-rule="evenodd" d="M374.57 353.956L369.316 350.763C369.316 350.763 368.597 350.673 367.25 351.753C367.25 351.753 365.184 352.067 364.241 353.731C363.702 354.721 364.555 358.094 364.555 360.118C364.51 361.782 365.543 363.85 366.935 366.099C368.328 368.303 371.157 370.461 372.504 369.742C375.154 368.168 372.19 359.848 373.133 357.194C373.627 355.845 374.57 353.956 374.57 353.956Z" fill="#194866"/>
<path fill-rule="evenodd" clip-rule="evenodd" d="M367.245 351.761C367.245 351.761 367.155 354.19 368.996 355.989C370.658 357.608 373.128 357.203 373.128 357.203C373.936 355.134 374.924 353.965 374.924 353.965L369.535 350.008C369.535 350.008 368.592 350.682 367.245 351.761Z" fill="#FCD2C5"/>
<path fill-rule="evenodd" clip-rule="evenodd" d="M384.174 286.982C375.417 320.982 367.064 350.754 367.064 350.754C368.906 353.093 373.262 355.251 375.058 355.251C375.058 355.251 388.665 326.603 405.326 290.31C412.107 275.514 389.968 264.54 384.174 286.982Z" fill="#2B7DEC"/>
<path fill-rule="evenodd" clip-rule="evenodd" d="M425.091 224.042C424.283 225.121 423.295 226.246 422.217 227.055C423.564 226.336 423.923 227.235 425.45 226.695C425.989 226.291 427.067 223.637 426.528 223.233C425.765 222.603 425.495 223.412 425.091 224.042Z" fill="#FCD2C5"/>
<path fill-rule="evenodd" clip-rule="evenodd" d="M434.189 226.021C433.919 225.526 432.841 224.897 432.482 224.807C431.853 224.672 430.102 225.076 429.383 225.166C429.114 225.211 425.611 225.841 424.084 226.336C422.827 226.74 421.569 227.19 420.447 227.73C420.402 227.775 421.435 232.812 422.153 234.386C424.309 233.756 430.731 231.193 430.865 231.148C433.695 230.743 434.009 229.619 433.29 229.034C433.111 228.854 434.772 227.91 434.144 227.145C434.144 227.145 434.548 226.651 434.189 226.021Z" fill="#FCD2C5"/>
<path fill-rule="evenodd" clip-rule="evenodd" d="M358.716 193.784C357.907 192.705 344.884 201.789 343.357 204.083C339.764 209.48 362.039 235.654 371.514 243.524C375.107 246.538 386.604 245.458 378.7 233.046C372.278 222.837 363.251 199.945 358.716 193.784Z" fill="#FCD2C5"/>
<path fill-rule="evenodd" clip-rule="evenodd" d="M343.344 204.105C340.964 207.658 347.431 222.454 356.592 232.978C357.984 232.214 362.026 229.515 363.373 228.706C366.696 226.637 371.142 223.354 374.061 220.79C367.864 210.761 361.936 198.124 358.703 193.807C357.894 192.682 344.871 201.767 343.344 204.105Z" fill="#F57B9A"/>
<path fill-rule="evenodd" clip-rule="evenodd" d="M374.57 234.233C374.121 234.323 373.627 234.548 373.133 234.863C370.932 236.212 368.732 239.45 371.875 243.632C375.378 248.22 410.092 239.18 423.475 234.053C422.711 232.434 422.127 230.14 421.588 227.352C413.55 230.635 382.608 232.389 374.57 234.233Z" fill="#FCD2C5"/>
<path fill-rule="evenodd" clip-rule="evenodd" d="M356.74 266.119L297.596 260.497C297.596 260.497 291.354 277.587 292.881 284.693C293.465 287.301 348.253 292.248 363.881 275.159C365.632 273.18 356.74 266.119 356.74 266.119Z" fill="#1F28CF"/>
<path fill-rule="evenodd" clip-rule="evenodd" d="M331.722 167.52C332.171 171.163 330.959 181.192 329.701 183.08C332.575 189.736 343.443 189.916 344.206 186.004C342.59 181.731 344.521 173.951 344.566 173.231C341.871 173.591 332.62 168.239 331.722 167.52Z" fill="#FCD2C5"/>
<path fill-rule="evenodd" clip-rule="evenodd" d="M343.389 150.434C336.877 150.794 332.881 156.371 333.195 162.802C333.195 162.892 333.554 169.548 333.554 169.548C333.779 174.405 341.683 181.691 345.859 180.566C355.784 177.913 356.996 159.429 356.547 157.36C355.29 151.604 349.452 150.12 343.389 150.434Z" fill="#FCD2C5"/>
<path fill-rule="evenodd" clip-rule="evenodd" d="M362.969 215.569C360.454 203.561 362.026 194.072 355.424 190.114C353.673 189.035 344.242 185.977 344.242 185.977C344.242 185.977 341.952 188.765 339.302 188.54C335.44 188.225 329.692 183.008 329.692 183.008C329.692 183.008 325.336 184.358 322.552 184.942C314.199 186.831 308.855 195.466 305.711 203.651C304.723 206.215 303.556 236.976 292.823 271.741C290.128 280.51 357.76 279.026 362.071 271.741C363.643 269.042 359.107 252.267 356.592 232.614C356.008 227.847 364.137 221.191 362.969 215.569Z" fill="#EA3663"/>
<path fill-rule="evenodd" clip-rule="evenodd" d="M368.651 269.721C367.304 269.856 365.822 269.856 364.475 269.541C365.912 270.126 365.463 270.936 366.9 271.745C367.573 271.88 370.268 270.936 370.223 270.306C370.178 269.227 369.414 269.586 368.651 269.721Z" fill="#FCD2C5"/>
<path fill-rule="evenodd" clip-rule="evenodd" d="M373.32 274.727C373.05 274.547 369.503 272.028 367.751 271.174C366.314 270.364 364.832 269.69 363.395 269.105C363.305 269.105 359.847 273.108 359.129 274.637C361.509 275.986 369.233 279.539 369.413 279.674C372.197 281.698 373.455 281.293 373.32 280.304C373.32 280.079 375.61 280.798 375.7 279.809C375.7 279.809 376.508 279.809 376.733 279.134C376.912 278.64 376.598 277.335 376.329 276.976C375.925 276.391 374.038 275.267 373.32 274.727Z" fill="#FCD2C5"/>
<path fill-rule="evenodd" clip-rule="evenodd" d="M332.338 195.102C332.159 193.753 316.396 195.327 313.881 196.586C308.133 199.554 314.869 233.284 319.315 244.752C321.022 249.16 331.53 253.837 330.722 239.131C330.048 227.123 333.326 202.657 332.338 195.102Z" fill="#FCD2C5"/>
<path fill-rule="evenodd" clip-rule="evenodd" d="M332.338 195.102C329.149 188.895 314.06 187.771 310.243 198.115C308.716 202.118 308.581 214.665 311.456 228.247C318.506 229.686 327.667 228.382 332.607 226.133C332.068 214.395 334.808 199.869 332.338 195.102Z" fill="#F57B9A"/>
<path fill-rule="evenodd" clip-rule="evenodd" d="M326.087 237.966C323.617 237.201 319.71 237.696 318.722 242.868C317.644 248.49 347.373 268.548 360.082 275.159C360.756 273.495 362.103 271.516 363.854 269.267C356.04 265.399 334.26 243.408 327.524 238.64C327.12 238.371 326.671 238.146 326.087 237.966Z" fill="#FCD2C5"/>
<path fill-rule="evenodd" clip-rule="evenodd" d="M352.357 148.019C349.483 143.747 338.705 138.35 329.858 147.165C317.104 159.892 331.834 173.339 331.834 173.339C330.981 168.977 336.19 152.202 350.291 152.652C350.291 152.652 357.881 156.429 355.411 167.628C360.216 165.469 362.731 150.223 352.357 148.019Z" fill="#191847"/>
<path fill-rule="evenodd" clip-rule="evenodd" d="M329.99 164.007C329.9 165.626 331.696 168.145 333.223 168.685C333.986 166.931 335.513 163.423 336.187 161.264C335.289 160.634 334.121 160.32 333.492 160.275C331.831 160.185 330.079 162.343 329.99 164.007Z" fill="#FCD2C5"/>
<path fill-rule="evenodd" clip-rule="evenodd" d="M295.98 156.582C294.902 168.95 291.938 170.029 288.301 173.852C270.382 192.741 303.12 221.074 305.725 208.301C306.758 203.309 292.881 198.947 309.991 188.423C328.808 176.82 320.365 168.185 318.479 161.484C311.294 136.344 324.362 140.752 327.91 145.564C330.02 148.397 331.547 146.868 331.772 144.26C332.715 133.421 299.662 115.567 295.98 156.582Z" fill="#191847"/>
<path fill-rule="evenodd" clip-rule="evenodd" d="M329.707 143.365C327.012 145.298 327.102 147.277 328.045 149.031C328.045 149.031 330.919 145.343 334.602 143.814C334.602 143.814 333.389 142.645 331.772 142.69C331.144 142.69 330.425 142.87 329.707 143.365Z" fill="#184767"/>
<path fill-rule="evenodd" clip-rule="evenodd" d="M391.193 392.741H395.684V259.575H391.193V392.741Z" fill="#191847"/>
<path fill-rule="evenodd" clip-rule="evenodd" d="M449.215 392.741H453.751V259.575H449.215V392.741Z" fill="#191847"/>
<path fill-rule="evenodd" clip-rule="evenodd" d="M605.721 392.741H610.256V259.575H605.721V392.741Z" fill="#191847"/>
<path fill-rule="evenodd" clip-rule="evenodd" d="M663.74 392.741H668.276V259.575H663.74V392.741Z" fill="#191847"/>
<path fill-rule="evenodd" clip-rule="evenodd" d="M0 259.71H79.4423V244.824H0V259.71Z" fill="#191847"/>
<path fill-rule="evenodd" clip-rule="evenodd" d="M79.4414 259.71H682.826V244.824H79.4414V259.71Z" fill="#191847"/>
<path fill-rule="evenodd" clip-rule="evenodd" d="M532.736 263.308C532.736 264.028 535.61 264.702 536.284 264.522C537.721 263.623 537.137 262.769 538.619 262.094C537.272 262.454 535.745 262.634 534.308 262.589C533.544 262.544 532.691 262.274 532.736 263.308Z" fill="#FCD2C5"/>
<path fill-rule="evenodd" clip-rule="evenodd" d="M539.727 261.55C538.246 262.224 536.764 263.079 535.327 264.023C533.62 265.103 530.117 268.026 529.848 268.161C529.174 268.79 527.288 270.14 526.884 270.769C526.659 271.174 526.48 272.523 526.659 273.063C526.974 273.737 527.827 273.737 527.827 273.737C528.006 274.682 530.297 273.737 530.297 273.962C530.252 274.997 531.644 275.356 534.339 273.063C534.518 272.883 542.242 268.521 544.622 266.902C543.724 265.372 539.817 261.505 539.727 261.55Z" fill="#FCD2C5"/>
<path fill-rule="evenodd" clip-rule="evenodd" d="M575.911 226.066C575.327 226.291 574.833 226.561 574.474 226.875C567.872 232.407 547.035 257.097 539.266 261.775C541.286 263.933 542.813 265.867 543.667 267.531C556.286 259.616 585.566 236.32 583.994 230.563C582.467 225.256 578.425 225.076 575.911 226.066Z" fill="#FCD2C5"/>
<path fill-rule="evenodd" clip-rule="evenodd" d="M594.461 184.911C592.081 183.247 577.576 178.839 577.172 180.234C575.016 187.879 574.791 213.604 572.321 225.881C569.268 240.947 580.854 237.709 583.234 233.437C589.521 222.194 599.94 188.779 594.461 184.911Z" fill="#FCD2C5"/>
<path fill-rule="evenodd" clip-rule="evenodd" d="M574.526 179.249C569.227 185.635 571.742 219.5 570.529 225.526C570.35 226.561 570.17 227.55 570.08 228.539C567.475 231.103 564.062 234.791 560.47 238.613C552.611 247.068 542.821 257.502 538.33 260.245L544.572 269.06C555.754 262.089 580.095 243.066 584.855 234.206C589.974 225.031 600.977 193.415 596.98 185.275C590.962 172.908 579.196 173.582 574.526 179.249Z" fill="#86C0F2"/>
<path fill-rule="evenodd" clip-rule="evenodd" d="M575.623 262.166C563.992 261.401 509.069 266.303 483.427 279.705C468.023 287.666 475.478 304.081 480.867 304.755C495.237 306.599 550.25 309.073 572.03 298.369C588.781 290.139 581.82 262.571 575.623 262.166Z" fill="#EA3663"/>
<path fill-rule="evenodd" clip-rule="evenodd" d="M517.889 374.95C518.697 377.603 518.607 379.492 518.607 379.492C520.942 381.831 525.388 381.921 525.433 381.741C525.433 381.741 526.152 378.682 525.613 374.5C525.209 374.545 520.898 372.161 517.889 374.95Z" fill="#FCD2C5"/>
<path fill-rule="evenodd" clip-rule="evenodd" d="M477.368 303.932C497.532 340.361 516.887 376.564 516.887 376.564C518.459 376.699 524.791 374.855 528.384 376.069C528.384 376.069 514.328 335.414 502.562 300.739C494.748 277.893 469.15 289.046 477.368 303.932Z" fill="#EA3663"/>
<path fill-rule="evenodd" clip-rule="evenodd" d="M518.503 377.716C518.503 377.716 518.279 378.12 517.201 379.155C515.09 381.223 505.525 385.496 505.21 388.644C505.031 390.218 508.219 392.017 510.959 392.422C513.698 392.827 516.123 392.916 517.65 392.197C519.581 391.342 523.488 387.07 524.251 386.215C526.138 384.102 525.464 380.144 525.464 380.144C523.847 376.366 518.503 377.716 518.503 377.716Z" fill="#2B7DEC"/>
<path fill-rule="evenodd" clip-rule="evenodd" d="M570.516 375.696C571.234 379.789 572.447 383.791 572.447 383.791C572.536 383.971 578.375 381.858 580.755 379.474C580.755 379.474 578.913 376.686 577.656 374.122C574.602 371.289 570.92 375.741 570.516 375.696Z" fill="#FCD2C5"/>
<path fill-rule="evenodd" clip-rule="evenodd" d="M535.035 316.669C555.199 353.097 570.153 378.147 570.153 378.147C571.455 375.809 575.272 374.1 578.416 374.999C578.416 374.999 568.536 346.171 556.725 311.542C548.956 288.651 526.817 301.828 535.035 316.669Z" fill="#EA3663"/>
<path fill-rule="evenodd" clip-rule="evenodd" d="M580.36 379.168L580.315 379.123C578.789 377.684 576.543 377.054 574.567 377.819C574.567 377.819 574.522 377.819 574.477 377.864C572.951 378.449 572.052 380.068 572.187 381.732C572.277 383.171 572.591 385.24 573.31 386.229C573.983 387.173 577.935 391.356 579.911 392.21C581.438 392.93 583.863 392.84 586.603 392.435C589.342 392.03 592.53 390.232 592.396 388.657C592.036 385.509 582.471 381.237 580.36 379.168Z" fill="#2B7DEC"/>
<path fill-rule="evenodd" clip-rule="evenodd" d="M598.76 247.671C585.826 249.335 573.028 251.224 559.959 251.539C551.921 251.719 544.241 250.819 537.056 248.75C537.101 261.343 534.631 263.277 529.242 266.65C533.059 280.456 540.784 284.144 547.34 286.573C581.111 299.21 608.415 278.882 609.673 278.792C609.628 268.808 608.729 257.565 607.472 246.322C604.643 246.861 601.724 247.266 598.76 247.671Z" fill="#5AD4CF"/>
<path fill-rule="evenodd" clip-rule="evenodd" d="M573.781 150.83C572.838 151.55 563.093 156.991 560.309 156.542C560.354 157.351 562.24 165.491 560.488 169.899C561.252 173.991 572.568 173.991 575.667 167.021C574.365 165.042 573.242 154.608 573.781 150.83Z" fill="#FCD2C5"/>
<path fill-rule="evenodd" clip-rule="evenodd" d="M489.404 214.085H430.904V226.814H489.404C492.919 226.814 495.768 223.964 495.768 220.449C495.768 216.935 492.919 214.085 489.404 214.085Z" fill="#D586D9"/>
<path fill-rule="evenodd" clip-rule="evenodd" d="M446.254 216.729H413.65C415.705 216.729 417.371 218.395 417.371 220.45C417.371 222.505 415.705 224.171 413.65 224.171H446.254C448.31 224.171 449.976 222.505 449.976 220.45C449.976 218.395 448.31 216.729 446.254 216.729Z" fill="white"/>
<path fill-rule="evenodd" clip-rule="evenodd" d="M412.865 198.885C411.251 200.492 410.254 202.723 410.254 205.182C410.254 210.1 414.244 214.084 419.162 214.084H467.332V196.274H419.162C416.703 196.274 414.472 197.272 412.865 198.885Z" fill="#DC4272"/>
<path fill-rule="evenodd" clip-rule="evenodd" d="M458.779 205.18C458.779 210.099 462.766 214.085 467.684 214.085H502.564V211.443H467.684C464.225 211.443 461.422 208.639 461.422 205.18C461.422 201.722 464.225 198.917 467.684 198.917H502.564V196.275H467.684C462.766 196.275 458.779 200.262 458.779 205.18Z" fill="#793481"/>
<path fill-rule="evenodd" clip-rule="evenodd" d="M458.676 196.273H438.794C436.577 196.425 434.594 197.384 433.12 198.866C431.5 200.479 430.502 202.716 430.502 205.181C430.502 209.865 434.112 213.715 438.705 214.084H458.587C453.993 213.715 450.384 209.865 450.384 205.181C450.384 202.716 451.382 200.479 453.002 198.866C454.477 197.384 456.459 196.425 458.676 196.273Z" fill="#184865"/>
<path fill-rule="evenodd" clip-rule="evenodd" d="M500.938 198.917H467.685C464.226 198.917 461.422 201.721 461.422 205.18C461.422 208.639 464.226 211.442 467.685 211.442H500.938C497.479 211.442 494.675 208.639 494.675 205.18C494.675 201.721 497.479 198.917 500.938 198.917Z" fill="#E4EEF3"/>
<path fill-rule="evenodd" clip-rule="evenodd" d="M398.611 229.425C396.998 231.032 396 233.263 396 235.722C396 240.64 399.99 244.624 404.908 244.624H461.493V226.814H404.908C402.449 226.814 400.219 227.812 398.611 229.425Z" fill="#DC4272"/>
<path fill-rule="evenodd" clip-rule="evenodd" d="M452.941 235.72C452.941 240.639 456.928 244.625 461.847 244.625H511.766V241.983H461.846C458.387 241.983 455.584 239.179 455.584 235.72C455.584 232.262 458.387 229.457 461.846 229.457H511.766V226.815H461.847C456.928 226.815 452.941 230.802 452.941 235.72Z" fill="#793481"/>
<path fill-rule="evenodd" clip-rule="evenodd" d="M510.139 229.457H461.845C458.386 229.457 455.582 232.261 455.582 235.72C455.582 239.179 458.386 241.982 461.845 241.982H510.139C506.68 241.982 503.876 239.179 503.876 235.72C503.876 232.261 506.68 229.457 510.139 229.457Z" fill="#E4EEF3"/>
<path fill-rule="evenodd" clip-rule="evenodd" d="M487.905 176.002H448.756V178.644V193.711V196.355H487.905C493.525 196.355 498.082 191.799 498.082 186.178C498.082 180.558 493.525 176.002 487.905 176.002Z" fill="#2C7EEC"/>
<path fill-rule="evenodd" clip-rule="evenodd" d="M487.904 178.643H450.648V193.71H487.904C492.064 193.71 495.437 190.337 495.437 186.177C495.437 182.016 492.064 178.643 487.904 178.643Z" fill="#E4EEF3"/>
<path fill-rule="evenodd" clip-rule="evenodd" d="M451.265 178.643H403.355C407.516 178.643 410.889 182.016 410.889 186.177C410.889 190.337 407.516 193.71 403.355 193.71H451.265C455.426 193.71 458.799 190.337 458.799 186.177C458.799 182.016 455.426 178.643 451.265 178.643Z" fill="white"/>
<path fill-rule="evenodd" clip-rule="evenodd" d="M401.871 178.644H448.754V176H401.871V178.644Z" fill="#99C168"/>
<path fill-rule="evenodd" clip-rule="evenodd" d="M401.871 196.354H448.754V193.71H401.871V196.354Z" fill="#99C168"/>
<path fill-rule="evenodd" clip-rule="evenodd" d="M559.791 131.375C553.504 130.97 547.397 132.454 546.005 138.436C545.511 140.549 546.409 160.158 556.783 162.721C564.148 164.61 569.447 156.515 569.761 151.433C569.761 151.433 570.21 144.507 570.21 144.462C570.659 137.761 566.573 131.869 559.791 131.375Z" fill="#FCD2C5"/>
<path fill-rule="evenodd" clip-rule="evenodd" d="M587.115 170.07C584.241 169.35 575.664 167.056 575.664 167.056C575.664 167.056 573.957 169.395 568.748 170.519C564.033 171.509 560.485 169.89 560.485 169.89C560.485 169.89 550.156 174.252 548.405 175.332C537.716 181.898 540.501 188.868 540.097 198.493C539.872 202.945 540.95 250.392 530.082 266.222C530.486 266.852 534.393 276.251 543.33 278.635L545.575 259.117L547.551 279.535C568.568 284.032 584.645 275.712 601.531 273.148L603.147 247.604L607.998 272.204C609.614 272.024 611.141 271.844 612.398 271.754C612.174 232.762 601.127 194.85 600.677 193.051C598.657 185.54 595.783 172.138 587.115 170.07Z" fill="#1F28CF"/>
<path fill-rule="evenodd" clip-rule="evenodd" d="M577.114 123.779C567.234 115.998 551.875 121.17 547.474 131.334C544.241 138.89 539.975 135.967 540.289 133.988C539.301 138.98 541.412 143.342 551.112 142.578C553.133 142.443 546.621 144.466 546.621 144.466C546.621 144.466 556.95 165.919 572.937 160.657C577.697 159.128 581.829 154.495 581.829 154.495C581.829 154.495 576.665 155.305 579.359 151.078C584.658 142.892 585.826 130.57 577.114 123.779Z" fill="#191847"/>
<path fill-rule="evenodd" clip-rule="evenodd" d="M464.932 232.96C464.483 233.5 467.223 237.637 467.896 237.772C469.558 238.222 470.77 237.952 470.995 236.693C469.693 236.108 467.672 234.399 466.594 233.455C466.01 232.915 465.606 232.106 464.932 232.96Z" fill="#FCD2C5"/>
<path fill-rule="evenodd" clip-rule="evenodd" d="M468.045 236.212C466.069 235.897 457.94 235.627 457.267 235.852C456.818 235.987 455.336 235.942 455.111 237.066C454.932 237.786 456.054 238.685 456.054 238.685C454.932 240.08 457.851 240.709 457.671 240.889C456.728 241.609 457.985 242.598 461.533 242.958C464.362 243.318 468.673 244.217 473.209 244.442C473.568 242.733 473.074 237.156 472.985 237.156C471.413 236.751 469.751 236.392 468.045 236.212Z" fill="#FCD2C5"/>
<path fill-rule="evenodd" clip-rule="evenodd" d="M519.819 230.631C519.19 230.586 518.651 230.631 518.158 230.766C509.85 232.879 480.525 236.387 471.453 237.197C472.306 240.03 473.07 242.549 473.115 244.437C486.093 245.112 524.31 245.427 525.343 239.58C526.331 234.184 522.514 230.856 519.819 230.631Z" fill="#FCD2C5"/>
<path fill-rule="evenodd" clip-rule="evenodd" d="M542.602 187.151C537.707 193.447 527.648 217.103 520.687 227.492C512.154 240.264 524.1 241.658 527.917 238.69C538.021 230.685 561.957 203.971 558.365 198.304C556.793 195.83 543.5 186.026 542.602 187.151Z" fill="#FCD2C5"/>
<path fill-rule="evenodd" clip-rule="evenodd" d="M541.834 181.664C537.792 188.725 518.122 228.211 517.673 229.111C514.26 230.505 482.375 234.507 477.211 235.272L477.974 245.886C490.773 245.436 521.356 246.335 529.125 239.994C537.343 233.428 561.458 208.918 561.458 197.854C561.458 186.071 546.1 174.198 541.834 181.664Z" fill="#1F28CF"/>
<path fill-rule="evenodd" clip-rule="evenodd" d="M618.842 315.837L645.248 392.741H648.167L621.806 315.837H618.842Z" fill="#191847"/>
<path fill-rule="evenodd" clip-rule="evenodd" d="M574.244 315.837L600.65 392.741H603.569L577.208 315.837H574.244Z" fill="#191847"/>
<path fill-rule="evenodd" clip-rule="evenodd" d="M624.721 202.086C606.219 202.086 588.39 217.107 584.932 235.636L573.346 283.802C571.325 294.731 559.425 302.601 548.332 302.601H524.262C520.624 302.601 517.705 305.569 517.705 309.212C517.705 312.81 520.624 315.733 524.262 315.733L623.598 315.868C628.224 315.868 632.176 312.585 633.074 308.043L651.935 235.636C655.438 217.107 643.223 202.086 624.721 202.086Z" fill="#191847"/>
<path fill-rule="evenodd" clip-rule="evenodd" d="M624.721 202.086C606.219 202.086 588.39 217.107 584.932 235.636L573.346 283.847C571.325 294.776 559.425 302.691 548.332 302.691H524.262C520.624 302.691 517.705 305.614 517.705 309.257C517.705 312.855 520.624 315.778 524.262 315.778L527.36 315.733C528.348 313.395 530.684 311.731 533.423 311.731H557.494C568.586 311.731 580.487 303.861 582.507 292.977L594.094 244.811C597.597 226.282 615.38 211.261 633.882 211.261C639.541 211.261 644.57 212.655 648.747 215.128C644.121 207.213 635.499 202.086 624.721 202.086Z" fill="#EAEBEF"/>
<path fill-rule="evenodd" clip-rule="evenodd" d="M516.268 392.737H519.232L545.637 315.832H542.674L516.268 392.737Z" fill="#191847"/>
<path fill-rule="evenodd" clip-rule="evenodd" d="M560.889 392.737H563.853L590.214 315.832H587.25L560.889 392.737Z" fill="#191847"/>
<path fill-rule="evenodd" clip-rule="evenodd" d="M24.4297 392.741H28.9654V259.575H24.4297V392.741Z" fill="#191847"/>
<path fill-rule="evenodd" clip-rule="evenodd" d="M74.3672 392.741H78.9029V259.575H74.3672V392.741Z" fill="#191847"/>
<path fill-rule="evenodd" clip-rule="evenodd" d="M183.208 262.607C181.771 262.652 180.244 262.472 178.896 262.067C180.378 262.786 179.795 263.596 181.232 264.54C181.86 264.72 184.779 264.001 184.779 263.326C184.824 262.247 183.971 262.562 183.208 262.607Z" fill="#FCD2C5"/>
<path fill-rule="evenodd" clip-rule="evenodd" d="M187.634 268.183C187.41 268.003 183.862 265.125 182.155 264.001C180.763 263.101 179.236 262.202 177.799 261.572C177.709 261.527 173.758 265.395 172.859 266.924C175.24 268.543 183.009 272.86 183.143 273.04C185.838 275.334 187.23 274.974 187.23 273.985C187.185 273.76 189.52 274.704 189.7 273.715C189.7 273.715 190.508 273.76 190.823 273.04C191.047 272.546 190.823 271.151 190.598 270.792C190.239 270.162 188.308 268.813 187.634 268.183Z" fill="#FCD2C5"/>
<path fill-rule="evenodd" clip-rule="evenodd" d="M143.032 226.853C142.672 226.538 142.178 226.268 141.595 226.043C139.08 225.054 134.993 225.279 133.556 230.541C131.894 236.297 161.219 259.638 173.839 267.509C174.737 265.845 176.264 263.911 178.284 261.752C170.47 257.12 149.588 232.385 143.032 226.853Z" fill="#FCD2C5"/>
<path fill-rule="evenodd" clip-rule="evenodd" d="M140.338 180.211C139.933 178.862 125.428 183.224 123.048 184.888C117.569 188.756 127.988 222.216 134.275 233.459C136.655 237.687 148.241 240.97 145.188 225.904C142.718 213.581 142.493 187.902 140.338 180.211Z" fill="#FCD2C5"/>
<path fill-rule="evenodd" clip-rule="evenodd" d="M157.043 238.627C153.45 234.804 150.037 231.116 147.387 228.508C147.343 227.563 147.163 226.529 146.938 225.54C145.771 219.468 148.286 185.603 142.986 179.262C138.316 173.596 126.55 172.921 120.532 185.244C116.536 193.429 127.538 225 132.658 234.175C137.418 243.079 161.758 262.058 172.895 269.074L179.182 260.214C174.692 257.516 164.902 247.037 157.043 238.627Z" fill="#86C0F2"/>
<path fill-rule="evenodd" clip-rule="evenodd" d="M234.101 279.692C208.458 266.29 153.491 261.433 141.905 262.152C135.707 262.557 128.702 290.126 145.452 298.356C167.233 309.059 222.245 306.631 236.661 304.787C242.05 304.067 249.459 287.697 234.101 279.692Z" fill="#DA2621"/>
<path fill-rule="evenodd" clip-rule="evenodd" d="M110.404 214.085H51.9043V226.814H110.404C113.919 226.814 116.768 223.964 116.768 220.449C116.768 216.935 113.919 214.085 110.404 214.085Z" fill="#D586D9"/>
<path fill-rule="evenodd" clip-rule="evenodd" d="M67.2544 216.729H34.6504C36.7054 216.729 38.3714 218.395 38.3714 220.45C38.3714 222.505 36.7054 224.171 34.6504 224.171H67.2544C69.3104 224.171 70.9764 222.505 70.9764 220.45C70.9764 218.395 69.3104 216.729 67.2544 216.729Z" fill="white"/>
<path fill-rule="evenodd" clip-rule="evenodd" d="M33.8649 198.885C32.2509 200.492 31.2539 202.723 31.2539 205.182C31.2539 210.1 35.2439 214.084 40.1619 214.084H88.3319V196.274H40.1619C37.7029 196.274 35.4719 197.272 33.8649 198.885Z" fill="#DC4272"/>
<path fill-rule="evenodd" clip-rule="evenodd" d="M79.7793 205.18C79.7793 210.099 83.7663 214.085 88.6843 214.085H123.564V211.443H88.6843C85.2253 211.443 82.4223 208.639 82.4223 205.18C82.4223 201.722 85.2253 198.917 88.6843 198.917H123.564V196.275H88.6843C83.7663 196.275 79.7793 200.262 79.7793 205.18Z" fill="#793481"/>
<path fill-rule="evenodd" clip-rule="evenodd" d="M79.676 196.273H59.794C57.577 196.425 55.594 197.384 54.12 198.866C52.5 200.479 51.502 202.716 51.502 205.181C51.502 209.865 55.112 213.715 59.705 214.084H79.587C74.993 213.715 71.384 209.865 71.384 205.181C71.384 202.716 72.382 200.479 74.002 198.866C75.477 197.384 77.459 196.425 79.676 196.273Z" fill="#184865"/>
<path fill-rule="evenodd" clip-rule="evenodd" d="M121.938 198.917H88.6849C85.2259 198.917 82.4219 201.721 82.4219 205.18C82.4219 208.639 85.2259 211.442 88.6849 211.442H121.938C118.479 211.442 115.675 208.639 115.675 205.18C115.675 201.721 118.479 198.917 121.938 198.917Z" fill="#E4EEF3"/>
<path fill-rule="evenodd" clip-rule="evenodd" d="M19.611 229.425C17.998 231.032 17 233.263 17 235.722C17 240.64 20.99 244.624 25.908 244.624H82.493V226.814H25.908C23.449 226.814 21.219 227.812 19.611 229.425Z" fill="#DC4272"/>
<path fill-rule="evenodd" clip-rule="evenodd" d="M73.9414 235.72C73.9414 240.639 77.9284 244.625 82.8474 244.625H132.766V241.983H82.8464C79.3874 241.983 76.5844 239.179 76.5844 235.72C76.5844 232.262 79.3874 229.457 82.8464 229.457H132.766V226.815H82.8474C77.9284 226.815 73.9414 230.802 73.9414 235.72Z" fill="#793481"/>
<path fill-rule="evenodd" clip-rule="evenodd" d="M131.139 229.457H82.845C79.386 229.457 76.582 232.261 76.582 235.72C76.582 239.179 79.386 241.982 82.845 241.982H131.139C127.68 241.982 124.876 239.179 124.876 235.72C124.876 232.261 127.68 229.457 131.139 229.457Z" fill="#E4EEF3"/>
<path fill-rule="evenodd" clip-rule="evenodd" d="M108.905 176.002H69.7559V178.644V193.711V196.355H108.905C114.525 196.355 119.082 191.799 119.082 186.178C119.082 180.558 114.525 176.002 108.905 176.002Z" fill="#2C7EEC"/>
<path fill-rule="evenodd" clip-rule="evenodd" d="M108.904 178.643H71.6484V193.71H108.904C113.064 193.71 116.437 190.337 116.437 186.177C116.437 182.016 113.064 178.643 108.904 178.643Z" fill="#E4EEF3"/>
<path fill-rule="evenodd" clip-rule="evenodd" d="M72.2655 178.643H24.3555C28.5165 178.643 31.8895 182.016 31.8895 186.177C31.8895 190.337 28.5165 193.71 24.3555 193.71H72.2655C76.4265 193.71 79.7995 190.337 79.7995 186.177C79.7995 182.016 76.4265 178.643 72.2655 178.643Z" fill="white"/>
<path fill-rule="evenodd" clip-rule="evenodd" d="M22.8711 178.644H69.7541V176H22.8711V178.644Z" fill="#99C168"/>
<path fill-rule="evenodd" clip-rule="evenodd" d="M22.8711 196.354H69.7541V193.71H22.8711V196.354Z" fill="#99C168"/>
<path fill-rule="evenodd" clip-rule="evenodd" d="M191.91 374.513C191.371 378.696 192.045 381.754 192.045 381.754C192.135 381.934 196.536 381.844 198.871 379.46C198.871 379.46 198.781 377.572 199.634 374.963C196.581 372.13 192.314 374.558 191.91 374.513Z" fill="#FCD2C5"/>
<path fill-rule="evenodd" clip-rule="evenodd" d="M214.979 300.726C203.168 335.4 191.357 374.977 191.357 374.977C194.546 374.122 198.543 375.696 199.845 378.035C199.845 378.035 219.964 340.347 240.128 303.919C248.346 289.033 222.748 277.879 214.979 300.726Z" fill="#DA2621"/>
<path fill-rule="evenodd" clip-rule="evenodd" d="M200.308 379.168C199.23 378.134 199.005 377.729 199.005 377.729C199.005 377.729 193.661 376.38 192.045 380.113C192.045 380.113 191.371 384.07 193.257 386.229C194.021 387.083 197.883 391.356 199.859 392.21C201.386 392.93 203.811 392.84 206.55 392.435C209.289 392.03 212.478 390.232 212.343 388.657C211.984 385.509 202.418 381.237 200.308 379.168Z" fill="#BCD0DF"/>
<path fill-rule="evenodd" clip-rule="evenodd" d="M139.853 374.118C138.55 376.726 136.754 379.469 136.754 379.469C139.089 381.853 144.972 383.967 145.062 383.787C145.062 383.787 146.274 379.784 146.993 375.692C146.544 375.737 142.906 371.329 139.853 374.118Z" fill="#FCD2C5"/>
<path fill-rule="evenodd" clip-rule="evenodd" d="M160.771 311.533C149.005 346.207 139.08 374.99 139.08 374.99C142.269 374.136 146.086 375.845 147.343 378.138C147.343 378.138 162.298 353.088 182.461 316.66C190.724 301.819 168.54 288.642 160.771 311.533Z" fill="#DA2621"/>
<path fill-rule="evenodd" clip-rule="evenodd" d="M143.033 377.85C143.033 377.805 142.988 377.805 142.943 377.805C140.967 377.041 138.722 377.671 137.195 379.11L137.15 379.155C135.039 381.223 125.474 385.496 125.16 388.644C124.98 390.218 128.168 392.017 130.908 392.422C133.647 392.827 136.072 392.916 137.599 392.197C139.53 391.342 143.482 387.16 144.201 386.26C144.919 385.226 145.234 383.157 145.323 381.718C145.458 380.054 144.56 378.48 143.033 377.85Z" fill="#BCD0DF"/>
<path fill-rule="evenodd" clip-rule="evenodd" d="M143.251 150.83C143.79 154.608 142.174 161.714 141.365 167.021C144.464 173.991 155.781 173.991 156.544 169.899C154.793 165.491 156.679 157.351 156.679 156.542C153.895 156.991 144.194 151.55 143.251 150.83Z" fill="#FCD2C5"/>
<path fill-rule="evenodd" clip-rule="evenodd" d="M158.162 130.718C151.066 131.168 146.845 137.284 147.249 144.345C147.249 144.435 147.743 151.631 147.743 151.631C148.103 156.893 153.581 165.392 161.306 163.414C172.128 160.67 173.071 140.297 172.533 138.049C171.095 131.797 164.719 130.268 158.162 130.718Z" fill="#FCD2C5"/>
<path fill-rule="evenodd" clip-rule="evenodd" d="M168.581 175.336C167.099 174.437 159.779 171.288 157.309 170.254C156.815 170.029 156.681 164.363 156.681 164.363C156.681 164.363 153.762 164.902 149.406 164.048C144.196 163.103 141.906 161.709 141.906 161.709C141.906 161.709 140.559 167.106 139.436 167.556C137.505 168.23 132.296 169.49 129.871 170.074C121.158 172.143 117.386 184.421 116.263 193.056C116.084 194.899 108.943 242.076 108.943 287.679C110.246 287.814 163.776 303.015 186.859 266.227C175.991 250.396 177.114 202.95 176.889 198.497C176.44 188.873 179.224 181.902 168.581 175.336Z" fill="white"/>
<path fill-rule="evenodd" clip-rule="evenodd" d="M250.919 233.441C249.841 234.386 247.82 236.14 246.518 236.68C246.742 237.984 248 238.209 249.616 237.804C250.29 237.624 253.029 233.486 252.58 232.947C251.907 232.137 251.457 232.902 250.919 233.441Z" fill="#FCD2C5"/>
<path fill-rule="evenodd" clip-rule="evenodd" d="M262.383 237.044C262.159 235.964 260.677 236.009 260.273 235.875C259.554 235.65 251.471 235.919 249.45 236.189C247.743 236.369 246.082 236.729 244.51 237.134C244.42 237.179 243.926 242.71 244.286 244.419C248.821 244.195 253.132 243.34 255.962 242.98C259.509 242.576 260.767 241.631 259.824 240.867C259.644 240.687 262.563 240.057 261.44 238.663C261.44 238.663 262.563 237.808 262.383 237.044Z" fill="#FCD2C5"/>
<path fill-rule="evenodd" clip-rule="evenodd" d="M197.699 230.631C195.004 230.856 191.187 234.184 192.175 239.58C193.208 245.427 231.425 245.112 244.358 244.437C244.403 242.549 245.167 240.03 246.065 237.197C236.993 236.387 207.668 232.879 199.316 230.766C198.866 230.631 198.328 230.586 197.699 230.631Z" fill="#FCD2C5"/>
<path fill-rule="evenodd" clip-rule="evenodd" d="M174.894 187.151C173.996 186.026 160.703 195.83 159.132 198.304C155.539 203.971 179.475 230.685 189.579 238.69C193.396 241.658 205.342 240.264 196.81 227.492C189.849 217.103 179.789 193.447 174.894 187.151Z" fill="#FCD2C5"/>
<path fill-rule="evenodd" clip-rule="evenodd" d="M175.685 181.664C171.419 174.198 156.061 186.071 156.061 197.854C156.061 208.918 180.131 233.428 188.349 239.994C196.163 246.335 226.746 245.436 239.545 245.886L240.308 235.272C235.099 234.507 203.259 230.505 199.846 229.111C199.397 228.211 179.682 188.725 175.685 181.664Z" fill="white"/>
<path fill-rule="evenodd" clip-rule="evenodd" d="M144.483 122.106C136.22 128.582 134.334 140.5 139.813 147.965C143.675 153.182 141.385 155.386 144.618 156.061C160.246 159.164 163.614 145.447 170.26 141.759C173.224 140.14 178.299 138.611 175.245 131.415C171.069 121.836 153.824 114.775 144.483 122.106Z" fill="#191847"/>
<path fill-rule="evenodd" clip-rule="evenodd" d="M69.3105 392.737H72.2745L98.636 315.832H95.672L69.3105 392.737Z" fill="#191847"/>
<path fill-rule="evenodd" clip-rule="evenodd" d="M113.914 392.737H116.878L143.239 315.832H140.275L113.914 392.737Z" fill="#191847"/>
<path fill-rule="evenodd" clip-rule="evenodd" d="M193.249 302.615H169.133C158.086 302.615 146.185 294.699 144.164 283.816L132.533 235.65C129.075 217.121 111.292 202.1 92.79 202.1C74.2875 202.1 62.1175 217.121 65.5754 235.65L84.4817 308.057C85.3349 312.599 89.287 315.882 93.912 315.882L193.249 315.747C196.887 315.747 199.806 312.824 199.806 309.181C199.806 305.538 196.887 302.615 193.249 302.615Z" fill="#EAEBEF"/>
<path fill-rule="evenodd" clip-rule="evenodd" d="M193.249 302.57H169.133C158.086 302.57 146.185 294.61 144.164 283.726L132.533 235.515C129.075 216.986 111.292 201.965 92.789 201.965C82.0115 201.965 73.3892 207.092 68.7637 215.007C72.9401 212.533 77.9698 211.139 83.6282 211.139C102.13 211.139 119.959 226.16 123.417 244.689L135.003 292.811C137.024 303.694 148.925 311.564 160.017 311.564H184.088C186.782 311.564 189.117 313.228 190.15 315.612L193.249 315.657C196.886 315.657 199.805 312.734 199.805 309.136C199.805 305.448 196.886 302.57 193.249 302.57Z" fill="#191847"/>
<path fill-rule="evenodd" clip-rule="evenodd" d="M171.891 315.837L198.252 392.741H201.216L174.855 315.837H171.891Z" fill="#191847"/>
<path fill-rule="evenodd" clip-rule="evenodd" d="M127.27 315.837L153.675 392.741H156.639L130.233 315.837H127.27Z" fill="#191847"/>
</svg>
