<svg xmlns="http://www.w3.org/2000/svg" fill="none" viewBox="0 0 589 418"><path fill="#B7C6E0" fill-rule="evenodd" d="M380.2 43.2C226.3-28.6 64.6-7.5 19 90.3-26.6 188.1.4 500 215 397.3c214.8-102.5 315.7 50.8 361.3-47 45.6-97.8-42.2-235.3-196-307z" clip-rule="evenodd" opacity=".4"/><path fill="#212D5F" fill-rule="evenodd" d="M539.8 370.5c7 12.3-163.4 20.3-310 14.7-146.7-5.6-214-27.4-144-39 70-11.7 447 12 454 24.3z" clip-rule="evenodd" opacity=".1"/><path fill="#242448" fill-rule="evenodd" d="M492 267l2 13.7-4 77.3-6.8-1.4-11.2-87.9 20-1.7z" clip-rule="evenodd"/><path fill="#242448" fill-rule="evenodd" d="M458.3 264.4l-1.3 51.9 13.3 44.7 7.7-2.9-6.5-39.8 6-54.3-19.2.4z" clip-rule="evenodd"/><path fill="#161633" fill-rule="evenodd" d="M478.2 353.6l-9.2 4.2 3.1 6.4-4.8 3s-.4 2.7 1.2 3.8c1.6 1.1 12-7.7 12-7.7l-2.3-9.7z" clip-rule="evenodd"/><path fill="#161633" fill-rule="evenodd" d="M492 355.1l-10 1.7 1.3 7-5.4 1.6s-1.2 2.5.1 4 13.6-4.3 13.6-4.3l.3-10z" clip-rule="evenodd"/><path fill="#242448" fill-rule="evenodd" d="M472.6 180.3a27 27 0 0 0 3 6.5c0-4.2.7-8.4 1.8-12.5.1-.3.2-.6 0-.9 0-.3-.4-.4-.7-.4-5.2-1.3-5.3 3.3-4 7.3z" clip-rule="evenodd"/><path fill="#F8C2A4" fill-rule="evenodd" d="M475.5 187c.5 1.6 1.4 3.6 3.2 4.7 2.2 1.2 4.4.6 6-.4 5.2-3.1 14.3-20.6.7-24.9-12.4-3.8-12.2 13.3-10 20.5z" clip-rule="evenodd"/><path fill="#242448" fill-rule="evenodd" d="M486.3 187c.8 1.2 2.6 1 4 .3 5.3-2.6 8.6-9 7.6-14.8-.9-5-7-8.7-8.4-2.7-.5 2.1.8 5.1.4 7.5-.5 3.4-2.2 6.6-3.6 9.7z" clip-rule="evenodd"/><path fill="#242448" fill-rule="evenodd" d="M473 160.2c-6.3 3.4-9 11-14.7 15.2a21 21 0 0 0 16.4.4c5-2 17.2-3.3 15.6-10.3-1.6-7.2-12-8.3-17.4-5.3z" clip-rule="evenodd"/><path fill="#7EADF2" fill-rule="evenodd" d="M497 204.7a33.6 33.6 0 0 1 3 19.8c-1 15.1.4 32.7-4.8 47.1-9.9 0-28.7-4.5-38.5-5.5-2-13.2-.8-20.8.2-35.7.6-7.3 1.7-17.2 4.3-24.2 2.1-5.7 7.8-13 16.4-12.8 8 .2 16.2 5.7 19.4 11.3z" clip-rule="evenodd"/><path fill="#F8C2A4" fill-rule="evenodd" d="M481 196.4c-1 .4-2 .2-3-.8-1-.9-.7-1.2-.5-2.5.3-2 .8-3.8 1.2-5.7l5.3 1s-1 5.2-1.2 5.6c-.2 1.1-1 2-1.8 2.4zM428 210l-4.2-4-6.5.2-.7 3.3 9.8 4.2 1.6-3.6z" clip-rule="evenodd"/><path fill="#7EADF2" fill-rule="evenodd" d="M476.6 197.8l-4.7-4.3-25.4 20.2-18.2-6.4-6 7.5 24.5 14.3 25.8-16.5 4-14.8z" clip-rule="evenodd"/><path fill="#242448" fill-rule="evenodd" d="M156.5 358.3l6.8 3.7-.6 3.2-12-1.6.7-4.6 5.1-.7zM126 361.8h-4.7l-1.2 4h.2l7.8 4.5 3.7.3.4-4.2-1-.7-5.2-3.9z" clip-rule="evenodd"/><path fill="#7EADF2" fill-rule="evenodd" d="M140.5 287c.7-.2 2.8 26.9 2.8 26.9l-14.6 49-8.5-1.6 5.2-49s-17.9-20.6-12.7-36a372 372 0 0 0 27.8 10.6z" clip-rule="evenodd"/><path fill="#7EADF2" fill-rule="evenodd" d="M161.6 287.2l1.7 24-4.7 48-8.7-.5s-2.1-45.4-3-46.3a434 434 0 0 1-8.2-24.7l22.9-.5z" clip-rule="evenodd"/><path fill="#5966D7" fill-rule="evenodd" d="M150.1 298.1c-27.5-.5-29.6-14.4-35.6-15.9-6.1-1.5-3-8.7-3-8.7s1.2-3.2 1.7-5a124.3 124.3 0 0 1 14.2-27.6c5.2-7.2 10.5-13.5 15-17.3a50.7 50.7 0 0 1 28-11.9c20.9 6.5 13.5 16.3 13.8 19a64.9 64.9 0 0 0-15.5 25.7 60.2 60.2 0 0 0-2.4 25.8l1.5 9.5c.1 3.5-3.3 6.7-17.7 6.4z" clip-rule="evenodd"/><path fill="#fff" fill-rule="evenodd" d="M170.5 214s4.7-2.6 7.5 1.8c3.5 5.4-16.2 29.6-15.7 81.3a51 51 0 0 1-32.3-3c3.2-15.3 16.6-61.7 40.5-80.2z" clip-rule="evenodd"/><path fill="#242448" fill-rule="evenodd" d="M180.7 197.6c2.4 1.8 4.4 5.7 3.6 8.7-.4 1.5-1.5 2.5-1.8 4-.7 3.2-6.2 5.5-3.9 9.1 1.2 1.9 3.5 2.7 5.6 3.3l.8.2c.4-.1.7-.6.8-1v-1.3c-.6-4.6 2.5-9.2 3.7-13.5 1.1-4.3 1-9.2-2-12.8-2.5.2-3.5-.3-5.1 1.7l-1.7 1.6z" clip-rule="evenodd"/><path fill="#F5CEB0" fill-rule="evenodd" d="M175.3 216c3 .1 6-1.5 7.9-3.9 2-2.3 3-5.3 3.6-8.3 2-10-10.1-13.1-16.5-7-5.6 5.2-3.9 18.4 5 19.1z" clip-rule="evenodd"/><path fill="#242448" fill-rule="evenodd" d="M160.1 214c1.6 0 3.2-.2 4.7-1.3 2.3-1.7 3.7-5.5 5.1-7.9 1.6-2.5 3.3-5.3 6-6.2 2-.7 3.5-.2 5.2.4 1.2.5 1 1 2.3.8 1-.2 2.2-1.4 2.8-2.1.9-1.3 1-3 .4-4.5-.7-2.3-2-3.9-4.2-4.8-7.5-3.4-15.1-1.3-20.4 5.2-2.5 3.2-3.4 7.5-6 10.4-1.5 1.9-3.5 2.7-5 4.7-3.9 5.3-10.2 11.4-12.5 17.6-.1.2-.2.5-.1.7.2.4.9.3 1.3 0l7.8-3.8c1-.5 2-1 2.9-1.8 2-2 2.8-5.2 5.3-6.5 1.4-.7 3-.7 4.4-.9z" clip-rule="evenodd"/><path fill="#5966D7" fill-rule="evenodd" d="M149.5 227l-20.8-4.8-5.5-27.6 6.9.6 5.3 18 27 .8 1.5 2-14.4 11z" clip-rule="evenodd"/><path fill="#F6CFB1" fill-rule="evenodd" d="M132 192.4l-.7-7.2-5.1-4-.3 2.2 1.8 1.8s.4 2.1 1.7 3.2c-.1 1.2-1.1 3.7-1.1 3.7l3.7.3z" clip-rule="evenodd"/><path fill="#1C2D3E" fill-rule="evenodd" d="M254.2 356l6 3.9 2 3s-2.1 1-3.3 1.3c-1.2.3-10.6-.7-10.6-.7l-.3-5.5 6.2-2zM224.4 360.2l3 3.3s2.3 4.5 1.1 4.4c-1.2 0-7.7.3-8.1-.5-.5-.7-4-3.3-4.4-3.8-.5-.5 0-4.7 0-4.7l8.4 1.3z" clip-rule="evenodd"/><path fill="#BEC0C2" fill-rule="evenodd" d="M241.2 272.4l-7.4 45-9.4 42.8-8.4-.5 1.6-45.2s-6-41.5-6-53.8l29.6 11.7z" clip-rule="evenodd"/><path fill="#BEC0C2" fill-rule="evenodd" d="M259.8 274.6l-3.4 83-8.6.4-4.6-42.2-6.7-37.2 17.9-23 5.4 19z" clip-rule="evenodd"/><path fill="#7EADF2" fill-rule="evenodd" d="M255.3 231c-4.6-22.2 1.2-32.8-8.7-39 0 0-16.2-4.4-26.5 3l-.5.3-3.7 7.8-2.9 35s-8 45.8-3.7 46.1c4.8.4 26.8-9.8 31-9.5 4.1.2 16.9 2.5 29-1.6 10.2-3.5-9.5-20.1-14-42.2z" clip-rule="evenodd"/><path fill="#fff" fill-rule="evenodd" d="M235.1 191.4H232l-.3 3.3 11.5 32.3 2.6-14-2.8-20.4-7.9-1.2zM244.7 239.4l-4.5 35.2 9.4 1.3 6.5-.5-8.2-30.5-3.2-5.5z" clip-rule="evenodd"/><path fill="#F2CBAD" fill-rule="evenodd" d="M239.4 192.8l-6.5.2c-.2-1.7-.4-3.4-.3-5.1-1.9-.4-4-1-4.7-2.8l-.1-1.8c0-2.5-.6-5 .2-7.4.3-.8 0-1.8.4-2.5.7-1.4 2.1-2.2 3.6-2.6 3.6-1.2 7.8-1 11 1 .9.6 1.7 1.3 2.2 2.2.7 1.4.5 3 .4 4.6l-.5 4.3c-.2 1.7-.6 3.6-2 4.4-.8.4-1.8.5-2.5 1-1.2 1-.7 3-1.2 4.5z" clip-rule="evenodd"/><path fill="#242448" fill-rule="evenodd" d="M248.7 160.7l-1.5-.3c-1.6-.5-2.8-1.8-4.5-2.3-3.5-1-7.7-.5-10.8 1.2-3 1.6-7.3 2.5-10 4.5-1.1.8-2 2-2.5 3.3a13 13 0 0 0 4.2 15.8c1.8 1.4 3.9 3.2 6 3.5-.2-1.9-2.7-7.5-1.5-9.2 1.6-2.3 5.1-2.5 7.6-2.5 3 0 5.4-1.1 8.4-1.2 1.6 0 3.3 0 4.4-1 1.2-1.3 3.8-5 4.3-6.7a4 4 0 0 0-1.2-4.1c-1-.9-1.9-1-3-1z" clip-rule="evenodd"/><path fill="#7EADF2" fill-rule="evenodd" d="M269 209.3l-19.6-17.7-4.7 4 16.2 27 7.3.7s2.1-7.5 2.6-8.3l-1.8-5.7z" clip-rule="evenodd"/><path fill="#F27088" fill-rule="evenodd" d="M222.4 273.8c-3.8-3.4-8.2-5-13.2-4.7-5 .2-9.2 2.3-12.6 6-3.4 3.8-5 8.2-4.7 13.2a18.8 18.8 0 0 0 10.8 15.8c2.6 1.1 5.4 1.6 8.4 1.5 5-.3 9.2-2.3 12.6-6 3.4-3.8 5-8.2 4.7-13.2-.3-5-2.3-9.2-6-12.6z" clip-rule="evenodd"/><path fill="#E65878" fill-rule="evenodd" d="M228.4 286.4c-.3-5-2.3-9.2-6-12.6-1.3-1.1-2.5-2-3.9-2.7 2 2.8 3.2 6 3.4 9.6.2 5-1.3 9.4-4.7 13.2a17.7 17.7 0 0 1-12.6 6 17.7 17.7 0 0 1-9.3-2 19.5 19.5 0 0 0 7.4 6.1c2.6 1.2 5.4 1.7 8.4 1.6 5-.3 9.2-2.3 12.6-6 3.4-3.8 5-8.2 4.7-13.2z" clip-rule="evenodd"/><path fill="#F27088" fill-rule="evenodd" d="M364.1 207.9a63 63 0 0 0-22.5-41.2 64 64 0 0 0-43.5-18.3c-13.3 0-25.3 5-35.6 14.6a8.5 8.5 0 0 0 .1 12.5l8.1 7.3c3.2 3 8.1 3 11.4 0a27.4 27.4 0 0 1 18.4-7.6c8 0 16 3.5 23.8 10.5 7.8 7 12 14.6 12.5 22.7.5 8-2.7 16-9.5 23.6-9.5 10.4-18.9 14.8-28 12.9-9.4-2-20.8-9-33.9-21l-3.5-3.2a8.5 8.5 0 0 0-12 .6l-27.5 30.5a8.5 8.5 0 0 0 .6 12l8.2 7.4a8.5 8.5 0 0 0 12-.6l17.9-19.7c.2-.3.6-.3.8 0 15.7 13.3 30.5 20.5 44 21.3 14.4.8 28.2-6 41-20.1 12.8-14.2 18.6-29 17.2-44.2z" clip-rule="evenodd"/><path fill="#E65878" fill-rule="evenodd" d="M364.1 207.9a63 63 0 0 0-22.5-41.2 72 72 0 0 0-26.3-15.7c4.3 2.6 8.5 5.7 12.6 9.4a63 63 0 0 1 22.5 41.2c1.4 15.2-4.4 30-17.2 44.2-12.8 14.2-26.6 21-41 20.1-4.2-.3-8.4-1.1-12.8-2.6a60.8 60.8 0 0 0 26.5 8.9c14.4.8 28.2-6 41-20.1 12.8-14.2 18.6-29 17.2-44.2z" clip-rule="evenodd"/><path fill="#7EADF2" fill-rule="evenodd" d="M223.5 193l-9.3 3-22.2 37.8 1.5 7.3 28.8 14.4 4-7.8-18.2-14 11.2-15 4.2-24.3V193z" clip-rule="evenodd"/><path fill="#F8C2A4" fill-rule="evenodd" d="M249 191.9l-4.7-5-4.6 1.2-1.2 4.5 4 .8 3.8.7 2.7-2.2z" clip-rule="evenodd"/><path fill="#F2CBAD" fill-rule="evenodd" d="M226 248.4l4.5 1-.8 2.6 4 4.6-5.4 2-5.3-4.5 3-5.7z" clip-rule="evenodd"/><path fill="#F27088" fill-rule="evenodd" d="M130.7 218c-2.8.9-4.9 2.6-6.2 5.1a10.2 10.2 0 0 0-.8 8c.9 2.8 2.6 5 5.1 6.3 2.6 1.3 5.3 1.6 8 .7a10.2 10.2 0 0 0 6.3-5.1c1.4-2.5 1.6-5.2.8-8-.9-2.8-2.6-4.9-5.1-6.2a10.2 10.2 0 0 0-8-.8z" clip-rule="evenodd"/><path fill="#E65878" fill-rule="evenodd" d="M138.8 218.8a10.2 10.2 0 0 0-8-.8c-1 .3-1.8.6-2.6 1.1 2-.2 4 .2 5.8 1.2 2.6 1.3 4.3 3.5 5.1 6.2.9 2.8.6 5.5-.7 8a10.2 10.2 0 0 1-3.8 4 11.3 11.3 0 0 0 5.3-1.8c1.3-1 2.4-2.1 3.2-3.7 1.4-2.5 1.6-5.2.8-8-.9-2.8-2.6-4.9-5.1-6.2z" clip-rule="evenodd"/><path fill="#F27088" fill-rule="evenodd" d="M140.3 128.3c-8-3.8-17-4.2-27.1-1.1a37 37 0 0 0-22 16c-4 6.6-5.1 14-3.4 22a5 5 0 0 0 6.2 3.7l6-1.9a5 5 0 0 0 3.4-5.6c-.8-4.4-.2-8 1.7-11.4 2.4-4 6.5-6.9 12.3-8.6a19.6 19.6 0 0 1 15 .5c4.1 2.2 7 6.1 8.8 11.8 2.4 7.8 1.8 13.7-1.9 17.6a46 46 0 0 1-20.5 10.5l-2.6.8a5 5 0 0 0-3.3 6.2l7 22.6a4.9 4.9 0 0 0 6 3.3l6.2-1.9a5 5 0 0 0 3.3-6l-4.5-14.8c0-.1 0-.3.2-.4a45 45 0 0 0 23.7-15.4c4.7-6.9 5.5-15.7 2.2-26.3a33.3 33.3 0 0 0-16.7-21.6z" clip-rule="evenodd"/><path fill="#E65878" fill-rule="evenodd" d="M140.3 128.3c-8-3.8-17-4.2-27.1-1.1a41.6 41.6 0 0 0-15.7 8.3c2.6-1.3 5.4-2.5 8.5-3.4 10-3 19.2-2.7 27 1.1 8 3.8 13.6 11.1 16.9 21.6 3.2 10.6 2.4 19.5-2.3 26.3-1.4 2-3 3.9-5 5.6 5.3-3 9.4-6.5 12.2-10.5 4.7-6.9 5.5-15.7 2.2-26.3a33.3 33.3 0 0 0-16.7-21.6z" clip-rule="evenodd"/><path fill="#F27088" fill-rule="evenodd" d="M408.2 228.8c-3.6-.5-6.8.3-9.6 2.4s-4.5 5-5 8.6c-.5 3.5.3 6.7 2.4 9.5s5 4.5 8.5 5a12.6 12.6 0 0 0 9.6-2.4c2.8-2.1 4.5-5 5-8.5.5-3.6-.3-6.8-2.4-9.6s-5-4.5-8.5-5z" clip-rule="evenodd"/><path fill="#E65878" fill-rule="evenodd" d="M416.7 233.8c-2.1-2.8-5-4.5-8.5-5-1.2-.2-2.3-.2-3.4 0 2.4.8 4.3 2.2 5.8 4.3 2.2 2.8 3 6 2.5 9.5-.5 3.6-2.2 6.4-5 8.6a12.5 12.5 0 0 1-6.3 2.5 13.8 13.8 0 0 0 6.8.6c2-.3 3.8-1.1 5.5-2.4 2.8-2.1 4.5-5 5-8.5.5-3.6-.3-6.8-2.4-9.6z" clip-rule="evenodd"/><path fill="#F27088" fill-rule="evenodd" d="M465.2 134.2a44.6 44.6 0 0 0-29.5-15.3 45.3 45.3 0 0 0-32.7 6.4 36.1 36.1 0 0 0-15.1 22.7 6 6 0 0 0 5 7.3l7.6 1a6 6 0 0 0 6.7-4.4c1.4-5.3 4-9.1 7.8-11.8a25 25 0 0 1 18-3.2 24 24 0 0 1 16.4 8.3 22.6 22.6 0 0 1 3.7 17.6c-1.4 10-5.1 16.2-11.2 18.6-6.4 2.6-15.9 3-28.2 1.1l-3.3-.5a6 6 0 0 0-6.8 5.2l-4.1 28.7a6 6 0 0 0 5.1 6.8l7.7 1a6 6 0 0 0 6.9-5l2.6-18.6c0-.3.2-.4.5-.4 14.4 1.7 26 0 34.2-4.8 8.8-5.2 14.2-14.6 16.1-28a40.7 40.7 0 0 0-7.4-32.7z" clip-rule="evenodd"/><path fill="#E65878" fill-rule="evenodd" d="M465.2 134.2a44.6 44.6 0 0 0-29.5-15.3 51 51 0 0 0-21.6 1.2c3.5-.2 7.2 0 11 .6 12.9 1.8 22.8 6.9 29.6 15.2a40.7 40.7 0 0 1 7.4 32.7c-1.9 13.4-7.3 22.8-16.1 28a35.7 35.7 0 0 1-8.5 3.6 43 43 0 0 0 19-5.3c8.8-5.2 14.2-14.6 16.1-28a40.7 40.7 0 0 0-7.4-32.7z" clip-rule="evenodd"/><path fill="#242448" fill-rule="evenodd" d="M419.6 359.3l4.2-1.2 6.9 10.4h-6.9l-4.1-2.1-.1-7.1z" clip-rule="evenodd"/><path fill="#3B308A" fill-rule="evenodd" d="M343.6 338.3s-6 4.4-5.9 8.2c0 0-.6 8.1 1 11.3l9 8.2 16.5-1 5.3-23.5-26-3.2z" clip-rule="evenodd"/><path fill="#424DBF" fill-rule="evenodd" d="M361.7 343.5s-7.1-1.6-9.5 3.2l-5 9 8.7 11.4 64.9-.2-.2-7.7-21-6a13 13 0 0 0 4.4-5.2c1.6-3.5.3-6.2-1-9.5-.4-1-2.4-6.8-4-6.3l-37.3 11.3z" clip-rule="evenodd"/><path fill="#B07447" fill-rule="evenodd" d="M323.5 255l-3-5.4 2.2-1.4 2.9 3.2.7-1.1 2 4.8-2 1.8-2.8-2z" clip-rule="evenodd"/><path fill="#F7D6D6" fill-rule="evenodd" d="M367 267.3l-20.6 5.5-18.2-19.5-4 3.6 16.7 32.3 25.2-5 .9-17z" clip-rule="evenodd"/><path fill="#F7D6D6" fill-rule="evenodd" d="M346.7 325.3c4.5-12.5 5.4-25.7 7-38.7.4-3.9 1-7.8 2.7-11.3 2-4 5.1-6 8.7-7.1 4.6-1.4 10-1.1 14.7-1.2 4.5 0 7.9 17 12.2 25.2 2.6 5.1 5.4 9.6 7 15.1 1.7 5.3 3.3 10.7 4.1 16.2 1.4 8.2 5.3 14.1 1.3 16.8-.4 0-.7.2-1 .3-6.5 2-13.2 3.5-20 4.2-6 .6-12 .5-18-.2-8.1-1.1-16-2.5-23-7l4.3-12.3z" clip-rule="evenodd"/><path fill="#B07447" fill-rule="evenodd" d="M382.4 254.5c-2.3-7.8-13.5-10.8-16.4-2-.9 2.7-1.4 5.5-1 8.3a8.9 8.9 0 0 0 4.6 6.7l-.3 2.1v.5l.5.2 2.5.5h1.3c.9-.3 1.3-1.3 1.3-2.2v-.7c5.2-1.6 9-8.3 7.5-13.4z" clip-rule="evenodd"/><path fill="#242448" fill-rule="evenodd" d="M369.1 241c-2-.4-3.9 1.5-5.8 2.5-1.6.8-3.4 1-5 1.6-1.7.7-3.4 2.2-3.5 4-1.6-.9-3.4-1.8-5.3-1.5-1.8.3-3.6 2.4-3 4.3.7 1.7 2.8 2.1 3.5 3.7 1 2.6-2.2 6.5-.2 8.2.5.5 1.2.6 1.7 1 .6.6.7 1.5 1 2.3a8 8 0 0 0 8.3 5.7c2.2-1 4-3 5-5.5 1-3-.6-4-.7-6.8-.2-3.1.8-6.3 2.8-8.6 1.3-1.5 3.2-2.8 5-2.9.9 0 .6.6 1.5 0 .4-.2.9-1.2 1-1.6-2-1.8-3.6-6-6.3-6.5z" clip-rule="evenodd"/><path fill="#242448" fill-rule="evenodd" d="M391.2 245.6c1 .3 2.2.3 3.2.8 1.5.7 1.4 2.3 1.8 3.7.4 1.5 1 3.6 2 4.8.7.8 1.7 1.4 2.5 2 .9.7 1.7 1.7 1.6 3 0 1-.8 2-1 3.1-.2 1.7.1 2.5-.5 4.2-.3.9-.6 1.8-1.3 2.4-.9.8-2.1.7-3.2.5-1-.2-2.2-.6-3.3-.2-2.3.7-2 3-2.6 5-1 3-4.6 4.6-7.3 3.4-2.2-1-3.4-3.6-3.2-6.2 0-1.3.6-2.5.7-3.8 0-1.2-.6-3 .6-4l.9-.5.4-.8c.3-1 0-2.2-.5-3-.4-.6-1-1-1.3-1.7-.3-.8 0-1.7.1-2.6.2-2-.9-4.2-2.6-5-1.1-.6-2.2-1-3.2-1.8-.1-.2-2.3-2.3-2.4-1.8.1-.8.6-1.4 1-2 .8-1 1.7-2 2.8-2.5 3.4-1.9 3.4 2.7 6.1 2.2.7-.2 1.2-.7 1.8-1 1.1-.7 2.5-.4 3.6.1 1.1.6 2.2 1.3 3.3 1.7z" clip-rule="evenodd"/><path fill="#F27088" fill-rule="evenodd" d="M329.6 338a8.3 8.3 0 0 0-6.5 1c-2 1.2-3.3 3-3.8 5.2a8.3 8.3 0 0 0 1 6.5c1.2 2 3 3.3 5.3 3.8 1 .3 1.8.3 2.7.3 1.3-.1 2.6-.5 3.8-1.3 2-1.2 3.3-3 3.8-5.3.6-2.3.2-4.4-1-6.4s-3-3.3-5.3-3.9z" clip-rule="evenodd"/><path fill="#E65878" fill-rule="evenodd" d="M335 341.8c-1.3-2-3-3.3-5.4-3.9a9 9 0 0 0-2.2-.2c1.5.7 2.7 1.7 3.6 3.2 1.2 2 1.5 4.2 1 6.5-.6 2.3-1.9 4-3.9 5.3a8.3 8.3 0 0 1-4.3 1.2 9.1 9.1 0 0 0 4.5.9c1.3-.1 2.6-.5 3.8-1.3 2-1.2 3.3-3 3.8-5.3.6-2.3.2-4.4-1-6.4z" clip-rule="evenodd"/><path fill="#F27088" fill-rule="evenodd" d="M373.2 279c-3.9-5.8-10.1-9.8-18.5-11.8a30 30 0 0 0-22 2.1 24 24 0 0 0-11.4 14 4 4 0 0 0 2.9 5.2l5 1.2c2 .4 4-.7 4.6-2.6 1.3-3.4 3.2-5.8 5.9-7.3 3.3-1.8 7.4-2.1 12.2-1 4.7 1.2 8.2 3.4 10.2 6.6a15 15 0 0 1 1.4 11.8c-1.6 6.5-4.5 10.4-8.6 11.6-4.4 1.3-10.7 1-18.7-1l-2.2-.6a4 4 0 0 0-4.8 3l-4.5 18.7a4 4 0 0 0 3 4.8l5 1.2a4 4 0 0 0 4.8-3l3-12c0-.2.1-.3.3-.3 9.4 2 17.1 1.7 22.9-1 6.1-2.9 10.3-8.8 12.4-17.5a27 27 0 0 0-2.9-22z" clip-rule="evenodd"/><path fill="#E65878" fill-rule="evenodd" d="M373.2 279c-3.9-5.8-10.1-9.8-18.5-11.8-5.1-1.3-10-1.5-14.3-.6 2.3 0 4.8.4 7.3 1 8.3 2 14.5 6 18.5 12s4.9 13.3 2.8 22c-2 8.7-6.3 14.6-12.4 17.5-1.8.8-3.7 1.4-5.8 1.8 5 .1 9.3-.6 12.9-2.3 6-2.9 10.3-8.8 12.4-17.5a27 27 0 0 0-2.9-22z" clip-rule="evenodd"/><path fill="#F27088" fill-rule="evenodd" d="M183.7 163c-2.2-.1-4 .6-5.5 2a7.4 7.4 0 0 0-2.4 5.4c0 2.1.6 4 2 5.5a7.9 7.9 0 0 0 7.8 2.1c1.1-.3 2.2-1 3.1-1.8a7.4 7.4 0 0 0 2.4-5.4 7.4 7.4 0 0 0-7.4-7.9z" clip-rule="evenodd"/><path fill="#E65878" fill-rule="evenodd" d="M189 165.3a7.4 7.4 0 0 0-5.3-2.3 8 8 0 0 0-2 .1c1.4.4 2.6 1.1 3.7 2.2a7.4 7.4 0 0 1 2 5.5 7.4 7.4 0 0 1-6 7.3 8.2 8.2 0 0 0 4.2-.1c1.1-.3 2.2-1 3.1-1.8a7.4 7.4 0 0 0 2.4-5.4c0-2-.6-4-2-5.5z" clip-rule="evenodd"/><path fill="#F27088" fill-rule="evenodd" d="M211 103.3a26.5 26.5 0 0 0-18.4-7 27 27 0 0 0-18.9 6 21.5 21.5 0 0 0-7.4 14.3 3.6 3.6 0 0 0 3.5 4l4.5.1c1.9 0 3.4-1.3 3.7-3 .5-3.3 1.7-5.7 3.8-7.5 2.5-2.2 6-3.3 10.5-3.2 4.4.2 7.8 1.5 10.2 4 2.3 2.3 3.5 5.8 3.3 10-.1 6-2 10-5.4 11.8-3.6 2-9.1 2.8-16.6 2.5h-2c-2-.1-3.6 1.4-3.6 3.4l-.5 17.2a3.6 3.6 0 0 0 3.4 3.7l4.7.1 1-.1a3.6 3.6 0 0 0 2.7-3.4l.3-11.1c0-.1.1-.3.3-.3 8.6 0 15.3-1.7 19.9-5 4.8-3.7 7.4-9.6 7.6-17.7.2-8-2-14.3-6.5-18.8z" clip-rule="evenodd"/><path fill="#E65878" fill-rule="evenodd" d="M211 103.3a26.5 26.5 0 0 0-18.4-7c-4.7-.2-9 .6-12.7 2.1 2.1-.3 4.3-.5 6.6-.4 7.7.2 14 2.6 18.5 7a24.2 24.2 0 0 1 6.5 18.9c-.2 8-2.8 14-7.6 17.5-1.4 1.1-3 2-4.8 2.7 4.4-.8 8-2.3 10.9-4.4 4.8-3.6 7.4-9.5 7.6-17.6.2-8-2-14.3-6.5-18.8z" clip-rule="evenodd"/><path fill="#F7D6D6" fill-rule="evenodd" d="M381.3 295.2l-8.8 17.1-24.4.6v4.8l28.9 5.8 10.2-16.2-5.9-12.1z" clip-rule="evenodd"/><path fill="#5966D7" fill-rule="evenodd" d="M187 250.3l-2.5-26.3-6.1-.3-4.2 20.3-5.2 8.5 7.9 7.6s6.6-4.1 7.5-4.4l2.5-5.4z" clip-rule="evenodd"/><path fill="#F8C2A4" fill-rule="evenodd" d="M184 224v-7l-4.2-2.1-4 2.5 2.4 3.3 2.3 3.1 3.5.1z" clip-rule="evenodd"/><path fill="#7EADF2" fill-rule="evenodd" d="M508.9 210.8l-7.3-25.4-6.1.9-.5 31.5 5.8 4.5s5.8-5.3 6.6-5.7l1.5-5.8z" clip-rule="evenodd"/></svg>