<svg width="589" height="418" viewBox="0 0 589 418" fill="none" xmlns="http://www.w3.org/2000/svg">
<path opacity="0.426121" fill-rule="evenodd" clip-rule="evenodd" d="M380.223 43.221C226.307 -28.551 64.564 -7.4519 18.959 90.347C-26.6453 188.147 0.397598 500.012 215.075 397.384C429.751 294.755 530.734 448.057 576.339 350.258C621.943 252.458 534.139 114.993 380.223 43.221Z" fill="#B7C6E0"/>
<path opacity="0.200577" fill-rule="evenodd" clip-rule="evenodd" d="M257.04 355.106C243.207 355.147 229.374 355.479 215.566 357.015C210.359 357.594 205.262 358.867 200.043 359.381C189.62 360.407 179.383 362.321 168.922 363.204C160.499 363.915 152.04 364.334 143.641 365.236C135.766 366.083 127.048 365.888 119.234 364.49C113.449 363.456 107.638 362.873 101.95 361.212C95.588 359.353 88.676 358.025 82.046 358.072C72.593 358.141 63.387 358.148 54.341 361.431C51.165 362.582 47.277 364.476 44.866 366.893C39.346 372.428 38.599 386.237 44.111 391.978C53.394 401.638 73.209 405.429 86.222 405.608C100.483 405.804 114.335 404.746 128.617 404.124C141.887 403.545 155.124 402.722 168.415 402.751C195.563 402.81 222.714 402.751 249.813 400.938C275.273 399.235 300.797 399.819 326.312 399.819C352.477 399.819 378.465 400.025 404.442 403.502C415.76 405.017 427.291 405.547 438.666 406.608C448.853 407.559 458.643 406.59 468.79 405.711C477.309 404.974 485.774 402.785 493.515 399.087C499.642 396.16 510.565 387.065 512.444 380.077C517.711 360.487 438.206 360.958 425.999 361.002C412.343 361.051 398.578 361.5 384.934 360.979C379.194 360.76 373.538 359.639 367.937 358.41C362.357 357.185 356.735 357.497 351.076 356.982C327.479 354.837 303.83 355.15 280.158 355.15C272.455 355.15 264.747 355.083 257.04 355.106Z" fill="#212D5F"/>
<path fill-rule="evenodd" clip-rule="evenodd" d="M56.194 212.649C57.346 211.961 59.126 211.766 60.539 211.002C61.251 210.617 61.223 208.979 62.727 209.733C63.282 210.011 64.224 210.823 65.286 211.34C66.835 212.094 69.124 212.243 71.092 211.988C78.824 210.986 86.584 210.129 94.42 210.03C94.867 210.025 95.309 210.033 95.704 209.803C96.413 209.391 96.569 208.631 96.805 207.894C97.9 204.473 99.09 201.132 100.82 197.965C102.365 195.139 104.131 192.473 106.789 190.613C109.446 188.753 112.806 187.999 115.763 189.242C117.978 190.173 119.729 191.932 119.994 194.355C120.65 200.365 114.85 204.306 111.242 208.16C107.829 211.806 104.913 214.897 101.384 218.205C100.948 218.613 100.534 218.994 99.956 219.198C99.377 219.401 98.733 219.358 98.129 219.297C90.357 218.508 82.802 217.539 75.045 218.451C72.914 218.701 71.042 218.089 69.012 218.586C67.717 218.903 66.951 220.095 65.742 220.591C64.533 221.088 63.114 221.575 61.811 221.548C58.941 221.489 55.905 218.804 55.186 215.972C54.717 214.125 55.241 213.218 56.194 212.649Z" fill="#FFC0A5"/>
<path fill-rule="evenodd" clip-rule="evenodd" d="M140.161 121.764C148.142 123.607 153.118 131.57 151.275 139.551L148.728 150.585C147.057 157.824 140.35 162.591 133.162 162.04C133.145 162.098 133.128 162.157 133.11 162.215L114.486 157.915C112.012 154.177 120.3 134.611 124.092 128.367C124.861 127.101 125.482 126.383 126.002 126.071C129.498 122.348 134.826 120.533 140.161 121.764Z" fill="#191847"/>
<path fill-rule="evenodd" clip-rule="evenodd" d="M131.326 152.771C126.879 154.214 122.78 154.461 121.085 153.582C116.835 151.38 120.219 134.828 125.212 129.147C130.205 123.466 148.827 124.787 146.765 137.85C146.05 142.384 143.249 145.931 139.72 148.538L139.364 172.819L124.887 169.477L131.326 152.771Z" fill="#FFC0A5"/>
<path fill-rule="evenodd" clip-rule="evenodd" d="M151.076 137.812C150.863 137.482 150.655 137.158 150.447 136.848L150.602 136.288C150.602 136.288 148.117 125.945 141.005 124.303C133.899 122.662 130.905 125.378 128.36 127.687L128.353 127.694C128.577 131.282 131.275 133.335 134.326 135.658C135.583 136.615 136.9 137.618 138.129 138.792C138.724 138.603 139.378 138.566 140.032 138.717C141.965 139.164 143.174 141.081 142.731 143C142.288 144.919 140.361 146.113 138.427 145.667C138.354 145.65 138.281 145.63 138.209 145.609C135.958 152.567 134.456 160.514 135.998 162.882L153.964 167.03C156.519 158.316 154.783 155.261 153.009 152.14C151.339 149.202 149.636 146.206 151.443 138.381C151.318 138.19 151.196 138 151.076 137.812Z" fill="#191847"/>
<path fill-rule="evenodd" clip-rule="evenodd" d="M111.343 205.999C107.106 203.95 102.601 202.529 98.506 200.14C100.383 196.548 106.194 181.775 107.125 180.026C110.677 173.354 111.508 170.418 115.887 167.116C125.235 160.064 135.068 166.154 133.672 177.21C132.156 189.212 124.812 198.982 117.022 207.681C116.853 207.87 116.633 208.01 116.36 208.086C116.087 208.162 115.691 208.026 115.384 207.872C114.068 207.213 112.68 206.646 111.343 205.999Z" fill="#2F3788"/>
<path fill-rule="evenodd" clip-rule="evenodd" d="M108.591 372.847C107.051 372.899 105.572 372.553 104.061 372.413C103.281 357.39 104.697 341.644 105.311 326.55C109.161 326.756 113.011 326.962 116.86 327.167C114.18 335.235 112.266 343.558 111.146 351.986C110.969 353.322 108.81 372.839 108.591 372.847Z" fill="#FFC0A5"/>
<path fill-rule="evenodd" clip-rule="evenodd" d="M103.594 369.499C102.644 369.329 102.083 369.753 101.449 370.333C101.082 370.67 100.832 371.147 100.388 371.388C99.944 371.63 99.508 371.677 98.981 371.73C96.204 372.01 89.805 371.894 93.214 376.55C96.309 380.779 104.531 379.095 109.28 377.947C109.593 377.871 109.922 377.824 110.151 377.582C110.38 377.339 110.535 376.995 110.632 376.637C111.174 374.647 111.915 372.162 109.474 371.328C108.433 370.973 107.475 371.664 106.372 371.281C105.47 370.967 104.544 369.669 103.594 369.499Z" fill="#242448"/>
<path fill-rule="evenodd" clip-rule="evenodd" d="M96.679 335.611C104.531 335.458 112.382 335.305 120.233 335.153C126.584 304.844 132.177 274.376 137.005 243.787C137.38 241.415 137.744 238.948 137.062 236.647C135.773 232.293 131.122 229.809 126.668 228.975C119.748 227.679 107.032 229.484 103.484 236.696C99.733 244.319 100.363 257.934 99.453 266.357C96.971 289.344 96.041 312.499 96.679 335.611Z" fill="#242448"/>
<path fill-rule="evenodd" clip-rule="evenodd" d="M153.489 372.847C155.028 372.899 156.507 372.553 158.019 372.413C158.799 357.39 157.383 341.644 156.768 326.55C152.918 326.756 149.069 326.962 145.219 327.167C147.9 335.235 149.814 343.558 150.933 351.986C151.11 353.322 153.269 372.839 153.489 372.847Z" fill="#FFC0A5"/>
<path fill-rule="evenodd" clip-rule="evenodd" d="M158.486 369.499C159.436 369.329 159.997 369.753 160.63 370.333C160.998 370.67 161.248 371.147 161.692 371.388C162.135 371.63 162.571 371.677 163.098 371.73C165.876 372.01 172.274 371.894 168.865 376.55C165.77 380.779 157.549 379.095 152.799 377.947C152.487 377.871 152.157 377.824 151.928 377.582C151.7 377.339 151.545 376.995 151.448 376.637C150.905 374.647 150.165 372.162 152.605 371.328C153.646 370.973 154.605 371.664 155.707 371.281C156.61 370.967 157.536 369.669 158.486 369.499Z" fill="#242448"/>
<path fill-rule="evenodd" clip-rule="evenodd" d="M165.402 335.611C157.551 335.458 149.699 335.305 141.848 335.153C135.497 304.844 129.904 274.376 125.076 243.787C124.702 241.415 124.338 238.948 125.019 236.647C126.309 232.293 130.96 229.809 135.413 228.975C142.334 227.679 155.049 229.484 158.598 236.696C162.349 244.319 161.719 257.934 162.628 266.357C165.111 289.344 166.04 312.499 165.402 335.611Z" fill="#242448"/>
<path fill-rule="evenodd" clip-rule="evenodd" d="M145.27 169.415C151.564 175.42 156.279 183.134 159.119 191.125C164.148 205.275 164.245 220.385 164.291 235.19C164.307 240.118 164.322 245.045 164.337 249.973C164.353 254.821 163.925 255.864 158.669 255.225C148.929 254.041 138.804 252.028 129.979 247.689C125.78 245.625 121.855 243.017 117.452 241.391C111.047 239.026 104.481 240.097 98.145 238.558C100.895 230.223 102.864 223.122 104.276 214.534C105.73 205.691 107.051 196.044 109.181 187.32C110.46 182.085 112.837 177.194 115.255 172.38C116.881 169.144 118.602 165.832 121.362 163.493C129.677 156.449 139 163.432 145.27 169.415Z" fill="#1F28CF"/>
<path fill-rule="evenodd" clip-rule="evenodd" d="M50.299 232.891C50.299 232.891 52.702 244.336 51.097 249.516L55.466 249.549L54.057 231.149L50.299 232.891Z" fill="#BABDBF"/>
<path fill-rule="evenodd" clip-rule="evenodd" d="M55.257 247.548C54.034 247.742 52.805 247.882 51.569 247.968C51.371 247.981 51.408 248.307 51.606 248.294C52.842 248.208 54.07 248.068 55.294 247.874C55.49 247.843 55.454 247.516 55.257 247.548Z" fill="#BABDBF"/>
<path fill-rule="evenodd" clip-rule="evenodd" d="M55.061 245.817C54.01 245.961 52.967 246.104 51.769 246.267C51.573 246.294 51.609 246.621 51.806 246.594C52.903 246.443 54 246.293 55.098 246.144C55.295 246.116 55.259 245.79 55.061 245.817Z" fill="#BABDBF"/>
<path fill-rule="evenodd" clip-rule="evenodd" d="M54.893 244.326C54.082 244.569 53.583 244.713 51.745 244.694C51.546 244.692 51.584 245.022 51.782 245.02C52.846 245.008 53.891 244.886 54.929 244.653C55.122 244.609 55.087 244.283 54.893 244.326Z" fill="#BABDBF"/>
<path fill-rule="evenodd" clip-rule="evenodd" d="M54.973 242.223C53.914 242.479 52.847 242.663 51.764 242.776C51.566 242.797 51.603 243.122 51.801 243.102C52.883 242.989 53.951 242.805 55.01 242.549C55.2 242.503 55.167 242.177 54.973 242.223Z" fill="#BABDBF"/>
<path fill-rule="evenodd" clip-rule="evenodd" d="M54.68 240.358C53.635 240.516 52.586 240.642 51.534 240.736C51.336 240.754 51.372 241.079 51.571 241.062C52.624 240.967 53.672 240.841 54.717 240.685C54.913 240.655 54.877 240.329 54.68 240.358Z" fill="#BABDBF"/>
<path fill-rule="evenodd" clip-rule="evenodd" d="M54.391 238.5C53.377 238.691 52.359 238.843 51.334 238.955C51.137 238.977 51.173 239.303 51.371 239.281C52.396 239.169 53.414 239.017 54.428 238.827C54.622 238.789 54.587 238.464 54.391 238.5Z" fill="#BABDBF"/>
<path fill-rule="evenodd" clip-rule="evenodd" d="M54.228 236.38C53.143 236.613 52.05 236.799 50.95 236.942C50.917 236.945 50.893 236.96 50.873 236.978C50.875 236.991 50.876 237.004 50.878 237.017C50.9 237.097 50.918 237.178 50.935 237.259C50.951 237.263 50.967 237.27 50.987 237.267C52.087 237.126 53.179 236.938 54.265 236.706C54.457 236.664 54.422 236.338 54.228 236.38Z" fill="#BABDBF"/>
<path fill-rule="evenodd" clip-rule="evenodd" d="M54.146 234.265C53.076 234.421 52.006 234.577 50.935 234.733C50.739 234.762 50.775 235.087 50.972 235.058C52.043 234.903 53.113 234.747 54.183 234.592C54.38 234.562 54.344 234.237 54.146 234.265Z" fill="#BABDBF"/>
<path fill-rule="evenodd" clip-rule="evenodd" d="M127.327 267.079L49.258 273.638C49.159 273.646 49.07 273.57 49.062 273.468L47.956 260.398C47.947 260.296 48.021 260.206 48.121 260.198L126.189 253.638C126.289 253.63 126.377 253.706 126.386 253.808L127.491 266.878C127.501 266.98 127.427 267.07 127.327 267.079Z" fill="#F27088"/>
<path fill-rule="evenodd" clip-rule="evenodd" d="M63.01 272.484L54.804 273.173L53.666 259.731L61.872 259.041L63.01 272.484Z" fill="#242448"/>
<path fill-rule="evenodd" clip-rule="evenodd" d="M66.726 272.171L64.901 272.325L63.764 258.882L65.588 258.729L66.726 272.171Z" fill="#242448"/>
<path fill-rule="evenodd" clip-rule="evenodd" d="M73.092 264.867C73.203 266.183 72.251 267.336 70.966 267.444C69.68 267.552 68.548 266.574 68.437 265.259C68.325 263.944 69.277 262.79 70.562 262.682C71.848 262.574 72.981 263.552 73.092 264.867Z" fill="#242448"/>
<path fill-rule="evenodd" clip-rule="evenodd" d="M126.843 253.732L48.775 260.291C48.675 260.299 48.587 260.223 48.578 260.121L47.692 249.65C47.684 249.548 47.758 249.458 47.858 249.45L125.926 242.891C126.026 242.883 126.114 242.958 126.122 243.061L127.008 253.531C127.017 253.633 126.943 253.723 126.843 253.732Z" fill="#5966D7"/>
<path fill-rule="evenodd" clip-rule="evenodd" d="M57.91 251.698L58.308 256.397L60.598 254.097L57.91 251.698Z" fill="#F7D6D6"/>
<path fill-rule="evenodd" clip-rule="evenodd" d="M61.088 251.887L61.409 255.681L63.258 253.823L61.088 251.887Z" fill="#F7D6D6"/>
<path fill-rule="evenodd" clip-rule="evenodd" d="M53.185 259.92L52.83 259.95L51.912 249.109L52.267 249.08L53.185 259.92Z" fill="#F7D6D6"/>
<path fill-rule="evenodd" clip-rule="evenodd" d="M54.853 259.78L54.497 259.81L53.58 248.969L53.935 248.94L54.853 259.78Z" fill="#F7D6D6"/>
<path fill-rule="evenodd" clip-rule="evenodd" d="M68.319 128.44L62.759 130.504L62.834 129.164C63.06 125.132 62.361 120.273 61.193 116.397L61.423 116.154L66.522 111.742L68.319 128.44Z" fill="#F7D6D6"/>
<path fill-rule="evenodd" clip-rule="evenodd" d="M100.091 126.282L67.841 127.709L62.623 130.446L97.55 128.979L100.091 126.282Z" fill="#94B99C"/>
<path fill-rule="evenodd" clip-rule="evenodd" d="M62.531 130.086C63.469 129.833 64.355 129.211 65.244 128.718C66.077 128.255 66.908 127.794 67.738 127.333C67.87 127.26 67.972 127.695 67.84 127.768C66.944 128.266 66.046 128.766 65.146 129.266C64.304 129.735 63.467 130.304 62.578 130.544C62.438 130.582 62.392 130.124 62.531 130.086Z" fill="#ABC1BB"/>
<path fill-rule="evenodd" clip-rule="evenodd" d="M66.528 112.352C64.661 113.573 62.855 115.071 61.123 116.85C60.944 117.035 60.711 116.444 60.892 116.258C62.65 114.453 64.478 112.925 66.374 111.688C66.569 111.56 66.723 112.225 66.528 112.352Z" fill="#ABC1BB"/>
<path fill-rule="evenodd" clip-rule="evenodd" d="M98.751 110.486L66.258 111.753L66.762 115.338C67.17 118.238 67.463 121.152 67.64 124.05L67.842 127.709L100.091 126.282L100.103 126.066C100.375 120.966 99.906 115.548 98.751 110.486Z" fill="#7EADF2"/>
<path fill-rule="evenodd" clip-rule="evenodd" d="M71.167 111.926C71.072 111.47 70.364 111.552 70.46 112.012C71.459 116.814 71.815 121.7 71.507 126.595C71.478 127.061 72.183 127.172 72.212 126.704C72.525 121.747 72.18 116.791 71.167 111.926Z" fill="#5966D7"/>
<path fill-rule="evenodd" clip-rule="evenodd" d="M94.879 111.178C94.779 110.723 94.072 110.811 94.172 111.27C95.212 116.063 95.611 120.947 95.344 125.844C95.319 126.309 96.025 126.416 96.051 125.947C96.32 120.987 95.933 116.034 94.879 111.178Z" fill="#5966D7"/>
<path fill-rule="evenodd" clip-rule="evenodd" d="M52.822 149.932L40.351 153.12L40.617 151.31C41.414 145.863 40.226 139.369 37.926 134.232L38.452 133.888L50.076 127.57L52.822 149.932Z" fill="#FFC0A5"/>
<path fill-rule="evenodd" clip-rule="evenodd" d="M123.384 144.689L51.816 148.982L40.053 153.053L117.554 148.508L123.384 144.689Z" fill="#242448"/>
<path fill-rule="evenodd" clip-rule="evenodd" d="M39.876 152.575C41.972 152.166 43.983 151.262 45.987 150.533C47.867 149.848 49.744 149.165 51.617 148.483C51.914 148.375 52.109 148.954 51.811 149.062C49.789 149.799 47.763 150.538 45.732 151.278C43.83 151.971 41.934 152.799 39.945 153.188C39.632 153.25 39.565 152.636 39.876 152.575Z" fill="#2F3788"/>
<path fill-rule="evenodd" clip-rule="evenodd" d="M50.045 128.392C45.817 130.174 41.706 132.324 37.735 134.849C37.324 135.11 36.851 134.331 37.266 134.067C41.296 131.507 45.46 129.315 49.751 127.508C50.193 127.323 50.485 128.206 50.045 128.392Z" fill="#2F3788"/>
<path fill-rule="evenodd" clip-rule="evenodd" d="M121.583 123.509L49.488 127.603L50.341 132.397C51.029 136.274 51.464 140.176 51.641 144.068L51.817 148.982L123.384 144.689L123.426 144.397C124.405 137.508 123.769 130.244 121.583 123.509Z" fill="#3B308A"/>
<path fill-rule="evenodd" clip-rule="evenodd" d="M120.45 243.234L54.387 248.785L53.041 232.882L119.104 227.331L119.186 227.543C121.121 232.536 121.561 237.998 120.45 243.234Z" fill="#DFDBE9"/>
<path fill-rule="evenodd" clip-rule="evenodd" d="M70.373 247.441L61.143 248.217L59.797 232.314L69.028 231.538L70.373 247.441Z" fill="#2F3788"/>
<path fill-rule="evenodd" clip-rule="evenodd" d="M51.845 216.032L39.436 215.253L40 216.619C41.695 220.725 41.694 225.886 40.415 230.122L40.969 230.319L53.037 233.715L51.845 216.032Z" fill="#FFC0A5"/>
<path fill-rule="evenodd" clip-rule="evenodd" d="M123.431 210.239L51.046 216.91L39.166 215.347L116.731 207.98L123.431 210.239Z" fill="#242448"/>
<path fill-rule="evenodd" clip-rule="evenodd" d="M39.082 215.74C41.133 215.773 43.193 216.201 45.22 216.495C47.127 216.772 49.034 217.049 50.941 217.326C51.243 217.369 51.33 216.892 51.028 216.848C48.968 216.549 46.909 216.251 44.849 215.951C42.925 215.672 40.987 215.287 39.041 215.256C38.735 215.251 38.779 215.736 39.082 215.74Z" fill="#2F3788"/>
<path fill-rule="evenodd" clip-rule="evenodd" d="M52.867 233.087C48.55 232.245 44.298 231.109 40.131 229.674C39.7 229.526 39.39 230.182 39.825 230.331C44.052 231.787 48.358 232.949 52.738 233.803C53.19 233.891 53.318 233.175 52.867 233.087Z" fill="#2F3788"/>
<path fill-rule="evenodd" clip-rule="evenodd" d="M124.906 227.676L52.471 233.763L52.467 229.962C52.463 226.879 52.214 223.801 51.717 220.757L51.045 216.91L123.43 210.239L123.52 210.472C125.641 215.946 126.124 221.936 124.906 227.676Z" fill="#424DBF"/>
<path fill-rule="evenodd" clip-rule="evenodd" d="M116.339 209.719L47.694 215.486C47.594 215.495 47.506 215.419 47.497 215.317L46.133 199.206C46.125 199.104 46.199 199.014 46.299 199.006L114.945 193.238C115.044 193.23 115.133 193.306 115.141 193.408L116.504 209.518C116.513 209.62 116.439 209.71 116.339 209.719Z" fill="#7EADF2"/>
<path fill-rule="evenodd" clip-rule="evenodd" d="M123.446 180.766L38.58 187.897C38.48 187.905 38.392 187.829 38.383 187.727L37.397 176.066C37.388 175.964 37.462 175.873 37.562 175.865L122.428 168.735C122.528 168.727 122.616 168.802 122.625 168.905L123.611 180.566C123.62 180.668 123.546 180.758 123.446 180.766Z" fill="#5966D7"/>
<path fill-rule="evenodd" clip-rule="evenodd" d="M108.825 170.103L54.73 174.649L52.719 150.883L106.814 146.338L107.123 147.645C108.754 154.557 109.357 161.677 108.91 168.763L108.825 170.103Z" fill="#F27088"/>
<path fill-rule="evenodd" clip-rule="evenodd" d="M71.447 173.085L60.713 173.987L58.729 150.537L69.463 149.635L71.447 173.085Z" fill="#F7D6D6"/>
<path fill-rule="evenodd" clip-rule="evenodd" d="M69.043 173.287L63.016 173.793L61.031 150.344L67.058 149.837L69.043 173.287Z" fill="#F27088"/>
<path fill-rule="evenodd" clip-rule="evenodd" d="M52.73 151.016L106.826 146.47L108.098 152.527L52.839 152.303L52.73 151.016Z" fill="#000100"/>
<path fill-rule="evenodd" clip-rule="evenodd" d="M80.798 118.519C80.973 120.588 79.475 122.404 77.453 122.574C75.43 122.744 73.648 121.204 73.473 119.134C73.297 117.066 74.795 115.25 76.818 115.08C78.841 114.91 80.623 116.45 80.798 118.519Z" fill="#5966D7"/>
<path fill-rule="evenodd" clip-rule="evenodd" d="M46.386 181.055C45.578 180.192 44.674 179.478 43.665 178.88C43.266 178.644 42.964 179.303 43.359 179.537C44.22 180.047 44.985 180.66 45.687 181.371C45.067 182.24 44.395 183.057 43.657 183.827C43.336 184.162 43.883 184.631 44.202 184.298C45.018 183.448 45.757 182.542 46.429 181.568C46.55 181.395 46.529 181.208 46.386 181.055Z" fill="#DFDBE9"/>
<path fill-rule="evenodd" clip-rule="evenodd" d="M50.504 180.556C49.957 179.846 49 179.278 48.311 178.712C47.953 178.418 47.493 178.973 47.853 179.268C48.435 179.745 49.252 180.227 49.777 180.806C49.535 181.164 49.105 181.513 48.842 181.805C48.492 182.195 48.142 182.585 47.791 182.974C47.481 183.319 48.028 183.79 48.338 183.446C48.758 182.978 49.178 182.511 49.598 182.044C49.909 181.698 50.343 181.355 50.535 180.923C50.586 180.809 50.584 180.658 50.504 180.556Z" fill="#DFDBE9"/>
<path fill-rule="evenodd" clip-rule="evenodd" d="M52.485 177.569C52.131 177.268 51.672 177.824 52.026 178.125C52.239 178.306 52.681 178.955 52.209 179.09C51.768 179.216 52.017 179.9 52.457 179.774C52.897 179.649 53.138 179.212 53.118 178.759C53.098 178.29 52.831 177.863 52.485 177.569Z" fill="#DFDBE9"/>
<path fill-rule="evenodd" clip-rule="evenodd" d="M56.083 180.696C55.828 180.972 55.398 181.02 55.132 180.74C54.582 180.163 55.249 179.337 55.926 179.638C55.997 179.67 56.064 179.676 56.127 179.665C56.316 179.989 56.359 180.397 56.083 180.696ZM56.599 179.086C56.486 178.949 56.331 178.926 56.198 178.969C55.578 178.711 54.833 178.895 54.441 179.466C54.054 180.031 54.186 180.834 54.672 181.297C55.21 181.81 56.037 181.75 56.555 181.242C57.143 180.664 57.107 179.707 56.599 179.086Z" fill="#DFDBE9"/>
<path fill-rule="evenodd" clip-rule="evenodd" d="M107.218 210.517L106.4 210.586L105 194.042L105.818 193.973L107.218 210.517Z" fill="#DFDBE9"/>
<path fill-rule="evenodd" clip-rule="evenodd" d="M110.532 210.239L109.714 210.308L108.314 193.764L109.133 193.694L110.532 210.239Z" fill="#DFDBE9"/>
<path fill-rule="evenodd" clip-rule="evenodd" d="M53.037 233.715L119.408 228.138C119.408 228.138 119.973 229.725 120.22 230.798L53.145 234.119L53.037 233.715Z" fill="#000100"/>
<path fill-rule="evenodd" clip-rule="evenodd" d="M120.05 192.953L35.184 200.084C35.084 200.092 34.996 200.016 34.987 199.914L34.001 188.253C33.992 188.151 34.066 188.061 34.166 188.052L119.032 180.922C119.132 180.914 119.22 180.99 119.228 181.091L120.215 192.753C120.224 192.855 120.15 192.944 120.05 192.953Z" fill="#242448"/>
<path fill-rule="evenodd" clip-rule="evenodd" d="M45.829 195.61L44.546 195.717L44.129 190.795L45.413 190.687L45.829 195.61Z" fill="#DFDBE9"/>
<path fill-rule="evenodd" clip-rule="evenodd" d="M49.861 195.271L48.577 195.378L48.16 190.456L49.444 190.348L49.861 195.271Z" fill="#DFDBE9"/>
<path fill-rule="evenodd" clip-rule="evenodd" d="M123.747 180.519L38.645 187.789C38.394 187.811 38.188 187.59 38.22 187.336L123.436 179.378L123.747 180.519Z" fill="#F7D6D6"/>
<path fill-rule="evenodd" clip-rule="evenodd" d="M123.393 180.027L38.291 187.297C38.041 187.319 37.834 187.098 37.867 186.844L123.083 178.886L123.393 180.027Z" fill="#DFDBE9"/>
<path fill-rule="evenodd" clip-rule="evenodd" d="M49.016 153.128C49.016 153.128 52.828 167.984 50.345 174.466L54.731 174.648L52.732 151.016L49.016 153.128Z" fill="#BABDBF"/>
<path fill-rule="evenodd" clip-rule="evenodd" d="M114.213 230.271C114.265 230.125 114.32 229.975 114.409 229.854C115.231 228.731 116.331 228.638 117.425 227.785C117.913 227.405 117.776 225.818 118.994 226.244C119.444 226.4 120.493 226.942 121.449 227.286C122.843 227.788 124.912 227.58 126.525 227.111C128.692 226.48 130.971 225.762 133.004 224.822C135.131 223.837 137.206 222.741 139.233 221.561C140.92 220.579 143.6 219.452 144.875 217.957C147.034 215.428 144.534 209.264 144.25 206.105C143.954 202.814 144.241 193.118 148.673 192.844C155.935 192.395 156.049 199.311 156.373 204.88C156.575 208.356 156.561 211.897 156.25 215.367C155.814 220.226 152.673 223.008 148.521 225.309C144.122 227.746 139.622 230.137 134.786 231.587C132.436 232.293 130.123 232.503 127.725 232.892C125.355 233.275 125.658 234.312 123.669 235.181C122.56 235.666 121.52 236.371 120.335 236.641C118.211 237.127 116.509 235.651 114.895 234.509C114.493 234.224 114.221 234.033 114.013 233.621C113.673 232.951 113.806 232.234 113.912 231.518C113.974 231.093 114.07 230.672 114.213 230.271Z" fill="#FFC0A5"/>
<path fill-rule="evenodd" clip-rule="evenodd" d="M156.237 206.761C152.132 207.559 148.026 208.357 143.921 209.155C144.184 209.103 139.171 190.703 138.91 189.597C137.913 185.377 136.913 180.997 137.765 176.746C139.587 167.67 143.952 165.435 149.451 174.973C154.642 183.976 162.779 194.753 161.168 205C161.133 205.222 161.091 205.456 160.951 205.631C160.758 205.873 160.428 205.947 160.125 206.006L156.237 206.761Z" fill="#1F28CF"/>
<path fill-rule="evenodd" clip-rule="evenodd" d="M258.296 175.73C264.258 179.368 270.929 181.836 277.82 182.953C279.052 177.292 280.354 171.646 281.729 166.016C282.321 163.59 282.941 161.125 284.125 158.909C284.756 157.731 287.124 155.584 286.388 154.056C285.098 151.379 279.483 154.341 277.88 155.231C273.698 157.551 269.873 160.78 266.584 164.235C265.791 165.07 257.568 175.286 258.296 175.73Z" fill="#DFEAFA"/>
<path fill-rule="evenodd" clip-rule="evenodd" d="M315.74 308.943L316.12 332.115C315.965 338.544 316.543 344.953 316.933 351.362C317.296 357.314 316.098 363.449 318.916 368.965C319.799 370.695 321.678 371.9 323.109 369.902C324.211 368.362 323.704 365.698 323.976 363.91C326.023 350.477 329.831 337.377 331.731 323.919C333.721 309.82 328.281 310.193 315.74 308.943Z" fill="#FFC0A5"/>
<path fill-rule="evenodd" clip-rule="evenodd" d="M317.052 365.004L315.566 368.87L322.879 375.323L329.579 375.599L331.745 372.056L322.735 364.202L317.052 365.004Z" fill="#242448"/>
<path fill-rule="evenodd" clip-rule="evenodd" d="M299.365 309.169L295.148 331.956C293.687 342.15 290.365 352.077 288.903 362.271C288.568 364.616 288.736 367.179 287.76 369.391C286.804 371.553 284.932 371.639 283.281 370.172C281.069 368.206 282.089 364.692 282.13 362.007C282.401 344.118 280.997 326.481 280.659 308.563C280.654 308.328 280.665 308.058 280.846 307.909C280.993 307.788 281.203 307.79 281.394 307.803C283.129 307.919 299.273 309.661 299.365 309.169Z" fill="#FFC0A5"/>
<path fill-rule="evenodd" clip-rule="evenodd" d="M282.078 365.956L279.76 369.385L285.432 377.326L291.896 379.111L294.804 376.15L287.794 366.46L282.078 365.956Z" fill="#242448"/>
<path fill-rule="evenodd" clip-rule="evenodd" d="M339.563 323.687L336.409 290.558L334.889 269.033L329.775 251.452L302.164 247.156L268.028 253.022L266.387 259.671L272.956 321.213L305.882 323.687L305.436 285.384L310.515 309.125L310.3 323.687H339.563Z" fill="#242448"/>
<path fill-rule="evenodd" clip-rule="evenodd" d="M275.275 186.725C275.228 187.843 275.197 188.962 275.178 190.077C274.778 212.801 276.028 235.815 276.171 258.728C287.878 256.89 299.712 255.879 311.559 255.699C314.301 255.658 326.769 257.587 328.504 255.946C330.86 253.719 328.269 254.138 328.442 251.237C328.665 247.482 326.865 244.407 327.545 239.958C328.344 234.729 329.933 229.557 330.849 224.33C332.684 213.847 333.79 203.236 334.147 192.598C334.466 183.164 334.125 173.379 330.077 164.855C320.096 143.835 287.919 144.213 279.089 166.161C276.474 172.661 275.566 179.699 275.275 186.725Z" fill="white"/>
<path fill-rule="evenodd" clip-rule="evenodd" d="M311.585 157.239L302.846 173.205C303.303 189.333 303.759 205.463 304.216 221.591C304.427 229.024 304.637 236.457 304.848 243.89C304.92 246.471 304.984 249.052 305.066 251.633C305.103 252.792 304.785 254.742 305.444 255.687C306.874 257.739 312.105 257.1 314.386 257.279C317.945 257.56 321.554 257.852 324.905 259.083C327.137 259.903 329.251 261.137 331.605 261.469C332.133 261.543 332.724 261.553 333.14 261.217C333.604 260.841 333.683 260.174 333.727 259.577C334.545 248.504 334.563 237.089 335.175 225.898C335.656 217.096 336.846 208.225 336.427 199.41C335.995 190.344 334.58 181.324 332.851 172.426C331.828 167.157 330.624 161.785 327.731 157.269C324.451 152.149 319.809 150.098 314.09 148.944C312.07 148.536 304.553 145.687 305.808 150.29C306.428 152.566 310.052 155.411 311.585 157.239Z" fill="#DFEAFA"/>
<path fill-rule="evenodd" clip-rule="evenodd" d="M292.571 158.74L301.31 174.706C301.127 174.706 300.202 213.844 300.127 216.486C299.843 226.532 299.558 236.578 299.274 246.624C299.195 249.417 299.569 252.687 299.024 255.432C298.263 259.264 294.239 258.51 290.81 258.82C283.309 259.498 275.411 260.782 267.89 260.401C265.72 260.291 268.576 214.902 268.572 210.666C268.557 195.432 265.422 178.53 273.141 164.715C275.387 160.696 279.347 154.252 283.718 152.267C287.791 150.418 293.622 150.103 298.043 149.067L298.273 151.939L292.571 158.74Z" fill="#DFEAFA"/>
<path fill-rule="evenodd" clip-rule="evenodd" d="M311.54 120.067C312.916 122.484 313.579 125.269 313.701 128.049C313.733 128.788 313.784 129.642 314.38 130.079C315.018 130.546 314.457 131.571 314.942 130.946C315.428 130.321 317.077 128.15 317.15 127.361C317.325 125.513 317.322 123.649 317.143 121.801C316.987 120.195 316.66 118.516 315.611 117.292C314.989 116.565 314.159 116.055 313.342 115.56C312.158 114.842 310.937 114.118 309.575 113.864C307.229 113.425 305.79 114.27 307.86 115.91C309.343 117.085 310.597 118.411 311.54 120.067Z" fill="#242448"/>
<path fill-rule="evenodd" clip-rule="evenodd" d="M296.882 151.606C296.897 152.743 296.666 153.924 297.667 154.806C298.148 155.231 298.799 155.401 299.432 155.501C301.068 155.761 302.763 155.64 304.347 155.151C304.999 154.95 305.648 154.677 306.14 154.205C306.72 153.645 306.75 153.115 306.777 152.383C306.811 151.525 306.983 150.653 307.096 149.784C307.34 147.881 307.45 145.963 307.505 144.047C310.316 143.563 313.622 142.652 314.583 139.701C314.886 138.771 314.897 137.76 314.904 136.77C314.933 132.681 314.964 128.591 314.993 124.502C315.004 123.087 315.007 121.63 314.524 120.317C313.676 118.014 311.521 116.642 309.409 115.778C304.018 113.574 297.735 113.661 292.759 116.797C291.435 117.631 290.185 118.704 289.422 120.161C288.246 122.408 288.394 125.181 288.577 127.773C288.745 130.166 288.914 132.559 289.083 134.951C289.276 137.704 289.688 140.871 291.821 142.324C292.952 143.096 294.415 143.238 295.391 144.236C297.093 145.979 296.281 148.584 296.785 150.696C296.855 150.991 296.878 151.297 296.882 151.606Z" fill="#FFC0A5"/>
<path fill-rule="evenodd" clip-rule="evenodd" d="M305.718 140.898C304.253 141.885 302.639 141.939 301.007 141.446C300.313 141.237 300.607 140.069 301.302 140.279C302.655 140.687 303.932 140.677 305.151 139.855C305.764 139.441 306.327 140.487 305.718 140.898ZM315.892 135.14C315.847 134.382 315.516 132.16 314.379 133.556C314.081 133.921 314.008 134.437 313.989 134.924C313.971 135.41 313.993 135.91 313.84 136.368C313.489 137.419 312.33 137.897 311.296 137.878C310.885 137.871 310.466 137.804 310.102 137.597C309.75 137.395 309.47 137.075 309.196 136.761C308.533 135.998 307.87 135.235 307.206 134.471C306.067 133.16 303.806 133.728 302.269 133.929C300.498 134.16 298.727 134.696 297.28 135.864C297.134 135.981 296.992 136.105 296.849 136.229C296.5 136.53 296.149 136.829 295.744 137.027C294.377 137.694 292.683 136.998 291.725 135.749C291.286 135.177 290.877 134.441 290.194 134.345C289.661 134.27 289.141 134.654 288.867 135.155C288.593 135.655 288.519 136.252 288.483 136.832C288.347 138.945 288.638 141.123 289.552 142.996C291.532 147.059 295.361 147.557 299.21 147.467C300.731 147.431 302.252 147.394 303.773 147.358C306.554 147.293 309.494 147.177 311.836 145.557C313.903 144.127 315.132 141.696 315.635 139.151C315.895 137.836 315.973 136.48 315.892 135.14Z" fill="#242448"/>
<path fill-rule="evenodd" clip-rule="evenodd" d="M316.472 112.98C316.74 111.989 316.939 110.979 317.066 109.96C316.125 110.292 315.099 110.379 314.116 110.213C314.114 109.626 314.112 109.038 314.109 108.449C314.105 107.96 307.505 107.618 306.968 107.574C301.947 107.161 297.356 106.768 292.816 109.469C288.938 111.777 286.451 115.223 285.856 119.707C285.288 123.992 286.687 129.587 289.158 133.144C289.144 132.003 288.49 129.312 288.758 128.228C288.923 127.142 289.297 126.094 289.813 125.127C290.845 123.197 292.443 121.571 294.288 120.411C297.231 118.563 300.653 117.586 304.07 117.108C307.2 116.671 311.016 116.268 314.109 117.099C315.595 117.499 315.842 117.873 316.743 116.368C316.901 116.103 318.16 113.006 318.036 113.004C317.515 112.997 316.993 112.988 316.472 112.98Z" fill="#242448"/>
<path fill-rule="evenodd" clip-rule="evenodd" d="M414.317 188.911L302.187 200.086L190.057 188.911C186.902 188.597 184.218 191.212 184.414 194.41L189.093 305.623C189.249 308.164 191.195 310.217 193.701 310.475C212.15 312.377 284.148 319.582 292.22 320.503C292.629 320.549 292.985 320.791 293.174 321.159C293.715 322.217 295.661 324.384 302.187 324.384C308.713 324.384 310.658 322.217 311.2 321.159C311.389 320.791 311.745 320.549 312.153 320.503C320.225 319.582 392.223 312.377 410.672 310.475C413.178 310.217 415.125 308.164 415.281 305.623L419.959 194.41C420.155 191.212 417.472 188.597 414.317 188.911Z" fill="#2F3788"/>
<path fill-rule="evenodd" clip-rule="evenodd" d="M414.317 187.071L302.187 198.246L190.057 187.071C186.902 186.757 184.218 189.372 184.414 192.57L189.093 303.783C189.249 306.323 191.195 308.376 193.701 308.635C212.15 310.537 284.148 317.742 292.22 318.662C292.629 318.709 292.985 318.95 293.174 319.319C293.715 320.377 295.661 322.543 302.187 322.543C308.713 322.543 310.658 320.377 311.2 319.319C311.389 318.95 311.745 318.709 312.153 318.662C320.225 317.742 392.223 310.537 410.672 308.635C413.178 308.376 415.125 306.323 415.281 303.783L419.959 192.57C420.155 189.372 417.472 186.757 414.317 187.071Z" fill="#5966D7"/>
<path fill-rule="evenodd" clip-rule="evenodd" d="M302.609 197.435C250.952 162.803 198.871 178.481 198.871 178.481V298.766C270.871 284.123 302.187 314.455 302.187 314.455C302.187 314.455 333.504 284.123 405.504 298.766V178.481C405.504 178.481 354.268 162.803 302.609 197.435Z" fill="#E3D9C7"/>
<path fill-rule="evenodd" clip-rule="evenodd" d="M198.871 178.482C198.871 178.482 196.56 187.634 188.533 193.125L193.702 308.049C193.702 308.049 198.871 303.996 198.871 298.767V178.482Z" fill="#C5BCAD"/>
<path fill-rule="evenodd" clip-rule="evenodd" d="M405.504 178.482C405.504 178.482 407.815 187.634 415.841 193.125L410.673 308.049C410.673 308.049 405.504 303.996 405.504 298.767V178.482Z" fill="#C5BCAD"/>
<path fill-rule="evenodd" clip-rule="evenodd" d="M193.701 308.049C193.701 308.049 265.518 291.575 297.625 320.601H302.186V314.455C302.186 314.455 269.774 283.6 198.87 298.766L193.701 308.049Z" fill="#CFC5B6"/>
<path fill-rule="evenodd" clip-rule="evenodd" d="M410.672 308.049C410.672 308.049 338.855 291.575 306.748 320.601H302.188V314.455C302.188 314.455 334.599 283.6 405.503 298.766L410.672 308.049Z" fill="#CFC5B6"/>
<path fill-rule="evenodd" clip-rule="evenodd" d="M248.67 171.121C242.446 170.504 236.27 170.255 230.388 170.196C227.677 170.169 205.379 171.021 205.379 171.782V205.793V292.817C205.379 292.052 227.728 291.203 230.447 291.232C249.643 291.435 271.214 294.958 288.187 304.353C291.023 305.922 302.525 312.098 302.525 316.438V198.635C302.525 196.233 301.632 193.914 299.991 192.153C287.103 178.326 267.664 173.006 248.67 171.121Z" fill="#F4F4F4"/>
<path fill-rule="evenodd" clip-rule="evenodd" d="M356.38 171.121C362.604 170.504 368.78 170.255 374.662 170.196C377.373 170.169 399.671 171.021 399.671 171.782V205.793V292.817C399.671 292.052 377.322 291.203 374.603 291.232C355.407 291.435 333.836 294.958 316.863 304.353C314.027 305.922 302.525 312.098 302.525 316.438V198.635C302.525 196.233 303.418 193.914 305.059 192.153C317.947 178.326 337.386 173.006 356.38 171.121Z" fill="white"/>
<path opacity="0.103317" fill-rule="evenodd" clip-rule="evenodd" d="M356.38 171.121C362.604 170.504 368.78 170.255 374.662 170.196C377.373 170.169 399.671 171.021 399.671 171.782V205.793V292.817C399.671 292.052 377.322 291.203 374.603 291.232C355.407 291.435 333.836 294.958 316.863 304.353C314.027 305.922 302.525 312.098 302.525 316.438V198.635C302.525 196.233 303.418 193.914 305.059 192.153C317.947 178.326 337.386 173.006 356.38 171.121Z" fill="#232020"/>
<path opacity="0.0566123" fill-rule="evenodd" clip-rule="evenodd" d="M302.525 204.458V316.439C302.525 312.098 314.027 305.922 316.863 304.353C330.474 296.82 347.039 293.068 362.967 291.77V291.765C313.874 270.391 304.228 218.069 302.525 204.458Z" fill="#232020"/>
<path fill-rule="evenodd" clip-rule="evenodd" d="M500.81 199.775C500.646 199.703 500.475 199.63 500.304 199.608C498.702 199.406 497.747 200.262 496.156 200.507C495.447 200.617 494.221 199.233 493.607 200.603C493.38 201.109 492.998 202.428 492.526 203.51C491.835 205.089 490.009 206.673 488.327 207.662C481.72 211.547 474.241 213.522 466.782 215.242C466.357 215.34 465.912 215.436 465.489 215.327C464.732 215.131 464.295 214.363 463.927 213.672C462.222 210.466 460.219 207.421 457.953 204.587C455.931 202.058 453.629 199.645 450.717 198.237C447.805 196.83 444.169 196.582 441.424 198.293C439.368 199.575 437.999 201.901 437.874 204.325C437.564 210.336 445.463 214.158 449.593 217.235C453.5 220.147 457.612 222.784 461.886 225.119C462.414 225.408 462.963 225.697 463.562 225.755C464.199 225.816 464.828 225.607 465.435 225.399C473.242 222.726 480.769 219.377 488.268 215.858C490.328 214.891 491.62 212.961 493.533 212.084C494.754 211.524 496.114 211.966 497.382 211.693C498.638 211.424 500.218 210.749 501.284 210.034C503.387 208.627 503.504 206.01 503.831 203.734C503.912 203.167 503.968 202.785 503.789 202.28C503.495 201.457 502.787 200.997 502.1 200.515C501.693 200.23 501.262 199.975 500.81 199.775Z" fill="#FFC0A5"/>
<path fill-rule="evenodd" clip-rule="evenodd" d="M448.965 214.99C452.912 212.156 456.859 209.321 460.805 206.488C460.552 206.669 449.074 187.748 448.351 186.645C445.597 182.436 442.711 178.094 438.454 175.423C429.365 169.72 417.884 177.954 421.376 188.51C425.168 199.968 433.643 210.939 443.548 217.752C443.763 217.9 443.992 218.051 444.253 218.073C444.61 218.102 444.934 217.883 445.226 217.674C446.473 216.78 447.719 215.884 448.965 214.99Z" fill="#DFDBE9"/>
<path fill-rule="evenodd" clip-rule="evenodd" d="M439.903 362.145L439.73 374.36L446.952 374.457L447.143 360.914L439.903 362.145Z" fill="#FFC0A5"/>
<path fill-rule="evenodd" clip-rule="evenodd" d="M446.311 372.544L440.03 374.624L438.158 376.645L438.475 381.433L455.452 382.755C456.886 380.662 455.953 377.822 453.56 376.998L452.77 376.726L446.311 372.544Z" fill="#242448"/>
<path fill-rule="evenodd" clip-rule="evenodd" d="M387.863 350.434L383.08 361.671L389.725 364.507L395.028 352.049L387.863 350.434Z" fill="#FFC0A5"/>
<path fill-rule="evenodd" clip-rule="evenodd" d="M389.601 364.718C389.362 364.454 389.085 364.203 388.763 363.967C387.964 363.382 381.527 359.963 380.974 361.504C380.885 361.754 380.913 362.03 380.945 362.294C381.475 366.729 382.513 371.102 384.032 375.302C384.681 377.098 385.667 379.087 387.52 379.535C388.332 379.731 389.185 379.587 390 379.402C391.202 379.128 392.385 378.769 393.536 378.326C393.957 378.164 394.404 377.965 394.622 377.57C395.059 376.779 394.297 375.842 393.501 375.416C392.705 374.989 391.734 374.682 391.345 373.866C391.171 373.501 391.146 373.083 391.125 372.679C390.962 369.673 391.471 366.788 389.601 364.718Z" fill="#242448"/>
<path fill-rule="evenodd" clip-rule="evenodd" d="M433.232 305.533C430.863 316.394 424.09 324.195 416.855 332.181C408.576 341.32 400.788 350.905 393.538 360.883C390.403 359.573 387.268 358.263 384.135 356.953C386.755 341.691 393.976 327.689 399.572 313.255C403.461 303.225 406.611 292.619 406.782 281.78C406.867 276.389 405.564 271.459 404.866 266.216C404.002 259.722 403.953 253.065 403.172 246.54C402.91 244.352 402.761 241.765 404.439 240.342C405.186 239.708 406.171 239.441 407.132 239.255C442.773 232.336 437.736 284.883 433.232 305.533Z" fill="#1F28CF"/>
<path fill-rule="evenodd" clip-rule="evenodd" d="M404.198 248.584C404.178 241.995 404.981 235.644 406.21 230.801C416.349 230.257 427.806 231.381 437.832 233.42C447.632 235.414 453.745 237.552 453.816 248.205C453.946 267.807 461.588 284.504 464.888 303.346C466.806 314.295 463.492 324.089 459.821 334.23C455.619 345.834 452.041 357.665 449.108 369.654C445.712 369.634 442.316 369.613 438.921 369.593C435.569 354.476 436.952 338.775 436.667 323.292C436.469 312.533 435.37 301.521 431.426 291.427C427.09 280.331 420.846 284.747 413.681 278.312C406.714 272.056 404.23 259.965 404.198 248.584Z" fill="#1F28CF"/>
<path fill-rule="evenodd" clip-rule="evenodd" d="M415.711 173.146C414.591 174.016 413.608 175.066 412.636 176.105C411.764 177.035 410.893 177.967 410.023 178.898C407.005 182.124 405.515 186.899 404.222 191.02C397.417 212.707 394.968 242.462 399.387 265.122C416.149 266.574 435.55 262.337 452.275 260.047C453.901 259.824 455.744 259.459 456.588 258.048C457.099 257.193 457.114 256.139 457.114 255.142C457.112 240.756 454.079 225.295 451.235 211.114C450.034 205.129 448.555 199.195 446.659 193.393C444.652 187.25 442.388 180.618 437.69 175.971C432.664 170.998 423.039 168.543 416.746 172.425C416.387 172.646 416.043 172.888 415.711 173.146Z" fill="#EA3663"/>
<path fill-rule="evenodd" clip-rule="evenodd" d="M417.54 176.169C417.237 174.213 416.934 172.257 416.631 170.3C416.224 170.105 415.836 169.889 415.478 169.66C408.488 165.185 396.761 141.16 415.396 135.781C432.316 130.899 431.436 154.232 428.134 163.961C427.569 165.626 426.814 167.199 425.695 168.563C424.93 169.496 424.758 169.32 424.868 170.4C424.974 171.447 426.014 172.631 426.251 173.735C426.503 174.912 426.408 176.217 425.726 177.207C425.308 177.814 424.698 178.267 424.048 178.612C423.014 179.161 421.814 179.464 420.665 179.245C419.298 178.985 417.756 177.571 417.54 176.169Z" fill="#FFC0A5"/>
<path fill-rule="evenodd" clip-rule="evenodd" d="M432.107 155.147C430.694 159.936 429.494 161.78 427.808 163.936C424.272 168.455 427.211 152.438 425.751 146.884C425.639 146.46 425.531 145.981 425.76 145.608C425.974 145.259 426.409 145.129 426.808 145.043C433.934 143.499 433.913 149.736 432.107 155.147Z" fill="#242448"/>
<path fill-rule="evenodd" clip-rule="evenodd" d="M413.387 163.8C412.244 165.413 409.739 164.979 407.976 164.09C400.734 160.44 396.471 151.655 398.078 143.69C399.423 137.026 407.802 132.028 409.497 140.285C410.098 143.213 408.319 147.269 408.726 150.517C409.308 155.159 411.466 159.597 413.387 163.8Z" fill="#242448"/>
<path fill-rule="evenodd" clip-rule="evenodd" d="M432.032 129.661C432.843 129.983 433.669 130.321 434.539 130.663C436.34 131.369 437.645 131.607 439.501 130.549C440.032 130.247 443.59 126.875 442.735 126.174C448.41 130.816 443.742 137.591 441.614 142.387C440.179 145.62 439.884 150.184 436.659 152.296C433.112 154.62 430.678 151.682 427.457 150.365C424.617 149.204 421.546 148.575 418.655 147.541C413.858 145.826 406.721 142.812 408.31 136.424C410.166 128.963 417.706 127.104 424.48 127.674C427.374 127.918 429.641 128.713 432.032 129.661Z" fill="#242448"/>
<path fill-rule="evenodd" clip-rule="evenodd" d="M507.863 273.165L490.316 246.691V156.753C490.316 155.176 492.359 154.558 493.23 155.871L507.863 177.95V273.165Z" fill="#2F3788"/>
<path fill-rule="evenodd" clip-rule="evenodd" d="M507.082 178.828L492.018 156.415L485.797 157.709L503.851 180.374V273.964L507.082 273.164V178.828Z" fill="white"/>
<path fill-rule="evenodd" clip-rule="evenodd" d="M435.994 172.072L446.742 168.157L503.85 180.373V270.947L435.994 258.696V172.072Z" fill="white"/>
<path fill-rule="evenodd" clip-rule="evenodd" d="M499.06 275.965L432.468 266.73C430.983 266.435 429.912 265.129 429.912 263.61V174.876C429.912 172.872 431.739 171.367 433.699 171.756L499.06 180.747V275.965Z" fill="#2F3788"/>
<path fill-rule="evenodd" clip-rule="evenodd" d="M507.864 177.95C507.698 178.618 506.03 179.643 503.85 180.373C501.495 181.163 499.407 181.316 499.088 180.738L499.06 180.747V275.718C499.043 275.791 499.042 275.858 499.06 275.922V275.965L499.075 275.96C499.34 276.572 501.456 276.427 503.85 275.625C506.266 274.816 508.055 273.644 507.864 272.998V177.95Z" fill="#5966D7"/>
<path fill-rule="evenodd" clip-rule="evenodd" d="M485.797 157.71V176.511L503.851 180.373L485.797 157.71Z" fill="#E3D9C7"/>
<path fill-rule="evenodd" clip-rule="evenodd" d="M503.851 180.373L451.875 166.821V169.255L503.851 180.373Z" fill="#CFC5B6"/>
<path fill-rule="evenodd" clip-rule="evenodd" d="M437.793 248.674L492.663 256.283V268.601L437.793 260.992V248.674Z" fill="#7EADF2"/>
<path opacity="0.103827" fill-rule="evenodd" clip-rule="evenodd" d="M432.469 266.73L499.06 275.965V180.747C499.06 180.748 490.317 253.02 432.469 266.73Z" fill="#232020"/>
<path fill-rule="evenodd" clip-rule="evenodd" d="M471.565 239.256C471.443 239.124 471.316 238.989 471.167 238.9C469.779 238.074 468.562 238.478 467.006 238.066C466.312 237.882 465.739 236.124 464.631 237.134C464.221 237.507 463.346 238.564 462.482 239.368C461.221 240.54 458.915 241.261 456.98 241.495C449.375 242.415 441.732 241.234 434.207 239.829C433.778 239.749 433.331 239.659 432.988 239.39C432.372 238.907 432.276 238.028 432.214 237.247C431.926 233.626 431.301 230.033 430.352 226.528C429.503 223.4 428.354 220.267 426.243 217.812C424.133 215.356 420.898 213.675 417.699 214.146C415.305 214.5 413.123 216.085 412.044 218.257C409.368 223.645 415.089 230.309 417.652 234.782C420.076 239.015 422.796 243.078 425.787 246.929C426.156 247.404 426.544 247.889 427.07 248.181C427.63 248.492 428.291 248.552 428.929 248.604C437.152 249.275 445.387 249.215 453.663 248.987C455.937 248.924 457.89 247.671 459.994 247.632C461.337 247.607 462.407 248.556 463.679 248.813C464.937 249.068 466.654 249.081 467.917 248.853C470.406 248.403 471.554 246.05 472.76 244.094C473.06 243.606 473.264 243.279 473.299 242.743C473.358 241.872 472.891 241.167 472.453 240.45C472.194 240.025 471.9 239.62 471.565 239.256Z" fill="#FFC0A5"/>
<path fill-rule="evenodd" clip-rule="evenodd" d="M417.97 232.472C422.717 231.452 427.464 230.432 432.211 229.412C431.907 229.477 428.911 207.536 428.688 206.236C427.838 201.274 426.919 196.139 424.078 191.987C418.014 183.122 404.209 186.081 403.211 197.157C402.127 209.18 405.532 222.629 411.904 232.839C412.042 233.061 412.192 233.291 412.422 233.414C412.737 233.584 413.123 233.514 413.473 233.438C414.972 233.116 416.471 232.794 417.97 232.472Z" fill="#EA3663"/>
<path fill-rule="evenodd" clip-rule="evenodd" d="M248.056 358.931C247.463 353.793 244.894 349.713 240.148 347.479C236.298 345.668 231.97 345.243 227.752 344.699C218.357 343.49 209.39 342.283 199.903 342.657C192.318 342.955 187.643 349.443 184.093 355.842C181.855 359.874 182.476 361.766 185.293 365.143C187.89 368.257 191.042 370.906 194.563 372.912C201.534 376.883 212.244 375.902 219.921 375.043C227.168 374.234 234.261 372.065 240.724 368.68C244.884 366.503 248.633 363.935 248.056 358.931Z" fill="#242448"/>
<path fill-rule="evenodd" clip-rule="evenodd" d="M200.596 372.898C199.338 375.852 198.238 378.874 197.303 381.946C196.808 383.571 196.355 385.243 196.418 386.941C196.565 390.917 200.978 393.799 203.864 390.122C205.128 388.511 206.141 386.704 206.858 384.785C207.916 381.955 205.682 383.604 203.795 382.735C201.621 381.733 201.674 380.955 202.597 378.913C203.786 376.284 205.192 374.569 205.023 371.543C204.977 370.708 204.742 369.738 203.973 369.411C203.39 369.163 202.691 369.405 202.229 369.838C201.766 370.271 201.49 370.863 201.23 371.443C201.015 371.925 200.804 372.411 200.596 372.898Z" fill="#242448"/>
<path fill-rule="evenodd" clip-rule="evenodd" d="M215.319 279.329C217.879 279.579 220.439 279.828 222.998 280.077C223.392 277.815 223.624 275.515 223.693 273.21C225.923 272.823 228.546 272.089 229.313 269.699C229.554 268.947 229.564 268.128 229.571 267.327C229.6 264.015 229.629 260.703 229.658 257.391C229.668 256.245 229.673 255.065 229.292 254.002C228.623 252.135 226.915 251.02 225.241 250.318C220.968 248.525 215.983 248.587 212.032 251.12C210.981 251.794 209.988 252.661 209.381 253.841C208.445 255.658 208.559 257.904 208.7 260.005C208.83 261.942 208.961 263.881 209.091 265.819C209.242 268.047 209.564 270.614 211.254 271.794C212.15 272.42 213.311 272.537 214.083 273.347C215.445 274.776 214.817 277.312 215.319 279.329Z" fill="#CF7361"/>
<path fill-rule="evenodd" clip-rule="evenodd" d="M225.806 253.828C225.914 254.008 226.006 254.196 226.077 254.391C226.45 255.413 226.231 256.577 226.596 257.603C227.175 259.228 229.096 260.177 229.413 261.873C229.673 263.26 228.748 264.6 228.693 266.01C228.632 267.551 229.642 268.99 229.516 270.512C229.407 271.834 228.605 273.704 227.838 274.776C228.075 274.443 230.281 274.521 230.847 274.16C231.713 273.609 231.807 273.269 232.051 272.349C232.294 271.436 232.077 270.544 232.464 269.606C232.939 268.456 233.94 267.599 234.275 266.376C234.731 264.705 233.818 262.968 233.856 261.237C233.914 258.616 236.127 256.109 235.263 253.635C234.757 252.183 233.326 251.275 232.508 249.975C231.886 248.988 231.642 247.815 231.204 246.733C230.766 245.651 230.026 244.574 228.903 244.263C228.279 244.091 227.613 244.178 226.975 244.071C225.872 243.886 224.945 243.141 223.879 242.801C222.354 242.314 219.708 243.898 218.847 245.202C217.991 246.495 218.453 247.573 219.371 248.688C220.899 250.543 224.534 251.71 225.806 253.828Z" fill="#242448"/>
<path fill-rule="evenodd" clip-rule="evenodd" d="M204.056 246.667C203.16 247.352 202.047 247.854 201.232 248.649C199.642 250.2 199.377 252.639 199.359 254.863C199.342 256.843 198.509 258.617 198.76 260.676C198.928 262.059 199.54 263.449 200.679 264.247C202.098 265.24 204.3 265.368 204.953 266.974C205.663 268.719 203.887 270.964 205.016 272.47C205.638 273.301 206.833 273.404 207.712 273.954C208.694 274.568 209.212 275.686 209.823 276.672C210.433 277.656 211.341 278.638 212.498 278.642C212.514 276.878 212.541 275.48 211.761 273.881C211.306 272.949 209.987 271.239 210.959 270.204C211.568 269.347 213.037 269.046 213.056 267.994C213.065 267.5 212.714 267.086 212.436 266.678C211.358 265.101 211.213 262.975 211.893 261.188C212.573 259.401 214.014 257.959 215.717 257.094C217.711 256.081 217.378 255.595 217.928 253.654C218.435 251.866 219.433 251.432 221.017 250.756C222.44 250.149 222.894 249.779 223.399 248.424C223.768 247.434 224.224 246.248 223.643 245.16C223.181 244.295 222.367 243.686 221.579 243.105C219.933 241.892 218.084 240.619 216.049 240.803C214.919 240.905 213.864 241.457 212.732 241.542C211.977 241.599 211.223 241.444 210.467 241.432C209.177 241.412 207.823 241.829 206.793 242.617C205.754 243.412 205.798 244.225 205.232 245.337C204.955 245.881 204.537 246.3 204.056 246.667Z" fill="#242448"/>
<path fill-rule="evenodd" clip-rule="evenodd" d="M208.488 239.336C208.664 238.103 208.509 236.505 207.331 236.111C206.686 235.895 205.972 236.157 205.303 236.033C203.877 235.768 203.363 234.053 202.596 232.819C202.481 232.635 202.345 232.448 202.145 232.363C201.859 232.241 201.536 232.359 201.229 232.403C199.818 232.601 198.719 231.221 197.379 230.738C195.72 230.14 193.665 231.21 193.199 232.914C193.007 233.614 193.056 234.362 192.877 235.066C192.152 237.917 188.029 239.198 187.977 242.139C187.941 244.128 189.914 245.996 189.193 247.848C188.732 249.032 187.237 249.861 187.431 251.117C187.557 251.926 188.427 252.461 189.243 252.435C190.059 252.41 190.8 251.948 191.405 251.398C192.365 250.528 193.081 249.419 193.993 248.498C194.907 247.577 196.133 246.822 197.42 246.96C198.668 247.093 199.811 248.045 201.044 247.815C202.031 247.631 202.749 246.733 203.717 246.466C204.621 246.216 205.573 246.558 206.511 246.598C207.449 246.637 208.59 246.128 208.599 245.187C208.601 244.959 208.533 244.725 208.601 244.507C208.79 243.898 209.824 243.914 210.009 243.303C209.507 242.556 208.822 242.839 208.454 241.858C208.169 241.099 208.378 240.11 208.488 239.336Z" fill="#242448"/>
<path fill-rule="evenodd" clip-rule="evenodd" d="M222.265 276.844C225.838 276.367 229.466 275.718 232.459 277.025C234.994 278.133 234.95 281.342 235.518 283.768C237.393 291.793 238.802 299.917 239.905 308.083C240.433 311.988 241.345 316.168 241.322 320.111C241.304 323.276 240.514 326.352 240.757 329.577C240.944 332.054 241.994 334.729 244.257 335.742C245.396 336.252 246.705 336.276 247.846 336.78C248.987 337.284 249.964 338.632 249.39 339.742C249.117 340.27 248.57 340.587 248.053 340.877C245.23 342.455 242.407 344.033 239.584 345.61C237.428 346.815 235.26 348.026 232.937 348.863C229.645 350.049 226.126 350.452 222.633 350.629C213.61 351.089 204.516 350.089 195.808 347.68C191.12 346.383 186.59 344.082 187.728 338.765C188.899 333.292 191.162 327.832 193.603 322.82C196.558 316.754 197.435 309.443 199.528 303.041C201.65 296.553 203.894 290.106 206.154 283.666C206.163 283.642 206.171 283.617 206.18 283.593C207.006 281.239 207.345 278.911 209.164 277C211.656 274.387 212.855 276.464 215.683 276.996C217.736 277.382 219.99 277.148 222.265 276.844Z" fill="white"/>
<path fill-rule="evenodd" clip-rule="evenodd" d="M231.038 376.157C231.851 376.2 232.664 376.244 233.478 376.287C234.36 376.335 235.347 376.348 236.004 375.755C236.807 375.031 236.716 373.664 236.067 372.8C235.418 371.935 234.37 371.474 233.341 371.144C230.859 370.346 228.234 370.1 225.629 369.998C225.368 369.987 225.098 369.98 224.855 370.078C224.433 370.248 224.194 370.694 224.052 371.128C222.573 375.627 227.878 375.987 231.038 376.157Z" fill="#CF7361"/>
<path fill-rule="evenodd" clip-rule="evenodd" d="M199.745 383.815C199.701 384.178 199.66 384.564 199.816 384.894C199.929 385.135 200.136 385.318 200.359 385.461C202.037 386.533 204.291 385.379 205.576 383.856C206.859 382.333 207.729 380.407 209.367 379.276C213.115 376.688 209.683 371.948 205.766 373.035C201.193 374.304 200.233 379.811 199.745 383.815Z" fill="#CF7361"/>
<path fill-rule="evenodd" clip-rule="evenodd" d="M250.259 359.411C253.496 357.026 256.742 354.324 257.925 350.308C259.107 346.292 257.438 340.62 253.262 338.303C248.171 335.48 243.169 338.949 239.538 342.225C232.1 348.928 223.994 354.853 216.069 360.984C213.391 363.055 204.099 370.684 204.099 370.684C203.844 371.759 208.838 381.486 210.162 381.13C224.618 377.298 238.679 367.94 250.259 359.411Z" fill="#242448"/>
<path fill-rule="evenodd" clip-rule="evenodd" d="M177.498 364.031C174.329 362.485 171.141 360.622 169.887 356.907C168.634 353.192 170.059 347.08 173.985 343.676C178.772 339.526 183.663 341.701 187.237 344.038C194.556 348.817 202.493 352.645 210.261 356.725C212.887 358.103 222.009 363.328 222.009 363.328C222.287 364.338 217.802 375.375 216.525 375.363C202.576 375.282 188.837 369.564 177.498 364.031Z" fill="#242448"/>
<path fill-rule="evenodd" clip-rule="evenodd" d="M225.587 378.12C228.499 379.54 231.488 380.803 234.536 381.902C236.149 382.485 237.81 383.026 239.524 383.047C243.536 383.096 246.658 378.771 243.098 375.668C241.538 374.309 239.767 373.194 237.871 372.373C235.073 371.161 236.622 373.504 235.653 375.371C234.537 377.521 233.756 377.43 231.745 376.394C229.155 375.06 227.499 373.551 224.442 373.572C223.598 373.577 222.61 373.768 222.243 374.529C221.964 375.107 222.172 375.826 222.586 376.316C222.999 376.805 223.582 377.114 224.152 377.405C224.628 377.648 225.107 377.886 225.587 378.12Z" fill="#242448"/>
<path fill-rule="evenodd" clip-rule="evenodd" d="M267.42 324.562C267.373 324.371 267.328 324.173 267.337 323.983C267.428 322.211 268.534 321.341 269.103 319.667C269.357 318.921 268.103 317.328 269.698 316.926C271.351 316.512 274.548 316.792 275.665 315.276C276.159 314.605 276.769 313.724 277.576 313.925C277.852 313.994 278.079 314.187 278.283 314.385C285.047 320.942 278.472 328.84 271.101 328.593C270.476 328.572 270.053 328.56 269.543 328.267C268.716 327.792 268.356 326.936 267.968 326.1C267.739 325.605 267.548 325.09 267.42 324.562Z" fill="#CF7361"/>
<path fill-rule="evenodd" clip-rule="evenodd" d="M280.378 325.743C282.053 326.446 284.109 325.735 285.257 324.325C286.405 322.915 286.725 320.956 286.428 319.161C286.132 317.365 285.278 315.708 284.286 314.185C283.109 312.379 281.629 310.643 279.619 309.875C278.498 309.447 277.282 309.348 276.082 309.321C275.274 309.304 274.378 309.351 273.795 309.915C273.378 310.319 273.208 310.91 273.084 311.479C272.276 315.17 272.911 315.707 275.323 318.16C277.462 320.337 279.028 323.026 280.378 325.743Z" fill="white"/>
<path fill-rule="evenodd" clip-rule="evenodd" d="M169.346 285.329V279.663C169.346 279.663 199.657 276.839 217.886 289.009L169.346 285.329Z" fill="#E3D9C7"/>
<path fill-rule="evenodd" clip-rule="evenodd" d="M163.137 284.724L167.196 281.588C167.196 281.588 191.985 276.839 217.886 289.009V356.562C217.886 356.562 200.323 343.904 163.137 348.875V284.724Z" fill="white"/>
<path fill-rule="evenodd" clip-rule="evenodd" d="M266.427 285.329V279.663C266.427 279.663 236.116 276.839 217.887 289.009L266.427 285.329Z" fill="#E3D9C7"/>
<path fill-rule="evenodd" clip-rule="evenodd" d="M272.636 284.724L268.577 281.588C268.577 281.588 243.788 276.839 217.887 289.009V356.562C217.887 356.562 235.45 343.904 272.636 348.875V284.724Z" fill="white"/>
<path fill-rule="evenodd" clip-rule="evenodd" d="M217.891 288.976C220.715 288.821 222.864 288.148 222.981 287.331C222.984 287.315 223 287.297 223.029 287.278C223.015 287.272 223.001 287.266 222.987 287.26L223.131 287.224C223.934 286.866 227.721 286.106 228.872 285.858C228.953 285.84 229.034 285.822 229.116 285.804C229.133 285.8 229.149 285.796 229.162 285.793C232.373 284.983 235.631 284.382 238.911 283.945C251.356 281.992 260.49 282.341 265.629 283.094C267.546 283.331 269.42 283.719 271.204 284.333C271.531 284.445 271.84 284.573 272.128 284.725C272.131 284.726 272.133 284.726 272.133 284.726L272.132 284.727C272.745 285.049 273.264 285.483 273.661 286.126C274.194 286.991 274.221 287.837 274.221 288.813V348.476C274.221 350.16 272.831 351.829 271.18 351.524C261.018 349.647 252.741 349.711 246.374 350.163C239.663 350.639 232.969 351.661 226.474 353.437C224.358 354.014 221.709 354.466 219.767 355.513C219.581 355.613 219.38 355.686 219.167 355.728C219.034 355.753 218.898 355.767 218.759 355.767C218.595 355.767 218.435 355.748 218.282 355.713C218.13 355.655 217.972 355.599 217.809 355.543C217.108 355.193 216.627 354.468 216.627 353.629V290.43C216.627 289.924 217.069 289.435 217.891 288.976Z" fill="#2F3788"/>
<path fill-rule="evenodd" clip-rule="evenodd" d="M217.901 288.976C215.076 288.821 212.928 288.148 212.81 287.331C212.808 287.315 212.791 287.297 212.762 287.278C212.777 287.272 212.79 287.266 212.804 287.26C212.756 287.248 212.708 287.236 212.66 287.224C211.856 286.866 208.07 286.106 206.919 285.858C206.838 285.84 206.757 285.822 206.676 285.804C206.658 285.8 206.642 285.796 206.63 285.793C203.418 284.983 200.161 284.382 196.88 283.945C184.435 281.992 175.301 282.341 170.162 283.094C168.245 283.331 166.371 283.719 164.587 284.333C164.26 284.445 163.951 284.573 163.663 284.725C163.66 284.726 163.658 284.726 163.658 284.726L163.659 284.727C163.046 285.049 162.527 285.483 162.13 286.126C161.597 286.991 161.57 287.837 161.57 288.813V348.476C161.57 350.16 162.959 351.829 164.611 351.524C174.774 349.647 183.051 349.711 189.418 350.163C196.129 350.639 202.822 351.661 209.318 353.437C211.433 354.014 214.082 354.466 216.024 355.513C216.21 355.613 216.412 355.686 216.624 355.728C216.757 355.753 216.893 355.767 217.033 355.767C217.196 355.767 217.356 355.748 217.51 355.713C217.661 355.655 217.819 355.599 217.983 355.543C218.683 355.193 219.164 354.468 219.164 353.629V290.43C219.164 289.924 218.722 289.435 217.901 288.976Z" fill="#2F3788"/>
<path opacity="0.193444" fill-rule="evenodd" clip-rule="evenodd" d="M212.791 299.28C212.791 299.28 206.745 338.716 169.346 350.766C177.374 349.678 184.07 349.783 189.418 350.163C196.129 350.64 202.823 351.661 209.318 353.436C211.433 354.015 214.083 354.467 216.025 355.513C216.21 355.613 216.412 355.686 216.625 355.727C216.757 355.753 216.893 355.767 217.033 355.767C217.197 355.767 217.356 355.748 217.51 355.713C217.661 355.656 217.819 355.599 217.983 355.543C218.684 355.193 219.165 354.468 219.165 353.63V299.28H212.791Z" fill="#232020"/>
<path fill-rule="evenodd" clip-rule="evenodd" d="M217.91 288.847C215.083 288.847 212.791 288.041 212.804 287.26L212.791 354.81C212.791 355.778 215.083 356.563 217.91 356.563C220.738 356.563 223.03 355.778 223.03 354.81L223.029 287.278C222.78 288.169 220.738 288.847 217.91 288.847Z" fill="#5966D7"/>
<path fill-rule="evenodd" clip-rule="evenodd" d="M273.661 286.126C273.264 285.483 272.745 285.049 272.133 284.726C272.133 284.726 272.131 284.725 272.128 284.724C271.84 284.572 271.531 284.445 271.204 284.333C269.42 283.719 267.547 283.331 265.629 283.094C260.49 282.341 251.356 281.992 238.911 283.945C235.63 284.382 232.373 284.982 229.162 285.793C229.149 285.797 229.133 285.8 229.116 285.804C229.035 285.822 228.953 285.84 228.872 285.858C227.721 286.106 223.934 286.866 223.132 287.223C223.083 287.236 223.035 287.248 222.987 287.26C223.001 287.266 223.015 287.272 223.029 287.278C223 287.297 222.983 287.315 222.981 287.33C222.973 287.389 222.953 287.447 222.925 287.503C222.421 288.28 220.494 288.847 217.91 288.847C215.199 288.847 212.981 288.106 212.816 287.357C212.814 287.348 212.811 287.339 212.809 287.33C212.805 287.306 212.804 287.283 212.804 287.26V287.317C212.797 287.305 212.782 287.292 212.762 287.278C212.776 287.272 212.79 287.266 212.804 287.26C212.756 287.248 212.707 287.236 212.659 287.223C211.856 286.866 208.07 286.106 206.919 285.858C206.838 285.84 206.756 285.822 206.675 285.804C206.658 285.8 206.641 285.797 206.629 285.793C203.418 284.982 200.16 284.382 196.88 283.945C184.435 281.992 175.301 282.341 170.162 283.094C168.244 283.331 166.371 283.719 164.587 284.333C164.26 284.445 163.951 284.572 163.662 284.724C163.66 284.725 163.658 284.726 163.658 284.726C163.046 285.049 162.526 285.483 162.13 286.126C161.596 286.991 161.57 287.837 161.57 288.813V289.934C161.57 288.959 161.596 288.113 162.13 287.248C162.526 286.605 163.046 286.171 163.658 285.849V285.848C163.658 285.848 163.66 285.847 163.662 285.847C163.951 285.694 164.26 285.567 164.587 285.455C166.371 284.841 168.244 284.453 170.162 284.216C175.301 283.462 184.435 283.114 196.88 285.068C200.16 285.504 203.418 286.105 206.629 286.915C206.641 286.918 206.658 286.922 206.675 286.926C206.756 286.944 206.838 286.962 206.919 286.98C208.07 287.227 211.856 287.988 212.659 288.346C212.707 288.358 212.756 288.37 212.804 288.382C212.804 288.405 212.805 288.428 212.809 288.451V288.452C212.811 288.461 212.814 288.47 212.816 288.478C212.981 289.228 215.199 289.968 217.91 289.968C220.494 289.968 222.421 289.402 222.925 288.625C222.953 288.568 222.973 288.511 222.981 288.452C222.983 288.437 223 288.419 223.029 288.4C223.015 288.394 223.001 288.389 222.987 288.382C223.035 288.37 223.083 288.358 223.132 288.346C223.934 287.988 227.721 287.227 228.872 286.98C228.953 286.962 229.035 286.944 229.116 286.926C229.133 286.922 229.149 286.918 229.162 286.915C232.373 286.105 235.63 285.504 238.911 285.068C251.356 283.114 260.49 283.462 265.629 284.216C267.547 284.453 269.42 284.841 271.204 285.455C271.531 285.567 271.84 285.694 272.128 285.847C272.131 285.847 272.133 285.848 272.133 285.848V285.849C272.745 286.171 273.264 286.605 273.661 287.248C274.194 288.113 274.221 288.959 274.221 289.934V288.813C274.221 287.837 274.194 286.991 273.661 286.126Z" fill="#232020"/>
<path opacity="0.193444" fill-rule="evenodd" clip-rule="evenodd" d="M212.804 287.26L212.791 354.81C212.791 355.626 214.421 356.311 216.627 356.507V288.79C214.421 288.595 212.793 287.919 212.804 287.26Z" fill="#232020"/>
<path fill-rule="evenodd" clip-rule="evenodd" d="M265.006 290.545C260.056 289.819 251.258 289.483 239.271 291.365C236.991 291.668 233.021 292.481 230.959 292.916C230.184 293.079 229.631 293.764 229.631 294.557V308.201C229.631 309.272 230.62 310.065 231.665 309.837C236.534 308.773 241.769 307.287 247.8 306.919C252.961 306.604 258.074 306.451 265.818 307.503C266.822 307.639 267.716 306.858 267.716 305.843V292.388C267.716 291.569 267.126 290.868 266.32 290.734C265.885 290.662 265.447 290.599 265.006 290.545Z" fill="#5966D7"/>
<path fill-rule="evenodd" clip-rule="evenodd" d="M171.085 318.048C171.132 317.857 171.177 317.659 171.168 317.468C171.077 315.696 169.972 314.827 169.402 313.153C169.148 312.407 170.402 310.814 168.806 310.412C167.155 309.997 163.958 310.277 162.84 308.762C162.346 308.091 161.737 307.21 160.929 307.411C160.653 307.48 160.426 307.673 160.222 307.871C153.459 314.428 160.033 322.326 167.404 322.079C168.03 322.058 168.453 322.046 168.961 321.753C169.79 321.278 170.15 320.422 170.537 319.586C170.767 319.091 170.957 318.575 171.085 318.048Z" fill="#CF7361"/>
<path fill-rule="evenodd" clip-rule="evenodd" d="M158.127 319.229C156.453 319.932 154.396 319.221 153.248 317.811C152.1 316.401 151.78 314.442 152.077 312.647C152.373 310.851 153.227 309.194 154.22 307.67C155.396 305.865 156.877 304.129 158.887 303.36C160.007 302.932 161.224 302.834 162.423 302.807C163.232 302.789 164.128 302.837 164.711 303.401C165.128 303.805 165.297 304.396 165.421 304.965C166.23 308.656 165.594 309.192 163.182 311.646C161.044 313.822 159.477 316.512 158.127 319.229Z" fill="white"/>
<path fill-rule="evenodd" clip-rule="evenodd" d="M336.714 183.567C336.574 183.477 336.431 183.382 336.329 183.267C335.378 182.188 335.609 181.168 335.029 179.925C334.77 179.37 333.039 179.018 333.856 178.046C334.158 177.688 335.048 176.905 335.701 176.147C336.888 174.766 335.78 172.761 337.018 171.211C338.083 169.878 341.918 168.648 343.263 170.606C343.767 171.34 343.067 172.525 343.175 173.323C343.34 174.549 344.324 175.366 344.771 176.503C345.166 177.514 345.389 178.915 345.329 179.96C345.21 182.022 343.13 183.113 341.43 184.225C341.007 184.503 340.723 184.691 340.221 184.755C339.406 184.859 338.683 184.525 337.951 184.214C337.518 184.031 337.099 183.817 336.714 183.567Z" fill="#FFC0A5"/>
<path fill-rule="evenodd" clip-rule="evenodd" d="M347.694 177.688C349.295 176.912 350.108 174.937 349.82 173.179C349.531 171.421 348.304 169.914 346.798 168.969C345.291 168.023 343.524 167.577 341.765 167.319C339.68 167.013 337.45 166.977 335.585 167.958C334.545 168.505 333.683 169.336 332.887 170.2C332.349 170.785 331.803 171.475 331.837 172.269C331.863 172.837 332.187 173.345 332.522 173.805C334.7 176.793 335.505 176.674 338.865 176.49C341.845 176.327 344.83 176.919 347.694 177.688Z" fill="#DFEAFA"/>
<path fill-rule="evenodd" clip-rule="evenodd" d="M263.09 180.578C263.242 180.511 263.399 180.442 263.519 180.344C264.633 179.436 264.572 178.392 265.348 177.261C265.694 176.758 267.46 176.694 266.812 175.602C266.573 175.199 265.824 174.28 265.304 173.425C264.358 171.867 265.78 170.071 264.813 168.338C263.981 166.849 260.399 165.004 258.751 166.715C258.134 167.356 258.63 168.641 258.393 169.409C258.03 170.591 256.925 171.235 256.299 172.284C255.744 173.216 255.294 174.561 255.182 175.601C254.961 177.654 256.835 179.074 258.329 180.451C258.701 180.793 258.951 181.026 259.436 181.172C260.222 181.409 260.991 181.198 261.763 181.012C262.221 180.902 262.669 180.761 263.09 180.578Z" fill="#FFC0A5"/>
<path fill-rule="evenodd" clip-rule="evenodd" d="M253.223 172.972C251.771 171.943 251.292 169.862 251.864 168.174C252.436 166.487 253.893 165.203 255.534 164.518C257.175 163.833 258.991 163.684 260.769 163.719C262.874 163.76 265.081 164.091 266.761 165.366C267.697 166.076 268.411 167.038 269.054 168.022C269.489 168.687 269.915 169.457 269.751 170.234C269.633 170.791 269.23 171.239 268.824 171.638C266.187 174.227 265.412 173.976 262.128 173.243C259.215 172.593 256.174 172.684 253.223 172.972Z" fill="#DFEAFA"/>
</svg>
