<svg xmlns="http://www.w3.org/2000/svg" fill="none" viewBox="0 0 589 426"><path fill="#B7C6E0" fill-rule="evenodd" d="M380.2 43.2C226.3-28.6 64.6-7.5 19 90.3-26.6 188.1.4 500 215 397.3c214.8-102.5 315.7 50.8 361.3-47 45.6-97.8-42.2-235.3-196-307z" clip-rule="evenodd" opacity=".4"/><path fill="#212D5F" fill-rule="evenodd" d="M286.9 395c3.9 9-90.5 14.7-171.8 10.7-81.2-4-118.5-20-79.7-28.4C74.2 368.8 283 386 286.9 395z" clip-rule="evenodd" opacity=".3"/><g fill-rule="evenodd" clip-rule="evenodd"><path fill="#2143AF" d="M128.9 363a9.2 9.2 0 0 1-7.2-3.4L91 321.1c-2.4-3-2.3-7.1.3-10l40.2-44.7c3-3.4 8.7-4 12.4-1 3.8 2.8 4.4 8 1.3 11.4l-35.8 39.8L136 350c3 3.6 2 8.7-1.9 11.4a9.4 9.4 0 0 1-5.2 1.5zM187.4 363c-1.8 0-3.6-.6-5.2-1.6a7.7 7.7 0 0 1-2-11.4l26.9-33.5-35.7-39.7a7.7 7.7 0 0 1 1.2-11.5 9.5 9.5 0 0 1 12.5 1.1l40.1 44.6c2.6 2.9 2.7 7 .3 10l-30.9 38.6a9.2 9.2 0 0 1-7.2 3.3z"/><path fill="#191847" d="M184.7 217.7c0 13-11.5 23.7-25.6 23.7-14.1 0-25.5-10.6-25.5-23.7S145 194 159 194s25.6 10.6 25.6 23.7z"/><path fill="#FFC0A5" d="M166 247.2l-.1 22.2V284h-17l.8-35.7.3-10 16 8.9z"/><path fill="#2143AF" d="M130.8 280.8c0-6.8 6.6-13.4 13.3-16.5 10-4.7 25.6-1.4 30.5 1.2a24.6 24.6 0 0 1 12.9 23.1l.6 50.7h-59.7s2.3-43.1 2.4-58.5z"/><path fill="#FFC0A5" d="M172.7 264.6c-7.6-3-18.5-4-27.2-.5l6.5 6a11 11 0 0 0 14.8 0l6-5.5zM164 205h-9.7c-8.6 0-16.6 6.5-15.5 14.4.7 5.7 0 10 0 18.4 0 7.1 9 21 16.7 21h7.2c7.7 0 16.8-13.9 16.8-21 0-8.4-.8-12.7 0-18.4 1-7.9-7-14.3-15.5-14.3z"/><path fill="#FFFEFF" d="M150.6 246.1c.7 2.7 3.8 4.7 7.7 4.7 3.8 0 7-2 7.6-4.7h-15.3z"/><path fill="#566CD3" d="M168.5 389.8h-18.7c-13.5 0-23.6-11.5-21-23.8l1.2-25.2h58.2l1.2 25.2c2.6 12.3-7.5 23.8-21 23.8z"/><path fill="#566CD3" d="M73 362.3l82-7.2 2.4 22.7-82 7.2c-6.7.6-12.7-4-13.3-10.2v-.2c-.7-6.2 4.2-11.7 11-12.3z"/><path fill="#566CD3" d="M234 362.3l-81.7-7-2.3 22 81.7 7c6.7.6 12.6-3.8 13.2-9.8v-.3c.7-6-4.2-11.4-10.9-12z"/><path fill="#fff" d="M190.7 375.6h-63.2c-3.2 0-5.9-2.4-5.9-5.4V332c0-3 2.7-5.4 6-5.4h63.1c3.3 0 5.9 2.4 5.9 5.4v38.2c0 3-2.6 5.4-5.9 5.4z"/><path fill="#EA3663" d="M190.7 378.7h-63.2c-3.2 0-5.9-2.4-5.9-5.3v-38.2c0-3 2.7-5.4 6-5.4h63.1c3.3 0 5.9 2.4 5.9 5.4v38.2c0 3-2.6 5.3-5.9 5.3z"/><path fill="#fff" d="M166.7 358.2h-16.9c-2.4 0-4.3-1.7-4.3-3.9s2-4 4.3-4h17c2.3 0 4.2 1.8 4.2 4s-1.9 4-4.3 4zM126.7 400.9l23.6-1.4-.1.4c-.2 1.4.8 2.6 2.2 2.5 1 0 2-.8 2.1-1.8l.3-1.3 2.6-.2v.7c-.3 1.3.8 2.5 2.2 2.4 1 0 1.9-.7 2-1.8l.4-1.6 14.8-.8.9-.5a12.6 12.6 0 0 0 9.6-16.7c-2.5-6.6-10-10-16.8-7.6h-.2l-46.8 16.4a5 5 0 0 0-2 1.3c-3.8 3.9-.3 10.3 5.2 10z"/><path fill="#F7B75D" d="M165 391.4c-2.4-6.1 1-12.9 7.7-15.1 6.6-2.2 14 1 16.3 7 2.4 6.2-1 13-7.7 15.3-6.6 2.2-14-1-16.3-7.2z"/><path fill="#C5CFD6" d="M123.5 391.7l46.7-15.6c5-1.6 10.4.7 12.2 5.3 1.8 4.5-.7 16.6-5.7 18.2l-50 2.8c-5.5.3-9-5.8-5.2-9.5.6-.5 1.3-1 2-1.2z"/><path fill="#fff" d="M162 396.1c1.4 0 2.4 1 2.2 2.2l-.8 4.2c-.2.8-1 1.5-2 1.5-1.4 0-2.5-1-2.3-2.1l.8-4.2c.2-1 1-1.6 2.1-1.6zM153.5 396.1c1.3 0 2.4 1 2.2 2.2l-.8 4.2c-.2.8-1 1.5-2 1.5-1.4 0-2.5-1-2.3-2.1l.8-4.2c.2-1 1-1.6 2-1.6z"/><path fill="#FFC0A5" d="M228.6 366.4l-53.8 14.1a9.4 9.4 0 0 0-6.8 11.6v.2c1.4 5 6.7 8 11.9 6.6l53.8-14a9.4 9.4 0 0 0 6.9-11.6l-.1-.2c-1.4-5-6.7-8-11.9-6.7z"/><path fill="#fff" d="M179.6 400.9l-23.6-1.4.1.4c.2 1.4-.8 2.6-2.2 2.5-1 0-2-.8-2.1-1.8l-.3-1.3-2.6-.2v.7c.3 1.3-.8 2.5-2.2 2.4-1 0-2-.7-2-1.8l-.4-1.6-14.8-.8-.9-.5a12.6 12.6 0 0 1-9.6-16.7c2.5-6.6 10-10 16.8-7.6h.2l46.8 16.4c.7.3 1.4.7 2 1.3 3.8 3.9.3 10.3-5.2 10z"/><path fill="#FFC0A5" d="M77.7 366.4l53.8 14.1a9.4 9.4 0 0 1 6.8 11.6v.2c-1.4 5-6.7 8-11.9 6.6l-53.8-14a9.4 9.4 0 0 1-6.9-11.6v-.2c1.5-5 6.8-8 12-6.7z"/><path fill="#C5CFD6" d="M182.8 391.7L136.1 376c-5-1.6-10.4.7-12.2 5.3-1.8 4.5.7 16.6 5.7 18.2l50 2.8c5.5.3 9-5.8 5.2-9.5-.6-.5-1.3-1-2-1.2z"/><path fill="#fff" d="M146 396.1c-1.4 0-2.4 1-2.2 2.2l.8 4.2c.2.8 1 1.5 2 1.5 1.4 0 2.5-1 2.3-2.1l-.8-4.2c-.2-1-1-1.6-2.1-1.6zM151.1 396.1c-1.4 0-2.4 1-2.2 2.2l.8 4.2c.2.8 1 1.5 2 1.5 1.4 0 2.5-1 2.3-2.1l-.8-4.2c-.2-1-1-1.6-2.1-1.6z"/><path fill="#191847" d="M160.3 194c-17 0-31.9 16.2-31.9 16.2 21.3 11.7 36.3 3 41.5-.7 1.5-1.1 4.5-3.4 4.5-6.5l-14-9z"/></g><path fill="#FFC0A5" fill-rule="evenodd" d="M383.4 304.7c9.6 33 17.3 73.9 17.3 73.9l16.7-1-6.5-78.8s13.5-3.7 20.8-12.7c7.3-9-12.8-23.7-12.8-23.7s-47.8.3-35.5 42.3z" clip-rule="evenodd"/><path fill="#FFB363" fill-rule="evenodd" d="M403.4 378.6s-19.4 8-30 10.9c-10.7 2.9-4.8 7.5 6.3 9.9 11 2.3 37.3 4.5 41.3.2s-3-18.8-3-18.8l-14.6-2.2z" clip-rule="evenodd"/><path fill="#FFC0A5" fill-rule="evenodd" d="M428.4 138.7s8.4 29.2 18.2 35.7c5.6 3.7 11.4 0 15.7-3.8 3-2.7 5.3-5.5 5.9-5.2 1.3.7 6.2 6.1 6.2 6.1s23.1-5.7 19.1-7.7-12.7-10.7-12.7-10.7c3.8-18.4-8-28.5-20.6-32.4-1-.3-2.1-.4-3.2-.4-12.5 0-28.6 18.4-28.6 18.4z" clip-rule="evenodd"/><path fill="#FECFBB" fill-rule="evenodd" d="M378.2 301.7c-17 30-32.7 61.8-32.7 61.8L358 375l40.6-59.3s11-14.7 22.8-15.7c11.7-1-3-33.7-3-33.7h-.7c-3.6 0-20.4 1.9-39.5 35.5z" clip-rule="evenodd"/><path fill="#FFB363" fill-rule="evenodd" d="M343.1 368.6s-20.9-2.7-31.7-5.5c-10.7-2.7-7.6 4 1.1 11.5 8.7 7.4 34.4 22.8 40 21.1 5.4-1.6 4-17.7 4-17.7l-13.4-9.4z" clip-rule="evenodd"/><path fill="#1F28CF" fill-rule="evenodd" d="M357.7 190.7h-53c-.7 0-1.3-.6-1.3-1.3v-9.6c0-.8.6-1.4 1.3-1.4h53c.7 0 1.4.6 1.4 1.4v9.6c0 .7-.7 1.3-1.4 1.3z" clip-rule="evenodd"/><path fill="#4B53F3" fill-rule="evenodd" d="M296 190.7c-.7 0-1.3.7-1.3 1.4v9.6c0 .8.6 1.4 1.4 1.4h53c.7 0 1.3-.6 1.3-1.4v-9.6c0-.7-.6-1.4-1.4-1.4h-53z" clip-rule="evenodd"/><path fill="#1F28CF" fill-rule="evenodd" d="M308.5 203.1c-.8 0-1.4.6-1.4 1.4v9.6c0 .7.6 1.4 1.4 1.4h52.9c.8 0 1.4-.7 1.4-1.4v-9.6c0-.8-.6-1.4-1.4-1.4h-53z" clip-rule="evenodd"/><path fill="#4B53F3" fill-rule="evenodd" d="M356.4 227.8h-52.9c-.8 0-1.4-.6-1.4-1.4v-9.6c0-.7.6-1.3 1.4-1.3h53c.7 0 1.3.6 1.3 1.3v9.6c0 .8-.6 1.4-1.4 1.4z" clip-rule="evenodd"/><path fill="#191847" fill-rule="evenodd" d="M453.7 234H297.8a3.1 3.1 0 0 1-3.1-3.1c0-1.7 1.4-3 3.1-3h156c1.6 0 3 1.3 3 3s-1.4 3-3 3z" clip-rule="evenodd"/><path fill="#9FB9CB" fill-rule="evenodd" d="M266.8 142.5c-1 0-1.8 1-1.8 1.8 0 .4.1.7.3 1l53 79a7.7 7.7 0 0 0 6.4 3.5h79.8l.3-2a4 4 0 0 0-4-4.8h-78.3a4 4 0 0 1-3.3-1.7l-50.9-76c-.3-.5-.9-.8-1.5-.8z" clip-rule="evenodd"/><path fill="#1F28CF" fill-rule="evenodd" d="M399.8 177.4L378 195.8a1 1 0 0 0-.1 1.4l15.3 17 .6.3 38.5 2.2c.9 0 1.3-1 .8-1.6l-32-37.6a1 1 0 0 0-1.3-.1z" clip-rule="evenodd"/><path fill="#DA2621" fill-rule="evenodd" d="M420 261a3.1 3.1 0 0 0-2.8 3c0 6.5.5 22.7 3.2 38a3.1 3.1 0 0 0 3 2.7c58 1.7 93.8 2.6 104.5-9.4 1.7-1.8 3.7-3.3 3-5.7-2.1-8.4-9.4-26.6-53.8-33.4l-57 4.8z" clip-rule="evenodd"/><path fill="#FECFBB" fill-rule="evenodd" d="M408.8 211.6s-5.2 3.3-12.3 1.3c-7-2 1 6.2 4.4 6.5 0 0 0 3.1 2 4.4 0 0 2.1 5.6 6 5.7 4 .2 11.2-1.2 11.2-1.2l7.3 2 2.2-14.3c0 .2-6.8-2-6.8-2s-8-8.5-18.2-9.6h-1c-4.3 0 3 5 5.2 7.2z" clip-rule="evenodd"/><path fill="#E6E7E8" fill-rule="evenodd" d="M398.7 371l17-3.5 1.5 13.4s-12.2 3.6-17.5-.8l-1-9.2zM349 356.3l15 10.3-6.5 12s-14.3-6.1-15.8-10.7l7.3-11.6z" clip-rule="evenodd"/><path fill="#191847" fill-rule="evenodd" d="M534.7 307.9l32.3-69.2v-12.1L528.9 300a6 6 0 0 1-5.4 3.2h-71a5.7 5.7 0 0 0-5.8 5.7c0 3.2 2.6 5.7 5.7 5.7h34.2v85.7H448a3.5 3.5 0 0 0-3.5 3c-.2 2 1.4 3.7 3.4 3.7h83c1.7 0 3.3-1.3 3.5-3 .2-2-1.4-3.7-3.4-3.7h-38.7v-85.7H524c4.5 0 8.7-2.6 10.6-6.7z" clip-rule="evenodd"/><path fill="#191847" fill-rule="evenodd" d="M307 234l154.2 172.2c.5.5 1.1.8 1.8.8h2.4c1.1 0 1.8-1.4 1-2.3L317.7 234h-10.6z" clip-rule="evenodd"/><path fill="#191847" fill-rule="evenodd" d="M443.2 234l-154 172.2c-.6.5-1.2.8-2 .8H285a1.4 1.4 0 0 1-1-2.3L432.5 234h10.6z" clip-rule="evenodd"/><path fill="#D1D3D4" fill-rule="evenodd" d="M402.6 189.5l-11.4 8.7 6.2 6.1 11.2-8.3-6-6.5z" clip-rule="evenodd"/><path fill="#231F20" fill-rule="evenodd" d="M417.2 263.9c0 6.4.5 22.5 3.2 37.7a3.1 3.1 0 0 0 3 2.5l10 .3c-2-17.8-3.4-44.5-3.4-44.5l-10 .9a3 3 0 0 0-2.8 3z" clip-rule="evenodd" opacity=".1"/><path fill="#FECFBB" fill-rule="evenodd" d="M469.2 166c1.4.6 6.4 6.2 6.4 6.2s3.4-.8 7.4-2l4.8-2.6-11.4-10.2-7.2 8.5z" clip-rule="evenodd"/><path fill="#231F20" fill-rule="evenodd" d="M526.7 294.3c1.7-1.9 3.7-3.3 3-5.7a32.4 32.4 0 0 0-13-18.6c-7.7-1.6-13 11.2-27.6 15.7-14.8 4.6-26.2-8.8-39.2-4-10.8 4-26.5 7-31.4 7.8l.7 5.5.7 5.9a3 3 0 0 0 3.1 2.5c57.6 1.7 93 2.6 103.7-9.1z" clip-rule="evenodd" opacity=".1"/><path fill="#191847" fill-rule="evenodd" d="M481.1 152.4l-7.3-3.2a.7.7 0 0 1-.3-1c1.5-2.6 6.1-11.4-.4-15.8-7.4-4.8-12.8 2.6-9.2 9.1.2.5 0 1-.6 1.1-3.1.1-11.4-.4-16.4-8.9a.7.7 0 0 0-1.2 0 30 30 0 0 1-28.9 8.6.7.7 0 0 1-.1-1.3c4.7-2.6 6-5.7 6.5-7.1a.7.7 0 0 0-.6-1c-4.2-.4-8.5-.3-10.8-.2-.6 0-1-.6-.6-1.1 5.3-7.2 33.7-41.8 68.9-23.1 14.7 8.3 11.8 31.3 1.9 43.7-.2.2-.6.3-.9.2z" clip-rule="evenodd"/><path fill="#231F20" fill-rule="evenodd" d="M482 152.2c9.9-12.4 12.8-35.4-2-43.7a43.4 43.4 0 0 0-28-5l-18 7c-1.1.5-2.2 1.2-3.1 1.9 9.7-1.6 35-4.2 47 7.8 6.7 6.7 3.4 18.6-2.4 29.8l5.6 2.4c.3.1.6 0 .8-.2z" clip-rule="evenodd" opacity=".1"/><path fill="#69A1AC" fill-rule="evenodd" d="M482.4 164.2c-21.6 9.7-8 54.3-4.6 60.4 3.4 6 6 25.1 0 31.6 0 0 43 12.5 53.8 35.5.3.6 1.2.5 1.4-.2 2.5-11.4 12.7-66-11.2-107 0 0-13.3-22.2-30.7-22.2a21 21 0 0 0-8.7 2z" clip-rule="evenodd"/><path fill="#89C5CC" fill-rule="evenodd" d="M475.6 180.7s-1.8 36.5-10 39.4c-7.6 2.6-30-5.2-34.1-6.7a.7.7 0 0 0-1 .4c-1 2.2-3.8 9.5-3.3 18.1 0 .3.2.6.4.7 22 10.3 44.5 11.3 44.5 11.3 16.2-4.7 34.3-45.2 34.3-45.2s-1.6-20.3-19.3-20.3c-3.2 0-7 .7-11.5 2.3z" clip-rule="evenodd"/><path fill="#231F20" fill-rule="evenodd" d="M520.8 185.2s-10.8-18.3-25.6-21.6c1.2 2.4 10.5 7.1 17.7 20.6 11.4 21.2 20.7 55-1.2 88l9.6 7.4c4 3.6 7.1 7.7 9.2 12 .3.7 1.2.6 1.3 0 2.5-11.5 12.5-65.8-11-106.4z" clip-rule="evenodd" opacity=".1"/></svg>