<svg width="589" height="426" viewBox="0 0 589 426" fill="none" xmlns="http://www.w3.org/2000/svg">
<path opacity="0.426121" fill-rule="evenodd" clip-rule="evenodd" d="M380.223 43.221C226.307 -28.551 64.564 -7.4519 18.959 90.347C-26.6453 188.147 0.397598 500.012 215.075 397.384C429.751 294.755 530.734 448.057 576.339 350.258C621.943 252.458 534.139 114.993 380.223 43.221Z" fill="#B7C6E0"/>
<path opacity="0.265455" fill-rule="evenodd" clip-rule="evenodd" d="M286.884 394.987C290.775 403.92 196.388 409.747 115.147 405.68C33.906 401.614 -3.36379 385.734 35.403 377.273C74.17 368.811 282.992 386.053 286.884 394.987Z" fill="#212D5F"/>
<g filter="url(#filter0_d)">
<path fill-rule="evenodd" clip-rule="evenodd" d="M128.883 362.947C126.149 362.947 123.445 361.792 121.708 359.614L90.972 321.082C88.577 318.084 88.708 313.98 91.283 311.113L131.452 266.436C134.57 262.969 140.163 262.475 143.949 265.325C147.737 268.184 148.277 273.309 145.162 276.774L109.376 316.582L136.045 350.02C138.938 353.646 138.075 358.732 134.113 361.381C132.534 362.439 130.699 362.947 128.883 362.947Z" fill="#2143AF"/>
<path fill-rule="evenodd" clip-rule="evenodd" d="M187.417 362.947C185.593 362.947 183.754 362.436 182.168 361.378C178.202 358.723 177.341 353.638 180.243 350.011L207.094 316.482L171.361 276.776C168.239 273.306 168.783 268.182 172.583 265.328C176.378 262.469 181.991 262.974 185.11 266.44L225.233 311.023C227.815 313.896 227.943 317.998 225.542 321L194.609 359.619C192.862 361.797 190.161 362.947 187.417 362.947Z" fill="#2143AF"/>
<path fill-rule="evenodd" clip-rule="evenodd" d="M184.666 217.683C184.666 230.767 173.224 241.368 159.113 241.368C144.999 241.368 133.555 230.767 133.555 217.683C133.555 204.601 144.999 194 159.113 194C173.224 194 184.666 204.601 184.666 217.683Z" fill="#191847"/>
<path fill-rule="evenodd" clip-rule="evenodd" d="M165.926 247.158L165.868 269.436L165.815 284L148.889 283.961L149.743 248.342L149.983 238.211L165.926 247.158Z" fill="#FFC0A5"/>
<path fill-rule="evenodd" clip-rule="evenodd" d="M130.813 280.766C130.876 273.993 137.367 267.44 144.091 264.285C154.158 259.562 169.685 262.851 174.637 265.507C183.06 270.02 188.075 279.199 187.482 288.637L188.075 339.263H128.445C128.445 339.263 130.674 296.17 130.813 280.766Z" fill="#2143AF"/>
<path fill-rule="evenodd" clip-rule="evenodd" d="M172.742 264.6C165.064 261.613 154.234 260.625 145.482 264.098L151.963 270.1C156.061 273.897 162.705 273.897 166.803 270.1C168.785 268.268 170.763 266.434 172.742 264.6Z" fill="#FFC0A5"/>
<path fill-rule="evenodd" clip-rule="evenodd" d="M163.958 205.053H154.267C145.704 205.053 137.688 211.526 138.763 219.37C139.541 225.08 138.763 229.362 138.763 237.845C138.763 244.947 147.776 258.737 155.473 258.737H162.748C170.445 258.737 179.458 244.947 179.458 237.845C179.458 229.362 178.677 225.08 179.458 219.37C180.531 211.526 172.515 205.053 163.958 205.053Z" fill="#FFC0A5"/>
<path fill-rule="evenodd" clip-rule="evenodd" d="M150.592 246.105C151.271 248.8 154.441 250.842 158.26 250.842C162.076 250.842 165.243 248.8 165.925 246.105H150.592Z" fill="#FFFEFF"/>
<path fill-rule="evenodd" clip-rule="evenodd" d="M168.468 389.789H149.756C136.311 389.789 126.228 378.308 128.867 366.008L129.991 340.842H188.233L189.357 366.008C191.996 378.308 181.913 389.789 168.468 389.789Z" fill="#566CD3"/>
<path fill-rule="evenodd" clip-rule="evenodd" d="M73.056 362.282L155.065 355.053L157.407 377.768L75.395 385C68.683 385.595 62.721 381.04 62.078 374.83L62.056 374.6C61.413 368.389 66.341 362.874 73.056 362.282Z" fill="#566CD3"/>
<path fill-rule="evenodd" clip-rule="evenodd" d="M234.009 362.262L152.325 355.236L149.992 377.311L231.679 384.339C238.364 384.917 244.303 380.491 244.941 374.455L244.965 374.232C245.602 368.196 240.697 362.837 234.009 362.262Z" fill="#566CD3"/>
<path fill-rule="evenodd" clip-rule="evenodd" d="M190.71 375.579H127.513C124.263 375.579 121.629 373.178 121.629 370.217V331.997C121.629 329.035 124.263 326.632 127.513 326.632H190.71C193.96 326.632 196.592 329.035 196.592 331.997V370.217C196.592 373.178 193.96 375.579 190.71 375.579Z" fill="white"/>
<path fill-rule="evenodd" clip-rule="evenodd" d="M190.71 378.737H127.513C124.263 378.737 121.629 376.336 121.629 373.372V335.155C121.629 332.193 124.263 329.789 127.513 329.789H190.71C193.96 329.789 196.592 332.193 196.592 335.155V373.372C196.592 376.336 193.96 378.737 190.71 378.737Z" fill="#EA3663"/>
<path fill-rule="evenodd" clip-rule="evenodd" d="M166.714 358.211H149.804C147.42 358.211 145.482 356.459 145.482 354.304V354.222C145.482 352.065 147.42 350.316 149.804 350.316H166.714C169.103 350.316 171.038 352.065 171.038 354.222V354.304C171.038 356.459 169.103 358.211 166.714 358.211Z" fill="white"/>
<path fill-rule="evenodd" clip-rule="evenodd" d="M126.697 400.885L150.251 399.517L150.18 399.936C149.952 401.264 151.032 402.458 152.42 402.42C153.478 402.391 154.369 401.645 154.543 400.63L154.776 399.254L157.423 399.098L157.312 399.751C157.088 401.078 158.162 402.27 159.552 402.238C160.614 402.209 161.502 401.457 161.676 400.445L161.951 398.837L176.763 397.976C177.08 397.863 177.382 397.707 177.678 397.516C178.258 397.394 178.836 397.25 179.41 397.05C186.225 394.665 189.754 387.389 187.287 380.799C184.823 374.206 177.295 370.797 170.48 373.182C170.429 373.197 170.381 373.223 170.336 373.24C170.309 373.246 170.283 373.249 170.256 373.257L123.497 389.619C122.753 389.873 122.104 390.324 121.539 390.894C117.723 394.76 121.177 401.203 126.697 400.885Z" fill="white"/>
<path fill-rule="evenodd" clip-rule="evenodd" d="M164.989 391.448C162.588 385.301 166.019 378.512 172.655 376.289C179.287 374.064 186.613 377.244 189.014 383.394C191.412 389.541 187.978 396.328 181.348 398.553C174.715 400.779 167.39 397.596 164.989 391.448Z" fill="#F7B75D"/>
<path fill-rule="evenodd" clip-rule="evenodd" d="M123.491 391.682L170.214 376.105C175.15 374.456 180.6 376.813 182.389 381.365C184.176 385.916 181.651 397.993 176.712 399.643L126.692 402.41C121.176 402.716 117.722 396.578 121.54 392.896C122.102 392.351 122.75 391.927 123.491 391.682Z" fill="#C5CFD6"/>
<path fill-rule="evenodd" clip-rule="evenodd" d="M162.009 396.106C163.362 396.076 164.414 397.111 164.193 398.254L163.391 402.451C163.222 403.327 162.353 403.974 161.324 403.999C159.969 404.029 158.919 402.999 159.141 401.851L159.943 397.657C160.112 396.781 160.977 396.131 162.009 396.106Z" fill="white"/>
<path fill-rule="evenodd" clip-rule="evenodd" d="M153.494 396.106C154.846 396.074 155.895 397.109 155.673 398.253L154.872 402.451C154.706 403.326 153.838 403.977 152.806 403.999C151.455 404.032 150.4 402.999 150.621 401.853L151.425 397.655C151.591 396.779 152.463 396.131 153.494 396.106Z" fill="white"/>
<path fill-rule="evenodd" clip-rule="evenodd" d="M228.616 366.432L174.812 380.52C169.641 381.874 166.573 387.051 167.964 392.087L168.017 392.274C169.408 397.307 174.73 400.293 179.904 398.936L233.708 384.848C238.877 383.494 241.944 378.318 240.553 373.281L240.5 373.095C239.112 368.062 233.79 365.076 228.616 366.432Z" fill="#FFC0A5"/>
<path fill-rule="evenodd" clip-rule="evenodd" d="M179.6 400.885L156.046 399.517L156.118 399.936C156.345 401.264 155.262 402.458 153.875 402.42C152.819 402.391 151.928 401.645 151.754 400.63L151.521 399.254L148.871 399.098L148.985 399.751C149.209 401.078 148.132 402.27 146.745 402.238C145.68 402.209 144.792 401.457 144.621 400.445L144.346 398.837L129.531 397.976C129.217 397.863 128.915 397.707 128.618 397.516C128.041 397.394 127.458 397.25 126.887 397.05C120.071 394.665 116.542 387.389 119.009 380.799C121.474 374.206 129.001 370.797 135.817 373.182C135.868 373.197 135.916 373.223 135.961 373.24C135.987 373.246 136.011 373.249 136.041 373.257L182.8 389.619C183.542 389.873 184.191 390.324 184.756 390.894C188.575 394.76 185.121 401.203 179.6 400.885Z" fill="white"/>
<path fill-rule="evenodd" clip-rule="evenodd" d="M77.681 366.432L131.487 380.52C136.661 381.874 139.723 387.051 138.332 392.087L138.282 392.274C136.891 397.307 131.569 400.293 126.398 398.936L72.589 384.848C67.417 383.494 64.352 378.318 65.743 373.281L65.793 373.095C67.184 368.062 72.506 365.076 77.681 366.432Z" fill="#FFC0A5"/>
<path fill-rule="evenodd" clip-rule="evenodd" d="M182.803 391.682L136.083 376.105C131.147 374.456 125.694 376.813 123.907 381.365C122.121 385.916 124.646 397.993 129.585 399.643L179.606 402.41C185.119 402.716 188.576 396.578 184.757 392.896C184.192 392.351 183.547 391.927 182.803 391.682Z" fill="#C5CFD6"/>
<path fill-rule="evenodd" clip-rule="evenodd" d="M145.99 396.106C144.639 396.076 143.588 397.111 143.806 398.254L144.607 402.451C144.776 403.327 145.647 403.974 146.675 403.999C148.026 404.029 149.08 402.999 148.859 401.851L148.055 397.657C147.889 396.781 147.021 396.131 145.99 396.106Z" fill="white"/>
<path fill-rule="evenodd" clip-rule="evenodd" d="M151.1 396.106C149.748 396.074 148.699 397.109 148.918 398.253L149.719 402.451C149.888 403.326 150.756 403.977 151.788 403.999C153.14 404.032 154.192 402.999 153.97 401.853L153.169 397.655C153 396.779 152.132 396.131 151.1 396.106Z" fill="white"/>
<path fill-rule="evenodd" clip-rule="evenodd" d="M160.347 194C143.25 194 128.445 210.178 128.445 210.178C149.748 221.882 164.736 213.287 169.895 209.498C171.395 208.4 174.445 206.084 174.445 203.041L160.347 194Z" fill="#191847"/>
</g>
<path fill-rule="evenodd" clip-rule="evenodd" d="M383.367 304.696C393.031 337.71 400.652 378.577 400.652 378.577L417.376 377.631L410.922 298.81C410.922 298.81 424.428 295.073 431.731 286.096C439.034 277.117 418.912 262.415 418.912 262.415C418.912 262.415 371.06 262.65 383.367 304.696Z" fill="#FFC0A5"/>
<path fill-rule="evenodd" clip-rule="evenodd" d="M403.385 378.577C403.385 378.577 383.964 386.594 373.313 389.488C362.661 392.381 368.632 396.952 379.666 399.351C390.702 401.749 417.029 403.883 420.97 399.601C424.912 395.32 418.034 380.782 418.034 380.782L403.385 378.577Z" fill="#FFB363"/>
<path fill-rule="evenodd" clip-rule="evenodd" d="M428.377 138.695C428.377 138.695 436.824 167.857 446.605 174.363C452.217 178.096 458.05 174.368 462.254 170.64C465.375 167.871 467.599 165.103 468.167 165.389C469.501 166.062 474.421 171.516 474.421 171.516C474.421 171.516 497.511 165.838 493.509 163.819C489.508 161.8 480.838 153.052 480.838 153.052C484.618 134.657 472.836 124.562 460.165 120.749C459.144 120.442 458.083 120.3 456.991 120.301C444.538 120.303 428.377 138.695 428.377 138.695Z" fill="#FFC0A5"/>
<path fill-rule="evenodd" clip-rule="evenodd" d="M378.223 301.735C361.248 331.647 345.451 363.549 345.451 363.549L358.045 374.87L398.563 315.571C398.563 315.571 409.681 300.902 421.369 299.881C433.058 298.86 418.448 266.156 418.448 266.156C418.448 266.156 418.195 266.122 417.713 266.122C414.066 266.122 397.319 268.083 378.223 301.735Z" fill="#FECFBB"/>
<path fill-rule="evenodd" clip-rule="evenodd" d="M343.11 368.595C343.11 368.595 322.213 365.891 311.447 363.139C300.682 360.386 303.848 367.162 312.502 374.574C321.157 381.985 346.946 397.443 352.416 395.749C357.887 394.055 356.409 377.962 356.409 377.962L343.11 368.595Z" fill="#FFB363"/>
<path fill-rule="evenodd" clip-rule="evenodd" d="M357.685 190.74H304.749C303.987 190.74 303.369 190.12 303.369 189.355V179.767C303.369 179.002 303.987 178.382 304.749 178.382H357.685C358.448 178.382 359.066 179.002 359.066 179.767V189.355C359.066 190.12 358.448 190.74 357.685 190.74Z" fill="#1F28CF"/>
<path fill-rule="evenodd" clip-rule="evenodd" d="M296.086 190.74C295.323 190.74 294.705 191.359 294.705 192.125V201.713C294.705 202.477 295.323 203.098 296.086 203.098H349.021C349.784 203.098 350.402 202.477 350.402 201.713V192.125C350.402 191.359 349.784 190.74 349.021 190.74H296.086Z" fill="#4B53F3"/>
<path fill-rule="evenodd" clip-rule="evenodd" d="M308.462 203.098C307.7 203.098 307.082 203.718 307.082 204.483V214.07C307.082 214.836 307.7 215.455 308.462 215.455H361.398C362.161 215.455 362.779 214.836 362.779 214.07V204.483C362.779 203.718 362.161 203.098 361.398 203.098H308.462Z" fill="#1F28CF"/>
<path fill-rule="evenodd" clip-rule="evenodd" d="M356.447 227.813H303.511C302.748 227.813 302.131 227.193 302.131 226.428V216.84C302.131 216.076 302.748 215.455 303.511 215.455H356.447C357.21 215.455 357.828 216.076 357.828 216.84V226.428C357.828 227.193 357.21 227.813 356.447 227.813Z" fill="#4B53F3"/>
<path fill-rule="evenodd" clip-rule="evenodd" d="M453.727 233.992H297.823C296.101 233.992 294.705 232.609 294.705 230.902C294.705 229.196 296.101 227.813 297.823 227.813H453.727C455.449 227.813 456.844 229.196 456.844 230.902C456.844 232.609 455.449 233.992 453.727 233.992Z" fill="#191847"/>
<path fill-rule="evenodd" clip-rule="evenodd" d="M266.76 142.545C265.726 142.573 265.009 143.421 265 144.335V144.367C265.003 144.698 265.099 145.037 265.307 145.348L318.243 224.377C319.684 226.529 322.092 227.813 324.686 227.813H404.45L404.804 225.717C405.217 223.273 403.328 221.046 400.844 221.046H322.529C321.188 221.046 319.935 220.378 319.19 219.267L268.312 143.345C267.977 142.844 267.412 142.545 266.81 142.545C266.794 142.545 266.777 142.545 266.76 142.545Z" fill="#9FB9CB"/>
<path fill-rule="evenodd" clip-rule="evenodd" d="M399.793 177.366L377.969 195.788C377.557 196.135 377.516 196.763 377.876 197.164L393.164 214.149C393.33 214.332 393.559 214.442 393.803 214.457L432.333 216.689C433.161 216.738 433.639 215.752 433.097 215.114L401.102 177.476C400.917 177.258 400.655 177.146 400.392 177.146C400.181 177.146 399.968 177.219 399.793 177.366Z" fill="#1F28CF"/>
<path fill-rule="evenodd" clip-rule="evenodd" d="M420.057 260.957C418.454 261.097 417.227 262.45 417.238 264.07C417.283 270.502 417.683 286.723 420.405 302.087C420.663 303.539 421.893 304.616 423.359 304.659C481.425 306.375 517.198 307.299 527.937 295.33C529.606 293.47 531.619 292 530.989 289.577C528.796 281.166 521.541 263.036 477.073 256.236L420.057 260.957Z" fill="#DA2621"/>
<path fill-rule="evenodd" clip-rule="evenodd" d="M408.805 211.639C408.805 211.639 403.618 214.933 396.546 212.917C389.474 210.9 397.489 219.119 400.947 219.429C400.947 219.429 400.947 222.53 402.833 223.772C402.833 223.772 405.033 229.354 408.962 229.509C412.892 229.664 420.121 228.268 420.121 228.268L427.351 230.285L429.614 216.04C429.565 216.179 422.793 214.019 422.793 214.019C422.793 214.019 414.747 205.487 404.562 204.388C404.222 204.351 403.926 204.333 403.67 204.333C399.295 204.333 406.576 209.44 408.805 211.639Z" fill="#FECFBB"/>
<path fill-rule="evenodd" clip-rule="evenodd" d="M398.672 370.919L415.641 367.455L417.237 380.884C417.237 380.884 404.954 384.521 399.674 380.072L398.672 370.919Z" fill="#E6E7E8"/>
<path fill-rule="evenodd" clip-rule="evenodd" d="M348.988 356.333L364.017 366.575L357.48 378.577C357.48 378.577 343.214 372.475 341.738 367.89L348.988 356.333Z" fill="#E6E7E8"/>
<path fill-rule="evenodd" clip-rule="evenodd" d="M534.685 307.878L567 238.661V226.577L528.865 300.008C527.841 301.998 525.781 303.248 523.533 303.248H452.422C449.266 303.248 446.709 305.789 446.709 308.923C446.709 312.056 449.266 314.596 452.422 314.596H486.562V400.266H448.002C446.232 400.266 444.651 401.551 444.483 403.302C444.29 405.31 445.875 407 447.856 407H530.854C532.624 407 534.205 405.715 534.373 403.964C534.565 401.956 532.981 400.266 530.999 400.266H492.294V314.596H524.093C528.639 314.596 532.773 311.975 534.685 307.878Z" fill="#191847"/>
<path fill-rule="evenodd" clip-rule="evenodd" d="M307.082 233.992L461.198 406.184C461.663 406.703 462.325 407 463.02 407H465.353C466.548 407 467.186 405.586 466.399 404.683L317.706 233.992H307.082Z" fill="#191847"/>
<path fill-rule="evenodd" clip-rule="evenodd" d="M443.23 233.992L289.114 406.184C288.649 406.703 287.988 407 287.293 407H284.96C283.765 407 283.127 405.586 283.913 404.683L432.607 233.992H443.23Z" fill="#191847"/>
<path fill-rule="evenodd" clip-rule="evenodd" d="M402.583 189.504L391.246 198.152L397.394 204.333L408.574 195.959L402.583 189.504Z" fill="#D1D3D4"/>
<path opacity="0.0998641" fill-rule="evenodd" clip-rule="evenodd" d="M417.238 263.885C417.282 270.265 417.683 286.353 420.407 301.592C420.664 303.032 421.896 304.1 423.362 304.143C426.763 304.243 430.08 304.339 433.328 304.431C431.35 286.562 429.989 259.943 429.989 259.943L420.059 260.799C418.455 260.937 417.227 262.279 417.238 263.885Z" fill="#231F20"/>
<path fill-rule="evenodd" clip-rule="evenodd" d="M469.221 165.939C470.576 166.627 475.576 172.203 475.576 172.203C475.576 172.203 478.997 171.357 483 170.196L487.786 167.555L476.449 157.374L469.221 165.939Z" fill="#FECFBB"/>
<path opacity="0.0998641" fill-rule="evenodd" clip-rule="evenodd" d="M526.726 294.256C528.38 292.426 530.376 290.979 529.751 288.594C528.57 284.097 525.905 276.778 516.655 269.957C508.976 268.418 503.779 281.198 489.104 285.715C474.341 290.258 462.934 276.866 449.945 281.65C439.093 285.647 423.359 288.638 418.475 289.515C418.677 291.32 418.906 293.152 419.165 294.991L419.912 300.85C420.109 302.396 421.469 303.469 423.028 303.439H423.032C480.607 305.128 516.076 306.037 526.726 294.256Z" fill="#231F20"/>
<path fill-rule="evenodd" clip-rule="evenodd" d="M481.122 152.367L473.823 149.161C473.425 148.985 473.271 148.51 473.492 148.14C474.999 145.614 479.603 136.762 473.061 132.417C465.746 127.557 460.276 134.977 463.878 141.539C464.136 142.009 463.822 142.585 463.279 142.607C460.196 142.731 451.9 142.208 446.904 133.737C446.655 133.314 446.064 133.264 445.728 133.624C437.269 142.706 424.412 144.707 416.821 142.315C416.215 142.124 416.124 141.31 416.679 141.004C421.35 138.433 422.778 135.326 423.205 133.886C423.33 133.466 423.036 133.033 422.594 132.979C418.357 132.47 414.053 132.612 411.829 132.745C411.207 132.783 410.824 132.094 411.193 131.602C416.545 124.439 444.916 89.773 480.063 108.467C494.791 116.794 491.877 139.848 482 152.16C481.792 152.419 481.428 152.502 481.122 152.367Z" fill="#191847"/>
<path opacity="0.0998641" fill-rule="evenodd" clip-rule="evenodd" d="M481.941 152.16C491.888 139.847 494.822 116.793 479.99 108.465C469.961 103.168 460.48 102.158 451.919 103.589L433.916 110.423C432.866 111.047 431.844 111.693 430.852 112.357C440.582 110.801 465.944 108.154 477.962 120.219C484.593 126.876 481.3 138.755 475.543 149.961L481.057 152.367C481.365 152.502 481.731 152.419 481.941 152.16Z" fill="#231F20"/>
<path fill-rule="evenodd" clip-rule="evenodd" d="M482.378 164.225C460.846 173.858 474.391 218.544 477.779 224.564C481.166 230.584 483.828 249.726 477.779 256.228C477.779 256.228 520.883 268.737 531.618 291.669C531.904 292.281 532.814 292.173 532.959 291.514C535.477 280.082 545.718 225.441 521.792 184.568C521.792 184.568 508.517 162.32 491.073 162.317C488.269 162.317 485.36 162.891 482.378 164.225Z" fill="#69A1AC"/>
<path fill-rule="evenodd" clip-rule="evenodd" d="M475.643 180.699C475.643 180.699 473.808 217.216 465.511 220.109C457.984 222.732 435.556 214.881 431.454 213.4C431.082 213.265 430.673 213.441 430.514 213.803C429.574 215.965 426.713 223.33 427.192 231.947C427.207 232.225 427.379 232.477 427.63 232.596C449.546 242.899 472.073 243.878 472.073 243.878C488.333 239.178 506.352 198.725 506.352 198.725C506.352 198.725 504.809 178.383 487.127 178.382C483.874 178.382 480.078 179.07 475.643 180.699Z" fill="#89C5CC"/>
<path opacity="0.0998641" fill-rule="evenodd" clip-rule="evenodd" d="M520.825 185.162C520.825 185.162 510.048 166.881 495.213 163.553C496.39 165.951 505.709 170.703 512.904 184.174C524.25 205.418 533.585 239.276 511.707 272.155L521.325 279.62C525.207 283.24 528.44 287.261 530.479 291.671C530.761 292.28 531.655 292.172 531.797 291.516C534.271 280.148 544.333 225.81 520.825 185.162Z" fill="#231F20"/>
<defs>
<filter id="filter0_d" x="41.9996" y="176" width="223.021" height="250" filterUnits="userSpaceOnUse" color-interpolation-filters="sRGB">
<feFlood flood-opacity="0" result="BackgroundImageFix"/>
<feColorMatrix in="SourceAlpha" type="matrix" values="0 0 0 0 0 0 0 0 0 0 0 0 0 0 0 0 0 0 127 0"/>
<feOffset dy="2"/>
<feGaussianBlur stdDeviation="10"/>
<feColorMatrix type="matrix" values="0 0 0 0 0 0 0 0 0 0 0 0 0 0 0 0 0 0 0.1 0"/>
<feBlend mode="normal" in2="BackgroundImageFix" result="effect1_dropShadow"/>
<feBlend mode="normal" in="SourceGraphic" in2="effect1_dropShadow" result="shape"/>
</filter>
</defs>
</svg>
