<svg xmlns="http://www.w3.org/2000/svg" fill="none" viewBox="0 0 589 426"><g fill-rule="evenodd" clip-rule="evenodd"><path fill="#2143AF" d="M129 363c-3 0-6-1-7-3l-31-39c-2-3-2-7 0-10l40-45c4-3 9-4 13-1s4 8 1 12l-36 40 27 33c3 4 2 9-2 11l-5 2zM187 363l-5-2c-4-2-5-7-2-11l27-34-36-39c-3-4-2-9 2-12 3-3 9-2 12 1l40 45c3 3 3 7 1 10l-31 39c-2 2-5 3-8 3z"/><path fill="#191847" d="M185 218c0 13-12 23-26 23s-25-10-25-23 11-24 25-24 26 11 26 24z"/><path fill="#FFC0A5" d="M166 247v37h-17l1-36v-10l16 9z"/><path fill="#2143AF" d="M131 281c0-7 6-14 13-17 10-4 26-1 31 2 8 4 13 13 12 23l1 50h-60l3-58z"/><path fill="#FFC0A5" d="M173 265c-8-3-19-4-28-1l7 6c4 4 11 4 15 0l6-5zM164 205h-10c-8 0-16 7-15 14v19c0 7 9 21 16 21h8c7 0 16-14 16-21v-19c2-7-6-14-15-14z"/><path fill="#FFFEFF" d="M151 246c0 3 3 5 7 5s7-2 8-5h-15z"/><path fill="#566CD3" d="M168 390h-18c-14 0-24-12-21-24l1-25h58l1 25c3 12-7 24-21 24z"/><path fill="#566CD3" d="M73 362l82-7 2 23-82 7c-6 1-12-4-13-10-1-7 4-12 11-13z"/><path fill="#566CD3" d="M234 362l-82-7-2 22 82 7c6 1 12-4 13-10s-4-11-11-12z"/><path fill="#fff" d="M191 376h-63c-4 0-6-3-6-6v-38c0-3 2-5 6-5h63c3 0 6 2 6 5v38c0 3-3 6-6 6z"/><path fill="#EA3663" d="M191 379h-63c-4 0-6-3-6-6v-38c0-3 2-5 6-5h63c3 0 6 2 6 5v38c0 3-3 6-6 6z"/><path fill="#fff" d="M167 358h-17c-3 0-5-2-5-4s2-4 5-4h17c2 0 4 2 4 4s-2 4-4 4zM127 401l23-1 2 2 3-1v-2h2v1c0 1 1 2 3 2l2-2v-1l15-1h1l1-1c7-2 11-10 8-16-2-7-10-10-17-8l-47 17-1 1c-4 4-1 10 5 10z"/><path fill="#F7B75D" d="M165 391c-2-6 1-12 8-15 6-2 14 1 16 7 2 7-1 13-8 16-6 2-14-1-16-8z"/><path fill="#C5CFD6" d="M123 392l47-16c5-2 11 1 12 5 2 5 0 17-5 19l-50 2c-6 1-9-5-5-9l1-1z"/><path fill="#fff" d="M162 396l2 2-1 4-2 2-2-2 1-4 2-2zM153 396c2 0 3 1 3 2l-1 4-2 2c-2 0-3-1-2-2v-4l2-2z"/><path fill="#FFC0A5" d="M229 366l-54 15c-5 1-8 6-7 11s7 8 12 7l54-14c5-2 8-7 7-12-2-5-7-8-12-7z"/><path fill="#fff" d="M180 401l-24-1-2 2-2-1v-2h-3v1l-2 2-2-2-1-1-14-1h-1l-2-1c-7-2-10-10-8-16 2-7 10-10 17-8l47 17 2 1c4 4 0 10-5 10z"/><path fill="#FFC0A5" d="M78 366l53 15c6 1 9 6 7 11-1 5-6 8-12 7l-53-14c-6-2-9-7-7-12 1-5 7-8 12-7z"/><path fill="#C5CFD6" d="M183 392l-47-16c-5-2-10 1-12 5-2 5 1 17 6 19l50 2c5 1 9-5 5-9l-2-1z"/><path fill="#fff" d="M146 396l-2 2 1 4 2 2 2-2-1-4-2-2zM151 396l-2 2 1 4 2 2 2-2-1-4-2-2z"/><path fill="#191847" d="M160 194c-17 0-32 16-32 16 22 12 37 3 42-1 1-1 4-3 4-6l-14-9z"/></g><path fill="#FFC0A5" fill-rule="evenodd" d="M383 305c10 33 18 74 18 74l16-1-6-79s13-4 21-13c7-9-13-24-13-24s-48 1-36 43z" clip-rule="evenodd"/><path fill="#FFB363" fill-rule="evenodd" d="M403 379s-19 8-30 10c-10 3-4 8 7 10 11 3 37 5 41 1 4-5-3-19-3-19l-15-2z" clip-rule="evenodd"/><path fill="#FFC0A5" fill-rule="evenodd" d="M428 139s9 29 19 35c5 4 11 0 15-3l6-6 6 7s24-6 20-8-13-11-13-11c4-18-8-28-21-32l-3-1c-12 0-29 19-29 19z" clip-rule="evenodd"/><path fill="#FECFBB" fill-rule="evenodd" d="M378 302l-33 62 13 11 41-59s11-15 22-16c12-1-3-34-3-34-4 0-21 2-40 36z" clip-rule="evenodd"/><path fill="#FFB363" fill-rule="evenodd" d="M343 369l-32-6c-10-3-7 4 2 12 8 7 34 22 39 21 6-2 4-18 4-18l-13-9z" clip-rule="evenodd"/><path fill="#1F28CF" fill-rule="evenodd" d="M358 191h-53l-2-2v-9l2-2h53l1 2v9l-1 2z" clip-rule="evenodd"/><path fill="#4B53F3" fill-rule="evenodd" d="M296 191l-1 1v10l1 1h53l1-1v-10l-1-1h-53z" clip-rule="evenodd"/><path fill="#1F28CF" fill-rule="evenodd" d="M308 203l-1 1v10l1 1h53l2-1v-10l-2-1h-53z" clip-rule="evenodd"/><path fill="#4B53F3" fill-rule="evenodd" d="M356 228h-52l-2-2v-9l2-2h52l2 2v9l-2 2z" clip-rule="evenodd"/><path fill="#191847" fill-rule="evenodd" d="M454 234H298c-2 0-3-1-3-3s1-3 3-3h156c1 0 3 1 3 3s-2 3-3 3z" clip-rule="evenodd"/><path fill="#9FB9CB" fill-rule="evenodd" d="M267 143l-2 1v1l53 79c2 3 4 4 7 4h79l1-2c0-3-2-5-4-5h-78l-4-2-51-76h-1z" clip-rule="evenodd"/><path fill="#1F28CF" fill-rule="evenodd" d="M400 177l-22 19v1l15 17h1l38 3c1 0 2-1 1-2l-32-38a1 1 0 0 0-1 0z" clip-rule="evenodd"/><path fill="#DA2621" fill-rule="evenodd" d="M420 261c-2 0-3 1-3 3l3 38 3 3c58 1 94 2 105-10 2-2 4-3 3-5-2-9-9-27-54-34l-57 5z" clip-rule="evenodd"/><path fill="#FECFBB" fill-rule="evenodd" d="M409 212s-5 3-12 1c-8-2 0 6 4 6 0 0 0 4 2 5 0 0 2 5 6 6l11-2 7 2 3-14-7-2s-8-9-18-10h-1c-5 0 3 5 5 8z" clip-rule="evenodd"/><path fill="#E6E7E8" fill-rule="evenodd" d="M399 371l17-4 1 14s-12 4-17-1l-1-9zM349 356l15 11-7 12s-14-7-15-11l7-12z" clip-rule="evenodd"/><path fill="#191847" fill-rule="evenodd" d="M535 308l32-69v-12l-38 73c-1 2-3 3-5 3h-72c-3 0-5 3-5 6s2 6 5 6h35v85h-39c-2 0-3 2-4 3 0 2 2 4 4 4h83c2 0 3-1 3-3 1-2-1-4-3-4h-39v-85h32c5 0 9-3 11-7z" clip-rule="evenodd"/><path fill="#191847" fill-rule="evenodd" d="M307 234l154 172 2 1h2c2 0 2-1 1-2L318 234h-11z" clip-rule="evenodd"/><path fill="#191847" fill-rule="evenodd" d="M443 234L289 406l-2 1h-2c-1 0-2-1-1-2l149-171h10z" clip-rule="evenodd"/><path fill="#D1D3D4" fill-rule="evenodd" d="M403 190l-12 8 6 6 12-8-6-6z" clip-rule="evenodd"/><path fill="#FECFBB" fill-rule="evenodd" d="M469 166l7 6 7-2 5-2-12-11-7 9z" clip-rule="evenodd"/><path fill="#191847" fill-rule="evenodd" d="M481 152l-7-3-1-1c2-2 7-11 0-16-7-4-13 3-9 10l-1 1c-3 0-11-1-16-9h-1c-9 9-22 11-29 8v-1c4-3 6-6 6-7v-1h-11l-1-1c6-8 34-42 69-24 15 9 12 32 2 44h-1z" clip-rule="evenodd"/><path fill="#69A1AC" fill-rule="evenodd" d="M482 164c-21 10-8 55-4 61 3 6 6 25 0 31 0 0 43 13 54 36h1c2-12 13-67-11-107 0 0-13-23-31-23l-9 2z" clip-rule="evenodd"/><path fill="#89C5CC" fill-rule="evenodd" d="M476 181s-2 36-10 39-30-5-35-7v1c-1 2-4 9-4 18l1 1c22 10 44 11 44 11 16-5 34-45 34-45s-1-21-19-21l-11 3z" clip-rule="evenodd"/></svg>