<svg width="589" height="443" viewBox="0 0 589 443" fill="none" xmlns="http://www.w3.org/2000/svg">
<path opacity="0.426121" fill-rule="evenodd" clip-rule="evenodd" d="M380.221 43.221C226.305 -28.551 64.562 -7.4519 18.957 90.347C-26.6473 188.147 0.395676 500.012 215.073 397.384C429.75 294.755 530.732 448.057 576.337 350.258C621.941 252.458 534.137 114.993 380.221 43.221Z" fill="#B7C6E0"/>
<g filter="url(#filter0_d)">
<path fill-rule="evenodd" clip-rule="evenodd" d="M274.865 124.464C350.932 119.3 386.218 157.845 405.76 209.531C425.3 261.217 454.244 279.004 434.259 338.492C414.273 397.979 342.087 405.849 313.882 398.893C285.675 391.939 256.41 373.919 221.284 360.385C169.033 340.255 156.122 313.768 155.079 287.671C153.606 250.756 173.092 246.632 179.357 206.163C186.864 157.672 215.361 128.503 274.865 124.464Z" fill="#F8F8FB"/>
</g>
<path d="M241 242.933C237.212 245.501 232.646 247 227.732 247C214.626 247 204 236.338 204 223.186C204 211.912 211.807 202.468 222.293 200" stroke="#212D5F" stroke-width="2"/>
<path d="M233 200C243.822 202.134 252 211.913 252 223.654C252 228.59 250.555 233.18 248.076 237" stroke="#212D5F" stroke-width="2"/>
<path d="M274 248V213H333V248V240.841L320.035 227.583L303.5 238.455L287.493 227.583L274.441 240.408" stroke="#212D5F" stroke-width="2"/>
<path d="M353 234H398.837L413 249.505V303H353V243.045" stroke="#212D5F" stroke-width="2"/>
<path d="M366 252H380" stroke="#212D5F" stroke-width="2"/>
<path d="M366 266H398" stroke="#212D5F" stroke-width="2"/>
<path d="M366 275H398" stroke="#212D5F" stroke-width="2"/>
<path d="M366 285H398" stroke="#212D5F" stroke-width="2"/>
<path d="M396 234V251" stroke="#212D5F" stroke-width="2"/>
<path d="M396 251H413" stroke="#212D5F" stroke-width="2"/>
<path d="M274 271V306.938L295.573 322H311.519L334 307.202V271" stroke="#212D5F" stroke-width="2"/>
<path d="M303 313V322" stroke="#212D5F" stroke-width="2"/>
<path d="M298 303H308" stroke="#212D5F" stroke-width="2"/>
<path d="M313 220H327" stroke="#212D5F" stroke-width="2"/>
<path d="M228 208V223.466L238 234" stroke="#E91D50" stroke-width="2"/>
<path d="M334 304C343.024 305.883 351.441 311.408 356.049 317.894C357.2 319.515 358.18 321.229 359 323" stroke="#212D5F" stroke-width="2"/>
<path d="M274 304C264.976 305.883 256.559 311.408 251.951 317.894C250.8 319.515 249.821 321.229 249 323" stroke="#212D5F" stroke-width="2"/>
<path d="M263 269C265.489 277.678 271.393 285.488 277.917 289.501C279.548 290.505 281.252 291.332 283 292" stroke="#212D5F" stroke-width="2"/>
<path d="M223 255C215.185 253.399 207.833 249.175 203 244" stroke="#212D5F" stroke-width="2"/>
<path d="M315 293.039C312.65 295.403 308.165 297 303.019 297C297.844 297 293.339 295.385 291 293" stroke="#212D5F" stroke-width="2"/>
<path fill-rule="evenodd" clip-rule="evenodd" d="M333.236 261C334.88 261 336.151 262.449 335.985 264.109C335.122 272.782 329.529 278.571 322.48 278.981C314.496 279.444 308 271.38 308 261H333.236Z" stroke="#212D5F" stroke-width="3"/>
<path fill-rule="evenodd" clip-rule="evenodd" d="M273.765 261C272.12 261 270.849 262.449 271.015 264.109C271.878 272.782 277.471 278.571 284.521 278.981C292.505 279.444 299 271.38 299 261H273.765Z" stroke="#212D5F" stroke-width="3"/>
<path d="M334 261H274" stroke="#212D5F" stroke-width="3"/>
<path d="M328 267L327.57 267.82C326.534 269.8 324.63 271.285 322.332 271.91L322 272" stroke="#212D5F" stroke-width="2"/>
<path d="M291 267L290.571 267.82C289.534 269.8 287.631 271.285 285.332 271.91L285 272" stroke="#212D5F" stroke-width="2"/>
<path fill-rule="evenodd" clip-rule="evenodd" d="M261 267.467C259.638 267.467 258.534 266.362 258.534 265C258.534 263.638 259.638 262.533 261 262.533C262.363 262.533 263.466 263.638 263.466 265C263.466 266.362 262.363 267.467 261 267.467ZM261 258C257.134 258 254 261.135 254 265C254 268.865 257.134 272 261 272C264.867 272 268 268.865 268 265C268 261.135 264.867 258 261 258Z" fill="#E91D50"/>
<path fill-rule="evenodd" clip-rule="evenodd" d="M386 326L385.999 319.001L379 319V325.961L386 326Z" stroke="#212D5F" stroke-width="2"/>
<path fill-rule="evenodd" clip-rule="evenodd" d="M189.643 267L184 272.416L189.384 278L195 272.612L189.643 267Z" fill="#E91D50"/>
<path fill-rule="evenodd" clip-rule="evenodd" d="M204.644 267L199 272.416L204.385 278L210 272.612L204.644 267Z" fill="#E91D50"/>
<path d="M204 314L211.061 285.651L224.075 278L243.183 282.858L251 295.803L235.892 309.103" stroke="#212D5F" stroke-width="2"/>
<path d="M240 296L233.115 322.02L224 327" stroke="#212D5F" stroke-width="2"/>
<path d="M235.243 281L252 270.72V265.695L246.306 264L224 278.143" stroke="#212D5F" stroke-width="2"/>
<path d="M238 291L245 287" stroke="#212D5F" stroke-width="2"/>
<path d="M230 290L242 283" stroke="#212D5F" stroke-width="2"/>
<path d="M221 287L232 280" stroke="#212D5F" stroke-width="2"/>
<path fill-rule="evenodd" clip-rule="evenodd" d="M352.989 224L350 219.92L352.989 217C352.989 217 359.001 218.022 360.664 218.089C361.434 218.121 363.165 217 363.165 217L366 220.938C366 220.938 363.86 223.711 362.876 223.752C360.873 223.834 356.906 222.476 355.165 222.578C354.531 222.616 352.989 224 352.989 224Z" fill="#E91D50"/>
<defs>
<filter id="filter0_d" x="115" y="85.9999" width="366" height="357" filterUnits="userSpaceOnUse" color-interpolation-filters="sRGB">
<feFlood flood-opacity="0" result="BackgroundImageFix"/>
<feColorMatrix in="SourceAlpha" type="matrix" values="0 0 0 0 0 0 0 0 0 0 0 0 0 0 0 0 0 0 127 0"/>
<feOffset dy="2"/>
<feGaussianBlur stdDeviation="20"/>
<feColorMatrix type="matrix" values="0 0 0 0 0 0 0 0 0 0 0 0 0 0 0 0 0 0 0.1 0"/>
<feBlend mode="normal" in2="BackgroundImageFix" result="effect1_dropShadow"/>
<feBlend mode="normal" in="SourceGraphic" in2="effect1_dropShadow" result="shape"/>
</filter>
</defs>
</svg>
