<svg width="589" height="443" viewBox="0 0 589 443" fill="none" xmlns="http://www.w3.org/2000/svg">
<path opacity="0.426121" fill-rule="evenodd" clip-rule="evenodd" d="M380.221 43.221C226.305 -28.551 64.562 -7.4519 18.957 90.347C-26.6473 188.147 0.395676 500.012 215.073 397.384C429.75 294.755 530.732 448.057 576.337 350.258C621.941 252.458 534.137 114.993 380.221 43.221Z" fill="#B7C6E0"/>
<g filter="url(#filter0_d)">
<path fill-rule="evenodd" clip-rule="evenodd" d="M274.865 124.464C350.932 119.3 386.218 157.845 405.76 209.531C425.3 261.217 454.244 279.004 434.259 338.492C414.273 397.979 342.087 405.849 313.882 398.893C285.675 391.939 256.41 373.919 221.284 360.385C169.033 340.255 156.122 313.768 155.079 287.671C153.606 250.756 173.092 246.632 179.357 206.163C186.864 157.672 215.361 128.503 274.865 124.464Z" fill="#F8F8FB"/>
</g>
<path fill-rule="evenodd" clip-rule="evenodd" d="M267 211V239H307V211L287 215.793L267 211Z" stroke="#212D5F" stroke-width="2"/>
<path d="M275 220V229" stroke="#212D5F" stroke-width="2"/>
<path d="M267 234H307" stroke="#212D5F" stroke-width="2"/>
<path fill-rule="evenodd" clip-rule="evenodd" d="M255 208H261V202H255V208Z" stroke="#212D5F" stroke-width="2"/>
<path fill-rule="evenodd" clip-rule="evenodd" d="M334.822 310L329 315.806L335.21 322L341 316.226L334.822 310Z" stroke="#212D5F" stroke-width="2"/>
<path fill-rule="evenodd" clip-rule="evenodd" d="M340.912 303L338 305.903L341.105 309L344 306.113L340.912 303Z" fill="#E91D50"/>
<path d="M313.92 325L320 299H255L260.473 325" stroke="#212D5F" stroke-width="2"/>
<path d="M263 285V300H312V285" stroke="#212D5F" stroke-width="2"/>
<path d="M359.504 233.894C347.714 236.08 338.447 246.009 337.292 258.181C336.674 264.694 338.326 270.796 341.549 275.781L338.104 286.366C337.853 287.136 338.611 287.85 339.361 287.551L349.211 283.619C354.189 286.995 360.333 288.767 366.91 288.199C380.068 287.062 390.68 276.332 391.726 263.115C392.843 249.005 383.316 236.915 370.344 234.072" stroke="#212D5F" stroke-width="2"/>
<path d="M261.876 233.666H244.941H244.465" stroke="#212D5F"/>
<path d="M312.504 233.918L330.872 233.666C330.872 249.101 311.53 261.613 287.669 261.613C263.808 261.613 244.465 249.101 244.465 233.666" stroke="#212D5F" stroke-width="2"/>
<path fill-rule="evenodd" clip-rule="evenodd" d="M275.363 299.638V296.636L280.998 293.075H293.448L299.569 296.636V299.638H275.363Z" fill="#212D5F"/>
<path d="M204.715 317.277L209.931 261.613L213.541 259.014L216.616 260.625L216.979 260.823" stroke="#212D5F" stroke-width="2"/>
<path d="M212.871 282.642L215.88 261.613L219.491 259.014L222.567 260.625L222.832 260.785" stroke="#212D5F" stroke-width="2"/>
<path d="M218.672 282.642L221.681 261.613L225.291 259.014L228.367 260.625V264.116L224.505 282.642L224.629 283.313C226.721 281.818 229.297 280.937 232.082 280.937C239.083 280.937 242.372 284.466 244.414 290.488L240.791 292.026" stroke="#212D5F" stroke-width="2"/>
<path d="M224.977 317.941L225.636 311.226C225.636 311.226 229.725 311.565 230.193 311.607C236.317 312.155 242.892 307.866 243.666 302.219L241.332 300.557" stroke="#212D5F" stroke-width="2"/>
<path d="M326.254 254.241C326.254 254.241 323.433 257.108 321.414 258.243C319.186 259.493 316.145 260.872 316.145 260.872" stroke="#212D5F" stroke-width="2"/>
<path d="M240.375 243.746C240.375 243.746 243.236 248.859 244.466 250.365C245.511 251.646 247.995 253.854 249.277 254.896C250.673 256.03 253.707 257.973 255.173 259.014C256.011 259.61 258.742 261.055 258.742 261.055" stroke="#212D5F" stroke-width="2"/>
<path fill-rule="evenodd" clip-rule="evenodd" d="M311.122 274.583C311.122 278.784 307.756 281.737 303.654 282.189C294.79 283.166 290.285 271.455 290.285 271.455L293.489 267.713C293.489 267.713 302.509 267.514 303.639 267.514C307.764 267.514 311.122 270.383 311.122 274.583Z" stroke="#212D5F" stroke-width="3"/>
<path fill-rule="evenodd" clip-rule="evenodd" d="M263.715 274.583C263.715 278.784 267.082 281.737 271.183 282.189C280.048 283.166 284.552 271.455 284.552 271.455L281.348 267.713C281.348 267.713 272.328 267.514 271.198 267.514C267.074 267.514 263.715 270.383 263.715 274.583Z" stroke="#212D5F" stroke-width="3"/>
<path d="M304.127 267.514H271.199" stroke="#212D5F" stroke-width="3"/>
<path fill-rule="evenodd" clip-rule="evenodd" d="M379.181 293.737C379.505 297.16 378.636 300.367 376.944 302.986L378.753 308.548C378.885 308.953 378.487 309.328 378.093 309.171L372.917 307.105C370.301 308.879 367.072 309.81 363.616 309.512C356.701 308.915 351.124 303.275 350.574 296.33C349.87 287.436 357.214 280.069 366.074 280.783C372.939 281.337 378.528 286.854 379.181 293.737Z" fill="#E91D50"/>
<path fill-rule="evenodd" clip-rule="evenodd" d="M379.181 293.737C379.505 297.16 378.636 300.367 376.944 302.986L378.753 308.548C378.885 308.953 378.487 309.328 378.093 309.171L372.917 307.105C370.301 308.879 367.072 309.81 363.616 309.512C356.701 308.915 351.124 303.275 350.574 296.33C349.87 287.436 357.214 280.069 366.074 280.783C372.939 281.337 378.528 286.854 379.181 293.737Z" stroke="#212D5F" stroke-width="2"/>
<path d="M298.77 276.167V272.483C298.77 271.892 298.902 271.309 299.158 270.778L300.702 267.562" stroke="#212D5F" stroke-width="2"/>
<path d="M270.711 276.167V272.483C270.711 271.892 270.844 271.309 271.099 270.778L272.644 267.562" stroke="#212D5F" stroke-width="2"/>
<path d="M238.988 299.321H235.184" stroke="#212D5F"/>
<path fill-rule="evenodd" clip-rule="evenodd" d="M233.638 298.314C233.591 298.432 233.441 298.737 231.848 299.255C230.841 299.583 230.469 299.602 230.144 299.569C229.792 299.533 229.391 299.486 229.178 299.169C228.909 298.767 229.143 298.223 229.178 298.144C229.325 297.816 229.574 297.642 229.719 297.545C229.991 297.36 230.237 297.297 230.74 297.203C232.26 296.916 232.641 296.99 232.814 297.031C233.357 297.162 233.513 297.373 233.553 297.43C233.729 297.688 233.743 298.046 233.638 298.314ZM231.618 285.811C225.907 285.811 221.277 290.458 221.277 296.192C221.277 301.925 225.907 306.573 231.618 306.573C233.501 306.573 235.265 306.065 236.785 305.183L234.915 303.499C233.916 303.951 232.811 304.209 231.644 304.209C227.24 304.209 223.671 300.625 223.671 296.205C223.671 291.786 227.24 288.202 231.644 288.202C236.046 288.202 239.616 291.786 239.616 296.205C239.616 297.312 239.387 298.363 238.982 299.321H235.392C235.402 298.294 235.383 296.743 235.353 294.597C235.337 293.438 234.659 292.796 234.319 292.454C233.362 291.488 231.34 291.405 229.413 291.885C228.683 292.067 227.47 293.889 227.47 293.889C227.47 293.889 228.148 293.757 229.457 293.439C230.7 293.136 232.005 293.191 232.469 293.375C232.682 293.459 233.157 293.792 233.43 294.404C233.52 294.607 233.558 295.756 233.558 295.756C233.047 295.599 231.544 295.315 229.457 295.82C228.58 296.031 228.127 296.513 227.982 296.656C227.354 297.278 227.153 298.004 227.085 298.329C227.016 298.659 226.871 299.357 227.213 300.13C227.564 300.925 228.21 301.301 228.431 301.417C229.198 301.818 229.937 301.719 230.738 301.61C231.63 301.491 231.778 301.301 233.046 300.967C233.283 300.905 233.495 300.858 233.687 300.824V301.712H237.418C237.412 301.719 237.406 301.726 237.4 301.733H240.361C241.372 300.129 241.959 298.23 241.959 296.192C241.959 290.458 237.33 285.811 231.618 285.811Z" fill="#E91D50"/>
<path fill-rule="evenodd" clip-rule="evenodd" d="M353.273 260.709C352.87 260.709 352.542 260.38 352.542 259.975C352.542 259.57 352.87 259.243 353.273 259.243C353.676 259.243 354.003 259.57 354.003 259.975C354.003 260.38 353.676 260.709 353.273 260.709ZM353.273 256.093C351.17 256.093 349.465 257.803 349.465 259.915C349.465 262.026 351.17 263.738 353.273 263.738C355.376 263.738 357.081 262.026 357.081 259.915C357.081 257.803 355.376 256.093 353.273 256.093Z" fill="#E91D50"/>
<path fill-rule="evenodd" clip-rule="evenodd" d="M364.487 260.709C364.084 260.709 363.757 260.38 363.757 259.975C363.757 259.57 364.084 259.243 364.487 259.243C364.89 259.243 365.218 259.57 365.218 259.975C365.218 260.38 364.89 260.709 364.487 260.709ZM364.487 256.093C362.384 256.093 360.68 257.803 360.68 259.915C360.68 262.026 362.384 263.738 364.487 263.738C366.591 263.738 368.295 262.026 368.295 259.915C368.295 257.803 366.591 256.093 364.487 256.093Z" fill="#E91D50"/>
<path fill-rule="evenodd" clip-rule="evenodd" d="M375.441 260.709C375.038 260.709 374.71 260.38 374.71 259.975C374.71 259.57 375.038 259.243 375.441 259.243C375.844 259.243 376.171 259.57 376.171 259.975C376.171 260.38 375.844 260.709 375.441 260.709ZM375.441 256.093C373.337 256.093 371.633 257.803 371.633 259.915C371.633 262.026 373.337 263.738 375.441 263.738C377.544 263.738 379.249 262.026 379.249 259.915C379.249 257.803 377.544 256.093 375.441 256.093Z" fill="#E91D50"/>
<defs>
<filter id="filter0_d" x="115" y="85.9999" width="366" height="357" filterUnits="userSpaceOnUse" color-interpolation-filters="sRGB">
<feFlood flood-opacity="0" result="BackgroundImageFix"/>
<feColorMatrix in="SourceAlpha" type="matrix" values="0 0 0 0 0 0 0 0 0 0 0 0 0 0 0 0 0 0 127 0"/>
<feOffset dy="2"/>
<feGaussianBlur stdDeviation="20"/>
<feColorMatrix type="matrix" values="0 0 0 0 0 0 0 0 0 0 0 0 0 0 0 0 0 0 0.1 0"/>
<feBlend mode="normal" in2="BackgroundImageFix" result="effect1_dropShadow"/>
<feBlend mode="normal" in="SourceGraphic" in2="effect1_dropShadow" result="shape"/>
</filter>
</defs>
</svg>
