<svg width="589" height="443" viewBox="0 0 589 443" fill="none" xmlns="http://www.w3.org/2000/svg">
<path opacity="0.426121" fill-rule="evenodd" clip-rule="evenodd" d="M380.221 43.221C226.305 -28.551 64.562 -7.4519 18.957 90.347C-26.6473 188.147 0.395676 500.012 215.073 397.384C429.75 294.755 530.732 448.057 576.337 350.258C621.941 252.458 534.137 114.993 380.221 43.221Z" fill="#B7C6E0"/>
<g filter="url(#filter0_d)">
<path fill-rule="evenodd" clip-rule="evenodd" d="M274.865 124.464C350.932 119.3 386.218 157.845 405.76 209.531C425.3 261.217 454.244 279.004 434.259 338.492C414.273 397.979 342.087 405.849 313.882 398.893C285.675 391.939 256.41 373.919 221.284 360.385C169.033 340.255 156.122 313.768 155.079 287.671C153.606 250.756 173.092 246.632 179.357 206.163C186.864 157.672 215.361 128.503 274.865 124.464Z" fill="#F8F8FB"/>
</g>
<path d="M301 322H295.668L279.033 310.705V290.793L259.199 270L247.256 280.868L265.384 301.115H240.431L226.568 289.393L214.411 286.196L211 287.476" stroke="#212D5F" stroke-width="2"/>
<path d="M302 322H307.353L324.052 310.705V291.651L343.963 270L357.245 281.413L339.451 301.115H364.445L388 287.762" stroke="#212D5F" stroke-width="2"/>
<path d="M260 270L252.601 262.059L249.313 247L236 249.724L236.822 255.011L245.534 252.768" stroke="#212D5F" stroke-width="2"/>
<path d="M248 281L241.092 273.484L226.684 265.217L217.295 254.406L216 250.749L218.104 249L221.342 250.272L230.408 260.925L233.969 257.745L227.17 250.431L224.176 253.18" stroke="#212D5F" stroke-width="2"/>
<path d="M241 248.97L231.326 238.368L228.337 237L226 239L227.195 241.526L236.78 251.105L237.603 255.348L235.456 257L228.554 249.631L231.869 246.684" stroke="#212D5F" stroke-width="2"/>
<path fill-rule="evenodd" clip-rule="evenodd" d="M279.557 279L266.313 265.625L272.32 261.668L264 247.028H272.88L272.284 239.013H284.746V231.916L294.303 235.328L301.782 224L309.458 235.328L319.154 231.916V239.12H333.217L331.851 247.028H341L332.807 261.804L338.405 265.762L324.478 279V270.811L314.375 261.804H289.934L279.656 270.951L279.557 279Z" stroke="#212D5F" stroke-width="2"/>
<path fill-rule="evenodd" clip-rule="evenodd" d="M319 284C319 286.762 316.761 289 314 289C311.239 289 309 286.762 309 284C309 281.238 311.239 279 314 279C316.761 279 319 281.238 319 284Z" stroke="#212D5F" stroke-width="2"/>
<path fill-rule="evenodd" clip-rule="evenodd" d="M313.5 286C315.498 286 315.502 283 313.5 283C311.502 283 311.498 286 313.5 286Z" fill="#212D5F"/>
<path fill-rule="evenodd" clip-rule="evenodd" d="M294 284C294 286.762 291.761 289 289 289C286.239 289 284 286.762 284 284C284 281.238 286.239 279 289 279C291.761 279 294 281.238 294 284Z" stroke="#212D5F" stroke-width="2"/>
<path fill-rule="evenodd" clip-rule="evenodd" d="M289.5 286C291.498 286 291.502 283 289.5 283C287.502 283 287.498 286 289.5 286Z" fill="#212D5F"/>
<path d="M308 277C308 273.687 310.687 271 314 271C317.313 271 320 273.687 320 277" stroke="#212D5F" stroke-width="2"/>
<path d="M308 305C308 308.313 305.313 311 302 311C298.687 311 296 308.313 296 305" stroke="#E91D50" stroke-width="2"/>
<path d="M396 321C396 323.21 394.209 325 392 325C389.791 325 388 323.21 388 321" stroke="#212D5F" stroke-width="2"/>
<path d="M283 279H296" stroke="#212D5F" stroke-width="2"/>
<path d="M293 305H312" stroke="#212D5F" stroke-width="2"/>
<path d="M324 302H364" stroke="#212D5F" stroke-width="2"/>
<path d="M241 302H280" stroke="#212D5F" stroke-width="2"/>
<path d="M253 302V321" stroke="#212D5F" stroke-width="2"/>
<path d="M247 302V321" stroke="#212D5F" stroke-width="2"/>
<path d="M332 321H396" stroke="#212D5F" stroke-width="2"/>
<path d="M351 302V321" stroke="#212D5F" stroke-width="2"/>
<path d="M357 302V321" stroke="#212D5F" stroke-width="2"/>
<path fill-rule="evenodd" clip-rule="evenodd" d="M204.188 286.485L209.814 286L235 307.357V312.953L225.222 324H219.444L215.296 320.547L195 302.79V297.046L204.188 286.485Z" stroke="#212D5F" stroke-width="2"/>
<path fill-rule="evenodd" clip-rule="evenodd" d="M200 303.122L209.65 292L228 308.119L218.825 319L200 303.122Z" stroke="#212D5F" stroke-width="2"/>
<path d="M227 322L236.052 321H272" stroke="#212D5F" stroke-width="2"/>
<path fill-rule="evenodd" clip-rule="evenodd" d="M195 308.753L203.635 304L206 308.615L197.326 313L195 308.753Z" fill="#BCBEC0"/>
<path fill-rule="evenodd" clip-rule="evenodd" d="M195 308.753L203.635 304L206 308.615L197.326 313L195 308.753Z" stroke="#212D5F" stroke-width="2"/>
<path fill-rule="evenodd" clip-rule="evenodd" d="M197 313.064L206.783 308L209 312.115L199.188 317L197 313.064Z" fill="#BCBEC0"/>
<path fill-rule="evenodd" clip-rule="evenodd" d="M197 313.064L206.783 308L209 312.115L199.188 317L197 313.064Z" stroke="#212D5F" stroke-width="2"/>
<path fill-rule="evenodd" clip-rule="evenodd" d="M200 316.888L208.778 312L211 316.299L202.193 321L200 316.888Z" fill="#BCBEC0"/>
<path fill-rule="evenodd" clip-rule="evenodd" d="M200 316.888L208.778 312L211 316.299L202.193 321L200 316.888Z" stroke="#212D5F" stroke-width="2"/>
<path fill-rule="evenodd" clip-rule="evenodd" d="M206 318.593L213.166 315L216 318.902L209.589 323L206 318.593Z" fill="#BCBEC0"/>
<path fill-rule="evenodd" clip-rule="evenodd" d="M206 318.593L213.166 315L216 318.902L209.589 323L206 318.593Z" stroke="#212D5F" stroke-width="2"/>
<path d="M357 282L386 248.953V245.898L383.287 245" stroke="#212D5F" stroke-width="2"/>
<path d="M373 258L383 245.84V241.993L380.515 241" stroke="#212D5F" stroke-width="2"/>
<path d="M369.147 255L380 242.394V238.505L377.431 237L366 251.989" stroke="#212D5F" stroke-width="2"/>
<path d="M353 261L344 270" stroke="#212D5F" stroke-width="2"/>
<path fill-rule="evenodd" clip-rule="evenodd" d="M350 251C350 253.762 352.239 256 355 256C357.761 256 360 253.762 360 251C360 248.238 357.761 246 355 246C352.239 246 350 248.238 350 251Z" stroke="#212D5F" stroke-width="2"/>
<path d="M351 244.537C352.535 243.567 354.386 243 356.379 243C361.693 243 366 247.029 366 252" stroke="#212D5F" stroke-width="2"/>
<path d="M352 260C349.042 258.517 347 255.359 347 251.703C347 249.549 347.708 247.567 348.897 246L351.909 247.509" stroke="#212D5F" stroke-width="2"/>
<path d="M351 244L352 247" stroke="#212D5F" stroke-width="2"/>
<path d="M348 266L360 277" stroke="#212D5F" stroke-width="2"/>
<path d="M255 265L243 276" stroke="#212D5F" stroke-width="2"/>
<path d="M290 254H314" stroke="#212D5F" stroke-width="2"/>
<path fill-rule="evenodd" clip-rule="evenodd" d="M386 300H402V295H386V300Z" stroke="#212D5F" stroke-width="2"/>
<path fill-rule="evenodd" clip-rule="evenodd" d="M384 306H402V300H384V306Z" stroke="#212D5F" stroke-width="2"/>
<path fill-rule="evenodd" clip-rule="evenodd" d="M383 312H401V306H383V312Z" stroke="#212D5F" stroke-width="2"/>
<path fill-rule="evenodd" clip-rule="evenodd" d="M385 316H399V312H385V316Z" stroke="#212D5F" stroke-width="2"/>
<path fill-rule="evenodd" clip-rule="evenodd" d="M388 321H396V316H388V321Z" stroke="#212D5F" stroke-width="2"/>
<path fill-rule="evenodd" clip-rule="evenodd" d="M388 295V277L392.209 279.74L397 277V295H388Z" stroke="#212D5F" stroke-width="2"/>
<path d="M401 296L397 290" stroke="#212D5F" stroke-width="2"/>
<path fill-rule="evenodd" clip-rule="evenodd" d="M395 270C395 271.105 394.104 272 393 272C391.895 272 391 271.105 391 270C391 268.895 391.895 268 393 268C394.104 268 395 268.895 395 270Z" stroke="#212D5F" stroke-width="2"/>
<path d="M388.028 274L386 270.082L392.445 262L398 270.082L396.101 274" stroke="#212D5F" stroke-width="2"/>
<path d="M393 268V262" stroke="#212D5F" stroke-width="2"/>
<path fill-rule="evenodd" clip-rule="evenodd" d="M346 202L330.121 217L322 209.5L346 202Z" stroke="#E91D50" stroke-width="2"/>
<path d="M335.375 222.545L332 225.392V218.585L340 227L347 202" stroke="#E91D50" stroke-width="2"/>
<path fill-rule="evenodd" clip-rule="evenodd" d="M260.5 230.438C259.43 230.438 258.562 229.571 258.562 228.5C258.562 227.43 259.43 226.562 260.5 226.562C261.57 226.562 262.439 227.43 262.439 228.5C262.439 229.571 261.57 230.438 260.5 230.438ZM260.5 223C257.462 223 255 225.463 255 228.5C255 231.538 257.462 234 260.5 234C263.538 234 266 231.538 266 228.5C266 225.463 263.538 223 260.5 223Z" fill="#E91D50"/>
<path fill-rule="evenodd" clip-rule="evenodd" d="M272.618 212L268 216.432L272.405 221L277 216.592L272.618 212Z" fill="#212D5F"/>
<path fill-rule="evenodd" clip-rule="evenodd" d="M376.592 273L373 276.446L376.427 280L380 276.572L376.592 273Z" fill="#E91D50"/>
<path d="M373.229 295.444L373 295" stroke="#212D5F"/>
<path d="M373 295L367.93 285.219L362 278" stroke="#212D5F" stroke-dasharray="0.99 0.99"/>
<path d="M361.317 277.386L361 277" stroke="#212D5F"/>
<path d="M368.224 298.447L368 298" stroke="#212D5F"/>
<path d="M368 297L364.144 288.975L358 282" stroke="#212D5F" stroke-dasharray="0.98 0.98"/>
<path d="M357.337 282.369L357 282" stroke="#212D5F"/>
<path d="M348.423 266.267L348 266" stroke="#212D5F"/>
<path d="M347 265L336 258" stroke="#212D5F" stroke-dasharray="0.98 0.98"/>
<path d="M335.423 258.267L335 258" stroke="#212D5F"/>
<path d="M343.387 270.317L343 270" stroke="#212D5F"/>
<path d="M343 269L339 266" stroke="#212D5F" stroke-dasharray="1.02 1.02"/>
<path d="M338.387 266.317L338 266" stroke="#212D5F"/>
<path d="M266.41 266L266 266.286" stroke="#212D5F"/>
<path d="M265 266L260 269" stroke="#212D5F" stroke-dasharray="0.92 0.92"/>
<path d="M260.41 270L260 270.286" stroke="#212D5F"/>
<path d="M269.449 257L269 257.219" stroke="#212D5F"/>
<path d="M268 257L262.147 259.893L257 264" stroke="#212D5F" stroke-dasharray="0.99 0.99"/>
<path d="M257.393 265L257 265.31" stroke="#212D5F"/>
<path d="M243.326 276L243 276.38" stroke="#212D5F"/>
<path d="M242 277L235.51 284.382L231 292" stroke="#212D5F" stroke-dasharray="1.01 1.01"/>
<path d="M231.25 293L231 293.433" stroke="#212D5F"/>
<path d="M247.353 281L247 281.354" stroke="#212D5F"/>
<path d="M247 282L241.099 288.215L237 297" stroke="#212D5F" stroke-dasharray="0.98 0.98"/>
<path d="M236.22 297L236 297.449" stroke="#212D5F"/>
<defs>
<filter id="filter0_d" x="115" y="85.9999" width="366" height="357" filterUnits="userSpaceOnUse" color-interpolation-filters="sRGB">
<feFlood flood-opacity="0" result="BackgroundImageFix"/>
<feColorMatrix in="SourceAlpha" type="matrix" values="0 0 0 0 0 0 0 0 0 0 0 0 0 0 0 0 0 0 127 0"/>
<feOffset dy="2"/>
<feGaussianBlur stdDeviation="20"/>
<feColorMatrix type="matrix" values="0 0 0 0 0 0 0 0 0 0 0 0 0 0 0 0 0 0 0.1 0"/>
<feBlend mode="normal" in2="BackgroundImageFix" result="effect1_dropShadow"/>
<feBlend mode="normal" in="SourceGraphic" in2="effect1_dropShadow" result="shape"/>
</filter>
</defs>
</svg>
