<svg width="589" height="443" viewBox="0 0 589 443" fill="none" xmlns="http://www.w3.org/2000/svg">
<path opacity="0.426121" fill-rule="evenodd" clip-rule="evenodd" d="M380.221 43.221C226.305 -28.551 64.562 -7.4519 18.957 90.347C-26.6473 188.147 0.395676 500.012 215.073 397.384C429.75 294.755 530.732 448.057 576.337 350.258C621.941 252.458 534.137 114.993 380.221 43.221Z" fill="#B7C6E0"/>
<g filter="url(#filter0_d)">
<path fill-rule="evenodd" clip-rule="evenodd" d="M274.865 124.464C350.932 119.3 386.218 157.845 405.76 209.531C425.3 261.217 454.244 279.004 434.259 338.492C414.273 397.979 342.087 405.849 313.882 398.893C285.675 391.939 256.41 373.919 221.284 360.385C169.033 340.255 156.122 313.768 155.079 287.671C153.606 250.756 173.092 246.632 179.357 206.163C186.864 157.672 215.361 128.503 274.865 124.464Z" fill="#F8F8FB"/>
</g>
<path d="M272 289V310.857L290.973 323H304.324L324 310.163V289" stroke="#212D5F" stroke-width="2"/>
<path d="M272 270V262.692L283.687 251C283.687 251 287.94 256.072 297.488 256.157C307.568 256.246 311.867 251 311.867 251L324 263.179V269.461" stroke="#212D5F" stroke-width="2"/>
<path fill-rule="evenodd" clip-rule="evenodd" d="M319 279C319 282.866 315.866 286 312 286C308.134 286 305 282.866 305 279C305 275.134 308.134 272 312 272C315.866 272 319 275.134 319 279Z" stroke="#212D5F" stroke-width="2"/>
<path d="M277 279C277 275.134 280.134 272 284 272C287.866 272 291 275.134 291 279" stroke="#212D5F" stroke-width="2"/>
<path d="M312 301C310.772 304.418 305.153 307 298.407 307C291.956 307 286.536 304.64 285 301.444" stroke="#212D5F" stroke-width="2"/>
<path fill-rule="evenodd" clip-rule="evenodd" d="M354 283.5C354 285.985 351.985 288 349.5 288C347.015 288 345 285.985 345 283.5C345 281.015 347.015 279 349.5 279C351.985 279 354 281.015 354 283.5Z" stroke="#212D5F" stroke-width="2"/>
<path fill-rule="evenodd" clip-rule="evenodd" d="M381 283.5C381 285.985 378.985 288 376.5 288C374.015 288 372 285.985 372 283.5C372 281.015 374.015 279 376.5 279C378.985 279 381 281.015 381 283.5Z" stroke="#212D5F" stroke-width="2"/>
<path d="M245.367 323L250 301.496L237.369 295L234 300.911L240.54 304.649" stroke="#212D5F" stroke-width="2"/>
<path d="M220 323L216 302" stroke="#212D5F" stroke-width="2"/>
<path d="M224.055 287.125L221 274.37L223.156 270H227.559L229.446 274.093L232.41 290.729L235.465 274L237.621 270H242.114L244 273.908L238.472 296" stroke="#212D5F" stroke-width="2"/>
<path fill-rule="evenodd" clip-rule="evenodd" d="M213 302H226V288H213V302Z" stroke="#212D5F" stroke-width="2"/>
<path d="M220 288V302" stroke="#212D5F" stroke-width="2"/>
<path fill-rule="evenodd" clip-rule="evenodd" d="M312 281C314.664 281 314.669 277 312 277C309.336 277 309.331 281 312 281Z" fill="#212D5F"/>
<path d="M345 300V310.154L346.258 323H352.595L354 310.039V300" stroke="#212D5F" stroke-width="2"/>
<path d="M372 300V310.154L373.258 323H379.595L381 310.039V300" stroke="#212D5F" stroke-width="2"/>
<path d="M340 309V296.21L346 291" stroke="#212D5F" stroke-width="2"/>
<path d="M354 291L359.305 296.211L362.532 309L365.413 296.211L371 291" stroke="#212D5F" stroke-width="2"/>
<path d="M381 291L386.263 296.211L387 309" stroke="#212D5F" stroke-width="2"/>
<path d="M263 267L238.761 260.724L220.582 264.885C220.582 264.885 216.472 265.737 215.304 262.028C214.458 259.343 217.162 257.519 217.162 257.519L233.299 253.666L213.849 258.31C213.849 258.31 209.332 259.476 207.531 256.043C205.214 251.621 210.325 249.594 210.325 249.594L227.201 245.64L207.885 250.166C207.885 250.166 202.752 251.548 201.472 247.874C199.89 243.332 204.473 241.763 204.473 241.763L219.9 238.676L202.499 242.158L198.572 242.943C197.546 243.149 196.486 243.164 195.465 242.935C193.9 242.584 192.007 241.682 192 239.37C191.987 235.4 195.812 234.3 197.98 233.489C204.717 230.967 219.194 229.271 226.375 229.009C229.906 228.88 240.462 230.188 240.462 230.188L262.403 253.058" stroke="#212D5F" stroke-width="2"/>
<path d="M333 267L357.239 260.724L375.419 264.885C375.419 264.885 379.528 265.737 380.696 262.028C381.542 259.343 378.838 257.519 378.838 257.519L362.701 253.666L382.151 258.31C382.151 258.31 386.668 259.476 388.469 256.043C390.786 251.621 385.675 249.594 385.675 249.594L368.799 245.64L388.115 250.166C388.115 250.166 393.248 251.548 394.528 247.874C396.11 243.332 391.527 241.763 391.527 241.763L376.1 238.676L393.501 242.158L397.428 242.943C398.454 243.149 399.514 243.164 400.535 242.935C402.1 242.584 403.993 241.682 404 239.37C404.013 235.4 400.188 234.3 398.02 233.489C391.283 230.967 376.806 229.271 369.625 229.009C366.094 228.88 355.538 230.188 355.538 230.188L333.597 253.058" stroke="#212D5F" stroke-width="2"/>
<path d="M297.5 216C312.687 216 325 220.478 325 226C325 231.523 312.687 236 297.5 236C282.313 236 270 231.523 270 226C270 223.065 273.479 220.425 279.019 218.595" stroke="#212D5F" stroke-width="2"/>
<path d="M294 230C284.355 230 278 227.314 278 224" stroke="white" stroke-width="2"/>
<path fill-rule="evenodd" clip-rule="evenodd" d="M258.618 288L254 292.432L258.405 297L263 292.592L258.618 288Z" fill="#E91D50"/>
<path fill-rule="evenodd" clip-rule="evenodd" d="M363.618 268L359 272.432L363.405 277L368 272.592L363.618 268Z" fill="#E91D50"/>
<path fill-rule="evenodd" clip-rule="evenodd" d="M272.5 209L270.448 206.551L268 204.5L270.448 202.448L272.5 200L274.551 202.448L277 204.5L274.551 206.551L272.5 209Z" fill="#E91D50"/>
<path fill-rule="evenodd" clip-rule="evenodd" d="M259 227L256.844 220.252L252 218L256.844 215.748L259 209L261.156 215.748L266 218L261.156 220.252L259 227Z" fill="#E91D50"/>
<defs>
<filter id="filter0_d" x="115" y="85.9999" width="366" height="357" filterUnits="userSpaceOnUse" color-interpolation-filters="sRGB">
<feFlood flood-opacity="0" result="BackgroundImageFix"/>
<feColorMatrix in="SourceAlpha" type="matrix" values="0 0 0 0 0 0 0 0 0 0 0 0 0 0 0 0 0 0 127 0"/>
<feOffset dy="2"/>
<feGaussianBlur stdDeviation="20"/>
<feColorMatrix type="matrix" values="0 0 0 0 0 0 0 0 0 0 0 0 0 0 0 0 0 0 0.1 0"/>
<feBlend mode="normal" in2="BackgroundImageFix" result="effect1_dropShadow"/>
<feBlend mode="normal" in="SourceGraphic" in2="effect1_dropShadow" result="shape"/>
</filter>
</defs>
</svg>
