<svg width="589" height="420" viewBox="0 0 589 420" fill="none" xmlns="http://www.w3.org/2000/svg">
<path opacity="0.426121" fill-rule="evenodd" clip-rule="evenodd" d="M380.221 43.221C226.305 -28.551 64.562 -7.4519 18.957 90.347C-26.6473 188.147 0.395676 500.012 215.073 397.384C429.75 294.755 530.732 448.057 576.337 350.258C621.941 252.458 534.137 114.993 380.221 43.221Z" fill="#B7C6E0"/>
<path fill-rule="evenodd" clip-rule="evenodd" d="M299.134 203H191L203.866 135H312L299.134 203Z" fill="url(#paint0_linear)"/>
<path d="M234 162.048C233.079 162.649 231.968 163 230.773 163C227.585 163 225 160.505 225 157.427C225 154.788 226.899 152.578 229.45 152" stroke="#212D5F"/>
<path d="M232 152C234.278 152.519 236 154.898 236 157.754C236 158.954 235.696 160.071 235.174 161" stroke="#212D5F"/>
<path d="M241 163V155H255V163V161.364L251.924 158.333L248 160.818L244.202 158.333L241.105 161.265" stroke="#212D5F"/>
<path d="M260 160H270.695L274 163.595V176H260V162.097" stroke="#212D5F"/>
<path d="M263 164H266" stroke="#212D5F"/>
<path d="M263 168H271" stroke="#212D5F"/>
<path d="M263 170H271" stroke="#212D5F"/>
<path d="M263 172H271" stroke="#212D5F"/>
<path d="M270 160V164" stroke="#212D5F"/>
<path d="M270 164H274" stroke="#212D5F"/>
<path d="M241 169V177.456L246.034 181H249.754L255 177.518V169" stroke="#212D5F"/>
<path d="M248 179V181" stroke="#212D5F"/>
<path d="M247 176H249" stroke="#212D5F"/>
<path d="M250 157H253" stroke="#212D5F"/>
<path d="M230 154V157.569L232 160" stroke="#E91D50"/>
<path d="M255 177C257.166 177.396 259.186 178.56 260.292 179.925C260.568 180.266 260.803 180.627 261 181" stroke="#212D5F"/>
<path d="M241 177C238.834 177.396 236.814 178.56 235.708 179.925C235.432 180.266 235.197 180.627 235 181" stroke="#212D5F"/>
<path d="M239 168C239.622 169.887 241.098 171.584 242.729 172.457C243.137 172.675 243.563 172.855 244 173" stroke="#212D5F"/>
<path d="M229 165C227.046 164.563 225.208 163.411 224 162" stroke="#212D5F"/>
<path d="M251 174.01C250.413 174.601 249.291 175 248.005 175C246.711 175 245.585 174.596 245 174" stroke="#212D5F"/>
<path fill-rule="evenodd" clip-rule="evenodd" d="M255.309 166C255.72 166 256.038 166.322 255.996 166.691C255.78 168.618 254.382 169.905 252.62 169.996C250.624 170.099 249 168.307 249 166H255.309Z" stroke="#212D5F"/>
<path fill-rule="evenodd" clip-rule="evenodd" d="M241.691 166C241.28 166 240.962 166.322 241.004 166.691C241.22 168.618 242.618 169.905 244.38 169.996C246.376 170.099 248 168.307 248 166H241.691Z" stroke="#212D5F"/>
<path d="M255 166H241" stroke="#212D5F"/>
<path d="M254 168L253.928 168.164C253.756 168.56 253.438 168.857 253.055 168.982L253 169" stroke="#212D5F"/>
<path d="M245 168L244.929 168.164C244.756 168.56 244.438 168.857 244.055 168.982L244 169" stroke="#212D5F"/>
<path fill-rule="evenodd" clip-rule="evenodd" d="M238.5 168.029C238.208 168.029 237.971 167.792 237.971 167.5C237.971 167.208 238.208 166.971 238.5 166.971C238.792 166.971 239.029 167.208 239.029 167.5C239.029 167.792 238.792 168.029 238.5 168.029ZM238.5 166C237.672 166 237 166.672 237 167.5C237 168.328 237.672 169 238.5 169C239.329 169 240 168.328 240 167.5C240 166.672 239.329 166 238.5 166Z" fill="#E91D50"/>
<path fill-rule="evenodd" clip-rule="evenodd" d="M268 182V180H266V181.989L268 182Z" stroke="#212D5F"/>
<path fill-rule="evenodd" clip-rule="evenodd" d="M221.539 168L220 169.477L221.468 171L223 169.53L221.539 168Z" fill="#E91D50"/>
<path fill-rule="evenodd" clip-rule="evenodd" d="M225.539 168L224 169.477L225.469 171L227 169.53L225.539 168Z" fill="#E91D50"/>
<path d="M225 179L226.652 171.913L229.698 170L234.17 171.214L236 174.451L232.464 177.776" stroke="#212D5F"/>
<path d="M233 175L231.279 180.876L229 182" stroke="#212D5F"/>
<path d="M231.811 171L236 168.581V167.399L234.576 167L229 170.328" stroke="#212D5F"/>
<path d="M233 174L235 173" stroke="#212D5F"/>
<path d="M231 174L234 172" stroke="#212D5F"/>
<path d="M229 173L232 171" stroke="#212D5F"/>
<path fill-rule="evenodd" clip-rule="evenodd" d="M259.747 158L259 156.834L259.747 156C259.747 156 261.25 156.292 261.666 156.311C261.859 156.32 262.291 156 262.291 156L263 157.125C263 157.125 262.465 157.917 262.219 157.929C261.718 157.953 260.726 157.565 260.291 157.594C260.133 157.604 259.747 158 259.747 158Z" fill="#E91D50"/>
<path fill-rule="evenodd" clip-rule="evenodd" d="M248 409C248 415.075 222.928 420 192.001 420C161.072 420 136 415.075 136 409C136 402.925 161.072 398 192.001 398C222.928 398 248 402.925 248 409Z" fill="#D3D5DF"/>
<path fill-rule="evenodd" clip-rule="evenodd" d="M461 409C461 415.075 435.928 420 405.001 420C374.072 420 349 415.075 349 409C349 402.925 374.072 398 405.001 398C435.928 398 461 402.925 461 409Z" fill="#D3D5DF"/>
<path fill-rule="evenodd" clip-rule="evenodd" d="M198.105 389L197 408H230C230 408 216.541 398.753 210.52 395.712L209.842 389H198.105Z" fill="#DFEAFA"/>
<path fill-rule="evenodd" clip-rule="evenodd" d="M207.78 241L210 394H196.929C196.929 394 182.494 334.065 189.59 316.568L177 241H207.78Z" fill="#242448"/>
<path opacity="0.1" fill-rule="evenodd" clip-rule="evenodd" d="M208.083 241H177L189.714 316.669C187.231 322.741 187.361 333.916 188.589 345.928L210 372L208.083 241Z" fill="black"/>
<path fill-rule="evenodd" clip-rule="evenodd" d="M163.038 391L158 410H194C194 410 178.765 400.754 172.744 397.713L173.851 391H163.038Z" fill="#DFEAFA"/>
<path fill-rule="evenodd" clip-rule="evenodd" d="M209 239L195.98 315.754L174.127 394H161C161 394 165.208 318.894 178.755 311.069L168.056 239H209Z" fill="#242448"/>
<path opacity="0.1" fill-rule="evenodd" clip-rule="evenodd" d="M208.111 244.133L209 239H168L168.926 245.11L208.199 250L208.111 244.133Z" fill="black"/>
<path fill-rule="evenodd" clip-rule="evenodd" d="M230 185.773C230 185.773 238.173 172.91 251 170L245.97 175.882C245.97 175.882 248.36 181.987 245.342 185.041C242.325 188.092 237.42 188.337 237.42 188.337L234.023 192L230 185.773Z" fill="#FFC0A5"/>
<path fill-rule="evenodd" clip-rule="evenodd" d="M198.5 175L209.625 197.457L231.5 182.898L237 191.166C237 191.166 217.999 226.456 209.625 223.864C201.25 221.274 194 202.641 194 202.641L198.5 175Z" fill="white"/>
<path opacity="0.1" fill-rule="evenodd" clip-rule="evenodd" d="M209.425 197.473L198.443 175L194 202.659C194 202.659 201.157 221.307 209.425 223.898C209.618 223.961 209.824 223.98 210.028 224L220 190.339L209.425 197.473Z" fill="black"/>
<path fill-rule="evenodd" clip-rule="evenodd" d="M206.371 122.292C206.371 122.292 207.679 133.862 209 136.655H205.339C205.339 136.655 205.621 147.756 203.367 149.155C201.755 150.156 197.041 149.155 195.933 150.461C194.826 151.767 193.229 161 193.229 161L178.679 159.787L180.182 146.823C180.182 146.823 172.015 137.123 174.455 125.183C176.895 113.245 204.212 111.194 206.371 122.292Z" fill="#FFC0A5"/>
<path opacity="0.1" fill-rule="evenodd" clip-rule="evenodd" d="M188.682 141.586L177 141C178.702 144.609 180.59 146.836 180.59 146.836L179.066 159.788L193.823 161C193.823 161 195.442 151.775 196.565 150.47C196.984 149.982 197.915 149.817 199 149.749C193.376 148.183 188.247 141.868 188.682 141.586Z" fill="black"/>
<path fill-rule="evenodd" clip-rule="evenodd" d="M206.521 126.207C206.521 126.207 203.507 128.015 197.379 123.962C197.379 123.962 193.293 131.382 189.704 130.446C189.704 130.446 189.519 135.746 188.774 136.121C188.033 136.493 186.485 131.569 184.938 131.257C183.391 130.945 181.842 132.504 183.451 137.117C185.061 141.731 188.033 141.731 188.033 141.731L180.14 147C180.14 147 173.919 144.974 172.683 139.799C172.683 139.799 164.759 132.004 169.526 126.519C169.526 126.519 164.263 122.029 176.519 116.605C176.519 116.605 179.398 105.849 185.155 110.806C185.155 110.806 195.72 102.858 198.369 109.934C198.369 109.934 211.987 108.811 212.855 116.231C213.719 123.651 210.44 125.458 210.44 125.458C210.44 125.458 211.186 131.569 207.411 131.941L206.521 126.207Z" fill="#212226"/>
<path fill-rule="evenodd" clip-rule="evenodd" d="M168.761 175.055C168.761 175.055 161.488 173.31 162.743 165.588C163.997 157.865 174.197 154.377 195.092 159.235C197.559 159.809 199.48 163.844 197.85 167.333C197.85 167.333 204.558 183.713 206.626 197.165C208.695 210.619 209.823 224.631 212.081 231.172C214.337 237.711 212.456 245 206.251 245H168.094C160.55 245 159.57 234.535 162.599 223.699C165.627 212.861 170.015 182.841 168.761 175.055Z" fill="#DFEAFA"/>
<path fill-rule="evenodd" clip-rule="evenodd" d="M185.663 170.146C197.497 172.662 189.261 196.063 186.902 202.775C184.545 209.488 181.932 215.454 185.663 220.674C189.395 225.896 196 231.676 196 231.676L191.595 241C191.595 241 166.967 237.83 161.11 230.557C155.252 223.285 158.571 207.019 163.649 195.877C168.726 184.735 176.895 168.281 185.663 170.146Z" fill="white"/>
<path fill-rule="evenodd" clip-rule="evenodd" d="M191.33 242.946C191.045 242.815 190.921 242.474 191.053 242.185L196.919 229.334C197.049 229.045 197.385 228.92 197.671 229.054C197.955 229.185 198.078 229.526 197.948 229.815L192.082 242.666C191.95 242.955 191.614 243.08 191.33 242.946Z" fill="#A67070"/>
<path fill-rule="evenodd" clip-rule="evenodd" d="M388.814 227L384.417 233.2C384.417 233.2 379.426 300.658 380.751 319.958C382.078 339.259 387.589 396.295 387.589 396.295L363 408L398.914 406.161C398.914 406.161 395.292 399.403 397.793 381.571C401.72 353.547 400.41 336.289 395.921 322.557C395.921 322.557 410.511 246.094 415 229.392L388.814 227Z" fill="#1F28CF"/>
<path opacity="0.1" fill-rule="evenodd" clip-rule="evenodd" d="M404.063 245L381.648 330.763C383.644 354.931 387.746 397.255 387.746 397.255L363 409L399.141 407.155C399.141 407.155 395.498 400.375 398.012 382.483C401.966 354.363 400.646 337.046 396.13 323.265C396.13 323.265 403.169 286.48 409 258.286L404.063 245Z" fill="black"/>
<path fill-rule="evenodd" clip-rule="evenodd" d="M399 369H384.742C386.159 384.491 387.366 397.205 387.366 397.205L363 409L398.589 407.147C398.589 407.147 394.999 400.338 397.477 382.369C398.132 377.608 398.629 373.179 399 369Z" fill="#FFC0A5"/>
<path fill-rule="evenodd" clip-rule="evenodd" d="M400 225C400 225 407.371 298.804 409.951 317.973C412.527 337.143 426.705 388.389 427.077 393.587C427.45 398.786 418.87 417 418.87 417C418.87 417 437.525 404.728 442 398.786C442 398.786 434.803 391.73 435.043 385.048C435.286 378.362 432.674 331.481 425.587 317.973C425.587 317.973 430.062 272.312 431.181 262.952C432.301 253.594 432.674 230.941 428.57 225H400Z" fill="#1F28CF"/>
<path fill-rule="evenodd" clip-rule="evenodd" d="M428.969 225H400.444C400.444 225 400.571 226.318 400.798 228.632L388.741 227.496L384.366 233.869C384.366 233.869 384.226 235.817 384 239.141C399.795 242.687 421.724 240.33 432 238.874C431.56 232.794 430.632 227.482 428.969 225Z" fill="black"/>
<path fill-rule="evenodd" clip-rule="evenodd" d="M423.652 119.136C425.506 130.674 421.209 141.786 425.47 147.184C429.73 152.581 426.952 157.048 430.84 162.445C434.732 167.842 448.807 187.383 431.768 194.827C414.727 202.272 404.17 195.572 399.168 185.522C394.167 175.471 392.13 169.145 386.017 164.306C379.906 159.466 379.721 149.789 383.61 143.089C387.498 136.389 386.574 130.992 385.276 123.176C383.981 115.36 388.981 104.38 402.687 104.007C414.722 103.68 421.8 107.596 423.652 119.136Z" fill="#242448"/>
<path opacity="0.1" fill-rule="evenodd" clip-rule="evenodd" d="M410.967 165.761C411.428 154.327 407.025 151.646 403.049 142.329C399.074 133.012 389.108 127 389.108 127C388.045 127.351 387.06 127.927 386.141 128.665C386.832 133.983 386.683 138.383 383.652 143.552C379.7 150.285 379.889 160.01 386.097 164.874C389.858 167.82 392.102 171.323 394.413 175.866C403.293 176.604 410.615 174.436 410.967 165.761Z" fill="black"/>
<path fill-rule="evenodd" clip-rule="evenodd" d="M388.904 159C388.904 159 384.57 160.756 382.085 169.981C379.601 179.205 372.275 210.12 372.275 210.12L349.919 238.915C349.919 238.915 344.824 239.413 341.843 240.91C338.863 242.405 337 245.521 337 245.521C337 245.521 339.609 245.149 342.465 244.275L337 253H347.433C347.433 253 353.022 248.14 355.878 242.156L383.7 213.734C383.7 213.734 389.165 185.563 391.399 179.205C393.637 172.848 388.904 159 388.904 159Z" fill="#FFC0A5"/>
<path opacity="0.1" fill-rule="evenodd" clip-rule="evenodd" d="M388.866 159C388.866 159 384.479 160.747 381.963 169.92C379.448 179.094 372.032 209.839 372.032 209.839L364 220L383.598 213.433C383.598 213.433 389.13 185.417 391.392 179.094C393.657 172.772 388.866 159 388.866 159Z" fill="black"/>
<path fill-rule="evenodd" clip-rule="evenodd" d="M399.262 122.037C399.262 122.037 397.337 125.136 398.437 125.136C399.538 125.136 406.134 118 406.134 118C406.134 118 405.218 131.991 411.999 138.284V155H400.27L400.036 147.774C400.036 147.774 398.274 148.516 397.358 148.516C396.44 148.516 392.468 142.458 390.306 137.421C388.575 133.387 388.999 127.529 388.999 126.92C388.999 126.92 395.321 124.949 399.262 122.037Z" fill="#FFC0A5"/>
<path opacity="0.1" fill-rule="evenodd" clip-rule="evenodd" d="M400 147.6L400.226 154C409.195 151.892 410 140 410 140C406.271 146.468 400 147.6 400 147.6Z" fill="black"/>
<path fill-rule="evenodd" clip-rule="evenodd" d="M397.74 155.395V151H413.741C413.741 151 413.278 155.021 414.672 155.958C416.067 156.892 424.068 158.671 426.021 162.317C427.975 165.966 430.091 182.446 427.498 196.283C424.906 210.119 425.091 212.645 427.231 217.417C429.372 222.187 432.628 228.736 433 233.506C433 233.506 401.833 239.118 384.344 233.506C384.344 233.506 392.438 213.58 391.446 203.602C390.453 193.625 384.127 190.256 383.134 184.395C382.142 178.532 386.978 170.051 386.978 170.051C386.978 170.051 386.732 160.447 388.827 158.44C390.543 156.797 397.74 155.395 397.74 155.395Z" fill="#EA3663"/>
<path fill-rule="evenodd" clip-rule="evenodd" d="M485.302 108C475.817 108 468.126 115.69 468.126 125.176C468.126 126.953 468.397 128.667 468.898 130.279L461 137.078L471.98 136.01C475.129 139.878 479.925 142.352 485.302 142.352C494.788 142.352 502.478 134.662 502.478 125.176C502.478 115.69 494.788 108 485.302 108Z" fill="#2D24A3"/>
<path opacity="0.1" fill-rule="evenodd" clip-rule="evenodd" d="M433 233.499C432.625 228.715 429.346 222.148 427.191 217.365C425.2 212.946 424.894 210.428 426.917 199.135L384.774 189C387.055 192.677 390.444 196.437 391.152 203.515C392.151 213.52 384 233.499 384 233.499C401.613 239.126 433 233.499 433 233.499Z" fill="black"/>
<path fill-rule="evenodd" clip-rule="evenodd" d="M424.145 161C424.145 161 419.035 163.837 419.406 173.584C419.779 183.332 422.698 203.199 422.698 203.199L389.226 201.62C389.226 201.62 380.564 195.958 377.022 195.122C373.484 194.286 365.287 194.658 365.007 196.514C364.726 198.371 373.576 201.25 373.576 201.25L377.489 205.242C377.489 205.242 370.968 203.199 370.688 204.219C370.409 205.242 378.048 210.717 388.295 208.119C388.295 208.119 431.063 215.596 433.844 213.689C437.229 211.368 432.167 182.868 431.516 178.597C430.863 174.327 429.032 164.331 424.145 161Z" fill="#FFC0A5"/>
<path fill-rule="evenodd" clip-rule="evenodd" d="M427.161 393.681C427.532 398.86 419 417 419 417C419 417 437.55 404.777 442 398.86C442 398.86 434.842 391.832 435.082 385.176C435.183 382.378 434.78 372.501 433.76 361L420.171 364.093C423.784 378.7 426.986 391.249 427.161 393.681Z" fill="#FFC0A5"/>
<path fill-rule="evenodd" clip-rule="evenodd" d="M397.083 397H387.648L363 409L399 407.115C399 407.115 397.461 404.136 397.083 397Z" fill="#242448"/>
<path fill-rule="evenodd" clip-rule="evenodd" d="M442 398.654C442 398.654 438.612 395.292 436.577 391C431.873 396.031 427.161 393.417 427.161 393.417C427.532 398.654 419 417 419 417C419 417 437.55 404.639 442 398.654Z" fill="#242448"/>
<path fill-rule="evenodd" clip-rule="evenodd" d="M346 188V196H335V188L340.5 189.369L346 188Z" stroke="#212D5F"/>
<path fill-rule="evenodd" clip-rule="evenodd" d="M349 188H347V186H349V188Z" stroke="#212D5F"/>
<path fill-rule="evenodd" clip-rule="evenodd" d="M326.544 216L328 217.451L326.447 219L325 217.556L326.544 216Z" stroke="#212D5F"/>
<path fill-rule="evenodd" clip-rule="evenodd" d="M325.029 214L326 214.968L324.965 216L324 215.038L325.029 214Z" fill="#E91D50"/>
<path d="M332.684 220L331 213H349L347.484 220" stroke="#212D5F"/>
<path d="M347 209V213H333V209" stroke="#212D5F"/>
<path d="M319.989 195.242C323.25 195.833 325.813 198.52 326.133 201.814C326.303 203.576 325.847 205.227 324.955 206.576L325.908 209.44C325.977 209.649 325.768 209.842 325.56 209.761L322.836 208.697C321.459 209.61 319.76 210.09 317.94 209.936C314.301 209.629 311.366 206.725 311.076 203.149C310.767 199.331 313.403 196.059 316.991 195.29" stroke="#212D5F"/>
<path d="M346.993 195.18H351.677H351.809" stroke="#212D5F"/>
<path d="M332.989 195.248L327.909 195.18C327.909 199.357 333.259 202.742 339.859 202.742C346.458 202.742 351.809 199.357 351.809 195.18" stroke="#212D5F"/>
<path fill-rule="evenodd" clip-rule="evenodd" d="M343.262 213.031V212.219L341.703 211.256H338.26L336.567 212.219V213.031H343.262Z" fill="#212D5F"/>
<path d="M362.801 217.804L361.358 202.742L360.36 202.039L359.509 202.475L359.409 202.529" stroke="#212D5F"/>
<path d="M360.547 208.432L359.715 202.742L358.716 202.039L357.865 202.475L357.792 202.518" stroke="#212D5F"/>
<path d="M358.941 208.432L358.109 202.742L357.11 202.039L356.26 202.475V203.42L357.328 208.432L357.294 208.614C356.715 208.21 356.003 207.971 355.232 207.971C353.296 207.971 352.386 208.926 351.821 210.556L352.823 210.972" stroke="#212D5F"/>
<path d="M357.199 217.984L357.017 216.167C357.017 216.167 355.886 216.259 355.756 216.27C354.063 216.418 352.244 215.258 352.03 213.73L352.675 213.28" stroke="#212D5F"/>
<path d="M329.184 200.747C329.184 200.747 329.964 201.523 330.523 201.83C331.139 202.169 331.98 202.542 331.98 202.542" stroke="#212D5F"/>
<path d="M352.938 197.908C352.938 197.908 352.146 199.291 351.806 199.699C351.517 200.045 350.83 200.643 350.475 200.925C350.089 201.232 349.25 201.757 348.844 202.039C348.613 202.2 347.857 202.591 347.857 202.591" stroke="#212D5F"/>
<path fill-rule="evenodd" clip-rule="evenodd" d="M333.369 206.252C333.369 207.389 334.301 208.188 335.435 208.31C337.887 208.574 339.133 205.406 339.133 205.406L338.247 204.393C338.247 204.393 335.752 204.339 335.439 204.339C334.298 204.339 333.369 205.115 333.369 206.252Z" stroke="#212D5F"/>
<path fill-rule="evenodd" clip-rule="evenodd" d="M346.484 206.252C346.484 207.389 345.553 208.188 344.419 208.31C341.967 208.574 340.721 205.406 340.721 205.406L341.607 204.393C341.607 204.393 344.102 204.339 344.414 204.339C345.555 204.339 346.484 205.115 346.484 206.252Z" stroke="#212D5F"/>
<path fill-rule="evenodd" clip-rule="evenodd" d="M314.547 211.435C314.457 212.361 314.698 213.229 315.166 213.937L314.665 215.442C314.629 215.552 314.739 215.654 314.848 215.611L316.28 215.052C317.003 215.532 317.897 215.784 318.852 215.703C320.765 215.542 322.308 214.016 322.46 212.136C322.655 209.73 320.623 207.736 318.172 207.93C316.274 208.079 314.728 209.572 314.547 211.435Z" fill="#E91D50"/>
<path fill-rule="evenodd" clip-rule="evenodd" d="M314.547 211.435C314.457 212.361 314.698 213.229 315.166 213.937L314.665 215.442C314.629 215.552 314.739 215.654 314.848 215.611L316.28 215.052C317.003 215.532 317.897 215.784 318.852 215.703C320.765 215.542 322.308 214.016 322.46 212.136C322.655 209.73 320.623 207.736 318.172 207.93C316.274 208.079 314.728 209.572 314.547 211.435Z" stroke="#212D5F"/>
<path d="M336.789 206.68V205.684C336.789 205.524 336.752 205.366 336.682 205.222L336.255 204.352" stroke="#212D5F"/>
<path d="M344.547 206.68V205.684C344.547 205.524 344.51 205.366 344.44 205.222L344.012 204.352" stroke="#212D5F"/>
<path d="M353.323 212.946H354.375" stroke="#212D5F"/>
<path fill-rule="evenodd" clip-rule="evenodd" d="M354.804 212.673C354.817 212.705 354.858 212.788 355.299 212.928C355.577 213.017 355.68 213.022 355.77 213.013C355.868 213.003 355.979 212.99 356.037 212.905C356.112 212.796 356.047 212.649 356.037 212.627C355.997 212.538 355.928 212.491 355.888 212.465C355.813 212.415 355.744 212.398 355.605 212.373C355.185 212.295 355.079 212.315 355.032 212.326C354.882 212.361 354.838 212.419 354.827 212.434C354.779 212.504 354.775 212.601 354.804 212.673ZM355.362 209.29C356.942 209.29 358.223 210.548 358.223 212.099C358.223 213.65 356.942 214.908 355.362 214.908C354.842 214.908 354.354 214.771 353.933 214.532L354.451 214.076C354.727 214.198 355.033 214.268 355.355 214.268C356.573 214.268 357.561 213.299 357.561 212.103C357.561 210.907 356.573 209.937 355.355 209.937C354.138 209.937 353.15 210.907 353.15 212.103C353.15 212.402 353.214 212.687 353.326 212.946H354.318C354.316 212.668 354.321 212.248 354.329 211.667C354.334 211.354 354.521 211.18 354.615 211.087C354.88 210.826 355.439 210.804 355.972 210.934C356.174 210.983 356.51 211.476 356.51 211.476C356.51 211.476 356.322 211.44 355.96 211.354C355.616 211.272 355.255 211.287 355.127 211.337C355.068 211.36 354.937 211.45 354.861 211.615C354.836 211.67 354.826 211.981 354.826 211.981C354.967 211.939 355.383 211.862 355.96 211.998C356.203 212.056 356.328 212.186 356.368 212.225C356.542 212.393 356.598 212.589 356.616 212.677C356.635 212.767 356.675 212.955 356.581 213.165C356.484 213.38 356.305 213.482 356.244 213.513C356.032 213.621 355.827 213.594 355.606 213.565C355.359 213.533 355.318 213.481 354.967 213.391C354.902 213.374 354.843 213.362 354.79 213.352V213.593H353.758C353.76 213.594 353.762 213.596 353.763 213.598H352.944C352.665 213.164 352.502 212.65 352.502 212.099C352.502 210.548 353.783 209.29 355.362 209.29Z" fill="#E91D50"/>
<path fill-rule="evenodd" clip-rule="evenodd" d="M321.712 202.498C321.824 202.498 321.914 202.409 321.914 202.299C321.914 202.19 321.824 202.101 321.712 202.101C321.601 202.101 321.51 202.19 321.51 202.299C321.51 202.409 321.601 202.498 321.712 202.498ZM321.712 201.249C322.294 201.249 322.766 201.712 322.766 202.283C322.766 202.854 322.294 203.317 321.712 203.317C321.131 203.317 320.659 202.854 320.659 202.283C320.659 201.712 321.131 201.249 321.712 201.249Z" fill="#E91D50"/>
<path fill-rule="evenodd" clip-rule="evenodd" d="M318.611 202.498C318.723 202.498 318.813 202.409 318.813 202.299C318.813 202.19 318.723 202.101 318.611 202.101C318.499 202.101 318.409 202.19 318.409 202.299C318.409 202.409 318.499 202.498 318.611 202.498ZM318.611 201.249C319.193 201.249 319.664 201.712 319.664 202.283C319.664 202.854 319.193 203.317 318.611 203.317C318.029 203.317 317.558 202.854 317.558 202.283C317.558 201.712 318.029 201.249 318.611 201.249Z" fill="#E91D50"/>
<path fill-rule="evenodd" clip-rule="evenodd" d="M315.58 202.498C315.691 202.498 315.782 202.409 315.782 202.299C315.782 202.19 315.691 202.101 315.58 202.101C315.468 202.101 315.378 202.19 315.378 202.299C315.378 202.409 315.468 202.498 315.58 202.498ZM315.58 201.249C316.161 201.249 316.633 201.712 316.633 202.283C316.633 202.854 316.161 203.317 315.58 203.317C314.998 203.317 314.526 202.854 314.526 202.283C314.526 201.712 314.998 201.249 315.58 201.249Z" fill="#E91D50"/>
<path fill-rule="evenodd" clip-rule="evenodd" d="M288.866 240H397L384.134 172H276L288.866 240Z" fill="url(#paint1_linear)"/>
<defs>
<linearGradient id="paint0_linear" x1="312" y1="135" x2="312" y2="203" gradientUnits="userSpaceOnUse">
<stop stop-color="white"/>
<stop offset="1" stop-color="white" stop-opacity="0.336221"/>
</linearGradient>
<linearGradient id="paint1_linear" x1="278.072" y1="172.516" x2="278.072" y2="238.187" gradientUnits="userSpaceOnUse">
<stop stop-color="white"/>
<stop offset="1" stop-color="white" stop-opacity="0.295148"/>
</linearGradient>
</defs>
</svg>
