<svg width="589" height="418" viewBox="0 0 589 418" fill="none" xmlns="http://www.w3.org/2000/svg">
<path opacity="0.426121" fill-rule="evenodd" clip-rule="evenodd" d="M380.223 43.221C226.307 -28.551 64.564 -7.4519 18.959 90.347C-26.6453 188.147 0.397598 500.012 215.075 397.384C429.751 294.755 530.734 448.057 576.339 350.258C621.943 252.458 534.139 114.993 380.223 43.221Z" fill="#B7C6E0"/>
<path opacity="0.265455" fill-rule="evenodd" clip-rule="evenodd" d="M466.839 384.987C472.232 393.92 341.433 399.747 228.852 395.68C116.27 391.614 64.623 375.734 118.345 367.273C172.067 358.811 461.445 376.053 466.839 384.987Z" fill="#212D5F"/>
<g filter="url(#filter0_d)">
<path fill-rule="evenodd" clip-rule="evenodd" d="M325.629 228.47C326.773 244.573 402.574 291.828 403.014 293.157C403.307 294.043 379.271 349.278 379.271 349.278L385.9 351.846C385.9 351.846 422.713 293.325 420.841 287.101C418.162 278.191 362.075 228.565 362.075 228.565L325.629 228.47Z" fill="#FFC0A5"/>
<path fill-rule="evenodd" clip-rule="evenodd" d="M381.373 341.067L392.214 345.014C415.07 319.227 424.028 297.949 422.393 287.107C420.758 276.265 363.656 228.588 363.656 228.588L324.9 228.584C326.226 265.849 396.632 293.488 397.573 295.076C398.515 296.665 389.25 312.216 381.373 341.067Z" fill="#D81646"/>
<path fill-rule="evenodd" clip-rule="evenodd" d="M379.561 348.525C378.693 347.741 377.334 347.748 376.6 348.659C375.777 349.68 374.84 350.956 374.524 351.824C373.919 353.486 373.314 356.877 373.314 356.877C375.246 357.58 408.047 369.519 408.047 369.519C408.047 369.519 411.026 365.546 408.239 364.128C405.452 362.71 403.627 361.721 403.627 361.721L390.351 348.91C389.946 348.519 389.298 348.539 388.918 348.954L387.206 350.827C387.206 350.827 384.048 351.101 382.359 350.487C381.518 350.18 380.436 349.316 379.561 348.525Z" fill="#C5CFD6"/>
<path fill-rule="evenodd" clip-rule="evenodd" d="M334.517 228.545L300.658 309.975L267.379 378.818H275.23L361.132 228.545H334.517Z" fill="#FFC0A5"/>
<path fill-rule="evenodd" clip-rule="evenodd" d="M269.261 374.54C268.177 374.099 266.903 374.571 266.525 375.678C266.1 376.919 265.656 378.438 265.656 379.363C265.656 381.131 266.247 384.524 266.247 384.524C268.303 384.524 303.209 384.524 303.209 384.524C303.209 384.524 304.65 379.772 301.546 379.393C298.442 379.014 296.389 378.709 296.389 378.709L279.531 371.21C279.017 370.982 278.416 371.222 278.201 371.742L277.232 374.088C277.232 374.088 274.358 375.426 272.561 375.426C271.666 375.426 270.353 374.983 269.261 374.54Z" fill="#C5CFD6"/>
<path fill-rule="evenodd" clip-rule="evenodd" d="M270.234 364.136L287.713 367.405C301.228 347.593 357.786 266.36 363.987 228.545H325.076C304.367 255.882 283.116 343.997 270.234 364.136Z" fill="#EA3663"/>
<path fill-rule="evenodd" clip-rule="evenodd" d="M350.614 149.535C354.539 152.061 358.395 153.282 360.205 152.784C364.744 151.534 365.162 133.797 361.649 126.805C358.137 119.813 340.082 116.765 339.172 130.619C338.856 135.427 340.746 139.719 343.539 143.22L338.531 168.15H353.077L350.614 149.535Z" fill="#FFC0A5"/>
<path fill-rule="evenodd" clip-rule="evenodd" d="M355.904 119.19C353.917 118.542 351.031 118.323 349.818 118.471C350.508 116.704 350.782 114.736 350.559 112.819C350.341 110.956 349.562 109.371 348.842 107.709C348.51 106.943 348.133 106.181 347.572 105.595C347 104.998 346.276 104.604 345.518 104.416C344.741 104.224 343.929 104.24 343.151 104.414C342.807 104.492 342.498 104.66 342.161 104.753C341.815 104.849 341.648 104.618 341.397 104.386C340.792 103.826 339.906 103.55 339.141 103.451C338.283 103.34 337.393 103.479 336.575 103.78C335.778 104.073 335.013 104.549 334.437 105.243C334.181 105.552 333.948 105.904 333.797 106.292C333.735 106.451 333.725 106.545 333.576 106.604C333.438 106.658 333.277 106.659 333.135 106.711C331.762 107.207 330.588 108.341 329.949 109.796C329.576 110.645 329.399 112.14 329.447 113.815C329.496 115.49 330.912 119.862 332.237 121.456C333.419 122.879 335.157 123.818 336.834 124.23C335.721 125.589 334.98 127.287 334.432 129.014C333.837 130.891 333.468 132.84 333.332 134.827C333.203 136.714 333.191 138.71 333.605 140.557C333.993 142.284 334.821 143.701 336.205 144.6C336.839 145.012 337.52 145.321 338.206 145.604C338.882 145.883 339.56 146.154 340.268 146.31C341.608 146.606 343.151 146.555 344.183 145.416C344.555 145.005 344.965 144.489 345.236 143.988C345.333 143.807 345.392 143.689 345.274 143.513C345.132 143.302 344.902 143.14 344.72 142.975C343.679 142.033 343.035 140.775 342.873 139.281C342.708 137.764 343.089 135.807 344.47 135.145C346.174 134.328 348.05 135.266 349.564 136.14C350.208 133.714 351.529 131.529 353.601 130.416C355.893 129.185 358.523 129.041 360.879 127.985C361.493 127.71 362.118 127.397 362.57 126.836C362.759 126.602 362.98 126.298 363.055 125.988C363.155 125.58 362.909 125.239 362.719 124.921C361.711 123.238 357.892 119.837 355.904 119.19Z" fill="#191847"/>
<path fill-rule="evenodd" clip-rule="evenodd" d="M281.218 251.196C283.64 247.613 297.64 209.515 297.64 209.515L309.149 211.202C309.149 211.202 290.637 251.657 289.3 253.992C287.563 257.024 289.103 262.008 290.147 265.387C290.309 265.909 290.459 266.394 290.582 266.827C288.392 267.462 287.559 266.2 286.679 264.869C285.687 263.366 284.636 261.776 281.508 262.734C280.3 263.104 279.139 263.58 278.005 264.045C274.087 265.65 270.488 267.124 266.352 263.671C265.696 263.123 265.143 261.333 267.226 260.292C272.416 257.697 280.034 252.947 281.218 251.196ZM406.08 233.487L386.468 216.753L381.106 227.804L400.985 237.788C406.299 245.041 409.339 248.122 410.103 247.032C410.748 246.113 410.359 245.183 410 244.326C409.721 243.659 409.46 243.036 409.721 242.498C410.318 241.268 414.198 241.675 417.864 242.219C421.53 242.763 420.571 241.037 419.739 240.159C416.134 237.628 411.581 235.404 406.08 233.487Z" fill="#FFC0A5"/>
<path fill-rule="evenodd" clip-rule="evenodd" d="M345.755 162.535L352.888 160.158C362.547 184.473 376.961 207.996 401.054 227.858L395.088 238.211C373.91 225.664 353.862 215.919 345.736 197.078C343.008 190.755 345.528 170.098 345.755 162.535Z" fill="#DDE3E9"/>
<path fill-rule="evenodd" clip-rule="evenodd" d="M321.572 230.814C321.572 230.814 352.212 234.083 369.806 230.814C371.26 230.543 371.489 228.095 370.815 226.433C360.32 200.55 353.124 177.967 353.124 159.99C350.235 161.455 343.014 160.429 343.014 160.429C330.075 178.955 324.127 200.211 321.572 230.814Z" fill="#1F28CF"/>
<path fill-rule="evenodd" clip-rule="evenodd" d="M339.024 158.978C339.376 158.739 339.562 158.62 339.562 158.62L339.542 158.978H344.892C345.162 160.582 345.559 166.527 346.138 175.196C348.241 206.696 352.745 274.161 362.332 299.979H296.185C297.581 270.622 308.336 235.514 319.476 205.706C311.247 213.942 301.632 227.747 293.852 250.724L281.463 247.534C294.111 192.893 330.992 164.625 338.296 159.482C338.369 159.313 338.441 159.145 338.513 158.978H339.024Z" fill="#DDE3E9"/>
</g>
<g filter="url(#filter1_d)">
<path fill-rule="evenodd" clip-rule="evenodd" d="M205.093 284.532C214.605 284.532 215.095 276.353 215.095 260.048C215.095 243.742 228.858 229.823 219.346 229.823C209.834 229.823 193.623 243.742 193.623 260.048C193.623 276.353 195.581 284.532 205.093 284.532Z" fill="#121BB4"/>
<path fill-rule="evenodd" clip-rule="evenodd" d="M225.915 201C219.97 201 215.15 205.819 215.15 211.764V220.712C215.15 226.104 219.115 230.57 224.289 231.354C224.291 231.398 224.294 231.442 224.296 231.487H238.171C240.53 229.192 237.863 213.63 236.201 208.472C235.942 207.669 235.693 207.115 235.447 206.759C233.646 203.335 230.053 201 225.915 201Z" fill="#191847"/>
<path fill-rule="evenodd" clip-rule="evenodd" d="M226.123 223.973C229.221 225.832 232.265 226.73 233.694 226.364C237.277 225.444 237.607 212.398 234.834 207.254C232.062 202.111 217.81 199.869 217.092 210.06C216.842 213.597 218.334 216.753 220.539 219.329L216.586 237.667H228.068L226.123 223.973Z" fill="#FFC0A5"/>
<path fill-rule="evenodd" clip-rule="evenodd" d="M215.573 210.119C215.906 209.791 216.228 209.474 216.548 209.19L216.533 208.819C216.533 208.819 220.137 201.476 225.677 201.476C231.212 201.476 232.962 204.037 234.45 206.215L234.454 206.221C233.676 208.879 231.33 209.954 228.678 211.17C227.536 211.694 226.337 212.244 225.181 212.957C224.729 212.591 224.152 212.372 223.523 212.372C222.07 212.372 220.892 213.544 220.892 214.991C220.892 216.437 222.07 217.61 223.523 217.61C223.563 217.61 223.603 217.609 223.643 217.607C224.172 223.263 223.96 229.723 222.383 231.256H208.509C208.111 224.368 209.901 222.403 211.73 220.396C213.451 218.506 215.207 216.579 215.207 210.478C215.331 210.357 215.452 210.238 215.573 210.119Z" fill="#191847"/>
<path fill-rule="evenodd" clip-rule="evenodd" d="M198.838 323.822C198.838 323.822 216.053 328.615 228.544 328.615C241.034 328.615 251.747 321.234 251.747 321.234C251.747 321.234 234.9 316.315 223.999 316.315C213.098 316.315 198.838 323.822 198.838 323.822Z" fill="#121BB4"/>
<path fill-rule="evenodd" clip-rule="evenodd" d="M238.479 333.22C238.369 333.055 238.275 332.874 238.201 332.679C236.667 328.641 212.094 285.078 209.646 277.113H237.311C239.173 283.169 247.55 321.17 248.729 328.752C252.449 340.712 260.108 379.444 261.085 382.128C262.114 384.95 256.327 387.891 254.785 384.421C252.331 378.899 246.484 363.621 243.881 354.292C241.44 345.546 239.453 337.677 238.479 333.22Z" fill="#FFC0A5"/>
<path fill-rule="evenodd" clip-rule="evenodd" d="M215.845 338.539C204.61 341.365 163.519 346.474 160.699 347.276C157.798 348.1 155.254 342.148 158.84 340.859C164.545 338.808 180.266 334.068 189.797 332.134C197.463 330.579 204.459 329.309 209.156 328.566C208.758 315.434 206.939 283.92 208.131 277.113H232.61C231.466 283.64 221.802 331.265 220.006 336.032C219.436 337.734 217.735 338.486 215.845 338.539Z" fill="#FFC0A5"/>
<path fill-rule="evenodd" clip-rule="evenodd" d="M159.635 341.531C159.837 340.381 159.161 339.204 158.003 339.052C157.204 338.947 156.362 338.884 155.831 338.977C154.562 339.201 152.203 340.055 152.203 340.055C152.464 341.533 156.889 366.628 156.889 366.628C156.889 366.628 160.48 367.063 160.358 364.784C160.237 362.504 160.195 360.989 160.195 360.989L163.37 348.189C163.505 347.644 163.164 347.094 162.616 346.972L161.081 346.632C161.081 346.632 159.757 344.736 159.53 343.444C159.441 342.942 159.513 342.223 159.635 341.531Z" fill="#C5CFD6"/>
<path fill-rule="evenodd" clip-rule="evenodd" d="M255.4 383.861C254.302 383.462 253.026 383.923 252.675 385.037C252.433 385.806 252.225 386.624 252.225 387.164C252.225 388.452 252.656 390.923 252.656 390.923C254.157 390.923 279.639 390.923 279.639 390.923C279.639 390.923 280.691 387.462 278.425 387.186C276.159 386.91 274.66 386.687 274.66 386.687L262.606 381.339C262.092 381.111 261.491 381.351 261.276 381.87L260.675 383.322C260.675 383.322 258.577 384.297 257.266 384.297C256.756 384.297 256.06 384.1 255.4 383.861Z" fill="#C5CFD6"/>
<path fill-rule="evenodd" clip-rule="evenodd" d="M208.211 277.113C208.211 277.113 224.391 272.506 238.829 277.113C242.178 292.322 250.316 298.358 251.747 321.675C235.481 329.719 215.387 315.937 198.642 323.783C193.858 312.809 200.556 286.382 208.211 277.113Z" fill="#1F28CF"/>
<path fill-rule="evenodd" clip-rule="evenodd" d="M273.193 255.726L254.303 258.291L257.693 266.714L273.02 260.666C279.626 261.315 282.82 261.159 282.603 260.198C282.42 259.387 281.718 259.143 281.071 258.917C280.567 258.742 280.097 258.578 279.932 258.167C279.554 257.23 281.702 255.287 283.819 253.531C285.935 251.775 284.514 251.452 283.621 251.478C280.448 252.218 276.971 253.634 273.193 255.726ZM181.284 301.918C182.689 299.085 194.988 262.631 194.988 262.631L205.462 262.661C205.462 262.661 188.198 301.28 187.458 303.102C186.498 305.468 188.123 308.903 189.224 311.233C189.395 311.593 189.553 311.927 189.687 312.226C188.154 312.91 187.419 312.086 186.644 311.217C185.769 310.235 184.843 309.197 182.659 310.21C181.815 310.601 181.017 311.064 180.237 311.516C177.542 313.077 175.067 314.511 171.704 312.447C171.171 312.119 170.587 310.886 172.001 309.92C175.522 307.514 180.598 303.303 181.284 301.918Z" fill="#FFC0A5"/>
<path fill-rule="evenodd" clip-rule="evenodd" d="M223.651 229.561L231.854 230.108C233.881 248.3 244.889 259.795 269.522 255.915L272.805 279.344C249.781 282.296 229.584 273.112 225.435 248.266C224.361 241.834 223.513 235.141 223.651 229.561Z" fill="#D3DEE6"/>
<path fill-rule="evenodd" clip-rule="evenodd" d="M182.732 297.19C188.427 267.03 200.447 243.697 218.793 227.19H219.58H219.607L219.613 227.198L232.041 230.031C232.041 244.89 235.362 255.993 238.555 266.667C239.934 271.276 241.289 275.806 242.342 280.524H208.778C208.306 285.929 208.015 291.485 207.864 297.19H182.732Z" fill="#C5CFD6"/>
<path fill-rule="evenodd" clip-rule="evenodd" d="M208.932 280.877C209.894 269.872 211.613 259.491 214.455 249.733C213.832 260.168 213.659 273.114 215.753 280.877H208.932Z" fill="black" fill-opacity="0.1"/>
<path fill-rule="evenodd" clip-rule="evenodd" d="M212.08 233.444L215.799 229.842C215.799 229.842 218.441 240.145 218.615 246.176C218.79 252.208 218.819 253.269 216.217 260.962C213.615 268.655 210.059 271.476 210.059 271.476C210.059 271.476 212.954 257.789 213.376 249.859C213.797 241.929 212.08 233.444 212.08 233.444Z" fill="#1F28CF"/>
</g>
<g filter="url(#filter2_d)">
<path fill-rule="evenodd" clip-rule="evenodd" d="M162.126 220.903C165.318 222.816 168.453 223.741 169.926 223.363C173.617 222.417 173.956 208.985 171.1 203.69C168.244 198.394 153.562 196.086 152.822 206.578C152.565 210.219 154.102 213.469 156.373 216.121L152.301 235H164.129L162.126 220.903Z" fill="#FFC0A5"/>
<path fill-rule="evenodd" clip-rule="evenodd" d="M153.875 199.091C144.945 207.824 153.909 217.106 156.365 217.106C156.524 215.846 157.008 214.62 157.716 213.454C157.34 212.967 157.117 212.361 157.117 211.705C157.117 210.098 158.456 208.794 160.107 208.794C160.623 208.794 161.109 208.922 161.532 209.145C165.112 206.096 169.602 203.97 171.832 203.552C175.71 202.825 162.805 190.359 153.875 199.091Z" fill="#191847"/>
<path fill-rule="evenodd" clip-rule="evenodd" d="M147.66 280L164.915 338.741L173.03 382.845H181.176L173.045 280H147.66Z" fill="#B28B67"/>
<path fill-rule="evenodd" clip-rule="evenodd" d="M140.144 280C141.349 310.508 140.874 327.149 140.604 329.92C140.335 332.692 138.804 351.256 128.377 383.751H136.852C150.661 352.578 155.482 334.014 157.066 329.92C158.65 325.827 163.327 309.187 170.157 280H140.144Z" fill="#B28B67"/>
<path fill-rule="evenodd" clip-rule="evenodd" d="M147.201 280C151.692 300.152 159.46 332.319 170.504 376.502H182.426C183.307 331.152 179.561 301.305 173.074 280H147.201Z" fill="#DA2621"/>
<path fill-rule="evenodd" clip-rule="evenodd" d="M139.7 280C140.877 310.417 137.827 340.383 128.377 376.955H141.067C154.875 346.339 164.771 316.521 171.534 280H139.7Z" fill="#FF4133"/>
<path fill-rule="evenodd" clip-rule="evenodd" d="M127 389.607L127.392 383.417C127.432 382.78 128.054 382.341 128.687 382.428C132.72 382.981 137.823 381.248 137.823 381.248C142.877 384.753 149.907 386.579 153.459 387.328C154.643 387.578 155.406 388.783 155.07 389.945L154.764 391H137.823H127.941L127 389.607Z" fill="#C5CFD6"/>
<path fill-rule="evenodd" clip-rule="evenodd" d="M171.076 389.607L171.468 383.417C171.509 382.78 172.13 382.341 172.763 382.428C176.796 382.981 181.9 381.248 181.9 381.248C186.953 384.753 193.983 386.579 197.535 387.328C198.719 387.578 199.482 388.783 199.146 389.945L198.84 391H181.9H172.017L171.076 389.607Z" fill="#C5CFD6"/>
<path fill-rule="evenodd" clip-rule="evenodd" d="M137.019 288C147.815 288 148.371 278.88 148.371 260.7C148.371 242.519 163.994 227 153.197 227C142.401 227 124 242.519 124 260.7C124 278.88 126.222 288 137.019 288Z" fill="#121BB4"/>
<path fill-rule="evenodd" clip-rule="evenodd" d="M205.559 270.807L189.898 259.282L186.427 267.869L201.94 274.309C206.325 279.474 208.777 281.627 209.297 280.767C209.736 280.043 209.394 279.365 209.079 278.74C208.834 278.254 208.605 277.8 208.774 277.381C209.16 276.426 212.108 276.524 214.901 276.737C217.695 276.951 216.881 275.705 216.208 275.09C213.358 273.381 209.808 271.953 205.559 270.807ZM123.446 289.899L136.035 275.08L127.711 271.019L120.205 286.044C114.746 290.058 112.428 292.355 113.249 292.933C113.941 293.421 114.642 293.128 115.287 292.857C115.789 292.646 116.258 292.45 116.663 292.647C117.59 293.099 117.286 296.033 116.878 298.805C116.471 301.577 117.77 300.852 118.43 300.224C120.334 297.5 122.006 294.058 123.446 289.899Z" fill="#FFC0A5"/>
<path fill-rule="evenodd" clip-rule="evenodd" d="M165.798 228.122C174.287 244.033 186.575 256.224 204.395 268.892L197.634 276.54C177.731 269.135 167.227 264.665 162.082 249.629C160.791 245.856 159.899 233.822 159.129 227.491L165.798 228.122Z" fill="#69A1AC"/>
<path fill-rule="evenodd" clip-rule="evenodd" d="M142.168 280.959H180.041C180.041 280.959 167.172 241.796 166.894 227.202C166.884 226.706 165.966 225.831 165.56 225.946C161.104 227.202 156.024 225.007 156.024 225.007C147.046 239.416 143.941 257.157 142.168 280.959Z" fill="#C5CFD6"/>
<path fill-rule="evenodd" clip-rule="evenodd" d="M157.882 293.341H137.842C136.988 287.555 136.965 281.169 137.54 274.63C134.673 278.385 131.893 282.533 129.333 287.14L120.311 280.64C125.802 258.689 133.66 238.875 148.633 231.325C149.347 229.706 150.066 228.193 150.779 226.806C151.075 226.231 151.706 225.145 153.191 225.145H159.014C161.457 232.559 163.567 239.967 165.205 247.022C165.214 247.03 165.223 247.037 165.232 247.045C165.226 247.051 165.22 247.056 165.214 247.062C171.113 272.498 170.862 293.341 157.882 293.341Z" fill="#89C5CC"/>
<path fill-rule="evenodd" clip-rule="evenodd" d="M144.343 230.979L148.656 227C148.656 227 151.72 238.384 151.922 245.047C152.124 251.711 152.158 252.884 149.141 261.383C146.124 269.883 142 273 142 273C142 273 145.358 257.877 145.846 249.116C146.335 240.354 144.343 230.979 144.343 230.979Z" fill="#1F28CF"/>
</g>
<defs>
<filter id="filter0_d" x="245.656" y="85.413" width="196.925" height="321.111" filterUnits="userSpaceOnUse" color-interpolation-filters="sRGB">
<feFlood flood-opacity="0" result="BackgroundImageFix"/>
<feColorMatrix in="SourceAlpha" type="matrix" values="0 0 0 0 0 0 0 0 0 0 0 0 0 0 0 0 0 0 127 0"/>
<feOffset dy="2"/>
<feGaussianBlur stdDeviation="10"/>
<feColorMatrix type="matrix" values="0 0 0 0 0.129412 0 0 0 0 0.176471 0 0 0 0 0.372549 0 0 0 0.1 0"/>
<feBlend mode="normal" in2="BackgroundImageFix" result="effect1_dropShadow"/>
<feBlend mode="normal" in="SourceGraphic" in2="effect1_dropShadow" result="shape"/>
</filter>
<filter id="filter1_d" x="132.203" y="183" width="172.719" height="229.923" filterUnits="userSpaceOnUse" color-interpolation-filters="sRGB">
<feFlood flood-opacity="0" result="BackgroundImageFix"/>
<feColorMatrix in="SourceAlpha" type="matrix" values="0 0 0 0 0 0 0 0 0 0 0 0 0 0 0 0 0 0 127 0"/>
<feOffset dy="2"/>
<feGaussianBlur stdDeviation="10"/>
<feColorMatrix type="matrix" values="0 0 0 0 0.129412 0 0 0 0 0.176471 0 0 0 0 0.372549 0 0 0 0.1 0"/>
<feBlend mode="normal" in2="BackgroundImageFix" result="effect1_dropShadow"/>
<feBlend mode="normal" in="SourceGraphic" in2="effect1_dropShadow" result="shape"/>
</filter>
<filter id="filter2_d" x="93.088" y="178" width="143.773" height="235" filterUnits="userSpaceOnUse" color-interpolation-filters="sRGB">
<feFlood flood-opacity="0" result="BackgroundImageFix"/>
<feColorMatrix in="SourceAlpha" type="matrix" values="0 0 0 0 0 0 0 0 0 0 0 0 0 0 0 0 0 0 127 0"/>
<feOffset dy="2"/>
<feGaussianBlur stdDeviation="10"/>
<feColorMatrix type="matrix" values="0 0 0 0 0 0 0 0 0 0 0 0 0 0 0 0 0 0 0.1 0"/>
<feBlend mode="normal" in2="BackgroundImageFix" result="effect1_dropShadow"/>
<feBlend mode="normal" in="SourceGraphic" in2="effect1_dropShadow" result="shape"/>
</filter>
</defs>
</svg>
