<svg width="589" height="418" viewBox="0 0 589 418" fill="none" xmlns="http://www.w3.org/2000/svg">
<path opacity="0.426121" fill-rule="evenodd" clip-rule="evenodd" d="M380.221 43.221C226.305 -28.551 64.562 -7.4519 18.957 90.347C-26.6473 188.147 0.395676 500.012 215.073 397.384C429.75 294.755 530.732 448.057 576.337 350.258C621.941 252.458 534.137 114.993 380.221 43.221Z" fill="#B7C6E0"/>
<path opacity="0.0981091" fill-rule="evenodd" clip-rule="evenodd" d="M539.79 370.482C546.816 382.765 376.424 390.777 229.764 385.185C83.103 379.594 15.823 357.759 85.807 346.125C155.79 334.491 532.764 358.199 539.79 370.482Z" fill="#212D5F"/>
<path fill-rule="evenodd" clip-rule="evenodd" d="M208.747 358.979C203.041 358.979 198.414 354.359 198.414 348.66V120.979C198.414 115.279 203.041 110.659 208.747 110.659H374.506C380.213 110.659 384.84 115.279 384.84 120.979V348.66C384.84 354.359 380.213 358.979 374.506 358.979H208.747Z" fill="#E6E9F8"/>
<path fill-rule="evenodd" clip-rule="evenodd" d="M286.331 165.121C282.195 165.118 279.156 168.119 279.049 172.102C278.936 176.29 281.977 179.592 286.231 179.599C290.394 179.607 293.526 176.652 293.52 172.319C293.515 167.991 290.383 165.183 286.331 165.121ZM279.73 195.619V194.958C279.73 192.623 279.737 187.411 279.737 187.411C279.737 187.411 279.652 187.371 279.27 187.191C274.131 184.767 271.125 180.705 270.243 175.096C269.531 170.563 270.36 166.319 273.042 162.555C275.626 158.929 279.214 156.89 283.589 156.219C286.968 155.7 290.233 156.094 293.362 157.494C296.864 159.06 299.472 161.595 301.002 165.105C303.22 170.194 303.148 175.311 300.633 180.295C298.845 183.838 295.981 186.225 292.284 187.617C292.061 187.7 291.84 187.789 291.623 187.961C298.288 189.735 304.98 191.395 311.985 189.812C311.993 190.05 311.981 195.203 311.999 197.612C312.001 197.811 311.999 198.206 311.999 198.206C311.999 198.206 311.686 198.288 311.449 198.345C308.877 198.965 306.284 199.106 303.646 198.93C299.193 198.633 294.911 197.474 290.594 196.473C288.115 195.898 285.626 195.348 283.071 195.303C282.125 195.286 281.175 195.466 280.227 195.558C280.084 195.572 279.942 195.593 279.73 195.619Z" fill="#E91D50"/>
<path d="M327 291H252C248.134 291 245 294.134 245 298C245 301.866 248.134 305 252 305H327C330.866 305 334 301.866 334 298C334 294.134 330.866 291 327 291Z" fill="#212D5F"/>
<path d="M258 210H217C214.239 210 212 212.239 212 215V261C212 263.761 214.239 266 217 266H258C260.761 266 263 263.761 263 261V215C263 212.239 260.761 210 258 210Z" fill="white"/>
<path d="M313 210H272C269.239 210 267 212.239 267 215V261C267 263.761 269.239 266 272 266H313C315.761 266 318 263.761 318 261V215C318 212.239 315.761 210 313 210Z" fill="white"/>
<path d="M369 210H328C325.239 210 323 212.239 323 215V261C323 263.761 325.239 266 328 266H369C371.761 266 374 263.761 374 261V215C374 212.239 371.761 210 369 210Z" fill="white"/>
<path fill-rule="evenodd" clip-rule="evenodd" d="M384 146H198V121.09C198 115.518 202.616 111 208.31 111H373.69C379.384 111 384 115.518 384 121.09V146Z" fill="#393768"/>
<path fill-rule="evenodd" clip-rule="evenodd" d="M358.554 134H338.446C335.991 134 334 131.971 334 129.469V128.53C334 126.028 335.991 124 338.446 124H358.554C361.01 124 363 126.028 363 128.53V129.469C363 131.971 361.01 134 358.554 134Z" fill="#E6E9F8"/>
<path fill-rule="evenodd" clip-rule="evenodd" d="M227 259H247V257H227V259Z" fill="#B7CAEC"/>
<path fill-rule="evenodd" clip-rule="evenodd" d="M282 259H302V257H282V259Z" fill="#B7CAEC"/>
<path fill-rule="evenodd" clip-rule="evenodd" d="M339 259H359V257H339V259Z" fill="#B7CAEC"/>
<path fill-rule="evenodd" clip-rule="evenodd" d="M237.5 248C246.06 248 253 241.06 253 232.5C253 223.94 246.06 217 237.5 217C228.94 217 222 223.94 222 232.5C222 241.06 228.94 248 237.5 248Z" fill="#CAD8F1"/>
<path d="M245.98 234.046L245.563 236.739C245.563 236.739 240.349 241.068 238.542 241.042H235.237C233.095 240.961 228.009 235.664 228.009 235.664L227.827 234.158C227.423 227.519 231.776 225.218 231.954 225.123H231.958C232.742 224.639 234.342 224.728 234.82 225.114L234.824 225.123C235.594 225.561 236.278 226.146 236.84 226.848H236.964C237.528 226.15 238.21 225.566 238.975 225.123C239.919 224.909 240.896 224.906 241.842 225.114L241.846 225.123C241.846 225.123 246.34 227.356 245.98 234.046Z" fill="#D75E72"/>
<path d="M234.383 229.316C234.38 229.993 234.635 230.644 235.09 231.125C234.658 231.461 233.149 232.886 233.149 236.207L233.116 236.25C232.902 236.062 232.657 235.917 232.392 235.824C231.621 235.496 230.904 235.041 230.27 234.476C230.143 234.368 230.019 234.264 229.904 234.161C229.32 233.644 228.452 233.92 227.914 234.484L228.008 235.561L227.827 234.053C227.424 227.408 231.759 225.103 231.936 225.009H231.94C232.362 225.292 232.853 225.441 233.354 225.439C233.863 225.441 234.362 225.288 234.79 225L234.794 225.009C235.56 225.447 236.241 226.033 236.801 226.736C235.458 226.762 234.383 227.909 234.383 229.316Z" fill="#46B29D"/>
<path d="M236.179 222.831C236.178 224.367 234.981 225.612 233.505 225.614C233.002 225.616 232.509 225.467 232.085 225.185C230.996 224.475 230.548 223.059 231.017 221.814C231.486 220.57 232.74 219.849 234.003 220.097C235.266 220.346 236.18 221.494 236.179 222.831Z" fill="#FDD7AD"/>
<path d="M243.175 222.831C243.174 224.367 241.977 225.612 240.501 225.614C239.998 225.616 239.505 225.467 239.081 225.185C237.992 224.475 237.544 223.059 238.013 221.814C238.482 220.57 239.737 219.849 240.999 220.097C242.262 220.346 243.176 221.494 243.175 222.831Z" fill="#FDD7AD"/>
<path d="M240.599 236.569C240.432 236.709 240.28 236.869 240.147 237.046C239.614 237.775 239.331 238.672 239.344 239.592V240.821H238.937C238.712 240.821 238.53 241.013 238.529 241.25H235.269C235.269 241.013 235.087 240.821 234.862 240.821H234.454V239.592C234.467 238.672 234.184 237.775 233.652 237.046C233.519 236.869 233.367 236.709 233.199 236.569L233.232 236.526C233.232 233.215 234.727 231.793 235.155 231.458C235.614 231.953 236.243 232.231 236.899 232.231C237.555 232.231 238.184 231.953 238.643 231.458C239.071 231.793 240.566 233.215 240.566 236.526L240.599 236.569Z" fill="#F0C419"/>
<path d="M239.402 229.582C239.404 230.955 238.34 232.073 237.02 232.083C235.7 232.094 234.62 230.993 234.602 229.62C234.584 228.246 235.634 227.115 236.954 227.088C236.969 227.084 236.985 227.083 237.002 227.084C237.026 227.083 237.05 227.084 237.074 227.088C238.37 227.127 239.402 228.232 239.402 229.582Z" fill="#FDD7AD"/>
<path d="M230.259 235.417C230.073 235.416 229.915 235.264 229.884 235.057C229.49 232.379 230.622 229.346 230.671 229.218C230.754 229 230.977 228.9 231.17 228.993C231.363 229.087 231.452 229.339 231.371 229.557C231.36 229.586 230.278 232.49 230.635 234.915C230.653 235.04 230.622 235.168 230.55 235.265C230.477 235.361 230.371 235.417 230.259 235.417Z" fill="#527F72"/>
<path d="M243.341 235.417C243.229 235.417 243.123 235.361 243.051 235.264C242.978 235.168 242.947 235.04 242.965 234.915C243.323 232.485 242.241 229.588 242.23 229.558C242.176 229.417 242.194 229.254 242.275 229.131C242.356 229.008 242.49 228.943 242.625 228.961C242.76 228.98 242.876 229.078 242.929 229.219C242.978 229.347 244.11 232.38 243.716 235.057C243.685 235.264 243.527 235.416 243.341 235.417Z" fill="#802D40"/>
<path d="M234.044 239.34C233.81 239.34 233.621 239.155 233.621 238.927C233.621 238.814 233.637 236.141 234.985 234.54C235.081 234.426 235.232 234.371 235.382 234.395C235.531 234.419 235.655 234.519 235.708 234.657C235.761 234.795 235.735 234.95 235.639 235.064C234.48 236.439 234.467 238.902 234.467 238.927C234.467 239.155 234.277 239.34 234.044 239.34Z" fill="#F29C1F"/>
<path d="M239.96 239.34C239.727 239.34 239.538 239.155 239.537 238.928C239.537 238.903 239.52 236.435 238.365 235.064C238.217 234.888 238.244 234.629 238.424 234.484C238.604 234.34 238.87 234.365 239.018 234.54C240.367 236.141 240.383 238.814 240.383 238.927C240.383 239.155 240.194 239.339 239.96 239.34Z" fill="#F29C1F"/>
<path d="M234.499 239.43V240.664L234.615 241.209L230.489 241.31L230.501 240.664L227.515 237.546C227.174 237.194 226.898 236.779 226.702 236.322L225.083 232.605C225.028 232.482 225 232.348 225 232.213C225.001 231.692 225.405 231.27 225.904 231.268C226.267 231.267 226.594 231.493 226.735 231.842L227.66 234.093C227.684 234.153 227.713 234.218 227.742 234.278C227.76 234.325 227.782 234.369 227.808 234.412C227.808 234.42 227.812 234.425 227.817 234.433C227.825 234.45 227.837 234.472 227.845 234.489L228.002 234.403V234.399C228.152 234.242 228.332 234.121 228.531 234.045C229.03 233.845 229.593 233.944 230.001 234.304C230.117 234.407 230.241 234.511 230.369 234.619C231.005 235.185 231.725 235.64 232.5 235.968C232.766 236.062 233.012 236.207 233.227 236.395C233.397 236.536 233.55 236.696 233.685 236.874C234.225 237.606 234.512 238.507 234.499 239.43Z" fill="#FDD7AD"/>
<path d="M248.955 232.213C248.955 232.348 248.927 232.482 248.872 232.605L247.253 236.322C247.057 236.779 246.781 237.194 246.44 237.546L243.454 240.664L243.442 241.445L239.422 241.31L239.456 240.664V239.43C239.443 238.507 239.73 237.606 240.27 236.874C240.405 236.696 240.558 236.536 240.728 236.395C240.943 236.206 241.189 236.062 241.455 235.968C242.23 235.64 242.95 235.185 243.586 234.619C243.714 234.511 243.838 234.407 243.954 234.304C244.543 233.79 245.411 233.831 245.953 234.399V234.403L246.11 234.489C246.147 234.416 246.184 234.343 246.217 234.269C246.246 234.213 246.271 234.153 246.295 234.093L247.22 231.842C247.361 231.493 247.688 231.267 248.051 231.268C248.55 231.27 248.954 231.692 248.955 232.213Z" fill="#FDD7AD"/>
<path d="M230.664 237.128C230.5 237.29 230.239 237.29 230.075 237.128L228.538 235.573C228.258 235.296 228.022 234.978 227.838 234.629C227.824 234.605 227.815 234.58 227.809 234.554C227.817 234.57 227.829 234.591 227.838 234.608L227.995 234.524V234.52C228.145 234.368 228.326 234.251 228.525 234.177C228.541 234.195 228.555 234.215 228.567 234.236C228.715 234.511 228.902 234.763 229.122 234.984L230.664 236.535C230.825 236.699 230.825 236.964 230.664 237.128Z" fill="#FAC176"/>
<path d="M243.336 237.128C243.499 237.29 243.761 237.29 243.924 237.128L245.462 235.573C245.741 235.296 245.978 234.978 246.162 234.629C246.175 234.605 246.185 234.58 246.191 234.554C246.183 234.57 246.17 234.591 246.162 234.608L246.004 234.524V234.52C245.855 234.368 245.674 234.251 245.474 234.177C245.458 234.195 245.444 234.215 245.433 234.236C245.285 234.511 245.098 234.763 244.877 234.984L243.336 236.535C243.174 236.699 243.174 236.964 243.336 237.128Z" fill="#FAC176"/>
<path d="M230.216 240.625H234.785C235.015 240.625 235.201 240.821 235.201 241.063V244.562C235.201 244.804 235.015 245 234.785 245H230.216C229.987 245 229.801 244.804 229.801 244.562V241.063C229.801 240.821 229.987 240.625 230.216 240.625Z" fill="#4482C3"/>
<path d="M233.999 243.333H233.599C233.378 243.333 233.199 243.1 233.199 242.813C233.199 242.525 233.378 242.292 233.599 242.292H233.999C234.22 242.292 234.399 242.525 234.399 242.813C234.399 243.1 234.22 243.333 233.999 243.333Z" fill="#285680"/>
<path d="M239.017 240.625H243.586C243.816 240.625 244.002 240.821 244.002 241.063V244.562C244.002 244.804 243.816 245 243.586 245H239.017C238.788 245 238.602 244.804 238.602 244.562V241.063C238.602 240.821 238.788 240.625 239.017 240.625Z" fill="#4482C3"/>
<path d="M240.198 243.333H239.798C239.578 243.333 239.398 243.1 239.398 242.813C239.398 242.525 239.578 242.292 239.798 242.292H240.198C240.419 242.292 240.598 242.525 240.598 242.813C240.598 243.1 240.419 243.333 240.198 243.333Z" fill="#285680"/>
<path fill-rule="evenodd" clip-rule="evenodd" d="M291.5 249C300.06 249 307 242.06 307 233.5C307 224.94 300.06 218 291.5 218C282.94 218 276 224.94 276 233.5C276 242.06 282.94 249 291.5 249Z" fill="#CAD8F1"/>
<path fill-rule="evenodd" clip-rule="evenodd" d="M297.373 214.5L297.793 214.18L297.712 214L297.293 214.319L297.373 214.5Z" fill="#DFD4C6"/>
<path fill-rule="evenodd" clip-rule="evenodd" d="M297.819 214.717L298.199 214.457L298.08 214.217L297.699 214.476L297.819 214.717Z" fill="#DFD4C6"/>
<path fill-rule="evenodd" clip-rule="evenodd" d="M297.819 214.934L298.199 214.674L298.079 214.434L297.699 214.693L297.819 214.934Z" fill="#DFD4C6"/>
<path fill-rule="evenodd" clip-rule="evenodd" d="M298.022 215.15L298.402 214.891L298.283 214.65L297.902 214.91L298.022 215.15Z" fill="#DFD4C6"/>
<path fill-rule="evenodd" clip-rule="evenodd" d="M298.022 215.367L298.402 215.107L298.283 214.867L297.902 215.127L298.022 215.367Z" fill="#DFD4C6"/>
<path fill-rule="evenodd" clip-rule="evenodd" d="M297.983 215.584L298.402 215.264L298.322 215.084L297.902 215.404L297.983 215.584Z" fill="#DFD4C6"/>
<path fill-rule="evenodd" clip-rule="evenodd" d="M298.432 215.801L298.812 215.541L298.693 215.301L298.312 215.561L298.432 215.801Z" fill="#DFD4C6"/>
<path fill-rule="evenodd" clip-rule="evenodd" d="M298.433 216.017L298.812 215.758L298.693 215.517L298.312 215.777L298.433 216.017Z" fill="#DFD4C6"/>
<path fill-rule="evenodd" clip-rule="evenodd" d="M298.635 216.234L299.016 215.975L298.896 215.734L298.516 215.994L298.635 216.234Z" fill="#DFD4C6"/>
<path fill-rule="evenodd" clip-rule="evenodd" d="M298.636 216.451L299.016 216.19L298.896 215.951L298.516 216.211L298.636 216.451Z" fill="#DFD4C6"/>
<path fill-rule="evenodd" clip-rule="evenodd" d="M298.596 216.668L299.016 216.348L298.935 216.168L298.516 216.487L298.596 216.668Z" fill="#DFD4C6"/>
<path fill-rule="evenodd" clip-rule="evenodd" d="M298.839 216.885L299.219 216.625L299.099 216.385L298.719 216.645L298.839 216.885Z" fill="#DFD4C6"/>
<path fill-rule="evenodd" clip-rule="evenodd" d="M299.041 217.101L299.422 216.841L299.302 216.601L298.922 216.861L299.041 217.101Z" fill="#DFD4C6"/>
<path fill-rule="evenodd" clip-rule="evenodd" d="M299.245 217.318L299.625 217.058L299.506 216.818L299.125 217.078L299.245 217.318Z" fill="#DFD4C6"/>
<path fill-rule="evenodd" clip-rule="evenodd" d="M299.245 217.535L299.625 217.275L299.505 217.035L299.125 217.295L299.245 217.535Z" fill="#DFD4C6"/>
<path fill-rule="evenodd" clip-rule="evenodd" d="M299.206 217.752L299.625 217.432L299.545 217.252L299.125 217.571L299.206 217.752Z" fill="#DFD4C6"/>
<path fill-rule="evenodd" clip-rule="evenodd" d="M299.452 217.969L299.832 217.709L299.712 217.469L299.332 217.729L299.452 217.969Z" fill="#DFD4C6"/>
<path fill-rule="evenodd" clip-rule="evenodd" d="M299.655 218.185L300.035 217.925L299.915 217.685L299.535 217.945L299.655 218.185Z" fill="#DFD4C6"/>
<path fill-rule="evenodd" clip-rule="evenodd" d="M299.655 218.402L300.035 218.143L299.916 217.902L299.535 218.162L299.655 218.402Z" fill="#DFD4C6"/>
<path fill-rule="evenodd" clip-rule="evenodd" d="M299.858 218.619L300.238 218.359L300.119 218.119L299.738 218.378L299.858 218.619Z" fill="#DFD4C6"/>
<path fill-rule="evenodd" clip-rule="evenodd" d="M299.819 218.836L300.238 218.516L300.157 218.336L299.738 218.655L299.819 218.836Z" fill="#DFD4C6"/>
<path fill-rule="evenodd" clip-rule="evenodd" d="M300.06 219.052L300.441 218.792L300.322 218.552L299.941 218.812L300.06 219.052Z" fill="#DFD4C6"/>
<path fill-rule="evenodd" clip-rule="evenodd" d="M300.264 219.269L300.645 219.01L300.525 218.769L300.145 219.029L300.264 219.269Z" fill="#DFD4C6"/>
<path fill-rule="evenodd" clip-rule="evenodd" d="M300.264 219.486L300.645 219.226L300.525 218.986L300.145 219.245L300.264 219.486Z" fill="#DFD4C6"/>
<path fill-rule="evenodd" clip-rule="evenodd" d="M300.468 219.703L300.848 219.443L300.728 219.203L300.348 219.463L300.468 219.703Z" fill="#DFD4C6"/>
<path fill-rule="evenodd" clip-rule="evenodd" d="M300.429 219.92L300.848 219.6L300.767 219.42L300.348 219.739L300.429 219.92Z" fill="#DFD4C6"/>
<path fill-rule="evenodd" clip-rule="evenodd" d="M300.674 220.136L301.055 219.877L300.935 219.636L300.555 219.897L300.674 220.136Z" fill="#DFD4C6"/>
<path fill-rule="evenodd" clip-rule="evenodd" d="M300.877 220.353L301.258 220.093L301.138 219.853L300.758 220.113L300.877 220.353Z" fill="#DFD4C6"/>
<path fill-rule="evenodd" clip-rule="evenodd" d="M300.878 220.57L301.258 220.311L301.138 220.07L300.758 220.33L300.878 220.57Z" fill="#DFD4C6"/>
<path fill-rule="evenodd" clip-rule="evenodd" d="M301.08 220.787L301.461 220.527L301.341 220.287L300.961 220.547L301.08 220.787Z" fill="#DFD4C6"/>
<path fill-rule="evenodd" clip-rule="evenodd" d="M301.041 221.003L301.461 220.684L301.38 220.503L300.961 220.823L301.041 221.003Z" fill="#DFD4C6"/>
<path fill-rule="evenodd" clip-rule="evenodd" d="M301.283 221.22L301.664 220.96L301.545 220.72L301.164 220.979L301.283 221.22Z" fill="#DFD4C6"/>
<path fill-rule="evenodd" clip-rule="evenodd" d="M301.283 221.437L301.664 221.177L301.545 220.937L301.164 221.198L301.283 221.437Z" fill="#DFD4C6"/>
<path fill-rule="evenodd" clip-rule="evenodd" d="M301.487 221.654L301.867 221.394L301.747 221.154L301.367 221.414L301.487 221.654Z" fill="#DFD4C6"/>
<path fill-rule="evenodd" clip-rule="evenodd" d="M301.694 221.871L302.074 221.611L301.954 221.371L301.574 221.631L301.694 221.871Z" fill="#DFD4C6"/>
<path fill-rule="evenodd" clip-rule="evenodd" d="M301.448 222.087L301.867 221.768L301.786 221.587L301.367 221.907L301.448 222.087Z" fill="#DFD4C6"/>
<path fill-rule="evenodd" clip-rule="evenodd" d="M301.897 222.304L302.277 222.045L302.158 221.804L301.777 222.064L301.897 222.304Z" fill="#DFD4C6"/>
<path fill-rule="evenodd" clip-rule="evenodd" d="M301.897 222.521L302.277 222.261L302.158 222.021L301.777 222.281L301.897 222.521Z" fill="#DFD4C6"/>
<path fill-rule="evenodd" clip-rule="evenodd" d="M302.1 222.738L302.48 222.478L302.361 222.238L301.98 222.498L302.1 222.738Z" fill="#DFD4C6"/>
<path fill-rule="evenodd" clip-rule="evenodd" d="M302.1 222.955L302.48 222.694L302.361 222.455L301.98 222.714L302.1 222.955Z" fill="#DFD4C6"/>
<path fill-rule="evenodd" clip-rule="evenodd" d="M303.001 241.171C303.001 242.089 302.292 242.832 301.417 242.832H300.099C299.224 242.832 298.516 242.089 298.516 241.171V236.256C298.516 235.338 299.224 234.594 300.099 234.594H301.417C302.292 234.594 303.001 235.338 303.001 236.256V241.171Z" fill="#FF4133"/>
<path fill-rule="evenodd" clip-rule="evenodd" d="M300.099 234.594C299.224 234.594 298.516 235.371 298.516 236.329V236.979H303.001V236.329C303.001 235.371 302.292 234.594 301.417 234.594H300.099Z" fill="#B5173E"/>
<path fill-rule="evenodd" clip-rule="evenodd" d="M300.348 237.413H302.998V236.762H300.348V237.413Z" fill="#EEEBC9"/>
<path fill-rule="evenodd" clip-rule="evenodd" d="M300.589 237.142H300.588L300.428 237.14C300.382 237.14 300.348 237.104 300.348 237.06C300.349 237.015 300.381 236.975 300.43 236.979L300.589 236.982C300.634 236.983 300.669 237.018 300.669 237.063C300.669 237.107 300.632 237.142 300.589 237.142Z" fill="#A89F53"/>
<path fill-rule="evenodd" clip-rule="evenodd" d="M300.794 237.144H300.793L300.602 237.14C300.576 237.14 300.554 237.103 300.555 237.058C300.555 237.015 300.575 236.98 300.604 236.979L300.794 236.984C300.82 236.984 300.842 237.02 300.842 237.064C300.842 237.109 300.82 237.144 300.794 237.144ZM301.173 237.15L300.982 237.147C300.956 237.146 300.934 237.11 300.935 237.066C300.936 237.021 300.956 236.98 300.984 236.987L301.174 236.99C301.201 236.991 301.221 237.027 301.221 237.071C301.221 237.116 301.2 237.15 301.173 237.15ZM301.553 237.158L301.363 237.155C301.336 237.155 301.315 237.116 301.315 237.074C301.315 237.028 301.336 236.992 301.364 236.994L301.553 236.997C301.58 236.998 301.602 237.034 301.602 237.079C301.601 237.122 301.58 237.158 301.553 237.158ZM301.933 237.165H301.932L301.742 237.162C301.716 237.161 301.694 237.125 301.695 237.08C301.695 237.036 301.716 237.001 301.744 237.001L301.934 237.005C301.96 237.005 301.982 237.042 301.982 237.086C301.981 237.13 301.959 237.165 301.933 237.165Z" fill="#A89F53"/>
<path fill-rule="evenodd" clip-rule="evenodd" d="M302.222 237.143H302.221L302.06 237.141C302.016 237.14 301.98 237.103 301.98 237.059C301.982 237.015 302.017 236.973 302.062 236.98L302.223 236.981C302.267 236.983 302.303 237.019 302.303 237.063C302.301 237.107 302.265 237.143 302.222 237.143Z" fill="#A89F53"/>
<path fill-rule="evenodd" clip-rule="evenodd" d="M302.389 238.137C302.389 238.336 302.252 238.497 302.084 238.497C301.914 238.497 301.777 238.336 301.777 238.137V237.121C301.777 236.923 301.914 236.762 302.084 236.762C302.252 236.762 302.389 236.923 302.389 237.121V238.137Z" fill="#B5173E"/>
<path fill-rule="evenodd" clip-rule="evenodd" d="M282 241.171C282 242.089 282.709 242.832 283.584 242.832H284.903C285.777 242.832 286.485 242.089 286.485 241.171V236.256C286.485 235.338 285.777 234.594 284.903 234.594H283.584C282.709 234.594 282 235.338 282 236.256V241.171Z" fill="#FF4133"/>
<path fill-rule="evenodd" clip-rule="evenodd" d="M283.584 234.594H284.903C285.777 234.594 286.485 235.371 286.485 236.329V236.979H282V236.329C282 235.371 282.709 234.594 283.584 234.594Z" fill="#B5173E"/>
<path fill-rule="evenodd" clip-rule="evenodd" d="M282 237.413H284.65V236.762H282V237.413Z" fill="#EEEBC9"/>
<path fill-rule="evenodd" clip-rule="evenodd" d="M284.526 237.142C284.481 237.142 284.447 237.107 284.445 237.063C284.445 237.018 284.481 236.983 284.525 236.982L284.686 236.979C284.73 236.975 284.767 237.015 284.767 237.06C284.769 237.104 284.733 237.14 284.688 237.14L284.527 237.142H284.526Z" fill="#A89F53"/>
<path fill-rule="evenodd" clip-rule="evenodd" d="M284.209 237.144C284.182 237.144 284.16 237.109 284.16 237.064C284.16 237.02 284.182 236.984 284.209 236.984L284.398 236.979C284.425 236.98 284.447 237.015 284.447 237.058C284.447 237.103 284.426 237.14 284.4 237.14L284.209 237.144ZM283.829 237.15C283.802 237.15 283.781 237.116 283.78 237.071C283.78 237.027 283.801 236.991 283.828 236.99L284.018 236.987C284.044 236.98 284.066 237.021 284.066 237.066C284.067 237.11 284.046 237.146 284.019 237.147L283.83 237.15H283.829ZM283.449 237.158C283.423 237.158 283.4 237.122 283.4 237.079C283.4 237.034 283.421 236.998 283.448 236.997L283.638 236.994C283.664 236.992 283.687 237.028 283.687 237.074C283.687 237.116 283.666 237.155 283.639 237.155L283.449 237.158ZM283.068 237.165C283.042 237.165 283.021 237.13 283.02 237.086C283.02 237.042 283.041 237.005 283.068 237.005L283.258 237.001C283.283 237.001 283.307 237.036 283.307 237.08C283.307 237.125 283.286 237.161 283.259 237.162L283.069 237.165H283.068Z" fill="#A89F53"/>
<path fill-rule="evenodd" clip-rule="evenodd" d="M282.895 237.143C282.852 237.143 282.816 237.107 282.816 237.063C282.816 237.019 282.851 236.983 282.895 236.981L283.055 236.98C283.097 236.973 283.136 237.015 283.137 237.059C283.137 237.103 283.103 237.14 283.058 237.141L282.897 237.143H282.895Z" fill="#A89F53"/>
<path fill-rule="evenodd" clip-rule="evenodd" d="M282.406 238.137C282.406 238.336 282.543 238.497 282.712 238.497C282.881 238.497 283.018 238.336 283.018 238.137V237.121C283.018 236.923 282.881 236.762 282.712 236.762C282.543 236.762 282.406 236.923 282.406 237.121V238.137Z" fill="#B5173E"/>
<path fill-rule="evenodd" clip-rule="evenodd" d="M288.426 221.587C288.852 220.528 290.544 219.254 292.499 219.254C294.453 219.254 296.146 220.528 296.571 221.587H297.494C297.127 219.971 295.065 218.769 292.499 218.769C289.934 218.769 287.872 219.971 287.504 221.587H288.426Z" fill="#B5173E"/>
<path fill-rule="evenodd" clip-rule="evenodd" d="M300.147 243.257C300.147 244.22 299.417 245 298.516 245H286.284C285.383 245 284.652 244.22 284.652 243.257V224.757C284.652 221.814 287.16 221.371 288.061 221.371H296.844C297.745 221.371 300.147 222.025 300.147 224.757V243.257Z" fill="#FF4133"/>
<path fill-rule="evenodd" clip-rule="evenodd" d="M298.514 241.524C298.514 242.366 297.876 243.049 297.092 243.049H287.907C287.122 243.049 286.484 242.366 286.484 241.524V237.204C286.484 236.362 287.122 235.678 287.907 235.678H297.092C297.876 235.678 298.514 236.362 298.514 237.204V241.524Z" fill="#EA3663"/>
<path fill-rule="evenodd" clip-rule="evenodd" d="M285.059 244.415C285.316 244.708 285.671 244.92 286.078 245V222.021C285.682 222.264 285.322 222.596 285.059 223.046V244.415Z" fill="#B5173E"/>
<path fill-rule="evenodd" clip-rule="evenodd" d="M285.545 222.776H285.544C285.5 222.776 285.465 222.74 285.465 222.697V222.536C285.465 222.491 285.501 222.455 285.545 222.455C285.589 222.455 285.624 222.491 285.624 222.536V222.697C285.624 222.74 285.589 222.776 285.545 222.776Z" fill="#EEEBC9"/>
<path fill-rule="evenodd" clip-rule="evenodd" d="M285.58 223.178C285.535 223.178 285.499 223.157 285.499 223.131L285.501 222.937C285.501 222.91 285.535 222.888 285.58 222.888C285.624 222.888 285.66 222.91 285.66 222.937V223.131C285.66 223.157 285.624 223.178 285.58 223.178ZM285.58 223.567C285.534 223.567 285.499 223.545 285.499 223.519V223.325C285.499 223.298 285.535 223.276 285.58 223.276C285.624 223.276 285.659 223.298 285.659 223.325V223.519C285.659 223.545 285.624 223.567 285.58 223.567ZM285.578 223.954C285.534 223.954 285.498 223.933 285.498 223.907L285.499 223.713C285.499 223.686 285.534 223.664 285.578 223.664H285.58C285.624 223.664 285.659 223.686 285.659 223.713V223.907C285.659 223.933 285.623 223.954 285.578 223.954ZM285.578 224.343H285.577C285.532 224.343 285.496 224.321 285.496 224.294L285.498 224.101C285.498 224.074 285.534 224.052 285.578 224.052C285.623 224.052 285.659 224.074 285.658 224.101V224.294C285.658 224.321 285.623 224.343 285.578 224.343ZM285.577 224.731C285.532 224.731 285.496 224.709 285.496 224.683V224.488C285.496 224.462 285.532 224.44 285.577 224.44C285.623 224.44 285.658 224.462 285.658 224.488V224.683C285.658 224.709 285.621 224.731 285.577 224.731ZM285.576 225.119C285.532 225.119 285.496 225.098 285.496 225.071V224.876C285.496 224.85 285.532 224.828 285.577 224.828C285.621 224.828 285.658 224.85 285.658 224.876V225.071C285.656 225.098 285.621 225.119 285.576 225.119ZM285.576 225.507C285.532 225.507 285.496 225.485 285.496 225.459V225.265C285.496 225.238 285.532 225.217 285.576 225.217C285.621 225.217 285.656 225.238 285.656 225.265V225.459C285.656 225.486 285.621 225.507 285.576 225.507ZM285.576 225.895C285.532 225.895 285.495 225.873 285.495 225.847L285.496 225.653C285.496 225.626 285.532 225.605 285.576 225.605C285.62 225.605 285.656 225.626 285.656 225.653V225.847C285.656 225.873 285.62 225.895 285.576 225.895ZM285.574 226.284C285.53 226.284 285.495 226.261 285.495 226.235V226.041C285.495 226.014 285.53 225.992 285.576 225.992C285.619 225.992 285.655 226.014 285.655 226.041V226.235C285.655 226.261 285.619 226.284 285.574 226.284ZM285.574 226.671C285.53 226.671 285.494 226.65 285.494 226.623V226.429C285.494 226.402 285.53 226.381 285.574 226.381C285.619 226.381 285.655 226.402 285.655 226.429L285.654 226.623C285.654 226.65 285.619 226.671 285.574 226.671ZM285.574 227.059C285.529 227.059 285.492 227.037 285.492 227.011L285.494 226.817C285.494 226.79 285.53 226.769 285.574 226.769C285.617 226.769 285.654 226.79 285.654 226.817V227.011C285.654 227.037 285.617 227.059 285.574 227.059ZM285.572 227.447C285.529 227.447 285.492 227.426 285.492 227.399V227.205C285.492 227.178 285.529 227.157 285.572 227.157C285.617 227.157 285.654 227.178 285.654 227.205V227.399C285.654 227.426 285.617 227.447 285.572 227.447ZM285.572 227.836C285.528 227.835 285.491 227.813 285.491 227.787V227.593C285.492 227.566 285.528 227.545 285.572 227.545C285.617 227.545 285.654 227.566 285.652 227.593V227.787C285.652 227.814 285.616 227.836 285.572 227.836ZM285.572 228.224C285.527 228.224 285.491 228.201 285.491 228.175V227.981C285.491 227.954 285.527 227.934 285.572 227.934C285.616 227.934 285.652 227.954 285.652 227.981V228.175C285.651 228.201 285.616 228.224 285.572 228.224ZM285.57 228.612C285.526 228.612 285.491 228.59 285.491 228.563V228.369C285.491 228.342 285.527 228.321 285.572 228.321C285.616 228.321 285.651 228.342 285.651 228.369V228.563C285.651 228.59 285.614 228.612 285.57 228.612ZM285.57 229C285.525 229 285.49 228.978 285.49 228.951L285.491 228.757C285.491 228.731 285.526 228.708 285.57 228.708C285.614 228.709 285.651 228.731 285.65 228.757V228.951C285.65 228.978 285.614 229 285.57 229ZM285.57 229.387C285.524 229.387 285.488 229.365 285.488 229.339L285.49 229.145C285.49 229.118 285.525 229.098 285.57 229.098C285.614 229.098 285.65 229.119 285.65 229.145V229.339C285.65 229.365 285.614 229.387 285.57 229.387ZM285.569 229.775C285.524 229.775 285.488 229.753 285.488 229.727V229.533C285.488 229.506 285.524 229.485 285.569 229.485C285.614 229.485 285.65 229.506 285.65 229.533V229.727C285.65 229.753 285.614 229.775 285.569 229.775ZM285.568 230.163C285.524 230.163 285.487 230.142 285.487 230.115L285.488 229.922C285.488 229.894 285.524 229.873 285.569 229.873C285.612 229.873 285.648 229.894 285.648 229.922V230.115C285.648 230.142 285.612 230.163 285.568 230.163ZM285.568 230.552C285.523 230.552 285.487 230.53 285.487 230.503V230.309C285.487 230.282 285.523 230.261 285.568 230.261C285.612 230.261 285.648 230.282 285.648 230.309V230.503C285.648 230.53 285.612 230.552 285.568 230.552ZM285.567 230.94C285.521 230.94 285.487 230.918 285.487 230.891V230.697C285.487 230.67 285.523 230.649 285.568 230.649C285.612 230.649 285.648 230.67 285.648 230.697L285.647 230.891C285.647 230.918 285.611 230.94 285.567 230.94ZM285.566 231.327C285.521 231.327 285.486 231.305 285.486 231.279V231.085C285.486 231.059 285.521 231.037 285.566 231.037C285.611 231.037 285.647 231.059 285.647 231.085V231.279C285.647 231.305 285.611 231.327 285.566 231.327ZM285.566 231.715C285.521 231.715 285.485 231.694 285.485 231.667L285.486 231.473C285.486 231.446 285.521 231.425 285.566 231.425C285.611 231.425 285.647 231.446 285.645 231.473V231.667C285.645 231.694 285.609 231.715 285.566 231.715ZM285.564 232.104C285.521 232.104 285.484 232.082 285.484 232.055L285.485 231.861C285.485 231.834 285.521 231.813 285.564 231.813H285.566C285.609 231.813 285.645 231.835 285.645 231.861V232.055C285.645 232.082 285.609 232.104 285.564 232.104ZM285.564 232.491C285.519 232.491 285.483 232.47 285.483 232.443L285.484 232.249C285.484 232.223 285.521 232.201 285.564 232.201C285.608 232.201 285.645 232.223 285.645 232.249V232.443C285.645 232.47 285.608 232.491 285.564 232.491ZM285.563 232.879C285.519 232.879 285.482 232.858 285.482 232.831L285.483 232.637C285.483 232.611 285.519 232.589 285.563 232.589H285.564C285.608 232.589 285.645 232.611 285.645 232.638V232.831C285.645 232.858 285.608 232.879 285.563 232.879ZM285.563 233.268C285.518 233.268 285.482 233.246 285.482 233.219V233.025C285.482 232.999 285.519 232.977 285.563 232.977C285.608 232.977 285.645 232.999 285.645 233.025L285.644 233.219C285.644 233.246 285.608 233.268 285.563 233.268ZM285.563 233.656C285.518 233.655 285.482 233.634 285.482 233.608V233.414C285.482 233.387 285.518 233.365 285.563 233.365C285.608 233.365 285.644 233.387 285.644 233.414L285.643 233.608C285.643 233.634 285.606 233.656 285.563 233.656ZM285.563 234.044C285.516 234.044 285.481 234.022 285.481 233.995L285.482 233.802C285.482 233.775 285.518 233.753 285.563 233.753C285.606 233.753 285.642 233.775 285.642 233.802V233.996C285.642 234.022 285.606 234.044 285.563 234.044ZM285.561 234.432C285.516 234.432 285.481 234.41 285.481 234.383V234.19C285.481 234.163 285.516 234.142 285.561 234.142H285.563C285.606 234.142 285.642 234.163 285.642 234.19V234.383C285.642 234.41 285.605 234.432 285.561 234.432ZM285.561 234.82C285.516 234.82 285.481 234.798 285.481 234.772V234.578C285.481 234.551 285.516 234.529 285.561 234.529C285.605 234.53 285.642 234.552 285.642 234.578L285.64 234.772C285.64 234.798 285.605 234.82 285.561 234.82ZM285.56 235.208C285.515 235.208 285.481 235.186 285.481 235.16V234.966C285.481 234.939 285.516 234.917 285.56 234.917C285.605 234.917 285.64 234.939 285.64 234.966V235.16C285.64 235.186 285.603 235.208 285.56 235.208ZM285.56 235.596C285.515 235.596 285.479 235.574 285.479 235.547V235.354C285.479 235.327 285.515 235.305 285.56 235.305C285.603 235.305 285.64 235.327 285.64 235.354L285.639 235.547C285.639 235.574 285.603 235.596 285.56 235.596ZM285.558 235.984C285.514 235.984 285.479 235.963 285.479 235.936V235.741C285.479 235.715 285.515 235.693 285.558 235.693H285.56C285.603 235.693 285.639 235.715 285.639 235.741V235.936C285.639 235.963 285.603 235.984 285.558 235.984ZM285.558 236.372C285.512 236.372 285.477 236.351 285.477 236.324L285.479 236.13C285.479 236.103 285.514 236.081 285.558 236.081C285.603 236.081 285.639 236.103 285.639 236.13L285.637 236.324C285.637 236.351 285.603 236.372 285.558 236.372ZM285.557 236.76C285.512 236.76 285.477 236.739 285.477 236.712V236.518C285.477 236.491 285.512 236.47 285.557 236.47H285.558C285.603 236.47 285.637 236.491 285.637 236.518V236.712C285.637 236.739 285.601 236.76 285.557 236.76ZM285.557 237.148C285.511 237.148 285.477 237.127 285.477 237.1V236.905C285.477 236.879 285.512 236.858 285.557 236.858C285.601 236.858 285.637 236.879 285.637 236.905L285.635 237.1C285.635 237.127 285.601 237.148 285.557 237.148ZM285.555 237.536C285.511 237.536 285.475 237.514 285.477 237.488V237.293C285.477 237.268 285.511 237.246 285.555 237.246C285.601 237.246 285.635 237.268 285.635 237.294V237.488C285.635 237.515 285.6 237.536 285.555 237.536ZM285.555 237.924C285.511 237.924 285.475 237.903 285.475 237.876V237.682C285.475 237.656 285.511 237.633 285.555 237.633C285.6 237.633 285.635 237.656 285.635 237.682V237.876C285.635 237.903 285.6 237.924 285.555 237.924ZM285.554 238.312C285.51 238.312 285.475 238.29 285.475 238.264V238.07C285.475 238.043 285.511 238.021 285.555 238.021C285.6 238.021 285.635 238.043 285.634 238.07V238.264C285.634 238.29 285.6 238.312 285.554 238.312ZM285.554 238.7C285.51 238.7 285.473 238.678 285.473 238.652L285.475 238.458C285.475 238.431 285.51 238.409 285.554 238.409C285.598 238.41 285.634 238.432 285.634 238.458L285.633 238.652C285.633 238.678 285.598 238.7 285.554 238.7ZM285.554 239.088C285.508 239.088 285.473 239.067 285.473 239.04V238.846C285.473 238.819 285.508 238.797 285.554 238.797C285.598 238.798 285.633 238.819 285.633 238.846V239.04C285.633 239.067 285.597 239.088 285.554 239.088ZM285.552 239.476C285.508 239.476 285.472 239.454 285.472 239.428V239.234C285.472 239.207 285.508 239.186 285.554 239.186C285.597 239.186 285.633 239.207 285.633 239.234V239.428C285.633 239.454 285.597 239.476 285.552 239.476ZM285.552 239.865H285.551C285.506 239.865 285.47 239.842 285.472 239.816V239.622C285.472 239.595 285.508 239.574 285.552 239.574C285.597 239.574 285.633 239.595 285.633 239.622V239.816C285.633 239.842 285.596 239.865 285.552 239.865ZM285.551 240.253C285.506 240.253 285.47 240.231 285.47 240.204V240.01C285.47 239.983 285.506 239.961 285.551 239.961C285.596 239.961 285.632 239.983 285.632 240.01V240.204C285.632 240.231 285.596 240.253 285.551 240.253ZM285.551 240.641H285.55C285.506 240.64 285.47 240.619 285.47 240.592V240.398C285.47 240.371 285.506 240.35 285.551 240.35C285.596 240.35 285.632 240.371 285.631 240.398V240.592C285.63 240.619 285.594 240.641 285.551 240.641ZM285.55 241.029C285.505 241.029 285.47 241.006 285.47 240.98V240.786C285.47 240.76 285.506 240.738 285.55 240.738C285.594 240.738 285.63 240.76 285.63 240.786V240.98C285.63 241.006 285.594 241.029 285.55 241.029ZM285.548 241.416C285.504 241.416 285.469 241.395 285.469 241.368L285.47 241.174C285.47 241.147 285.505 241.126 285.55 241.126C285.594 241.126 285.63 241.148 285.63 241.174L285.629 241.368C285.629 241.395 285.594 241.416 285.548 241.416ZM285.548 241.804C285.504 241.804 285.469 241.783 285.469 241.756V241.562C285.469 241.535 285.504 241.514 285.548 241.514C285.594 241.514 285.629 241.535 285.629 241.562V241.756C285.629 241.783 285.593 241.804 285.548 241.804ZM285.548 242.193H285.547C285.504 242.193 285.467 242.171 285.467 242.144L285.468 241.95C285.468 241.923 285.504 241.902 285.548 241.902C285.593 241.902 285.629 241.923 285.629 241.95V242.144C285.629 242.171 285.592 242.193 285.548 242.193ZM285.547 242.581C285.503 242.581 285.467 242.559 285.467 242.532V242.339C285.467 242.311 285.504 242.29 285.547 242.29C285.592 242.29 285.627 242.311 285.627 242.339V242.532C285.627 242.559 285.592 242.581 285.547 242.581ZM285.547 242.969C285.503 242.969 285.467 242.947 285.467 242.92V242.727C285.467 242.7 285.503 242.679 285.547 242.679C285.592 242.679 285.627 242.7 285.627 242.727V242.92C285.627 242.947 285.592 242.969 285.547 242.969ZM285.546 243.357C285.501 243.357 285.465 243.335 285.465 243.308V243.115C285.467 243.088 285.503 243.066 285.547 243.066C285.592 243.066 285.627 243.088 285.627 243.115V243.308C285.627 243.335 285.59 243.357 285.546 243.357ZM285.546 243.745H285.544C285.501 243.745 285.465 243.723 285.465 243.696V243.502C285.465 243.476 285.501 243.454 285.546 243.454C285.59 243.454 285.627 243.476 285.627 243.502L285.625 243.696C285.625 243.723 285.59 243.745 285.546 243.745ZM285.544 244.133C285.501 244.133 285.465 244.111 285.465 244.084V243.89C285.465 243.864 285.501 243.843 285.544 243.843C285.59 243.843 285.625 243.864 285.625 243.891V244.084C285.625 244.111 285.588 244.133 285.544 244.133Z" fill="#EEEBC9"/>
<path fill-rule="evenodd" clip-rule="evenodd" d="M285.545 244.454C285.502 244.454 285.465 244.419 285.465 244.374V244.213C285.465 244.168 285.502 244.133 285.545 244.133C285.59 244.133 285.626 244.168 285.626 244.213V244.374C285.626 244.419 285.589 244.454 285.545 244.454Z" fill="#EEEBC9"/>
<path fill-rule="evenodd" clip-rule="evenodd" d="M299.941 244.415C299.684 244.708 299.328 244.92 298.922 245V222.021C299.317 222.264 299.679 222.596 299.941 223.046V244.415Z" fill="#B5173E"/>
<path fill-rule="evenodd" clip-rule="evenodd" d="M299.412 222.776C299.368 222.776 299.332 222.74 299.332 222.697V222.536C299.332 222.491 299.368 222.455 299.412 222.455C299.456 222.455 299.492 222.491 299.492 222.536L299.493 222.697C299.493 222.74 299.458 222.776 299.412 222.776Z" fill="#EEEBC9"/>
<path fill-rule="evenodd" clip-rule="evenodd" d="M299.413 223.178C299.368 223.178 299.332 223.157 299.332 223.131V222.937C299.332 222.91 299.368 222.888 299.412 222.888C299.458 222.888 299.493 222.91 299.493 222.937V223.131C299.493 223.157 299.458 223.178 299.413 223.178ZM299.413 223.567C299.369 223.567 299.332 223.545 299.332 223.519V223.325C299.332 223.298 299.368 223.276 299.413 223.276C299.458 223.276 299.493 223.298 299.493 223.325V223.519C299.493 223.545 299.458 223.567 299.413 223.567ZM299.414 223.954C299.37 223.954 299.335 223.933 299.335 223.907L299.334 223.713C299.334 223.686 299.369 223.664 299.414 223.664C299.458 223.664 299.493 223.686 299.493 223.713L299.495 223.907C299.495 223.933 299.458 223.954 299.414 223.954ZM299.414 224.343C299.37 224.343 299.335 224.321 299.335 224.294V224.101C299.335 224.074 299.37 224.052 299.414 224.052C299.458 224.052 299.495 224.074 299.495 224.101V224.294C299.495 224.321 299.46 224.343 299.416 224.343H299.414ZM299.416 224.731C299.371 224.731 299.335 224.709 299.335 224.683V224.488C299.335 224.462 299.371 224.44 299.416 224.44C299.46 224.44 299.495 224.462 299.495 224.488V224.683C299.495 224.709 299.46 224.731 299.416 224.731ZM299.416 225.119C299.371 225.119 299.336 225.098 299.336 225.071L299.335 224.876C299.335 224.85 299.371 224.828 299.416 224.828C299.46 224.828 299.497 224.85 299.497 224.876V225.071C299.497 225.098 299.461 225.119 299.416 225.119ZM299.416 225.507C299.373 225.507 299.336 225.486 299.336 225.459V225.265C299.336 225.238 299.371 225.217 299.416 225.217C299.461 225.217 299.497 225.238 299.497 225.265L299.498 225.459C299.498 225.485 299.461 225.507 299.416 225.507ZM299.416 225.895C299.373 225.895 299.337 225.873 299.337 225.847L299.336 225.653C299.336 225.626 299.373 225.605 299.416 225.605C299.461 225.605 299.498 225.626 299.498 225.653V225.847C299.498 225.873 299.462 225.895 299.418 225.895H299.416ZM299.418 226.284C299.374 226.284 299.338 226.261 299.338 226.235L299.337 226.041C299.337 226.014 299.374 225.992 299.418 225.992C299.462 225.992 299.498 226.014 299.498 226.041L299.499 226.235C299.499 226.261 299.463 226.284 299.418 226.284ZM299.418 226.671C299.374 226.671 299.339 226.65 299.339 226.623L299.338 226.429C299.338 226.402 299.374 226.381 299.418 226.381C299.463 226.381 299.499 226.402 299.499 226.429V226.623C299.499 226.65 299.463 226.671 299.418 226.671ZM299.419 227.059C299.376 227.059 299.339 227.037 299.339 227.011V226.817C299.339 226.79 299.374 226.769 299.418 226.769C299.463 226.769 299.499 226.79 299.499 226.817V227.011C299.5 227.037 299.464 227.059 299.419 227.059ZM299.419 227.447C299.376 227.447 299.34 227.426 299.34 227.399L299.339 227.205C299.339 227.178 299.376 227.157 299.419 227.157C299.464 227.157 299.5 227.178 299.5 227.205V227.399C299.5 227.426 299.465 227.447 299.419 227.447ZM299.421 227.836C299.376 227.836 299.34 227.814 299.34 227.787V227.593C299.34 227.566 299.376 227.545 299.421 227.545C299.465 227.545 299.5 227.566 299.5 227.593L299.501 227.787C299.501 227.813 299.465 227.835 299.421 227.836ZM299.421 228.224C299.376 228.224 299.34 228.201 299.34 228.175V227.981C299.34 227.954 299.376 227.934 299.421 227.934C299.465 227.934 299.501 227.954 299.501 227.981V228.175C299.501 228.201 299.465 228.224 299.421 228.224ZM299.422 228.612C299.377 228.612 299.342 228.59 299.342 228.563V228.369C299.342 228.342 299.377 228.321 299.422 228.321C299.467 228.321 299.501 228.342 299.501 228.369V228.563C299.501 228.59 299.467 228.612 299.422 228.612ZM299.423 229C299.378 229 299.342 228.978 299.342 228.951V228.757C299.342 228.731 299.378 228.709 299.422 228.708C299.467 228.708 299.503 228.731 299.503 228.757V228.951C299.503 228.978 299.467 229 299.423 229ZM299.424 229.387C299.379 229.387 299.343 229.365 299.343 229.339V229.145C299.343 229.119 299.378 229.098 299.423 229.098C299.467 229.098 299.503 229.118 299.503 229.145V229.339C299.503 229.365 299.467 229.387 299.424 229.387ZM299.424 229.775C299.379 229.775 299.344 229.753 299.344 229.727L299.343 229.533C299.343 229.506 299.379 229.485 299.424 229.485C299.467 229.485 299.503 229.506 299.504 229.533V229.727C299.504 229.753 299.467 229.775 299.424 229.775ZM299.425 230.163C299.38 230.163 299.344 230.142 299.344 230.115V229.922C299.344 229.894 299.379 229.873 299.424 229.873C299.467 229.873 299.504 229.894 299.504 229.922L299.506 230.115C299.506 230.142 299.469 230.163 299.425 230.163ZM299.425 230.552C299.38 230.552 299.344 230.53 299.344 230.503V230.309C299.344 230.282 299.38 230.261 299.425 230.261C299.469 230.261 299.506 230.282 299.506 230.309V230.503C299.506 230.53 299.469 230.552 299.425 230.552ZM299.426 230.94C299.382 230.94 299.345 230.918 299.344 230.891V230.697C299.344 230.67 299.38 230.649 299.425 230.649C299.469 230.649 299.506 230.67 299.507 230.697V230.891C299.507 230.918 299.47 230.94 299.426 230.94ZM299.426 231.327C299.382 231.327 299.345 231.305 299.345 231.279V231.085C299.345 231.059 299.382 231.037 299.426 231.037C299.47 231.037 299.507 231.059 299.507 231.085V231.279C299.507 231.305 299.47 231.327 299.426 231.327ZM299.427 231.715C299.383 231.715 299.347 231.694 299.347 231.667L299.346 231.473C299.346 231.446 299.382 231.425 299.427 231.425C299.47 231.425 299.507 231.446 299.507 231.473V231.667C299.507 231.694 299.47 231.715 299.427 231.715ZM299.427 232.104C299.383 232.104 299.347 232.082 299.347 232.055V231.861C299.347 231.835 299.383 231.813 299.427 231.813C299.472 231.813 299.507 231.834 299.507 231.861L299.508 232.055C299.508 232.082 299.473 232.104 299.427 232.104ZM299.429 232.491C299.383 232.491 299.347 232.47 299.347 232.443V232.249C299.347 232.223 299.383 232.201 299.427 232.201C299.473 232.201 299.508 232.223 299.508 232.249V232.443C299.508 232.47 299.473 232.491 299.429 232.491ZM299.429 232.879C299.384 232.879 299.348 232.858 299.348 232.831V232.638C299.348 232.611 299.384 232.589 299.429 232.589C299.473 232.589 299.509 232.611 299.509 232.637V232.831C299.509 232.858 299.473 232.879 299.429 232.879ZM299.43 233.268C299.384 233.268 299.35 233.246 299.35 233.219L299.349 233.025C299.349 232.999 299.384 232.977 299.429 232.977C299.474 232.977 299.509 232.999 299.509 233.025V233.219C299.509 233.246 299.474 233.268 299.43 233.268ZM299.43 233.656C299.386 233.656 299.35 233.634 299.35 233.608V233.414C299.35 233.387 299.386 233.365 299.43 233.365C299.475 233.365 299.509 233.387 299.511 233.414V233.608C299.511 233.634 299.475 233.655 299.43 233.656ZM299.431 234.044C299.386 234.044 299.351 234.022 299.351 233.996L299.35 233.802C299.35 233.775 299.386 233.753 299.431 233.753C299.475 233.753 299.511 233.775 299.511 233.802V233.995C299.511 234.022 299.475 234.044 299.431 234.044ZM299.431 234.432C299.387 234.432 299.351 234.41 299.351 234.383V234.19C299.351 234.163 299.386 234.142 299.431 234.142C299.476 234.142 299.511 234.163 299.511 234.19V234.383C299.512 234.41 299.476 234.432 299.431 234.432ZM299.431 234.82C299.387 234.82 299.352 234.798 299.352 234.772L299.351 234.578C299.351 234.552 299.387 234.53 299.431 234.529C299.476 234.529 299.512 234.551 299.512 234.578V234.772C299.512 234.798 299.476 234.82 299.432 234.82H299.431ZM299.433 235.208C299.389 235.208 299.352 235.186 299.352 235.16V234.966C299.352 234.939 299.388 234.917 299.432 234.917C299.476 234.917 299.512 234.939 299.512 234.966L299.513 235.16C299.513 235.186 299.478 235.208 299.433 235.208ZM299.434 235.596C299.39 235.596 299.352 235.574 299.352 235.547V235.354C299.352 235.327 299.389 235.305 299.433 235.305C299.478 235.305 299.513 235.327 299.513 235.354V235.547C299.513 235.574 299.478 235.596 299.434 235.596ZM299.434 235.984C299.39 235.984 299.354 235.963 299.354 235.936L299.352 235.741C299.352 235.715 299.39 235.693 299.434 235.693C299.478 235.693 299.515 235.715 299.515 235.741V235.936C299.515 235.963 299.478 235.984 299.434 235.984ZM299.434 236.372C299.39 236.372 299.354 236.351 299.354 236.324V236.13C299.354 236.103 299.39 236.081 299.434 236.081C299.478 236.081 299.515 236.103 299.515 236.13V236.324C299.515 236.351 299.478 236.372 299.434 236.372ZM299.436 236.76C299.392 236.76 299.355 236.739 299.355 236.712V236.518C299.354 236.491 299.39 236.47 299.434 236.47H299.436C299.478 236.47 299.515 236.491 299.515 236.518L299.516 236.712C299.516 236.739 299.479 236.76 299.436 236.76ZM299.436 237.148C299.392 237.148 299.356 237.127 299.356 237.1L299.355 236.905C299.355 236.879 299.392 236.858 299.436 236.858C299.479 236.858 299.516 236.879 299.516 236.905V237.1C299.516 237.127 299.479 237.148 299.436 237.148ZM299.436 237.536C299.392 237.536 299.356 237.515 299.356 237.488V237.294C299.356 237.268 299.392 237.246 299.436 237.246C299.479 237.246 299.516 237.268 299.517 237.293V237.488C299.517 237.514 299.481 237.536 299.436 237.536ZM299.436 237.924C299.392 237.924 299.356 237.903 299.356 237.876V237.682C299.356 237.656 299.392 237.633 299.436 237.633C299.481 237.633 299.518 237.656 299.518 237.682V237.876C299.518 237.903 299.481 237.924 299.436 237.924ZM299.438 238.312C299.394 238.312 299.358 238.29 299.358 238.264L299.356 238.07C299.356 238.043 299.392 238.021 299.436 238.021H299.438C299.482 238.021 299.518 238.043 299.518 238.07V238.264C299.518 238.29 299.483 238.312 299.438 238.312ZM299.438 238.7C299.394 238.7 299.358 238.678 299.358 238.652V238.458C299.358 238.432 299.394 238.41 299.438 238.409C299.483 238.409 299.518 238.431 299.518 238.458V238.652C299.518 238.678 299.483 238.7 299.438 238.7ZM299.439 239.088C299.394 239.088 299.359 239.067 299.359 239.04L299.358 238.846C299.358 238.819 299.394 238.798 299.439 238.797C299.483 238.797 299.518 238.819 299.518 238.846V239.04C299.518 239.067 299.484 239.088 299.439 239.088ZM299.44 239.476C299.396 239.476 299.36 239.454 299.359 239.428V239.234C299.359 239.207 299.396 239.186 299.44 239.186C299.484 239.186 299.518 239.207 299.518 239.234L299.52 239.428C299.52 239.454 299.484 239.476 299.44 239.476ZM299.441 239.865C299.397 239.865 299.36 239.842 299.36 239.816V239.622C299.36 239.595 299.396 239.574 299.44 239.574C299.486 239.574 299.52 239.595 299.52 239.622V239.816C299.52 239.842 299.486 239.865 299.441 239.865ZM299.441 240.253C299.397 240.253 299.36 240.231 299.36 240.204V240.01C299.36 239.983 299.397 239.961 299.441 239.961C299.486 239.961 299.521 239.983 299.521 240.01V240.204C299.521 240.231 299.486 240.253 299.441 240.253ZM299.442 240.641C299.398 240.641 299.362 240.619 299.362 240.592L299.36 240.398C299.36 240.371 299.397 240.35 299.441 240.35H299.442C299.486 240.35 299.521 240.371 299.521 240.398L299.523 240.592C299.523 240.619 299.487 240.64 299.442 240.641ZM299.442 241.029C299.398 241.029 299.363 241.006 299.362 240.98V240.786C299.362 240.76 299.398 240.738 299.442 240.738C299.487 240.738 299.523 240.76 299.523 240.786V240.98C299.523 241.006 299.487 241.029 299.443 241.029H299.442ZM299.443 241.416C299.398 241.416 299.363 241.395 299.363 241.368V241.174C299.363 241.147 299.398 241.126 299.443 241.126C299.487 241.126 299.523 241.147 299.523 241.174V241.368C299.523 241.395 299.487 241.416 299.443 241.416ZM299.444 241.804C299.399 241.804 299.363 241.783 299.363 241.756V241.562C299.363 241.535 299.398 241.514 299.444 241.514C299.487 241.514 299.523 241.535 299.523 241.562L299.524 241.756C299.524 241.783 299.487 241.804 299.444 241.804ZM299.445 242.193C299.401 242.193 299.365 242.171 299.365 242.144L299.363 241.95C299.363 241.923 299.399 241.902 299.444 241.902H299.445C299.487 241.902 299.524 241.923 299.524 241.95V242.144C299.526 242.171 299.489 242.193 299.445 242.193ZM299.445 242.581C299.401 242.581 299.365 242.559 299.365 242.532V242.339C299.365 242.311 299.401 242.29 299.445 242.29C299.489 242.29 299.526 242.311 299.526 242.339V242.532C299.526 242.559 299.489 242.581 299.445 242.581ZM299.445 242.969C299.402 242.969 299.365 242.947 299.365 242.92V242.727C299.365 242.7 299.401 242.679 299.445 242.679C299.489 242.679 299.526 242.7 299.526 242.727V242.92C299.526 242.947 299.491 242.969 299.445 242.969ZM299.447 243.357C299.402 243.357 299.365 243.335 299.365 243.308V243.115C299.365 243.088 299.402 243.066 299.447 243.066C299.491 243.066 299.526 243.088 299.526 243.115L299.527 243.308C299.527 243.335 299.491 243.357 299.447 243.357ZM299.447 243.745C299.402 243.745 299.366 243.723 299.366 243.696V243.502C299.365 243.476 299.402 243.454 299.447 243.454C299.491 243.454 299.527 243.476 299.527 243.502V243.696C299.527 243.723 299.491 243.745 299.447 243.745ZM299.447 244.133C299.404 244.133 299.368 244.111 299.368 244.084L299.367 243.891C299.367 243.864 299.404 243.843 299.447 243.843C299.491 243.843 299.527 243.864 299.527 243.89L299.529 244.084C299.529 244.111 299.492 244.133 299.447 244.133Z" fill="#EEEBC9"/>
<path fill-rule="evenodd" clip-rule="evenodd" d="M299.411 244.454C299.368 244.454 299.332 244.419 299.332 244.374V244.213C299.332 244.168 299.368 244.133 299.411 244.133C299.456 244.133 299.493 244.168 299.493 244.213V244.374C299.493 244.419 299.457 244.454 299.411 244.454Z" fill="#EEEBC9"/>
<path fill-rule="evenodd" clip-rule="evenodd" d="M286.484 238.063H298.514V237.413H286.484V238.063Z" fill="#EEEBC9"/>
<path fill-rule="evenodd" clip-rule="evenodd" d="M286.928 238.008L286.767 238.007C286.723 238.007 286.688 237.97 286.688 237.926C286.688 237.882 286.723 237.846 286.767 237.846H286.928C286.974 237.846 287.008 237.882 287.008 237.927C287.008 237.971 286.972 238.008 286.928 238.008Z" fill="#A89F53"/>
<path fill-rule="evenodd" clip-rule="evenodd" d="M287.124 238.008H286.94C286.915 238.008 286.895 237.972 286.895 237.927C286.895 237.883 286.915 237.846 286.94 237.846L287.124 237.847C287.149 237.847 287.17 237.884 287.17 237.928C287.17 237.972 287.149 238.008 287.124 238.008ZM287.493 238.009L287.309 238.008C287.284 238.008 287.264 237.973 287.264 237.929C287.264 237.884 287.284 237.848 287.309 237.848H287.493C287.519 237.849 287.538 237.884 287.538 237.929C287.538 237.973 287.518 238.009 287.493 238.009ZM287.862 238.011L287.678 238.009C287.652 238.009 287.632 237.974 287.632 237.93C287.633 237.884 287.652 237.849 287.678 237.849L287.862 237.851C287.887 237.851 287.908 237.885 287.908 237.93C287.908 237.974 287.887 238.011 287.862 238.011ZM288.231 238.012H288.046C288.022 238.012 288.001 237.975 288.001 237.93C288.001 237.886 288.022 237.851 288.046 237.851H288.231C288.256 237.851 288.277 237.887 288.277 237.932C288.277 237.976 288.256 238.012 288.231 238.012ZM288.6 238.014L288.416 238.012C288.39 238.012 288.371 237.976 288.371 237.932C288.371 237.887 288.393 237.856 288.416 237.851L288.6 237.852C288.625 237.852 288.645 237.889 288.645 237.932C288.645 237.977 288.625 238.014 288.6 238.014ZM288.969 238.014H288.784C288.759 238.014 288.739 237.977 288.739 237.933C288.739 237.889 288.759 237.852 288.784 237.852H288.785L288.969 237.853C288.994 237.853 289.014 237.89 289.014 237.934C289.014 237.978 288.994 238.014 288.969 238.014ZM289.337 238.015H289.152C289.128 238.015 289.108 237.978 289.108 237.934C289.108 237.89 289.128 237.853 289.152 237.853H289.153L289.337 237.854C289.363 237.854 289.383 237.89 289.383 237.935C289.383 237.979 289.363 238.015 289.337 238.015ZM289.707 238.017H289.706L289.522 238.016C289.497 238.016 289.476 237.979 289.476 237.935C289.476 237.891 289.498 237.856 289.522 237.854L289.707 237.856C289.732 237.856 289.752 237.892 289.752 237.936C289.752 237.98 289.732 238.017 289.707 238.017ZM290.074 238.018H289.891C289.865 238.018 289.845 237.981 289.845 237.936C289.845 237.892 289.866 237.856 289.891 237.856H290.075C290.101 237.856 290.121 237.892 290.12 237.938C290.12 237.983 290.101 238.018 290.074 238.018ZM290.444 238.018H290.259C290.235 238.018 290.214 237.983 290.214 237.938C290.214 237.893 290.235 237.857 290.26 237.857L290.444 237.858C290.469 237.858 290.49 237.894 290.49 237.938C290.49 237.983 290.469 238.018 290.444 238.018ZM290.813 238.019H290.628C290.603 238.019 290.583 237.983 290.583 237.938C290.583 237.894 290.603 237.856 290.629 237.859L290.813 237.86C290.838 237.86 290.858 237.895 290.858 237.939C290.858 237.984 290.838 238.019 290.813 238.019ZM291.182 238.022L290.997 238.02C290.972 238.02 290.952 237.984 290.952 237.941C290.952 237.895 290.972 237.86 290.997 237.86H291.182C291.207 237.86 291.227 237.896 291.227 237.941C291.227 237.985 291.207 238.022 291.182 238.022ZM291.55 238.022H291.366C291.341 238.022 291.321 237.987 291.321 237.942C291.321 237.896 291.341 237.861 291.366 237.861H291.551C291.576 237.861 291.596 237.898 291.596 237.942C291.596 237.987 291.576 238.022 291.55 238.022ZM291.919 238.024L291.735 238.023C291.71 238.023 291.69 237.987 291.69 237.942C291.69 237.898 291.708 237.856 291.735 237.863H291.919C291.945 237.863 291.965 237.899 291.965 237.944C291.965 237.988 291.944 238.024 291.919 238.024ZM292.288 238.024H292.104C292.079 238.024 292.058 237.988 292.058 237.944C292.058 237.899 292.079 237.864 292.104 237.864L292.288 237.865C292.313 237.865 292.334 237.901 292.334 237.945C292.333 237.989 292.313 238.024 292.288 238.024ZM292.657 238.026H292.472C292.447 238.026 292.428 237.989 292.428 237.945C292.428 237.901 292.447 237.865 292.472 237.865H292.657C292.682 237.865 292.702 237.902 292.702 237.946C292.702 237.99 292.682 238.026 292.657 238.026ZM293.026 238.028L292.842 238.027C292.816 238.027 292.796 237.99 292.796 237.946C292.796 237.903 292.816 237.866 292.842 237.866L293.026 237.867C293.051 237.867 293.071 237.903 293.071 237.947C293.071 237.991 293.05 238.028 293.026 238.028ZM293.394 238.028H293.21C293.184 238.028 293.164 237.992 293.165 237.947C293.165 237.903 293.185 237.867 293.21 237.867H293.395C293.42 237.867 293.44 237.903 293.44 237.949C293.44 237.993 293.42 238.028 293.394 238.028ZM293.763 238.029H293.579C293.554 238.029 293.533 237.994 293.533 237.949C293.533 237.905 293.554 237.868 293.579 237.868L293.764 237.87C293.789 237.87 293.809 237.905 293.809 237.949C293.809 237.994 293.789 238.029 293.763 238.029ZM294.132 238.031L293.947 238.03C293.923 238.03 293.903 237.994 293.903 237.951C293.903 237.906 293.923 237.87 293.947 237.87H294.132C294.158 237.87 294.177 237.906 294.177 237.951C294.177 237.994 294.158 238.031 294.132 238.031ZM294.501 238.033H294.317C294.291 238.033 294.271 237.994 294.271 237.951C294.271 237.907 294.291 237.87 294.317 237.87L294.501 237.872C294.526 237.872 294.547 237.907 294.547 237.951C294.547 237.996 294.526 238.033 294.501 238.033ZM294.87 238.033H294.686C294.661 238.033 294.64 237.998 294.64 237.952C294.64 237.907 294.661 237.872 294.686 237.872H294.87C294.895 237.873 294.915 237.908 294.915 237.953C294.915 237.998 294.895 238.033 294.87 238.033ZM295.238 238.035L295.054 238.033C295.029 238.033 295.009 237.998 295.009 237.955C295.009 237.909 295.029 237.873 295.054 237.873L295.239 237.874C295.263 237.874 295.284 237.91 295.284 237.955C295.284 237.999 295.263 238.035 295.238 238.035ZM295.608 238.035H295.607H295.423C295.398 238.035 295.378 237.999 295.378 237.955C295.378 237.91 295.398 237.874 295.423 237.874H295.608C295.633 237.874 295.653 237.911 295.653 237.956C295.653 237.999 295.633 238.035 295.608 238.035ZM295.976 238.037H295.792C295.767 238.037 295.746 237.999 295.746 237.956C295.746 237.911 295.767 237.874 295.792 237.874L295.976 237.876C296.001 237.876 296.022 237.913 296.022 237.957C296.022 238.001 296.001 238.037 295.976 238.037ZM296.345 238.039L296.16 238.037C296.135 238.037 296.115 238.001 296.115 237.957C296.115 237.913 296.135 237.876 296.16 237.876H296.161L296.346 237.877C296.37 237.878 296.391 237.913 296.391 237.957C296.391 238.002 296.37 238.039 296.345 238.039ZM296.714 238.039H296.529C296.504 238.039 296.484 238.002 296.484 237.958C296.484 237.913 296.505 237.878 296.53 237.878H296.714C296.739 237.879 296.76 237.915 296.76 237.96C296.76 238.004 296.739 238.039 296.714 238.039ZM297.083 238.041H296.898C296.873 238.041 296.853 238.004 296.853 237.96C296.853 237.915 296.873 237.879 296.899 237.879H297.083C297.108 237.88 297.129 237.915 297.129 237.961C297.129 238.004 297.108 238.041 297.083 238.041ZM297.452 238.042L297.267 238.041C297.242 238.041 297.222 238.005 297.222 237.961C297.222 237.916 297.242 237.88 297.267 237.88H297.268H297.452C297.477 237.88 297.496 237.917 297.496 237.961C297.496 238.007 297.477 238.042 297.452 238.042Z" fill="#A89F53"/>
<path fill-rule="evenodd" clip-rule="evenodd" d="M297.737 238.007H297.736L297.576 238.006C297.532 238.006 297.496 237.971 297.496 237.926C297.497 237.881 297.532 237.846 297.577 237.846H297.737C297.782 237.846 297.818 237.881 297.818 237.926C297.818 237.971 297.782 238.007 297.737 238.007Z" fill="#A89F53"/>
<path fill-rule="evenodd" clip-rule="evenodd" d="M297.905 239.004C297.905 239.202 297.767 239.364 297.6 239.364C297.43 239.364 297.293 239.202 297.293 239.004V237.989C297.293 237.79 297.43 237.629 297.6 237.629C297.767 237.629 297.905 237.79 297.905 237.989V239.004Z" fill="#B5173E"/>
<path fill-rule="evenodd" clip-rule="evenodd" d="M298.514 225.269C298.514 224.314 297.785 223.538 296.886 223.538H288.112C287.213 223.538 286.484 224.314 286.484 225.269V232.864C286.484 233.82 287.213 234.594 288.112 234.594H296.886C297.785 234.594 298.514 233.82 298.514 232.864V225.269Z" fill="#EA3663"/>
<path fill-rule="evenodd" clip-rule="evenodd" d="M286.484 226.357H298.514V225.706H286.484V226.357Z" fill="#EEEBC9"/>
<path fill-rule="evenodd" clip-rule="evenodd" d="M286.929 226.084H286.928L286.768 226.083C286.724 226.083 286.688 226.048 286.688 226.003C286.688 225.958 286.724 225.923 286.768 225.923H286.929C286.972 225.923 287.009 225.959 287.009 226.003C287.009 226.048 286.972 226.084 286.929 226.084Z" fill="#A6A27D"/>
<path fill-rule="evenodd" clip-rule="evenodd" d="M287.124 226.085H287.123L286.939 226.084C286.914 226.084 286.895 226.048 286.895 226.004C286.895 225.959 286.914 225.923 286.939 225.923L287.124 225.924C287.149 225.924 287.169 225.96 287.169 226.004C287.169 226.049 287.149 226.085 287.124 226.085ZM287.493 226.086H287.308C287.283 226.086 287.263 226.049 287.263 226.004C287.263 225.96 287.283 225.924 287.308 225.924L287.493 225.925C287.518 225.925 287.538 225.961 287.538 226.005C287.538 226.05 287.518 226.086 287.493 226.086ZM287.862 226.087H287.677C287.652 226.087 287.631 226.05 287.632 226.006C287.632 225.961 287.653 225.927 287.677 225.927H287.862C287.887 225.927 287.907 225.963 287.907 226.006C287.907 226.052 287.887 226.087 287.862 226.087ZM288.23 226.088H288.046C288.021 226.088 288.001 226.052 288.001 226.007C288.001 225.963 288.021 225.927 288.046 225.927H288.23C288.255 225.927 288.276 225.963 288.276 226.007C288.276 226.052 288.255 226.088 288.23 226.088ZM288.599 226.089H288.415C288.389 226.089 288.37 226.052 288.37 226.009C288.37 225.963 288.389 225.927 288.415 225.927L288.599 225.928C288.625 225.929 288.644 225.965 288.644 226.009C288.644 226.053 288.625 226.089 288.599 226.089ZM288.968 226.091H288.783C288.759 226.091 288.738 226.054 288.738 226.009C288.738 225.965 288.759 225.929 288.783 225.929L288.968 225.93C288.993 225.93 289.013 225.965 289.013 226.009C289.013 226.054 288.992 226.091 288.968 226.091ZM289.337 226.092L289.153 226.091C289.127 226.091 289.107 226.056 289.107 226.01C289.107 225.966 289.127 225.931 289.153 225.931H289.337C289.362 225.931 289.382 225.967 289.382 226.011C289.382 226.056 289.362 226.092 289.337 226.092ZM289.705 226.093L289.521 226.092C289.496 226.092 289.476 226.056 289.476 226.012C289.476 225.967 289.496 225.931 289.521 225.931L289.705 225.932C289.731 225.932 289.751 225.968 289.75 226.013C289.75 226.057 289.731 226.093 289.705 226.093ZM290.074 226.095L289.89 226.093C289.865 226.093 289.845 226.057 289.845 226.013C289.845 225.969 289.866 225.933 289.89 225.933H290.075C290.099 225.933 290.12 225.969 290.12 226.014C290.12 226.058 290.099 226.095 290.074 226.095ZM290.443 226.095H290.259C290.234 226.095 290.213 226.058 290.213 226.015C290.213 225.969 290.234 225.934 290.259 225.934L290.443 225.935C290.469 225.935 290.489 225.97 290.489 226.015C290.489 226.06 290.469 226.095 290.443 226.095ZM290.812 226.097L290.628 226.095C290.603 226.095 290.582 226.06 290.582 226.015C290.582 225.971 290.603 225.935 290.628 225.935L290.812 225.936C290.838 225.936 290.857 225.972 290.857 226.017C290.857 226.062 290.838 226.097 290.812 226.097ZM291.181 226.097H290.996C290.971 226.097 290.951 226.062 290.951 226.017C290.951 225.973 290.971 225.936 290.997 225.936L291.181 225.937C291.206 225.937 291.226 225.973 291.226 226.018C291.226 226.062 291.206 226.097 291.181 226.097ZM291.55 226.099H291.365C291.34 226.098 291.32 226.062 291.32 226.018C291.32 225.974 291.34 225.937 291.365 225.937L291.55 225.938C291.575 225.938 291.596 225.974 291.596 226.019C291.596 226.064 291.575 226.099 291.55 226.099ZM291.918 226.1H291.734C291.71 226.1 291.689 226.064 291.689 226.019C291.689 225.974 291.71 225.938 291.734 225.938L291.918 225.939C291.944 225.939 291.964 225.976 291.964 226.02C291.964 226.064 291.944 226.1 291.918 226.1ZM292.288 226.101L292.103 226.1C292.078 226.1 292.058 226.064 292.058 226.021C292.058 225.976 292.078 225.94 292.103 225.94H292.288C292.312 225.94 292.333 225.976 292.333 226.021C292.333 226.066 292.312 226.101 292.288 226.101ZM292.656 226.103L292.472 226.102C292.447 226.102 292.427 226.067 292.427 226.021C292.427 225.977 292.447 225.941 292.472 225.941H292.656C292.681 225.941 292.702 225.978 292.702 226.022C292.702 226.067 292.681 226.103 292.656 226.103ZM293.025 226.104L292.841 226.103C292.815 226.103 292.795 226.067 292.795 226.022C292.796 225.98 292.815 225.942 292.841 225.942H293.025C293.05 225.942 293.07 225.98 293.07 226.024C293.07 226.067 293.05 226.104 293.025 226.104ZM293.394 226.105L293.21 226.104C293.185 226.104 293.164 226.067 293.165 226.025C293.165 225.98 293.185 225.942 293.21 225.942L293.394 225.944C293.419 225.944 293.44 225.981 293.44 226.025C293.439 226.069 293.419 226.105 293.394 226.105ZM293.762 226.106L293.579 226.105C293.553 226.105 293.533 226.069 293.533 226.025C293.533 225.981 293.553 225.945 293.579 225.945H293.762C293.788 225.945 293.808 225.982 293.808 226.026C293.808 226.07 293.788 226.106 293.762 226.106ZM294.132 226.108L293.947 226.106C293.922 226.106 293.902 226.07 293.902 226.026C293.902 225.982 293.922 225.947 293.947 225.947H294.132C294.156 225.947 294.177 225.983 294.177 226.027C294.177 226.071 294.156 226.108 294.132 226.108ZM294.5 226.109L294.316 226.108C294.291 226.108 294.271 226.071 294.271 226.027C294.271 225.983 294.291 225.947 294.316 225.947L294.5 225.948C294.526 225.948 294.545 225.984 294.545 226.028C294.545 226.073 294.525 226.109 294.5 226.109ZM294.87 226.11H294.685C294.66 226.11 294.639 226.073 294.64 226.028C294.64 225.984 294.66 225.949 294.685 225.949H294.87C294.895 225.949 294.914 225.985 294.914 226.029C294.914 226.074 294.895 226.11 294.87 226.11ZM295.238 226.11H295.053C295.028 226.11 295.009 226.074 295.009 226.03C295.009 225.985 295.028 225.949 295.053 225.949L295.238 225.95C295.263 225.95 295.284 225.986 295.284 226.031C295.284 226.074 295.263 226.11 295.238 226.11ZM295.607 226.112H295.423C295.398 226.112 295.377 226.076 295.377 226.031C295.377 225.986 295.398 225.951 295.423 225.951L295.607 225.952C295.632 225.952 295.653 225.987 295.653 226.032C295.653 226.077 295.632 226.112 295.607 226.112ZM295.975 226.114L295.791 226.113C295.766 226.113 295.746 226.077 295.746 226.033C295.746 225.988 295.769 225.957 295.792 225.952H295.975C296.002 225.952 296.021 225.988 296.021 226.033C296.021 226.077 296.001 226.114 295.975 226.114ZM296.344 226.115L296.159 226.114C296.135 226.114 296.115 226.078 296.115 226.033C296.115 225.989 296.135 225.953 296.16 225.953H296.344C296.37 225.953 296.391 225.99 296.39 226.035C296.39 226.078 296.369 226.115 296.344 226.115ZM296.714 226.116L296.529 226.115C296.504 226.115 296.483 226.079 296.483 226.035C296.483 225.99 296.504 225.955 296.529 225.955H296.714C296.739 225.955 296.759 225.991 296.759 226.036C296.759 226.08 296.739 226.116 296.714 226.116ZM297.082 226.117L296.898 226.116C296.872 226.116 296.853 226.08 296.853 226.036C296.853 225.991 296.874 225.957 296.898 225.955L297.082 225.956C297.108 225.956 297.128 225.992 297.128 226.037C297.128 226.081 297.108 226.117 297.082 226.117ZM297.451 226.119L297.266 226.118C297.242 226.118 297.222 226.081 297.222 226.037C297.222 225.992 297.242 225.956 297.266 225.956H297.267L297.451 225.957C297.476 225.957 297.496 225.994 297.496 226.038C297.496 226.082 297.476 226.119 297.451 226.119Z" fill="#A6A27D"/>
<path fill-rule="evenodd" clip-rule="evenodd" d="M297.94 226.084L297.78 226.083C297.736 226.083 297.699 226.047 297.699 226.003C297.699 225.959 297.736 225.923 297.78 225.923L297.94 225.924C297.985 225.924 298.02 225.959 298.02 226.003C298.02 226.048 297.984 226.084 297.94 226.084Z" fill="#A6A27D"/>
<path fill-rule="evenodd" clip-rule="evenodd" d="M297.905 227.081C297.905 227.28 297.768 227.441 297.599 227.441C297.43 227.441 297.293 227.28 297.293 227.081V226.066C297.293 225.867 297.43 225.706 297.599 225.706C297.768 225.706 297.905 225.867 297.905 226.066V227.081Z" fill="#A89F53"/>
<path fill-rule="evenodd" clip-rule="evenodd" d="M288.117 233.727H296.68V228.958H288.117V233.727Z" fill="#B5173E"/>
<path fill-rule="evenodd" clip-rule="evenodd" d="M287.914 229.825H297.089V228.308H287.914V229.825Z" fill="#B5173E"/>
<path fill-rule="evenodd" clip-rule="evenodd" d="M288.32 222.238H290.155V221.371H288.32V222.238Z" fill="#EEEBC9"/>
<path fill-rule="evenodd" clip-rule="evenodd" d="M289.605 223.083C289.605 222.762 289.851 222.503 290.155 222.497V222.14C290.155 221.954 290.012 221.804 289.835 221.804H288.641C288.464 221.804 288.32 221.954 288.32 222.14V222.498C288.329 222.497 288.34 222.497 288.35 222.497C288.658 222.497 288.908 222.759 288.908 223.083C288.908 223.407 288.658 223.669 288.35 223.669C288.34 223.669 288.329 223.668 288.32 223.667V223.852C288.32 224.038 288.464 224.189 288.641 224.189H289.835C290.012 224.189 290.155 224.038 290.155 223.852V223.669C289.851 223.663 289.605 223.404 289.605 223.083Z" fill="#B5173E"/>
<path fill-rule="evenodd" clip-rule="evenodd" d="M294.844 222.238H296.679V221.371H294.844V222.238Z" fill="#EEEBC9"/>
<path fill-rule="evenodd" clip-rule="evenodd" d="M296.129 223.083C296.129 222.762 296.375 222.503 296.679 222.497V222.14C296.679 221.954 296.535 221.804 296.358 221.804H295.164C294.987 221.804 294.844 221.954 294.844 222.14V222.498C294.853 222.497 294.863 222.497 294.873 222.497C295.181 222.497 295.431 222.759 295.431 223.083C295.431 223.407 295.181 223.669 294.873 223.669C294.863 223.669 294.853 223.668 294.844 223.667V223.852C294.844 224.038 294.987 224.189 295.164 224.189H296.358C296.535 224.189 296.679 224.038 296.679 223.852V223.669C296.375 223.663 296.129 223.404 296.129 223.083Z" fill="#B5173E"/>
<path fill-rule="evenodd" clip-rule="evenodd" d="M348.5 248C357.06 248 364 241.06 364 232.5C364 223.94 357.06 217 348.5 217C339.94 217 333 223.94 333 232.5C333 241.06 339.94 248 348.5 248Z" fill="#CAD8F1"/>
<path d="M348.305 229.432V222.235C348.305 221.806 348.644 221.458 349.062 221.458H359.052C359.47 221.458 359.809 221.806 359.809 222.235V229.432C359.809 229.861 359.47 230.208 359.052 230.208H349.062C348.644 230.208 348.305 229.861 348.305 229.432Z" fill="#46738C"/>
<path d="M349.092 227.5C348.977 227.5 348.863 227.449 348.787 227.35C348.654 227.179 348.683 226.932 348.851 226.797L352.04 224.251C352.209 224.117 352.454 224.146 352.587 224.317C352.72 224.488 352.691 224.735 352.522 224.87L349.333 227.415C349.262 227.472 349.177 227.5 349.092 227.5Z" fill="#FF8C46"/>
<path d="M343.049 223.333C343.98 223.333 344.735 222.587 344.735 221.667C344.735 220.746 343.98 220 343.049 220C342.118 220 341.363 220.746 341.363 221.667C341.363 222.587 342.118 223.333 343.049 223.333Z" fill="#FFB69E"/>
<path d="M344.041 241.042C343.548 241.042 343.148 240.594 343.148 240.041V232.042C343.148 231.49 343.548 231.042 344.041 231.042C344.534 231.042 344.934 231.49 344.934 232.042V240.041C344.934 240.594 344.534 241.042 344.041 241.042Z" fill="#343E6B"/>
<path d="M341.861 241.042C341.368 241.042 340.969 240.594 340.969 240.041V232.042C340.969 231.49 341.368 231.042 341.861 231.042C342.354 231.042 342.754 231.49 342.754 232.042V240.041C342.754 240.594 342.354 241.042 341.861 241.042Z" fill="#414B82"/>
<path d="M349.578 226.633C349.351 226.251 348.871 226.134 348.505 226.371L346.928 227.393V225.873C346.923 224.817 346.089 223.958 345.077 223.958H345.049C344.551 223.958 341.381 223.958 340.866 223.958C339.834 223.958 338.989 224.822 338.984 225.883C338.984 225.884 338.984 225.885 338.984 225.887V231.891C338.984 232.342 339.335 232.708 339.767 232.708C340.2 232.708 340.55 232.342 340.55 231.891V225.89C340.552 225.734 340.702 225.593 340.866 225.593H340.894V231.807H345.041C345.041 231.228 345.041 226.236 345.041 225.585C345.045 225.585 345.082 225.585 345.077 225.585C345.234 225.585 345.376 225.718 345.377 225.881V228.855C345.38 229.491 346.052 229.876 346.567 229.542L349.327 227.752C349.692 227.515 349.805 227.014 349.578 226.633Z" fill="#252D5C"/>
<path d="M349.77 226.656C349.536 226.271 349.041 226.153 348.664 226.392L347.036 227.423V225.889C347.031 224.825 346.17 223.958 345.127 223.958C344.851 223.958 343.215 223.958 342.949 223.958V231.875H345.089C345.089 231.291 345.089 226.256 345.089 225.599C345.093 225.599 345.131 225.599 345.127 225.599C345.288 225.599 345.435 225.733 345.436 225.898V228.897C345.439 229.539 346.132 229.926 346.663 229.59L349.512 227.785C349.889 227.546 350.004 227.041 349.77 226.656Z" fill="#1B224A"/>
<path d="M349.577 226.676C349.35 226.253 348.869 226.123 348.504 226.386L349.326 227.917C349.691 227.654 349.804 227.099 349.577 226.676Z" fill="#FFB69E"/>
<path d="M348.343 226.673L349.168 228.018L350.021 227.495L349.196 226.15L348.343 226.673Z" fill="white"/>
<path d="M338.984 231.623V232.049C338.984 232.506 339.339 232.876 339.777 232.876C340.215 232.876 340.57 232.506 340.57 232.049V231.623H338.984Z" fill="white"/>
<path d="M338.984 231.875V231.896C338.984 232.345 339.34 232.708 339.778 232.708C340.216 232.708 340.571 232.345 340.571 231.896V231.875H338.984Z" fill="#FFB69E"/>
<path d="M341.762 223.958L342.952 227.292L344.142 223.958H341.762Z" fill="white"/>
<path d="M343.503 225.093L343.22 224.58L343.464 224.138C343.508 224.057 343.45 223.958 343.358 223.958H342.541C342.45 223.958 342.391 224.057 342.435 224.138L342.68 224.581L342.398 225.093C342.359 225.164 342.346 225.246 342.362 225.326L342.536 226.207L342.95 227.292L343.364 226.207L343.539 225.326C343.555 225.246 343.542 225.164 343.503 225.093Z" fill="#FF3C3C"/>
<path d="M344.737 226.458H343.547V227.458H344.737V226.458Z" fill="#252D5C"/>
<path d="M357.16 237.531C358.03 237.531 358.735 236.779 358.735 235.852C358.735 234.924 358.03 234.172 357.16 234.172C356.291 234.172 355.586 234.924 355.586 235.852C355.586 236.779 356.291 237.531 357.16 237.531Z" fill="#80391B"/>
<path d="M359.194 238.067C358.731 238.067 355.578 238.067 355.115 238.067C354.129 238.067 353.314 238.923 353.309 239.975V241.854H354.828V239.983C354.829 239.82 354.963 239.688 355.115 239.688H355.13V241.854H359.154V239.688H359.194C359.347 239.688 359.48 239.82 359.481 239.983V241.854H361V239.975C360.996 238.923 360.18 238.067 359.194 238.067Z" fill="#80391B"/>
<path d="M359.184 238.125H357.932C357.444 238.531 356.804 238.515 356.359 238.125H355.083C354.091 238.125 353.271 238.973 353.266 240.014V241.182H354.794V240.022C354.794 239.861 354.929 239.73 355.083 239.73H355.098V241.875H359.144V239.73H359.184C359.338 239.73 359.472 239.861 359.473 240.022V241.182H361.001V240.014C360.996 238.973 360.176 238.125 359.184 238.125Z" fill="#55C7A6"/>
<path d="M348.807 237.531C349.672 237.531 350.373 236.779 350.373 235.852C350.373 234.924 349.672 234.172 348.807 234.172C347.943 234.172 347.242 234.924 347.242 235.852C347.242 236.779 347.943 237.531 348.807 237.531Z" fill="#FFB69E"/>
<path d="M350.831 238.067C350.371 238.067 347.236 238.067 346.776 238.067C345.796 238.067 344.985 238.923 344.98 239.975V241.854H346.491V239.983C346.492 239.82 346.625 239.688 346.776 239.688H346.791V241.854H350.791V239.688H350.831C350.983 239.688 351.115 239.82 351.116 239.983V241.854H352.627V239.975C352.622 238.923 351.811 238.067 350.831 238.067Z" fill="#FFB69E"/>
<path d="M350.852 238.125H349.537C349.049 238.531 348.409 238.515 347.965 238.125H346.751C345.759 238.125 344.939 238.973 344.934 240.014V241.182H346.462V240.022C346.462 239.861 346.597 239.73 346.751 239.73H346.766V241.875H350.812V239.73H350.852C351.006 239.73 351.14 239.861 351.141 240.022V241.182H352.669V240.014C352.664 238.973 351.844 238.125 350.852 238.125Z" fill="#252D5C"/>
<path d="M340.852 237.532C341.721 237.532 342.426 236.785 342.426 235.863C342.426 234.942 341.721 234.194 340.852 234.194C339.982 234.194 339.277 234.942 339.277 235.863C339.277 236.785 339.982 237.532 340.852 237.532Z" fill="#FFB69E"/>
<path d="M342.885 238.064C342.423 238.064 339.269 238.064 338.807 238.064C337.82 238.064 337.005 238.915 337 239.96V241.828H338.519V239.969C338.52 239.807 338.654 239.675 338.807 239.675H338.822V241.828H342.846V239.675H342.885C343.038 239.675 343.172 239.807 343.172 239.968V241.828H344.692V239.96C344.687 238.915 343.872 238.064 342.885 238.064Z" fill="#FFB69E"/>
<path d="M342.919 238.125H341.604C341.116 238.531 340.476 238.515 340.031 238.125H338.817C337.825 238.125 337.005 238.973 337 240.014V241.182H338.528V240.022C338.529 239.861 338.663 239.73 338.817 239.73H338.832V241.875H342.879V239.73H342.919C343.072 239.73 343.207 239.861 343.207 240.022V241.182H344.736V240.014C344.731 238.973 343.911 238.125 342.919 238.125Z" fill="#78BEFF"/>
<path d="M353.551 240.652C354.421 240.652 355.126 239.9 355.126 238.973C355.126 238.045 354.421 237.293 353.551 237.293C352.682 237.293 351.977 238.045 351.977 238.973C351.977 239.9 352.682 240.652 353.551 240.652Z" fill="#FFB69E"/>
<path d="M355.584 241.188C355.122 241.188 351.969 241.188 351.506 241.188C350.52 241.188 349.704 242.044 349.699 243.096V244.975H351.219V243.104C351.219 242.941 351.353 242.808 351.506 242.808H351.521V244.975H355.545V242.808H355.584C355.737 242.808 355.871 242.941 355.872 243.104V244.975H357.391V243.096C357.386 242.043 356.571 241.188 355.584 241.188Z" fill="#FFB69E"/>
<path d="M355.614 241.042H354.361C353.874 241.448 353.233 241.432 352.789 241.042H351.512C350.52 241.042 349.7 241.889 349.695 242.931V244.099H351.223V242.939C351.224 242.778 351.359 242.646 351.512 242.646H351.527V244.792H355.574V242.646H355.614C355.768 242.646 355.902 242.778 355.903 242.939V244.099H357.431V242.931C357.426 241.889 356.606 241.042 355.614 241.042Z" fill="#78BEFF"/>
<path d="M345.422 240.652C346.292 240.652 346.997 239.9 346.997 238.973C346.997 238.045 346.292 237.293 345.422 237.293C344.553 237.293 343.848 238.045 343.848 238.973C343.848 239.9 344.553 240.652 345.422 240.652Z" fill="#BA6746"/>
<path d="M347.456 241.188C346.993 241.188 343.84 241.188 343.377 241.188C342.391 241.188 341.575 242.044 341.57 243.096V244.975H343.09V243.104C343.091 242.941 343.224 242.808 343.377 242.808H343.392V244.975H347.416V242.808H347.456C347.608 242.808 347.742 242.941 347.743 243.104V244.975H349.262V243.096C349.257 242.043 348.442 241.188 347.456 241.188Z" fill="#BA6746"/>
<path d="M347.481 241.042H346.166C345.678 241.448 345.038 241.432 344.593 241.042H343.379C342.387 241.042 341.567 241.889 341.562 242.931V244.099H343.091V242.939C343.091 242.778 343.226 242.646 343.379 242.646H343.394V244.792H347.441V242.646H347.481C347.635 242.646 347.769 242.778 347.77 242.939V244.099H349.298V242.931C349.293 241.889 348.473 241.042 347.481 241.042Z" fill="#FF3C3C"/>
<path fill-rule="evenodd" clip-rule="evenodd" d="M512 346.973L513.721 348.371C513.721 348.371 513.781 348.382 513.878 348.521L513.902 348.555C514.352 348.968 515.481 350.047 515.974 351.043C516.11 351.309 516.185 351.565 516.2 351.809C516.316 353.159 523 346.903 523 346.903C523 346.903 522.4 346.795 521.665 346.421C521.122 346.172 519.811 344.908 517.939 343L512 346.973Z" fill="#EDB6A4"/>
<path fill-rule="evenodd" clip-rule="evenodd" d="M526 350.02C525.438 347.729 523.862 346.465 521.498 346C519.664 348.434 517.592 350.381 515.1 351.461C515.003 354.604 513.807 358.356 512.128 362.377C511.674 363.744 512.462 364.12 513.911 363.969L526 350.02Z" fill="#212D5F"/>
<path fill-rule="evenodd" clip-rule="evenodd" d="M527 351.508L514.603 365L514 364.492L526.397 351L527 351.508Z" fill="#A8CFEF"/>
<path fill-rule="evenodd" clip-rule="evenodd" d="M451 354.764L451.868 356.69C451.868 356.69 451.918 356.725 451.937 356.884L451.943 356.924C452.145 357.468 452.635 358.869 452.59 359.922C452.581 360.205 452.524 360.453 452.417 360.666C451.855 361.854 461 359.491 461 359.491C461 359.491 460.51 359.138 460.029 358.504C459.659 358.057 459.096 356.422 458.343 354L451 354.764Z" fill="#EDB6A4"/>
<path fill-rule="evenodd" clip-rule="evenodd" d="M445.408 370L462.822 363.572C463.392 361.329 462.57 359.504 460.665 358C457.873 359.25 455.098 359.969 452.351 359.743C450.787 362.414 447.951 365.101 444.554 367.795C443.504 368.765 444.034 369.457 445.408 370Z" fill="#212D5F"/>
<path fill-rule="evenodd" clip-rule="evenodd" d="M462 365.712L445.271 372L445 371.288L461.729 365L462 365.712Z" fill="#A8CFEF"/>
<path fill-rule="evenodd" clip-rule="evenodd" d="M448.283 210.334L440.376 216.495L425.267 183L419 187.572C425.3 201.852 431.158 219.748 435.773 223.196C438.905 224.33 444.752 226.544 451 227L448.283 210.334Z" fill="#393768"/>
<path fill-rule="evenodd" clip-rule="evenodd" d="M519 343.911L518.115 344.608L512.85 348.678L512.011 349.328L483.893 315.592C481.61 313.546 475.879 299.782 471.08 289.226C467.958 295.852 461.971 304.827 452.933 313.127C455.215 319.87 456.496 338.866 458.408 356.396L457.894 356.513L451.442 357.861L450.766 358C446.805 342.097 439.771 321.451 439.001 312.592C438.862 308.873 449.555 284.901 457.172 266.65C457.685 265.418 458.197 264.185 458.686 263L486.874 266.836L490.346 267.301C490.486 267.72 490.626 268.138 490.742 268.58C491.231 270.184 491.65 271.998 492 274.021C493.514 282.484 494.26 294.294 495.378 307.082C500.503 312.034 509.728 329.217 519 343.911Z" fill="#002BFF"/>
<path fill-rule="evenodd" clip-rule="evenodd" d="M471.144 191.848L469.392 193.298C469.111 193.532 468.831 193.765 468.574 193.976C468.55 193.999 467.709 194.7 467.709 194.7C467.125 195.191 466.611 195.612 466.12 196.009L460.513 200.662L449.928 209.453C449.905 209.477 449.017 210.201 449.017 210.201L435.208 221.657L430.208 225.819L422.731 232.038L390.838 258.503L390.044 259.158L351 269L367.893 232.436L368.664 231.78L419.834 189.324L420.418 188.832L426.494 183.782L428.035 182.52L482.85 137C488.107 139.478 492.92 143.125 496.869 147.918C500.841 152.688 503.551 158.112 505 163.746L471.144 191.848Z" fill="white"/>
<path fill-rule="evenodd" clip-rule="evenodd" d="M504.167 162L507.122 159.6L511.935 155.693C516.727 151.801 517.371 144.844 513.394 140.154L505.624 130.988C501.649 126.298 494.56 125.652 489.767 129.544L484.955 133.451L482 135.851C487.26 138.278 492.079 141.855 496.039 146.525C499.998 151.196 502.701 156.492 504.167 162Z" fill="#393768"/>
<path fill-rule="evenodd" clip-rule="evenodd" d="M391 258.565V258.588L390.203 259.216L351 269L367.962 232.652L368.737 232C374.015 234.464 378.847 238.113 382.836 242.854C386.801 247.595 389.522 252.964 391 258.565Z" fill="#393768"/>
<path fill-rule="evenodd" clip-rule="evenodd" d="M492.779 269.03C492.565 269.101 492.329 269.172 492.068 269.219C491.169 269.455 490.105 269.621 488.921 269.739C481.562 270.542 469.469 269.432 457.968 267.259C457.779 267.212 457.566 267.188 457.377 267.14C458.56 254.223 457.046 244.869 454.56 237.242C453.567 234.172 452.525 231.077 451.579 227.583C451.532 227.393 451.484 227.228 451.437 227.039C450.23 222.457 449.307 217.215 449 210.436V210.224C449.283 210.036 449.567 209.847 449.852 209.634C452.597 207.815 455.295 206.186 457.921 204.816C462.701 202.336 467.292 200.706 471.504 200.186C474.297 199.832 476.947 199.974 479.385 200.682C480.474 201.061 481.443 201.533 482.271 202.099C485.727 204.344 487.005 207.839 487.95 212.303C488.14 213.152 488.306 214.05 488.472 214.971C488.708 216.152 488.921 217.403 489.182 218.702C492.046 233.415 493.607 254.34 492.779 269.03Z" fill="#EA3663"/>
<path fill-rule="evenodd" clip-rule="evenodd" d="M422 225.166L421.184 231.927H418.395C418.158 232.5 415.199 232.928 414.315 233C413.804 233 410.779 230.031 410.132 229.244C409.452 228.028 408.67 226.024 409.146 224.915C411.696 224.88 414.281 224.844 415.539 224.343C414.722 223.055 414.131 222.448 413.893 221.518C414.369 221.053 414.947 220.91 415.593 221.053C417.259 221.875 418.43 222.912 419.586 224.952L422 225.166Z" fill="#EDB6A4"/>
<path fill-rule="evenodd" clip-rule="evenodd" d="M488 214.644C482.604 220.862 476.787 227.636 470.265 232.6V232.623C468.154 234.247 465.948 235.685 463.673 236.868C461.679 237.147 458.464 236.961 454.383 236.521C444.647 235.454 435.803 233.505 422.478 231.765C422.056 231.695 421.609 231.626 421.164 231.579C421.117 231.579 421.047 231.556 421 231.556L421.797 225.177L421.821 225.061L429.985 225.593L451.427 227.033L459.802 227.38C467.684 216.523 476.2 206.246 481.854 202C485.279 204.204 486.546 207.638 487.484 212.023C487.672 212.857 487.836 213.739 488 214.644Z" fill="#393768"/>
<path fill-rule="evenodd" clip-rule="evenodd" d="M460.819 196.781C461.239 199.266 460.916 201.676 458 203.825C461.041 206.156 466.746 205.168 472 199.514C470.269 197.285 468.3 195.214 469.344 192L460.819 196.781Z" fill="#E0A494"/>
<path fill-rule="evenodd" clip-rule="evenodd" d="M449 180.249C450.412 191.916 456.659 199 458.854 199C461.419 198.74 464.019 196.273 469 191.924L467.631 179.325L458.003 171L449 180.249Z" fill="#EDB6A4"/>
<path fill-rule="evenodd" clip-rule="evenodd" d="M457.817 180.848C455.71 184.537 453.223 186.985 450.065 187.245C447.538 186.946 445.743 185.696 445 183.083C445.022 178.385 444.871 177.045 449.604 173.14C453.501 174.133 459.087 171.119 462.729 170.057C465.543 169.468 469.581 173.57 471.271 177.611C472.911 179.903 471.271 191.788 471.271 191.788C471.141 192.809 470.391 194.752 467.117 195C465.402 194.407 464.056 192.395 463.803 189.018C464.78 187.241 465.557 185.47 465.606 183.721C465.083 182.065 464.097 181.428 462.677 181.747C461.349 182.817 461.286 184.698 461.424 186.705L459.829 187.553C459.494 184.86 459.227 182.075 457.817 180.848Z" fill="#212D5F"/>
<path fill-rule="evenodd" clip-rule="evenodd" d="M425.456 182.23C427.341 181.904 428.528 181.893 429.786 182.405C430.354 182.906 429.69 183.506 428.97 183.568L427.404 183.476C428.002 184.342 428.564 184.748 429.962 185.522C430.188 186.828 428.086 188.015 425.456 188.841C424.052 189.274 421.199 188.739 419.904 188.228C419.064 187.796 418.918 187.555 419.036 186.836C419.611 185.185 423.42 182.561 425.456 182.23Z" fill="#EDB6A4"/>
<path opacity="0.0974298" fill-rule="evenodd" clip-rule="evenodd" d="M492 274C490.948 273.25 489.919 272.382 489.05 271.444C488.569 270.904 488.112 270.084 487.723 269.028C487.449 268.348 487.197 267.575 486.969 266.754C485.276 260.774 484.361 251.793 483.515 250.363C482.372 248.44 482.761 241.921 481.8 240.162C480.84 238.404 470 232.823 470 232.823V232.799L473.225 228.25C473.225 228.25 479.125 220.816 479.239 219.551C479.353 218.284 484.087 215.353 484.659 215.165C485.048 215.025 486.123 213.149 486.786 212C486.969 212.844 487.128 213.736 487.289 214.65C487.517 215.822 487.723 217.065 487.975 218.355C490.742 232.963 492.252 253.74 491.451 268.325C491.245 268.395 491.017 268.466 490.765 268.512C491.245 270.131 491.657 271.96 492 274Z" fill="black"/>
<path opacity="0.0974298" fill-rule="evenodd" clip-rule="evenodd" d="M384 282L351 269.164L384 261V282Z" fill="black"/>
<path fill-rule="evenodd" clip-rule="evenodd" d="M158.296 355L158.1 357.007C158.1 357.007 158.064 357.052 158.1 357.204L158.108 357.242C158.095 357.797 158.094 359.219 158.504 360.179C158.61 360.439 158.753 360.653 158.933 360.82C159.902 361.769 150 362 150 362C150 362 150.365 361.545 150.623 360.832C150.834 360.324 150.827 358.666 150.736 356.232L158.296 355Z" fill="#EDB6A4"/>
<path fill-rule="evenodd" clip-rule="evenodd" d="M168.98 369L149.837 367.825C148.564 365.535 148.792 363.229 150.186 360.91C153.325 361.342 156.279 361.19 158.904 360C161.289 362.427 164.927 364.437 169.118 366.263C170.458 366.98 170.156 367.927 168.98 369Z" fill="#ADADEA"/>
<path fill-rule="evenodd" clip-rule="evenodd" d="M150 368.87L168.955 370L169 369.13L150.045 368L150 368.87Z" fill="#A8CFEF"/>
<path fill-rule="evenodd" clip-rule="evenodd" d="M113 353.102L111.776 355.185C111.776 355.185 111.719 355.218 111.671 355.398L111.658 355.444C111.356 356.039 110.609 357.577 110.468 358.803C110.426 359.132 110.44 359.428 110.511 359.692C110.87 361.16 102 356.91 102 356.91C102 356.91 102.561 356.583 103.163 355.929C103.616 355.474 104.481 353.676 105.676 351L113 353.102Z" fill="#EDB6A4"/>
<path fill-rule="evenodd" clip-rule="evenodd" d="M114.381 370L98.024 360.471C97.818 358.037 98.936 356.262 101.083 355C103.67 356.757 106.326 357.956 109.107 358.163C110.236 361.207 112.634 364.472 115.591 367.834C116.483 369.017 115.841 369.654 114.381 370Z" fill="#ADADEA"/>
<path fill-rule="evenodd" clip-rule="evenodd" d="M98 360.768L114.594 371L115 370.233L98.406 360L98 360.768Z" fill="#A8CFEF"/>
<path fill-rule="evenodd" clip-rule="evenodd" d="M128 202L112.452 231.899L110 268L117.744 265.429L120.954 239.988L124.98 227.999L128 202Z" fill="#EDB6A4"/>
<path fill-rule="evenodd" clip-rule="evenodd" d="M150.793 357.994L159.984 358L162 302.928L157.625 261L135 263.573C135.656 271.595 142.546 290.239 148.5 307.289L150.793 357.994Z" fill="#212D5F"/>
<path fill-rule="evenodd" clip-rule="evenodd" d="M190.117 237.848C188.197 241.333 184.968 244.127 180.801 245.351L159.105 251.792L157.911 252.138L152.645 253.685L123.762 262.25L112.856 265.482L94.46 281.573C93.242 282.682 91.323 281.458 91.861 279.888L93.64 270.468C86.899 270.445 80.697 266.105 78.661 259.41C77.42 255.324 77.982 251.099 79.878 247.613C81.797 244.127 85.05 241.356 89.193 240.11L122.663 230.206L158.613 219.563L161.258 218.778L162.428 218.432L171.767 215.662C180.075 213.191 188.829 217.855 191.333 226.051C192.573 230.137 192.036 234.361 190.117 237.848Z" fill="#E6E9F8"/>
<path fill-rule="evenodd" clip-rule="evenodd" d="M166.095 222.216L170.48 228.842C170.598 229.021 170.812 229.099 171.009 229.036L178.384 226.717C178.826 226.579 179.18 227.113 178.901 227.498L174.236 233.913C174.111 234.085 174.106 234.322 174.223 234.499L178.609 241.126C178.871 241.524 178.495 242.041 178.059 241.881L170.791 239.219C170.596 239.148 170.38 239.217 170.254 239.388L165.59 245.802C165.31 246.187 164.723 245.972 164.734 245.489L164.906 237.429C164.911 237.213 164.782 237.018 164.587 236.946L157.319 234.284C156.883 234.124 156.897 233.474 157.34 233.334L164.714 231.016C164.912 230.954 165.049 230.765 165.053 230.548L165.226 222.489C165.237 222.006 165.832 221.818 166.095 222.216Z" fill="#393768"/>
<path fill-rule="evenodd" clip-rule="evenodd" d="M122 244.114L95.548 252L94 246.886L120.452 239L122 244.114Z" fill="#393768"/>
<path fill-rule="evenodd" clip-rule="evenodd" d="M149 246.906L104.503 260L103 255.095L147.496 242L149 246.906Z" fill="#393768"/>
<path fill-rule="evenodd" clip-rule="evenodd" d="M104 351.313L111.675 355L138.087 302.29L145 259.676L122.958 259C121.581 267.938 122.48 284.451 123.472 301.276L104 351.313Z" fill="#212D5F"/>
<path fill-rule="evenodd" clip-rule="evenodd" d="M200 187.574C189.271 199.467 174.856 217.622 170.819 219C169.152 218.487 166.193 215.706 162.907 212.785C161.31 211.383 159.644 209.958 158 208.72L161.991 197.014L172.18 206.617L197.018 184L198.732 186.056L200 187.574Z" fill="#EDB6A4"/>
<path fill-rule="evenodd" clip-rule="evenodd" d="M200.301 182.976L194.736 181.699C194.176 181.57 193.87 180.955 194.053 180.325L197.355 168.933C197.538 168.302 198.14 167.895 198.7 168.024L204.265 169.301C204.824 169.43 205.13 170.045 204.947 170.676L201.646 182.068C201.463 182.698 200.86 183.105 200.301 182.976Z" fill="#393768"/>
<path fill-rule="evenodd" clip-rule="evenodd" d="M200.486 181.993L195.223 180.744C195.053 180.704 194.961 180.511 195.016 180.314L198.107 169.292C198.162 169.094 198.344 168.967 198.514 169.007L203.776 170.256C203.947 170.296 204.039 170.489 203.984 170.686L200.893 181.708C200.838 181.906 200.656 182.033 200.486 181.993Z" fill="#E6E9F8"/>
<path fill-rule="evenodd" clip-rule="evenodd" d="M201.554 169.993L200.234 169.703C200.056 169.663 199.959 169.476 200.017 169.284C200.076 169.092 200.267 168.968 200.446 169.007L201.766 169.297C201.944 169.336 202.041 169.524 201.983 169.716C201.924 169.908 201.733 170.032 201.554 169.993Z" fill="#393768"/>
<path fill-rule="evenodd" clip-rule="evenodd" d="M203.038 186.149C202.092 187.195 201.168 188.047 199.862 187.998L198.645 186.417L197 184.275C197.113 183.617 197.113 182.303 197.811 181.403L197.991 179.65C198.082 178.652 198.465 178.141 199.321 178.166C199.839 178.944 199.298 180.502 201.213 180.867L202.475 176C203.466 176.925 203.692 179.115 203.827 180.746C204.21 182.839 203.962 184.397 203.038 186.149Z" fill="#EDB6A4"/>
<path fill-rule="evenodd" clip-rule="evenodd" d="M119.123 265.713C120.722 264.15 119.846 262.567 118.778 261.406C115.718 260.662 114.258 260.82 110.609 262.903C110.258 265.124 109.273 267.178 110.945 267.94C113.581 268.324 116.293 266.782 119.123 265.713Z" fill="#EDB6A4"/>
<path fill-rule="evenodd" clip-rule="evenodd" d="M164.003 214.902C163.657 215.346 163.379 215.604 163.171 215.627L161.208 214.246C161.184 214.386 161.184 214.551 161.161 214.691V214.714C161.046 216.26 160.907 217.712 160.722 219.14C160.168 224.245 159.452 228.742 158.828 233.098C158.712 233.87 158.597 234.667 158.505 235.439C157.719 241.083 157.187 246.562 157.419 252.979C157.557 256.89 157.997 261.153 158.851 266L155.663 265.742L123.713 263.237L121.356 263.049C121.449 260.474 121.518 257.944 121.588 255.462C121.634 253.588 121.68 251.738 121.726 249.935C121.934 243.027 122.188 236.61 122.627 230.732C122.812 227.946 123.066 225.276 123.39 222.746C121.795 221.903 120.34 220.686 119 219.14C119 219.14 127.987 203.403 129.096 202.209C138.636 196.471 149.979 194.059 161.715 197.783V197.807L168.969 203.848C169.455 204.246 164.003 214.902 164.003 214.902Z" fill="#0001F1"/>
<path fill-rule="evenodd" clip-rule="evenodd" d="M141.784 190.817C141.327 194.57 142.218 194.767 140 197.618C144.399 198.034 151.035 198.675 153 196.012C151.141 193.806 151.092 191.348 150.501 188L141.784 190.817Z" fill="#E0A494"/>
<path fill-rule="evenodd" clip-rule="evenodd" d="M142.207 192C147.163 191.88 151.992 191.715 154.07 189.825C155.273 187.486 155.572 175.827 153.357 172.611L140.063 171L136 181.387L142.207 192Z" fill="#EDB6A4"/>
<path fill-rule="evenodd" clip-rule="evenodd" d="M145.675 179.039C148.931 178.671 151.721 177.773 153.662 175.91C155.045 174.566 155.199 172.919 154.825 171.142C151.968 167.629 147.366 167.14 142.563 167C139.545 167.143 136.902 168.08 134.717 169.992C131.546 172.488 130.791 176.248 131.045 180.536C131.849 187.95 139.531 193.503 142.563 194C144.213 191.728 145.109 189.476 144.361 187.27C142.8 186.798 141.5 185.773 141.267 184.453C141.33 183.215 141.597 182.379 142.499 181.677C143.571 181.148 144.884 182.565 146.031 183.999L147.049 183.015C146.309 181.649 145.556 180.281 145.675 179.039Z" fill="#212D5F"/>
<path opacity="0.0979393" fill-rule="evenodd" clip-rule="evenodd" d="M123.47 222.433L125.901 215C125.901 215 124.752 226.016 124.685 229.303C124.618 232.59 124.832 236.751 125.046 238.212C125.261 239.673 126.326 246.528 125.901 248.906C125.475 251.284 124.761 255.739 125.261 257.93C125.761 260.121 124.735 262.911 124.735 262.911C124.687 262.592 119.942 263.946 120.001 263.99C120.42 264.298 118.495 257.588 119.13 255.86C119.763 254.133 120.002 245.881 119.848 243.763C119.692 241.645 120.334 232.318 120.906 230.665C121.477 229.011 123.47 222.433 123.47 222.433Z" fill="black"/>
<path opacity="0.0979393" fill-rule="evenodd" clip-rule="evenodd" d="M163 217.239C162.618 219.325 161.399 223.47 160.994 225.72C160.73 227.166 160.396 229.512 160.086 231.643C159.966 232.567 159.847 233.42 159.751 234.154C159.632 235.102 159.537 235.837 159.513 236.192C159.393 237.471 159.107 244.673 159.202 247.54C159.226 248.251 159.369 249.672 159.608 251.473L158.39 251.828C158.533 255.784 158.987 260.097 159.871 265L156.575 264.74C156.193 263.981 155.691 263.057 155.118 262.442C154.186 261.399 153.063 256.282 153.016 253.415C152.992 252.965 152.992 252.586 153.039 252.279C153.327 249.91 155.524 239.249 155.619 236.381C155.715 233.515 157.41 228.493 158.199 226.029C158.653 224.655 158.939 221.362 159.107 218.4C159.249 216.008 159.297 213.852 159.297 213.093C159.297 211.506 158.343 208.379 158.223 208C158.891 209.232 162.259 213.093 162.259 213.093V213.117C162.14 214.681 161.997 216.15 161.805 217.595L163 217.239Z" fill="black"/>
<path opacity="0.0985054" fill-rule="evenodd" clip-rule="evenodd" d="M203.997 186.134C203.034 187.106 202.071 187.915 200.756 187.892H200.685C200.662 187.915 200.638 187.938 200.614 187.962C199.887 188.772 199.134 189.627 198.359 190.483C187.953 202.139 175.243 217.729 171.484 219C170.051 218.561 167.702 216.503 165 214.12V214.097C165.188 213.889 165.376 213.635 165.564 213.333C165.893 213.473 166.222 213.635 166.504 213.866C168.125 215.161 171.484 214.883 173.692 213.866C175.9 212.848 184.405 202.88 186.167 201.678C187.929 200.475 195.423 191.454 196.433 189.257C197.09 187.8 198.195 186.991 199.417 186.389C200.051 186.065 200.685 185.811 201.343 185.533C203.316 184.7 204.819 181 204.819 181C205.219 182.989 204.961 184.47 203.997 186.134Z" fill="black"/>
<path opacity="0.0985054" fill-rule="evenodd" clip-rule="evenodd" d="M203 186L198 202V190.286C198.687 189.442 199.354 188.599 200 187.801L200.125 187.732C201.292 187.755 202.146 186.957 203 186Z" fill="black"/>
</svg>
