<svg width="210" height="210" viewBox="0 0 210 210" fill="none" xmlns="http://www.w3.org/2000/svg">
<g filter="url(#filter0_d)">
<path fill-rule="evenodd" clip-rule="evenodd" d="M105 188C151.944 188 190 149.944 190 103C190 56.0558 151.944 18 105 18C58.0558 18 20 56.0558 20 103C20 149.944 58.0558 188 105 188Z" fill="url(#paint0_linear)"/>
</g>
<path fill-rule="evenodd" clip-rule="evenodd" d="M80 188L99.6875 101.082H113.887L126.857 188H80Z" fill="#FFC0A5"/>
<path fill-rule="evenodd" clip-rule="evenodd" d="M149.818 144.104C135.197 147.674 79.1324 120.363 82.064 80.7868C84.9956 41.2106 143.157 49.9168 154.471 69.8915C165.785 89.8662 164.44 140.534 149.818 144.104Z" fill="#FFC0A5"/>
<path fill-rule="evenodd" clip-rule="evenodd" d="M137.74 47.7771C132.127 46.0628 123.978 45.4814 120.55 45.8747C122.5 41.1957 123.274 35.9828 122.643 30.907C122.03 25.975 119.83 21.7755 117.794 17.3749C116.856 15.3466 115.793 13.3293 114.208 11.7778C112.594 10.1972 110.55 9.15382 108.407 8.65606C106.213 8.14655 103.92 8.18897 101.723 8.65136C100.752 8.85588 99.8797 9.30085 98.9267 9.54822C97.9508 9.80166 97.4774 9.18989 96.769 8.57508C95.0619 7.09367 92.5593 6.36236 90.3996 6.10063C87.9765 5.80711 85.4622 6.17318 83.1513 6.97096C80.902 7.74759 78.7411 9.00872 77.1148 10.846C76.3907 11.6638 75.7335 12.5946 75.3063 13.6224C75.1311 14.0441 75.1022 14.294 74.6819 14.4485C74.2933 14.5915 73.8387 14.5956 73.4376 14.7318C69.5593 16.0473 66.2433 19.0486 64.4378 22.902C63.3844 25.1501 62.8855 29.1082 63.0221 33.5446C63.1588 37.9809 67.1585 49.5567 70.8994 53.779C74.2385 57.5477 79.1466 60.0347 83.8834 61.1234C80.7394 64.7226 78.6465 69.2202 77.0989 73.7943C75.4178 78.7629 74.3774 83.9256 73.9932 89.1858C73.6283 94.1837 73.5945 99.4689 74.7644 104.36C75.8587 108.934 78.1991 112.686 82.1062 115.067C83.8958 116.157 85.8214 116.976 87.7581 117.725C89.6667 118.463 91.5811 119.18 93.5804 119.594C97.3643 120.378 101.724 120.243 104.639 117.227C105.689 116.139 106.845 114.773 107.611 113.444C107.887 112.967 108.053 112.654 107.718 112.187C107.317 111.628 106.668 111.2 106.153 110.762C103.215 108.268 101.396 104.937 100.938 100.98C100.472 96.9645 101.549 91.7816 105.447 90.0292C110.259 87.866 115.558 90.349 119.835 92.6636C121.652 86.2388 125.384 80.454 131.235 77.5069C137.709 74.2466 145.136 73.865 151.789 71.0676C153.522 70.3387 155.288 69.5112 156.564 68.0259C157.097 67.4052 157.723 66.5999 157.936 65.7789C158.216 64.7005 157.521 63.7963 156.985 62.9556C154.14 58.4977 143.353 49.4914 137.74 47.7771Z" fill="#191847"/>
<defs>
<filter id="filter0_d" x="0" y="0" width="210" height="210" filterUnits="userSpaceOnUse" color-interpolation-filters="sRGB">
<feFlood flood-opacity="0" result="BackgroundImageFix"/>
<feColorMatrix in="SourceAlpha" type="matrix" values="0 0 0 0 0 0 0 0 0 0 0 0 0 0 0 0 0 0 127 0"/>
<feOffset dy="2"/>
<feGaussianBlur stdDeviation="10"/>
<feColorMatrix type="matrix" values="0 0 0 0 0.129412 0 0 0 0 0.176471 0 0 0 0 0.372549 0 0 0 0.2 0"/>
<feBlend mode="normal" in2="BackgroundImageFix" result="effect1_dropShadow"/>
<feBlend mode="normal" in="SourceGraphic" in2="effect1_dropShadow" result="shape"/>
</filter>
<linearGradient id="paint0_linear" x1="21.4433" y1="18" x2="21.4433" y2="185.113" gradientUnits="userSpaceOnUse">
<stop stop-color="#F5515F"/>
<stop offset="1" stop-color="#EA3663"/>
</linearGradient>
</defs>
</svg>
