<svg width="210" height="210" viewBox="0 0 210 210" fill="none" xmlns="http://www.w3.org/2000/svg">
<g filter="url(#filter0_d)">
<path fill-rule="evenodd" clip-rule="evenodd" d="M105 188C151.944 188 190 149.944 190 103C190 56.0558 151.944 18 105 18C58.0558 18 20 56.0558 20 103C20 149.944 58.0558 188 105 188Z" fill="url(#paint0_linear)"/>
</g>
<path fill-rule="evenodd" clip-rule="evenodd" d="M80 188L99.6875 101.082H113.887L126.857 188H80Z" fill="#FFC0A5"/>
<path fill-rule="evenodd" clip-rule="evenodd" d="M149.818 144.104C135.197 147.674 79.1324 120.363 82.064 80.7868C84.9956 41.2106 143.157 49.9168 154.471 69.8915C165.785 89.8662 164.44 140.534 149.818 144.104Z" fill="#FFC0A5"/>
<path fill-rule="evenodd" clip-rule="evenodd" d="M94.0567 126.504C84.0029 126.504 47.3097 88.4621 83.8632 52.6707C120.417 16.8792 173.241 67.9734 157.368 70.9532C141.494 73.933 97.6275 98.0873 94.0567 126.504Z" fill="#191847"/>
<path fill-rule="evenodd" clip-rule="evenodd" d="M109.375 116.3C116.136 116.3 121.617 110.958 121.617 104.369C121.617 97.7804 116.136 92.439 109.375 92.439C102.614 92.439 97.1328 97.7804 97.1328 104.369C97.1328 110.958 102.614 116.3 109.375 116.3Z" fill="#FFC0A5"/>
<defs>
<filter id="filter0_d" x="0" y="0" width="210" height="210" filterUnits="userSpaceOnUse" color-interpolation-filters="sRGB">
<feFlood flood-opacity="0" result="BackgroundImageFix"/>
<feColorMatrix in="SourceAlpha" type="matrix" values="0 0 0 0 0 0 0 0 0 0 0 0 0 0 0 0 0 0 127 0"/>
<feOffset dy="2"/>
<feGaussianBlur stdDeviation="10"/>
<feColorMatrix type="matrix" values="0 0 0 0 0.129412 0 0 0 0 0.176471 0 0 0 0 0.372549 0 0 0 0.2 0"/>
<feBlend mode="normal" in2="BackgroundImageFix" result="effect1_dropShadow"/>
<feBlend mode="normal" in="SourceGraphic" in2="effect1_dropShadow" result="shape"/>
</filter>
<linearGradient id="paint0_linear" x1="21.4433" y1="18" x2="21.4433" y2="185.113" gradientUnits="userSpaceOnUse">
<stop stop-color="#F5515F"/>
<stop offset="1" stop-color="#EA3663"/>
</linearGradient>
</defs>
</svg>
