<svg width="210" height="210" viewBox="0 0 210 210" fill="none" xmlns="http://www.w3.org/2000/svg">
<g filter="url(#filter0_d)">
<path fill-rule="evenodd" clip-rule="evenodd" d="M105 188C151.944 188 190 149.944 190 103C190 56.0558 151.944 18 105 18C58.0558 18 20 56.0558 20 103C20 149.944 58.0558 188 105 188Z" fill="url(#paint0_linear)"/>
</g>
<path fill-rule="evenodd" clip-rule="evenodd" d="M149.818 144.104C135.197 147.674 79.1324 120.363 82.064 80.7868C84.9956 41.2106 143.157 49.9168 154.471 69.8915C165.785 89.8662 164.44 140.534 149.818 144.104Z" fill="#FFC0A5"/>
<path fill-rule="evenodd" clip-rule="evenodd" d="M80 188L99.6875 101.082H113.887L126.857 188H80Z" fill="#FFC0A5"/>
<path fill-rule="evenodd" clip-rule="evenodd" d="M133.6 68.2942C126.782 71.8949 122.022 78.888 116.263 88.1305C114.894 87.5922 113.402 87.2966 111.842 87.2966C105.163 87.2966 99.7497 92.7103 99.7497 99.3884C99.7497 102.779 101.145 105.843 103.392 108.039C100.595 111.988 97.4589 116.113 93.8658 120.37C80.3673 112.272 70.3507 88.5642 83.5476 65.7898C87.1953 54.633 95.4532 48.6738 105.206 45.9067C113.106 42.602 121.307 42.2294 128.23 44.2106C141.801 45.3746 153.919 49.5127 157.353 51.9702C157.353 64.8182 154.864 68.6302 133.6 68.2942Z" fill="#191847"/>
<path fill-rule="evenodd" clip-rule="evenodd" d="M120.173 82.03C120.173 82.03 122.95 120.72 134.866 120.72C146.782 120.72 156.892 113.155 162.121 113.155C165.932 113.155 165.081 117.925 162.555 121.461C160.47 124.379 150.32 127.191 150.32 131.714C150.32 136.237 158.34 132.738 158.34 135.421C158.34 139.858 159.749 148.201 152.048 148.201C144.253 148.201 121.906 145.361 118.076 133.793C114.246 122.225 113.213 85.0317 113.213 85.0317L120.173 82.03Z" fill="#191847"/>
<defs>
<filter id="filter0_d" x="0" y="0" width="210" height="210" filterUnits="userSpaceOnUse" color-interpolation-filters="sRGB">
<feFlood flood-opacity="0" result="BackgroundImageFix"/>
<feColorMatrix in="SourceAlpha" type="matrix" values="0 0 0 0 0 0 0 0 0 0 0 0 0 0 0 0 0 0 127 0"/>
<feOffset dy="2"/>
<feGaussianBlur stdDeviation="10"/>
<feColorMatrix type="matrix" values="0 0 0 0 0.129412 0 0 0 0 0.176471 0 0 0 0 0.372549 0 0 0 0.2 0"/>
<feBlend mode="normal" in2="BackgroundImageFix" result="effect1_dropShadow"/>
<feBlend mode="normal" in="SourceGraphic" in2="effect1_dropShadow" result="shape"/>
</filter>
<linearGradient id="paint0_linear" x1="21.4433" y1="18" x2="21.4433" y2="185.113" gradientUnits="userSpaceOnUse">
<stop stop-color="#F5515F"/>
<stop offset="1" stop-color="#EA3663"/>
</linearGradient>
</defs>
</svg>
