<svg width="100" height="100" viewBox="0 0 100 100" fill="none" xmlns="http://www.w3.org/2000/svg">
<g filter="url(#filter0_d)">
<path fill-rule="evenodd" clip-rule="evenodd" d="M50 78C66.5685 78 80 64.5685 80 48C80 31.4315 66.5685 18 50 18C33.4315 18 20 31.4315 20 48C20 64.5685 33.4315 78 50 78Z" fill="url(#paint0_linear)"/>
</g>
<path fill-rule="evenodd" clip-rule="evenodd" d="M54.2396 60.0921C58.865 62.6586 63.4097 63.8986 65.5431 63.3924C70.8926 62.1231 71.3844 44.108 67.2452 37.0059C63.1061 29.9038 41.8274 26.8082 40.7548 40.8798C40.3826 45.7635 42.6103 50.122 45.9016 53.6784L40 79H57.1429L54.2396 60.0921Z" fill="#E2C6AB"/>
<path fill-rule="evenodd" clip-rule="evenodd" d="M53.684 40.7287C55.2164 38.5378 56.6877 36.8666 58.6015 35.8962C66.3902 36.0143 67.3021 34.6736 67.3021 30.1549C66.0441 29.2906 61.6053 27.8352 56.6344 27.4258C54.0986 26.729 51.0945 26.86 48.2007 28.0223C44.6284 28.9955 41.6036 31.0914 40.2674 35.0154C35.4335 43.0253 39.1025 51.3633 44.0469 54.2117C45.3631 52.7145 46.5116 51.2635 47.5365 49.8745C46.7132 49.1023 46.2022 48.0246 46.2022 46.8322C46.2022 44.4835 48.1852 42.5794 50.6313 42.5794C50.8112 42.5794 50.9885 42.5897 51.1627 42.6097C51.2728 45.5463 51.7257 55.4814 52.9156 58.9324C54.3185 63.001 62.5042 64 65.3592 64C67.8252 64 67.7411 61.7579 67.6809 60.1511C67.6722 59.9197 67.664 59.7015 67.664 59.505C67.664 59.0945 67.108 59.0956 66.4797 59.0968C65.6639 59.0983 64.7264 59.1001 64.7264 58.2014C64.7264 57.2217 66.1363 56.4703 67.398 55.7978C68.1852 55.3783 68.9147 54.9896 69.208 54.5953C70.1334 53.3516 70.4451 51.6741 69.049 51.6741C68.2859 51.6741 67.2389 52.0965 65.9792 52.6047C64.0776 53.3719 61.6914 54.3346 59.0658 54.3346C54.7283 54.3346 53.6968 40.8971 53.684 40.7287Z" fill="#191847"/>
<defs>
<filter id="filter0_d" x="0" y="0" width="100" height="100" filterUnits="userSpaceOnUse" color-interpolation-filters="sRGB">
<feFlood flood-opacity="0" result="BackgroundImageFix"/>
<feColorMatrix in="SourceAlpha" type="matrix" values="0 0 0 0 0 0 0 0 0 0 0 0 0 0 0 0 0 0 127 0"/>
<feOffset dy="2"/>
<feGaussianBlur stdDeviation="10"/>
<feColorMatrix type="matrix" values="0 0 0 0 0.129412 0 0 0 0 0.176471 0 0 0 0 0.372549 0 0 0 0.2 0"/>
<feBlend mode="normal" in2="BackgroundImageFix" result="effect1_dropShadow"/>
<feBlend mode="normal" in="SourceGraphic" in2="effect1_dropShadow" result="shape"/>
</filter>
<linearGradient id="paint0_linear" x1="20.5094" y1="18" x2="20.5094" y2="76.9812" gradientUnits="userSpaceOnUse">
<stop stop-color="#F5515F"/>
<stop offset="1" stop-color="#EA3663"/>
</linearGradient>
</defs>
</svg>
